%TF.GenerationSoftware,KiCad,Pcbnew,10.0.0*%
%TF.CreationDate,2026-10-02T21:45:32-03:00*%
%TF.ProjectId,chufebu-v-0-rev-a,63687566-6562-4752-9d76-2d302d726576,rev?*%
%TF.SameCoordinates,Original*%
%TF.FileFunction,Soldermask,Bot*%
%TF.FilePolarity,Negative*%
%FSLAX46Y46*%
G04 Gerber Fmt 4.6, Leading zero omitted, Abs format (unit mm)*
G04 Created by KiCad (PCBNEW 10.0.0) date 2026-10-02 21:45:32*
%MOMM*%
%LPD*%
G01*
G04 APERTURE LIST*
G04 Aperture macros list*
%AMRoundRect*
0 Rectangle with rounded corners*
0 $1 Rounding radius*
0 $2 $3 $4 $5 $6 $7 $8 $9 X,Y pos of 4 corners*
0 Add a 4 corners polygon primitive as box body*
4,1,4,$2,$3,$4,$5,$6,$7,$8,$9,$2,$3,0*
0 Add four circle primitives for the rounded corners*
1,1,$1+$1,$2,$3*
1,1,$1+$1,$4,$5*
1,1,$1+$1,$6,$7*
1,1,$1+$1,$8,$9*
0 Add four rect primitives between the rounded corners*
20,1,$1+$1,$2,$3,$4,$5,0*
20,1,$1+$1,$4,$5,$6,$7,0*
20,1,$1+$1,$6,$7,$8,$9,0*
20,1,$1+$1,$8,$9,$2,$3,0*%
G04 Aperture macros list end*
%ADD10RoundRect,0.250000X-1.330000X-1.850000X1.330000X-1.850000X1.330000X1.850000X-1.330000X1.850000X0*%
%ADD11O,3.160000X4.200000*%
%ADD12RoundRect,0.250000X0.600000X0.600000X-0.600000X0.600000X-0.600000X-0.600000X0.600000X-0.600000X0*%
%ADD13C,1.700000*%
G04 APERTURE END LIST*
D10*
%TO.C,J5*%
X50080000Y-60000000D03*
D11*
X54040000Y-60000000D03*
X58000000Y-60000000D03*
X61960000Y-60000000D03*
%TD*%
D12*
%TO.C,J7*%
X89000000Y-47000000D03*
D13*
X86460000Y-47000000D03*
X89000000Y-44460000D03*
X86460000Y-44460000D03*
X89000000Y-41920000D03*
X86460000Y-41920000D03*
X89000000Y-39380000D03*
X86460000Y-39380000D03*
X89000000Y-36840000D03*
X86460000Y-36840000D03*
X89000000Y-34300000D03*
X86460000Y-34300000D03*
X89000000Y-31760000D03*
X86460000Y-31760000D03*
X89000000Y-29220000D03*
X86460000Y-29220000D03*
%TD*%
D12*
%TO.C,J9*%
X107000000Y-47000000D03*
D13*
X104460000Y-47000000D03*
X107000000Y-44460000D03*
X104460000Y-44460000D03*
X107000000Y-41920000D03*
X104460000Y-41920000D03*
X107000000Y-39380000D03*
X104460000Y-39380000D03*
X107000000Y-36840000D03*
X104460000Y-36840000D03*
X107000000Y-34300000D03*
X104460000Y-34300000D03*
X107000000Y-31760000D03*
X104460000Y-31760000D03*
X107000000Y-29220000D03*
X104460000Y-29220000D03*
%TD*%
D12*
%TO.C,J3*%
X71000000Y-47000000D03*
D13*
X68460000Y-47000000D03*
X71000000Y-44460000D03*
X68460000Y-44460000D03*
X71000000Y-41920000D03*
X68460000Y-41920000D03*
X71000000Y-39380000D03*
X68460000Y-39380000D03*
X71000000Y-36840000D03*
X68460000Y-36840000D03*
X71000000Y-34300000D03*
X68460000Y-34300000D03*
X71000000Y-31760000D03*
X68460000Y-31760000D03*
X71000000Y-29220000D03*
X68460000Y-29220000D03*
%TD*%
D10*
%TO.C,J10*%
X109060000Y-60225000D03*
D11*
X113020000Y-60225000D03*
X116980000Y-60225000D03*
X120940000Y-60225000D03*
%TD*%
D12*
%TO.C,J2*%
X53000000Y-47000000D03*
D13*
X50460000Y-47000000D03*
X53000000Y-44460000D03*
X50460000Y-44460000D03*
X53000000Y-41920000D03*
X50460000Y-41920000D03*
X53000000Y-39380000D03*
X50460000Y-39380000D03*
X53000000Y-36840000D03*
X50460000Y-36840000D03*
X53000000Y-34300000D03*
X50460000Y-34300000D03*
X53000000Y-31760000D03*
X50460000Y-31760000D03*
X53000000Y-29220000D03*
X50460000Y-29220000D03*
%TD*%
D12*
%TO.C,J1*%
X35000000Y-47000000D03*
D13*
X32460000Y-47000000D03*
X35000000Y-44460000D03*
X32460000Y-44460000D03*
X35000000Y-41920000D03*
X32460000Y-41920000D03*
X35000000Y-39380000D03*
X32460000Y-39380000D03*
X35000000Y-36840000D03*
X32460000Y-36840000D03*
X35000000Y-34300000D03*
X32460000Y-34300000D03*
X35000000Y-31760000D03*
X32460000Y-31760000D03*
X35000000Y-29220000D03*
X32460000Y-29220000D03*
%TD*%
D10*
%TO.C,J6*%
X70000000Y-60000000D03*
D11*
X73960000Y-60000000D03*
X77920000Y-60000000D03*
X81880000Y-60000000D03*
%TD*%
D10*
%TO.C,J4*%
X31080000Y-60000000D03*
D11*
X35040000Y-60000000D03*
X39000000Y-60000000D03*
X42960000Y-60000000D03*
%TD*%
D10*
%TO.C,J8*%
X90080000Y-60000000D03*
D11*
X94040000Y-60000000D03*
X98000000Y-60000000D03*
X101960000Y-60000000D03*
%TD*%
M02*
