M48
; DRILL file KiCad 10.0.0 date 2026-10-02T21:45:34
; FORMAT={-:-/ absolute / metric / decimal}
; #@! TF.CreationDate,2026-10-02T21:45:34-03:00
; #@! TF.GenerationSoftware,Kicad,Pcbnew,10.0.0
; #@! TF.FileFunction,Plated,1,2,PTH
FMAT,2
METRIC
; #@! TA.AperFunction,Plated,PTH,ComponentDrill
T1C1.000
; #@! TA.AperFunction,Plated,PTH,ComponentDrill
T2C1.800
%
G90
G05
T1
X32.46Y-29.22
X32.46Y-31.76
X32.46Y-34.3
X32.46Y-36.84
X32.46Y-39.38
X32.46Y-41.92
X32.46Y-44.46
X32.46Y-47.0
X35.0Y-29.22
X35.0Y-31.76
X35.0Y-34.3
X35.0Y-36.84
X35.0Y-39.38
X35.0Y-41.92
X35.0Y-44.46
X35.0Y-47.0
X50.46Y-29.22
X50.46Y-31.76
X50.46Y-34.3
X50.46Y-36.84
X50.46Y-39.38
X50.46Y-41.92
X50.46Y-44.46
X50.46Y-47.0
X53.0Y-29.22
X53.0Y-31.76
X53.0Y-34.3
X53.0Y-36.84
X53.0Y-39.38
X53.0Y-41.92
X53.0Y-44.46
X53.0Y-47.0
X68.46Y-29.22
X68.46Y-31.76
X68.46Y-34.3
X68.46Y-36.84
X68.46Y-39.38
X68.46Y-41.92
X68.46Y-44.46
X68.46Y-47.0
X71.0Y-29.22
X71.0Y-31.76
X71.0Y-34.3
X71.0Y-36.84
X71.0Y-39.38
X71.0Y-41.92
X71.0Y-44.46
X71.0Y-47.0
X86.46Y-29.22
X86.46Y-31.76
X86.46Y-34.3
X86.46Y-36.84
X86.46Y-39.38
X86.46Y-41.92
X86.46Y-44.46
X86.46Y-47.0
X89.0Y-29.22
X89.0Y-31.76
X89.0Y-34.3
X89.0Y-36.84
X89.0Y-39.38
X89.0Y-41.92
X89.0Y-44.46
X89.0Y-47.0
X104.46Y-29.22
X104.46Y-31.76
X104.46Y-34.3
X104.46Y-36.84
X104.46Y-39.38
X104.46Y-41.92
X104.46Y-44.46
X104.46Y-47.0
X107.0Y-29.22
X107.0Y-31.76
X107.0Y-34.3
X107.0Y-36.84
X107.0Y-39.38
X107.0Y-41.92
X107.0Y-44.46
X107.0Y-47.0
T2
X31.08Y-60.0
X35.04Y-60.0
X39.0Y-60.0
X42.96Y-60.0
X50.08Y-60.0
X54.04Y-60.0
X58.0Y-60.0
X61.96Y-60.0
X70.0Y-60.0
X73.96Y-60.0
X77.92Y-60.0
X81.88Y-60.0
X90.08Y-60.0
X94.04Y-60.0
X98.0Y-60.0
X101.96Y-60.0
X109.06Y-60.225
X113.02Y-60.225
X116.98Y-60.225
X120.94Y-60.225
M30
