%TF.GenerationSoftware,KiCad,Pcbnew,10.0.0*%
%TF.CreationDate,2026-10-02T21:45:32-03:00*%
%TF.ProjectId,chufebu-v-0-rev-a,63687566-6562-4752-9d76-2d302d726576,rev?*%
%TF.SameCoordinates,Original*%
%TF.FileFunction,Copper,L2,Bot*%
%TF.FilePolarity,Positive*%
%FSLAX46Y46*%
G04 Gerber Fmt 4.6, Leading zero omitted, Abs format (unit mm)*
G04 Created by KiCad (PCBNEW 10.0.0) date 2026-10-02 21:45:32*
%MOMM*%
%LPD*%
G01*
G04 APERTURE LIST*
G04 Aperture macros list*
%AMRoundRect*
0 Rectangle with rounded corners*
0 $1 Rounding radius*
0 $2 $3 $4 $5 $6 $7 $8 $9 X,Y pos of 4 corners*
0 Add a 4 corners polygon primitive as box body*
4,1,4,$2,$3,$4,$5,$6,$7,$8,$9,$2,$3,0*
0 Add four circle primitives for the rounded corners*
1,1,$1+$1,$2,$3*
1,1,$1+$1,$4,$5*
1,1,$1+$1,$6,$7*
1,1,$1+$1,$8,$9*
0 Add four rect primitives between the rounded corners*
20,1,$1+$1,$2,$3,$4,$5,0*
20,1,$1+$1,$4,$5,$6,$7,0*
20,1,$1+$1,$6,$7,$8,$9,0*
20,1,$1+$1,$8,$9,$2,$3,0*%
G04 Aperture macros list end*
%TA.AperFunction,ComponentPad*%
%ADD10RoundRect,0.250000X-1.330000X-1.850000X1.330000X-1.850000X1.330000X1.850000X-1.330000X1.850000X0*%
%TD*%
%TA.AperFunction,ComponentPad*%
%ADD11O,3.160000X4.200000*%
%TD*%
%TA.AperFunction,ComponentPad*%
%ADD12RoundRect,0.250000X0.600000X0.600000X-0.600000X0.600000X-0.600000X-0.600000X0.600000X-0.600000X0*%
%TD*%
%TA.AperFunction,ComponentPad*%
%ADD13C,1.700000*%
%TD*%
%TA.AperFunction,Conductor*%
%ADD14C,0.800000*%
%TD*%
G04 APERTURE END LIST*
D10*
%TO.P,J5,1,Pin_1_1*%
%TO.N,-12V*%
X50080000Y-60000000D03*
D11*
%TO.P,J5,2,Pin_2_2*%
%TO.N,GND*%
X54040000Y-60000000D03*
%TO.P,J5,3,Pin_3_3*%
%TO.N,+5V*%
X58000000Y-60000000D03*
%TO.P,J5,4,Pin_4_4*%
%TO.N,+12V*%
X61960000Y-60000000D03*
%TD*%
D12*
%TO.P,J7,1,Pin_1_1*%
%TO.N,-12V*%
X89000000Y-47000000D03*
D13*
%TO.P,J7,2,Pin_2_2*%
X86460000Y-47000000D03*
%TO.P,J7,3,Pin_3_3*%
%TO.N,GND*%
X89000000Y-44460000D03*
%TO.P,J7,4,Pin_4_4*%
X86460000Y-44460000D03*
%TO.P,J7,5,Pin_5_5*%
X89000000Y-41920000D03*
%TO.P,J7,6,Pin_6_6*%
X86460000Y-41920000D03*
%TO.P,J7,7,Pin_7_7*%
X89000000Y-39380000D03*
%TO.P,J7,8,Pin_8_8*%
X86460000Y-39380000D03*
%TO.P,J7,9,Pin_9_9*%
%TO.N,+12V*%
X89000000Y-36840000D03*
%TO.P,J7,10,Pin_10_10*%
X86460000Y-36840000D03*
%TO.P,J7,11,Pin_11_11*%
%TO.N,+5V*%
X89000000Y-34300000D03*
%TO.P,J7,12,Pin_12_12*%
X86460000Y-34300000D03*
%TO.P,J7,13,Pin_13_13*%
%TO.N,/CV*%
X89000000Y-31760000D03*
%TO.P,J7,14,Pin_14_14*%
X86460000Y-31760000D03*
%TO.P,J7,15,Pin_15_15*%
%TO.N,/GATE*%
X89000000Y-29220000D03*
%TO.P,J7,16,Pin_16_16*%
X86460000Y-29220000D03*
%TD*%
D12*
%TO.P,J9,1,Pin_1_1*%
%TO.N,-12V*%
X107000000Y-47000000D03*
D13*
%TO.P,J9,2,Pin_2_2*%
X104460000Y-47000000D03*
%TO.P,J9,3,Pin_3_3*%
%TO.N,GND*%
X107000000Y-44460000D03*
%TO.P,J9,4,Pin_4_4*%
X104460000Y-44460000D03*
%TO.P,J9,5,Pin_5_5*%
X107000000Y-41920000D03*
%TO.P,J9,6,Pin_6_6*%
X104460000Y-41920000D03*
%TO.P,J9,7,Pin_7_7*%
X107000000Y-39380000D03*
%TO.P,J9,8,Pin_8_8*%
X104460000Y-39380000D03*
%TO.P,J9,9,Pin_9_9*%
%TO.N,+12V*%
X107000000Y-36840000D03*
%TO.P,J9,10,Pin_10_10*%
X104460000Y-36840000D03*
%TO.P,J9,11,Pin_11_11*%
%TO.N,+5V*%
X107000000Y-34300000D03*
%TO.P,J9,12,Pin_12_12*%
X104460000Y-34300000D03*
%TO.P,J9,13,Pin_13_13*%
%TO.N,/CV*%
X107000000Y-31760000D03*
%TO.P,J9,14,Pin_14_14*%
X104460000Y-31760000D03*
%TO.P,J9,15,Pin_15_15*%
%TO.N,/GATE*%
X107000000Y-29220000D03*
%TO.P,J9,16,Pin_16_16*%
X104460000Y-29220000D03*
%TD*%
D12*
%TO.P,J3,1,Pin_1_1*%
%TO.N,-12V*%
X71000000Y-47000000D03*
D13*
%TO.P,J3,2,Pin_2_2*%
X68460000Y-47000000D03*
%TO.P,J3,3,Pin_3_3*%
%TO.N,GND*%
X71000000Y-44460000D03*
%TO.P,J3,4,Pin_4_4*%
X68460000Y-44460000D03*
%TO.P,J3,5,Pin_5_5*%
X71000000Y-41920000D03*
%TO.P,J3,6,Pin_6_6*%
X68460000Y-41920000D03*
%TO.P,J3,7,Pin_7_7*%
X71000000Y-39380000D03*
%TO.P,J3,8,Pin_8_8*%
X68460000Y-39380000D03*
%TO.P,J3,9,Pin_9_9*%
%TO.N,+12V*%
X71000000Y-36840000D03*
%TO.P,J3,10,Pin_10_10*%
X68460000Y-36840000D03*
%TO.P,J3,11,Pin_11_11*%
%TO.N,+5V*%
X71000000Y-34300000D03*
%TO.P,J3,12,Pin_12_12*%
X68460000Y-34300000D03*
%TO.P,J3,13,Pin_13_13*%
%TO.N,/CV*%
X71000000Y-31760000D03*
%TO.P,J3,14,Pin_14_14*%
X68460000Y-31760000D03*
%TO.P,J3,15,Pin_15_15*%
%TO.N,/GATE*%
X71000000Y-29220000D03*
%TO.P,J3,16,Pin_16_16*%
X68460000Y-29220000D03*
%TD*%
D10*
%TO.P,J10,1,Pin_1_1*%
%TO.N,-12V*%
X109060000Y-60225000D03*
D11*
%TO.P,J10,2,Pin_2_2*%
%TO.N,GND*%
X113020000Y-60225000D03*
%TO.P,J10,3,Pin_3_3*%
%TO.N,+5V*%
X116980000Y-60225000D03*
%TO.P,J10,4,Pin_4_4*%
%TO.N,+12V*%
X120940000Y-60225000D03*
%TD*%
D12*
%TO.P,J2,1,Pin_1_1*%
%TO.N,-12V*%
X53000000Y-47000000D03*
D13*
%TO.P,J2,2,Pin_2_2*%
X50460000Y-47000000D03*
%TO.P,J2,3,Pin_3_3*%
%TO.N,GND*%
X53000000Y-44460000D03*
%TO.P,J2,4,Pin_4_4*%
X50460000Y-44460000D03*
%TO.P,J2,5,Pin_5_5*%
X53000000Y-41920000D03*
%TO.P,J2,6,Pin_6_6*%
X50460000Y-41920000D03*
%TO.P,J2,7,Pin_7_7*%
X53000000Y-39380000D03*
%TO.P,J2,8,Pin_8_8*%
X50460000Y-39380000D03*
%TO.P,J2,9,Pin_9_9*%
%TO.N,+12V*%
X53000000Y-36840000D03*
%TO.P,J2,10,Pin_10_10*%
X50460000Y-36840000D03*
%TO.P,J2,11,Pin_11_11*%
%TO.N,+5V*%
X53000000Y-34300000D03*
%TO.P,J2,12,Pin_12_12*%
X50460000Y-34300000D03*
%TO.P,J2,13,Pin_13_13*%
%TO.N,/CV*%
X53000000Y-31760000D03*
%TO.P,J2,14,Pin_14_14*%
X50460000Y-31760000D03*
%TO.P,J2,15,Pin_15_15*%
%TO.N,/GATE*%
X53000000Y-29220000D03*
%TO.P,J2,16,Pin_16_16*%
X50460000Y-29220000D03*
%TD*%
D12*
%TO.P,J1,1,Pin_1_1*%
%TO.N,-12V*%
X35000000Y-47000000D03*
D13*
%TO.P,J1,2,Pin_2_2*%
X32460000Y-47000000D03*
%TO.P,J1,3,Pin_3_3*%
%TO.N,GND*%
X35000000Y-44460000D03*
%TO.P,J1,4,Pin_4_4*%
X32460000Y-44460000D03*
%TO.P,J1,5,Pin_5_5*%
X35000000Y-41920000D03*
%TO.P,J1,6,Pin_6_6*%
X32460000Y-41920000D03*
%TO.P,J1,7,Pin_7_7*%
X35000000Y-39380000D03*
%TO.P,J1,8,Pin_8_8*%
X32460000Y-39380000D03*
%TO.P,J1,9,Pin_9_9*%
%TO.N,+12V*%
X35000000Y-36840000D03*
%TO.P,J1,10,Pin_10_10*%
X32460000Y-36840000D03*
%TO.P,J1,11,Pin_11_11*%
%TO.N,+5V*%
X35000000Y-34300000D03*
%TO.P,J1,12,Pin_12_12*%
X32460000Y-34300000D03*
%TO.P,J1,13,Pin_13_13*%
%TO.N,/CV*%
X35000000Y-31760000D03*
%TO.P,J1,14,Pin_14_14*%
X32460000Y-31760000D03*
%TO.P,J1,15,Pin_15_15*%
%TO.N,/GATE*%
X35000000Y-29220000D03*
%TO.P,J1,16,Pin_16_16*%
X32460000Y-29220000D03*
%TD*%
D10*
%TO.P,J6,1,Pin_1_1*%
%TO.N,-12V*%
X70000000Y-60000000D03*
D11*
%TO.P,J6,2,Pin_2_2*%
%TO.N,GND*%
X73960000Y-60000000D03*
%TO.P,J6,3,Pin_3_3*%
%TO.N,+5V*%
X77920000Y-60000000D03*
%TO.P,J6,4,Pin_4_4*%
%TO.N,+12V*%
X81880000Y-60000000D03*
%TD*%
D10*
%TO.P,J4,1,Pin_1_1*%
%TO.N,-12V*%
X31080000Y-60000000D03*
D11*
%TO.P,J4,2,Pin_2_2*%
%TO.N,GND*%
X35040000Y-60000000D03*
%TO.P,J4,3,Pin_3_3*%
%TO.N,+5V*%
X39000000Y-60000000D03*
%TO.P,J4,4,Pin_4_4*%
%TO.N,+12V*%
X42960000Y-60000000D03*
%TD*%
D10*
%TO.P,J8,1,Pin_1_1*%
%TO.N,-12V*%
X90080000Y-60000000D03*
D11*
%TO.P,J8,2,Pin_2_2*%
%TO.N,GND*%
X94040000Y-60000000D03*
%TO.P,J8,3,Pin_3_3*%
%TO.N,+5V*%
X98000000Y-60000000D03*
%TO.P,J8,4,Pin_4_4*%
%TO.N,+12V*%
X101960000Y-60000000D03*
%TD*%
%TO.N,+12V*%
D14*
X42960000Y-60000000D02*
X42960000Y-58040000D01*
X120940000Y-60225000D02*
X120940000Y-46940000D01*
X110840000Y-36840000D02*
X107000000Y-36840000D01*
X94960000Y-53000000D02*
X74880000Y-53000000D01*
X54960000Y-53000000D02*
X61960000Y-60000000D01*
X120940000Y-60225000D02*
X113715000Y-53000000D01*
X81880000Y-60000000D02*
X74880000Y-53000000D01*
X74880000Y-53000000D02*
X54960000Y-53000000D01*
X120940000Y-46940000D02*
X110840000Y-36840000D01*
X42960000Y-58040000D02*
X48000000Y-53000000D01*
X113715000Y-53000000D02*
X94960000Y-53000000D01*
X101960000Y-60000000D02*
X94960000Y-53000000D01*
X48000000Y-53000000D02*
X54960000Y-53000000D01*
%TD*%
%TA.AperFunction,Conductor*%
%TO.N,GND*%
G36*
X106534075Y-44652993D02*
G01*
X106599901Y-44767007D01*
X106692993Y-44860099D01*
X106807007Y-44925925D01*
X106870590Y-44942962D01*
X106234110Y-45579441D01*
X106223020Y-45632235D01*
X106173969Y-45681992D01*
X106152773Y-45691291D01*
X106080669Y-45715185D01*
X106080666Y-45715186D01*
X106080663Y-45715187D01*
X105931342Y-45807289D01*
X105807289Y-45931342D01*
X105715187Y-46080663D01*
X105715183Y-46080673D01*
X105711685Y-46091229D01*
X105671910Y-46148672D01*
X105607393Y-46175493D01*
X105538618Y-46163174D01*
X105493663Y-46125106D01*
X105490105Y-46120209D01*
X105339786Y-45969890D01*
X105167817Y-45844949D01*
X105158504Y-45840204D01*
X105107707Y-45792230D01*
X105090912Y-45724409D01*
X105113449Y-45658274D01*
X105158507Y-45619232D01*
X105167555Y-45614622D01*
X105221716Y-45575270D01*
X105221717Y-45575270D01*
X104589408Y-44942962D01*
X104652993Y-44925925D01*
X104767007Y-44860099D01*
X104860099Y-44767007D01*
X104925925Y-44652993D01*
X104942962Y-44589408D01*
X105575270Y-45221717D01*
X105575270Y-45221716D01*
X105614622Y-45167554D01*
X105619514Y-45157954D01*
X105667488Y-45107157D01*
X105735308Y-45090361D01*
X105801444Y-45112897D01*
X105840486Y-45157954D01*
X105845375Y-45167550D01*
X105884728Y-45221716D01*
X106517037Y-44589408D01*
X106534075Y-44652993D01*
G37*
%TD.AperFunction*%
%TA.AperFunction,Conductor*%
G36*
X106534075Y-42112993D02*
G01*
X106599901Y-42227007D01*
X106692993Y-42320099D01*
X106807007Y-42385925D01*
X106870590Y-42402962D01*
X106238282Y-43035269D01*
X106238282Y-43035270D01*
X106292452Y-43074626D01*
X106302048Y-43079516D01*
X106352844Y-43127491D01*
X106369638Y-43195312D01*
X106347100Y-43261447D01*
X106302051Y-43300483D01*
X106292440Y-43305380D01*
X106238282Y-43344727D01*
X106238282Y-43344728D01*
X106870591Y-43977037D01*
X106807007Y-43994075D01*
X106692993Y-44059901D01*
X106599901Y-44152993D01*
X106534075Y-44267007D01*
X106517037Y-44330591D01*
X105884728Y-43698282D01*
X105884727Y-43698282D01*
X105845380Y-43752440D01*
X105840483Y-43762051D01*
X105792506Y-43812845D01*
X105724684Y-43829638D01*
X105658550Y-43807098D01*
X105619516Y-43762048D01*
X105614626Y-43752452D01*
X105575270Y-43698282D01*
X105575269Y-43698282D01*
X104942962Y-44330590D01*
X104925925Y-44267007D01*
X104860099Y-44152993D01*
X104767007Y-44059901D01*
X104652993Y-43994075D01*
X104589409Y-43977037D01*
X105221716Y-43344728D01*
X105167550Y-43305375D01*
X105157954Y-43300486D01*
X105107157Y-43252512D01*
X105090361Y-43184692D01*
X105111288Y-43120895D01*
X105190027Y-43003581D01*
X104589408Y-42402962D01*
X104652993Y-42385925D01*
X104767007Y-42320099D01*
X104860099Y-42227007D01*
X104925925Y-42112993D01*
X104942962Y-42049408D01*
X105575270Y-42681717D01*
X105575270Y-42681716D01*
X105614622Y-42627554D01*
X105619514Y-42617954D01*
X105667488Y-42567157D01*
X105735308Y-42550361D01*
X105801444Y-42572897D01*
X105840486Y-42617954D01*
X105845375Y-42627550D01*
X105884728Y-42681716D01*
X106517037Y-42049408D01*
X106534075Y-42112993D01*
G37*
%TD.AperFunction*%
%TA.AperFunction,Conductor*%
G36*
X106534075Y-39572993D02*
G01*
X106599901Y-39687007D01*
X106692993Y-39780099D01*
X106807007Y-39845925D01*
X106870590Y-39862962D01*
X106238282Y-40495269D01*
X106238282Y-40495270D01*
X106292452Y-40534626D01*
X106302048Y-40539516D01*
X106352844Y-40587491D01*
X106369638Y-40655312D01*
X106347100Y-40721447D01*
X106302051Y-40760483D01*
X106292440Y-40765380D01*
X106238282Y-40804727D01*
X106238282Y-40804728D01*
X106870591Y-41437037D01*
X106807007Y-41454075D01*
X106692993Y-41519901D01*
X106599901Y-41612993D01*
X106534075Y-41727007D01*
X106517037Y-41790591D01*
X105884728Y-41158282D01*
X105884727Y-41158282D01*
X105845380Y-41212440D01*
X105840483Y-41222051D01*
X105792506Y-41272845D01*
X105724684Y-41289638D01*
X105658550Y-41267098D01*
X105619516Y-41222048D01*
X105614626Y-41212452D01*
X105575270Y-41158282D01*
X105575269Y-41158282D01*
X104942962Y-41790590D01*
X104925925Y-41727007D01*
X104860099Y-41612993D01*
X104767007Y-41519901D01*
X104652993Y-41454075D01*
X104589409Y-41437037D01*
X105221716Y-40804728D01*
X105167550Y-40765375D01*
X105157954Y-40760486D01*
X105107157Y-40712512D01*
X105090361Y-40644692D01*
X105111288Y-40580895D01*
X105190027Y-40463581D01*
X104589408Y-39862962D01*
X104652993Y-39845925D01*
X104767007Y-39780099D01*
X104860099Y-39687007D01*
X104925925Y-39572993D01*
X104942962Y-39509408D01*
X105575270Y-40141717D01*
X105575270Y-40141716D01*
X105614622Y-40087554D01*
X105619514Y-40077954D01*
X105667488Y-40027157D01*
X105735308Y-40010361D01*
X105801444Y-40032897D01*
X105840486Y-40077954D01*
X105845375Y-40087550D01*
X105884728Y-40141716D01*
X106517037Y-39509408D01*
X106534075Y-39572993D01*
G37*
%TD.AperFunction*%
%TA.AperFunction,Conductor*%
G36*
X105801444Y-37493999D02*
G01*
X105840486Y-37539056D01*
X105844951Y-37547820D01*
X105969890Y-37719786D01*
X106120213Y-37870109D01*
X106292179Y-37995048D01*
X106292181Y-37995049D01*
X106292184Y-37995051D01*
X106301493Y-37999794D01*
X106352290Y-38047766D01*
X106369087Y-38115587D01*
X106346552Y-38181722D01*
X106301505Y-38220760D01*
X106292446Y-38225376D01*
X106292440Y-38225380D01*
X106238282Y-38264727D01*
X106238282Y-38264728D01*
X106870591Y-38897037D01*
X106807007Y-38914075D01*
X106692993Y-38979901D01*
X106599901Y-39072993D01*
X106534075Y-39187007D01*
X106517037Y-39250591D01*
X105884728Y-38618282D01*
X105884727Y-38618282D01*
X105845380Y-38672440D01*
X105840483Y-38682051D01*
X105792506Y-38732845D01*
X105724684Y-38749638D01*
X105658550Y-38727098D01*
X105619516Y-38682048D01*
X105614626Y-38672452D01*
X105575270Y-38618282D01*
X105575269Y-38618282D01*
X104942962Y-39250590D01*
X104925925Y-39187007D01*
X104860099Y-39072993D01*
X104767007Y-38979901D01*
X104652993Y-38914075D01*
X104589409Y-38897037D01*
X105221716Y-38264728D01*
X105167547Y-38225373D01*
X105167547Y-38225372D01*
X105158500Y-38220763D01*
X105107706Y-38172788D01*
X105090912Y-38104966D01*
X105113451Y-38038832D01*
X105158508Y-37999793D01*
X105167816Y-37995051D01*
X105247007Y-37937515D01*
X105339786Y-37870109D01*
X105339788Y-37870106D01*
X105339792Y-37870104D01*
X105490104Y-37719792D01*
X105490106Y-37719788D01*
X105490109Y-37719786D01*
X105615048Y-37547820D01*
X105615047Y-37547820D01*
X105615051Y-37547816D01*
X105619514Y-37539054D01*
X105667488Y-37488259D01*
X105735308Y-37471463D01*
X105801444Y-37493999D01*
G37*
%TD.AperFunction*%
%TA.AperFunction,Conductor*%
G36*
X34534075Y-44652993D02*
G01*
X34599901Y-44767007D01*
X34692993Y-44860099D01*
X34807007Y-44925925D01*
X34870590Y-44942962D01*
X34234110Y-45579441D01*
X34223020Y-45632235D01*
X34173969Y-45681992D01*
X34152773Y-45691291D01*
X34080669Y-45715185D01*
X34080666Y-45715186D01*
X34080663Y-45715187D01*
X33931342Y-45807289D01*
X33807289Y-45931342D01*
X33715187Y-46080663D01*
X33715183Y-46080673D01*
X33711685Y-46091229D01*
X33671910Y-46148672D01*
X33607393Y-46175493D01*
X33538618Y-46163174D01*
X33493663Y-46125106D01*
X33490105Y-46120209D01*
X33339786Y-45969890D01*
X33167817Y-45844949D01*
X33158504Y-45840204D01*
X33107707Y-45792230D01*
X33090912Y-45724409D01*
X33113449Y-45658274D01*
X33158507Y-45619232D01*
X33167555Y-45614622D01*
X33221716Y-45575270D01*
X33221717Y-45575270D01*
X32589408Y-44942962D01*
X32652993Y-44925925D01*
X32767007Y-44860099D01*
X32860099Y-44767007D01*
X32925925Y-44652993D01*
X32942962Y-44589408D01*
X33575270Y-45221717D01*
X33575270Y-45221716D01*
X33614622Y-45167554D01*
X33619514Y-45157954D01*
X33667488Y-45107157D01*
X33735308Y-45090361D01*
X33801444Y-45112897D01*
X33840486Y-45157954D01*
X33845375Y-45167550D01*
X33884728Y-45221716D01*
X34517037Y-44589408D01*
X34534075Y-44652993D01*
G37*
%TD.AperFunction*%
%TA.AperFunction,Conductor*%
G36*
X34534075Y-42112993D02*
G01*
X34599901Y-42227007D01*
X34692993Y-42320099D01*
X34807007Y-42385925D01*
X34870590Y-42402962D01*
X34238282Y-43035269D01*
X34238282Y-43035270D01*
X34292452Y-43074626D01*
X34302048Y-43079516D01*
X34352844Y-43127491D01*
X34369638Y-43195312D01*
X34347100Y-43261447D01*
X34302051Y-43300483D01*
X34292440Y-43305380D01*
X34238282Y-43344727D01*
X34238282Y-43344728D01*
X34870591Y-43977037D01*
X34807007Y-43994075D01*
X34692993Y-44059901D01*
X34599901Y-44152993D01*
X34534075Y-44267007D01*
X34517037Y-44330591D01*
X33884728Y-43698282D01*
X33884727Y-43698282D01*
X33845380Y-43752440D01*
X33840483Y-43762051D01*
X33792506Y-43812845D01*
X33724684Y-43829638D01*
X33658550Y-43807098D01*
X33619516Y-43762048D01*
X33614626Y-43752452D01*
X33575270Y-43698282D01*
X33575269Y-43698282D01*
X32942962Y-44330590D01*
X32925925Y-44267007D01*
X32860099Y-44152993D01*
X32767007Y-44059901D01*
X32652993Y-43994075D01*
X32589409Y-43977037D01*
X33221716Y-43344728D01*
X33167550Y-43305375D01*
X33157954Y-43300486D01*
X33107157Y-43252512D01*
X33090361Y-43184692D01*
X33111288Y-43120895D01*
X33190027Y-43003581D01*
X32589408Y-42402962D01*
X32652993Y-42385925D01*
X32767007Y-42320099D01*
X32860099Y-42227007D01*
X32925925Y-42112993D01*
X32942962Y-42049408D01*
X33575270Y-42681717D01*
X33575270Y-42681716D01*
X33614622Y-42627554D01*
X33619514Y-42617954D01*
X33667488Y-42567157D01*
X33735308Y-42550361D01*
X33801444Y-42572897D01*
X33840486Y-42617954D01*
X33845375Y-42627550D01*
X33884728Y-42681716D01*
X34517037Y-42049408D01*
X34534075Y-42112993D01*
G37*
%TD.AperFunction*%
%TA.AperFunction,Conductor*%
G36*
X34534075Y-39572993D02*
G01*
X34599901Y-39687007D01*
X34692993Y-39780099D01*
X34807007Y-39845925D01*
X34870590Y-39862962D01*
X34238282Y-40495269D01*
X34238282Y-40495270D01*
X34292452Y-40534626D01*
X34302048Y-40539516D01*
X34352844Y-40587491D01*
X34369638Y-40655312D01*
X34347100Y-40721447D01*
X34302051Y-40760483D01*
X34292440Y-40765380D01*
X34238282Y-40804727D01*
X34238282Y-40804728D01*
X34870591Y-41437037D01*
X34807007Y-41454075D01*
X34692993Y-41519901D01*
X34599901Y-41612993D01*
X34534075Y-41727007D01*
X34517037Y-41790591D01*
X33884728Y-41158282D01*
X33884727Y-41158282D01*
X33845380Y-41212440D01*
X33840483Y-41222051D01*
X33792506Y-41272845D01*
X33724684Y-41289638D01*
X33658550Y-41267098D01*
X33619516Y-41222048D01*
X33614626Y-41212452D01*
X33575270Y-41158282D01*
X33575269Y-41158282D01*
X32942962Y-41790590D01*
X32925925Y-41727007D01*
X32860099Y-41612993D01*
X32767007Y-41519901D01*
X32652993Y-41454075D01*
X32589409Y-41437037D01*
X33221716Y-40804728D01*
X33167550Y-40765375D01*
X33157954Y-40760486D01*
X33107157Y-40712512D01*
X33090361Y-40644692D01*
X33111288Y-40580895D01*
X33190027Y-40463581D01*
X32589408Y-39862962D01*
X32652993Y-39845925D01*
X32767007Y-39780099D01*
X32860099Y-39687007D01*
X32925925Y-39572993D01*
X32942962Y-39509408D01*
X33575270Y-40141717D01*
X33575270Y-40141716D01*
X33614622Y-40087554D01*
X33619514Y-40077954D01*
X33667488Y-40027157D01*
X33735308Y-40010361D01*
X33801444Y-40032897D01*
X33840486Y-40077954D01*
X33845375Y-40087550D01*
X33884728Y-40141716D01*
X34517037Y-39509408D01*
X34534075Y-39572993D01*
G37*
%TD.AperFunction*%
%TA.AperFunction,Conductor*%
G36*
X33801444Y-37493999D02*
G01*
X33840486Y-37539056D01*
X33844951Y-37547820D01*
X33969890Y-37719786D01*
X34120213Y-37870109D01*
X34292179Y-37995048D01*
X34292181Y-37995049D01*
X34292184Y-37995051D01*
X34301493Y-37999794D01*
X34352290Y-38047766D01*
X34369087Y-38115587D01*
X34346552Y-38181722D01*
X34301505Y-38220760D01*
X34292446Y-38225376D01*
X34292440Y-38225380D01*
X34238282Y-38264727D01*
X34238282Y-38264728D01*
X34870591Y-38897037D01*
X34807007Y-38914075D01*
X34692993Y-38979901D01*
X34599901Y-39072993D01*
X34534075Y-39187007D01*
X34517037Y-39250591D01*
X33884728Y-38618282D01*
X33884727Y-38618282D01*
X33845380Y-38672440D01*
X33840483Y-38682051D01*
X33792506Y-38732845D01*
X33724684Y-38749638D01*
X33658550Y-38727098D01*
X33619516Y-38682048D01*
X33614626Y-38672452D01*
X33575270Y-38618282D01*
X33575269Y-38618282D01*
X32942962Y-39250590D01*
X32925925Y-39187007D01*
X32860099Y-39072993D01*
X32767007Y-38979901D01*
X32652993Y-38914075D01*
X32589409Y-38897037D01*
X33221716Y-38264728D01*
X33167547Y-38225373D01*
X33167547Y-38225372D01*
X33158500Y-38220763D01*
X33107706Y-38172788D01*
X33090912Y-38104966D01*
X33113451Y-38038832D01*
X33158508Y-37999793D01*
X33167816Y-37995051D01*
X33247007Y-37937515D01*
X33339786Y-37870109D01*
X33339788Y-37870106D01*
X33339792Y-37870104D01*
X33490104Y-37719792D01*
X33490106Y-37719788D01*
X33490109Y-37719786D01*
X33615048Y-37547820D01*
X33615047Y-37547820D01*
X33615051Y-37547816D01*
X33619514Y-37539054D01*
X33667488Y-37488259D01*
X33735308Y-37471463D01*
X33801444Y-37493999D01*
G37*
%TD.AperFunction*%
%TA.AperFunction,Conductor*%
G36*
X52534075Y-44652993D02*
G01*
X52599901Y-44767007D01*
X52692993Y-44860099D01*
X52807007Y-44925925D01*
X52870590Y-44942962D01*
X52234110Y-45579441D01*
X52223020Y-45632235D01*
X52173969Y-45681992D01*
X52152773Y-45691291D01*
X52080669Y-45715185D01*
X52080666Y-45715186D01*
X52080663Y-45715187D01*
X51931342Y-45807289D01*
X51807289Y-45931342D01*
X51715187Y-46080663D01*
X51715183Y-46080673D01*
X51711685Y-46091229D01*
X51671910Y-46148672D01*
X51607393Y-46175493D01*
X51538618Y-46163174D01*
X51493663Y-46125106D01*
X51490105Y-46120209D01*
X51339786Y-45969890D01*
X51167817Y-45844949D01*
X51158504Y-45840204D01*
X51107707Y-45792230D01*
X51090912Y-45724409D01*
X51113449Y-45658274D01*
X51158507Y-45619232D01*
X51167555Y-45614622D01*
X51221716Y-45575270D01*
X51221717Y-45575270D01*
X50589408Y-44942962D01*
X50652993Y-44925925D01*
X50767007Y-44860099D01*
X50860099Y-44767007D01*
X50925925Y-44652993D01*
X50942962Y-44589408D01*
X51575270Y-45221717D01*
X51575270Y-45221716D01*
X51614622Y-45167554D01*
X51619514Y-45157954D01*
X51667488Y-45107157D01*
X51735308Y-45090361D01*
X51801444Y-45112897D01*
X51840486Y-45157954D01*
X51845375Y-45167550D01*
X51884728Y-45221716D01*
X52517037Y-44589408D01*
X52534075Y-44652993D01*
G37*
%TD.AperFunction*%
%TA.AperFunction,Conductor*%
G36*
X52534075Y-42112993D02*
G01*
X52599901Y-42227007D01*
X52692993Y-42320099D01*
X52807007Y-42385925D01*
X52870590Y-42402962D01*
X52238282Y-43035269D01*
X52238282Y-43035270D01*
X52292452Y-43074626D01*
X52302048Y-43079516D01*
X52352844Y-43127491D01*
X52369638Y-43195312D01*
X52347100Y-43261447D01*
X52302051Y-43300483D01*
X52292440Y-43305380D01*
X52238282Y-43344727D01*
X52238282Y-43344728D01*
X52870591Y-43977037D01*
X52807007Y-43994075D01*
X52692993Y-44059901D01*
X52599901Y-44152993D01*
X52534075Y-44267007D01*
X52517037Y-44330591D01*
X51884728Y-43698282D01*
X51884727Y-43698282D01*
X51845380Y-43752440D01*
X51840483Y-43762051D01*
X51792506Y-43812845D01*
X51724684Y-43829638D01*
X51658550Y-43807098D01*
X51619516Y-43762048D01*
X51614626Y-43752452D01*
X51575270Y-43698282D01*
X51575269Y-43698282D01*
X50942962Y-44330590D01*
X50925925Y-44267007D01*
X50860099Y-44152993D01*
X50767007Y-44059901D01*
X50652993Y-43994075D01*
X50589409Y-43977037D01*
X51221716Y-43344728D01*
X51167550Y-43305375D01*
X51157954Y-43300486D01*
X51107157Y-43252512D01*
X51090361Y-43184692D01*
X51111288Y-43120895D01*
X51190027Y-43003581D01*
X50589408Y-42402962D01*
X50652993Y-42385925D01*
X50767007Y-42320099D01*
X50860099Y-42227007D01*
X50925925Y-42112993D01*
X50942962Y-42049408D01*
X51575270Y-42681717D01*
X51575270Y-42681716D01*
X51614622Y-42627554D01*
X51619514Y-42617954D01*
X51667488Y-42567157D01*
X51735308Y-42550361D01*
X51801444Y-42572897D01*
X51840486Y-42617954D01*
X51845375Y-42627550D01*
X51884728Y-42681716D01*
X52517037Y-42049408D01*
X52534075Y-42112993D01*
G37*
%TD.AperFunction*%
%TA.AperFunction,Conductor*%
G36*
X52534075Y-39572993D02*
G01*
X52599901Y-39687007D01*
X52692993Y-39780099D01*
X52807007Y-39845925D01*
X52870590Y-39862962D01*
X52238282Y-40495269D01*
X52238282Y-40495270D01*
X52292452Y-40534626D01*
X52302048Y-40539516D01*
X52352844Y-40587491D01*
X52369638Y-40655312D01*
X52347100Y-40721447D01*
X52302051Y-40760483D01*
X52292440Y-40765380D01*
X52238282Y-40804727D01*
X52238282Y-40804728D01*
X52870591Y-41437037D01*
X52807007Y-41454075D01*
X52692993Y-41519901D01*
X52599901Y-41612993D01*
X52534075Y-41727007D01*
X52517037Y-41790591D01*
X51884728Y-41158282D01*
X51884727Y-41158282D01*
X51845380Y-41212440D01*
X51840483Y-41222051D01*
X51792506Y-41272845D01*
X51724684Y-41289638D01*
X51658550Y-41267098D01*
X51619516Y-41222048D01*
X51614626Y-41212452D01*
X51575270Y-41158282D01*
X51575269Y-41158282D01*
X50942962Y-41790590D01*
X50925925Y-41727007D01*
X50860099Y-41612993D01*
X50767007Y-41519901D01*
X50652993Y-41454075D01*
X50589409Y-41437037D01*
X51221716Y-40804728D01*
X51167550Y-40765375D01*
X51157954Y-40760486D01*
X51107157Y-40712512D01*
X51090361Y-40644692D01*
X51111288Y-40580895D01*
X51190027Y-40463581D01*
X50589408Y-39862962D01*
X50652993Y-39845925D01*
X50767007Y-39780099D01*
X50860099Y-39687007D01*
X50925925Y-39572993D01*
X50942962Y-39509408D01*
X51575270Y-40141717D01*
X51575270Y-40141716D01*
X51614622Y-40087554D01*
X51619514Y-40077954D01*
X51667488Y-40027157D01*
X51735308Y-40010361D01*
X51801444Y-40032897D01*
X51840486Y-40077954D01*
X51845375Y-40087550D01*
X51884728Y-40141716D01*
X52517037Y-39509408D01*
X52534075Y-39572993D01*
G37*
%TD.AperFunction*%
%TA.AperFunction,Conductor*%
G36*
X51801444Y-37493999D02*
G01*
X51840486Y-37539056D01*
X51844951Y-37547820D01*
X51969890Y-37719786D01*
X52120213Y-37870109D01*
X52292179Y-37995048D01*
X52292181Y-37995049D01*
X52292184Y-37995051D01*
X52301493Y-37999794D01*
X52352290Y-38047766D01*
X52369087Y-38115587D01*
X52346552Y-38181722D01*
X52301505Y-38220760D01*
X52292446Y-38225376D01*
X52292440Y-38225380D01*
X52238282Y-38264727D01*
X52238282Y-38264728D01*
X52870591Y-38897037D01*
X52807007Y-38914075D01*
X52692993Y-38979901D01*
X52599901Y-39072993D01*
X52534075Y-39187007D01*
X52517037Y-39250591D01*
X51884728Y-38618282D01*
X51884727Y-38618282D01*
X51845380Y-38672440D01*
X51840483Y-38682051D01*
X51792506Y-38732845D01*
X51724684Y-38749638D01*
X51658550Y-38727098D01*
X51619516Y-38682048D01*
X51614626Y-38672452D01*
X51575270Y-38618282D01*
X51575269Y-38618282D01*
X50942962Y-39250590D01*
X50925925Y-39187007D01*
X50860099Y-39072993D01*
X50767007Y-38979901D01*
X50652993Y-38914075D01*
X50589409Y-38897037D01*
X51221716Y-38264728D01*
X51167547Y-38225373D01*
X51167547Y-38225372D01*
X51158500Y-38220763D01*
X51107706Y-38172788D01*
X51090912Y-38104966D01*
X51113451Y-38038832D01*
X51158508Y-37999793D01*
X51167816Y-37995051D01*
X51247007Y-37937515D01*
X51339786Y-37870109D01*
X51339788Y-37870106D01*
X51339792Y-37870104D01*
X51490104Y-37719792D01*
X51490106Y-37719788D01*
X51490109Y-37719786D01*
X51615048Y-37547820D01*
X51615047Y-37547820D01*
X51615051Y-37547816D01*
X51619514Y-37539054D01*
X51667488Y-37488259D01*
X51735308Y-37471463D01*
X51801444Y-37493999D01*
G37*
%TD.AperFunction*%
%TA.AperFunction,Conductor*%
G36*
X70534075Y-44652993D02*
G01*
X70599901Y-44767007D01*
X70692993Y-44860099D01*
X70807007Y-44925925D01*
X70870590Y-44942962D01*
X70234110Y-45579441D01*
X70223020Y-45632235D01*
X70173969Y-45681992D01*
X70152773Y-45691291D01*
X70080669Y-45715185D01*
X70080666Y-45715186D01*
X70080663Y-45715187D01*
X69931342Y-45807289D01*
X69807289Y-45931342D01*
X69715187Y-46080663D01*
X69715183Y-46080673D01*
X69711685Y-46091229D01*
X69671910Y-46148672D01*
X69607393Y-46175493D01*
X69538618Y-46163174D01*
X69493663Y-46125106D01*
X69490105Y-46120209D01*
X69339786Y-45969890D01*
X69167817Y-45844949D01*
X69158504Y-45840204D01*
X69107707Y-45792230D01*
X69090912Y-45724409D01*
X69113449Y-45658274D01*
X69158507Y-45619232D01*
X69167555Y-45614622D01*
X69221716Y-45575270D01*
X69221717Y-45575270D01*
X68589408Y-44942962D01*
X68652993Y-44925925D01*
X68767007Y-44860099D01*
X68860099Y-44767007D01*
X68925925Y-44652993D01*
X68942962Y-44589409D01*
X69575270Y-45221717D01*
X69575270Y-45221716D01*
X69614622Y-45167554D01*
X69619514Y-45157954D01*
X69667488Y-45107157D01*
X69735308Y-45090361D01*
X69801444Y-45112897D01*
X69840486Y-45157954D01*
X69845375Y-45167550D01*
X69884728Y-45221716D01*
X70517037Y-44589408D01*
X70534075Y-44652993D01*
G37*
%TD.AperFunction*%
%TA.AperFunction,Conductor*%
G36*
X70534075Y-42112993D02*
G01*
X70599901Y-42227007D01*
X70692993Y-42320099D01*
X70807007Y-42385925D01*
X70870590Y-42402962D01*
X70238282Y-43035269D01*
X70238282Y-43035270D01*
X70292452Y-43074626D01*
X70302048Y-43079516D01*
X70352844Y-43127491D01*
X70369638Y-43195312D01*
X70347100Y-43261447D01*
X70302051Y-43300483D01*
X70292440Y-43305380D01*
X70238282Y-43344727D01*
X70238282Y-43344728D01*
X70870591Y-43977037D01*
X70807007Y-43994075D01*
X70692993Y-44059901D01*
X70599901Y-44152993D01*
X70534075Y-44267007D01*
X70517037Y-44330591D01*
X69884728Y-43698282D01*
X69884727Y-43698282D01*
X69845380Y-43752440D01*
X69840483Y-43762051D01*
X69792506Y-43812845D01*
X69724684Y-43829638D01*
X69658550Y-43807098D01*
X69619516Y-43762048D01*
X69614626Y-43752452D01*
X69575270Y-43698282D01*
X68942962Y-44330590D01*
X68925925Y-44267007D01*
X68860099Y-44152993D01*
X68767007Y-44059901D01*
X68652993Y-43994075D01*
X68589409Y-43977037D01*
X69221716Y-43344728D01*
X69167550Y-43305375D01*
X69157954Y-43300486D01*
X69107157Y-43252512D01*
X69090361Y-43184692D01*
X69111288Y-43120895D01*
X69190027Y-43003581D01*
X68589408Y-42402962D01*
X68652993Y-42385925D01*
X68767007Y-42320099D01*
X68860099Y-42227007D01*
X68925925Y-42112993D01*
X68942962Y-42049409D01*
X69575270Y-42681717D01*
X69575270Y-42681716D01*
X69614622Y-42627554D01*
X69619514Y-42617954D01*
X69667488Y-42567157D01*
X69735308Y-42550361D01*
X69801444Y-42572897D01*
X69840486Y-42617954D01*
X69845375Y-42627550D01*
X69884728Y-42681716D01*
X70517037Y-42049408D01*
X70534075Y-42112993D01*
G37*
%TD.AperFunction*%
%TA.AperFunction,Conductor*%
G36*
X70534075Y-39572993D02*
G01*
X70599901Y-39687007D01*
X70692993Y-39780099D01*
X70807007Y-39845925D01*
X70870590Y-39862962D01*
X70238282Y-40495269D01*
X70238282Y-40495270D01*
X70292452Y-40534626D01*
X70302048Y-40539516D01*
X70352844Y-40587491D01*
X70369638Y-40655312D01*
X70347100Y-40721447D01*
X70302051Y-40760483D01*
X70292440Y-40765380D01*
X70238282Y-40804727D01*
X70238282Y-40804728D01*
X70870591Y-41437037D01*
X70807007Y-41454075D01*
X70692993Y-41519901D01*
X70599901Y-41612993D01*
X70534075Y-41727007D01*
X70517037Y-41790591D01*
X69884728Y-41158282D01*
X69884727Y-41158282D01*
X69845380Y-41212440D01*
X69840483Y-41222051D01*
X69792506Y-41272845D01*
X69724684Y-41289638D01*
X69658550Y-41267098D01*
X69619516Y-41222048D01*
X69614626Y-41212452D01*
X69575270Y-41158282D01*
X68942962Y-41790590D01*
X68925925Y-41727007D01*
X68860099Y-41612993D01*
X68767007Y-41519901D01*
X68652993Y-41454075D01*
X68589409Y-41437037D01*
X69221716Y-40804728D01*
X69167550Y-40765375D01*
X69157954Y-40760486D01*
X69107157Y-40712512D01*
X69090361Y-40644692D01*
X69111288Y-40580895D01*
X69190027Y-40463581D01*
X68589408Y-39862962D01*
X68652993Y-39845925D01*
X68767007Y-39780099D01*
X68860099Y-39687007D01*
X68925925Y-39572993D01*
X68942962Y-39509409D01*
X69575270Y-40141717D01*
X69575270Y-40141716D01*
X69614622Y-40087554D01*
X69619514Y-40077954D01*
X69667488Y-40027157D01*
X69735308Y-40010361D01*
X69801444Y-40032897D01*
X69840486Y-40077954D01*
X69845375Y-40087550D01*
X69884728Y-40141716D01*
X70517037Y-39509408D01*
X70534075Y-39572993D01*
G37*
%TD.AperFunction*%
%TA.AperFunction,Conductor*%
G36*
X69801444Y-37493999D02*
G01*
X69840486Y-37539056D01*
X69844951Y-37547820D01*
X69969890Y-37719786D01*
X70120213Y-37870109D01*
X70292179Y-37995048D01*
X70292181Y-37995049D01*
X70292184Y-37995051D01*
X70301493Y-37999794D01*
X70352290Y-38047766D01*
X70369087Y-38115587D01*
X70346552Y-38181722D01*
X70301505Y-38220760D01*
X70292446Y-38225376D01*
X70292440Y-38225380D01*
X70238282Y-38264727D01*
X70238282Y-38264728D01*
X70870591Y-38897037D01*
X70807007Y-38914075D01*
X70692993Y-38979901D01*
X70599901Y-39072993D01*
X70534075Y-39187007D01*
X70517037Y-39250591D01*
X69884728Y-38618282D01*
X69884727Y-38618282D01*
X69845380Y-38672440D01*
X69840483Y-38682051D01*
X69792506Y-38732845D01*
X69724684Y-38749638D01*
X69658550Y-38727098D01*
X69619516Y-38682048D01*
X69614626Y-38672452D01*
X69575270Y-38618282D01*
X68942962Y-39250590D01*
X68925925Y-39187007D01*
X68860099Y-39072993D01*
X68767007Y-38979901D01*
X68652993Y-38914075D01*
X68589409Y-38897037D01*
X69221716Y-38264728D01*
X69167547Y-38225373D01*
X69167547Y-38225372D01*
X69158500Y-38220763D01*
X69107706Y-38172788D01*
X69090912Y-38104966D01*
X69113451Y-38038832D01*
X69158508Y-37999793D01*
X69167816Y-37995051D01*
X69247007Y-37937515D01*
X69339786Y-37870109D01*
X69339788Y-37870106D01*
X69339792Y-37870104D01*
X69490104Y-37719792D01*
X69490106Y-37719788D01*
X69490109Y-37719786D01*
X69615048Y-37547820D01*
X69615047Y-37547820D01*
X69615051Y-37547816D01*
X69619514Y-37539054D01*
X69667488Y-37488259D01*
X69735308Y-37471463D01*
X69801444Y-37493999D01*
G37*
%TD.AperFunction*%
%TA.AperFunction,Conductor*%
G36*
X88534075Y-44652993D02*
G01*
X88599901Y-44767007D01*
X88692993Y-44860099D01*
X88807007Y-44925925D01*
X88870590Y-44942962D01*
X88234110Y-45579441D01*
X88223020Y-45632235D01*
X88173969Y-45681992D01*
X88152773Y-45691291D01*
X88080669Y-45715185D01*
X88080666Y-45715186D01*
X88080663Y-45715187D01*
X87931342Y-45807289D01*
X87807289Y-45931342D01*
X87715187Y-46080663D01*
X87715183Y-46080673D01*
X87711685Y-46091229D01*
X87671910Y-46148672D01*
X87607393Y-46175493D01*
X87538618Y-46163174D01*
X87493663Y-46125106D01*
X87490105Y-46120209D01*
X87339786Y-45969890D01*
X87167817Y-45844949D01*
X87158504Y-45840204D01*
X87107707Y-45792230D01*
X87090912Y-45724409D01*
X87113449Y-45658274D01*
X87158507Y-45619232D01*
X87167555Y-45614622D01*
X87221716Y-45575270D01*
X87221717Y-45575270D01*
X86589408Y-44942962D01*
X86652993Y-44925925D01*
X86767007Y-44860099D01*
X86860099Y-44767007D01*
X86925925Y-44652993D01*
X86942962Y-44589409D01*
X87575270Y-45221717D01*
X87575270Y-45221716D01*
X87614622Y-45167554D01*
X87619514Y-45157954D01*
X87667488Y-45107157D01*
X87735308Y-45090361D01*
X87801444Y-45112897D01*
X87840486Y-45157954D01*
X87845375Y-45167550D01*
X87884728Y-45221716D01*
X88517037Y-44589408D01*
X88534075Y-44652993D01*
G37*
%TD.AperFunction*%
%TA.AperFunction,Conductor*%
G36*
X88534075Y-42112993D02*
G01*
X88599901Y-42227007D01*
X88692993Y-42320099D01*
X88807007Y-42385925D01*
X88870590Y-42402962D01*
X88238282Y-43035269D01*
X88238282Y-43035270D01*
X88292452Y-43074626D01*
X88302048Y-43079516D01*
X88352844Y-43127491D01*
X88369638Y-43195312D01*
X88347100Y-43261447D01*
X88302051Y-43300483D01*
X88292440Y-43305380D01*
X88238282Y-43344727D01*
X88238282Y-43344728D01*
X88870591Y-43977037D01*
X88807007Y-43994075D01*
X88692993Y-44059901D01*
X88599901Y-44152993D01*
X88534075Y-44267007D01*
X88517037Y-44330591D01*
X87884728Y-43698282D01*
X87884727Y-43698282D01*
X87845380Y-43752440D01*
X87840483Y-43762051D01*
X87792506Y-43812845D01*
X87724684Y-43829638D01*
X87658550Y-43807098D01*
X87619516Y-43762048D01*
X87614626Y-43752452D01*
X87575270Y-43698282D01*
X86942962Y-44330590D01*
X86925925Y-44267007D01*
X86860099Y-44152993D01*
X86767007Y-44059901D01*
X86652993Y-43994075D01*
X86589409Y-43977037D01*
X87221716Y-43344728D01*
X87167550Y-43305375D01*
X87157954Y-43300486D01*
X87107157Y-43252512D01*
X87090361Y-43184692D01*
X87111288Y-43120895D01*
X87190027Y-43003581D01*
X86589408Y-42402962D01*
X86652993Y-42385925D01*
X86767007Y-42320099D01*
X86860099Y-42227007D01*
X86925925Y-42112993D01*
X86942962Y-42049409D01*
X87575270Y-42681717D01*
X87575270Y-42681716D01*
X87614622Y-42627554D01*
X87619514Y-42617954D01*
X87667488Y-42567157D01*
X87735308Y-42550361D01*
X87801444Y-42572897D01*
X87840486Y-42617954D01*
X87845375Y-42627550D01*
X87884728Y-42681716D01*
X88517037Y-42049408D01*
X88534075Y-42112993D01*
G37*
%TD.AperFunction*%
%TA.AperFunction,Conductor*%
G36*
X88534075Y-39572993D02*
G01*
X88599901Y-39687007D01*
X88692993Y-39780099D01*
X88807007Y-39845925D01*
X88870590Y-39862962D01*
X88238282Y-40495269D01*
X88238282Y-40495270D01*
X88292452Y-40534626D01*
X88302048Y-40539516D01*
X88352844Y-40587491D01*
X88369638Y-40655312D01*
X88347100Y-40721447D01*
X88302051Y-40760483D01*
X88292440Y-40765380D01*
X88238282Y-40804727D01*
X88238282Y-40804728D01*
X88870591Y-41437037D01*
X88807007Y-41454075D01*
X88692993Y-41519901D01*
X88599901Y-41612993D01*
X88534075Y-41727007D01*
X88517037Y-41790591D01*
X87884728Y-41158282D01*
X87884727Y-41158282D01*
X87845380Y-41212440D01*
X87840483Y-41222051D01*
X87792506Y-41272845D01*
X87724684Y-41289638D01*
X87658550Y-41267098D01*
X87619516Y-41222048D01*
X87614626Y-41212452D01*
X87575270Y-41158282D01*
X86942962Y-41790590D01*
X86925925Y-41727007D01*
X86860099Y-41612993D01*
X86767007Y-41519901D01*
X86652993Y-41454075D01*
X86589409Y-41437037D01*
X87221716Y-40804728D01*
X87167550Y-40765375D01*
X87157954Y-40760486D01*
X87107157Y-40712512D01*
X87090361Y-40644692D01*
X87111288Y-40580895D01*
X87190027Y-40463581D01*
X86589408Y-39862962D01*
X86652993Y-39845925D01*
X86767007Y-39780099D01*
X86860099Y-39687007D01*
X86925925Y-39572993D01*
X86942962Y-39509409D01*
X87575270Y-40141717D01*
X87575270Y-40141716D01*
X87614622Y-40087554D01*
X87619514Y-40077954D01*
X87667488Y-40027157D01*
X87735308Y-40010361D01*
X87801444Y-40032897D01*
X87840486Y-40077954D01*
X87845375Y-40087550D01*
X87884728Y-40141716D01*
X88517037Y-39509408D01*
X88534075Y-39572993D01*
G37*
%TD.AperFunction*%
%TA.AperFunction,Conductor*%
G36*
X87801444Y-37493999D02*
G01*
X87840486Y-37539056D01*
X87844951Y-37547820D01*
X87969890Y-37719786D01*
X88120213Y-37870109D01*
X88292179Y-37995048D01*
X88292181Y-37995049D01*
X88292184Y-37995051D01*
X88301493Y-37999794D01*
X88352290Y-38047766D01*
X88369087Y-38115587D01*
X88346552Y-38181722D01*
X88301505Y-38220760D01*
X88292446Y-38225376D01*
X88292440Y-38225380D01*
X88238282Y-38264727D01*
X88238282Y-38264728D01*
X88870591Y-38897037D01*
X88807007Y-38914075D01*
X88692993Y-38979901D01*
X88599901Y-39072993D01*
X88534075Y-39187007D01*
X88517037Y-39250591D01*
X87884728Y-38618282D01*
X87884727Y-38618282D01*
X87845380Y-38672440D01*
X87840483Y-38682051D01*
X87792506Y-38732845D01*
X87724684Y-38749638D01*
X87658550Y-38727098D01*
X87619516Y-38682048D01*
X87614626Y-38672452D01*
X87575270Y-38618282D01*
X86942962Y-39250590D01*
X86925925Y-39187007D01*
X86860099Y-39072993D01*
X86767007Y-38979901D01*
X86652993Y-38914075D01*
X86589409Y-38897037D01*
X87221716Y-38264728D01*
X87167547Y-38225373D01*
X87167547Y-38225372D01*
X87158500Y-38220763D01*
X87107706Y-38172788D01*
X87090912Y-38104966D01*
X87113451Y-38038832D01*
X87158508Y-37999793D01*
X87167816Y-37995051D01*
X87247007Y-37937515D01*
X87339786Y-37870109D01*
X87339788Y-37870106D01*
X87339792Y-37870104D01*
X87490104Y-37719792D01*
X87490106Y-37719788D01*
X87490109Y-37719786D01*
X87615048Y-37547820D01*
X87615047Y-37547820D01*
X87615051Y-37547816D01*
X87619514Y-37539054D01*
X87667488Y-37488259D01*
X87735308Y-37471463D01*
X87801444Y-37493999D01*
G37*
%TD.AperFunction*%
%TA.AperFunction,Conductor*%
G36*
X124442539Y-22520185D02*
G01*
X124488294Y-22572989D01*
X124499500Y-22624500D01*
X124499500Y-66375500D01*
X124479815Y-66442539D01*
X124427011Y-66488294D01*
X124375500Y-66499500D01*
X25624500Y-66499500D01*
X25557461Y-66479815D01*
X25511706Y-66427011D01*
X25500500Y-66375500D01*
X25500500Y-58099983D01*
X28999500Y-58099983D01*
X28999500Y-61900001D01*
X28999501Y-61900018D01*
X29010000Y-62002796D01*
X29010001Y-62002799D01*
X29050495Y-62125001D01*
X29065186Y-62169334D01*
X29157288Y-62318656D01*
X29281344Y-62442712D01*
X29430666Y-62534814D01*
X29597203Y-62589999D01*
X29699991Y-62600500D01*
X32460008Y-62600499D01*
X32562797Y-62589999D01*
X32729334Y-62534814D01*
X32878656Y-62442712D01*
X33002712Y-62318656D01*
X33094814Y-62169334D01*
X33149999Y-62002797D01*
X33160500Y-61900009D01*
X33160499Y-61852651D01*
X33180182Y-61785616D01*
X33232985Y-61739860D01*
X33302144Y-61729915D01*
X33365700Y-61758938D01*
X33382874Y-61777166D01*
X33472818Y-61894382D01*
X33472826Y-61894391D01*
X33665609Y-62087174D01*
X33665617Y-62087181D01*
X33881933Y-62253168D01*
X34118062Y-62389496D01*
X34118072Y-62389500D01*
X34369970Y-62493840D01*
X34633344Y-62564411D01*
X34790000Y-62585034D01*
X34790000Y-60867904D01*
X34951358Y-60900000D01*
X35128642Y-60900000D01*
X35290000Y-60867904D01*
X35290000Y-62585033D01*
X35446655Y-62564411D01*
X35710029Y-62493840D01*
X35961927Y-62389500D01*
X35961937Y-62389496D01*
X36198066Y-62253168D01*
X36414382Y-62087181D01*
X36414391Y-62087174D01*
X36607174Y-61894391D01*
X36607181Y-61894382D01*
X36773168Y-61678066D01*
X36911528Y-61438418D01*
X36912883Y-61439200D01*
X36955771Y-61392546D01*
X37023360Y-61374837D01*
X37089792Y-61396481D01*
X37126907Y-61439283D01*
X37128023Y-61438640D01*
X37266415Y-61678343D01*
X37432439Y-61894710D01*
X37432445Y-61894717D01*
X37625282Y-62087554D01*
X37625289Y-62087560D01*
X37841656Y-62253584D01*
X38077840Y-62389945D01*
X38077855Y-62389952D01*
X38205225Y-62442710D01*
X38329810Y-62494315D01*
X38593244Y-62564902D01*
X38863637Y-62600500D01*
X38863644Y-62600500D01*
X39136356Y-62600500D01*
X39136363Y-62600500D01*
X39406756Y-62564902D01*
X39670190Y-62494315D01*
X39922156Y-62389947D01*
X40158344Y-62253584D01*
X40374712Y-62087559D01*
X40567559Y-61894712D01*
X40733584Y-61678344D01*
X40869947Y-61442156D01*
X40869946Y-61442156D01*
X40871977Y-61438640D01*
X40873420Y-61439473D01*
X40916083Y-61393093D01*
X40983676Y-61375405D01*
X41050103Y-61397068D01*
X41086758Y-61439370D01*
X41088023Y-61438640D01*
X41226415Y-61678343D01*
X41392439Y-61894710D01*
X41392445Y-61894717D01*
X41585282Y-62087554D01*
X41585289Y-62087560D01*
X41801656Y-62253584D01*
X42037840Y-62389945D01*
X42037855Y-62389952D01*
X42165225Y-62442710D01*
X42289810Y-62494315D01*
X42553244Y-62564902D01*
X42823637Y-62600500D01*
X42823644Y-62600500D01*
X43096356Y-62600500D01*
X43096363Y-62600500D01*
X43366756Y-62564902D01*
X43630190Y-62494315D01*
X43882156Y-62389947D01*
X44118344Y-62253584D01*
X44334712Y-62087559D01*
X44527559Y-61894712D01*
X44693584Y-61678344D01*
X44829947Y-61442156D01*
X44934315Y-61190190D01*
X45004902Y-60926756D01*
X45040500Y-60656363D01*
X45040500Y-59343637D01*
X45004902Y-59073244D01*
X44934315Y-58809810D01*
X44883923Y-58688154D01*
X44829952Y-58557855D01*
X44829945Y-58557840D01*
X44693584Y-58321656D01*
X44581957Y-58176180D01*
X44581952Y-58176175D01*
X44527559Y-58105288D01*
X44433266Y-58010995D01*
X44431085Y-58008572D01*
X44417325Y-57979888D01*
X44402081Y-57951971D01*
X44402321Y-57948611D01*
X44400865Y-57945576D01*
X44404795Y-57914011D01*
X44407065Y-57882279D01*
X44409151Y-57879032D01*
X44409499Y-57876242D01*
X44415803Y-57868682D01*
X44435564Y-57837934D01*
X48336680Y-53936819D01*
X48398003Y-53903334D01*
X48424361Y-53900500D01*
X54535638Y-53900500D01*
X54602677Y-53920185D01*
X54623319Y-53936819D01*
X57882331Y-57195831D01*
X57915816Y-57257154D01*
X57910832Y-57326846D01*
X57868960Y-57382779D01*
X57810836Y-57406451D01*
X57647090Y-57428008D01*
X57593244Y-57435098D01*
X57522658Y-57454011D01*
X57329811Y-57505684D01*
X57077855Y-57610047D01*
X57077840Y-57610054D01*
X56841656Y-57746415D01*
X56625289Y-57912439D01*
X56625282Y-57912445D01*
X56432445Y-58105282D01*
X56432439Y-58105289D01*
X56266415Y-58321656D01*
X56128023Y-58561360D01*
X56126750Y-58560625D01*
X56083571Y-58607512D01*
X56015966Y-58625158D01*
X55949553Y-58603453D01*
X55912707Y-58560901D01*
X55911528Y-58561582D01*
X55773168Y-58321933D01*
X55607181Y-58105617D01*
X55607174Y-58105609D01*
X55414391Y-57912826D01*
X55414382Y-57912818D01*
X55198066Y-57746831D01*
X54961937Y-57610503D01*
X54961927Y-57610499D01*
X54710029Y-57506159D01*
X54446655Y-57435588D01*
X54290000Y-57414963D01*
X54290000Y-59132095D01*
X54128642Y-59100000D01*
X53951358Y-59100000D01*
X53790000Y-59132095D01*
X53790000Y-57414963D01*
X53789999Y-57414963D01*
X53633344Y-57435588D01*
X53369970Y-57506159D01*
X53118072Y-57610499D01*
X53118062Y-57610503D01*
X52881933Y-57746831D01*
X52665617Y-57912818D01*
X52472818Y-58105617D01*
X52382874Y-58222834D01*
X52326446Y-58264036D01*
X52256700Y-58268191D01*
X52195780Y-58233978D01*
X52163028Y-58172261D01*
X52160499Y-58147347D01*
X52160499Y-58099998D01*
X52160498Y-58099981D01*
X52149999Y-57997203D01*
X52149998Y-57997200D01*
X52144261Y-57979888D01*
X52094814Y-57830666D01*
X52002712Y-57681344D01*
X51878656Y-57557288D01*
X51756844Y-57482154D01*
X51729336Y-57465187D01*
X51729331Y-57465185D01*
X51727862Y-57464698D01*
X51562797Y-57410001D01*
X51562795Y-57410000D01*
X51460010Y-57399500D01*
X48699998Y-57399500D01*
X48699981Y-57399501D01*
X48597203Y-57410000D01*
X48597200Y-57410001D01*
X48430668Y-57465185D01*
X48430663Y-57465187D01*
X48281342Y-57557289D01*
X48157289Y-57681342D01*
X48065187Y-57830663D01*
X48065185Y-57830668D01*
X48049159Y-57879032D01*
X48010001Y-57997203D01*
X48010001Y-57997204D01*
X48010000Y-57997204D01*
X47999500Y-58099983D01*
X47999500Y-61900001D01*
X47999501Y-61900018D01*
X48010000Y-62002796D01*
X48010001Y-62002799D01*
X48050495Y-62125001D01*
X48065186Y-62169334D01*
X48157288Y-62318656D01*
X48281344Y-62442712D01*
X48430666Y-62534814D01*
X48597203Y-62589999D01*
X48699991Y-62600500D01*
X51460008Y-62600499D01*
X51562797Y-62589999D01*
X51729334Y-62534814D01*
X51878656Y-62442712D01*
X52002712Y-62318656D01*
X52094814Y-62169334D01*
X52149999Y-62002797D01*
X52160500Y-61900009D01*
X52160499Y-61852651D01*
X52180182Y-61785616D01*
X52232985Y-61739860D01*
X52302144Y-61729915D01*
X52365700Y-61758938D01*
X52382874Y-61777166D01*
X52472818Y-61894382D01*
X52472826Y-61894391D01*
X52665609Y-62087174D01*
X52665617Y-62087181D01*
X52881933Y-62253168D01*
X53118062Y-62389496D01*
X53118072Y-62389500D01*
X53369970Y-62493840D01*
X53633344Y-62564411D01*
X53790000Y-62585034D01*
X53790000Y-60867904D01*
X53951358Y-60900000D01*
X54128642Y-60900000D01*
X54290000Y-60867904D01*
X54290000Y-62585033D01*
X54446655Y-62564411D01*
X54710029Y-62493840D01*
X54961927Y-62389500D01*
X54961937Y-62389496D01*
X55198066Y-62253168D01*
X55414382Y-62087181D01*
X55414391Y-62087174D01*
X55607174Y-61894391D01*
X55607181Y-61894382D01*
X55773168Y-61678066D01*
X55911528Y-61438418D01*
X55912883Y-61439200D01*
X55955771Y-61392546D01*
X56023360Y-61374837D01*
X56089792Y-61396481D01*
X56126907Y-61439283D01*
X56128023Y-61438640D01*
X56266415Y-61678343D01*
X56432439Y-61894710D01*
X56432445Y-61894717D01*
X56625282Y-62087554D01*
X56625289Y-62087560D01*
X56841656Y-62253584D01*
X57077840Y-62389945D01*
X57077855Y-62389952D01*
X57205225Y-62442710D01*
X57329810Y-62494315D01*
X57593244Y-62564902D01*
X57863637Y-62600500D01*
X57863644Y-62600500D01*
X58136356Y-62600500D01*
X58136363Y-62600500D01*
X58406756Y-62564902D01*
X58670190Y-62494315D01*
X58922156Y-62389947D01*
X59158344Y-62253584D01*
X59374712Y-62087559D01*
X59567559Y-61894712D01*
X59733584Y-61678344D01*
X59869947Y-61442156D01*
X59869946Y-61442156D01*
X59871977Y-61438640D01*
X59873420Y-61439473D01*
X59916083Y-61393093D01*
X59983676Y-61375405D01*
X60050103Y-61397068D01*
X60086758Y-61439370D01*
X60088023Y-61438640D01*
X60226415Y-61678343D01*
X60392439Y-61894710D01*
X60392445Y-61894717D01*
X60585282Y-62087554D01*
X60585289Y-62087560D01*
X60801656Y-62253584D01*
X61037840Y-62389945D01*
X61037855Y-62389952D01*
X61165225Y-62442710D01*
X61289810Y-62494315D01*
X61553244Y-62564902D01*
X61823637Y-62600500D01*
X61823644Y-62600500D01*
X62096356Y-62600500D01*
X62096363Y-62600500D01*
X62366756Y-62564902D01*
X62630190Y-62494315D01*
X62882156Y-62389947D01*
X63118344Y-62253584D01*
X63334712Y-62087559D01*
X63527559Y-61894712D01*
X63693584Y-61678344D01*
X63829947Y-61442156D01*
X63934315Y-61190190D01*
X64004902Y-60926756D01*
X64040500Y-60656363D01*
X64040500Y-59343637D01*
X64004902Y-59073244D01*
X63934315Y-58809810D01*
X63883923Y-58688154D01*
X63829952Y-58557855D01*
X63829945Y-58557840D01*
X63693584Y-58321656D01*
X63578995Y-58172320D01*
X63527560Y-58105289D01*
X63527554Y-58105282D01*
X63334717Y-57912445D01*
X63334710Y-57912439D01*
X63118343Y-57746415D01*
X62882159Y-57610054D01*
X62882144Y-57610047D01*
X62630188Y-57505684D01*
X62366754Y-57435097D01*
X62096372Y-57399501D01*
X62096369Y-57399500D01*
X62096363Y-57399500D01*
X61823637Y-57399500D01*
X61823631Y-57399500D01*
X61823627Y-57399501D01*
X61553245Y-57435097D01*
X61289811Y-57505684D01*
X61037855Y-57610047D01*
X61037845Y-57610052D01*
X60997068Y-57633595D01*
X60929168Y-57650067D01*
X60863141Y-57627214D01*
X60847388Y-57613888D01*
X57345681Y-54112181D01*
X57312196Y-54050858D01*
X57317180Y-53981166D01*
X57359052Y-53925233D01*
X57424516Y-53900816D01*
X57433362Y-53900500D01*
X74455638Y-53900500D01*
X74522677Y-53920185D01*
X74543319Y-53936819D01*
X77802331Y-57195831D01*
X77835816Y-57257154D01*
X77830832Y-57326846D01*
X77788960Y-57382779D01*
X77730836Y-57406451D01*
X77567090Y-57428008D01*
X77513244Y-57435098D01*
X77442658Y-57454011D01*
X77249811Y-57505684D01*
X76997855Y-57610047D01*
X76997840Y-57610054D01*
X76761656Y-57746415D01*
X76545289Y-57912439D01*
X76545282Y-57912445D01*
X76352445Y-58105282D01*
X76352439Y-58105289D01*
X76186415Y-58321656D01*
X76048023Y-58561360D01*
X76046750Y-58560625D01*
X76003571Y-58607512D01*
X75935966Y-58625158D01*
X75869553Y-58603453D01*
X75832707Y-58560901D01*
X75831528Y-58561582D01*
X75693168Y-58321933D01*
X75527181Y-58105617D01*
X75527174Y-58105609D01*
X75334391Y-57912826D01*
X75334382Y-57912818D01*
X75118066Y-57746831D01*
X74881937Y-57610503D01*
X74881927Y-57610499D01*
X74630029Y-57506159D01*
X74366655Y-57435588D01*
X74210000Y-57414963D01*
X74210000Y-59132095D01*
X74048642Y-59100000D01*
X73871358Y-59100000D01*
X73710000Y-59132095D01*
X73710000Y-57414963D01*
X73709999Y-57414963D01*
X73553344Y-57435588D01*
X73289970Y-57506159D01*
X73038072Y-57610499D01*
X73038062Y-57610503D01*
X72801933Y-57746831D01*
X72585617Y-57912818D01*
X72392818Y-58105617D01*
X72302874Y-58222834D01*
X72246446Y-58264036D01*
X72176700Y-58268191D01*
X72115780Y-58233978D01*
X72083028Y-58172261D01*
X72080499Y-58147347D01*
X72080499Y-58099998D01*
X72080498Y-58099981D01*
X72069999Y-57997203D01*
X72069998Y-57997200D01*
X72064261Y-57979888D01*
X72014814Y-57830666D01*
X71922712Y-57681344D01*
X71798656Y-57557288D01*
X71676844Y-57482154D01*
X71649336Y-57465187D01*
X71649331Y-57465185D01*
X71647862Y-57464698D01*
X71482797Y-57410001D01*
X71482795Y-57410000D01*
X71380010Y-57399500D01*
X68619998Y-57399500D01*
X68619981Y-57399501D01*
X68517203Y-57410000D01*
X68517200Y-57410001D01*
X68350668Y-57465185D01*
X68350663Y-57465187D01*
X68201342Y-57557289D01*
X68077289Y-57681342D01*
X67985187Y-57830663D01*
X67985185Y-57830668D01*
X67969159Y-57879032D01*
X67930001Y-57997203D01*
X67930001Y-57997204D01*
X67930000Y-57997204D01*
X67919500Y-58099983D01*
X67919500Y-61900001D01*
X67919501Y-61900018D01*
X67930000Y-62002796D01*
X67930001Y-62002799D01*
X67970495Y-62125001D01*
X67985186Y-62169334D01*
X68077288Y-62318656D01*
X68201344Y-62442712D01*
X68350666Y-62534814D01*
X68517203Y-62589999D01*
X68619991Y-62600500D01*
X71380008Y-62600499D01*
X71482797Y-62589999D01*
X71649334Y-62534814D01*
X71798656Y-62442712D01*
X71922712Y-62318656D01*
X72014814Y-62169334D01*
X72069999Y-62002797D01*
X72080500Y-61900009D01*
X72080499Y-61852651D01*
X72100182Y-61785616D01*
X72152985Y-61739860D01*
X72222144Y-61729915D01*
X72285700Y-61758938D01*
X72302874Y-61777166D01*
X72392818Y-61894382D01*
X72392826Y-61894391D01*
X72585609Y-62087174D01*
X72585617Y-62087181D01*
X72801933Y-62253168D01*
X73038062Y-62389496D01*
X73038072Y-62389500D01*
X73289970Y-62493840D01*
X73553344Y-62564411D01*
X73710000Y-62585034D01*
X73710000Y-60867904D01*
X73871358Y-60900000D01*
X74048642Y-60900000D01*
X74210000Y-60867904D01*
X74210000Y-62585034D01*
X74366655Y-62564411D01*
X74630029Y-62493840D01*
X74881927Y-62389500D01*
X74881937Y-62389496D01*
X75118066Y-62253168D01*
X75334382Y-62087181D01*
X75334391Y-62087174D01*
X75527174Y-61894391D01*
X75527181Y-61894382D01*
X75693168Y-61678066D01*
X75831528Y-61438418D01*
X75832883Y-61439200D01*
X75875771Y-61392546D01*
X75943360Y-61374837D01*
X76009792Y-61396481D01*
X76046907Y-61439283D01*
X76048023Y-61438640D01*
X76186415Y-61678343D01*
X76352439Y-61894710D01*
X76352445Y-61894717D01*
X76545282Y-62087554D01*
X76545289Y-62087560D01*
X76761656Y-62253584D01*
X76997840Y-62389945D01*
X76997855Y-62389952D01*
X77125225Y-62442710D01*
X77249810Y-62494315D01*
X77513244Y-62564902D01*
X77783637Y-62600500D01*
X77783644Y-62600500D01*
X78056356Y-62600500D01*
X78056363Y-62600500D01*
X78326756Y-62564902D01*
X78590190Y-62494315D01*
X78842156Y-62389947D01*
X79078344Y-62253584D01*
X79294712Y-62087559D01*
X79487559Y-61894712D01*
X79653584Y-61678344D01*
X79789947Y-61442156D01*
X79789946Y-61442156D01*
X79791977Y-61438640D01*
X79793420Y-61439473D01*
X79836083Y-61393093D01*
X79903676Y-61375405D01*
X79970103Y-61397068D01*
X80006758Y-61439370D01*
X80008023Y-61438640D01*
X80146415Y-61678343D01*
X80312439Y-61894710D01*
X80312445Y-61894717D01*
X80505282Y-62087554D01*
X80505289Y-62087560D01*
X80721656Y-62253584D01*
X80957840Y-62389945D01*
X80957855Y-62389952D01*
X81085225Y-62442710D01*
X81209810Y-62494315D01*
X81473244Y-62564902D01*
X81743637Y-62600500D01*
X81743644Y-62600500D01*
X82016356Y-62600500D01*
X82016363Y-62600500D01*
X82286756Y-62564902D01*
X82550190Y-62494315D01*
X82802156Y-62389947D01*
X83038344Y-62253584D01*
X83254712Y-62087559D01*
X83447559Y-61894712D01*
X83613584Y-61678344D01*
X83749947Y-61442156D01*
X83854315Y-61190190D01*
X83924902Y-60926756D01*
X83960500Y-60656363D01*
X83960500Y-59343637D01*
X83924902Y-59073244D01*
X83854315Y-58809810D01*
X83803923Y-58688154D01*
X83749952Y-58557855D01*
X83749945Y-58557840D01*
X83613584Y-58321656D01*
X83498995Y-58172320D01*
X83447560Y-58105289D01*
X83447554Y-58105282D01*
X83254717Y-57912445D01*
X83254710Y-57912439D01*
X83038343Y-57746415D01*
X82802159Y-57610054D01*
X82802144Y-57610047D01*
X82550188Y-57505684D01*
X82286754Y-57435097D01*
X82016372Y-57399501D01*
X82016369Y-57399500D01*
X82016363Y-57399500D01*
X81743637Y-57399500D01*
X81743631Y-57399500D01*
X81743627Y-57399501D01*
X81473245Y-57435097D01*
X81209811Y-57505684D01*
X80957855Y-57610047D01*
X80957845Y-57610052D01*
X80917068Y-57633595D01*
X80849168Y-57650067D01*
X80783141Y-57627214D01*
X80767388Y-57613888D01*
X77265681Y-54112181D01*
X77232196Y-54050858D01*
X77237180Y-53981166D01*
X77279052Y-53925233D01*
X77344516Y-53900816D01*
X77353362Y-53900500D01*
X94535638Y-53900500D01*
X94602677Y-53920185D01*
X94623319Y-53936819D01*
X97882331Y-57195831D01*
X97915816Y-57257154D01*
X97910832Y-57326846D01*
X97868960Y-57382779D01*
X97810836Y-57406451D01*
X97647090Y-57428008D01*
X97593244Y-57435098D01*
X97522658Y-57454011D01*
X97329811Y-57505684D01*
X97077855Y-57610047D01*
X97077840Y-57610054D01*
X96841656Y-57746415D01*
X96625289Y-57912439D01*
X96625282Y-57912445D01*
X96432445Y-58105282D01*
X96432439Y-58105289D01*
X96266415Y-58321656D01*
X96128023Y-58561360D01*
X96126750Y-58560625D01*
X96083571Y-58607512D01*
X96015966Y-58625158D01*
X95949553Y-58603453D01*
X95912707Y-58560901D01*
X95911528Y-58561582D01*
X95773168Y-58321933D01*
X95607181Y-58105617D01*
X95607174Y-58105609D01*
X95414391Y-57912826D01*
X95414382Y-57912818D01*
X95198066Y-57746831D01*
X94961937Y-57610503D01*
X94961927Y-57610499D01*
X94710029Y-57506159D01*
X94446655Y-57435588D01*
X94290000Y-57414963D01*
X94290000Y-59132095D01*
X94128642Y-59100000D01*
X93951358Y-59100000D01*
X93790000Y-59132095D01*
X93790000Y-57414963D01*
X93789999Y-57414963D01*
X93633344Y-57435588D01*
X93369970Y-57506159D01*
X93118072Y-57610499D01*
X93118062Y-57610503D01*
X92881933Y-57746831D01*
X92665617Y-57912818D01*
X92472818Y-58105617D01*
X92382874Y-58222834D01*
X92326446Y-58264036D01*
X92256700Y-58268191D01*
X92195780Y-58233978D01*
X92163028Y-58172261D01*
X92160499Y-58147347D01*
X92160499Y-58099998D01*
X92160498Y-58099981D01*
X92149999Y-57997203D01*
X92149998Y-57997200D01*
X92144261Y-57979888D01*
X92094814Y-57830666D01*
X92002712Y-57681344D01*
X91878656Y-57557288D01*
X91756844Y-57482154D01*
X91729336Y-57465187D01*
X91729331Y-57465185D01*
X91727862Y-57464698D01*
X91562797Y-57410001D01*
X91562795Y-57410000D01*
X91460010Y-57399500D01*
X88699998Y-57399500D01*
X88699981Y-57399501D01*
X88597203Y-57410000D01*
X88597200Y-57410001D01*
X88430668Y-57465185D01*
X88430663Y-57465187D01*
X88281342Y-57557289D01*
X88157289Y-57681342D01*
X88065187Y-57830663D01*
X88065185Y-57830668D01*
X88049159Y-57879032D01*
X88010001Y-57997203D01*
X88010001Y-57997204D01*
X88010000Y-57997204D01*
X87999500Y-58099983D01*
X87999500Y-61900001D01*
X87999501Y-61900018D01*
X88010000Y-62002796D01*
X88010001Y-62002799D01*
X88050495Y-62125001D01*
X88065186Y-62169334D01*
X88157288Y-62318656D01*
X88281344Y-62442712D01*
X88430666Y-62534814D01*
X88597203Y-62589999D01*
X88699991Y-62600500D01*
X91460008Y-62600499D01*
X91562797Y-62589999D01*
X91729334Y-62534814D01*
X91878656Y-62442712D01*
X92002712Y-62318656D01*
X92094814Y-62169334D01*
X92149999Y-62002797D01*
X92160500Y-61900009D01*
X92160499Y-61852651D01*
X92180182Y-61785616D01*
X92232985Y-61739860D01*
X92302144Y-61729915D01*
X92365700Y-61758938D01*
X92382874Y-61777166D01*
X92472818Y-61894382D01*
X92472826Y-61894391D01*
X92665609Y-62087174D01*
X92665617Y-62087181D01*
X92881933Y-62253168D01*
X93118062Y-62389496D01*
X93118072Y-62389500D01*
X93369970Y-62493840D01*
X93633344Y-62564411D01*
X93790000Y-62585034D01*
X93790000Y-60867904D01*
X93951358Y-60900000D01*
X94128642Y-60900000D01*
X94290000Y-60867904D01*
X94290000Y-62585033D01*
X94446655Y-62564411D01*
X94710029Y-62493840D01*
X94961927Y-62389500D01*
X94961937Y-62389496D01*
X95198066Y-62253168D01*
X95414382Y-62087181D01*
X95414391Y-62087174D01*
X95607174Y-61894391D01*
X95607181Y-61894382D01*
X95773168Y-61678066D01*
X95911528Y-61438418D01*
X95912883Y-61439200D01*
X95955771Y-61392546D01*
X96023360Y-61374837D01*
X96089792Y-61396481D01*
X96126907Y-61439283D01*
X96128023Y-61438640D01*
X96266415Y-61678343D01*
X96432439Y-61894710D01*
X96432445Y-61894717D01*
X96625282Y-62087554D01*
X96625289Y-62087560D01*
X96841656Y-62253584D01*
X97077840Y-62389945D01*
X97077855Y-62389952D01*
X97205225Y-62442710D01*
X97329810Y-62494315D01*
X97593244Y-62564902D01*
X97863637Y-62600500D01*
X97863644Y-62600500D01*
X98136356Y-62600500D01*
X98136363Y-62600500D01*
X98406756Y-62564902D01*
X98670190Y-62494315D01*
X98922156Y-62389947D01*
X99158344Y-62253584D01*
X99374712Y-62087559D01*
X99567559Y-61894712D01*
X99733584Y-61678344D01*
X99869947Y-61442156D01*
X99869946Y-61442156D01*
X99871977Y-61438640D01*
X99873420Y-61439473D01*
X99916083Y-61393093D01*
X99983676Y-61375405D01*
X100050103Y-61397068D01*
X100086758Y-61439370D01*
X100088023Y-61438640D01*
X100226415Y-61678343D01*
X100392439Y-61894710D01*
X100392445Y-61894717D01*
X100585282Y-62087554D01*
X100585289Y-62087560D01*
X100801656Y-62253584D01*
X101037840Y-62389945D01*
X101037855Y-62389952D01*
X101165225Y-62442710D01*
X101289810Y-62494315D01*
X101553244Y-62564902D01*
X101823637Y-62600500D01*
X101823644Y-62600500D01*
X102096356Y-62600500D01*
X102096363Y-62600500D01*
X102366756Y-62564902D01*
X102630190Y-62494315D01*
X102882156Y-62389947D01*
X103118344Y-62253584D01*
X103334712Y-62087559D01*
X103527559Y-61894712D01*
X103693584Y-61678344D01*
X103829947Y-61442156D01*
X103934315Y-61190190D01*
X104004902Y-60926756D01*
X104040500Y-60656363D01*
X104040500Y-59343637D01*
X104004902Y-59073244D01*
X103934315Y-58809810D01*
X103883923Y-58688154D01*
X103829952Y-58557855D01*
X103829945Y-58557840D01*
X103729483Y-58383834D01*
X103693584Y-58321656D01*
X103527560Y-58105289D01*
X103527554Y-58105282D01*
X103334717Y-57912445D01*
X103334710Y-57912439D01*
X103118343Y-57746415D01*
X102882159Y-57610054D01*
X102882144Y-57610047D01*
X102630188Y-57505684D01*
X102366754Y-57435097D01*
X102096372Y-57399501D01*
X102096369Y-57399500D01*
X102096363Y-57399500D01*
X101823637Y-57399500D01*
X101823631Y-57399500D01*
X101823627Y-57399501D01*
X101553245Y-57435097D01*
X101289811Y-57505684D01*
X101037855Y-57610047D01*
X101037845Y-57610052D01*
X100997068Y-57633595D01*
X100929168Y-57650067D01*
X100863141Y-57627214D01*
X100847388Y-57613888D01*
X97345681Y-54112181D01*
X97312196Y-54050858D01*
X97317180Y-53981166D01*
X97359052Y-53925233D01*
X97424516Y-53900816D01*
X97433362Y-53900500D01*
X113290638Y-53900500D01*
X113357677Y-53920185D01*
X113378319Y-53936819D01*
X116862331Y-57420831D01*
X116895816Y-57482154D01*
X116890832Y-57551846D01*
X116848960Y-57607779D01*
X116790836Y-57631451D01*
X116627090Y-57653008D01*
X116573244Y-57660098D01*
X116502658Y-57679011D01*
X116309811Y-57730684D01*
X116057855Y-57835047D01*
X116057840Y-57835054D01*
X115821656Y-57971415D01*
X115605289Y-58137439D01*
X115605282Y-58137445D01*
X115412445Y-58330282D01*
X115412439Y-58330289D01*
X115246415Y-58546656D01*
X115108023Y-58786360D01*
X115106750Y-58785625D01*
X115063571Y-58832512D01*
X114995966Y-58850158D01*
X114929553Y-58828453D01*
X114892707Y-58785901D01*
X114891528Y-58786582D01*
X114753168Y-58546933D01*
X114587181Y-58330617D01*
X114587174Y-58330609D01*
X114394391Y-58137826D01*
X114394382Y-58137818D01*
X114178066Y-57971831D01*
X113941937Y-57835503D01*
X113941927Y-57835499D01*
X113690029Y-57731159D01*
X113426655Y-57660588D01*
X113270000Y-57639963D01*
X113270000Y-59357095D01*
X113108642Y-59325000D01*
X112931358Y-59325000D01*
X112770000Y-59357095D01*
X112770000Y-57639963D01*
X112769999Y-57639963D01*
X112613344Y-57660588D01*
X112349970Y-57731159D01*
X112098072Y-57835499D01*
X112098062Y-57835503D01*
X111861933Y-57971831D01*
X111645617Y-58137818D01*
X111452818Y-58330617D01*
X111362874Y-58447834D01*
X111306446Y-58489036D01*
X111236700Y-58493191D01*
X111175780Y-58458978D01*
X111143028Y-58397261D01*
X111140499Y-58372347D01*
X111140499Y-58324998D01*
X111140498Y-58324981D01*
X111129999Y-58222203D01*
X111129998Y-58222200D01*
X111102039Y-58137826D01*
X111074814Y-58055666D01*
X110982712Y-57906344D01*
X110858656Y-57782288D01*
X110709334Y-57690186D01*
X110542797Y-57635001D01*
X110542795Y-57635000D01*
X110440010Y-57624500D01*
X107679998Y-57624500D01*
X107679981Y-57624501D01*
X107577203Y-57635000D01*
X107577200Y-57635001D01*
X107410668Y-57690185D01*
X107410663Y-57690187D01*
X107261342Y-57782289D01*
X107137289Y-57906342D01*
X107045187Y-58055663D01*
X107045185Y-58055668D01*
X107028636Y-58105609D01*
X106990001Y-58222203D01*
X106990001Y-58222204D01*
X106990000Y-58222204D01*
X106979500Y-58324983D01*
X106979500Y-62125001D01*
X106979501Y-62125018D01*
X106990000Y-62227796D01*
X106990001Y-62227799D01*
X107020109Y-62318657D01*
X107045186Y-62394334D01*
X107137288Y-62543656D01*
X107261344Y-62667712D01*
X107410666Y-62759814D01*
X107577203Y-62814999D01*
X107679991Y-62825500D01*
X110440008Y-62825499D01*
X110542797Y-62814999D01*
X110709334Y-62759814D01*
X110858656Y-62667712D01*
X110982712Y-62543656D01*
X111074814Y-62394334D01*
X111129999Y-62227797D01*
X111140500Y-62125009D01*
X111140499Y-62077651D01*
X111160182Y-62010616D01*
X111212985Y-61964860D01*
X111282144Y-61954915D01*
X111345700Y-61983938D01*
X111362874Y-62002166D01*
X111452818Y-62119382D01*
X111452826Y-62119391D01*
X111645609Y-62312174D01*
X111645617Y-62312181D01*
X111861933Y-62478168D01*
X112098062Y-62614496D01*
X112098072Y-62614500D01*
X112349970Y-62718840D01*
X112613344Y-62789411D01*
X112770000Y-62810034D01*
X112770000Y-61092904D01*
X112931358Y-61125000D01*
X113108642Y-61125000D01*
X113270000Y-61092904D01*
X113270000Y-62810033D01*
X113426655Y-62789411D01*
X113690029Y-62718840D01*
X113941927Y-62614500D01*
X113941937Y-62614496D01*
X114178066Y-62478168D01*
X114394382Y-62312181D01*
X114394391Y-62312174D01*
X114587174Y-62119391D01*
X114587181Y-62119382D01*
X114753168Y-61903066D01*
X114891528Y-61663418D01*
X114892883Y-61664200D01*
X114935771Y-61617546D01*
X115003360Y-61599837D01*
X115069792Y-61621481D01*
X115106907Y-61664283D01*
X115108023Y-61663640D01*
X115246415Y-61903343D01*
X115412439Y-62119710D01*
X115412445Y-62119717D01*
X115605282Y-62312554D01*
X115605289Y-62312560D01*
X115821656Y-62478584D01*
X116057840Y-62614945D01*
X116057855Y-62614952D01*
X116185225Y-62667710D01*
X116309810Y-62719315D01*
X116573244Y-62789902D01*
X116843637Y-62825500D01*
X116843644Y-62825500D01*
X117116356Y-62825500D01*
X117116363Y-62825500D01*
X117386756Y-62789902D01*
X117650190Y-62719315D01*
X117902156Y-62614947D01*
X118138344Y-62478584D01*
X118354712Y-62312559D01*
X118547559Y-62119712D01*
X118713584Y-61903344D01*
X118849947Y-61667156D01*
X118849946Y-61667156D01*
X118851977Y-61663640D01*
X118853420Y-61664473D01*
X118896083Y-61618093D01*
X118963676Y-61600405D01*
X119030103Y-61622068D01*
X119066758Y-61664370D01*
X119068023Y-61663640D01*
X119206415Y-61903343D01*
X119372439Y-62119710D01*
X119372445Y-62119717D01*
X119565282Y-62312554D01*
X119565289Y-62312560D01*
X119781656Y-62478584D01*
X120017840Y-62614945D01*
X120017855Y-62614952D01*
X120145225Y-62667710D01*
X120269810Y-62719315D01*
X120533244Y-62789902D01*
X120803637Y-62825500D01*
X120803644Y-62825500D01*
X121076356Y-62825500D01*
X121076363Y-62825500D01*
X121346756Y-62789902D01*
X121610190Y-62719315D01*
X121862156Y-62614947D01*
X122098344Y-62478584D01*
X122314712Y-62312559D01*
X122507559Y-62119712D01*
X122673584Y-61903344D01*
X122809947Y-61667156D01*
X122914315Y-61415190D01*
X122984902Y-61151756D01*
X123020500Y-60881363D01*
X123020500Y-59568637D01*
X122984902Y-59298244D01*
X122914315Y-59034810D01*
X122863923Y-58913154D01*
X122809952Y-58782855D01*
X122809945Y-58782840D01*
X122673584Y-58546656D01*
X122507560Y-58330289D01*
X122507554Y-58330282D01*
X122314717Y-58137445D01*
X122314710Y-58137439D01*
X122098343Y-57971415D01*
X121902500Y-57858345D01*
X121854284Y-57807778D01*
X121840500Y-57750958D01*
X121840500Y-46851307D01*
X121840499Y-46851303D01*
X121807173Y-46683760D01*
X121805895Y-46677334D01*
X121789577Y-46637940D01*
X121774477Y-46601485D01*
X121774474Y-46601480D01*
X121771953Y-46595393D01*
X121738013Y-46513453D01*
X121678936Y-46425040D01*
X121662423Y-46400326D01*
X121639466Y-46365966D01*
X111414035Y-36140535D01*
X111414030Y-36140531D01*
X111359622Y-36104178D01*
X111359616Y-36104175D01*
X111354959Y-36101063D01*
X111266547Y-36041987D01*
X111184606Y-36008046D01*
X111102666Y-35974105D01*
X111102658Y-35974103D01*
X110928696Y-35939500D01*
X110928692Y-35939500D01*
X110928691Y-35939500D01*
X108060758Y-35939500D01*
X107993719Y-35919815D01*
X107973077Y-35903181D01*
X107879786Y-35809890D01*
X107707820Y-35684951D01*
X107707115Y-35684591D01*
X107699054Y-35680485D01*
X107648259Y-35632512D01*
X107631463Y-35564692D01*
X107653999Y-35498556D01*
X107699054Y-35459515D01*
X107707816Y-35455051D01*
X107729789Y-35439086D01*
X107879786Y-35330109D01*
X107879788Y-35330106D01*
X107879792Y-35330104D01*
X108030104Y-35179792D01*
X108030106Y-35179788D01*
X108030109Y-35179786D01*
X108155048Y-35007820D01*
X108155047Y-35007820D01*
X108155051Y-35007816D01*
X108251557Y-34818412D01*
X108317246Y-34616243D01*
X108350500Y-34406287D01*
X108350500Y-34193713D01*
X108317246Y-33983757D01*
X108251557Y-33781588D01*
X108155051Y-33592184D01*
X108155049Y-33592181D01*
X108155048Y-33592179D01*
X108030109Y-33420213D01*
X107879786Y-33269890D01*
X107707820Y-33144951D01*
X107707115Y-33144591D01*
X107699054Y-33140485D01*
X107648259Y-33092512D01*
X107631463Y-33024692D01*
X107653999Y-32958556D01*
X107699054Y-32919515D01*
X107707816Y-32915051D01*
X107729789Y-32899086D01*
X107879786Y-32790109D01*
X107879788Y-32790106D01*
X107879792Y-32790104D01*
X108030104Y-32639792D01*
X108030106Y-32639788D01*
X108030109Y-32639786D01*
X108155048Y-32467820D01*
X108155047Y-32467820D01*
X108155051Y-32467816D01*
X108251557Y-32278412D01*
X108317246Y-32076243D01*
X108350500Y-31866287D01*
X108350500Y-31653713D01*
X108317246Y-31443757D01*
X108251557Y-31241588D01*
X108155051Y-31052184D01*
X108155049Y-31052181D01*
X108155048Y-31052179D01*
X108030109Y-30880213D01*
X107879786Y-30729890D01*
X107707820Y-30604951D01*
X107707115Y-30604591D01*
X107699054Y-30600485D01*
X107648259Y-30552512D01*
X107631463Y-30484692D01*
X107653999Y-30418556D01*
X107699054Y-30379515D01*
X107707816Y-30375051D01*
X107729789Y-30359086D01*
X107879786Y-30250109D01*
X107879788Y-30250106D01*
X107879792Y-30250104D01*
X108030104Y-30099792D01*
X108030106Y-30099788D01*
X108030109Y-30099786D01*
X108155048Y-29927820D01*
X108155047Y-29927820D01*
X108155051Y-29927816D01*
X108251557Y-29738412D01*
X108317246Y-29536243D01*
X108350500Y-29326287D01*
X108350500Y-29113713D01*
X108317246Y-28903757D01*
X108251557Y-28701588D01*
X108155051Y-28512184D01*
X108155049Y-28512181D01*
X108155048Y-28512179D01*
X108030109Y-28340213D01*
X107879786Y-28189890D01*
X107707820Y-28064951D01*
X107518414Y-27968444D01*
X107518413Y-27968443D01*
X107518412Y-27968443D01*
X107316243Y-27902754D01*
X107316241Y-27902753D01*
X107316240Y-27902753D01*
X107154957Y-27877208D01*
X107106287Y-27869500D01*
X106893713Y-27869500D01*
X106845042Y-27877208D01*
X106683760Y-27902753D01*
X106481585Y-27968444D01*
X106292179Y-28064951D01*
X106120213Y-28189890D01*
X105969890Y-28340213D01*
X105844949Y-28512182D01*
X105840484Y-28520946D01*
X105792509Y-28571742D01*
X105724688Y-28588536D01*
X105658553Y-28565998D01*
X105619516Y-28520946D01*
X105615050Y-28512182D01*
X105490109Y-28340213D01*
X105339786Y-28189890D01*
X105167820Y-28064951D01*
X104978414Y-27968444D01*
X104978413Y-27968443D01*
X104978412Y-27968443D01*
X104776243Y-27902754D01*
X104776241Y-27902753D01*
X104776240Y-27902753D01*
X104614957Y-27877208D01*
X104566287Y-27869500D01*
X104353713Y-27869500D01*
X104305042Y-27877208D01*
X104143760Y-27902753D01*
X103941585Y-27968444D01*
X103752179Y-28064951D01*
X103580213Y-28189890D01*
X103429890Y-28340213D01*
X103304951Y-28512179D01*
X103208444Y-28701585D01*
X103142753Y-28903760D01*
X103109500Y-29113713D01*
X103109500Y-29326286D01*
X103142753Y-29536239D01*
X103208444Y-29738414D01*
X103304951Y-29927820D01*
X103429890Y-30099786D01*
X103580213Y-30250109D01*
X103752182Y-30375050D01*
X103760946Y-30379516D01*
X103811742Y-30427491D01*
X103828536Y-30495312D01*
X103805998Y-30561447D01*
X103760946Y-30600484D01*
X103752182Y-30604949D01*
X103580213Y-30729890D01*
X103429890Y-30880213D01*
X103304951Y-31052179D01*
X103208444Y-31241585D01*
X103142753Y-31443760D01*
X103109500Y-31653713D01*
X103109500Y-31866286D01*
X103142753Y-32076239D01*
X103208444Y-32278414D01*
X103304951Y-32467820D01*
X103429890Y-32639786D01*
X103580213Y-32790109D01*
X103752182Y-32915050D01*
X103760946Y-32919516D01*
X103811742Y-32967491D01*
X103828536Y-33035312D01*
X103805998Y-33101447D01*
X103760946Y-33140484D01*
X103752182Y-33144949D01*
X103580213Y-33269890D01*
X103429890Y-33420213D01*
X103304951Y-33592179D01*
X103208444Y-33781585D01*
X103142753Y-33983760D01*
X103109500Y-34193713D01*
X103109500Y-34406286D01*
X103142753Y-34616239D01*
X103208444Y-34818414D01*
X103304951Y-35007820D01*
X103429890Y-35179786D01*
X103580213Y-35330109D01*
X103752182Y-35455050D01*
X103760946Y-35459516D01*
X103811742Y-35507491D01*
X103828536Y-35575312D01*
X103805998Y-35641447D01*
X103760946Y-35680484D01*
X103752182Y-35684949D01*
X103580213Y-35809890D01*
X103429890Y-35960213D01*
X103304951Y-36132179D01*
X103208444Y-36321585D01*
X103142753Y-36523760D01*
X103109500Y-36733713D01*
X103109500Y-36946286D01*
X103142753Y-37156239D01*
X103208444Y-37358414D01*
X103304951Y-37547820D01*
X103429890Y-37719786D01*
X103580213Y-37870109D01*
X103752179Y-37995048D01*
X103752181Y-37995049D01*
X103752184Y-37995051D01*
X103761493Y-37999794D01*
X103812290Y-38047766D01*
X103829087Y-38115587D01*
X103806552Y-38181722D01*
X103761505Y-38220760D01*
X103752446Y-38225376D01*
X103752440Y-38225380D01*
X103698282Y-38264727D01*
X103698282Y-38264728D01*
X104330591Y-38897037D01*
X104267007Y-38914075D01*
X104152993Y-38979901D01*
X104059901Y-39072993D01*
X103994075Y-39187007D01*
X103977037Y-39250591D01*
X103344728Y-38618282D01*
X103344727Y-38618282D01*
X103305380Y-38672439D01*
X103208904Y-38861782D01*
X103143242Y-39063869D01*
X103143242Y-39063872D01*
X103110000Y-39273753D01*
X103110000Y-39486246D01*
X103143242Y-39696127D01*
X103143242Y-39696130D01*
X103208904Y-39898217D01*
X103305375Y-40087550D01*
X103344728Y-40141716D01*
X103977037Y-39509408D01*
X103994075Y-39572993D01*
X104059901Y-39687007D01*
X104152993Y-39780099D01*
X104267007Y-39845925D01*
X104330590Y-39862962D01*
X103698282Y-40495269D01*
X103698282Y-40495270D01*
X103752452Y-40534626D01*
X103762048Y-40539516D01*
X103812844Y-40587491D01*
X103829638Y-40655312D01*
X103807100Y-40721447D01*
X103762051Y-40760483D01*
X103752440Y-40765380D01*
X103698282Y-40804727D01*
X103698282Y-40804728D01*
X104330591Y-41437037D01*
X104267007Y-41454075D01*
X104152993Y-41519901D01*
X104059901Y-41612993D01*
X103994075Y-41727007D01*
X103977037Y-41790591D01*
X103344728Y-41158282D01*
X103344727Y-41158282D01*
X103305380Y-41212439D01*
X103208904Y-41401782D01*
X103143242Y-41603869D01*
X103143242Y-41603872D01*
X103110000Y-41813753D01*
X103110000Y-42026246D01*
X103143242Y-42236127D01*
X103143242Y-42236130D01*
X103208904Y-42438217D01*
X103305375Y-42627550D01*
X103344728Y-42681716D01*
X103977037Y-42049408D01*
X103994075Y-42112993D01*
X104059901Y-42227007D01*
X104152993Y-42320099D01*
X104267007Y-42385925D01*
X104330590Y-42402962D01*
X103698282Y-43035269D01*
X103698282Y-43035270D01*
X103752452Y-43074626D01*
X103762048Y-43079516D01*
X103812844Y-43127491D01*
X103829638Y-43195312D01*
X103807100Y-43261447D01*
X103762051Y-43300483D01*
X103752440Y-43305380D01*
X103698282Y-43344727D01*
X103698282Y-43344728D01*
X104330591Y-43977037D01*
X104267007Y-43994075D01*
X104152993Y-44059901D01*
X104059901Y-44152993D01*
X103994075Y-44267007D01*
X103977037Y-44330591D01*
X103344728Y-43698282D01*
X103344727Y-43698282D01*
X103305380Y-43752439D01*
X103208904Y-43941782D01*
X103143242Y-44143869D01*
X103143242Y-44143872D01*
X103110000Y-44353753D01*
X103110000Y-44566246D01*
X103143242Y-44776127D01*
X103143242Y-44776130D01*
X103208904Y-44978217D01*
X103305375Y-45167550D01*
X103344728Y-45221716D01*
X103977037Y-44589408D01*
X103994075Y-44652993D01*
X104059901Y-44767007D01*
X104152993Y-44860099D01*
X104267007Y-44925925D01*
X104330590Y-44942962D01*
X103698282Y-45575269D01*
X103698282Y-45575270D01*
X103752452Y-45614626D01*
X103752451Y-45614626D01*
X103761495Y-45619234D01*
X103812292Y-45667208D01*
X103829087Y-45735029D01*
X103806550Y-45801164D01*
X103761499Y-45840202D01*
X103752182Y-45844949D01*
X103580213Y-45969890D01*
X103429890Y-46120213D01*
X103304951Y-46292179D01*
X103208444Y-46481585D01*
X103142753Y-46683760D01*
X103109500Y-46893713D01*
X103109500Y-47106286D01*
X103142753Y-47316239D01*
X103208444Y-47518414D01*
X103304951Y-47707820D01*
X103429890Y-47879786D01*
X103580213Y-48030109D01*
X103752179Y-48155048D01*
X103752181Y-48155049D01*
X103752184Y-48155051D01*
X103941588Y-48251557D01*
X104143757Y-48317246D01*
X104353713Y-48350500D01*
X104353714Y-48350500D01*
X104566286Y-48350500D01*
X104566287Y-48350500D01*
X104776243Y-48317246D01*
X104978412Y-48251557D01*
X105167816Y-48155051D01*
X105189789Y-48139086D01*
X105339786Y-48030109D01*
X105339788Y-48030106D01*
X105339792Y-48030104D01*
X105490104Y-47879792D01*
X105493660Y-47874896D01*
X105548987Y-47832230D01*
X105618600Y-47826248D01*
X105680397Y-47858851D01*
X105711686Y-47908772D01*
X105715186Y-47919334D01*
X105807288Y-48068656D01*
X105931344Y-48192712D01*
X106080666Y-48284814D01*
X106247203Y-48339999D01*
X106349991Y-48350500D01*
X107650008Y-48350499D01*
X107752797Y-48339999D01*
X107919334Y-48284814D01*
X108068656Y-48192712D01*
X108192712Y-48068656D01*
X108284814Y-47919334D01*
X108339999Y-47752797D01*
X108350500Y-47650009D01*
X108350499Y-46349992D01*
X108339999Y-46247203D01*
X108284814Y-46080666D01*
X108192712Y-45931344D01*
X108068656Y-45807288D01*
X107919334Y-45715186D01*
X107847228Y-45691292D01*
X107789784Y-45651520D01*
X107762961Y-45587004D01*
X107762801Y-45576354D01*
X107129408Y-44942962D01*
X107192993Y-44925925D01*
X107307007Y-44860099D01*
X107400099Y-44767007D01*
X107465925Y-44652993D01*
X107482962Y-44589409D01*
X108115270Y-45221717D01*
X108115270Y-45221716D01*
X108154622Y-45167554D01*
X108251095Y-44978217D01*
X108316757Y-44776130D01*
X108316757Y-44776127D01*
X108350000Y-44566246D01*
X108350000Y-44353753D01*
X108316757Y-44143872D01*
X108316757Y-44143869D01*
X108251095Y-43941782D01*
X108154624Y-43752449D01*
X108115270Y-43698282D01*
X107482962Y-44330590D01*
X107465925Y-44267007D01*
X107400099Y-44152993D01*
X107307007Y-44059901D01*
X107192993Y-43994075D01*
X107129409Y-43977037D01*
X107761716Y-43344728D01*
X107707550Y-43305375D01*
X107697954Y-43300486D01*
X107647157Y-43252512D01*
X107630361Y-43184692D01*
X107652897Y-43118556D01*
X107697954Y-43079514D01*
X107707554Y-43074622D01*
X107761716Y-43035270D01*
X107761717Y-43035270D01*
X107129408Y-42402962D01*
X107192993Y-42385925D01*
X107307007Y-42320099D01*
X107400099Y-42227007D01*
X107465925Y-42112993D01*
X107482962Y-42049409D01*
X108115270Y-42681717D01*
X108115270Y-42681716D01*
X108154622Y-42627554D01*
X108251095Y-42438217D01*
X108316757Y-42236130D01*
X108316757Y-42236127D01*
X108350000Y-42026246D01*
X108350000Y-41813753D01*
X108316757Y-41603872D01*
X108316757Y-41603869D01*
X108251095Y-41401782D01*
X108154624Y-41212449D01*
X108115270Y-41158282D01*
X107482962Y-41790590D01*
X107465925Y-41727007D01*
X107400099Y-41612993D01*
X107307007Y-41519901D01*
X107192993Y-41454075D01*
X107129409Y-41437037D01*
X107761716Y-40804728D01*
X107707550Y-40765375D01*
X107697954Y-40760486D01*
X107647157Y-40712512D01*
X107630361Y-40644692D01*
X107652897Y-40578556D01*
X107697954Y-40539514D01*
X107707554Y-40534622D01*
X107761716Y-40495270D01*
X107761717Y-40495270D01*
X107129408Y-39862962D01*
X107192993Y-39845925D01*
X107307007Y-39780099D01*
X107400099Y-39687007D01*
X107465925Y-39572993D01*
X107482962Y-39509409D01*
X108115270Y-40141717D01*
X108115270Y-40141716D01*
X108154622Y-40087554D01*
X108251095Y-39898217D01*
X108316757Y-39696130D01*
X108316757Y-39696127D01*
X108350000Y-39486246D01*
X108350000Y-39273753D01*
X108316757Y-39063872D01*
X108316757Y-39063869D01*
X108251095Y-38861782D01*
X108154624Y-38672449D01*
X108115270Y-38618282D01*
X107482962Y-39250590D01*
X107465925Y-39187007D01*
X107400099Y-39072993D01*
X107307007Y-38979901D01*
X107192993Y-38914075D01*
X107129409Y-38897037D01*
X107761716Y-38264728D01*
X107707547Y-38225373D01*
X107707547Y-38225372D01*
X107698500Y-38220763D01*
X107647706Y-38172788D01*
X107630912Y-38104966D01*
X107653451Y-38038832D01*
X107698508Y-37999793D01*
X107707816Y-37995051D01*
X107787007Y-37937515D01*
X107879786Y-37870109D01*
X107879788Y-37870106D01*
X107879792Y-37870104D01*
X107973077Y-37776819D01*
X108034400Y-37743334D01*
X108060758Y-37740500D01*
X110415638Y-37740500D01*
X110482677Y-37760185D01*
X110503319Y-37776819D01*
X120003181Y-47276681D01*
X120036666Y-47338004D01*
X120039500Y-47364362D01*
X120039500Y-57750957D01*
X120019815Y-57817996D01*
X119977423Y-57858389D01*
X119976991Y-57858638D01*
X119909078Y-57875061D01*
X119843068Y-57852162D01*
X119827387Y-57838887D01*
X114289035Y-52300535D01*
X114289030Y-52300531D01*
X114234622Y-52264178D01*
X114234616Y-52264175D01*
X114229959Y-52261063D01*
X114141547Y-52201987D01*
X114059606Y-52168046D01*
X113977666Y-52134105D01*
X113977658Y-52134103D01*
X113803696Y-52099500D01*
X113803692Y-52099500D01*
X113803691Y-52099500D01*
X95048692Y-52099500D01*
X95048691Y-52099500D01*
X74968692Y-52099500D01*
X74968691Y-52099500D01*
X55048692Y-52099500D01*
X55048691Y-52099500D01*
X48088691Y-52099500D01*
X47911308Y-52099500D01*
X47911305Y-52099500D01*
X47737401Y-52134091D01*
X47737402Y-52134092D01*
X47737339Y-52134104D01*
X47737329Y-52134107D01*
X47573459Y-52201983D01*
X47573446Y-52201990D01*
X47425966Y-52300534D01*
X47425964Y-52300537D01*
X42260535Y-57465964D01*
X42260531Y-57465969D01*
X42233998Y-57505681D01*
X42233955Y-57505747D01*
X42233492Y-57506439D01*
X42179852Y-57551210D01*
X42177886Y-57552045D01*
X42037844Y-57610053D01*
X42037841Y-57610054D01*
X42037833Y-57610058D01*
X41801656Y-57746415D01*
X41585289Y-57912439D01*
X41585282Y-57912445D01*
X41392445Y-58105282D01*
X41392439Y-58105289D01*
X41226415Y-58321656D01*
X41088023Y-58561360D01*
X41086585Y-58560530D01*
X41043885Y-58606926D01*
X40976286Y-58624593D01*
X40909866Y-58602909D01*
X40873234Y-58560634D01*
X40871977Y-58561360D01*
X40733584Y-58321656D01*
X40567560Y-58105289D01*
X40567554Y-58105282D01*
X40374717Y-57912445D01*
X40374710Y-57912439D01*
X40158343Y-57746415D01*
X39922159Y-57610054D01*
X39922144Y-57610047D01*
X39670188Y-57505684D01*
X39406754Y-57435097D01*
X39136372Y-57399501D01*
X39136369Y-57399500D01*
X39136363Y-57399500D01*
X38863637Y-57399500D01*
X38863631Y-57399500D01*
X38863627Y-57399501D01*
X38593245Y-57435097D01*
X38329811Y-57505684D01*
X38077855Y-57610047D01*
X38077840Y-57610054D01*
X37841656Y-57746415D01*
X37625289Y-57912439D01*
X37625282Y-57912445D01*
X37432445Y-58105282D01*
X37432439Y-58105289D01*
X37266415Y-58321656D01*
X37128023Y-58561360D01*
X37126750Y-58560625D01*
X37083571Y-58607512D01*
X37015966Y-58625158D01*
X36949553Y-58603453D01*
X36912707Y-58560901D01*
X36911528Y-58561582D01*
X36773168Y-58321933D01*
X36607181Y-58105617D01*
X36607174Y-58105609D01*
X36414391Y-57912826D01*
X36414382Y-57912818D01*
X36198066Y-57746831D01*
X35961937Y-57610503D01*
X35961927Y-57610499D01*
X35710029Y-57506159D01*
X35446655Y-57435588D01*
X35290000Y-57414963D01*
X35290000Y-59132095D01*
X35128642Y-59100000D01*
X34951358Y-59100000D01*
X34790000Y-59132095D01*
X34790000Y-57414963D01*
X34633344Y-57435588D01*
X34369970Y-57506159D01*
X34118072Y-57610499D01*
X34118062Y-57610503D01*
X33881933Y-57746831D01*
X33665617Y-57912818D01*
X33472818Y-58105617D01*
X33382874Y-58222834D01*
X33326446Y-58264036D01*
X33256700Y-58268191D01*
X33195780Y-58233978D01*
X33163028Y-58172261D01*
X33160499Y-58147347D01*
X33160499Y-58099998D01*
X33160498Y-58099981D01*
X33149999Y-57997203D01*
X33149998Y-57997200D01*
X33144261Y-57979888D01*
X33094814Y-57830666D01*
X33002712Y-57681344D01*
X32878656Y-57557288D01*
X32756844Y-57482154D01*
X32729336Y-57465187D01*
X32729331Y-57465185D01*
X32727862Y-57464698D01*
X32562797Y-57410001D01*
X32562795Y-57410000D01*
X32460010Y-57399500D01*
X29699998Y-57399500D01*
X29699981Y-57399501D01*
X29597203Y-57410000D01*
X29597200Y-57410001D01*
X29430668Y-57465185D01*
X29430663Y-57465187D01*
X29281342Y-57557289D01*
X29157289Y-57681342D01*
X29065187Y-57830663D01*
X29065185Y-57830668D01*
X29049159Y-57879032D01*
X29010001Y-57997203D01*
X29010001Y-57997204D01*
X29010000Y-57997204D01*
X28999500Y-58099983D01*
X25500500Y-58099983D01*
X25500500Y-29113713D01*
X31109500Y-29113713D01*
X31109500Y-29326286D01*
X31142753Y-29536239D01*
X31208444Y-29738414D01*
X31304951Y-29927820D01*
X31429890Y-30099786D01*
X31580213Y-30250109D01*
X31752182Y-30375050D01*
X31760946Y-30379516D01*
X31811742Y-30427491D01*
X31828536Y-30495312D01*
X31805998Y-30561447D01*
X31760946Y-30600484D01*
X31752182Y-30604949D01*
X31580213Y-30729890D01*
X31429890Y-30880213D01*
X31304951Y-31052179D01*
X31208444Y-31241585D01*
X31142753Y-31443760D01*
X31109500Y-31653713D01*
X31109500Y-31866286D01*
X31142753Y-32076239D01*
X31208444Y-32278414D01*
X31304951Y-32467820D01*
X31429890Y-32639786D01*
X31580213Y-32790109D01*
X31752182Y-32915050D01*
X31760946Y-32919516D01*
X31811742Y-32967491D01*
X31828536Y-33035312D01*
X31805998Y-33101447D01*
X31760946Y-33140484D01*
X31752182Y-33144949D01*
X31580213Y-33269890D01*
X31429890Y-33420213D01*
X31304951Y-33592179D01*
X31208444Y-33781585D01*
X31142753Y-33983760D01*
X31109500Y-34193713D01*
X31109500Y-34406286D01*
X31142753Y-34616239D01*
X31208444Y-34818414D01*
X31304951Y-35007820D01*
X31429890Y-35179786D01*
X31580213Y-35330109D01*
X31752182Y-35455050D01*
X31760946Y-35459516D01*
X31811742Y-35507491D01*
X31828536Y-35575312D01*
X31805998Y-35641447D01*
X31760946Y-35680484D01*
X31752182Y-35684949D01*
X31580213Y-35809890D01*
X31429890Y-35960213D01*
X31304951Y-36132179D01*
X31208444Y-36321585D01*
X31142753Y-36523760D01*
X31109500Y-36733713D01*
X31109500Y-36946286D01*
X31142753Y-37156239D01*
X31208444Y-37358414D01*
X31304951Y-37547820D01*
X31429890Y-37719786D01*
X31580213Y-37870109D01*
X31752179Y-37995048D01*
X31752181Y-37995049D01*
X31752184Y-37995051D01*
X31761493Y-37999794D01*
X31812290Y-38047766D01*
X31829087Y-38115587D01*
X31806552Y-38181722D01*
X31761505Y-38220760D01*
X31752446Y-38225376D01*
X31752440Y-38225380D01*
X31698282Y-38264727D01*
X31698282Y-38264728D01*
X32330591Y-38897037D01*
X32267007Y-38914075D01*
X32152993Y-38979901D01*
X32059901Y-39072993D01*
X31994075Y-39187007D01*
X31977037Y-39250591D01*
X31344728Y-38618282D01*
X31344727Y-38618282D01*
X31305380Y-38672439D01*
X31208904Y-38861782D01*
X31143242Y-39063869D01*
X31143242Y-39063872D01*
X31110000Y-39273753D01*
X31110000Y-39486246D01*
X31143242Y-39696127D01*
X31143242Y-39696130D01*
X31208904Y-39898217D01*
X31305375Y-40087550D01*
X31344728Y-40141716D01*
X31977037Y-39509408D01*
X31994075Y-39572993D01*
X32059901Y-39687007D01*
X32152993Y-39780099D01*
X32267007Y-39845925D01*
X32330591Y-39862962D01*
X31729971Y-40463581D01*
X31808711Y-40580895D01*
X31809920Y-40584729D01*
X31812844Y-40587491D01*
X31820343Y-40617778D01*
X31829727Y-40647529D01*
X31828671Y-40651408D01*
X31829638Y-40655312D01*
X31819573Y-40684844D01*
X31811383Y-40714947D01*
X31808397Y-40717640D01*
X31807100Y-40721447D01*
X31762051Y-40760483D01*
X31752440Y-40765380D01*
X31698282Y-40804727D01*
X31698282Y-40804728D01*
X32330591Y-41437037D01*
X32267007Y-41454075D01*
X32152993Y-41519901D01*
X32059901Y-41612993D01*
X31994075Y-41727007D01*
X31977037Y-41790591D01*
X31344728Y-41158282D01*
X31344727Y-41158282D01*
X31305380Y-41212439D01*
X31208904Y-41401782D01*
X31143242Y-41603869D01*
X31143242Y-41603872D01*
X31110000Y-41813753D01*
X31110000Y-42026246D01*
X31143242Y-42236127D01*
X31143242Y-42236130D01*
X31208904Y-42438217D01*
X31305375Y-42627550D01*
X31344728Y-42681716D01*
X31977037Y-42049408D01*
X31994075Y-42112993D01*
X32059901Y-42227007D01*
X32152993Y-42320099D01*
X32267007Y-42385925D01*
X32330591Y-42402962D01*
X31729971Y-43003581D01*
X31808711Y-43120895D01*
X31809920Y-43124729D01*
X31812844Y-43127491D01*
X31820343Y-43157778D01*
X31829727Y-43187529D01*
X31828671Y-43191408D01*
X31829638Y-43195312D01*
X31819573Y-43224844D01*
X31811383Y-43254947D01*
X31808397Y-43257640D01*
X31807100Y-43261447D01*
X31762051Y-43300483D01*
X31752440Y-43305380D01*
X31698282Y-43344727D01*
X31698282Y-43344728D01*
X32330591Y-43977037D01*
X32267007Y-43994075D01*
X32152993Y-44059901D01*
X32059901Y-44152993D01*
X31994075Y-44267007D01*
X31977037Y-44330591D01*
X31344728Y-43698282D01*
X31344727Y-43698282D01*
X31305380Y-43752439D01*
X31208904Y-43941782D01*
X31143242Y-44143869D01*
X31143242Y-44143872D01*
X31110000Y-44353753D01*
X31110000Y-44566246D01*
X31143242Y-44776127D01*
X31143242Y-44776130D01*
X31208904Y-44978217D01*
X31305375Y-45167550D01*
X31344728Y-45221716D01*
X31977037Y-44589408D01*
X31994075Y-44652993D01*
X32059901Y-44767007D01*
X32152993Y-44860099D01*
X32267007Y-44925925D01*
X32330590Y-44942962D01*
X31698282Y-45575269D01*
X31698282Y-45575270D01*
X31752452Y-45614626D01*
X31752451Y-45614626D01*
X31761495Y-45619234D01*
X31812292Y-45667208D01*
X31829087Y-45735029D01*
X31806550Y-45801164D01*
X31761499Y-45840202D01*
X31752182Y-45844949D01*
X31580213Y-45969890D01*
X31429890Y-46120213D01*
X31304951Y-46292179D01*
X31208444Y-46481585D01*
X31142753Y-46683760D01*
X31109500Y-46893713D01*
X31109500Y-47106286D01*
X31142753Y-47316239D01*
X31208444Y-47518414D01*
X31304951Y-47707820D01*
X31429890Y-47879786D01*
X31580213Y-48030109D01*
X31752179Y-48155048D01*
X31752181Y-48155049D01*
X31752184Y-48155051D01*
X31941588Y-48251557D01*
X32143757Y-48317246D01*
X32353713Y-48350500D01*
X32353714Y-48350500D01*
X32566286Y-48350500D01*
X32566287Y-48350500D01*
X32776243Y-48317246D01*
X32978412Y-48251557D01*
X33167816Y-48155051D01*
X33189789Y-48139086D01*
X33339786Y-48030109D01*
X33339788Y-48030106D01*
X33339792Y-48030104D01*
X33490104Y-47879792D01*
X33493660Y-47874896D01*
X33548987Y-47832230D01*
X33618600Y-47826248D01*
X33680397Y-47858851D01*
X33711686Y-47908772D01*
X33715186Y-47919334D01*
X33807288Y-48068656D01*
X33931344Y-48192712D01*
X34080666Y-48284814D01*
X34247203Y-48339999D01*
X34349991Y-48350500D01*
X35650008Y-48350499D01*
X35752797Y-48339999D01*
X35919334Y-48284814D01*
X36068656Y-48192712D01*
X36192712Y-48068656D01*
X36284814Y-47919334D01*
X36339999Y-47752797D01*
X36350500Y-47650009D01*
X36350499Y-46349992D01*
X36339999Y-46247203D01*
X36284814Y-46080666D01*
X36192712Y-45931344D01*
X36068656Y-45807288D01*
X35919334Y-45715186D01*
X35847228Y-45691292D01*
X35789784Y-45651520D01*
X35762961Y-45587004D01*
X35762801Y-45576354D01*
X35129408Y-44942962D01*
X35192993Y-44925925D01*
X35307007Y-44860099D01*
X35400099Y-44767007D01*
X35465925Y-44652993D01*
X35482962Y-44589408D01*
X36115270Y-45221717D01*
X36115270Y-45221716D01*
X36154622Y-45167554D01*
X36251095Y-44978217D01*
X36316757Y-44776130D01*
X36316757Y-44776127D01*
X36350000Y-44566246D01*
X36350000Y-44353753D01*
X36316757Y-44143872D01*
X36316757Y-44143869D01*
X36251095Y-43941782D01*
X36154624Y-43752449D01*
X36115270Y-43698282D01*
X36115269Y-43698282D01*
X35482962Y-44330590D01*
X35465925Y-44267007D01*
X35400099Y-44152993D01*
X35307007Y-44059901D01*
X35192993Y-43994075D01*
X35129409Y-43977037D01*
X35761716Y-43344728D01*
X35707550Y-43305375D01*
X35697954Y-43300486D01*
X35647157Y-43252512D01*
X35630361Y-43184692D01*
X35651288Y-43120895D01*
X35730027Y-43003581D01*
X35129408Y-42402962D01*
X35192993Y-42385925D01*
X35307007Y-42320099D01*
X35400099Y-42227007D01*
X35465925Y-42112993D01*
X35482962Y-42049408D01*
X36115270Y-42681717D01*
X36115270Y-42681716D01*
X36154622Y-42627554D01*
X36251095Y-42438217D01*
X36316757Y-42236130D01*
X36316757Y-42236127D01*
X36350000Y-42026246D01*
X36350000Y-41813753D01*
X36316757Y-41603872D01*
X36316757Y-41603869D01*
X36251095Y-41401782D01*
X36154624Y-41212449D01*
X36115270Y-41158282D01*
X36115269Y-41158282D01*
X35482962Y-41790590D01*
X35465925Y-41727007D01*
X35400099Y-41612993D01*
X35307007Y-41519901D01*
X35192993Y-41454075D01*
X35129409Y-41437037D01*
X35761716Y-40804728D01*
X35707550Y-40765375D01*
X35697954Y-40760486D01*
X35647157Y-40712512D01*
X35630361Y-40644692D01*
X35651288Y-40580895D01*
X35730027Y-40463581D01*
X35129408Y-39862962D01*
X35192993Y-39845925D01*
X35307007Y-39780099D01*
X35400099Y-39687007D01*
X35465925Y-39572993D01*
X35482962Y-39509408D01*
X36115270Y-40141717D01*
X36115270Y-40141716D01*
X36154622Y-40087554D01*
X36251095Y-39898217D01*
X36316757Y-39696130D01*
X36316757Y-39696127D01*
X36350000Y-39486246D01*
X36350000Y-39273753D01*
X36316757Y-39063872D01*
X36316757Y-39063869D01*
X36251095Y-38861782D01*
X36154624Y-38672449D01*
X36115270Y-38618282D01*
X36115269Y-38618282D01*
X35482962Y-39250590D01*
X35465925Y-39187007D01*
X35400099Y-39072993D01*
X35307007Y-38979901D01*
X35192993Y-38914075D01*
X35129409Y-38897037D01*
X35761716Y-38264728D01*
X35707547Y-38225373D01*
X35707547Y-38225372D01*
X35698500Y-38220763D01*
X35647706Y-38172788D01*
X35630912Y-38104966D01*
X35653451Y-38038832D01*
X35698508Y-37999793D01*
X35707816Y-37995051D01*
X35787007Y-37937515D01*
X35879786Y-37870109D01*
X35879788Y-37870106D01*
X35879792Y-37870104D01*
X36030104Y-37719792D01*
X36030106Y-37719788D01*
X36030109Y-37719786D01*
X36155048Y-37547820D01*
X36155047Y-37547820D01*
X36155051Y-37547816D01*
X36251557Y-37358412D01*
X36317246Y-37156243D01*
X36350500Y-36946287D01*
X36350500Y-36733713D01*
X36317246Y-36523757D01*
X36251557Y-36321588D01*
X36155051Y-36132184D01*
X36155049Y-36132181D01*
X36155048Y-36132179D01*
X36030109Y-35960213D01*
X35879786Y-35809890D01*
X35707820Y-35684951D01*
X35707115Y-35684591D01*
X35699054Y-35680485D01*
X35648259Y-35632512D01*
X35631463Y-35564692D01*
X35653999Y-35498556D01*
X35699054Y-35459515D01*
X35707816Y-35455051D01*
X35729789Y-35439086D01*
X35879786Y-35330109D01*
X35879788Y-35330106D01*
X35879792Y-35330104D01*
X36030104Y-35179792D01*
X36030106Y-35179788D01*
X36030109Y-35179786D01*
X36155048Y-35007820D01*
X36155047Y-35007820D01*
X36155051Y-35007816D01*
X36251557Y-34818412D01*
X36317246Y-34616243D01*
X36350500Y-34406287D01*
X36350500Y-34193713D01*
X36317246Y-33983757D01*
X36251557Y-33781588D01*
X36155051Y-33592184D01*
X36155049Y-33592181D01*
X36155048Y-33592179D01*
X36030109Y-33420213D01*
X35879786Y-33269890D01*
X35707820Y-33144951D01*
X35707115Y-33144591D01*
X35699054Y-33140485D01*
X35648259Y-33092512D01*
X35631463Y-33024692D01*
X35653999Y-32958556D01*
X35699054Y-32919515D01*
X35707816Y-32915051D01*
X35729789Y-32899086D01*
X35879786Y-32790109D01*
X35879788Y-32790106D01*
X35879792Y-32790104D01*
X36030104Y-32639792D01*
X36030106Y-32639788D01*
X36030109Y-32639786D01*
X36155048Y-32467820D01*
X36155047Y-32467820D01*
X36155051Y-32467816D01*
X36251557Y-32278412D01*
X36317246Y-32076243D01*
X36350500Y-31866287D01*
X36350500Y-31653713D01*
X36317246Y-31443757D01*
X36251557Y-31241588D01*
X36155051Y-31052184D01*
X36155049Y-31052181D01*
X36155048Y-31052179D01*
X36030109Y-30880213D01*
X35879786Y-30729890D01*
X35707820Y-30604951D01*
X35707115Y-30604591D01*
X35699054Y-30600485D01*
X35648259Y-30552512D01*
X35631463Y-30484692D01*
X35653999Y-30418556D01*
X35699054Y-30379515D01*
X35707816Y-30375051D01*
X35729789Y-30359086D01*
X35879786Y-30250109D01*
X35879788Y-30250106D01*
X35879792Y-30250104D01*
X36030104Y-30099792D01*
X36030106Y-30099788D01*
X36030109Y-30099786D01*
X36155048Y-29927820D01*
X36155047Y-29927820D01*
X36155051Y-29927816D01*
X36251557Y-29738412D01*
X36317246Y-29536243D01*
X36350500Y-29326287D01*
X36350500Y-29113713D01*
X49109500Y-29113713D01*
X49109500Y-29326286D01*
X49142753Y-29536239D01*
X49208444Y-29738414D01*
X49304951Y-29927820D01*
X49429890Y-30099786D01*
X49580213Y-30250109D01*
X49752182Y-30375050D01*
X49760946Y-30379516D01*
X49811742Y-30427491D01*
X49828536Y-30495312D01*
X49805998Y-30561447D01*
X49760946Y-30600484D01*
X49752182Y-30604949D01*
X49580213Y-30729890D01*
X49429890Y-30880213D01*
X49304951Y-31052179D01*
X49208444Y-31241585D01*
X49142753Y-31443760D01*
X49109500Y-31653713D01*
X49109500Y-31866286D01*
X49142753Y-32076239D01*
X49208444Y-32278414D01*
X49304951Y-32467820D01*
X49429890Y-32639786D01*
X49580213Y-32790109D01*
X49752182Y-32915050D01*
X49760946Y-32919516D01*
X49811742Y-32967491D01*
X49828536Y-33035312D01*
X49805998Y-33101447D01*
X49760946Y-33140484D01*
X49752182Y-33144949D01*
X49580213Y-33269890D01*
X49429890Y-33420213D01*
X49304951Y-33592179D01*
X49208444Y-33781585D01*
X49142753Y-33983760D01*
X49109500Y-34193713D01*
X49109500Y-34406286D01*
X49142753Y-34616239D01*
X49208444Y-34818414D01*
X49304951Y-35007820D01*
X49429890Y-35179786D01*
X49580213Y-35330109D01*
X49752182Y-35455050D01*
X49760946Y-35459516D01*
X49811742Y-35507491D01*
X49828536Y-35575312D01*
X49805998Y-35641447D01*
X49760946Y-35680484D01*
X49752182Y-35684949D01*
X49580213Y-35809890D01*
X49429890Y-35960213D01*
X49304951Y-36132179D01*
X49208444Y-36321585D01*
X49142753Y-36523760D01*
X49109500Y-36733713D01*
X49109500Y-36946286D01*
X49142753Y-37156239D01*
X49208444Y-37358414D01*
X49304951Y-37547820D01*
X49429890Y-37719786D01*
X49580213Y-37870109D01*
X49752179Y-37995048D01*
X49752181Y-37995049D01*
X49752184Y-37995051D01*
X49761493Y-37999794D01*
X49812290Y-38047766D01*
X49829087Y-38115587D01*
X49806552Y-38181722D01*
X49761505Y-38220760D01*
X49752446Y-38225376D01*
X49752440Y-38225380D01*
X49698282Y-38264727D01*
X49698282Y-38264728D01*
X50330591Y-38897037D01*
X50267007Y-38914075D01*
X50152993Y-38979901D01*
X50059901Y-39072993D01*
X49994075Y-39187007D01*
X49977037Y-39250591D01*
X49344728Y-38618282D01*
X49344727Y-38618282D01*
X49305380Y-38672439D01*
X49208904Y-38861782D01*
X49143242Y-39063869D01*
X49143242Y-39063872D01*
X49110000Y-39273753D01*
X49110000Y-39486246D01*
X49143242Y-39696127D01*
X49143242Y-39696130D01*
X49208904Y-39898217D01*
X49305375Y-40087550D01*
X49344728Y-40141716D01*
X49977037Y-39509408D01*
X49994075Y-39572993D01*
X50059901Y-39687007D01*
X50152993Y-39780099D01*
X50267007Y-39845925D01*
X50330590Y-39862962D01*
X49698282Y-40495269D01*
X49698282Y-40495270D01*
X49752452Y-40534626D01*
X49762048Y-40539516D01*
X49812844Y-40587491D01*
X49829638Y-40655312D01*
X49807100Y-40721447D01*
X49762051Y-40760483D01*
X49752440Y-40765380D01*
X49698282Y-40804727D01*
X49698282Y-40804728D01*
X50330591Y-41437037D01*
X50267007Y-41454075D01*
X50152993Y-41519901D01*
X50059901Y-41612993D01*
X49994075Y-41727007D01*
X49977037Y-41790591D01*
X49344728Y-41158282D01*
X49344727Y-41158282D01*
X49305380Y-41212439D01*
X49208904Y-41401782D01*
X49143242Y-41603869D01*
X49143242Y-41603872D01*
X49110000Y-41813753D01*
X49110000Y-42026246D01*
X49143242Y-42236127D01*
X49143242Y-42236130D01*
X49208904Y-42438217D01*
X49305375Y-42627550D01*
X49344728Y-42681716D01*
X49977037Y-42049408D01*
X49994075Y-42112993D01*
X50059901Y-42227007D01*
X50152993Y-42320099D01*
X50267007Y-42385925D01*
X50330590Y-42402962D01*
X49698282Y-43035269D01*
X49698282Y-43035270D01*
X49752452Y-43074626D01*
X49762048Y-43079516D01*
X49812844Y-43127491D01*
X49829638Y-43195312D01*
X49807100Y-43261447D01*
X49762051Y-43300483D01*
X49752440Y-43305380D01*
X49698282Y-43344727D01*
X49698282Y-43344728D01*
X50330591Y-43977037D01*
X50267007Y-43994075D01*
X50152993Y-44059901D01*
X50059901Y-44152993D01*
X49994075Y-44267007D01*
X49977037Y-44330591D01*
X49344728Y-43698282D01*
X49344727Y-43698282D01*
X49305380Y-43752439D01*
X49208904Y-43941782D01*
X49143242Y-44143869D01*
X49143242Y-44143872D01*
X49110000Y-44353753D01*
X49110000Y-44566246D01*
X49143242Y-44776127D01*
X49143242Y-44776130D01*
X49208904Y-44978217D01*
X49305375Y-45167550D01*
X49344728Y-45221716D01*
X49977037Y-44589408D01*
X49994075Y-44652993D01*
X50059901Y-44767007D01*
X50152993Y-44860099D01*
X50267007Y-44925925D01*
X50330590Y-44942962D01*
X49698282Y-45575269D01*
X49698282Y-45575270D01*
X49752452Y-45614626D01*
X49752451Y-45614626D01*
X49761495Y-45619234D01*
X49812292Y-45667208D01*
X49829087Y-45735029D01*
X49806550Y-45801164D01*
X49761499Y-45840202D01*
X49752182Y-45844949D01*
X49580213Y-45969890D01*
X49429890Y-46120213D01*
X49304951Y-46292179D01*
X49208444Y-46481585D01*
X49142753Y-46683760D01*
X49109500Y-46893713D01*
X49109500Y-47106286D01*
X49142753Y-47316239D01*
X49208444Y-47518414D01*
X49304951Y-47707820D01*
X49429890Y-47879786D01*
X49580213Y-48030109D01*
X49752179Y-48155048D01*
X49752181Y-48155049D01*
X49752184Y-48155051D01*
X49941588Y-48251557D01*
X50143757Y-48317246D01*
X50353713Y-48350500D01*
X50353714Y-48350500D01*
X50566286Y-48350500D01*
X50566287Y-48350500D01*
X50776243Y-48317246D01*
X50978412Y-48251557D01*
X51167816Y-48155051D01*
X51189789Y-48139086D01*
X51339786Y-48030109D01*
X51339788Y-48030106D01*
X51339792Y-48030104D01*
X51490104Y-47879792D01*
X51493660Y-47874896D01*
X51548987Y-47832230D01*
X51618600Y-47826248D01*
X51680397Y-47858851D01*
X51711686Y-47908772D01*
X51715186Y-47919334D01*
X51807288Y-48068656D01*
X51931344Y-48192712D01*
X52080666Y-48284814D01*
X52247203Y-48339999D01*
X52349991Y-48350500D01*
X53650008Y-48350499D01*
X53752797Y-48339999D01*
X53919334Y-48284814D01*
X54068656Y-48192712D01*
X54192712Y-48068656D01*
X54284814Y-47919334D01*
X54339999Y-47752797D01*
X54350500Y-47650009D01*
X54350499Y-46349992D01*
X54339999Y-46247203D01*
X54284814Y-46080666D01*
X54192712Y-45931344D01*
X54068656Y-45807288D01*
X53919334Y-45715186D01*
X53847228Y-45691292D01*
X53789784Y-45651520D01*
X53762961Y-45587004D01*
X53762801Y-45576354D01*
X53129408Y-44942962D01*
X53192993Y-44925925D01*
X53307007Y-44860099D01*
X53400099Y-44767007D01*
X53465925Y-44652993D01*
X53482962Y-44589408D01*
X54115270Y-45221717D01*
X54115270Y-45221716D01*
X54154622Y-45167554D01*
X54251095Y-44978217D01*
X54316757Y-44776130D01*
X54316757Y-44776127D01*
X54350000Y-44566246D01*
X54350000Y-44353753D01*
X54316757Y-44143872D01*
X54316757Y-44143869D01*
X54251095Y-43941782D01*
X54154624Y-43752449D01*
X54115270Y-43698282D01*
X54115269Y-43698282D01*
X53482962Y-44330590D01*
X53465925Y-44267007D01*
X53400099Y-44152993D01*
X53307007Y-44059901D01*
X53192993Y-43994075D01*
X53129409Y-43977037D01*
X53761716Y-43344728D01*
X53707550Y-43305375D01*
X53697954Y-43300486D01*
X53647157Y-43252512D01*
X53630361Y-43184692D01*
X53651288Y-43120895D01*
X53730027Y-43003581D01*
X53129408Y-42402962D01*
X53192993Y-42385925D01*
X53307007Y-42320099D01*
X53400099Y-42227007D01*
X53465925Y-42112993D01*
X53482962Y-42049408D01*
X54115270Y-42681717D01*
X54115270Y-42681716D01*
X54154622Y-42627554D01*
X54251095Y-42438217D01*
X54316757Y-42236130D01*
X54316757Y-42236127D01*
X54350000Y-42026246D01*
X54350000Y-41813753D01*
X54316757Y-41603872D01*
X54316757Y-41603869D01*
X54251095Y-41401782D01*
X54154624Y-41212449D01*
X54115270Y-41158282D01*
X54115269Y-41158282D01*
X53482962Y-41790590D01*
X53465925Y-41727007D01*
X53400099Y-41612993D01*
X53307007Y-41519901D01*
X53192993Y-41454075D01*
X53129409Y-41437037D01*
X53761716Y-40804728D01*
X53707550Y-40765375D01*
X53697954Y-40760486D01*
X53647157Y-40712512D01*
X53630361Y-40644692D01*
X53651288Y-40580895D01*
X53730027Y-40463581D01*
X53129408Y-39862962D01*
X53192993Y-39845925D01*
X53307007Y-39780099D01*
X53400099Y-39687007D01*
X53465925Y-39572993D01*
X53482962Y-39509408D01*
X54115270Y-40141717D01*
X54115270Y-40141716D01*
X54154622Y-40087554D01*
X54251095Y-39898217D01*
X54316757Y-39696130D01*
X54316757Y-39696127D01*
X54350000Y-39486246D01*
X54350000Y-39273753D01*
X54316757Y-39063872D01*
X54316757Y-39063869D01*
X54251095Y-38861782D01*
X54154624Y-38672449D01*
X54115270Y-38618282D01*
X54115269Y-38618282D01*
X53482962Y-39250590D01*
X53465925Y-39187007D01*
X53400099Y-39072993D01*
X53307007Y-38979901D01*
X53192993Y-38914075D01*
X53129409Y-38897037D01*
X53761716Y-38264728D01*
X53707547Y-38225373D01*
X53707547Y-38225372D01*
X53698500Y-38220763D01*
X53647706Y-38172788D01*
X53630912Y-38104966D01*
X53653451Y-38038832D01*
X53698508Y-37999793D01*
X53707816Y-37995051D01*
X53787007Y-37937515D01*
X53879786Y-37870109D01*
X53879788Y-37870106D01*
X53879792Y-37870104D01*
X54030104Y-37719792D01*
X54030106Y-37719788D01*
X54030109Y-37719786D01*
X54155048Y-37547820D01*
X54155047Y-37547820D01*
X54155051Y-37547816D01*
X54251557Y-37358412D01*
X54317246Y-37156243D01*
X54350500Y-36946287D01*
X54350500Y-36733713D01*
X54317246Y-36523757D01*
X54251557Y-36321588D01*
X54155051Y-36132184D01*
X54155049Y-36132181D01*
X54155048Y-36132179D01*
X54030109Y-35960213D01*
X53879786Y-35809890D01*
X53707820Y-35684951D01*
X53707115Y-35684591D01*
X53699054Y-35680485D01*
X53648259Y-35632512D01*
X53631463Y-35564692D01*
X53653999Y-35498556D01*
X53699054Y-35459515D01*
X53707816Y-35455051D01*
X53729789Y-35439086D01*
X53879786Y-35330109D01*
X53879788Y-35330106D01*
X53879792Y-35330104D01*
X54030104Y-35179792D01*
X54030106Y-35179788D01*
X54030109Y-35179786D01*
X54155048Y-35007820D01*
X54155047Y-35007820D01*
X54155051Y-35007816D01*
X54251557Y-34818412D01*
X54317246Y-34616243D01*
X54350500Y-34406287D01*
X54350500Y-34193713D01*
X54317246Y-33983757D01*
X54251557Y-33781588D01*
X54155051Y-33592184D01*
X54155049Y-33592181D01*
X54155048Y-33592179D01*
X54030109Y-33420213D01*
X53879786Y-33269890D01*
X53707820Y-33144951D01*
X53707115Y-33144591D01*
X53699054Y-33140485D01*
X53648259Y-33092512D01*
X53631463Y-33024692D01*
X53653999Y-32958556D01*
X53699054Y-32919515D01*
X53707816Y-32915051D01*
X53729789Y-32899086D01*
X53879786Y-32790109D01*
X53879788Y-32790106D01*
X53879792Y-32790104D01*
X54030104Y-32639792D01*
X54030106Y-32639788D01*
X54030109Y-32639786D01*
X54155048Y-32467820D01*
X54155047Y-32467820D01*
X54155051Y-32467816D01*
X54251557Y-32278412D01*
X54317246Y-32076243D01*
X54350500Y-31866287D01*
X54350500Y-31653713D01*
X54317246Y-31443757D01*
X54251557Y-31241588D01*
X54155051Y-31052184D01*
X54155049Y-31052181D01*
X54155048Y-31052179D01*
X54030109Y-30880213D01*
X53879786Y-30729890D01*
X53707820Y-30604951D01*
X53707115Y-30604591D01*
X53699054Y-30600485D01*
X53648259Y-30552512D01*
X53631463Y-30484692D01*
X53653999Y-30418556D01*
X53699054Y-30379515D01*
X53707816Y-30375051D01*
X53729789Y-30359086D01*
X53879786Y-30250109D01*
X53879788Y-30250106D01*
X53879792Y-30250104D01*
X54030104Y-30099792D01*
X54030106Y-30099788D01*
X54030109Y-30099786D01*
X54155048Y-29927820D01*
X54155047Y-29927820D01*
X54155051Y-29927816D01*
X54251557Y-29738412D01*
X54317246Y-29536243D01*
X54350500Y-29326287D01*
X54350500Y-29113713D01*
X67109500Y-29113713D01*
X67109500Y-29326286D01*
X67142753Y-29536239D01*
X67208444Y-29738414D01*
X67304951Y-29927820D01*
X67429890Y-30099786D01*
X67580213Y-30250109D01*
X67752182Y-30375050D01*
X67760946Y-30379516D01*
X67811742Y-30427491D01*
X67828536Y-30495312D01*
X67805998Y-30561447D01*
X67760946Y-30600484D01*
X67752182Y-30604949D01*
X67580213Y-30729890D01*
X67429890Y-30880213D01*
X67304951Y-31052179D01*
X67208444Y-31241585D01*
X67142753Y-31443760D01*
X67109500Y-31653713D01*
X67109500Y-31866286D01*
X67142753Y-32076239D01*
X67208444Y-32278414D01*
X67304951Y-32467820D01*
X67429890Y-32639786D01*
X67580213Y-32790109D01*
X67752182Y-32915050D01*
X67760946Y-32919516D01*
X67811742Y-32967491D01*
X67828536Y-33035312D01*
X67805998Y-33101447D01*
X67760946Y-33140484D01*
X67752182Y-33144949D01*
X67580213Y-33269890D01*
X67429890Y-33420213D01*
X67304951Y-33592179D01*
X67208444Y-33781585D01*
X67142753Y-33983760D01*
X67109500Y-34193713D01*
X67109500Y-34406286D01*
X67142753Y-34616239D01*
X67208444Y-34818414D01*
X67304951Y-35007820D01*
X67429890Y-35179786D01*
X67580213Y-35330109D01*
X67752182Y-35455050D01*
X67760946Y-35459516D01*
X67811742Y-35507491D01*
X67828536Y-35575312D01*
X67805998Y-35641447D01*
X67760946Y-35680484D01*
X67752182Y-35684949D01*
X67580213Y-35809890D01*
X67429890Y-35960213D01*
X67304951Y-36132179D01*
X67208444Y-36321585D01*
X67142753Y-36523760D01*
X67109500Y-36733713D01*
X67109500Y-36946286D01*
X67142753Y-37156239D01*
X67208444Y-37358414D01*
X67304951Y-37547820D01*
X67429890Y-37719786D01*
X67580213Y-37870109D01*
X67752179Y-37995048D01*
X67752181Y-37995049D01*
X67752184Y-37995051D01*
X67761493Y-37999794D01*
X67812290Y-38047766D01*
X67829087Y-38115587D01*
X67806552Y-38181722D01*
X67761505Y-38220760D01*
X67752446Y-38225376D01*
X67752440Y-38225380D01*
X67698282Y-38264727D01*
X67698282Y-38264728D01*
X68330591Y-38897037D01*
X68267007Y-38914075D01*
X68152993Y-38979901D01*
X68059901Y-39072993D01*
X67994075Y-39187007D01*
X67977037Y-39250591D01*
X67344728Y-38618282D01*
X67344727Y-38618282D01*
X67305380Y-38672439D01*
X67208904Y-38861782D01*
X67143242Y-39063869D01*
X67143242Y-39063872D01*
X67110000Y-39273753D01*
X67110000Y-39486246D01*
X67143242Y-39696127D01*
X67143242Y-39696130D01*
X67208904Y-39898217D01*
X67305375Y-40087550D01*
X67344728Y-40141716D01*
X67977037Y-39509408D01*
X67994075Y-39572993D01*
X68059901Y-39687007D01*
X68152993Y-39780099D01*
X68267007Y-39845925D01*
X68330590Y-39862962D01*
X67698282Y-40495269D01*
X67698282Y-40495270D01*
X67752452Y-40534626D01*
X67762048Y-40539516D01*
X67812844Y-40587491D01*
X67829638Y-40655312D01*
X67807100Y-40721447D01*
X67762051Y-40760483D01*
X67752440Y-40765380D01*
X67698282Y-40804727D01*
X67698282Y-40804728D01*
X68330591Y-41437037D01*
X68267007Y-41454075D01*
X68152993Y-41519901D01*
X68059901Y-41612993D01*
X67994075Y-41727007D01*
X67977037Y-41790591D01*
X67344728Y-41158282D01*
X67344727Y-41158282D01*
X67305380Y-41212439D01*
X67208904Y-41401782D01*
X67143242Y-41603869D01*
X67143242Y-41603872D01*
X67110000Y-41813753D01*
X67110000Y-42026246D01*
X67143242Y-42236127D01*
X67143242Y-42236130D01*
X67208904Y-42438217D01*
X67305375Y-42627550D01*
X67344728Y-42681716D01*
X67977037Y-42049408D01*
X67994075Y-42112993D01*
X68059901Y-42227007D01*
X68152993Y-42320099D01*
X68267007Y-42385925D01*
X68330590Y-42402962D01*
X67698282Y-43035269D01*
X67698282Y-43035270D01*
X67752452Y-43074626D01*
X67762048Y-43079516D01*
X67812844Y-43127491D01*
X67829638Y-43195312D01*
X67807100Y-43261447D01*
X67762051Y-43300483D01*
X67752440Y-43305380D01*
X67698282Y-43344727D01*
X67698282Y-43344728D01*
X68330591Y-43977037D01*
X68267007Y-43994075D01*
X68152993Y-44059901D01*
X68059901Y-44152993D01*
X67994075Y-44267007D01*
X67977037Y-44330591D01*
X67344728Y-43698282D01*
X67344727Y-43698282D01*
X67305380Y-43752439D01*
X67208904Y-43941782D01*
X67143242Y-44143869D01*
X67143242Y-44143872D01*
X67110000Y-44353753D01*
X67110000Y-44566246D01*
X67143242Y-44776127D01*
X67143242Y-44776130D01*
X67208904Y-44978217D01*
X67305375Y-45167550D01*
X67344728Y-45221716D01*
X67977037Y-44589408D01*
X67994075Y-44652993D01*
X68059901Y-44767007D01*
X68152993Y-44860099D01*
X68267007Y-44925925D01*
X68330590Y-44942962D01*
X67698282Y-45575269D01*
X67698282Y-45575270D01*
X67752452Y-45614626D01*
X67752451Y-45614626D01*
X67761495Y-45619234D01*
X67812292Y-45667208D01*
X67829087Y-45735029D01*
X67806550Y-45801164D01*
X67761499Y-45840202D01*
X67752182Y-45844949D01*
X67580213Y-45969890D01*
X67429890Y-46120213D01*
X67304951Y-46292179D01*
X67208444Y-46481585D01*
X67142753Y-46683760D01*
X67109500Y-46893713D01*
X67109500Y-47106286D01*
X67142753Y-47316239D01*
X67208444Y-47518414D01*
X67304951Y-47707820D01*
X67429890Y-47879786D01*
X67580213Y-48030109D01*
X67752179Y-48155048D01*
X67752181Y-48155049D01*
X67752184Y-48155051D01*
X67941588Y-48251557D01*
X68143757Y-48317246D01*
X68353713Y-48350500D01*
X68353714Y-48350500D01*
X68566286Y-48350500D01*
X68566287Y-48350500D01*
X68776243Y-48317246D01*
X68978412Y-48251557D01*
X69167816Y-48155051D01*
X69189789Y-48139086D01*
X69339786Y-48030109D01*
X69339788Y-48030106D01*
X69339792Y-48030104D01*
X69490104Y-47879792D01*
X69493660Y-47874896D01*
X69548987Y-47832230D01*
X69618600Y-47826248D01*
X69680397Y-47858851D01*
X69711686Y-47908772D01*
X69715186Y-47919334D01*
X69807288Y-48068656D01*
X69931344Y-48192712D01*
X70080666Y-48284814D01*
X70247203Y-48339999D01*
X70349991Y-48350500D01*
X71650008Y-48350499D01*
X71752797Y-48339999D01*
X71919334Y-48284814D01*
X72068656Y-48192712D01*
X72192712Y-48068656D01*
X72284814Y-47919334D01*
X72339999Y-47752797D01*
X72350500Y-47650009D01*
X72350499Y-46349992D01*
X72339999Y-46247203D01*
X72284814Y-46080666D01*
X72192712Y-45931344D01*
X72068656Y-45807288D01*
X71919334Y-45715186D01*
X71847228Y-45691292D01*
X71789784Y-45651520D01*
X71762961Y-45587004D01*
X71762801Y-45576354D01*
X71129408Y-44942962D01*
X71192993Y-44925925D01*
X71307007Y-44860099D01*
X71400099Y-44767007D01*
X71465925Y-44652993D01*
X71482962Y-44589409D01*
X72115270Y-45221717D01*
X72115270Y-45221716D01*
X72154622Y-45167554D01*
X72251095Y-44978217D01*
X72316757Y-44776130D01*
X72316757Y-44776127D01*
X72350000Y-44566246D01*
X72350000Y-44353753D01*
X72316757Y-44143872D01*
X72316757Y-44143869D01*
X72251095Y-43941782D01*
X72154624Y-43752449D01*
X72115270Y-43698282D01*
X72115269Y-43698282D01*
X71482962Y-44330590D01*
X71465925Y-44267007D01*
X71400099Y-44152993D01*
X71307007Y-44059901D01*
X71192993Y-43994075D01*
X71129409Y-43977037D01*
X71761716Y-43344728D01*
X71707550Y-43305375D01*
X71697954Y-43300486D01*
X71647157Y-43252512D01*
X71630361Y-43184692D01*
X71651288Y-43120895D01*
X71730027Y-43003581D01*
X71129408Y-42402962D01*
X71192993Y-42385925D01*
X71307007Y-42320099D01*
X71400099Y-42227007D01*
X71465925Y-42112993D01*
X71482962Y-42049409D01*
X72115270Y-42681717D01*
X72115270Y-42681716D01*
X72154622Y-42627554D01*
X72251095Y-42438217D01*
X72316757Y-42236130D01*
X72316757Y-42236127D01*
X72350000Y-42026246D01*
X72350000Y-41813753D01*
X72316757Y-41603872D01*
X72316757Y-41603869D01*
X72251095Y-41401782D01*
X72154624Y-41212449D01*
X72115270Y-41158282D01*
X72115269Y-41158282D01*
X71482962Y-41790590D01*
X71465925Y-41727007D01*
X71400099Y-41612993D01*
X71307007Y-41519901D01*
X71192993Y-41454075D01*
X71129409Y-41437037D01*
X71761716Y-40804728D01*
X71707550Y-40765375D01*
X71697954Y-40760486D01*
X71647157Y-40712512D01*
X71630361Y-40644692D01*
X71651288Y-40580895D01*
X71730027Y-40463581D01*
X71129408Y-39862962D01*
X71192993Y-39845925D01*
X71307007Y-39780099D01*
X71400099Y-39687007D01*
X71465925Y-39572993D01*
X71482962Y-39509409D01*
X72115270Y-40141717D01*
X72115270Y-40141716D01*
X72154622Y-40087554D01*
X72251095Y-39898217D01*
X72316757Y-39696130D01*
X72316757Y-39696127D01*
X72350000Y-39486246D01*
X72350000Y-39273753D01*
X72316757Y-39063872D01*
X72316757Y-39063869D01*
X72251095Y-38861782D01*
X72154624Y-38672449D01*
X72115270Y-38618282D01*
X72115269Y-38618282D01*
X71482962Y-39250590D01*
X71465925Y-39187007D01*
X71400099Y-39072993D01*
X71307007Y-38979901D01*
X71192993Y-38914075D01*
X71129409Y-38897037D01*
X71761716Y-38264728D01*
X71707547Y-38225373D01*
X71707547Y-38225372D01*
X71698500Y-38220763D01*
X71647706Y-38172788D01*
X71630912Y-38104966D01*
X71653451Y-38038832D01*
X71698508Y-37999793D01*
X71707816Y-37995051D01*
X71787007Y-37937515D01*
X71879786Y-37870109D01*
X71879788Y-37870106D01*
X71879792Y-37870104D01*
X72030104Y-37719792D01*
X72030106Y-37719788D01*
X72030109Y-37719786D01*
X72155048Y-37547820D01*
X72155047Y-37547820D01*
X72155051Y-37547816D01*
X72251557Y-37358412D01*
X72317246Y-37156243D01*
X72350500Y-36946287D01*
X72350500Y-36733713D01*
X72317246Y-36523757D01*
X72251557Y-36321588D01*
X72155051Y-36132184D01*
X72155049Y-36132181D01*
X72155048Y-36132179D01*
X72030109Y-35960213D01*
X71879786Y-35809890D01*
X71707820Y-35684951D01*
X71707115Y-35684591D01*
X71699054Y-35680485D01*
X71648259Y-35632512D01*
X71631463Y-35564692D01*
X71653999Y-35498556D01*
X71699054Y-35459515D01*
X71707816Y-35455051D01*
X71729789Y-35439086D01*
X71879786Y-35330109D01*
X71879788Y-35330106D01*
X71879792Y-35330104D01*
X72030104Y-35179792D01*
X72030106Y-35179788D01*
X72030109Y-35179786D01*
X72155048Y-35007820D01*
X72155047Y-35007820D01*
X72155051Y-35007816D01*
X72251557Y-34818412D01*
X72317246Y-34616243D01*
X72350500Y-34406287D01*
X72350500Y-34193713D01*
X72317246Y-33983757D01*
X72251557Y-33781588D01*
X72155051Y-33592184D01*
X72155049Y-33592181D01*
X72155048Y-33592179D01*
X72030109Y-33420213D01*
X71879786Y-33269890D01*
X71707820Y-33144951D01*
X71707115Y-33144591D01*
X71699054Y-33140485D01*
X71648259Y-33092512D01*
X71631463Y-33024692D01*
X71653999Y-32958556D01*
X71699054Y-32919515D01*
X71707816Y-32915051D01*
X71729789Y-32899086D01*
X71879786Y-32790109D01*
X71879788Y-32790106D01*
X71879792Y-32790104D01*
X72030104Y-32639792D01*
X72030106Y-32639788D01*
X72030109Y-32639786D01*
X72155048Y-32467820D01*
X72155047Y-32467820D01*
X72155051Y-32467816D01*
X72251557Y-32278412D01*
X72317246Y-32076243D01*
X72350500Y-31866287D01*
X72350500Y-31653713D01*
X72317246Y-31443757D01*
X72251557Y-31241588D01*
X72155051Y-31052184D01*
X72155049Y-31052181D01*
X72155048Y-31052179D01*
X72030109Y-30880213D01*
X71879786Y-30729890D01*
X71707820Y-30604951D01*
X71707115Y-30604591D01*
X71699054Y-30600485D01*
X71648259Y-30552512D01*
X71631463Y-30484692D01*
X71653999Y-30418556D01*
X71699054Y-30379515D01*
X71707816Y-30375051D01*
X71729789Y-30359086D01*
X71879786Y-30250109D01*
X71879788Y-30250106D01*
X71879792Y-30250104D01*
X72030104Y-30099792D01*
X72030106Y-30099788D01*
X72030109Y-30099786D01*
X72155048Y-29927820D01*
X72155047Y-29927820D01*
X72155051Y-29927816D01*
X72251557Y-29738412D01*
X72317246Y-29536243D01*
X72350500Y-29326287D01*
X72350500Y-29113713D01*
X85109500Y-29113713D01*
X85109500Y-29326286D01*
X85142753Y-29536239D01*
X85208444Y-29738414D01*
X85304951Y-29927820D01*
X85429890Y-30099786D01*
X85580213Y-30250109D01*
X85752182Y-30375050D01*
X85760946Y-30379516D01*
X85811742Y-30427491D01*
X85828536Y-30495312D01*
X85805998Y-30561447D01*
X85760946Y-30600484D01*
X85752182Y-30604949D01*
X85580213Y-30729890D01*
X85429890Y-30880213D01*
X85304951Y-31052179D01*
X85208444Y-31241585D01*
X85142753Y-31443760D01*
X85109500Y-31653713D01*
X85109500Y-31866286D01*
X85142753Y-32076239D01*
X85208444Y-32278414D01*
X85304951Y-32467820D01*
X85429890Y-32639786D01*
X85580213Y-32790109D01*
X85752182Y-32915050D01*
X85760946Y-32919516D01*
X85811742Y-32967491D01*
X85828536Y-33035312D01*
X85805998Y-33101447D01*
X85760946Y-33140484D01*
X85752182Y-33144949D01*
X85580213Y-33269890D01*
X85429890Y-33420213D01*
X85304951Y-33592179D01*
X85208444Y-33781585D01*
X85142753Y-33983760D01*
X85109500Y-34193713D01*
X85109500Y-34406286D01*
X85142753Y-34616239D01*
X85208444Y-34818414D01*
X85304951Y-35007820D01*
X85429890Y-35179786D01*
X85580213Y-35330109D01*
X85752182Y-35455050D01*
X85760946Y-35459516D01*
X85811742Y-35507491D01*
X85828536Y-35575312D01*
X85805998Y-35641447D01*
X85760946Y-35680484D01*
X85752182Y-35684949D01*
X85580213Y-35809890D01*
X85429890Y-35960213D01*
X85304951Y-36132179D01*
X85208444Y-36321585D01*
X85142753Y-36523760D01*
X85109500Y-36733713D01*
X85109500Y-36946286D01*
X85142753Y-37156239D01*
X85208444Y-37358414D01*
X85304951Y-37547820D01*
X85429890Y-37719786D01*
X85580213Y-37870109D01*
X85752179Y-37995048D01*
X85752181Y-37995049D01*
X85752184Y-37995051D01*
X85761493Y-37999794D01*
X85812290Y-38047766D01*
X85829087Y-38115587D01*
X85806552Y-38181722D01*
X85761505Y-38220760D01*
X85752446Y-38225376D01*
X85752440Y-38225380D01*
X85698282Y-38264727D01*
X85698282Y-38264728D01*
X86330591Y-38897037D01*
X86267007Y-38914075D01*
X86152993Y-38979901D01*
X86059901Y-39072993D01*
X85994075Y-39187007D01*
X85977037Y-39250591D01*
X85344728Y-38618282D01*
X85344727Y-38618282D01*
X85305380Y-38672439D01*
X85208904Y-38861782D01*
X85143242Y-39063869D01*
X85143242Y-39063872D01*
X85110000Y-39273753D01*
X85110000Y-39486246D01*
X85143242Y-39696127D01*
X85143242Y-39696130D01*
X85208904Y-39898217D01*
X85305375Y-40087550D01*
X85344728Y-40141716D01*
X85977037Y-39509408D01*
X85994075Y-39572993D01*
X86059901Y-39687007D01*
X86152993Y-39780099D01*
X86267007Y-39845925D01*
X86330590Y-39862962D01*
X85698282Y-40495269D01*
X85698282Y-40495270D01*
X85752452Y-40534626D01*
X85762048Y-40539516D01*
X85812844Y-40587491D01*
X85829638Y-40655312D01*
X85807100Y-40721447D01*
X85762051Y-40760483D01*
X85752440Y-40765380D01*
X85698282Y-40804727D01*
X85698282Y-40804728D01*
X86330591Y-41437037D01*
X86267007Y-41454075D01*
X86152993Y-41519901D01*
X86059901Y-41612993D01*
X85994075Y-41727007D01*
X85977037Y-41790591D01*
X85344728Y-41158282D01*
X85344727Y-41158282D01*
X85305380Y-41212439D01*
X85208904Y-41401782D01*
X85143242Y-41603869D01*
X85143242Y-41603872D01*
X85110000Y-41813753D01*
X85110000Y-42026246D01*
X85143242Y-42236127D01*
X85143242Y-42236130D01*
X85208904Y-42438217D01*
X85305375Y-42627550D01*
X85344728Y-42681716D01*
X85977037Y-42049408D01*
X85994075Y-42112993D01*
X86059901Y-42227007D01*
X86152993Y-42320099D01*
X86267007Y-42385925D01*
X86330590Y-42402962D01*
X85698282Y-43035269D01*
X85698282Y-43035270D01*
X85752452Y-43074626D01*
X85762048Y-43079516D01*
X85812844Y-43127491D01*
X85829638Y-43195312D01*
X85807100Y-43261447D01*
X85762051Y-43300483D01*
X85752440Y-43305380D01*
X85698282Y-43344727D01*
X85698282Y-43344728D01*
X86330591Y-43977037D01*
X86267007Y-43994075D01*
X86152993Y-44059901D01*
X86059901Y-44152993D01*
X85994075Y-44267007D01*
X85977037Y-44330591D01*
X85344728Y-43698282D01*
X85344727Y-43698282D01*
X85305380Y-43752439D01*
X85208904Y-43941782D01*
X85143242Y-44143869D01*
X85143242Y-44143872D01*
X85110000Y-44353753D01*
X85110000Y-44566246D01*
X85143242Y-44776127D01*
X85143242Y-44776130D01*
X85208904Y-44978217D01*
X85305375Y-45167550D01*
X85344728Y-45221716D01*
X85977037Y-44589408D01*
X85994075Y-44652993D01*
X86059901Y-44767007D01*
X86152993Y-44860099D01*
X86267007Y-44925925D01*
X86330590Y-44942962D01*
X85698282Y-45575269D01*
X85698282Y-45575270D01*
X85752452Y-45614626D01*
X85752451Y-45614626D01*
X85761495Y-45619234D01*
X85812292Y-45667208D01*
X85829087Y-45735029D01*
X85806550Y-45801164D01*
X85761499Y-45840202D01*
X85752182Y-45844949D01*
X85580213Y-45969890D01*
X85429890Y-46120213D01*
X85304951Y-46292179D01*
X85208444Y-46481585D01*
X85142753Y-46683760D01*
X85109500Y-46893713D01*
X85109500Y-47106286D01*
X85142753Y-47316239D01*
X85208444Y-47518414D01*
X85304951Y-47707820D01*
X85429890Y-47879786D01*
X85580213Y-48030109D01*
X85752179Y-48155048D01*
X85752181Y-48155049D01*
X85752184Y-48155051D01*
X85941588Y-48251557D01*
X86143757Y-48317246D01*
X86353713Y-48350500D01*
X86353714Y-48350500D01*
X86566286Y-48350500D01*
X86566287Y-48350500D01*
X86776243Y-48317246D01*
X86978412Y-48251557D01*
X87167816Y-48155051D01*
X87189789Y-48139086D01*
X87339786Y-48030109D01*
X87339788Y-48030106D01*
X87339792Y-48030104D01*
X87490104Y-47879792D01*
X87493660Y-47874896D01*
X87548987Y-47832230D01*
X87618600Y-47826248D01*
X87680397Y-47858851D01*
X87711686Y-47908772D01*
X87715186Y-47919334D01*
X87807288Y-48068656D01*
X87931344Y-48192712D01*
X88080666Y-48284814D01*
X88247203Y-48339999D01*
X88349991Y-48350500D01*
X89650008Y-48350499D01*
X89752797Y-48339999D01*
X89919334Y-48284814D01*
X90068656Y-48192712D01*
X90192712Y-48068656D01*
X90284814Y-47919334D01*
X90339999Y-47752797D01*
X90350500Y-47650009D01*
X90350499Y-46349992D01*
X90339999Y-46247203D01*
X90284814Y-46080666D01*
X90192712Y-45931344D01*
X90068656Y-45807288D01*
X89919334Y-45715186D01*
X89847228Y-45691292D01*
X89789784Y-45651520D01*
X89762961Y-45587004D01*
X89762801Y-45576354D01*
X89129408Y-44942962D01*
X89192993Y-44925925D01*
X89307007Y-44860099D01*
X89400099Y-44767007D01*
X89465925Y-44652993D01*
X89482962Y-44589408D01*
X90115270Y-45221717D01*
X90115270Y-45221716D01*
X90154622Y-45167554D01*
X90251095Y-44978217D01*
X90316757Y-44776130D01*
X90316757Y-44776127D01*
X90350000Y-44566246D01*
X90350000Y-44353753D01*
X90316757Y-44143872D01*
X90316757Y-44143869D01*
X90251095Y-43941782D01*
X90154624Y-43752449D01*
X90115270Y-43698282D01*
X89482962Y-44330590D01*
X89465925Y-44267007D01*
X89400099Y-44152993D01*
X89307007Y-44059901D01*
X89192993Y-43994075D01*
X89129409Y-43977037D01*
X89761716Y-43344728D01*
X89707550Y-43305375D01*
X89697954Y-43300486D01*
X89647157Y-43252512D01*
X89630361Y-43184692D01*
X89651288Y-43120895D01*
X89730027Y-43003581D01*
X89129408Y-42402962D01*
X89192993Y-42385925D01*
X89307007Y-42320099D01*
X89400099Y-42227007D01*
X89465925Y-42112993D01*
X89482962Y-42049408D01*
X90115270Y-42681717D01*
X90115270Y-42681716D01*
X90154622Y-42627554D01*
X90251095Y-42438217D01*
X90316757Y-42236130D01*
X90316757Y-42236127D01*
X90350000Y-42026246D01*
X90350000Y-41813753D01*
X90316757Y-41603872D01*
X90316757Y-41603869D01*
X90251095Y-41401782D01*
X90154624Y-41212449D01*
X90115270Y-41158282D01*
X89482962Y-41790590D01*
X89465925Y-41727007D01*
X89400099Y-41612993D01*
X89307007Y-41519901D01*
X89192993Y-41454075D01*
X89129409Y-41437037D01*
X89761716Y-40804728D01*
X89707550Y-40765375D01*
X89697954Y-40760486D01*
X89647157Y-40712512D01*
X89630361Y-40644692D01*
X89651288Y-40580895D01*
X89730027Y-40463581D01*
X89129408Y-39862962D01*
X89192993Y-39845925D01*
X89307007Y-39780099D01*
X89400099Y-39687007D01*
X89465925Y-39572993D01*
X89482962Y-39509408D01*
X90115270Y-40141717D01*
X90115270Y-40141716D01*
X90154622Y-40087554D01*
X90251095Y-39898217D01*
X90316757Y-39696130D01*
X90316757Y-39696127D01*
X90350000Y-39486246D01*
X90350000Y-39273753D01*
X90316757Y-39063872D01*
X90316757Y-39063869D01*
X90251095Y-38861782D01*
X90154624Y-38672449D01*
X90115270Y-38618282D01*
X89482962Y-39250590D01*
X89465925Y-39187007D01*
X89400099Y-39072993D01*
X89307007Y-38979901D01*
X89192993Y-38914075D01*
X89129409Y-38897037D01*
X89761716Y-38264728D01*
X89707547Y-38225373D01*
X89707547Y-38225372D01*
X89698500Y-38220763D01*
X89647706Y-38172788D01*
X89630912Y-38104966D01*
X89653451Y-38038832D01*
X89698508Y-37999793D01*
X89707816Y-37995051D01*
X89787007Y-37937515D01*
X89879786Y-37870109D01*
X89879788Y-37870106D01*
X89879792Y-37870104D01*
X90030104Y-37719792D01*
X90030106Y-37719788D01*
X90030109Y-37719786D01*
X90155048Y-37547820D01*
X90155047Y-37547820D01*
X90155051Y-37547816D01*
X90251557Y-37358412D01*
X90317246Y-37156243D01*
X90350500Y-36946287D01*
X90350500Y-36733713D01*
X90317246Y-36523757D01*
X90251557Y-36321588D01*
X90155051Y-36132184D01*
X90155049Y-36132181D01*
X90155048Y-36132179D01*
X90030109Y-35960213D01*
X89879786Y-35809890D01*
X89707820Y-35684951D01*
X89707115Y-35684591D01*
X89699054Y-35680485D01*
X89648259Y-35632512D01*
X89631463Y-35564692D01*
X89653999Y-35498556D01*
X89699054Y-35459515D01*
X89707816Y-35455051D01*
X89729789Y-35439086D01*
X89879786Y-35330109D01*
X89879788Y-35330106D01*
X89879792Y-35330104D01*
X90030104Y-35179792D01*
X90030106Y-35179788D01*
X90030109Y-35179786D01*
X90155048Y-35007820D01*
X90155047Y-35007820D01*
X90155051Y-35007816D01*
X90251557Y-34818412D01*
X90317246Y-34616243D01*
X90350500Y-34406287D01*
X90350500Y-34193713D01*
X90317246Y-33983757D01*
X90251557Y-33781588D01*
X90155051Y-33592184D01*
X90155049Y-33592181D01*
X90155048Y-33592179D01*
X90030109Y-33420213D01*
X89879786Y-33269890D01*
X89707820Y-33144951D01*
X89707115Y-33144591D01*
X89699054Y-33140485D01*
X89648259Y-33092512D01*
X89631463Y-33024692D01*
X89653999Y-32958556D01*
X89699054Y-32919515D01*
X89707816Y-32915051D01*
X89729789Y-32899086D01*
X89879786Y-32790109D01*
X89879788Y-32790106D01*
X89879792Y-32790104D01*
X90030104Y-32639792D01*
X90030106Y-32639788D01*
X90030109Y-32639786D01*
X90155048Y-32467820D01*
X90155047Y-32467820D01*
X90155051Y-32467816D01*
X90251557Y-32278412D01*
X90317246Y-32076243D01*
X90350500Y-31866287D01*
X90350500Y-31653713D01*
X90317246Y-31443757D01*
X90251557Y-31241588D01*
X90155051Y-31052184D01*
X90155049Y-31052181D01*
X90155048Y-31052179D01*
X90030109Y-30880213D01*
X89879786Y-30729890D01*
X89707820Y-30604951D01*
X89707115Y-30604591D01*
X89699054Y-30600485D01*
X89648259Y-30552512D01*
X89631463Y-30484692D01*
X89653999Y-30418556D01*
X89699054Y-30379515D01*
X89707816Y-30375051D01*
X89729789Y-30359086D01*
X89879786Y-30250109D01*
X89879788Y-30250106D01*
X89879792Y-30250104D01*
X90030104Y-30099792D01*
X90030106Y-30099788D01*
X90030109Y-30099786D01*
X90155048Y-29927820D01*
X90155047Y-29927820D01*
X90155051Y-29927816D01*
X90251557Y-29738412D01*
X90317246Y-29536243D01*
X90350500Y-29326287D01*
X90350500Y-29113713D01*
X90317246Y-28903757D01*
X90251557Y-28701588D01*
X90155051Y-28512184D01*
X90155049Y-28512181D01*
X90155048Y-28512179D01*
X90030109Y-28340213D01*
X89879786Y-28189890D01*
X89707820Y-28064951D01*
X89518414Y-27968444D01*
X89518413Y-27968443D01*
X89518412Y-27968443D01*
X89316243Y-27902754D01*
X89316241Y-27902753D01*
X89316240Y-27902753D01*
X89154957Y-27877208D01*
X89106287Y-27869500D01*
X88893713Y-27869500D01*
X88845042Y-27877208D01*
X88683760Y-27902753D01*
X88481585Y-27968444D01*
X88292179Y-28064951D01*
X88120213Y-28189890D01*
X87969890Y-28340213D01*
X87844949Y-28512182D01*
X87840484Y-28520946D01*
X87792509Y-28571742D01*
X87724688Y-28588536D01*
X87658553Y-28565998D01*
X87619516Y-28520946D01*
X87615050Y-28512182D01*
X87490109Y-28340213D01*
X87339786Y-28189890D01*
X87167820Y-28064951D01*
X86978414Y-27968444D01*
X86978413Y-27968443D01*
X86978412Y-27968443D01*
X86776243Y-27902754D01*
X86776241Y-27902753D01*
X86776240Y-27902753D01*
X86614957Y-27877208D01*
X86566287Y-27869500D01*
X86353713Y-27869500D01*
X86305042Y-27877208D01*
X86143760Y-27902753D01*
X85941585Y-27968444D01*
X85752179Y-28064951D01*
X85580213Y-28189890D01*
X85429890Y-28340213D01*
X85304951Y-28512179D01*
X85208444Y-28701585D01*
X85142753Y-28903760D01*
X85109500Y-29113713D01*
X72350500Y-29113713D01*
X72317246Y-28903757D01*
X72251557Y-28701588D01*
X72155051Y-28512184D01*
X72155049Y-28512181D01*
X72155048Y-28512179D01*
X72030109Y-28340213D01*
X71879786Y-28189890D01*
X71707820Y-28064951D01*
X71518414Y-27968444D01*
X71518413Y-27968443D01*
X71518412Y-27968443D01*
X71316243Y-27902754D01*
X71316241Y-27902753D01*
X71316240Y-27902753D01*
X71154957Y-27877208D01*
X71106287Y-27869500D01*
X70893713Y-27869500D01*
X70845042Y-27877208D01*
X70683760Y-27902753D01*
X70481585Y-27968444D01*
X70292179Y-28064951D01*
X70120213Y-28189890D01*
X69969890Y-28340213D01*
X69844949Y-28512182D01*
X69840484Y-28520946D01*
X69792509Y-28571742D01*
X69724688Y-28588536D01*
X69658553Y-28565998D01*
X69619516Y-28520946D01*
X69615050Y-28512182D01*
X69490109Y-28340213D01*
X69339786Y-28189890D01*
X69167820Y-28064951D01*
X68978414Y-27968444D01*
X68978413Y-27968443D01*
X68978412Y-27968443D01*
X68776243Y-27902754D01*
X68776241Y-27902753D01*
X68776240Y-27902753D01*
X68614957Y-27877208D01*
X68566287Y-27869500D01*
X68353713Y-27869500D01*
X68305042Y-27877208D01*
X68143760Y-27902753D01*
X67941585Y-27968444D01*
X67752179Y-28064951D01*
X67580213Y-28189890D01*
X67429890Y-28340213D01*
X67304951Y-28512179D01*
X67208444Y-28701585D01*
X67142753Y-28903760D01*
X67109500Y-29113713D01*
X54350500Y-29113713D01*
X54317246Y-28903757D01*
X54251557Y-28701588D01*
X54155051Y-28512184D01*
X54155049Y-28512181D01*
X54155048Y-28512179D01*
X54030109Y-28340213D01*
X53879786Y-28189890D01*
X53707820Y-28064951D01*
X53518414Y-27968444D01*
X53518413Y-27968443D01*
X53518412Y-27968443D01*
X53316243Y-27902754D01*
X53316241Y-27902753D01*
X53316240Y-27902753D01*
X53154957Y-27877208D01*
X53106287Y-27869500D01*
X52893713Y-27869500D01*
X52845042Y-27877208D01*
X52683760Y-27902753D01*
X52481585Y-27968444D01*
X52292179Y-28064951D01*
X52120213Y-28189890D01*
X51969890Y-28340213D01*
X51844949Y-28512182D01*
X51840484Y-28520946D01*
X51792509Y-28571742D01*
X51724688Y-28588536D01*
X51658553Y-28565998D01*
X51619516Y-28520946D01*
X51615050Y-28512182D01*
X51490109Y-28340213D01*
X51339786Y-28189890D01*
X51167820Y-28064951D01*
X50978414Y-27968444D01*
X50978413Y-27968443D01*
X50978412Y-27968443D01*
X50776243Y-27902754D01*
X50776241Y-27902753D01*
X50776240Y-27902753D01*
X50614957Y-27877208D01*
X50566287Y-27869500D01*
X50353713Y-27869500D01*
X50305042Y-27877208D01*
X50143760Y-27902753D01*
X49941585Y-27968444D01*
X49752179Y-28064951D01*
X49580213Y-28189890D01*
X49429890Y-28340213D01*
X49304951Y-28512179D01*
X49208444Y-28701585D01*
X49142753Y-28903760D01*
X49109500Y-29113713D01*
X36350500Y-29113713D01*
X36317246Y-28903757D01*
X36251557Y-28701588D01*
X36155051Y-28512184D01*
X36155049Y-28512181D01*
X36155048Y-28512179D01*
X36030109Y-28340213D01*
X35879786Y-28189890D01*
X35707820Y-28064951D01*
X35518414Y-27968444D01*
X35518413Y-27968443D01*
X35518412Y-27968443D01*
X35316243Y-27902754D01*
X35316241Y-27902753D01*
X35316240Y-27902753D01*
X35154957Y-27877208D01*
X35106287Y-27869500D01*
X34893713Y-27869500D01*
X34845042Y-27877208D01*
X34683760Y-27902753D01*
X34481585Y-27968444D01*
X34292179Y-28064951D01*
X34120213Y-28189890D01*
X33969890Y-28340213D01*
X33844949Y-28512182D01*
X33840484Y-28520946D01*
X33792509Y-28571742D01*
X33724688Y-28588536D01*
X33658553Y-28565998D01*
X33619516Y-28520946D01*
X33615050Y-28512182D01*
X33490109Y-28340213D01*
X33339786Y-28189890D01*
X33167820Y-28064951D01*
X32978414Y-27968444D01*
X32978413Y-27968443D01*
X32978412Y-27968443D01*
X32776243Y-27902754D01*
X32776241Y-27902753D01*
X32776240Y-27902753D01*
X32614957Y-27877208D01*
X32566287Y-27869500D01*
X32353713Y-27869500D01*
X32305042Y-27877208D01*
X32143760Y-27902753D01*
X31941585Y-27968444D01*
X31752179Y-28064951D01*
X31580213Y-28189890D01*
X31429890Y-28340213D01*
X31304951Y-28512179D01*
X31208444Y-28701585D01*
X31142753Y-28903760D01*
X31109500Y-29113713D01*
X25500500Y-29113713D01*
X25500500Y-22624500D01*
X25520185Y-22557461D01*
X25572989Y-22511706D01*
X25624500Y-22500500D01*
X124375500Y-22500500D01*
X124442539Y-22520185D01*
G37*
%TD.AperFunction*%
%TD*%
M02*
