#VRML V2.0 utf8
# 3D model generated by easyeda2kicad.py (https://github.com/uPesy/easyeda2kicad.py)

Shape{
    appearance Appearance {
        material  Material 	{
            diffuseColor 0.20784313725490197 0.20784313725490197 0.20784313725490197
            specularColor 0.01568627450980392 0.01568627450980392 0.01568627450980392
            ambientIntensity 0.298
            transparency 0.0
            shininess 0.5
        }
    }
    geometry IndexedFaceSet {
        ccw TRUE
        solid FALSE
        coord DEF co Coordinate {
            point [
                0.0674 0.0273 0.0197, 0.0752 0.0265 0.0197, 0.0504 -0.0318 0.0197, 0.049 -0.031 0.0197, 0.049 -0.0396 0.0197, 0.0413 -0.0442 0.0197, 0.5083 0.3213 0.0197, 0.5142 0.3137 0.0197, 0.5178 0.3048 0.0197, 0.1546 -0.0437 0.0197, 0.0753 -0.0442 0.0197, 0.1143 -0.0437 0.0197, 0.0803 -0.0437 0.0197, 0.088 -0.041 0.0197, 0.0811 0.0243 0.0197, 0.0865 0.0207 0.0197, 0.0913 0.0154 0.0197, 0.097 -0.0052 0.0197, 0.0962 -0.0137 0.0197, 0.094 -0.0205 0.0197, 0.0765 -0.0352 0.0197, 0.0692 -0.036 0.0197, 0.0823 -0.0331 0.0197, 0.0871 -0.0298 0.0197, 0.0908 -0.0259 0.0197, 0.0587 -0.0349 0.0197, 0.4035 0.187 0.0197, 0.0413 0.3321 0.0197, 0.5191 0.187 0.0197, 0.4823 0.3321 0.0197, 0.5191 0.2953 0.0197, 0.4918 0.3308 0.0197, 0.5007 0.3271 0.0197, 0.1034 0.0143 0.0197, 0.0988 0.0216 0.0197, 0.144 0.035 0.0197, 0.0578 0.0261 0.0197, 0.049 0.0223 0.0197, 0.049 0.0329 0.0197, 0.0945 0.0094 0.0197, 0.0966 0.0009 0.0197, 0.0943 -0.037 0.0197, 0.1002 -0.0308 0.0197, 0.1143 -0.0351 0.0197, 0.1044 -0.0233 0.0197, 0.144 -0.0351 0.0197, 0.0917 0.0285 0.0197, 0.0842 0.0328 0.0197, 0.0754 0.0353 0.0197, 0.1068 -0.015 0.0197, 0.1075 -0.0058 0.0197, 0.1064 0.0054 0.0197, 0.0675 0.036 0.0197, 0.0581 0.0353 0.0197, 0.0574 -0.0431 0.0197, 0.0653 -0.0442 0.0197, 0.0413 -0.3321 0.0197, 0.0685 -0.0446 0.0197, 0.0706 -0.0447 0.0197, 0.1546 0.035 0.0197, 0.4035 -0.0442 0.0197, 0.4035 -0.187 0.0197, 0.5191 -0.187 0.0197, 0.5191 -0.2953 0.0197, 0.5178 -0.3048 0.0197, 0.4918 -0.3308 0.0197, 0.4823 -0.3321 0.0197, 0.5142 -0.3137 0.0197, 0.5083 -0.3213 0.0197, 0.5007 -0.3271 0.0197, -0.0931 -0.0437 0.0197, -0.0835 -0.0221 0.0197, -0.0789 -0.0292 0.0197, -0.4035 0.187 0.0197, -0.5191 0.187 0.0197, -0.5191 0.2953 0.0197, 0.023 0.0264 0.0197, 0.023 0.0005 0.0197, -0.0067 0.0264 0.0197, -0.0048 0.0005 0.0197, -0.0048 -0.0082 0.0197, -0.024 -0.0437 0.0197, -0.024 0.035 0.0197, -0.0067 0.035 0.0197, -0.0725 -0.0354 0.0197, -0.0642 -0.0402 0.0197, -0.0552 -0.0429 0.0197, -0.0462 0.035 0.0197, -0.1229 0.035 0.0197, -0.1335 0.035 0.0197, -0.4035 -0.0442 0.0197, -0.0576 0.0338 0.0197, -0.0668 0.0306 0.0197, -0.0754 0.0248 0.0197, -0.0755 0.0248 0.0197, -0.081 0.0186 0.0197, -0.0847 0.0118 0.0197, -0.0868 0.004 0.0197, -0.0874 -0.0034 0.0197, -0.0863 -0.0139 0.0197, 0.0336 0.035 0.0197, -0.4823 0.3321 0.0197, -0.5178 0.3048 0.0197, -0.5142 0.3137 0.0197, -0.5083 0.3213 0.0197, -0.5007 0.3271 0.0197, -0.4918 0.3308 0.0197, -0.1642 -0.0437 0.0197, -0.1527 -0.0437 0.0197, -0.0454 -0.0437 0.0197, 0.023 -0.0082 0.0197, 0.023 -0.0351 0.0197, -0.0086 -0.0351 0.0197, -0.0086 -0.0437 0.0197, 0.0336 -0.0437 0.0197, -0.1447 -0.0216 0.0197, -0.1122 -0.0216 0.0197, -0.1047 -0.0437 0.0197, -0.5191 -0.2953 0.0197, -0.5191 -0.187 0.0197, -0.4035 -0.187 0.0197, -0.4823 -0.3321 0.0197, -0.5178 -0.3048 0.0197, -0.4918 -0.3308 0.0197, -0.5007 -0.3271 0.0197, -0.5083 -0.3213 0.0197, -0.5142 -0.3137 0.0197, -0.3364 0.291 0.3937, -0.3364 -0.291 0.3937, -0.2979 0.291 0.3937, -0.2979 -0.291 0.3937, 0.478 -0.291 0.3937, 0.478 0.291 0.3937, -0.2668 -0.291 0.3937, -0.2668 0.291 0.3937, -0.4076 0.291 0.3937, -0.4076 -0.291 0.3937, -0.3661 0.291 0.3937, -0.3661 -0.291 0.3937
            ]
        }
        coordIndex [
            0,1,2,-1,3,4,5,-1,6,7,8,-1,9,10,11,-1,11,10,12,-1,11,12,13,-1,1,14,2,-1,2,14,15,-1,2,15,16,-1,17,18,2,-1,2,18,19,-1,20,21,22,-1,22,21,23,-1,19,24,2,-1,2,24,23,-1,2,23,25,-1,25,23,21,-1,26,27,28,-1,28,27,29,-1,28,29,30,-1,30,29,31,-1,30,31,8,-1,8,31,32,-1,8,32,6,-1,33,34,35,-1,0,2,36,-1,36,2,3,-1,36,3,37,-1,37,3,27,-1,37,27,38,-1,16,39,2,-1,2,39,40,-1,2,40,17,-1,13,41,11,-1,11,41,42,-1,11,42,43,-1,43,42,44,-1,43,44,45,-1,46,47,27,-1,27,47,48,-1,44,49,45,-1,45,49,50,-1,45,50,35,-1,35,50,51,-1,35,51,33,-1,48,52,27,-1,27,52,53,-1,27,53,38,-1,4,54,5,-1,5,54,55,-1,5,55,56,-1,55,57,56,-1,56,57,58,-1,56,58,10,-1,34,46,35,-1,35,46,27,-1,35,27,59,-1,59,27,26,-1,59,26,9,-1,9,26,60,-1,9,60,10,-1,10,60,61,-1,10,61,56,-1,56,61,62,-1,56,62,63,-1,64,65,63,-1,63,65,66,-1,63,66,56,-1,64,67,65,-1,65,67,68,-1,65,68,69,-1,70,71,72,-1,73,74,75,-1,76,77,78,-1,78,77,79,-1,80,81,79,-1,79,81,82,-1,79,82,78,-1,78,82,83,-1,72,84,70,-1,70,84,85,-1,70,85,86,-1,87,88,73,-1,73,88,89,-1,73,89,90,-1,87,91,88,-1,88,91,92,-1,88,92,93,-1,93,94,88,-1,88,94,95,-1,88,95,96,-1,96,97,88,-1,88,97,98,-1,88,98,70,-1,70,98,99,-1,70,99,71,-1,3,5,27,-1,27,5,100,-1,27,100,101,-1,101,100,83,-1,101,83,73,-1,73,83,82,-1,73,82,87,-1,75,102,73,-1,73,102,103,-1,73,103,104,-1,104,105,73,-1,73,105,106,-1,73,106,101,-1,107,108,5,-1,5,109,81,-1,110,111,80,-1,80,111,112,-1,80,112,81,-1,81,112,113,-1,81,113,5,-1,5,113,114,-1,5,114,100,-1,115,116,108,-1,108,116,117,-1,108,117,5,-1,5,117,70,-1,5,70,109,-1,109,70,86,-1,118,119,120,-1,89,107,90,-1,90,107,5,-1,90,5,120,-1,120,5,56,-1,120,56,118,-1,118,56,121,-1,118,121,122,-1,122,121,123,-1,123,124,122,-1,122,124,125,-1,122,125,126,-1,127,128,129,-1,129,128,130,-1,131,132,133,-1,133,132,134,-1,135,136,137,-1,137,136,138,-1,
        ]
    }
}
Shape{
    appearance Appearance {
        material  Material 	{
            diffuseColor 0.34901960784313724 0.34901960784313724 0.34901960784313724
            specularColor 0.023529411764705882 0.023529411764705882 0.023529411764705882
            ambientIntensity 0.498
            transparency 0.0
            shininess 0.5
        }
    }
    geometry IndexedFaceSet {
        ccw TRUE
        solid FALSE
        coord DEF co Coordinate {
            point [
                -0.2979 -0.291 0.3937, -0.2668 -0.291 0.3937, -0.2979 0.291 0.3937, -0.2668 0.291 0.3937
            ]
        }
        coordIndex [
            0,1,2,-1,2,1,3,-1,
        ]
    }
}
Shape{
    appearance Appearance {
        material  Material 	{
            diffuseColor 0.20784313725490197 0.20784313725490197 0.20784313725490197
            specularColor 0.01568627450980392 0.01568627450980392 0.01568627450980392
            ambientIntensity 0.298
            transparency 0.0
            shininess 0.5
        }
    }
    geometry IndexedFaceSet {
        ccw TRUE
        solid FALSE
        coord DEF co Coordinate {
            point [
                -0.478 0.291 0.3937, -0.478 -0.291 0.3937, -0.4372 0.291 0.3937, -0.4372 -0.291 0.3937
            ]
        }
        coordIndex [
            0,1,2,-1,2,1,3,-1,
        ]
    }
}
Shape{
    appearance Appearance {
        material  Material 	{
            diffuseColor 0.34901960784313724 0.34901960784313724 0.34901960784313724
            specularColor 0.023529411764705882 0.023529411764705882 0.023529411764705882
            ambientIntensity 0.498
            transparency 0.0
            shininess 0.5
        }
    }
    geometry IndexedFaceSet {
        ccw TRUE
        solid FALSE
        coord DEF co Coordinate {
            point [
                -0.3661 -0.291 0.3937, -0.3364 -0.291 0.3937, -0.3661 0.291 0.3937, -0.3364 0.291 0.3937
            ]
        }
        coordIndex [
            0,1,2,-1,2,1,3,-1,
        ]
    }
}
Shape{
    appearance Appearance {
        material  Material 	{
            diffuseColor 0.20784313725490197 0.20784313725490197 0.20784313725490197
            specularColor 0.01568627450980392 0.01568627450980392 0.01568627450980392
            ambientIntensity 0.298
            transparency 0.0
            shininess 0.5
        }
    }
    geometry IndexedFaceSet {
        ccw TRUE
        solid FALSE
        coord DEF co Coordinate {
            point [
                0.5386 0.187 0.0418, 0.5386 0.2953 0.0418, 0.536 0.187 0.063, 0.4975 0.2953 0.3764, 0.536 -0.187 0.063, 0.4975 -0.2953 0.3764, 0.5386 -0.187 0.0418, 0.5386 -0.2953 0.0418, 0.5191 0.187 0.0197, 0.5191 0.2953 0.0197, 0.5238 0.2953 0.0203, 0.5238 0.187 0.0203, 0.5282 0.2953 0.0219, 0.5282 0.187 0.0219, 0.5322 0.2953 0.0246, 0.5322 0.187 0.0246, 0.5353 0.2953 0.0282, 0.5353 0.187 0.0282, 0.5375 0.2953 0.0324, 0.5375 0.187 0.0324, 0.5386 0.2953 0.037, 0.5386 0.187 0.037, -0.5386 -0.187 0.0418, -0.5386 -0.2953 0.0418, -0.536 -0.187 0.063, -0.4975 -0.2953 0.3764, -0.536 0.187 0.063, -0.4975 0.2953 0.3764, -0.5386 0.187 0.0418, -0.5386 0.2953 0.0418, -0.5191 0.2953 0.0197, -0.5191 0.187 0.0197, -0.5238 0.187 0.0203, -0.5238 0.2953 0.0203, -0.5282 0.187 0.0219, -0.5282 0.2953 0.0219, -0.5322 0.187 0.0246, -0.5322 0.2953 0.0246, -0.5353 0.187 0.0282, -0.5353 0.2953 0.0282, -0.5375 0.187 0.0324, -0.5375 0.2953 0.0324, -0.5386 0.187 0.037, -0.5386 0.2953 0.037, -0.4962 -0.3011 0.3769, -0.4966 -0.3003 0.3769, -0.4971 -0.2983 0.3767, -0.4961 -0.3014 0.377, -0.5334 -0.3178 0.0418, -0.5367 -0.3099 0.0418, -0.4972 -0.2978 0.3767, -0.5374 -0.3047 0.0418, -0.4975 -0.2966 0.3766, -0.5166 -0.3393 0.0418, -0.4915 -0.3072 0.3771, -0.5221 -0.3351 0.0418, -0.4926 -0.3063 0.3771, -0.5263 -0.3296 0.0418, -0.4942 -0.3045 0.3771, -0.5311 -0.3234 0.0418, -0.4949 -0.3037 0.3771, -0.4949 -0.3037 0.3771, -0.4861 -0.31 0.3768, -0.4867 -0.3097 0.3768, -0.5048 -0.3464 0.0418, -0.4881 -0.3092 0.3769, -0.4884 -0.3091 0.377, -0.5105 -0.3441 0.0418, -0.4896 -0.3086 0.377, -0.4907 -0.3078 0.3771, -0.4853 -0.3101 0.3767, -0.4969 -0.3497 0.0418, -0.4848 -0.3102 0.3767, -0.4917 -0.3504 0.0418, -0.4838 -0.3103 0.3766, -0.4823 -0.3516 0.0418, -0.4823 -0.3105 0.3764, 0.4823 -0.3516 0.0418, 0.4823 -0.3105 0.3764, 0.4881 -0.3092 0.3769, 0.4873 -0.3096 0.3769, 0.4853 -0.3101 0.3767, 0.4884 -0.3091 0.377, 0.5048 -0.3464 0.0418, 0.4969 -0.3497 0.0418, 0.4848 -0.3102 0.3767, 0.4917 -0.3504 0.0418, 0.4836 -0.3105 0.3766, 0.5263 -0.3296 0.0418, 0.4942 -0.3045 0.3771, 0.5221 -0.3351 0.0418, 0.4934 -0.3056 0.3771, 0.5166 -0.3393 0.0418, 0.4916 -0.3072 0.3771, 0.5105 -0.3441 0.0418, 0.4907 -0.3079 0.3771, 0.4907 -0.3079 0.3771, 0.497 -0.299 0.3768, 0.4967 -0.2997 0.3768, 0.5334 -0.3178 0.0418, 0.4962 -0.3011 0.3769, 0.4961 -0.3014 0.377, 0.5311 -0.3234 0.0418, 0.4956 -0.3026 0.377, 0.4948 -0.3037 0.3771, 0.4971 -0.2983 0.3767, 0.5367 -0.3099 0.0418, 0.4972 -0.2978 0.3767, 0.5374 -0.3047 0.0418, 0.4973 -0.2968 0.3766, 0.4881 0.3092 0.3769, 0.4884 0.3091 0.377, 0.5048 0.3464 0.0418, 0.4975 0.2966 0.3766, 0.5374 0.3047 0.0418, 0.4972 0.2978 0.3767, 0.4971 0.2983 0.3767, 0.5334 0.3178 0.0418, 0.4961 0.3014 0.377, 0.5367 0.3099 0.0418, 0.4962 0.3011 0.3769, 0.4966 0.3003 0.3769, 0.5166 0.3393 0.0418, 0.4915 0.3072 0.3771, 0.5221 0.3351 0.0418, 0.4926 0.3063 0.3771, 0.5263 0.3296 0.0418, 0.4942 0.3045 0.3771, 0.5311 0.3234 0.0418, 0.4949 0.3037 0.3771, 0.4949 0.3037 0.3771, 0.5105 0.3441 0.0418, 0.4896 0.3086 0.377, 0.4907 0.3078 0.3771, 0.4853 0.3101 0.3767, 0.4867 0.3097 0.3768, 0.4861 0.31 0.3768, 0.4969 0.3497 0.0418, 0.4848 0.3102 0.3767, 0.4917 0.3504 0.0418, 0.4838 0.3103 0.3766, 0.4823 0.3516 0.0418, 0.4823 0.3105 0.3764, -0.4823 0.3516 0.0418, -0.4823 0.3105 0.3764, -0.4962 0.3011 0.3769, -0.4961 0.3014 0.377, -0.5334 0.3178 0.0418, -0.4881 0.3092 0.3769, -0.4873 0.3096 0.3769, -0.4853 0.3101 0.3767, -0.4884 0.3091 0.377, -0.5048 0.3464 0.0418, -0.4969 0.3497 0.0418, -0.4848 0.3102 0.3767, -0.4917 0.3504 0.0418, -0.4836 0.3105 0.3766, -0.5263 0.3296 0.0418, -0.4942 0.3045 0.3771, -0.5221 0.3351 0.0418, -0.4934 0.3056 0.3771, -0.5166 0.3393 0.0418, -0.4916 0.3072 0.3771, -0.5105 0.3441 0.0418, -0.4907 0.3079 0.3771, -0.4907 0.3079 0.3771, -0.5311 0.3234 0.0418, -0.4956 0.3026 0.377, -0.4948 0.3037 0.3771, -0.4971 0.2983 0.3767, -0.4967 0.2997 0.3768, -0.497 0.299 0.3768, -0.5367 0.3099 0.0418, -0.4972 0.2978 0.3767, -0.5374 0.3047 0.0418, -0.4973 0.2968 0.3766
            ]
        }
        coordIndex [
            0,1,2,-1,2,1,3,-1,2,3,4,-1,4,3,5,-1,4,5,6,-1,6,5,7,-1,8,9,10,-1,8,10,11,-1,11,10,12,-1,11,12,13,-1,13,12,14,-1,13,14,15,-1,15,14,16,-1,15,16,17,-1,17,16,18,-1,17,18,19,-1,19,18,20,-1,19,20,21,-1,21,20,1,-1,21,1,0,-1,22,23,24,-1,24,23,25,-1,24,25,26,-1,26,25,27,-1,26,27,28,-1,28,27,29,-1,30,31,32,-1,30,32,33,-1,33,32,34,-1,33,34,35,-1,35,34,36,-1,35,36,37,-1,37,36,38,-1,37,38,39,-1,39,38,40,-1,39,40,41,-1,41,40,42,-1,41,42,43,-1,43,42,28,-1,43,28,29,-1,44,45,46,-1,47,44,48,-1,48,44,46,-1,48,46,49,-1,49,46,50,-1,49,50,51,-1,51,50,52,-1,51,52,23,-1,23,52,25,-1,53,54,55,-1,55,54,56,-1,55,56,57,-1,57,56,58,-1,57,58,59,-1,59,58,60,-1,59,60,48,-1,48,60,61,-1,48,61,47,-1,62,63,64,-1,63,65,64,-1,64,65,66,-1,64,66,67,-1,67,66,68,-1,67,68,53,-1,53,68,69,-1,53,69,54,-1,62,64,70,-1,70,64,71,-1,70,71,72,-1,72,71,73,-1,72,73,74,-1,74,73,75,-1,74,75,76,-1,77,78,75,-1,75,78,76,-1,79,80,81,-1,82,79,83,-1,83,79,81,-1,83,81,84,-1,84,81,85,-1,84,85,86,-1,86,85,87,-1,86,87,77,-1,77,87,78,-1,88,89,90,-1,90,89,91,-1,90,91,92,-1,92,91,93,-1,92,93,94,-1,94,93,95,-1,94,95,83,-1,83,95,96,-1,83,96,82,-1,97,98,99,-1,98,100,99,-1,99,100,101,-1,99,101,102,-1,102,101,103,-1,102,103,88,-1,88,103,104,-1,88,104,89,-1,97,99,105,-1,105,99,106,-1,105,106,107,-1,107,106,108,-1,107,108,109,-1,109,108,7,-1,109,7,5,-1,110,111,112,-1,3,1,113,-1,113,1,114,-1,113,114,115,-1,115,114,116,-1,117,118,119,-1,119,118,120,-1,119,120,114,-1,114,120,121,-1,114,121,116,-1,122,123,124,-1,124,123,125,-1,124,125,126,-1,126,125,127,-1,126,127,128,-1,128,127,129,-1,128,129,117,-1,117,129,130,-1,117,130,118,-1,112,111,131,-1,131,111,132,-1,131,132,122,-1,122,132,133,-1,122,133,123,-1,110,134,135,-1,135,134,136,-1,110,112,134,-1,134,112,137,-1,134,137,138,-1,138,137,139,-1,138,139,140,-1,140,139,141,-1,140,141,142,-1,143,144,141,-1,141,144,142,-1,145,146,147,-1,148,149,150,-1,151,148,152,-1,152,148,150,-1,152,150,153,-1,153,150,154,-1,153,154,155,-1,155,154,156,-1,155,156,143,-1,143,156,144,-1,157,158,159,-1,159,158,160,-1,159,160,161,-1,161,160,162,-1,161,162,163,-1,163,162,164,-1,163,164,152,-1,152,164,165,-1,152,165,151,-1,147,146,166,-1,166,146,167,-1,166,167,157,-1,157,167,168,-1,157,168,158,-1,145,169,170,-1,170,169,171,-1,145,147,169,-1,169,147,172,-1,169,172,173,-1,173,172,174,-1,173,174,175,-1,175,174,29,-1,175,29,27,-1,
        ]
    }
}
Shape{
    appearance Appearance {
        material  Material 	{
            diffuseColor 0.34901960784313724 0.34901960784313724 0.34901960784313724
            specularColor 0.023529411764705882 0.023529411764705882 0.023529411764705882
            ambientIntensity 0.498
            transparency 0.0
            shininess 0.5
        }
    }
    geometry IndexedFaceSet {
        ccw TRUE
        solid FALSE
        coord DEF co Coordinate {
            point [
                -0.4372 -0.291 0.3937, -0.4076 -0.291 0.3937, -0.4372 0.291 0.3937, -0.4076 0.291 0.3937
            ]
        }
        coordIndex [
            0,1,2,-1,2,1,3,-1,
        ]
    }
}
Shape{
    appearance Appearance {
        material  Material 	{
            diffuseColor 0.20784313725490197 0.20784313725490197 0.20784313725490197
            specularColor 0.01568627450980392 0.01568627450980392 0.01568627450980392
            ambientIntensity 0.298
            transparency 0.0
            shininess 0.5
        }
    }
    geometry IndexedFaceSet {
        ccw TRUE
        solid FALSE
        coord DEF co Coordinate {
            point [
                0.0413 0.3321 0.0197, -0.4823 0.3321 0.0197, -0.4823 0.3368 0.0203, 0.4823 0.3368 0.0203, 0.4823 0.3321 0.0197, -0.4823 0.3412 0.0219, 0.4823 0.3412 0.0219, -0.4823 0.3451 0.0246, 0.4823 0.3451 0.0246, -0.4823 0.3483 0.0282, 0.4823 0.3483 0.0282, -0.4823 0.3505 0.0324, 0.4823 0.3505 0.0324, -0.4823 0.3516 0.037, 0.4823 0.3516 0.037, -0.4823 0.3516 0.0418, 0.4823 0.3516 0.0418, -0.5263 0.3296 0.0418, -0.5221 0.3351 0.0418, -0.5221 0.3351 0.037, -0.5166 0.3393 0.0418, -0.5105 0.3441 0.0418, -0.5105 0.3441 0.037, -0.5048 0.3464 0.0418, -0.4969 0.3497 0.0418, -0.4969 0.3497 0.037, -0.4917 0.3504 0.0418, -0.5142 0.3137 0.0197, -0.5178 0.3048 0.0197, -0.5182 0.316 0.0203, -0.5224 0.306 0.0203, -0.5221 0.3183 0.0219, -0.5267 0.3072 0.0219, -0.5255 0.3202 0.0246, -0.5305 0.3082 0.0246, -0.5282 0.3218 0.0282, -0.5335 0.309 0.0282, -0.5301 0.3229 0.0324, -0.5083 0.3213 0.0197, -0.5116 0.3246 0.0203, -0.5148 0.3278 0.0219, -0.5175 0.3305 0.0246, -0.5198 0.3328 0.0282, -0.5213 0.3343 0.0324, -0.5356 0.3096 0.0324, -0.5367 0.3099 0.037, -0.5311 0.3235 0.037, -0.4966 0.3486 0.0324, -0.496 0.3465 0.0282, -0.4952 0.3434 0.0246, -0.4942 0.3397 0.0219, -0.493 0.3354 0.0203, -0.4918 0.3308 0.0197, -0.5099 0.3431 0.0324, -0.5088 0.3412 0.0282, -0.5072 0.3385 0.0246, -0.5053 0.3351 0.0219, -0.503 0.3312 0.0203, -0.5007 0.3271 0.0197, -0.5311 0.3234 0.0418, -0.5191 0.2953 0.0197, -0.5238 0.2953 0.0203, -0.5282 0.2953 0.0219, -0.5322 0.2953 0.0246, -0.5353 0.2953 0.0282, -0.5375 0.2953 0.0324, -0.5386 0.2953 0.037, -0.5386 0.2953 0.0418, -0.5374 0.3047 0.0418, -0.5367 0.3099 0.0418, -0.5334 0.3178 0.0418, 0.5166 0.3393 0.0418, 0.5221 0.3351 0.0418, 0.5221 0.3351 0.037, 0.5263 0.3296 0.0418, 0.5311 0.3234 0.0418, 0.5311 0.3235 0.037, 0.5334 0.3178 0.0418, 0.5367 0.3099 0.0418, 0.5367 0.3099 0.037, 0.5374 0.3047 0.0418, 0.5386 0.2953 0.0418, 0.5386 0.2953 0.037, 0.5007 0.3271 0.0197, 0.4918 0.3308 0.0197, 0.503 0.3312 0.0203, 0.493 0.3354 0.0203, 0.5053 0.3351 0.0219, 0.4942 0.3397 0.0219, 0.5072 0.3385 0.0246, 0.4952 0.3434 0.0246, 0.5088 0.3412 0.0282, 0.496 0.3465 0.0282, 0.5099 0.3431 0.0324, 0.5083 0.3213 0.0197, 0.5116 0.3246 0.0203, 0.5148 0.3278 0.0219, 0.5175 0.3305 0.0246, 0.5198 0.3328 0.0282, 0.5213 0.3343 0.0324, 0.4966 0.3486 0.0324, 0.4969 0.3497 0.037, 0.5105 0.3441 0.037, 0.5356 0.3096 0.0324, 0.5375 0.2953 0.0324, 0.5335 0.309 0.0282, 0.5353 0.2953 0.0282, 0.5305 0.3082 0.0246, 0.5322 0.2953 0.0246, 0.5267 0.3072 0.0219, 0.5282 0.2953 0.0219, 0.5224 0.306 0.0203, 0.5238 0.2953 0.0203, 0.5178 0.3048 0.0197, 0.5191 0.2953 0.0197, 0.5301 0.3229 0.0324, 0.5282 0.3218 0.0282, 0.5255 0.3202 0.0246, 0.5221 0.3183 0.0219, 0.5182 0.316 0.0203, 0.5142 0.3137 0.0197, 0.5105 0.3441 0.0418, 0.4917 0.3504 0.0418, 0.4969 0.3497 0.0418, 0.5048 0.3464 0.0418, -0.5191 -0.187 0.0197, -0.5191 -0.2953 0.0197, -0.5238 -0.2953 0.0203, -0.5238 -0.187 0.0203, -0.5282 -0.2953 0.0219, -0.5282 -0.187 0.0219, -0.5322 -0.2953 0.0246, -0.5322 -0.187 0.0246, -0.5353 -0.2953 0.0282, -0.5353 -0.187 0.0282, -0.5375 -0.2953 0.0324, -0.5375 -0.187 0.0324, -0.5386 -0.2953 0.037, -0.5386 -0.187 0.037, -0.5386 -0.2953 0.0418, -0.5386 -0.187 0.0418, 0.5191 -0.2953 0.0197, 0.5191 -0.187 0.0197, 0.5238 -0.187 0.0203, 0.5238 -0.2953 0.0203, 0.5282 -0.187 0.0219, 0.5282 -0.2953 0.0219, 0.5322 -0.187 0.0246, 0.5322 -0.2953 0.0246, 0.5353 -0.187 0.0282, 0.5353 -0.2953 0.0282, 0.5375 -0.187 0.0324, 0.5375 -0.2953 0.0324, 0.5386 -0.187 0.037, 0.5386 -0.2953 0.037, 0.5386 -0.187 0.0418, 0.5386 -0.2953 0.0418, -0.5166 -0.3393 0.0418, -0.5221 -0.3351 0.0418, -0.5221 -0.3351 0.037, -0.5263 -0.3296 0.0418, -0.5311 -0.3234 0.0418, -0.5311 -0.3235 0.037, -0.5334 -0.3178 0.0418, -0.5367 -0.3099 0.0418, -0.5367 -0.3099 0.037, -0.5374 -0.3047 0.0418, -0.5007 -0.3271 0.0197, -0.4918 -0.3308 0.0197, -0.503 -0.3312 0.0203, -0.493 -0.3354 0.0203, -0.5053 -0.3351 0.0219, -0.4942 -0.3397 0.0219, -0.5072 -0.3385 0.0246, -0.4952 -0.3434 0.0246, -0.5088 -0.3412 0.0282, -0.496 -0.3465 0.0282, -0.5099 -0.3431 0.0324, -0.5083 -0.3213 0.0197, -0.5116 -0.3246 0.0203, -0.5148 -0.3278 0.0219, -0.5175 -0.3305 0.0246, -0.5198 -0.3328 0.0282, -0.5213 -0.3343 0.0324, -0.4966 -0.3486 0.0324, -0.4969 -0.3497 0.037, -0.5105 -0.3441 0.037, -0.5356 -0.3096 0.0324, -0.5335 -0.309 0.0282, -0.5305 -0.3082 0.0246, -0.5267 -0.3072 0.0219, -0.5224 -0.306 0.0203, -0.5178 -0.3048 0.0197, -0.5301 -0.3229 0.0324, -0.5282 -0.3218 0.0282, -0.5255 -0.3202 0.0246, -0.5221 -0.3183 0.0219, -0.5182 -0.316 0.0203, -0.5142 -0.3137 0.0197, -0.5105 -0.3441 0.0418, -0.4823 -0.3321 0.0197, -0.4823 -0.3368 0.0203, -0.4823 -0.3412 0.0219, -0.4823 -0.3451 0.0246, -0.4823 -0.3483 0.0282, -0.4823 -0.3505 0.0324, -0.4823 -0.3516 0.037, -0.4823 -0.3516 0.0418, -0.4917 -0.3504 0.0418, -0.4969 -0.3497 0.0418, -0.5048 -0.3464 0.0418, 0.5263 -0.3296 0.0418, 0.5221 -0.3351 0.0418, 0.5221 -0.3351 0.037, 0.5166 -0.3393 0.0418, 0.5105 -0.3441 0.0418, 0.5105 -0.3441 0.037, 0.5048 -0.3464 0.0418, 0.4969 -0.3497 0.0418, 0.4969 -0.3497 0.037, 0.4917 -0.3504 0.0418, 0.4823 -0.3516 0.0418, 0.4823 -0.3516 0.037, 0.5142 -0.3137 0.0197, 0.5178 -0.3048 0.0197, 0.5182 -0.316 0.0203, 0.5224 -0.306 0.0203, 0.5221 -0.3183 0.0219, 0.5267 -0.3072 0.0219, 0.5255 -0.3202 0.0246, 0.5305 -0.3082 0.0246, 0.5282 -0.3218 0.0282, 0.5335 -0.309 0.0282, 0.5301 -0.3229 0.0324, 0.5083 -0.3213 0.0197, 0.5116 -0.3246 0.0203, 0.5148 -0.3278 0.0219, 0.5175 -0.3305 0.0246, 0.5198 -0.3328 0.0282, 0.5213 -0.3343 0.0324, 0.5356 -0.3096 0.0324, 0.5367 -0.3099 0.037, 0.5311 -0.3235 0.037, 0.4966 -0.3486 0.0324, 0.4823 -0.3505 0.0324, 0.496 -0.3465 0.0282, 0.4823 -0.3483 0.0282, 0.4952 -0.3434 0.0246, 0.4823 -0.3451 0.0246, 0.4942 -0.3397 0.0219, 0.4823 -0.3412 0.0219, 0.493 -0.3354 0.0203, 0.4823 -0.3368 0.0203, 0.4918 -0.3308 0.0197, 0.4823 -0.3321 0.0197, 0.5099 -0.3431 0.0324, 0.5088 -0.3412 0.0282, 0.5072 -0.3385 0.0246, 0.5053 -0.3351 0.0219, 0.503 -0.3312 0.0203, 0.5007 -0.3271 0.0197, 0.5311 -0.3234 0.0418, 0.5374 -0.3047 0.0418, 0.5367 -0.3099 0.0418, 0.5334 -0.3178 0.0418, 0.0413 -0.3321 0.0197, 0.492 -0.2974 0.3874, 0.4925 -0.2965 0.3871, 0.49 -0.2955 0.3895, 0.4965 -0.2996 0.3787, 0.4959 -0.2993 0.3807, 0.4953 -0.3006 0.3809, 0.4959 -0.3009 0.3788, 0.4962 -0.3011 0.3769, 0.4967 -0.2997 0.3768, 0.4968 -0.2952 0.3794, 0.4967 -0.2951 0.3798, 0.4966 -0.2966 0.3802, 0.4801 -0.2931 0.3935, 0.478 -0.291 0.3937, 0.4795 -0.2938 0.3935, 0.4835 -0.2984 0.3918, 0.4845 -0.2975 0.3919, 0.4823 -0.2953 0.3929, 0.484 -0.3066 0.3857, 0.4835 -0.3055 0.3871, 0.4814 -0.3063 0.3861, 0.4927 -0.3057 0.3791, 0.4921 -0.3051 0.3812, 0.49 -0.3069 0.3811, 0.4934 -0.3056 0.3771, 0.4916 -0.3072 0.3771, 0.4905 -0.3075 0.379, 0.4907 -0.3079 0.3771, 0.4907 -0.3079 0.3771, 0.4879 -0.3089 0.3788, 0.4884 -0.3091 0.377, 0.4848 -0.3102 0.3767, 0.4853 -0.3101 0.3767, 0.4852 -0.3098 0.3786, 0.4873 -0.3096 0.3769, 0.4881 -0.3092 0.3769, 0.4836 -0.3105 0.3766, 0.4822 -0.3101 0.3781, 0.4823 -0.3105 0.3764, 0.4821 -0.3094 0.381, 0.4821 -0.3097 0.3798, 0.485 -0.3093 0.3805, 0.4822 -0.3098 0.3794, 0.4876 -0.3083 0.3809, 0.4853 -0.3044 0.3877, 0.486 -0.3056 0.3863, 0.4866 -0.3066 0.3848, 0.4843 -0.3077 0.3841, 0.4871 -0.3075 0.3829, 0.4847 -0.3085 0.3824, 0.481 -0.3047 0.3882, 0.4812 -0.3052 0.3875, 0.483 -0.3043 0.3884, 0.4812 -0.3055 0.3871, 0.4817 -0.3076 0.3846, 0.4818 -0.3081 0.3835, 0.4819 -0.3083 0.3832, 0.482 -0.3091 0.3816, 0.4854 -0.3009 0.3903, 0.484 -0.302 0.39, 0.4825 -0.303 0.3895, 0.4825 -0.2994 0.3916, 0.4815 -0.3002 0.3913, 0.481 -0.2966 0.3928, 0.4803 -0.2973 0.3926, 0.4796 -0.2983 0.3921, 0.4802 -0.301 0.391, 0.4805 -0.3022 0.39, 0.4809 -0.3039 0.3887, 0.4905 -0.2948 0.3892, 0.491 -0.2939 0.3888, 0.4892 -0.2935 0.39, 0.4872 -0.2944 0.3913, 0.4881 -0.2932 0.3909, 0.4874 -0.2931 0.3913, 0.4843 -0.2933 0.3926, 0.4867 -0.2996 0.3904, 0.4879 -0.2983 0.3903, 0.4855 -0.2965 0.3918, 0.4853 -0.2926 0.3921, 0.4849 -0.2925 0.3923, 0.4829 -0.2921 0.3931, 0.4894 -0.3061 0.3833, 0.4887 -0.3052 0.3852, 0.4879 -0.3042 0.3867, 0.4871 -0.3031 0.3881, 0.4975 -0.2953 0.3764, 0.4973 -0.2968 0.3766, 0.4972 -0.2978 0.3767, 0.4963 -0.298 0.3805, 0.4971 -0.2983 0.3767, 0.497 -0.299 0.3768, 0.4964 -0.2951 0.3811, 0.4953 -0.2948 0.3832, 0.4951 -0.2962 0.3837, 0.4951 -0.2948 0.3835, 0.4942 -0.2946 0.3853, 0.4934 -0.2944 0.3862, 0.493 -0.2955 0.3867, 0.4925 -0.2942 0.3871, 0.4912 -0.2939 0.3886, 0.4942 -0.3045 0.3771, 0.4948 -0.3037 0.3771, 0.4945 -0.3034 0.379, 0.4956 -0.3026 0.377, 0.4961 -0.3014 0.377, 0.4947 -0.3018 0.381, 0.4939 -0.303 0.3811, 0.4947 -0.2973 0.3841, 0.4942 -0.2985 0.3845, 0.4936 -0.2996 0.3848, 0.4929 -0.3007 0.385, 0.4901 -0.3001 0.3881, 0.4912 -0.3009 0.3867, 0.4922 -0.3017 0.3852, 0.4894 -0.3009 0.3882, 0.4887 -0.3017 0.3882, 0.4905 -0.3018 0.3868, 0.4897 -0.3027 0.3869, 0.4914 -0.3027 0.3853, 0.4906 -0.3036 0.3853, 0.4908 -0.2992 0.3879, 0.4914 -0.2983 0.3877, 0.489 -0.297 0.39, 0.4787 -0.294 0.3933, 0.4788 -0.2944 0.3932, 0.4792 -0.2964 0.3929, 0.4796 -0.2979 0.3923, 0.4864 -0.2955 0.3916, 0.4836 -0.294 0.3928, 0.4808 -0.2925 0.3935, 0.4814 -0.2918 0.3933, 0.481 -0.2917 0.3933, 0.4853 0.2927 0.3921, 0.478 0.291 0.3937, 0.481 0.2917 0.3933, 0.4814 0.2918 0.3933, 0.4828 0.2921 0.3931, 0.4848 0.2926 0.3923, 0.488 0.2933 0.3909, 0.4892 0.2936 0.3901, 0.4875 0.2932 0.3913, 0.4922 0.2943 0.3875, 0.4925 0.2943 0.3871, 0.491 0.294 0.3888, 0.4944 0.2947 0.3848, 0.4942 0.2947 0.3853, 0.4933 0.2945 0.3862, 0.4951 0.2949 0.3835, 0.4961 0.2951 0.3816, 0.4964 0.2951 0.3809, 0.4967 0.2952 0.3798, 0.4952 0.2949 0.3832, 0.4968 0.2952 0.3794, 0.4975 0.2953 0.3764, 0.4971 0.2952 0.3781, -0.4822 -0.3098 0.3794, -0.4823 -0.3105 0.3764, -0.4822 -0.3097 0.3798, -0.4821 -0.3094 0.381, 0.4821 -0.3095 0.3807, -0.4819 -0.3081 0.3835, -0.4819 -0.3082 0.3832, -0.4815 -0.3063 0.3862, -0.4813 -0.3055 0.3871, -0.4817 -0.3071 0.3853, -0.481 -0.3039 0.3888, -0.4806 -0.3022 0.39, -0.481 -0.3041 0.3887, -0.4803 -0.301 0.3908, -0.48 -0.2997 0.3917, -0.4797 -0.2983 0.3921, -0.4788 -0.2944 0.3933, -0.479 -0.2951 0.3932, -0.4796 -0.2978 0.3923, -0.4787 -0.294 0.3934, -0.2668 -0.291 0.3937, -0.2979 -0.291 0.3937, -0.3364 -0.291 0.3937, -0.3661 -0.291 0.3937, -0.4076 -0.291 0.3937, -0.4372 -0.291 0.3937, -0.478 -0.291 0.3937, 0.4844 0.305 0.3874, 0.4835 0.3055 0.3871, 0.4825 0.303 0.3895, 0.4866 0.3094 0.3787, 0.4863 0.3089 0.3807, 0.4876 0.3083 0.3809, 0.4879 0.3089 0.3788, 0.4881 0.3092 0.3769, 0.4867 0.3097 0.3768, 0.4822 0.3098 0.3794, 0.4821 0.3097 0.3798, 0.4836 0.3096 0.3802, 0.4801 0.2931 0.3935, 0.4808 0.2925 0.3935, 0.49 0.2955 0.3895, 0.4855 0.2965 0.3918, 0.4845 0.2975 0.3919, 0.4823 0.2953 0.3929, 0.4926 0.299 0.3863, 0.4914 0.2983 0.3877, 0.4925 0.2965 0.3871, 0.4927 0.3057 0.3791, 0.4921 0.3051 0.3812, 0.4939 0.303 0.3811, 0.4926 0.3063 0.3771, 0.4942 0.3045 0.3771, 0.4945 0.3034 0.379, 0.4949 0.3037 0.3771, 0.4949 0.3037 0.3771, 0.4959 0.3009 0.3788, 0.4961 0.3014 0.377, 0.4972 0.2978 0.3767, 0.4971 0.2983 0.3767, 0.4968 0.2982 0.3786, 0.4966 0.3003 0.3769, 0.4962 0.3011 0.3769, 0.4975 0.2966 0.3766, 0.4963 0.298 0.3805, 0.4953 0.3006 0.3809, 0.4955 0.2977 0.3824, 0.4945 0.3001 0.3829, 0.4947 0.2973 0.3841, 0.4936 0.2996 0.3848, 0.4937 0.2969 0.3857, 0.4913 0.296 0.3884, 0.4879 0.2983 0.3903, 0.489 0.297 0.39, 0.4864 0.2955 0.3916, 0.4836 0.294 0.3928, 0.4872 0.2944 0.3913, 0.4843 0.2933 0.3926, 0.4818 0.3035 0.3892, 0.4809 0.3039 0.3888, 0.4805 0.3022 0.39, 0.4815 0.3002 0.3913, 0.4803 0.301 0.3909, 0.4801 0.3004 0.3913, 0.4803 0.2973 0.3926, 0.4867 0.2996 0.3904, 0.4854 0.3009 0.3903, 0.4835 0.2984 0.3918, 0.4796 0.2983 0.3921, 0.4795 0.2979 0.3923, 0.4791 0.2959 0.3931, 0.4931 0.3024 0.3833, 0.4922 0.3017 0.3852, 0.4912 0.3009 0.3867, 0.4901 0.3001 0.3881, 0.4823 0.3105 0.3764, 0.4838 0.3103 0.3766, 0.4848 0.3102 0.3767, 0.485 0.3093 0.3805, 0.4853 0.3101 0.3767, 0.4861 0.31 0.3768, 0.4821 0.3094 0.3811, 0.4818 0.3083 0.3832, 0.4832 0.3081 0.3837, 0.4818 0.3081 0.3835, 0.4816 0.3072 0.3853, 0.4814 0.3064 0.3862, 0.4825 0.306 0.3867, 0.4812 0.3055 0.3871, 0.4809 0.3042 0.3886, 0.4915 0.3072 0.3771, 0.4907 0.3078 0.3771, 0.4905 0.3075 0.379, 0.4896 0.3086 0.377, 0.4884 0.3091 0.377, 0.4888 0.3077 0.381, 0.49 0.3069 0.3811, 0.4843 0.3077 0.3841, 0.4855 0.3072 0.3845, 0.4866 0.3066 0.3848, 0.4877 0.3059 0.385, 0.4871 0.3031 0.3881, 0.4879 0.3042 0.3867, 0.4887 0.3052 0.3852, 0.4879 0.3024 0.3882, 0.4887 0.3017 0.3882, 0.4888 0.3035 0.3868, 0.4897 0.3027 0.3869, 0.4897 0.3044 0.3853, 0.4906 0.3036 0.3853, 0.4862 0.3038 0.3879, 0.4853 0.3044 0.3877, 0.484 0.302 0.39, 0.4825 0.2994 0.3916, 0.481 0.2966 0.3928, 0.4795 0.2938 0.3935, 0.4788 0.2944 0.3933, 0.4787 0.294 0.3933, -0.4844 -0.305 0.3874, -0.4835 -0.3055 0.3871, -0.4825 -0.303 0.3895, -0.4866 -0.3094 0.3787, -0.4863 -0.3089 0.3807, -0.4876 -0.3083 0.3809, -0.4879 -0.3089 0.3788, -0.4881 -0.3092 0.3769, -0.4867 -0.3097 0.3768, -0.4836 -0.3096 0.3802, -0.4801 -0.2931 0.3935, -0.4808 -0.2925 0.3935, -0.4855 -0.2965 0.3918, -0.4845 -0.2975 0.3919, -0.4823 -0.2953 0.3929, -0.4937 -0.2969 0.3857, -0.4925 -0.2965 0.3871, -0.4933 -0.2944 0.3861, -0.4927 -0.3057 0.3791, -0.4921 -0.3051 0.3812, -0.4939 -0.303 0.3811, -0.4926 -0.3063 0.3771, -0.4942 -0.3045 0.3771, -0.4945 -0.3034 0.379, -0.4949 -0.3037 0.3771, -0.4949 -0.3037 0.3771, -0.4959 -0.3009 0.3788, -0.4961 -0.3014 0.377, -0.4972 -0.2978 0.3767, -0.4971 -0.2983 0.3767, -0.4968 -0.2982 0.3786, -0.4966 -0.3003 0.3769, -0.4962 -0.3011 0.3769, -0.4975 -0.2966 0.3766, -0.4971 -0.2952 0.3781, -0.4975 -0.2953 0.3764, -0.4964 -0.2951 0.381, -0.4967 -0.2951 0.3798, -0.4963 -0.298 0.3805, -0.4968 -0.2952 0.3794, -0.4953 -0.3006 0.3809, -0.4914 -0.2983 0.3877, -0.4926 -0.299 0.3863, -0.4936 -0.2996 0.3848, -0.4947 -0.2973 0.3841, -0.4945 -0.3001 0.3829, -0.4955 -0.2977 0.3824, -0.4917 -0.294 0.3882, -0.4922 -0.2942 0.3875, -0.4913 -0.296 0.3884, -0.4925 -0.2942 0.3871, -0.4946 -0.2947 0.3846, -0.4951 -0.2948 0.3835, -0.4953 -0.2948 0.3832, -0.4961 -0.295 0.3816, -0.4879 -0.2983 0.3903, -0.489 -0.297 0.39, -0.49 -0.2955 0.3895, -0.4864 -0.2955 0.3916, -0.4872 -0.2944 0.3913, -0.4836 -0.294 0.3928, -0.4843 -0.2933 0.3926, -0.4853 -0.2926 0.3921, -0.488 -0.2932 0.391, -0.4892 -0.2935 0.39, -0.4909 -0.2939 0.3887, -0.4818 -0.3035 0.3892, -0.4815 -0.3002 0.3913, -0.4803 -0.2973 0.3926, -0.4867 -0.2996 0.3904, -0.4854 -0.3009 0.3903, -0.4835 -0.2984 0.3918, -0.4931 -0.3024 0.3833, -0.4922 -0.3017 0.3852, -0.4912 -0.3009 0.3867, -0.4901 -0.3001 0.3881, -0.4838 -0.3103 0.3766, -0.4848 -0.3102 0.3767, -0.485 -0.3093 0.3805, -0.4853 -0.3101 0.3767, -0.4861 -0.31 0.3768, -0.4832 -0.3081 0.3837, -0.4825 -0.306 0.3867, -0.4915 -0.3072 0.3771, -0.4907 -0.3078 0.3771, -0.4905 -0.3075 0.379, -0.4896 -0.3086 0.377, -0.4884 -0.3091 0.377, -0.4888 -0.3077 0.381, -0.49 -0.3069 0.3811, -0.4843 -0.3077 0.3841, -0.4855 -0.3072 0.3845, -0.4866 -0.3066 0.3848, -0.4877 -0.3059 0.385, -0.4871 -0.3031 0.3881, -0.4879 -0.3042 0.3867, -0.4887 -0.3052 0.3852, -0.4879 -0.3024 0.3882, -0.4887 -0.3017 0.3882, -0.4888 -0.3035 0.3868, -0.4897 -0.3027 0.3869, -0.4897 -0.3044 0.3853, -0.4906 -0.3036 0.3853, -0.4862 -0.3038 0.3879, -0.4853 -0.3044 0.3877, -0.484 -0.302 0.39, -0.481 -0.2917 0.3933, -0.4814 -0.2918 0.3932, -0.4834 -0.2922 0.3929, -0.4849 -0.2925 0.3923, -0.4825 -0.2994 0.3916, -0.481 -0.2966 0.3928, -0.4795 -0.2938 0.3935, -0.478 0.291 0.3937, -0.4372 0.291 0.3937, -0.4787 0.294 0.3933, -0.4076 0.291 0.3937, -0.2668 0.291 0.3937, -0.3661 0.291 0.3937, -0.3364 0.291 0.3937, -0.2979 0.291 0.3937, -0.4796 0.2978 0.3923, -0.4797 0.2983 0.3921, -0.4788 0.2944 0.3933, -0.4791 0.2958 0.3931, -0.4803 0.301 0.3909, -0.4806 0.3022 0.3901, -0.4802 0.3005 0.3913, -0.4813 0.3055 0.3871, -0.4813 0.3051 0.3875, -0.481 0.3039 0.3888, -0.4817 0.3074 0.3848, -0.4819 0.3081 0.3835, -0.4817 0.3071 0.3853, -0.4815 0.3063 0.3862, -0.4819 0.3082 0.3832, -0.4821 0.3095 0.3807, -0.4821 0.3091 0.3816, -0.4822 0.3098 0.3794, -0.4822 0.3097 0.3798, -0.4821 0.3094 0.3809, -0.4823 0.3105 0.3764, -0.4822 0.3101 0.3781, -0.4968 0.2952 0.3794, -0.4975 0.2953 0.3764, -0.4951 0.2949 0.3835, -0.4967 0.2952 0.3798, -0.4964 0.2951 0.381, -0.4952 0.2949 0.3832, -0.4941 0.2947 0.3853, -0.4909 0.294 0.3888, -0.4892 0.2936 0.39, -0.4911 0.294 0.3887, -0.4925 0.2943 0.3871, -0.4933 0.2945 0.3862, -0.488 0.2933 0.3908, -0.4867 0.293 0.3917, -0.4853 0.2927 0.3921, -0.4814 0.2918 0.3933, -0.4821 0.292 0.3932, -0.4848 0.2926 0.3923, -0.481 0.2917 0.3934, -0.492 0.2974 0.3874, -0.4925 0.2965 0.3871, -0.49 0.2955 0.3895, -0.4965 0.2996 0.3787, -0.4959 0.2993 0.3807, -0.4953 0.3006 0.3809, -0.4959 0.3009 0.3788, -0.4962 0.3011 0.3769, -0.4967 0.2997 0.3768, -0.4966 0.2966 0.3802, -0.4801 0.2931 0.3935, -0.4795 0.2938 0.3935, -0.4825 0.303 0.3895, -0.4835 0.2984 0.3918, -0.4845 0.2975 0.3919, -0.4823 0.2953 0.3929, -0.486 0.3056 0.3863, -0.4853 0.3044 0.3877, -0.4835 0.3055 0.3871, -0.4927 0.3057 0.3791, -0.4921 0.3051 0.3812, -0.49 0.3069 0.3811, -0.4934 0.3056 0.3771, -0.4916 0.3072 0.3771, -0.4905 0.3075 0.379, -0.4907 0.3079 0.3771, -0.4907 0.3079 0.3771, -0.4879 0.3089 0.3788, -0.4884 0.3091 0.377, -0.4848 0.3102 0.3767, -0.4853 0.3101 0.3767, -0.4852 0.3098 0.3786, -0.4873 0.3096 0.3769, -0.4881 0.3092 0.3769, -0.4836 0.3105 0.3766, -0.485 0.3093 0.3805, -0.4876 0.3083 0.3809, -0.4847 0.3085 0.3824, -0.4871 0.3075 0.3829, -0.4843 0.3077 0.3841, -0.4866 0.3066 0.3848, -0.484 0.3066 0.3857, -0.483 0.3043 0.3884, -0.4854 0.3009 0.3903, -0.484 0.302 0.39, -0.4825 0.2994 0.3916, -0.481 0.2966 0.3928, -0.4815 0.3002 0.3913, -0.4803 0.2973 0.3926, -0.4905 0.2948 0.3892, -0.4872 0.2944 0.3913, -0.4843 0.2933 0.3926, -0.4867 0.2996 0.3904, -0.4879 0.2983 0.3903, -0.4855 0.2965 0.3918, -0.4894 0.3061 0.3833, -0.4887 0.3052 0.3852, -0.4879 0.3042 0.3867, -0.4871 0.3031 0.3881, -0.4973 0.2968 0.3766, -0.4972 0.2978 0.3767, -0.4963 0.298 0.3805, -0.4971 0.2983 0.3767, -0.497 0.299 0.3768, -0.4951 0.2962 0.3837, -0.493 0.2955 0.3867, -0.4942 0.3045 0.3771, -0.4948 0.3037 0.3771, -0.4945 0.3034 0.379, -0.4956 0.3026 0.377, -0.4961 0.3014 0.377, -0.4947 0.3018 0.381, -0.4939 0.303 0.3811, -0.4947 0.2973 0.3841, -0.4942 0.2985 0.3845, -0.4936 0.2996 0.3848, -0.4929 0.3007 0.385, -0.4901 0.3001 0.3881, -0.4912 0.3009 0.3867, -0.4922 0.3017 0.3852, -0.4894 0.3009 0.3882, -0.4887 0.3017 0.3882, -0.4905 0.3018 0.3868, -0.4897 0.3027 0.3869, -0.4914 0.3027 0.3853, -0.4906 0.3036 0.3853, -0.4908 0.2992 0.3879, -0.4914 0.2983 0.3877, -0.489 0.297 0.39, -0.4864 0.2955 0.3916, -0.4836 0.294 0.3928, -0.4808 0.2925 0.3935
            ]
        }
        coordIndex [
            0,1,2,-1,3,4,0,-1,0,2,3,-1,3,2,5,-1,3,5,6,-1,6,5,7,-1,6,7,8,-1,8,7,9,-1,8,9,10,-1,10,9,11,-1,10,11,12,-1,12,11,13,-1,12,13,14,-1,14,13,15,-1,14,15,16,-1,17,18,19,-1,20,21,22,-1,23,24,25,-1,26,15,13,-1,27,28,29,-1,29,28,30,-1,29,30,31,-1,31,30,32,-1,31,32,33,-1,33,32,34,-1,33,34,35,-1,35,34,36,-1,35,36,37,-1,38,27,39,-1,39,27,29,-1,39,29,40,-1,40,29,31,-1,40,31,41,-1,41,31,33,-1,41,33,42,-1,42,33,35,-1,42,35,43,-1,43,35,37,-1,43,37,19,-1,44,45,46,-1,24,26,25,-1,25,26,13,-1,25,13,47,-1,47,13,11,-1,47,11,48,-1,48,11,9,-1,48,9,49,-1,49,9,7,-1,49,7,50,-1,50,7,5,-1,50,5,51,-1,51,5,2,-1,51,2,52,-1,52,2,1,-1,21,23,22,-1,22,23,25,-1,22,25,53,-1,53,25,47,-1,53,47,54,-1,54,47,48,-1,54,48,55,-1,55,48,49,-1,55,49,56,-1,56,49,50,-1,56,50,57,-1,57,50,51,-1,57,51,58,-1,58,51,52,-1,18,20,19,-1,19,20,22,-1,19,22,43,-1,43,22,53,-1,43,53,42,-1,42,53,54,-1,42,54,41,-1,41,54,55,-1,41,55,40,-1,40,55,56,-1,40,56,39,-1,39,56,57,-1,39,57,38,-1,38,57,58,-1,36,44,37,-1,37,44,46,-1,37,46,19,-1,19,46,59,-1,19,59,17,-1,28,60,30,-1,30,60,61,-1,30,61,32,-1,32,61,62,-1,32,62,34,-1,34,62,63,-1,34,63,36,-1,36,63,64,-1,36,64,44,-1,44,64,65,-1,44,65,45,-1,45,65,66,-1,45,66,67,-1,67,68,45,-1,45,68,69,-1,45,69,46,-1,46,69,70,-1,46,70,59,-1,71,72,73,-1,74,75,76,-1,77,78,79,-1,80,81,82,-1,83,84,85,-1,85,84,86,-1,85,86,87,-1,87,86,88,-1,87,88,89,-1,89,88,90,-1,89,90,91,-1,91,90,92,-1,91,92,93,-1,94,83,95,-1,95,83,85,-1,95,85,96,-1,96,85,87,-1,96,87,97,-1,97,87,89,-1,97,89,98,-1,98,89,91,-1,98,91,99,-1,99,91,93,-1,99,93,73,-1,100,101,102,-1,78,80,79,-1,79,80,82,-1,79,82,103,-1,103,82,104,-1,103,104,105,-1,105,104,106,-1,105,106,107,-1,107,106,108,-1,107,108,109,-1,109,108,110,-1,109,110,111,-1,111,110,112,-1,111,112,113,-1,113,112,114,-1,75,77,76,-1,76,77,79,-1,76,79,115,-1,115,79,103,-1,115,103,116,-1,116,103,105,-1,116,105,117,-1,117,105,107,-1,117,107,118,-1,118,107,109,-1,118,109,119,-1,119,109,111,-1,119,111,120,-1,120,111,113,-1,72,74,73,-1,73,74,76,-1,73,76,99,-1,99,76,115,-1,99,115,98,-1,98,115,116,-1,98,116,97,-1,97,116,117,-1,97,117,96,-1,96,117,118,-1,96,118,95,-1,95,118,119,-1,95,119,94,-1,94,119,120,-1,92,100,93,-1,93,100,102,-1,93,102,73,-1,73,102,121,-1,73,121,71,-1,84,4,86,-1,86,4,3,-1,86,3,88,-1,88,3,6,-1,88,6,90,-1,90,6,8,-1,90,8,92,-1,92,8,10,-1,92,10,100,-1,100,10,12,-1,100,12,101,-1,101,12,14,-1,101,14,16,-1,16,122,101,-1,101,122,123,-1,101,123,102,-1,102,123,124,-1,102,124,121,-1,125,126,127,-1,125,127,128,-1,128,127,129,-1,128,129,130,-1,130,129,131,-1,130,131,132,-1,132,131,133,-1,132,133,134,-1,134,133,135,-1,134,135,136,-1,136,135,137,-1,136,137,138,-1,138,137,139,-1,138,139,140,-1,141,142,143,-1,141,143,144,-1,144,143,145,-1,144,145,146,-1,146,145,147,-1,146,147,148,-1,148,147,149,-1,148,149,150,-1,150,149,151,-1,150,151,152,-1,152,151,153,-1,152,153,154,-1,154,153,155,-1,154,155,156,-1,157,158,159,-1,160,161,162,-1,163,164,165,-1,166,139,137,-1,167,168,169,-1,169,168,170,-1,169,170,171,-1,171,170,172,-1,171,172,173,-1,173,172,174,-1,173,174,175,-1,175,174,176,-1,175,176,177,-1,178,167,179,-1,179,167,169,-1,179,169,180,-1,180,169,171,-1,180,171,181,-1,181,171,173,-1,181,173,182,-1,182,173,175,-1,182,175,183,-1,183,175,177,-1,183,177,159,-1,184,185,186,-1,164,166,165,-1,165,166,137,-1,165,137,187,-1,187,137,135,-1,187,135,188,-1,188,135,133,-1,188,133,189,-1,189,133,131,-1,189,131,190,-1,190,131,129,-1,190,129,191,-1,191,129,127,-1,191,127,192,-1,192,127,126,-1,161,163,162,-1,162,163,165,-1,162,165,193,-1,193,165,187,-1,193,187,194,-1,194,187,188,-1,194,188,195,-1,195,188,189,-1,195,189,196,-1,196,189,190,-1,196,190,197,-1,197,190,191,-1,197,191,198,-1,198,191,192,-1,158,160,159,-1,159,160,162,-1,159,162,183,-1,183,162,193,-1,183,193,182,-1,182,193,194,-1,182,194,181,-1,181,194,195,-1,181,195,180,-1,180,195,196,-1,180,196,179,-1,179,196,197,-1,179,197,178,-1,178,197,198,-1,176,184,177,-1,177,184,186,-1,177,186,159,-1,159,186,199,-1,159,199,157,-1,168,200,170,-1,170,200,201,-1,170,201,172,-1,172,201,202,-1,172,202,174,-1,174,202,203,-1,174,203,176,-1,176,203,204,-1,176,204,184,-1,184,204,205,-1,184,205,185,-1,185,205,206,-1,185,206,207,-1,207,208,185,-1,185,208,209,-1,185,209,186,-1,186,209,210,-1,186,210,199,-1,211,212,213,-1,214,215,216,-1,217,218,219,-1,220,221,222,-1,223,224,225,-1,225,224,226,-1,225,226,227,-1,227,226,228,-1,227,228,229,-1,229,228,230,-1,229,230,231,-1,231,230,232,-1,231,232,233,-1,234,223,235,-1,235,223,225,-1,235,225,236,-1,236,225,227,-1,236,227,237,-1,237,227,229,-1,237,229,238,-1,238,229,231,-1,238,231,239,-1,239,231,233,-1,239,233,213,-1,240,241,242,-1,218,220,219,-1,219,220,222,-1,219,222,243,-1,243,222,244,-1,243,244,245,-1,245,244,246,-1,245,246,247,-1,247,246,248,-1,247,248,249,-1,249,248,250,-1,249,250,251,-1,251,250,252,-1,251,252,253,-1,253,252,254,-1,215,217,216,-1,216,217,219,-1,216,219,255,-1,255,219,243,-1,255,243,256,-1,256,243,245,-1,256,245,257,-1,257,245,247,-1,257,247,258,-1,258,247,249,-1,258,249,259,-1,259,249,251,-1,259,251,260,-1,260,251,253,-1,212,214,213,-1,213,214,216,-1,213,216,239,-1,239,216,255,-1,239,255,238,-1,238,255,256,-1,238,256,237,-1,237,256,257,-1,237,257,236,-1,236,257,258,-1,236,258,235,-1,235,258,259,-1,235,259,234,-1,234,259,260,-1,232,240,233,-1,233,240,242,-1,233,242,213,-1,213,242,261,-1,213,261,211,-1,224,141,226,-1,226,141,144,-1,226,144,228,-1,228,144,146,-1,228,146,230,-1,230,146,148,-1,230,148,232,-1,232,148,150,-1,232,150,240,-1,240,150,152,-1,240,152,241,-1,241,152,154,-1,241,154,156,-1,156,262,241,-1,241,262,263,-1,241,263,242,-1,242,263,264,-1,242,264,261,-1,265,254,252,-1,201,200,265,-1,265,252,201,-1,201,252,250,-1,201,250,202,-1,202,250,248,-1,202,248,203,-1,203,248,246,-1,203,246,204,-1,204,246,244,-1,204,244,205,-1,205,244,222,-1,205,222,206,-1,206,222,221,-1,206,221,207,-1,266,267,268,-1,269,270,271,-1,272,273,274,-1,275,276,277,-1,278,279,280,-1,281,282,283,-1,284,285,286,-1,287,288,289,-1,290,287,291,-1,291,287,292,-1,291,292,293,-1,293,292,294,-1,294,292,295,-1,294,295,296,-1,297,298,299,-1,299,298,300,-1,299,300,295,-1,295,300,301,-1,295,301,296,-1,297,299,302,-1,302,299,303,-1,302,303,304,-1,305,306,307,-1,307,306,308,-1,287,289,292,-1,292,289,309,-1,292,309,295,-1,295,309,307,-1,295,307,299,-1,299,307,308,-1,299,308,303,-1,310,285,311,-1,311,285,284,-1,311,284,312,-1,312,284,313,-1,312,313,314,-1,314,313,315,-1,316,317,318,-1,318,317,319,-1,286,320,284,-1,284,320,321,-1,284,321,313,-1,313,321,322,-1,313,322,315,-1,315,322,323,-1,282,281,324,-1,324,281,325,-1,324,325,310,-1,310,325,318,-1,310,318,285,-1,285,318,319,-1,285,319,286,-1,326,327,328,-1,328,327,329,-1,328,329,330,-1,330,331,328,-1,328,331,332,-1,328,332,326,-1,326,332,333,-1,326,333,334,-1,335,336,337,-1,338,339,340,-1,338,340,341,-1,342,343,344,-1,340,345,341,-1,341,345,346,-1,341,346,347,-1,314,348,312,-1,312,348,349,-1,312,349,311,-1,311,349,350,-1,311,350,310,-1,310,350,351,-1,310,351,324,-1,324,351,342,-1,324,342,282,-1,282,342,344,-1,282,344,283,-1,352,275,353,-1,353,275,277,-1,353,277,354,-1,354,277,355,-1,354,355,356,-1,270,269,355,-1,356,355,357,-1,357,355,269,-1,357,269,274,-1,358,359,360,-1,360,359,361,-1,362,363,364,-1,364,363,365,-1,364,365,335,-1,335,365,366,-1,335,366,336,-1,339,338,337,-1,337,338,268,-1,337,268,335,-1,335,268,267,-1,335,267,364,-1,367,368,369,-1,369,368,370,-1,369,370,272,-1,272,370,371,-1,272,371,273,-1,274,269,272,-1,272,269,271,-1,272,271,369,-1,369,271,372,-1,369,372,373,-1,276,358,277,-1,277,358,360,-1,277,360,355,-1,355,360,374,-1,355,374,270,-1,270,374,375,-1,270,375,271,-1,271,375,376,-1,271,376,372,-1,372,376,377,-1,372,377,373,-1,378,379,377,-1,377,379,380,-1,377,380,373,-1,381,382,383,-1,383,382,384,-1,383,384,385,-1,385,384,386,-1,385,386,288,-1,378,381,379,-1,379,381,383,-1,379,383,380,-1,380,383,385,-1,380,385,373,-1,373,385,288,-1,373,288,369,-1,369,288,287,-1,369,287,367,-1,367,287,290,-1,387,388,389,-1,389,388,266,-1,279,390,280,-1,280,390,391,-1,280,391,329,-1,329,391,392,-1,329,392,330,-1,330,392,393,-1,330,393,331,-1,278,280,283,-1,283,280,329,-1,283,329,281,-1,281,329,327,-1,281,327,325,-1,325,327,326,-1,325,326,318,-1,318,326,334,-1,318,334,316,-1,266,268,389,-1,389,268,338,-1,389,338,394,-1,394,338,341,-1,394,341,395,-1,395,341,347,-1,395,347,396,-1,396,347,397,-1,396,397,398,-1,387,389,343,-1,343,389,394,-1,343,394,344,-1,344,394,395,-1,344,395,283,-1,283,395,396,-1,283,396,278,-1,278,396,398,-1,278,398,279,-1,361,362,360,-1,360,362,364,-1,360,364,374,-1,374,364,267,-1,374,267,375,-1,375,267,266,-1,375,266,376,-1,376,266,388,-1,376,388,377,-1,377,388,387,-1,377,387,378,-1,378,387,343,-1,378,343,381,-1,381,343,342,-1,381,342,382,-1,382,342,351,-1,382,351,384,-1,384,351,350,-1,384,350,386,-1,386,350,349,-1,386,349,288,-1,288,349,348,-1,288,348,289,-1,289,348,314,-1,289,314,309,-1,309,314,315,-1,309,315,307,-1,307,315,323,-1,307,323,305,-1,399,397,347,-1,400,279,401,-1,401,279,398,-1,401,398,402,-1,402,398,403,-1,397,399,398,-1,398,399,404,-1,398,404,403,-1,345,340,405,-1,405,340,406,-1,347,346,399,-1,399,346,345,-1,399,345,407,-1,407,345,405,-1,408,337,409,-1,409,337,336,-1,340,339,406,-1,406,339,337,-1,406,337,410,-1,410,337,408,-1,411,412,413,-1,336,366,409,-1,409,366,365,-1,409,365,413,-1,413,365,363,-1,413,363,411,-1,411,363,414,-1,415,361,416,-1,416,361,417,-1,363,362,414,-1,414,362,361,-1,414,361,418,-1,418,361,415,-1,417,361,419,-1,419,361,359,-1,419,359,358,-1,275,352,420,-1,358,276,419,-1,419,276,275,-1,419,275,421,-1,421,275,420,-1,422,423,304,-1,304,303,422,-1,422,303,308,-1,422,308,424,-1,424,308,425,-1,305,426,306,-1,306,426,427,-1,306,427,308,-1,308,427,428,-1,308,428,425,-1,429,321,320,-1,429,320,430,-1,305,323,426,-1,426,323,322,-1,426,322,427,-1,427,322,321,-1,427,321,431,-1,431,321,429,-1,432,319,433,-1,433,319,317,-1,433,317,316,-1,320,286,430,-1,430,286,319,-1,430,319,434,-1,434,319,432,-1,316,334,433,-1,433,334,333,-1,433,333,435,-1,435,333,332,-1,435,332,436,-1,436,332,331,-1,436,331,437,-1,438,439,331,-1,331,439,440,-1,331,440,437,-1,438,331,441,-1,441,331,393,-1,441,393,392,-1,392,391,441,-1,441,391,390,-1,441,390,442,-1,442,390,279,-1,442,443,441,-1,441,443,444,-1,441,444,445,-1,445,446,441,-1,441,446,447,-1,441,447,448,-1,449,450,451,-1,452,453,454,-1,455,456,457,-1,458,459,460,-1,461,400,462,-1,406,410,463,-1,464,465,466,-1,467,468,469,-1,470,471,472,-1,473,470,474,-1,474,470,475,-1,474,475,476,-1,476,475,477,-1,477,475,478,-1,477,478,479,-1,480,481,482,-1,482,481,483,-1,482,483,478,-1,478,483,484,-1,478,484,479,-1,480,482,485,-1,485,482,421,-1,485,421,420,-1,416,417,486,-1,486,417,419,-1,470,472,475,-1,475,472,487,-1,475,487,478,-1,478,487,486,-1,478,486,482,-1,482,486,419,-1,482,419,421,-1,488,489,490,-1,490,489,491,-1,490,491,492,-1,492,491,467,-1,493,408,409,-1,467,469,492,-1,492,469,413,-1,492,413,412,-1,412,411,492,-1,492,411,414,-1,492,414,490,-1,490,414,418,-1,490,418,488,-1,488,418,415,-1,465,464,494,-1,494,464,495,-1,494,495,468,-1,468,495,493,-1,468,493,469,-1,469,493,409,-1,469,409,413,-1,496,497,498,-1,498,497,499,-1,496,498,463,-1,463,498,405,-1,463,405,406,-1,499,399,498,-1,498,399,407,-1,498,407,405,-1,500,501,502,-1,503,504,505,-1,503,505,506,-1,507,508,509,-1,505,510,506,-1,506,510,511,-1,506,511,512,-1,489,513,491,-1,491,513,514,-1,491,514,467,-1,467,514,515,-1,467,515,468,-1,468,515,516,-1,468,516,494,-1,494,516,507,-1,494,507,465,-1,465,507,509,-1,465,509,466,-1,517,458,518,-1,518,458,460,-1,518,460,519,-1,519,460,520,-1,519,520,521,-1,453,452,520,-1,521,520,522,-1,522,520,452,-1,522,452,457,-1,523,524,525,-1,525,524,526,-1,527,528,529,-1,529,528,530,-1,529,530,500,-1,500,530,531,-1,500,531,501,-1,504,503,502,-1,502,503,451,-1,502,451,500,-1,500,451,450,-1,500,450,529,-1,532,533,534,-1,534,533,535,-1,534,535,455,-1,455,535,536,-1,455,536,456,-1,457,452,455,-1,455,452,454,-1,455,454,534,-1,534,454,537,-1,534,537,538,-1,459,523,460,-1,460,523,525,-1,460,525,520,-1,520,525,539,-1,520,539,453,-1,453,539,540,-1,453,540,454,-1,454,540,541,-1,454,541,537,-1,537,541,542,-1,537,542,538,-1,543,544,542,-1,542,544,545,-1,542,545,538,-1,546,547,548,-1,548,547,549,-1,548,549,550,-1,550,549,551,-1,550,551,471,-1,543,546,544,-1,544,546,548,-1,544,548,545,-1,545,548,550,-1,545,550,538,-1,538,550,471,-1,538,471,534,-1,534,471,470,-1,534,470,532,-1,532,470,473,-1,552,553,554,-1,554,553,449,-1,400,401,462,-1,462,401,402,-1,462,402,497,-1,497,402,403,-1,497,403,499,-1,499,403,404,-1,499,404,399,-1,461,462,466,-1,466,462,497,-1,466,497,464,-1,464,497,496,-1,464,496,495,-1,495,496,463,-1,495,463,493,-1,493,463,410,-1,493,410,408,-1,449,451,554,-1,554,451,503,-1,554,503,555,-1,555,503,506,-1,555,506,556,-1,556,506,512,-1,556,512,557,-1,557,512,558,-1,557,558,559,-1,552,554,508,-1,508,554,555,-1,508,555,509,-1,509,555,556,-1,509,556,466,-1,466,556,557,-1,466,557,461,-1,461,557,559,-1,461,559,400,-1,526,527,525,-1,525,527,529,-1,525,529,539,-1,539,529,450,-1,539,450,540,-1,540,450,449,-1,540,449,541,-1,541,449,553,-1,541,553,542,-1,542,553,552,-1,542,552,543,-1,543,552,508,-1,543,508,546,-1,546,508,507,-1,546,507,547,-1,547,507,516,-1,547,516,549,-1,549,516,515,-1,549,515,551,-1,551,515,514,-1,551,514,471,-1,471,514,513,-1,471,513,472,-1,472,513,489,-1,472,489,487,-1,487,489,488,-1,487,488,486,-1,486,488,415,-1,486,415,416,-1,560,561,562,-1,563,564,565,-1,566,567,568,-1,422,424,569,-1,570,448,571,-1,572,573,574,-1,575,576,577,-1,578,579,580,-1,581,578,582,-1,582,578,583,-1,582,583,584,-1,584,583,585,-1,585,583,586,-1,585,586,587,-1,588,589,590,-1,590,589,591,-1,590,591,586,-1,586,591,592,-1,586,592,587,-1,588,590,593,-1,593,590,594,-1,593,594,595,-1,596,597,598,-1,598,597,599,-1,578,580,583,-1,583,580,600,-1,583,600,586,-1,586,600,598,-1,586,598,590,-1,590,598,599,-1,590,599,594,-1,601,576,602,-1,602,576,575,-1,602,575,603,-1,603,575,604,-1,603,604,605,-1,605,604,606,-1,607,608,609,-1,609,608,610,-1,577,611,575,-1,575,611,612,-1,575,612,604,-1,604,612,613,-1,604,613,606,-1,606,613,614,-1,573,572,615,-1,615,572,616,-1,615,616,601,-1,601,616,609,-1,601,609,576,-1,576,609,610,-1,576,610,577,-1,617,618,619,-1,619,618,620,-1,619,620,621,-1,621,622,619,-1,619,622,623,-1,619,623,617,-1,617,623,624,-1,617,624,625,-1,626,432,433,-1,627,435,436,-1,627,436,628,-1,629,630,631,-1,436,437,628,-1,628,437,440,-1,628,440,439,-1,605,632,603,-1,603,632,633,-1,603,633,602,-1,602,633,634,-1,602,634,601,-1,601,634,635,-1,601,635,615,-1,615,635,629,-1,615,629,573,-1,573,629,631,-1,573,631,574,-1,423,422,636,-1,636,422,569,-1,636,569,637,-1,637,569,638,-1,637,638,639,-1,564,563,638,-1,639,638,640,-1,640,638,563,-1,640,563,568,-1,425,428,641,-1,641,428,427,-1,431,429,642,-1,642,429,430,-1,642,430,626,-1,626,430,434,-1,626,434,432,-1,435,627,433,-1,433,627,562,-1,433,562,626,-1,626,562,561,-1,626,561,642,-1,643,644,645,-1,645,644,646,-1,645,646,566,-1,566,646,647,-1,566,647,567,-1,568,563,566,-1,566,563,565,-1,566,565,645,-1,645,565,648,-1,645,648,649,-1,424,425,569,-1,569,425,641,-1,569,641,638,-1,638,641,650,-1,638,650,564,-1,564,650,651,-1,564,651,565,-1,565,651,652,-1,565,652,648,-1,648,652,653,-1,648,653,649,-1,654,655,653,-1,653,655,656,-1,653,656,649,-1,657,658,659,-1,659,658,660,-1,659,660,661,-1,661,660,662,-1,661,662,579,-1,654,657,655,-1,655,657,659,-1,655,659,656,-1,656,659,661,-1,656,661,649,-1,649,661,579,-1,649,579,645,-1,645,579,578,-1,645,578,643,-1,643,578,581,-1,663,664,665,-1,665,664,560,-1,448,666,571,-1,571,666,667,-1,571,667,620,-1,620,667,668,-1,620,668,621,-1,621,668,669,-1,621,669,622,-1,570,571,574,-1,574,571,620,-1,574,620,572,-1,572,620,618,-1,572,618,616,-1,616,618,617,-1,616,617,609,-1,609,617,625,-1,609,625,607,-1,560,562,665,-1,665,562,627,-1,665,627,670,-1,670,627,628,-1,670,628,671,-1,671,628,439,-1,671,439,672,-1,672,439,438,-1,672,438,441,-1,663,665,630,-1,630,665,670,-1,630,670,631,-1,631,670,671,-1,631,671,574,-1,574,671,672,-1,574,672,570,-1,570,672,441,-1,570,441,448,-1,427,431,641,-1,641,431,642,-1,641,642,650,-1,650,642,561,-1,650,561,651,-1,651,561,560,-1,651,560,652,-1,652,560,664,-1,652,664,653,-1,653,664,663,-1,653,663,654,-1,654,663,630,-1,654,630,657,-1,657,630,629,-1,657,629,658,-1,658,629,635,-1,658,635,660,-1,660,635,634,-1,660,634,662,-1,662,634,633,-1,662,633,579,-1,579,633,632,-1,579,632,580,-1,580,632,605,-1,580,605,600,-1,600,605,606,-1,600,606,598,-1,598,606,614,-1,598,614,596,-1,673,674,675,-1,675,674,676,-1,677,400,559,-1,676,678,675,-1,675,678,679,-1,675,679,680,-1,681,559,682,-1,682,559,558,-1,680,677,675,-1,675,677,559,-1,675,559,683,-1,683,559,681,-1,683,681,684,-1,510,505,685,-1,685,505,686,-1,685,687,510,-1,510,687,682,-1,510,682,511,-1,511,682,558,-1,511,558,512,-1,688,689,502,-1,502,501,688,-1,688,501,531,-1,688,531,530,-1,505,504,686,-1,686,504,502,-1,686,502,690,-1,690,502,689,-1,691,530,692,-1,692,530,528,-1,691,693,530,-1,530,693,694,-1,530,694,688,-1,528,527,692,-1,692,527,526,-1,692,526,695,-1,695,526,696,-1,695,696,697,-1,524,698,526,-1,526,698,699,-1,526,699,696,-1,696,699,700,-1,696,700,697,-1,458,517,701,-1,701,702,458,-1,458,702,698,-1,458,698,459,-1,459,698,524,-1,459,524,523,-1,703,704,595,-1,613,612,705,-1,613,705,614,-1,595,594,703,-1,703,594,599,-1,703,599,706,-1,706,599,707,-1,596,614,597,-1,597,614,705,-1,597,705,599,-1,599,705,708,-1,599,708,707,-1,612,611,705,-1,705,611,577,-1,705,577,709,-1,710,610,711,-1,711,610,608,-1,608,607,625,-1,710,712,610,-1,610,712,713,-1,610,713,577,-1,577,713,714,-1,577,714,709,-1,608,625,711,-1,711,625,624,-1,711,624,715,-1,715,624,623,-1,715,623,716,-1,716,623,622,-1,716,622,717,-1,718,719,622,-1,622,719,720,-1,622,720,717,-1,668,667,721,-1,718,622,721,-1,721,622,669,-1,721,669,668,-1,667,666,721,-1,721,666,448,-1,721,448,673,-1,722,723,724,-1,725,726,727,-1,728,729,730,-1,703,706,731,-1,732,673,733,-1,686,690,734,-1,735,736,737,-1,738,739,740,-1,741,742,743,-1,744,741,745,-1,745,741,746,-1,745,746,747,-1,747,746,748,-1,748,746,749,-1,748,749,750,-1,751,752,753,-1,753,752,754,-1,753,754,749,-1,749,754,755,-1,749,755,750,-1,751,753,756,-1,756,753,702,-1,756,702,701,-1,700,699,757,-1,757,699,698,-1,741,743,746,-1,746,743,758,-1,746,758,749,-1,749,758,757,-1,749,757,753,-1,753,757,698,-1,753,698,702,-1,759,760,761,-1,761,760,762,-1,761,762,763,-1,763,762,738,-1,764,689,688,-1,738,740,763,-1,763,740,694,-1,763,694,693,-1,693,691,763,-1,763,691,692,-1,763,692,761,-1,761,692,695,-1,761,695,759,-1,759,695,697,-1,736,735,765,-1,765,735,766,-1,765,766,739,-1,739,766,764,-1,739,764,740,-1,740,764,688,-1,740,688,694,-1,767,768,769,-1,769,768,770,-1,767,769,734,-1,734,769,685,-1,734,685,686,-1,770,682,769,-1,769,682,687,-1,769,687,685,-1,771,710,711,-1,772,715,716,-1,772,716,773,-1,774,775,776,-1,716,717,773,-1,773,717,720,-1,773,720,719,-1,760,777,762,-1,762,777,778,-1,762,778,738,-1,738,778,779,-1,738,779,739,-1,739,779,780,-1,739,780,765,-1,765,780,774,-1,765,774,736,-1,736,774,776,-1,736,776,737,-1,704,703,781,-1,781,703,731,-1,781,731,782,-1,782,731,783,-1,782,783,784,-1,726,725,783,-1,784,783,785,-1,785,783,725,-1,785,725,730,-1,707,708,786,-1,786,708,705,-1,709,714,787,-1,787,714,713,-1,787,713,771,-1,771,713,712,-1,771,712,710,-1,715,772,711,-1,711,772,724,-1,711,724,771,-1,771,724,723,-1,771,723,787,-1,788,789,790,-1,790,789,791,-1,790,791,728,-1,728,791,792,-1,728,792,729,-1,730,725,728,-1,728,725,727,-1,728,727,790,-1,790,727,793,-1,790,793,794,-1,706,707,731,-1,731,707,786,-1,731,786,783,-1,783,786,795,-1,783,795,726,-1,726,795,796,-1,726,796,727,-1,727,796,797,-1,727,797,793,-1,793,797,798,-1,793,798,794,-1,799,800,798,-1,798,800,801,-1,798,801,794,-1,802,803,804,-1,804,803,805,-1,804,805,806,-1,806,805,807,-1,806,807,742,-1,799,802,800,-1,800,802,804,-1,800,804,801,-1,801,804,806,-1,801,806,794,-1,794,806,742,-1,794,742,790,-1,790,742,741,-1,790,741,788,-1,788,741,744,-1,808,809,810,-1,810,809,722,-1,673,675,733,-1,733,675,683,-1,733,683,768,-1,768,683,684,-1,768,684,770,-1,770,684,681,-1,770,681,682,-1,732,733,737,-1,737,733,768,-1,737,768,735,-1,735,768,767,-1,735,767,766,-1,766,767,734,-1,766,734,764,-1,764,734,690,-1,764,690,689,-1,722,724,810,-1,810,724,772,-1,810,772,811,-1,811,772,773,-1,811,773,812,-1,812,773,719,-1,812,719,813,-1,813,719,718,-1,813,718,721,-1,808,810,775,-1,775,810,811,-1,775,811,776,-1,776,811,812,-1,776,812,737,-1,737,812,813,-1,737,813,732,-1,732,813,721,-1,732,721,673,-1,705,709,786,-1,786,709,787,-1,786,787,795,-1,795,787,723,-1,795,723,796,-1,796,723,722,-1,796,722,797,-1,797,722,809,-1,797,809,798,-1,798,809,808,-1,798,808,799,-1,799,808,775,-1,799,775,802,-1,802,775,774,-1,802,774,803,-1,803,774,780,-1,803,780,805,-1,805,780,779,-1,805,779,807,-1,807,779,778,-1,807,778,742,-1,742,778,777,-1,742,777,743,-1,743,777,760,-1,743,760,758,-1,758,760,759,-1,758,759,757,-1,757,759,697,-1,757,697,700,-1,
        ]
    }
}
Shape{
    appearance Appearance {
        material  Material 	{
            diffuseColor 0.6666666666666666 0.6666666666666666 0.6666666666666666
            specularColor 0.4666666666666667 0.4666666666666667 0.4666666666666667
            ambientIntensity 0.6667
            transparency 0.0
            shininess 0.5
        }
    }
    geometry IndexedFaceSet {
        ccw TRUE
        solid FALSE
        coord DEF co Coordinate {
            point [
                -0.536 0.187 0.063, -0.7185 0.187 0.063, -0.536 -0.187 0.063, -0.7185 -0.187 0.063, -0.5386 0.187 0.037, -0.5375 0.187 0.0324, -0.7185 0.187 0.0, -0.5386 0.187 0.0418, -0.5353 0.187 0.0282, -0.5322 0.187 0.0246, -0.5282 0.187 0.0219, -0.4035 0.187 0.0197, -0.4035 0.187 0.0, -0.5191 0.187 0.0197, -0.5238 0.187 0.0203, -0.5238 -0.187 0.0203, -0.5282 -0.187 0.0219, -0.7185 -0.187 0.0, -0.5322 -0.187 0.0246, -0.5353 -0.187 0.0282, -0.5375 -0.187 0.0324, -0.5386 -0.187 0.037, -0.5386 -0.187 0.0418, -0.5191 -0.187 0.0197, -0.4035 -0.187 0.0, -0.4035 -0.187 0.0197, -0.4035 -0.0442 0.0197, 0.7185 -0.187 0.063, 0.7185 0.187 0.063, 0.536 -0.187 0.063, 0.536 0.187 0.063, 0.7185 0.187 0.0, 0.7185 -0.187 0.0, 0.4035 0.187 0.0, 0.4035 -0.187 0.0, 0.4035 0.187 0.0197, 0.4035 -0.0442 0.0197, 0.4035 -0.187 0.0197, 0.5238 0.187 0.0203, 0.5282 0.187 0.0219, 0.5322 0.187 0.0246, 0.5353 0.187 0.0282, 0.5375 0.187 0.0324, 0.5386 0.187 0.037, 0.5386 0.187 0.0418, 0.5191 0.187 0.0197, 0.5386 -0.187 0.037, 0.5375 -0.187 0.0324, 0.5386 -0.187 0.0418, 0.5353 -0.187 0.0282, 0.5322 -0.187 0.0246, 0.5282 -0.187 0.0219, 0.5191 -0.187 0.0197, 0.5238 -0.187 0.0203
            ]
        }
        coordIndex [
            0,1,2,-1,2,1,3,-1,4,5,6,-1,4,6,7,-1,7,6,1,-1,7,1,0,-1,5,8,6,-1,6,8,9,-1,6,9,10,-1,11,12,13,-1,13,12,6,-1,13,6,14,-1,14,6,10,-1,15,16,17,-1,17,16,18,-1,17,18,19,-1,19,20,17,-1,17,20,21,-1,17,21,3,-1,3,21,22,-1,3,22,2,-1,15,17,23,-1,23,17,24,-1,23,24,25,-1,1,6,3,-1,3,6,17,-1,25,24,26,-1,26,24,12,-1,26,12,11,-1,6,12,17,-1,17,12,24,-1,27,28,29,-1,29,28,30,-1,31,28,32,-1,32,28,27,-1,33,31,34,-1,34,31,32,-1,35,33,36,-1,36,33,34,-1,36,34,37,-1,38,39,31,-1,31,39,40,-1,31,40,41,-1,41,42,31,-1,31,42,43,-1,31,43,28,-1,28,43,44,-1,28,44,30,-1,38,31,45,-1,45,31,33,-1,45,33,35,-1,46,47,32,-1,46,32,48,-1,48,32,27,-1,48,27,29,-1,47,49,32,-1,32,49,50,-1,32,50,51,-1,37,34,52,-1,52,34,32,-1,52,32,53,-1,53,32,51,-1,
        ]
    }
}
Shape{
    appearance Appearance {
        material  Material 	{
            diffuseColor 1.0 1.0 1.0
            specularColor 0.8784313725490196 0.8784313725490196 0.8784313725490196
            ambientIntensity 1.0
            transparency 0.0
            shininess 0.5
        }
    }
    geometry IndexedFaceSet {
        ccw TRUE
        solid FALSE
        coord DEF co Coordinate {
            point [
                -0.1335 0.035 0.0394, -0.1642 -0.0437 0.0394, -0.1335 0.035 0.0197, -0.1642 -0.0437 0.0197, -0.1527 -0.0437 0.0394, -0.1527 -0.0437 0.0197, -0.1447 -0.0216 0.0394, -0.1447 -0.0216 0.0197, -0.1122 -0.0216 0.0394, -0.1122 -0.0216 0.0197, -0.1047 -0.0437 0.0394, -0.1047 -0.0437 0.0197, -0.0931 -0.0437 0.0394, -0.0931 -0.0437 0.0197, -0.1229 0.035 0.0394, -0.1229 0.035 0.0197, -0.1148 -0.013 0.0394, -0.1412 -0.013 0.0394, -0.1266 0.0199 0.0394, -0.1273 0.0226 0.0394, -0.1278 0.0254 0.0394, -0.1281 0.0254 0.0394, -0.1286 0.0226 0.0394, -0.1293 0.0199 0.0394, -0.1148 -0.013 0.0197, -0.1412 -0.013 0.0197, -0.1266 0.0199 0.0197, -0.1273 0.0226 0.0197, -0.1278 0.0254 0.0197, -0.1281 0.0254 0.0197, -0.1286 0.0226 0.0197, -0.1293 0.0199 0.0197, -0.0454 -0.0437 0.0394, -0.024 -0.0437 0.0394, -0.0454 -0.0437 0.0197, -0.024 -0.0437 0.0197, -0.024 0.035 0.0394, -0.024 0.035 0.0197, -0.0462 0.035 0.0394, -0.0462 0.035 0.0197, -0.0874 -0.0034 0.0394, -0.0874 -0.0034 0.0197, -0.0868 0.004 0.0197, -0.0868 0.004 0.0394, -0.0847 0.0118 0.0197, -0.0847 0.0118 0.0394, -0.081 0.0186 0.0197, -0.081 0.0186 0.0394, -0.0755 0.0248 0.0197, -0.0755 0.0248 0.0394, -0.0754 0.0248 0.0197, -0.0754 0.0248 0.0394, -0.0668 0.0306 0.0197, -0.0668 0.0306 0.0394, -0.0576 0.0338 0.0197, -0.0576 0.0338 0.0394, -0.0552 -0.0429 0.0197, -0.0552 -0.0429 0.0394, -0.0642 -0.0402 0.0197, -0.0642 -0.0402 0.0394, -0.0725 -0.0354 0.0197, -0.0725 -0.0354 0.0394, -0.0789 -0.0292 0.0197, -0.0789 -0.0292 0.0394, -0.0835 -0.0221 0.0197, -0.0835 -0.0221 0.0394, -0.0863 -0.0139 0.0197, -0.0863 -0.0139 0.0394, -0.0716 0.0153 0.0394, -0.0678 0.0194 0.0394, -0.062 0.0231 0.0394, -0.0555 0.0254 0.0394, -0.0462 0.0264 0.0394, -0.0346 0.0264 0.0394, -0.0346 -0.0351 0.0394, -0.0457 -0.0351 0.0394, -0.0541 -0.0343 0.0394, -0.0607 -0.0322 0.0394, -0.066 -0.029 0.0394, -0.0705 -0.0247 0.0394, -0.0738 -0.0193 0.0394, -0.0761 -0.0119 0.0394, -0.0768 -0.0036 0.0394, -0.0762 0.0043 0.0394, -0.0743 0.0105 0.0394, -0.0462 0.0264 0.0197, -0.0346 0.0264 0.0197, -0.0555 0.0254 0.0197, -0.062 0.0231 0.0197, -0.0678 0.0194 0.0197, -0.0716 0.0153 0.0197, -0.0743 0.0105 0.0197, -0.0762 0.0043 0.0197, -0.0768 -0.0036 0.0197, -0.0761 -0.0119 0.0197, -0.0738 -0.0193 0.0197, -0.0705 -0.0247 0.0197, -0.066 -0.029 0.0197, -0.0607 -0.0322 0.0197, -0.0541 -0.0343 0.0197, -0.0457 -0.0351 0.0197, -0.0346 -0.0351 0.0197, -0.0086 -0.0351 0.0394, -0.0086 -0.0437 0.0394, -0.0086 -0.0351 0.0197, -0.0086 -0.0437 0.0197, 0.0336 -0.0437 0.0394, 0.0336 -0.0437 0.0197, 0.0336 0.035 0.0394, 0.0336 0.035 0.0197, -0.0067 0.035 0.0394, -0.0067 0.035 0.0197, -0.0067 0.0264 0.0394, -0.0067 0.0264 0.0197, 0.023 0.0264 0.0394, 0.023 0.0264 0.0197, 0.023 0.0005 0.0394, 0.023 0.0005 0.0197, -0.0048 0.0005 0.0394, -0.0048 0.0005 0.0197, -0.0048 -0.0082 0.0394, -0.0048 -0.0082 0.0197, 0.023 -0.0082 0.0394, 0.023 -0.0082 0.0197, 0.023 -0.0351 0.0394, 0.023 -0.0351 0.0197, 0.049 -0.031 0.0394, 0.049 -0.0396 0.0394, 0.049 -0.031 0.0197, 0.049 -0.0396 0.0197, 0.0574 -0.0431 0.0394, 0.0706 -0.0447 0.0394, 0.0706 -0.0447 0.0197, 0.0685 -0.0446 0.0197, 0.0685 -0.0446 0.0394, 0.0653 -0.0442 0.0197, 0.0574 -0.0431 0.0197, 0.0753 -0.0442 0.0197, 0.0803 -0.0437 0.0394, 0.0803 -0.0437 0.0197, 0.088 -0.041 0.0394, 0.088 -0.041 0.0197, 0.0943 -0.037 0.0394, 0.0943 -0.037 0.0197, 0.1002 -0.0308 0.0394, 0.1002 -0.0308 0.0197, 0.1044 -0.0233 0.0394, 0.1044 -0.0233 0.0197, 0.1068 -0.015 0.0394, 0.1068 -0.015 0.0197, 0.1075 -0.0058 0.0394, 0.1075 -0.0058 0.0197, 0.0675 0.036 0.0394, 0.0675 0.036 0.0197, 0.0754 0.0353 0.0197, 0.0754 0.0353 0.0394, 0.0842 0.0328 0.0197, 0.0842 0.0328 0.0394, 0.0917 0.0285 0.0197, 0.0917 0.0285 0.0394, 0.0988 0.0216 0.0197, 0.0988 0.0216 0.0394, 0.1034 0.0143 0.0197, 0.1034 0.0143 0.0394, 0.1064 0.0054 0.0197, 0.1064 0.0054 0.0394, 0.049 0.0329 0.0394, 0.049 0.0329 0.0197, 0.0581 0.0353 0.0197, 0.0581 0.0353 0.0394, 0.049 0.0223 0.0394, 0.049 0.0223 0.0197, 0.0674 0.0273 0.0394, 0.0674 0.0273 0.0197, 0.0578 0.0261 0.0197, 0.0578 0.0261 0.0394, 0.097 -0.0052 0.0394, 0.097 -0.0052 0.0197, 0.0966 0.0009 0.0197, 0.0966 0.0009 0.0394, 0.0945 0.0094 0.0197, 0.0945 0.0094 0.0394, 0.0913 0.0154 0.0197, 0.0913 0.0154 0.0394, 0.0865 0.0207 0.0197, 0.0865 0.0207 0.0394, 0.0811 0.0243 0.0197, 0.0811 0.0243 0.0394, 0.0752 0.0265 0.0197, 0.0752 0.0265 0.0394, 0.0692 -0.036 0.0394, 0.0692 -0.036 0.0197, 0.0765 -0.0352 0.0197, 0.0765 -0.0352 0.0394, 0.0823 -0.0331 0.0197, 0.0823 -0.0331 0.0394, 0.0871 -0.0298 0.0197, 0.0871 -0.0298 0.0394, 0.0908 -0.0259 0.0197, 0.0908 -0.0259 0.0394, 0.094 -0.0205 0.0197, 0.094 -0.0205 0.0394, 0.0962 -0.0137 0.0197, 0.0962 -0.0137 0.0394, 0.0504 -0.0318 0.0197, 0.0504 -0.0318 0.0394, 0.0587 -0.0349 0.0197, 0.0587 -0.0349 0.0394, 0.1143 -0.0351 0.0394, 0.1143 -0.0437 0.0394, 0.1143 -0.0351 0.0197, 0.1143 -0.0437 0.0197, 0.1546 -0.0437 0.0394, 0.1546 -0.0437 0.0197, 0.1546 0.035 0.0394, 0.1546 0.035 0.0197, 0.144 0.035 0.0394, 0.144 0.035 0.0197, 0.144 -0.0351 0.0394, 0.144 -0.0351 0.0197
            ]
        }
        coordIndex [
            0,1,2,-1,2,1,3,-1,1,4,3,-1,3,4,5,-1,4,6,5,-1,5,6,7,-1,6,8,7,-1,7,8,9,-1,8,10,9,-1,9,10,11,-1,10,12,11,-1,11,12,13,-1,12,14,13,-1,13,14,15,-1,14,0,15,-1,15,0,2,-1,16,8,17,-1,17,8,6,-1,18,14,16,-1,16,14,12,-1,16,12,8,-1,8,12,10,-1,18,19,14,-1,14,19,20,-1,14,20,0,-1,0,20,21,-1,0,21,22,-1,22,23,0,-1,0,23,17,-1,0,17,1,-1,1,17,6,-1,1,6,4,-1,16,17,24,-1,24,17,25,-1,18,16,26,-1,26,16,24,-1,18,26,27,-1,18,27,19,-1,19,27,28,-1,19,28,20,-1,21,20,29,-1,29,20,28,-1,21,29,30,-1,21,30,22,-1,22,30,31,-1,22,31,23,-1,17,23,25,-1,25,23,31,-1,32,33,34,-1,34,33,35,-1,33,36,35,-1,35,36,37,-1,36,38,37,-1,37,38,39,-1,40,41,42,-1,40,42,43,-1,43,42,44,-1,43,44,45,-1,45,44,46,-1,45,46,47,-1,47,46,48,-1,47,48,49,-1,49,48,50,-1,49,50,51,-1,51,50,52,-1,51,52,53,-1,53,52,54,-1,53,54,55,-1,55,54,39,-1,55,39,38,-1,32,34,56,-1,32,56,57,-1,57,56,58,-1,57,58,59,-1,59,58,60,-1,59,60,61,-1,61,60,62,-1,61,62,63,-1,63,62,64,-1,63,64,65,-1,65,64,66,-1,65,66,67,-1,67,66,41,-1,67,41,40,-1,45,47,68,-1,68,47,49,-1,68,49,69,-1,69,49,51,-1,69,51,70,-1,70,51,53,-1,70,53,71,-1,71,53,55,-1,71,55,72,-1,72,55,38,-1,72,38,73,-1,73,38,36,-1,73,36,74,-1,74,36,33,-1,74,33,75,-1,75,33,32,-1,75,32,76,-1,76,32,57,-1,76,57,77,-1,77,57,59,-1,77,59,78,-1,78,59,61,-1,78,61,79,-1,79,61,63,-1,79,63,80,-1,80,63,65,-1,80,65,81,-1,81,65,67,-1,81,67,82,-1,82,67,40,-1,82,40,83,-1,83,40,43,-1,83,43,84,-1,84,43,45,-1,84,45,68,-1,72,73,85,-1,85,73,86,-1,72,85,87,-1,72,87,71,-1,71,87,88,-1,71,88,70,-1,70,88,89,-1,70,89,69,-1,69,89,90,-1,69,90,68,-1,68,90,91,-1,68,91,84,-1,84,91,92,-1,84,92,83,-1,83,92,93,-1,83,93,82,-1,82,93,94,-1,82,94,81,-1,81,94,95,-1,81,95,80,-1,80,95,96,-1,80,96,79,-1,79,96,97,-1,79,97,78,-1,78,97,98,-1,78,98,77,-1,77,98,99,-1,77,99,76,-1,76,99,100,-1,76,100,75,-1,74,75,101,-1,101,75,100,-1,73,74,86,-1,86,74,101,-1,102,103,104,-1,104,103,105,-1,103,106,105,-1,105,106,107,-1,106,108,107,-1,107,108,109,-1,108,110,109,-1,109,110,111,-1,110,112,111,-1,111,112,113,-1,112,114,113,-1,113,114,115,-1,114,116,115,-1,115,116,117,-1,116,118,117,-1,117,118,119,-1,118,120,119,-1,119,120,121,-1,120,122,121,-1,121,122,123,-1,122,124,123,-1,123,124,125,-1,124,102,125,-1,125,102,104,-1,106,103,102,-1,102,124,106,-1,106,124,122,-1,106,122,108,-1,112,110,114,-1,114,110,108,-1,114,108,116,-1,116,108,122,-1,116,122,118,-1,118,122,120,-1,126,127,128,-1,128,127,129,-1,129,127,130,-1,131,132,133,-1,131,133,134,-1,134,133,135,-1,134,135,130,-1,130,135,136,-1,130,136,129,-1,132,131,137,-1,137,131,138,-1,137,138,139,-1,139,138,140,-1,139,140,141,-1,141,140,142,-1,141,142,143,-1,143,142,144,-1,143,144,145,-1,145,144,146,-1,145,146,147,-1,147,146,148,-1,147,148,149,-1,149,148,150,-1,149,150,151,-1,152,153,154,-1,152,154,155,-1,155,154,156,-1,155,156,157,-1,157,156,158,-1,157,158,159,-1,159,158,160,-1,159,160,161,-1,161,160,162,-1,161,162,163,-1,163,162,164,-1,163,164,165,-1,165,164,151,-1,165,151,150,-1,166,167,168,-1,166,168,169,-1,169,168,153,-1,169,153,152,-1,166,170,167,-1,167,170,171,-1,172,173,174,-1,172,174,175,-1,175,174,171,-1,175,171,170,-1,176,177,178,-1,176,178,179,-1,179,178,180,-1,179,180,181,-1,181,180,182,-1,181,182,183,-1,183,182,184,-1,183,184,185,-1,185,184,186,-1,185,186,187,-1,187,186,188,-1,187,188,189,-1,189,188,173,-1,189,173,172,-1,190,191,192,-1,190,192,193,-1,193,192,194,-1,193,194,195,-1,195,194,196,-1,195,196,197,-1,197,196,198,-1,197,198,199,-1,199,198,200,-1,199,200,201,-1,201,200,202,-1,201,202,203,-1,203,202,177,-1,203,177,176,-1,126,128,204,-1,126,204,205,-1,205,204,206,-1,205,206,207,-1,207,206,191,-1,207,191,190,-1,193,131,190,-1,190,131,134,-1,190,134,207,-1,207,134,130,-1,207,130,205,-1,205,130,127,-1,205,127,126,-1,170,166,175,-1,175,166,169,-1,175,169,172,-1,172,169,152,-1,172,152,189,-1,189,152,155,-1,189,155,187,-1,187,155,157,-1,187,157,185,-1,185,157,159,-1,185,159,183,-1,183,159,161,-1,183,161,181,-1,181,161,163,-1,181,163,179,-1,179,163,165,-1,179,165,176,-1,176,165,150,-1,176,150,203,-1,203,150,148,-1,203,148,201,-1,201,148,146,-1,201,146,199,-1,199,146,144,-1,199,144,197,-1,197,144,142,-1,197,142,195,-1,195,142,140,-1,195,140,193,-1,193,140,138,-1,193,138,131,-1,208,209,210,-1,210,209,211,-1,209,212,211,-1,211,212,213,-1,212,214,213,-1,213,214,215,-1,214,216,215,-1,215,216,217,-1,216,218,217,-1,217,218,219,-1,218,208,219,-1,219,208,210,-1,216,214,218,-1,218,214,212,-1,218,212,208,-1,208,212,209,-1,
        ]
    }
}
Shape{
    appearance Appearance {
        material  Material 	{
            diffuseColor 0.20784313725490197 0.20784313725490197 0.20784313725490197
            specularColor 0.01568627450980392 0.01568627450980392 0.01568627450980392
            ambientIntensity 0.298
            transparency 0.0
            shininess 0.5
        }
    }
    geometry IndexedFaceSet {
        ccw TRUE
        solid FALSE
        coord DEF co Coordinate {
            point [
                -0.1148 -0.013 0.0197, -0.1412 -0.013 0.0197, -0.1266 0.0199 0.0197, -0.1293 0.0199 0.0197, -0.1273 0.0226 0.0197, -0.1286 0.0226 0.0197, -0.1278 0.0254 0.0197, -0.1281 0.0254 0.0197, -0.0346 0.0264 0.0197, -0.0346 -0.0351 0.0197, -0.0462 0.0264 0.0197, -0.0457 -0.0351 0.0197, -0.0541 -0.0343 0.0197, -0.0768 -0.0036 0.0197, -0.0762 0.0043 0.0197, -0.0743 0.0105 0.0197, -0.0555 0.0254 0.0197, -0.0607 -0.0322 0.0197, -0.066 -0.029 0.0197, -0.0705 -0.0247 0.0197, -0.0738 -0.0193 0.0197, -0.0761 -0.0119 0.0197, -0.0716 0.0153 0.0197, -0.0678 0.0194 0.0197, -0.062 0.0231 0.0197
            ]
        }
        coordIndex [
            0,1,2,-1,2,1,3,-1,2,3,4,-1,4,3,5,-1,4,5,6,-1,6,5,7,-1,8,9,10,-1,10,9,11,-1,10,11,12,-1,13,14,10,-1,10,14,15,-1,10,15,16,-1,12,17,10,-1,10,17,18,-1,10,18,19,-1,19,20,10,-1,10,20,21,-1,10,21,13,-1,22,23,15,-1,15,23,24,-1,15,24,16,-1,
        ]
    }
}