v -2.325 1.95 0.8
v -2.325 1.95 1.0
v -2.11 1.95 0.8
newmtl 1
Ka 0.2235294117647059 0.2235294117647059 0.2235294117647059
Kd 0.2235294117647059 0.2235294117647059 0.2235294117647059
Ks 0.11372549019607843 0.11372549019607843 0.11372549019607843
d 0.0
endmtl
v -2.11 1.95 1.0
v -1.7 1.95 1.0
v -0.84 1.95 1.0
v -1.7 1.95 0.8
v -0.84 1.95 0.8
v -0.43 1.95 1.0
v 0.43 1.95 1.0
v -0.43 1.95 0.8
v 0.43 1.95 0.8
v -2.325 -1.95 1.0
v -2.325 -1.95 0.8
v -2.11 -1.95 1.0
v -2.11 -1.95 0.8
v -1.7 -1.95 0.8
v -0.84 -1.95 0.8
v -1.7 -1.95 1.0
v -0.84 -1.95 1.0
v -0.43 -1.95 0.8
v 0.43 -1.95 0.8
v -0.43 -1.95 1.0
v 0.43 -1.95 1.0
v 0.84 -1.95 0.8
v 1.7 -1.95 0.8
v 0.84 -1.95 1.0
v 1.7 -1.95 1.0
v 0.84 1.95 1.0
v 1.7 1.95 1.0
v 0.84 1.95 0.8
v 1.7 1.95 0.8
v 2.45 -1.825 0.8
v 2.45 1.825 0.8
v 2.45 -1.825 1.0
v 2.45 1.825 1.0
v 2.11 1.95 1.0
v 2.325 1.95 1.0
v 2.11 1.95 0.8
v 2.325 1.95 0.8
v -2.45 -1.825 1.0
v -2.45 1.825 1.0
v -2.45 -1.825 0.8
v -2.45 1.825 0.8
v 2.11 -1.95 0.8
v 2.325 -1.95 0.8
v 2.11 -1.95 1.0
v 2.325 -1.95 1.0
v -1.403866 -1.038529 1.7
v -1.444337 -1.091272 1.7
v 2.221684 -1.450331 1.7
v -2.221684 -1.450331 1.7
v -1.84496 -1.038529 1.7
v -1.870402 -0.977108 1.7
v -1.378425 -0.977108 1.7
v -1.879079 -0.911196 1.7
v -1.870402 -0.845283 1.7
v -2.221684 1.721684 1.7
v -1.84496 -0.783863 1.7
v -1.804489 -0.73112 1.7
v -1.751746 -0.690648 1.7
v -1.690326 -0.665207 1.7
v -1.444337 -0.73112 1.7
v -1.403866 -0.783863 1.7
v 2.221684 1.721684 1.7
v -1.378425 -0.845283 1.7
v -1.369747 -0.911196 1.7
v -1.49708 -1.131743 1.7
v -1.558501 -1.157184 1.7
v -1.624413 -1.165861 1.7
v -1.690326 -1.157184 1.7
v -1.751746 -1.131743 1.7
v -1.804489 -1.091272 1.7
v -1.624413 -0.65653 1.7
v -1.558501 -0.665207 1.7
v -1.49708 -0.690648 1.7
v -2.221684 -1.721684 0.1
v -2.221684 1.721684 0.1
v 2.221684 -1.721684 0.1
v 2.221684 1.721684 0.1
v 2.326885 -1.949986 0.799919
v 2.221684 -1.844785 0.203294
v -2.221684 -1.844785 0.203294
v -2.326885 -1.949986 0.799919
v 2.449986 -1.826885 0.799919
v 2.344784 -1.721684 0.203294
v 2.344784 1.721684 0.203294
v 2.449986 1.826885 0.799919
v -2.449986 1.826885 0.799919
v -2.344784 1.721684 0.203294
v -2.344784 -1.721684 0.203294
v -2.449986 -1.826885 0.799919
v -2.326885 1.949986 0.799919
v -2.221684 1.844785 0.203294
v 2.221684 1.844785 0.203294
v 2.326885 1.949986 0.799919
v 2.326885 1.949986 1.000081
v 2.221684 1.844785 1.596706
v -2.221684 1.844785 1.596706
v -2.326885 1.949986 1.000081
v -2.449986 -1.826885 1.000081
v -2.402874 -1.779773 1.267263
v -2.344784 -1.450331 1.596706
v -2.344784 1.721684 1.596706
v -2.449986 1.826885 1.000081
v 2.449986 1.826885 1.000081
v 2.344784 1.721684 1.596706
v 2.344784 -1.450331 1.596706
v 2.402874 -1.779773 1.267263
v 2.449986 -1.826885 1.000081
v -2.279773 -1.902874 1.267263
v -2.326885 -1.949986 1.000081
v 2.279773 -1.902874 1.267263
v 2.326885 -1.949986 1.000081
v -2.221684 -1.538719 1.663388
v -2.279773 -1.868162 1.333946
v 2.221684 -1.538719 1.663388
v 2.279773 -1.868162 1.333946
v 2.336804 1.721684 1.623708
v 2.336322 -1.450331 1.624467
v 2.336375 1.721684 1.624461
v 2.335959 -1.450331 1.625658
v 2.322364 1.721684 1.649084
v 2.32171 -1.450331 1.649502
v 2.321891 1.721684 1.64959
v 2.320433 -1.450331 1.651639
v 2.302433 1.721684 1.670418
v 2.301749 -1.450331 1.670475
v 2.301999 1.721684 1.670706
v 2.299118 -1.450331 1.673127
v 2.278095 1.721684 1.686547
v 2.27752 -1.450331 1.686271
v 2.27777 1.721684 1.686666
v 2.273263 -1.450331 1.688862
v 2.25068 1.721684 1.69659
v 2.25033 -1.450331 1.696056
v 2.250508 1.721684 1.69661
v 2.244383 -1.450331 1.697922
v 2.221684 1.836804 1.623708
v -2.221684 1.836804 1.623708
v 2.221684 1.836375 1.624461
v -2.221684 1.836375 1.624461
v 2.221684 1.822364 1.649084
v -2.221684 1.822364 1.649084
v 2.221684 1.821891 1.64959
v -2.221684 1.821891 1.64959
v 2.221684 1.802432 1.670418
v -2.221684 1.802432 1.670418
v 2.221684 1.801999 1.670706
v -2.221684 1.801999 1.670706
v 2.221684 1.778095 1.686547
v -2.221684 1.778095 1.686547
v 2.221684 1.77777 1.686666
v -2.221684 1.77777 1.686666
v 2.221684 1.75068 1.69659
v -2.221684 1.75068 1.69659
v 2.221684 1.750508 1.69661
v -2.221684 1.750508 1.69661
v -2.321891 1.721684 1.64959
v -2.322364 1.721684 1.649084
v -2.336322 -1.450331 1.624467
v -2.336375 1.721684 1.624461
v -2.336804 1.721684 1.623708
v -2.335959 -1.450331 1.625658
v -2.32171 -1.450331 1.649502
v -2.302433 1.721684 1.670418
v -2.301999 1.721684 1.670706
v -2.320433 -1.450331 1.651639
v -2.301749 -1.450331 1.670475
v -2.278095 1.721684 1.686547
v -2.27777 1.721684 1.686666
v -2.299118 -1.450331 1.673127
v -2.27752 -1.450331 1.686271
v -2.25068 1.721684 1.69659
v -2.250508 1.721684 1.69661
v -2.273263 -1.450331 1.688862
v -2.25033 -1.450331 1.696056
v -2.244383 -1.450331 1.697922
v 2.221684 -1.47459 1.697611
v -2.221684 -1.47459 1.697611
v 2.221684 -1.474717 1.697598
v -2.221684 -1.474717 1.697598
v -2.221684 -1.498166 1.690485
v 2.221684 -1.498166 1.690485
v 2.221684 -1.51963 1.679012
v -2.221684 -1.51963 1.679012
v 2.221684 -1.519777 1.678934
v -2.221684 -1.519777 1.678934
v 2.247876 -1.515953 1.678115
v 2.245961 -1.495561 1.688973
v 2.244782 -1.473398 1.695662
v 2.336061 -1.456248 1.625078
v 2.337515 -1.471737 1.616831
v 2.336855 -1.467165 1.620576
v 2.323622 -1.491649 1.634293
v 2.322172 -1.483013 1.641775
v 2.320632 -1.461819 1.650514
v 2.301599 -1.496945 1.659058
v 2.303784 -1.509288 1.648434
v 2.323455 -1.491889 1.634503
v 2.299401 -1.466716 1.671522
v 2.251286 -1.533478 1.663367
v 2.278607 -1.523843 1.65855
v 2.276339 -1.508144 1.671413
v 2.279197 -1.523505 1.658316
v 2.303427 -1.509604 1.648687
v 2.336364 -1.461934 1.623362
v 2.321219 -1.472857 1.647182
v 2.300239 -1.48246 1.66677
v 2.274653 -1.490179 1.680978
v 2.273614 -1.470653 1.686872
v 2.337559 -1.47161 1.616711
v 2.25045 -1.533773 1.663515
v 2.242583 1.799681 1.670418
v 2.236284 1.776173 1.686547
v 2.229189 1.749692 1.69659
v 2.236182 1.746796 1.69659
v 2.246796 1.736182 1.69659
v 2.242188 1.742188 1.69659
v 2.249692 1.729189 1.69659
v 2.251479 1.832881 1.623708
v 2.253289 1.839663 1.601376
v 2.252961 1.839806 1.601343
v 2.282187 1.827081 1.604253
v 2.279244 1.82138 1.623708
v 2.282423 1.826898 1.604262
v 2.303086 1.803086 1.623708
v 2.307446 1.807446 1.605244
v 2.32138 1.779244 1.623708
v 2.326898 1.782423 1.604262
v 2.327081 1.782187 1.604253
v 2.332881 1.751479 1.623708
v 2.339663 1.753289 1.601376
v 2.339805 1.752961 1.601343
v 2.24989 1.770538 1.686547
v 2.261573 1.761573 1.686547
v 2.270538 1.749889 1.686547
v 2.276173 1.736284 1.686547
v 2.262058 1.791614 1.670418
v 2.278782 1.778782 1.670418
v 2.291614 1.762058 1.670418
v 2.299681 1.742583 1.670418
v 2.247742 1.818934 1.649084
v 2.272024 1.808876 1.649084
v 2.292876 1.792876 1.649084
v 2.308876 1.772024 1.649084
v 2.318934 1.747742 1.649084
v -2.299681 1.742583 1.670418
v -2.276173 1.736284 1.686547
v -2.249692 1.729189 1.69659
v -2.246796 1.736182 1.69659
v -2.236182 1.746796 1.69659
v -2.242188 1.742188 1.69659
v -2.229189 1.749692 1.69659
v -2.332881 1.751479 1.623708
v -2.339663 1.753289 1.601376
v -2.339805 1.752961 1.601343
v -2.327081 1.782187 1.604253
v -2.32138 1.779244 1.623708
v -2.326898 1.782423 1.604262
v -2.303086 1.803086 1.623708
v -2.307446 1.807446 1.605244
v -2.279244 1.82138 1.623708
v -2.282423 1.826898 1.604262
v -2.282187 1.827081 1.604253
v -2.251479 1.832881 1.623708
v -2.253289 1.839663 1.601376
v -2.252961 1.839806 1.601343
v -2.270538 1.749889 1.686547
v -2.261573 1.761573 1.686547
v -2.24989 1.770538 1.686547
v -2.236284 1.776173 1.686547
v -2.291614 1.762058 1.670418
v -2.278782 1.778782 1.670418
v -2.262058 1.791614 1.670418
v -2.242583 1.799681 1.670418
v -2.318934 1.747742 1.649084
v -2.308876 1.772024 1.649084
v -2.292876 1.792876 1.649084
v -2.272024 1.808876 1.649084
v -2.247742 1.818934 1.649084
v -2.244782 -1.473398 1.695662
v -2.245961 -1.495561 1.688973
v -2.247876 -1.515953 1.678115
v -2.25045 -1.533773 1.663515
v -2.336855 -1.467165 1.620576
v -2.337559 -1.47161 1.616711
v -2.336061 -1.456248 1.625078
v -2.320632 -1.461819 1.650514
v -2.337515 -1.471737 1.616831
v -2.323622 -1.491649 1.634293
v -2.322172 -1.483013 1.641775
v -2.299401 -1.466716 1.671522
v -2.323455 -1.491889 1.634503
v -2.303784 -1.509288 1.648434
v -2.301599 -1.496945 1.659058
v -2.273614 -1.470653 1.686872
v -2.336364 -1.461934 1.623362
v -2.321219 -1.472857 1.647182
v -2.300239 -1.48246 1.66677
v -2.274653 -1.490179 1.680978
v -2.276339 -1.508144 1.671413
v -2.303427 -1.509604 1.648687
v -2.279197 -1.523505 1.658316
v -2.278607 -1.523843 1.65855
v -2.251286 -1.533478 1.663367
v 2.299061 -1.865386 1.334571
v 2.309155 -1.862386 1.333351
v 2.329722 -1.856275 1.330866
v 2.336919 -1.852541 1.328401
v 2.357068 -1.842088 1.321501
v 2.36145 -1.838474 1.31866
v 2.379285 -1.823766 1.307096
v 2.381337 -1.820975 1.304667
v 2.3949 -1.802524 1.288608
v 2.395423 -1.801031 1.287207
v 2.388043 1.932938 1.003911
v 2.387469 1.93318 1.003882
v 2.358564 1.945409 1.002434
v 2.35733 1.945588 1.002342
v 2.413388 1.913388 1.004414
v 2.432938 1.888043 1.003911
v 2.433181 1.887469 1.003882
v 2.445409 1.858565 1.002434
v 2.445588 1.85733 1.002342
v -2.432938 1.888043 1.003911
v -2.433181 1.887469 1.003882
v -2.445409 1.858565 1.002434
v -2.445588 1.85733 1.002342
v -2.413388 1.913388 1.004414
v -2.388043 1.932938 1.003911
v -2.387469 1.93318 1.003882
v -2.358564 1.945409 1.002434
v -2.35733 1.945588 1.002342
v -2.395423 -1.801031 1.287207
v -2.299061 -1.865386 1.334571
v -2.309155 -1.862386 1.333351
v -2.329722 -1.856275 1.330866
v -2.336919 -1.852541 1.328401
v -2.357068 -1.842088 1.321501
v -2.36145 -1.838474 1.31866
v -2.379285 -1.823766 1.307096
v -2.381337 -1.820975 1.304667
v -2.3949 -1.802524 1.288608
v 2.279773 -1.895942 1.291708
v 2.279773 -1.884127 1.314346
v -2.279773 -1.884127 1.314346
v 2.279773 -1.884209 1.314246
v -2.279773 -1.884209 1.314246
v 2.279773 -1.895887 1.291813
v -2.279773 -1.895887 1.291813
v -2.279773 -1.895942 1.291708
v 2.306081 -1.891631 1.294757
v 2.396765 -1.809499 1.278028
v 2.397841 -1.811234 1.271923
v 2.397871 -1.811047 1.271896
v 2.395771 -1.806556 1.283666
v 2.385127 -1.840258 1.274799
v 2.382893 -1.837252 1.286638
v 2.384974 -1.840607 1.274834
v 2.38097 -1.831561 1.29754
v 2.365479 -1.865492 1.275784
v 2.362178 -1.861191 1.292522
v 2.365126 -1.865943 1.275801
v 2.359455 -1.85313 1.307965
v 2.34022 -1.885096 1.274787
v 2.335995 -1.879727 1.29529
v 2.339614 -1.885561 1.274762
v 2.332652 -1.869831 1.314248
v 2.311007 -1.897786 1.271873
v 2.310132 -1.89816 1.271785
v 2.30234 -1.880557 1.315974
v 2.445588 1.85733 0.797658
v 2.445409 1.858565 0.797566
v 2.433181 1.887469 0.796118
v 2.432938 1.888043 0.796089
v 2.413388 1.913388 0.795586
v 2.388043 1.932938 0.796089
v 2.387469 1.93318 0.796118
v 2.358564 1.945409 0.797566
v 2.35733 1.945588 0.797658
v -2.35733 1.945588 0.797658
v -2.358564 1.945409 0.797566
v -2.387469 1.93318 0.796118
v -2.388043 1.932938 0.796089
v -2.413388 1.913388 0.795586
v -2.432938 1.888043 0.796089
v -2.433181 1.887469 0.796118
v -2.445409 1.858565 0.797566
v -2.445588 1.85733 0.797658
v -2.306081 -1.891631 1.294757
v -2.30234 -1.880557 1.315974
v -2.396765 -1.809499 1.278028
v -2.397871 -1.811047 1.271896
v -2.38097 -1.831561 1.29754
v -2.395771 -1.806556 1.283666
v -2.397841 -1.811234 1.271923
v -2.385127 -1.840258 1.274799
v -2.382893 -1.837252 1.286638
v -2.359455 -1.85313 1.307965
v -2.384974 -1.840607 1.274834
v -2.365479 -1.865492 1.275784
v -2.362178 -1.861191 1.292522
v -2.332652 -1.869831 1.314248
v -2.365126 -1.865943 1.275801
v -2.34022 -1.885096 1.274787
v -2.335995 -1.879727 1.29529
v -2.310132 -1.89816 1.271785
v -2.311007 -1.897786 1.271873
v -2.339614 -1.885561 1.274762
v 2.432938 -1.888043 1.003911
v 2.433181 -1.887469 1.003882
v 2.445409 -1.858565 1.002434
v 2.445588 -1.85733 1.002342
v 2.413388 -1.913388 1.004414
v 2.388043 -1.932938 1.003911
v 2.35733 -1.945588 1.002342
v 2.358564 -1.945409 1.002434
v 2.387469 -1.93318 1.003882
v 2.339805 1.752961 0.198657
v 2.339663 1.753289 0.198624
v 2.327081 1.782187 0.195747
v 2.326898 1.782423 0.195738
v 2.307446 1.807446 0.194756
v 2.282423 1.826898 0.195738
v 2.282187 1.827081 0.195747
v 2.253289 1.839663 0.198624
v 2.252961 1.839806 0.198657
v -2.221684 1.836804 0.176293
v 2.221684 1.836804 0.176293
v -2.221684 1.836375 0.175539
v 2.221684 1.836375 0.175539
v -2.221684 1.822364 0.150916
v 2.221684 1.822364 0.150916
v -2.221684 1.821891 0.15041
v 2.221684 1.821891 0.15041
v -2.221684 1.802432 0.129582
v 2.221684 1.802432 0.129582
v -2.221684 1.801999 0.129295
v 2.221684 1.801999 0.129295
v -2.221684 1.778095 0.113453
v 2.221684 1.778095 0.113453
v -2.221684 1.77777 0.113334
v 2.221684 1.77777 0.113334
v -2.221684 1.75068 0.10341
v 2.221684 1.75068 0.10341
v -2.221684 1.750508 0.10339
v 2.221684 1.750508 0.10339
v -2.252961 1.839806 0.198657
v -2.253289 1.839663 0.198624
v -2.282187 1.827081 0.195747
v -2.282423 1.826898 0.195738
v -2.307446 1.807446 0.194756
v -2.326898 1.782423 0.195738
v -2.327081 1.782187 0.195747
v -2.339663 1.753289 0.198624
v -2.339805 1.752961 0.198657
v -2.35733 -1.945588 1.002342
v -2.358564 -1.945409 1.002434
v -2.387469 -1.93318 1.003882
v -2.388043 -1.932938 1.003911
v -2.413388 -1.913388 1.004414
v -2.432938 -1.888043 1.003911
v -2.433181 -1.887469 1.003882
v -2.445409 -1.858565 1.002434
v -2.445588 -1.85733 1.002342
v 2.35733 -1.945588 0.797658
v 2.358564 -1.945409 0.797566
v 2.387469 -1.93318 0.796118
v 2.388043 -1.932938 0.796089
v 2.413388 -1.913388 0.795586
v 2.432938 -1.888043 0.796089
v 2.433181 -1.887469 0.796118
v 2.445409 -1.858565 0.797566
v 2.445588 -1.85733 0.797658
v 2.321891 1.721684 0.15041
v 2.302433 1.721684 0.129582
v 2.299681 1.742583 0.129582
v 2.276173 1.736284 0.113453
v 2.249692 1.729189 0.10341
v 2.246796 1.736182 0.10341
v 2.236182 1.746796 0.10341
v 2.242188 1.742188 0.10341
v 2.229189 1.749692 0.10341
v 2.250508 1.721684 0.10339
v 2.332881 1.751479 0.176293
v 2.32138 1.779244 0.176293
v 2.303086 1.803086 0.176293
v 2.279244 1.82138 0.176293
v 2.251479 1.832881 0.176293
v 2.301999 1.721684 0.129295
v 2.278095 1.721684 0.113453
v 2.27777 1.721684 0.113334
v 2.25068 1.721684 0.10341
v 2.270538 1.749889 0.113453
v 2.261573 1.761573 0.113453
v 2.24989 1.770538 0.113453
v 2.236284 1.776173 0.113453
v 2.291614 1.762058 0.129582
v 2.278782 1.778782 0.129582
v 2.262058 1.791614 0.129582
v 2.242583 1.799681 0.129582
v 2.336375 1.721684 0.175539
v 2.322364 1.721684 0.150916
v 2.318934 1.747742 0.150916
v 2.308876 1.772024 0.150916
v 2.292876 1.792876 0.150916
v 2.272024 1.808876 0.150916
v 2.247742 1.818934 0.150916
v 2.336804 1.721684 0.176293
v -2.242583 1.799681 0.129582
v -2.236284 1.776173 0.113453
v -2.229189 1.749692 0.10341
v -2.236182 1.746796 0.10341
v -2.246796 1.736182 0.10341
v -2.242188 1.742188 0.10341
v -2.249692 1.729189 0.10341
v -2.251479 1.832881 0.176293
v -2.279244 1.82138 0.176293
v -2.303086 1.803086 0.176293
v -2.32138 1.779244 0.176293
v -2.332881 1.751479 0.176293
v -2.336804 1.721684 0.176293
v -2.250508 1.721684 0.10339
v -2.24989 1.770538 0.113453
v -2.261573 1.761573 0.113453
v -2.270538 1.749889 0.113453
v -2.276173 1.736284 0.113453
v -2.25068 1.721684 0.10341
v -2.27777 1.721684 0.113334
v -2.278095 1.721684 0.113453
v -2.301999 1.721684 0.129295
v -2.262058 1.791614 0.129582
v -2.278782 1.778782 0.129582
v -2.291614 1.762058 0.129582
v -2.299681 1.742583 0.129582
v -2.247742 1.818934 0.150916
v -2.272024 1.808876 0.150916
v -2.292876 1.792876 0.150916
v -2.308876 1.772024 0.150916
v -2.318934 1.747742 0.150916
v -2.302433 1.721684 0.129582
v -2.321891 1.721684 0.15041
v -2.322364 1.721684 0.150916
v -2.336375 1.721684 0.175539
v -2.445588 -1.85733 0.797658
v -2.445409 -1.858565 0.797566
v -2.433181 -1.887469 0.796118
v -2.432938 -1.888043 0.796089
v -2.413388 -1.913388 0.795586
v -2.388043 -1.932938 0.796089
v -2.387469 -1.93318 0.796118
v -2.358564 -1.945409 0.797566
v -2.35733 -1.945588 0.797658
v 2.252961 -1.839806 0.198657
v 2.253289 -1.839663 0.198624
v 2.282187 -1.827081 0.195747
v 2.282423 -1.826898 0.195738
v 2.307446 -1.807446 0.194756
v 2.326898 -1.782423 0.195738
v 2.327081 -1.782187 0.195747
v 2.339663 -1.753289 0.198624
v 2.339805 -1.752961 0.198657
v 2.336804 -1.721684 0.176293
v 2.336375 -1.721684 0.175539
v 2.322364 -1.721684 0.150916
v 2.321891 -1.721684 0.15041
v 2.302433 -1.721684 0.129582
v 2.301999 -1.721684 0.129295
v 2.278095 -1.721684 0.113453
v 2.27777 -1.721684 0.113334
v 2.25068 -1.721684 0.10341
v 2.250508 -1.721684 0.10339
v -2.336804 -1.721684 0.176293
v -2.336375 -1.721684 0.175539
v -2.322364 -1.721684 0.150916
v -2.321891 -1.721684 0.15041
v -2.302433 -1.721684 0.129582
v -2.301999 -1.721684 0.129295
v -2.278095 -1.721684 0.113453
v -2.27777 -1.721684 0.113334
v -2.25068 -1.721684 0.10341
v -2.250508 -1.721684 0.10339
v -2.339805 -1.752961 0.198657
v -2.339663 -1.753289 0.198624
v -2.327081 -1.782187 0.195747
v -2.326898 -1.782423 0.195738
v -2.307446 -1.807446 0.194756
v -2.282423 -1.826898 0.195738
v -2.282187 -1.827081 0.195747
v -2.253289 -1.839663 0.198624
v -2.252961 -1.839806 0.198657
v 2.221684 -1.821891 0.15041
v 2.221684 -1.802432 0.129582
v 2.242583 -1.799681 0.129582
v 2.236284 -1.776173 0.113453
v 2.229189 -1.749692 0.10341
v 2.236182 -1.746796 0.10341
v 2.246796 -1.736182 0.10341
v 2.242188 -1.742188 0.10341
v 2.249692 -1.729189 0.10341
v 2.221684 -1.750508 0.10339
v 2.251479 -1.832881 0.176293
v 2.279244 -1.82138 0.176293
v 2.303086 -1.803086 0.176293
v 2.32138 -1.779244 0.176293
v 2.332881 -1.751479 0.176293
v 2.221684 -1.801999 0.129295
v 2.221684 -1.778095 0.113453
v 2.221684 -1.77777 0.113334
v 2.221684 -1.75068 0.10341
v 2.24989 -1.770538 0.113453
v 2.261573 -1.761573 0.113453
v 2.270538 -1.749889 0.113453
v 2.276173 -1.736284 0.113453
v 2.262058 -1.791614 0.129582
v 2.278782 -1.778782 0.129582
v 2.291614 -1.762058 0.129582
v 2.299681 -1.742583 0.129582
v 2.221684 -1.836375 0.175539
v 2.221684 -1.822364 0.150916
v 2.247742 -1.818934 0.150916
v 2.272024 -1.808876 0.150916
v 2.292876 -1.792876 0.150916
v 2.308876 -1.772024 0.150916
v 2.318934 -1.747742 0.150916
v 2.221684 -1.836804 0.176293
v -2.299681 -1.742583 0.129582
v -2.276173 -1.736284 0.113453
v -2.249692 -1.729189 0.10341
v -2.246796 -1.736182 0.10341
v -2.236182 -1.746796 0.10341
v -2.242188 -1.742188 0.10341
v -2.229189 -1.749692 0.10341
v -2.332881 -1.751479 0.176293
v -2.32138 -1.779244 0.176293
v -2.303086 -1.803086 0.176293
v -2.279244 -1.82138 0.176293
v -2.251479 -1.832881 0.176293
v -2.221684 -1.836804 0.176293
v -2.221684 -1.750508 0.10339
v -2.270538 -1.749889 0.113453
v -2.261573 -1.761573 0.113453
v -2.24989 -1.770538 0.113453
v -2.236284 -1.776173 0.113453
v -2.221684 -1.75068 0.10341
v -2.221684 -1.77777 0.113334
v -2.221684 -1.778095 0.113453
v -2.221684 -1.801999 0.129295
v -2.291614 -1.762058 0.129582
v -2.278782 -1.778782 0.129582
v -2.262058 -1.791614 0.129582
v -2.242583 -1.799681 0.129582
v -2.318934 -1.747742 0.150916
v -2.308876 -1.772024 0.150916
v -2.292876 -1.792876 0.150916
v -2.272024 -1.808876 0.150916
v -2.247742 -1.818934 0.150916
v -2.221684 -1.802432 0.129582
v -2.221684 -1.821891 0.15041
v -2.221684 -1.822364 0.150916
v -2.221684 -1.836375 0.175539
v -1.369747 -0.911196 1.65
v -1.378425 -0.845283 1.65
newmtl 2
Ka 0.4392156862745098 0.4392156862745098 0.4392156862745098
Kd 0.4392156862745098 0.4392156862745098 0.4392156862745098
Ks 0.2196078431372549 0.2196078431372549 0.2196078431372549
d 0.0
endmtl
v -1.403866 -0.783863 1.65
v -1.444337 -0.73112 1.65
v -1.49708 -0.690648 1.65
v -1.558501 -0.665207 1.65
v -1.624413 -0.65653 1.65
v -1.690326 -0.665207 1.65
v -1.751746 -0.690648 1.65
v -1.804489 -0.73112 1.65
v -1.84496 -0.783863 1.65
v -1.870402 -0.845283 1.65
v -1.879079 -0.911196 1.65
v -1.870402 -0.977108 1.65
v -1.84496 -1.038529 1.65
v -1.804489 -1.091272 1.65
v -1.751746 -1.131743 1.65
v -1.690326 -1.157184 1.65
v -1.624413 -1.165861 1.65
v -1.558501 -1.157184 1.65
v -1.49708 -1.131743 1.65
v -1.444337 -1.091272 1.65
v -1.403866 -1.038529 1.65
v -1.378425 -0.977108 1.65
v -1.624413 -0.911196 1.65
v 2.11 3.0 0.0
v 2.11 3.0 0.2
v 2.11 2.65 0.0
newmtl 3
Ka 0.8509803921568627 0.8509803921568627 0.8509803921568627
Kd 0.8509803921568627 0.8509803921568627 0.8509803921568627
Ks 0.4235294117647059 0.4235294117647059 0.4235294117647059
d 0.0
endmtl
v 2.11 2.65 0.2
v 2.11 2.577423 0.008911
v 2.11 2.625808 0.20297
v 2.11 2.509159 0.035116
v 2.11 2.603053 0.211705
v 2.11 2.449261 0.077057
v 2.11 2.583087 0.225686
v 2.11 2.401289 0.132242
v 2.11 2.567096 0.244081
v 2.11 2.368092 0.197394
v 2.11 2.556031 0.265798
v 2.11 2.17271 0.734202
v 2.11 2.360648 0.802606
v 2.11 2.161645 0.755919
v 2.11 2.327452 0.867758
v 2.11 2.145654 0.774315
v 2.11 2.27948 0.922943
v 2.11 2.125688 0.788295
v 2.11 2.219582 0.964884
v 2.11 2.102933 0.79703
v 2.11 2.151317 0.991089
v 2.11 2.078741 0.8
v 2.11 2.078741 1.0
v 1.7 2.078741 0.8
v 1.7 2.078741 1.0
v 1.7 2.102933 0.79703
v 1.7 2.151317 0.991089
v 1.7 2.125688 0.788295
v 1.7 2.219582 0.964884
v 1.7 2.145654 0.774315
v 1.7 2.27948 0.922943
v 1.7 2.161645 0.755919
v 1.7 2.327452 0.867758
v 1.7 2.17271 0.734202
v 1.7 2.360648 0.802606
v 1.7 2.368092 0.197394
v 1.7 2.556031 0.265798
v 1.7 2.401289 0.132242
v 1.7 2.567096 0.244081
v 1.7 2.449261 0.077057
v 1.7 2.583087 0.225686
v 1.7 2.509159 0.035116
v 1.7 2.603053 0.211705
v 1.7 2.577423 0.008911
v 1.7 2.625808 0.20297
v 1.7 2.65 -0.0
v 1.7 2.65 0.2
v 1.7 3.0 0.0
v 1.7 3.0 0.2
v 2.11 -2.078741 0.8
v 2.11 -2.078741 1.0
v 2.11 -2.102933 0.79703
v 2.11 -2.151317 0.991089
v 2.11 -2.125688 0.788295
v 2.11 -2.219582 0.964884
v 2.11 -2.145654 0.774315
v 2.11 -2.27948 0.922943
v 2.11 -2.161645 0.755919
v 2.11 -2.327452 0.867758
v 2.11 -2.17271 0.734202
v 2.11 -2.360648 0.802606
v 2.11 -2.368092 0.197394
v 2.11 -2.556031 0.265798
v 2.11 -2.401289 0.132242
v 2.11 -2.567096 0.244081
v 2.11 -2.449261 0.077057
v 2.11 -2.583087 0.225686
v 2.11 -2.509159 0.035116
v 2.11 -2.603053 0.211705
v 2.11 -2.577423 0.008911
v 2.11 -2.625808 0.20297
v 2.11 -2.65 -0.0
v 2.11 -2.65 0.2
v 2.11 -3.0 0.0
v 2.11 -3.0 0.2
v 1.7 -3.0 0.0
v 1.7 -3.0 0.2
v 1.7 -2.65 0.0
v 1.7 -2.65 0.2
v 1.7 -2.577423 0.008911
v 1.7 -2.625808 0.20297
v 1.7 -2.509159 0.035116
v 1.7 -2.603053 0.211705
v 1.7 -2.449261 0.077057
v 1.7 -2.583087 0.225686
v 1.7 -2.401289 0.132242
v 1.7 -2.567096 0.244081
v 1.7 -2.368092 0.197394
v 1.7 -2.556031 0.265798
v 1.7 -2.17271 0.734202
v 1.7 -2.360648 0.802606
v 1.7 -2.161645 0.755919
v 1.7 -2.327452 0.867758
v 1.7 -2.145654 0.774315
v 1.7 -2.27948 0.922943
v 1.7 -2.125688 0.788295
v 1.7 -2.219582 0.964884
v 1.7 -2.102933 0.79703
v 1.7 -2.151317 0.991089
v 1.7 -2.078741 0.8
v 1.7 -2.078741 1.0
v 0.84 -2.078741 0.8
v 0.84 -2.078741 1.0
v 0.84 -2.102933 0.79703
v 0.84 -2.151317 0.991089
v 0.84 -2.125688 0.788295
v 0.84 -2.219582 0.964884
v 0.84 -2.145654 0.774315
v 0.84 -2.27948 0.922943
v 0.84 -2.161645 0.755919
v 0.84 -2.327452 0.867758
v 0.84 -2.17271 0.734202
v 0.84 -2.360648 0.802606
v 0.84 -2.368092 0.197394
v 0.84 -2.556031 0.265798
v 0.84 -2.401289 0.132242
v 0.84 -2.567096 0.244081
v 0.84 -2.449261 0.077057
v 0.84 -2.583087 0.225686
v 0.84 -2.509159 0.035116
v 0.84 -2.603053 0.211705
v 0.84 -2.577423 0.008911
v 0.84 -2.625808 0.20297
v 0.84 -2.65 -0.0
v 0.84 -2.65 0.2
v 0.84 -3.0 0.0
v 0.84 -3.0 0.2
v 0.43 -3.0 0.0
v 0.43 -3.0 0.2
v 0.43 -2.65 0.0
v 0.43 -2.65 0.2
v 0.43 -2.577423 0.008911
v 0.43 -2.625808 0.20297
v 0.43 -2.509159 0.035116
v 0.43 -2.603053 0.211705
v 0.43 -2.449261 0.077057
v 0.43 -2.583087 0.225686
v 0.43 -2.401289 0.132242
v 0.43 -2.567096 0.244081
v 0.43 -2.368092 0.197394
v 0.43 -2.556031 0.265798
v 0.43 -2.17271 0.734202
v 0.43 -2.360648 0.802606
v 0.43 -2.161645 0.755919
v 0.43 -2.327452 0.867758
v 0.43 -2.145654 0.774315
v 0.43 -2.27948 0.922943
v 0.43 -2.125688 0.788295
v 0.43 -2.219582 0.964884
v 0.43 -2.102933 0.79703
v 0.43 -2.151317 0.991089
v 0.43 -2.078741 0.8
v 0.43 -2.078741 1.0
v -0.43 -2.078741 0.8
v -0.43 -2.078741 1.0
v -0.43 -2.102933 0.79703
v -0.43 -2.151317 0.991089
v -0.43 -2.125688 0.788295
v -0.43 -2.219582 0.964884
v -0.43 -2.145654 0.774315
v -0.43 -2.27948 0.922943
v -0.43 -2.161645 0.755919
v -0.43 -2.327452 0.867758
v -0.43 -2.17271 0.734202
v -0.43 -2.360648 0.802606
v -0.43 -2.368092 0.197394
v -0.43 -2.556031 0.265798
v -0.43 -2.401289 0.132242
v -0.43 -2.567096 0.244081
v -0.43 -2.449261 0.077057
v -0.43 -2.583087 0.225686
v -0.43 -2.509159 0.035116
v -0.43 -2.603053 0.211705
v -0.43 -2.577423 0.008911
v -0.43 -2.625808 0.20297
v -0.43 -2.65 -0.0
v -0.43 -2.65 0.2
v -0.43 -3.0 0.0
v -0.43 -3.0 0.2
v -0.84 -3.0 0.0
v -0.84 -3.0 0.2
v -0.84 -2.65 0.0
v -0.84 -2.65 0.2
v -0.84 -2.577423 0.008911
v -0.84 -2.625808 0.20297
v -0.84 -2.509159 0.035116
v -0.84 -2.603053 0.211705
v -0.84 -2.449261 0.077057
v -0.84 -2.583087 0.225686
v -0.84 -2.401289 0.132242
v -0.84 -2.567096 0.244081
v -0.84 -2.368092 0.197394
v -0.84 -2.556031 0.265798
v -0.84 -2.17271 0.734202
v -0.84 -2.360648 0.802606
v -0.84 -2.161645 0.755919
v -0.84 -2.327452 0.867758
v -0.84 -2.145654 0.774315
v -0.84 -2.27948 0.922943
v -0.84 -2.125688 0.788295
v -0.84 -2.219582 0.964884
v -0.84 -2.102933 0.79703
v -0.84 -2.151317 0.991089
v -0.84 -2.078741 0.8
v -0.84 -2.078741 1.0
v -1.7 -2.078741 0.8
v -1.7 -2.078741 1.0
v -1.7 -2.102933 0.79703
v -1.7 -2.151317 0.991089
v -1.7 -2.125688 0.788295
v -1.7 -2.219582 0.964884
v -1.7 -2.145654 0.774315
v -1.7 -2.27948 0.922943
v -1.7 -2.161645 0.755919
v -1.7 -2.327452 0.867758
v -1.7 -2.17271 0.734202
v -1.7 -2.360648 0.802606
v -1.7 -2.368092 0.197394
v -1.7 -2.556031 0.265798
v -1.7 -2.401289 0.132242
v -1.7 -2.567096 0.244081
v -1.7 -2.449261 0.077057
v -1.7 -2.583087 0.225686
v -1.7 -2.509159 0.035116
v -1.7 -2.603053 0.211705
v -1.7 -2.577423 0.008911
v -1.7 -2.625808 0.20297
v -1.7 -2.65 -0.0
v -1.7 -2.65 0.2
v -1.7 -3.0 0.0
v -1.7 -3.0 0.2
v -2.11 -3.0 0.0
v -2.11 -3.0 0.2
v -2.11 -2.65 0.0
v -2.11 -2.65 0.2
v -2.11 -2.577423 0.008911
v -2.11 -2.625808 0.20297
v -2.11 -2.509159 0.035116
v -2.11 -2.603053 0.211705
v -2.11 -2.449261 0.077057
v -2.11 -2.583087 0.225686
v -2.11 -2.401289 0.132242
v -2.11 -2.567096 0.244081
v -2.11 -2.368092 0.197394
v -2.11 -2.556031 0.265798
v -2.11 -2.17271 0.734202
v -2.11 -2.360648 0.802606
v -2.11 -2.161645 0.755919
v -2.11 -2.327452 0.867758
v -2.11 -2.145654 0.774315
v -2.11 -2.27948 0.922943
v -2.11 -2.125688 0.788295
v -2.11 -2.219582 0.964884
v -2.11 -2.102933 0.79703
v -2.11 -2.151317 0.991089
v -2.11 -2.078741 0.8
v -2.11 -2.078741 1.0
v 0.84 3.0 0.0
v 0.84 3.0 0.2
v 0.84 2.65 0.0
v 0.84 2.65 0.2
v 0.84 2.577423 0.008911
v 0.84 2.625808 0.20297
v 0.84 2.509159 0.035116
v 0.84 2.603053 0.211705
v 0.84 2.449261 0.077057
v 0.84 2.583087 0.225686
v 0.84 2.401289 0.132242
v 0.84 2.567096 0.244081
v 0.84 2.368092 0.197394
v 0.84 2.556031 0.265798
v 0.84 2.17271 0.734202
v 0.84 2.360648 0.802606
v 0.84 2.161645 0.755919
v 0.84 2.327452 0.867758
v 0.84 2.145654 0.774315
v 0.84 2.27948 0.922943
v 0.84 2.125688 0.788295
v 0.84 2.219582 0.964884
v 0.84 2.102933 0.79703
v 0.84 2.151317 0.991089
v 0.84 2.078741 0.8
v 0.84 2.078741 1.0
v 0.43 2.078741 0.8
v 0.43 2.078741 1.0
v 0.43 2.102933 0.79703
v 0.43 2.151317 0.991089
v 0.43 2.125688 0.788295
v 0.43 2.219582 0.964884
v 0.43 2.145654 0.774315
v 0.43 2.27948 0.922943
v 0.43 2.161645 0.755919
v 0.43 2.327452 0.867758
v 0.43 2.17271 0.734202
v 0.43 2.360648 0.802606
v 0.43 2.368092 0.197394
v 0.43 2.556031 0.265798
v 0.43 2.401289 0.132242
v 0.43 2.567096 0.244081
v 0.43 2.449261 0.077057
v 0.43 2.583087 0.225686
v 0.43 2.509159 0.035116
v 0.43 2.603053 0.211705
v 0.43 2.577423 0.008911
v 0.43 2.625808 0.20297
v 0.43 2.65 -0.0
v 0.43 2.65 0.2
v 0.43 3.0 0.0
v 0.43 3.0 0.2
v -0.43 3.0 0.0
v -0.43 3.0 0.2
v -0.43 2.65 0.0
v -0.43 2.65 0.2
v -0.43 2.577423 0.008911
v -0.43 2.625808 0.20297
v -0.43 2.509159 0.035116
v -0.43 2.603053 0.211705
v -0.43 2.449261 0.077057
v -0.43 2.583087 0.225686
v -0.43 2.401289 0.132242
v -0.43 2.567096 0.244081
v -0.43 2.368092 0.197394
v -0.43 2.556031 0.265798
v -0.43 2.17271 0.734202
v -0.43 2.360648 0.802606
v -0.43 2.161645 0.755919
v -0.43 2.327452 0.867758
v -0.43 2.145654 0.774315
v -0.43 2.27948 0.922943
v -0.43 2.125688 0.788295
v -0.43 2.219582 0.964884
v -0.43 2.102933 0.79703
v -0.43 2.151317 0.991089
v -0.43 2.078741 0.8
v -0.43 2.078741 1.0
v -0.84 2.078741 0.8
v -0.84 2.078741 1.0
v -0.84 2.102933 0.79703
v -0.84 2.151317 0.991089
v -0.84 2.125688 0.788295
v -0.84 2.219582 0.964884
v -0.84 2.145654 0.774315
v -0.84 2.27948 0.922943
v -0.84 2.161645 0.755919
v -0.84 2.327452 0.867758
v -0.84 2.17271 0.734202
v -0.84 2.360648 0.802606
v -0.84 2.368092 0.197394
v -0.84 2.556031 0.265798
v -0.84 2.401289 0.132242
v -0.84 2.567096 0.244081
v -0.84 2.449261 0.077057
v -0.84 2.583087 0.225686
v -0.84 2.509159 0.035116
v -0.84 2.603053 0.211705
v -0.84 2.577423 0.008911
v -0.84 2.625808 0.20297
v -0.84 2.65 -0.0
v -0.84 2.65 0.2
v -0.84 3.0 0.0
v -0.84 3.0 0.2
v -1.7 3.0 0.0
v -1.7 3.0 0.2
v -1.7 2.65 0.0
v -1.7 2.65 0.2
v -1.7 2.577423 0.008911
v -1.7 2.625808 0.20297
v -1.7 2.509159 0.035116
v -1.7 2.603053 0.211705
v -1.7 2.449261 0.077057
v -1.7 2.583087 0.225686
v -1.7 2.401289 0.132242
v -1.7 2.567096 0.244081
v -1.7 2.368092 0.197394
v -1.7 2.556031 0.265798
v -1.7 2.17271 0.734202
v -1.7 2.360648 0.802606
v -1.7 2.161645 0.755919
v -1.7 2.327452 0.867758
v -1.7 2.145654 0.774315
v -1.7 2.27948 0.922943
v -1.7 2.125688 0.788295
v -1.7 2.219582 0.964884
v -1.7 2.102933 0.79703
v -1.7 2.151317 0.991089
v -1.7 2.078741 0.8
v -1.7 2.078741 1.0
v -2.11 2.078741 0.8
v -2.11 2.078741 1.0
v -2.11 2.102933 0.79703
v -2.11 2.151317 0.991089
v -2.11 2.125688 0.788295
v -2.11 2.219582 0.964884
v -2.11 2.145654 0.774315
v -2.11 2.27948 0.922943
v -2.11 2.161645 0.755919
v -2.11 2.327452 0.867758
v -2.11 2.17271 0.734202
v -2.11 2.360648 0.802606
v -2.11 2.368092 0.197394
v -2.11 2.556031 0.265798
v -2.11 2.401289 0.132242
v -2.11 2.567096 0.244081
v -2.11 2.449261 0.077057
v -2.11 2.583087 0.225686
v -2.11 2.509159 0.035116
v -2.11 2.603053 0.211705
v -2.11 2.577423 0.008911
v -2.11 2.625808 0.20297
v -2.11 2.65 -0.0
v -2.11 2.65 0.2
v -2.11 3.0 0.0
v -2.11 3.0 0.2
usemtl 1
f 1// 2// 3//
f 3// 2// 4//
f 5// 6// 7//
f 7// 6// 8//
f 9// 10// 11//
f 11// 10// 12//
f 13// 14// 15//
f 15// 14// 16//
f 17// 18// 19//
f 19// 18// 20//
f 21// 22// 23//
f 23// 22// 24//
f 25// 26// 27//
f 27// 26// 28//
f 29// 30// 31//
f 31// 30// 32//
f 33// 34// 35//
f 35// 34// 36//
f 37// 38// 39//
f 39// 38// 40//
f 41// 42// 43//
f 43// 42// 44//
f 45// 46// 47//
f 47// 46// 48//
f 49// 50// 51//
f 52// 53// 54//
f 49// 51// 55//
f 54// 56// 52//
f 52// 56// 57//
f 52// 57// 58//
f 58// 57// 59//
f 59// 60// 58//
f 58// 60// 61//
f 58// 61// 62//
f 63// 64// 65//
f 65// 64// 66//
f 65// 66// 51//
f 51// 66// 67//
f 51// 67// 55//
f 50// 68// 51//
f 51// 68// 69//
f 51// 69// 52//
f 52// 69// 70//
f 52// 70// 71//
f 71// 72// 52//
f 52// 72// 73//
f 52// 73// 53//
f 62// 74// 58//
f 58// 74// 75//
f 58// 75// 65//
f 65// 75// 76//
f 65// 76// 63//
f 77// 78// 79//
f 79// 78// 80//
f 81// 46// 82//
f 82// 46// 45//
f 82// 45// 26//
f 26// 25// 82//
f 82// 25// 22//
f 82// 22// 83//
f 22// 21// 83//
f 83// 21// 18//
f 83// 18// 17//
f 17// 16// 83//
f 83// 16// 14//
f 83// 14// 84//
f 33// 85// 86//
f 33// 86// 34//
f 34// 86// 87//
f 34// 87// 88//
f 44// 89// 90//
f 44// 90// 43//
f 43// 90// 91//
f 43// 91// 92//
f 93// 1// 94//
f 94// 1// 3//
f 94// 3// 7//
f 7// 8// 94//
f 94// 8// 11//
f 94// 11// 95//
f 11// 12// 95//
f 95// 12// 31//
f 95// 31// 32//
f 32// 39// 95//
f 95// 39// 40//
f 95// 40// 96//
f 97// 38// 98//
f 98// 38// 37//
f 98// 37// 30//
f 6// 5// 99//
f 30// 29// 98//
f 98// 29// 10//
f 98// 10// 99//
f 99// 10// 9//
f 99// 9// 6//
f 5// 4// 99//
f 99// 4// 2//
f 99// 2// 100//
f 41// 101// 102//
f 102// 103// 104//
f 41// 102// 42//
f 42// 102// 104//
f 42// 104// 105//
f 36// 106// 107//
f 107// 108// 36//
f 36// 108// 109//
f 36// 109// 35//
f 35// 109// 110//
f 111// 112// 13//
f 13// 15// 111//
f 111// 15// 19//
f 111// 19// 20//
f 20// 23// 111//
f 111// 23// 24//
f 111// 24// 113//
f 113// 24// 27//
f 113// 27// 28//
f 28// 47// 113//
f 113// 47// 48//
f 113// 48// 114//
f 115// 116// 117//
f 117// 116// 118//
f 108// 107// 119//
f 108// 119// 120//
f 120// 119// 121//
f 120// 121// 122//
f 122// 121// 123//
f 122// 123// 124//
f 124// 123// 125//
f 124// 125// 126//
f 126// 125// 127//
f 126// 127// 128//
f 128// 127// 129//
f 128// 129// 130//
f 130// 129// 131//
f 130// 131// 132//
f 132// 131// 133//
f 132// 133// 134//
f 134// 133// 135//
f 134// 135// 136//
f 136// 135// 137//
f 136// 137// 138//
f 138// 137// 65//
f 138// 65// 51//
f 98// 99// 139//
f 139// 99// 140//
f 139// 140// 141//
f 141// 140// 142//
f 141// 142// 143//
f 143// 142// 144//
f 143// 144// 145//
f 145// 144// 146//
f 145// 146// 147//
f 147// 146// 148//
f 147// 148// 149//
f 149// 148// 150//
f 149// 150// 151//
f 151// 150// 152//
f 151// 152// 153//
f 153// 152// 154//
f 153// 154// 155//
f 155// 154// 156//
f 155// 156// 157//
f 156// 158// 157//
f 157// 158// 58//
f 157// 58// 65//
f 159// 160// 161//
f 161// 160// 162//
f 161// 162// 103//
f 103// 162// 163//
f 103// 163// 104//
f 161// 164// 159//
f 159// 164// 165//
f 159// 165// 166//
f 166// 165// 167//
f 165// 168// 167//
f 167// 168// 169//
f 167// 169// 170//
f 170// 169// 171//
f 169// 172// 171//
f 171// 172// 173//
f 171// 173// 174//
f 174// 173// 175//
f 173// 176// 175//
f 175// 176// 177//
f 175// 177// 58//
f 58// 177// 178//
f 58// 178// 52//
f 51// 52// 179//
f 179// 52// 180//
f 179// 180// 181//
f 180// 182// 181//
f 181// 182// 183//
f 181// 183// 184//
f 184// 183// 185//
f 185// 183// 186//
f 185// 186// 187//
f 186// 188// 187//
f 187// 188// 115//
f 187// 115// 117//
f 187// 189// 185//
f 185// 189// 190//
f 185// 190// 184//
f 184// 190// 181//
f 181// 190// 191//
f 181// 191// 179//
f 179// 191// 138//
f 179// 138// 51//
f 192// 108// 120//
f 193// 194// 195//
f 195// 194// 196//
f 120// 122// 192//
f 192// 122// 124//
f 192// 124// 197//
f 198// 199// 196//
f 196// 199// 200//
f 196// 200// 195//
f 124// 126// 197//
f 197// 126// 128//
f 197// 128// 201//
f 202// 203// 204//
f 204// 203// 205//
f 204// 205// 198//
f 198// 205// 206//
f 198// 206// 199//
f 194// 207// 196//
f 196// 207// 208//
f 196// 208// 198//
f 198// 208// 209//
f 198// 209// 204//
f 204// 209// 210//
f 211// 210// 201//
f 201// 210// 209//
f 201// 209// 197//
f 197// 209// 208//
f 197// 208// 192//
f 192// 208// 207//
f 192// 207// 108//
f 194// 108// 207//
f 193// 212// 194//
f 194// 212// 108//
f 202// 189// 213//
f 213// 189// 187//
f 213// 187// 117//
f 128// 130// 201//
f 201// 130// 132//
f 201// 132// 211//
f 211// 132// 134//
f 211// 134// 136//
f 202// 204// 189//
f 189// 204// 210//
f 189// 210// 190//
f 190// 210// 211//
f 190// 211// 191//
f 191// 211// 136//
f 191// 136// 138//
f 145// 147// 214//
f 215// 216// 217//
f 65// 218// 219//
f 220// 218// 65//
f 217// 216// 65//
f 157// 65// 216//
f 221// 222// 223//
f 222// 221// 224//
f 224// 221// 225//
f 224// 225// 226//
f 226// 225// 227//
f 226// 227// 228//
f 228// 227// 229//
f 228// 229// 230//
f 230// 229// 231//
f 231// 229// 232//
f 231// 232// 233//
f 233// 232// 234//
f 234// 232// 119//
f 234// 119// 107//
f 137// 220// 65//
f 149// 151// 215//
f 215// 151// 153//
f 215// 153// 216//
f 216// 153// 155//
f 216// 155// 157//
f 235// 219// 236//
f 236// 219// 218//
f 236// 218// 237//
f 237// 218// 220//
f 237// 220// 238//
f 137// 135// 220//
f 220// 135// 133//
f 220// 133// 238//
f 238// 133// 131//
f 238// 131// 129//
f 214// 235// 239//
f 239// 235// 236//
f 239// 236// 240//
f 240// 236// 237//
f 240// 237// 241//
f 241// 237// 238//
f 241// 238// 242//
f 242// 238// 129//
f 141// 143// 243//
f 243// 143// 145//
f 145// 214// 243//
f 243// 214// 239//
f 243// 239// 244//
f 244// 239// 240//
f 244// 240// 245//
f 245// 240// 241//
f 245// 241// 246//
f 246// 241// 242//
f 246// 242// 247//
f 147// 149// 214//
f 214// 149// 215//
f 214// 215// 235//
f 235// 215// 217//
f 235// 217// 219//
f 219// 217// 65//
f 141// 221// 139//
f 139// 221// 223//
f 139// 223// 98//
f 129// 127// 242//
f 242// 127// 125//
f 242// 125// 247//
f 247// 125// 123//
f 247// 123// 121//
f 141// 243// 221//
f 221// 243// 244//
f 221// 244// 225//
f 225// 244// 245//
f 225// 245// 227//
f 227// 245// 246//
f 227// 246// 229//
f 229// 246// 247//
f 229// 247// 232//
f 232// 247// 121//
f 232// 121// 119//
f 159// 166// 248//
f 249// 250// 251//
f 58// 252// 253//
f 254// 252// 58//
f 251// 250// 58//
f 175// 58// 250//
f 255// 256// 257//
f 256// 255// 258//
f 258// 255// 259//
f 258// 259// 260//
f 260// 259// 261//
f 260// 261// 262//
f 262// 261// 263//
f 262// 263// 264//
f 264// 263// 265//
f 265// 263// 266//
f 265// 266// 267//
f 267// 266// 268//
f 268// 266// 140//
f 268// 140// 99//
f 158// 254// 58//
f 167// 170// 249//
f 249// 170// 171//
f 249// 171// 250//
f 250// 171// 174//
f 250// 174// 175//
f 269// 253// 270//
f 270// 253// 252//
f 270// 252// 271//
f 271// 252// 254//
f 271// 254// 272//
f 158// 156// 254//
f 254// 156// 154//
f 254// 154// 272//
f 272// 154// 152//
f 272// 152// 150//
f 248// 269// 273//
f 273// 269// 270//
f 273// 270// 274//
f 274// 270// 271//
f 274// 271// 275//
f 275// 271// 272//
f 275// 272// 276//
f 276// 272// 150//
f 162// 160// 277//
f 277// 160// 159//
f 159// 248// 277//
f 277// 248// 273//
f 277// 273// 278//
f 278// 273// 274//
f 278// 274// 279//
f 279// 274// 275//
f 279// 275// 280//
f 280// 275// 276//
f 280// 276// 281//
f 166// 167// 248//
f 248// 167// 249//
f 248// 249// 269//
f 269// 249// 251//
f 269// 251// 253//
f 253// 251// 58//
f 162// 255// 163//
f 163// 255// 257//
f 163// 257// 104//
f 150// 148// 276//
f 276// 148// 146//
f 276// 146// 281//
f 281// 146// 144//
f 281// 144// 142//
f 162// 277// 255//
f 255// 277// 278//
f 255// 278// 259//
f 259// 278// 279//
f 259// 279// 261//
f 261// 279// 280//
f 261// 280// 263//
f 263// 280// 281//
f 263// 281// 266//
f 266// 281// 142//
f 266// 142// 140//
f 180// 282// 182//
f 182// 282// 283//
f 182// 283// 183//
f 183// 283// 284//
f 183// 284// 186//
f 186// 284// 188//
f 188// 284// 285//
f 188// 285// 115//
f 286// 103// 287//
f 164// 288// 165//
f 165// 288// 289//
f 287// 290// 286//
f 286// 290// 291//
f 286// 291// 292//
f 293// 169// 289//
f 289// 169// 168//
f 289// 168// 165//
f 291// 294// 292//
f 292// 294// 295//
f 292// 295// 296//
f 177// 176// 297//
f 297// 176// 173//
f 297// 173// 293//
f 293// 173// 172//
f 293// 172// 169//
f 288// 298// 289//
f 289// 298// 299//
f 289// 299// 293//
f 293// 299// 300//
f 293// 300// 297//
f 297// 300// 301//
f 302// 301// 296//
f 296// 301// 300//
f 296// 300// 292//
f 292// 300// 299//
f 292// 299// 286//
f 286// 299// 298//
f 286// 298// 103//
f 288// 103// 298//
f 164// 161// 288//
f 288// 161// 103//
f 180// 52// 282//
f 282// 52// 178//
f 282// 178// 177//
f 295// 303// 296//
f 296// 303// 304//
f 296// 304// 302//
f 302// 304// 305//
f 302// 305// 306//
f 177// 297// 282//
f 282// 297// 301//
f 282// 301// 283//
f 283// 301// 302//
f 283// 302// 284//
f 284// 302// 306//
f 284// 306// 285//
f 109// 108// 212//
f 117// 118// 213//
f 213// 118// 307//
f 213// 307// 202//
f 202// 307// 308//
f 202// 308// 203//
f 203// 308// 309//
f 203// 309// 205//
f 205// 309// 310//
f 205// 310// 206//
f 206// 310// 311//
f 206// 311// 199//
f 199// 311// 312//
f 199// 312// 200//
f 200// 312// 313//
f 200// 313// 195//
f 195// 313// 314//
f 195// 314// 193//
f 193// 314// 315//
f 193// 315// 212//
f 212// 315// 316//
f 212// 316// 109//
f 317// 318// 223//
f 223// 318// 319//
f 223// 319// 98//
f 98// 319// 320//
f 98// 320// 97//
f 223// 222// 317//
f 317// 222// 224//
f 317// 224// 321//
f 321// 224// 226//
f 226// 228// 321//
f 321// 228// 230//
f 321// 230// 322//
f 322// 230// 231//
f 322// 231// 323//
f 323// 231// 233//
f 323// 233// 324//
f 324// 233// 234//
f 324// 234// 325//
f 325// 234// 107//
f 325// 107// 106//
f 326// 327// 257//
f 257// 327// 328//
f 257// 328// 104//
f 104// 328// 329//
f 104// 329// 105//
f 257// 256// 326//
f 326// 256// 258//
f 326// 258// 330//
f 330// 258// 260//
f 260// 262// 330//
f 330// 262// 264//
f 330// 264// 331//
f 331// 264// 265//
f 331// 265// 332//
f 332// 265// 267//
f 332// 267// 333//
f 333// 267// 268//
f 333// 268// 334//
f 334// 268// 99//
f 334// 99// 100//
f 103// 102// 335//
f 116// 115// 336//
f 336// 115// 285//
f 336// 285// 337//
f 337// 285// 306//
f 337// 306// 338//
f 338// 306// 305//
f 338// 305// 339//
f 339// 305// 304//
f 339// 304// 340//
f 340// 304// 303//
f 340// 303// 341//
f 341// 303// 295//
f 341// 295// 342//
f 342// 295// 294//
f 342// 294// 343//
f 343// 294// 291//
f 343// 291// 344//
f 344// 291// 290//
f 344// 290// 335//
f 335// 290// 287//
f 335// 287// 103//
f 111// 113// 345//
f 118// 116// 346//
f 346// 116// 347//
f 346// 347// 348//
f 348// 347// 349//
f 348// 349// 350//
f 350// 349// 351//
f 350// 351// 345//
f 345// 351// 352//
f 345// 352// 111//
f 348// 350// 353//
f 353// 350// 345//
f 354// 355// 356//
f 357// 109// 316//
f 355// 354// 358//
f 358// 354// 359//
f 358// 359// 360//
f 316// 315// 357//
f 357// 315// 314//
f 357// 314// 361//
f 360// 359// 362//
f 362// 359// 363//
f 362// 363// 364//
f 314// 313// 361//
f 361// 313// 312//
f 361// 312// 365//
f 364// 363// 366//
f 366// 363// 367//
f 366// 367// 368//
f 312// 311// 365//
f 365// 311// 310//
f 365// 310// 369//
f 368// 367// 370//
f 370// 367// 353//
f 370// 353// 371//
f 371// 353// 345//
f 371// 345// 113//
f 346// 348// 372//
f 372// 348// 353//
f 372// 353// 369//
f 369// 353// 367//
f 369// 367// 365//
f 365// 367// 363//
f 365// 363// 361//
f 361// 363// 359//
f 361// 359// 357//
f 357// 359// 354//
f 357// 354// 109//
f 356// 109// 354//
f 118// 346// 307//
f 307// 346// 372//
f 307// 372// 308//
f 308// 372// 369//
f 308// 369// 309//
f 309// 369// 310//
f 36// 34// 106//
f 106// 34// 88//
f 106// 88// 325//
f 325// 88// 373//
f 325// 373// 324//
f 324// 373// 374//
f 324// 374// 323//
f 323// 374// 375//
f 323// 375// 322//
f 322// 375// 376//
f 322// 376// 321//
f 321// 376// 377//
f 321// 377// 317//
f 317// 377// 378//
f 317// 378// 318//
f 318// 378// 379//
f 318// 379// 319//
f 319// 379// 380//
f 319// 380// 320//
f 320// 380// 381//
f 320// 381// 97//
f 97// 381// 96//
f 97// 96// 38//
f 38// 96// 40//
f 2// 1// 100//
f 100// 1// 93//
f 100// 93// 334//
f 334// 93// 382//
f 334// 382// 333//
f 333// 382// 383//
f 333// 383// 332//
f 332// 383// 384//
f 332// 384// 331//
f 331// 384// 385//
f 331// 385// 330//
f 330// 385// 386//
f 330// 386// 326//
f 326// 386// 387//
f 326// 387// 327//
f 327// 387// 388//
f 327// 388// 328//
f 328// 388// 389//
f 328// 389// 329//
f 329// 389// 390//
f 329// 390// 105//
f 105// 390// 89//
f 105// 89// 42//
f 42// 89// 44//
f 352// 351// 391//
f 349// 347// 392//
f 392// 347// 116//
f 393// 102// 394//
f 395// 343// 396//
f 396// 343// 344//
f 396// 344// 335//
f 394// 397// 393//
f 393// 397// 398//
f 393// 398// 399//
f 400// 341// 395//
f 395// 341// 342//
f 395// 342// 343//
f 398// 401// 399//
f 399// 401// 402//
f 399// 402// 403//
f 404// 339// 400//
f 400// 339// 340//
f 400// 340// 341//
f 402// 405// 403//
f 403// 405// 406//
f 403// 406// 407//
f 116// 336// 392//
f 392// 336// 337//
f 392// 337// 404//
f 404// 337// 338//
f 404// 338// 339//
f 351// 349// 391//
f 391// 349// 392//
f 391// 392// 407//
f 407// 392// 404//
f 407// 404// 403//
f 403// 404// 400//
f 403// 400// 399//
f 399// 400// 395//
f 399// 395// 393//
f 393// 395// 396//
f 393// 396// 102//
f 335// 102// 396//
f 111// 352// 408//
f 408// 352// 391//
f 408// 391// 409//
f 409// 391// 407//
f 409// 407// 410//
f 410// 407// 406//
f 411// 412// 356//
f 356// 412// 413//
f 356// 413// 109//
f 109// 413// 414//
f 109// 414// 110//
f 356// 355// 411//
f 411// 355// 358//
f 411// 358// 415//
f 358// 360// 415//
f 415// 360// 362//
f 415// 362// 416//
f 113// 114// 371//
f 371// 114// 417//
f 371// 417// 370//
f 370// 417// 418//
f 370// 418// 368//
f 368// 418// 419//
f 368// 419// 366//
f 366// 419// 416//
f 366// 416// 364//
f 364// 416// 362//
f 376// 375// 420//
f 420// 375// 374//
f 420// 374// 87//
f 87// 374// 373//
f 87// 373// 88//
f 420// 421// 376//
f 376// 421// 422//
f 376// 422// 377//
f 377// 422// 423//
f 423// 424// 377//
f 377// 424// 425//
f 377// 425// 378//
f 378// 425// 426//
f 378// 426// 379//
f 379// 426// 427//
f 379// 427// 380//
f 380// 427// 428//
f 380// 428// 381//
f 381// 428// 95//
f 381// 95// 96//
f 94// 95// 429//
f 429// 95// 430//
f 429// 430// 431//
f 431// 430// 432//
f 431// 432// 433//
f 433// 432// 434//
f 433// 434// 435//
f 435// 434// 436//
f 435// 436// 437//
f 437// 436// 438//
f 437// 438// 439//
f 439// 438// 440//
f 439// 440// 441//
f 441// 440// 442//
f 441// 442// 443//
f 443// 442// 444//
f 443// 444// 445//
f 445// 444// 446//
f 445// 446// 447//
f 446// 448// 447//
f 447// 448// 80//
f 447// 80// 78//
f 385// 384// 449//
f 449// 384// 383//
f 449// 383// 94//
f 94// 383// 382//
f 94// 382// 93//
f 449// 450// 385//
f 385// 450// 451//
f 385// 451// 386//
f 386// 451// 452//
f 452// 453// 386//
f 386// 453// 454//
f 386// 454// 387//
f 387// 454// 455//
f 387// 455// 388//
f 388// 455// 456//
f 388// 456// 389//
f 389// 456// 457//
f 389// 457// 390//
f 390// 457// 90//
f 390// 90// 89//
f 112// 111// 458//
f 458// 111// 408//
f 458// 408// 459//
f 459// 408// 409//
f 459// 409// 460//
f 460// 409// 410//
f 460// 410// 461//
f 410// 406// 461//
f 461// 406// 405//
f 461// 405// 462//
f 405// 402// 462//
f 462// 402// 401//
f 462// 401// 463//
f 463// 401// 398//
f 463// 398// 464//
f 464// 398// 397//
f 464// 397// 465//
f 465// 397// 394//
f 465// 394// 466//
f 466// 394// 102//
f 466// 102// 101//
f 48// 46// 114//
f 114// 46// 81//
f 114// 81// 417//
f 417// 81// 467//
f 417// 467// 418//
f 418// 467// 468//
f 418// 468// 419//
f 419// 468// 469//
f 419// 469// 416//
f 416// 469// 470//
f 416// 470// 415//
f 415// 470// 471//
f 415// 471// 411//
f 411// 471// 472//
f 411// 472// 412//
f 412// 472// 473//
f 412// 473// 413//
f 413// 473// 474//
f 413// 474// 414//
f 414// 474// 475//
f 414// 475// 110//
f 110// 475// 85//
f 110// 85// 35//
f 35// 85// 33//
f 476// 477// 478//
f 479// 480// 481//
f 80// 482// 483//
f 484// 482// 80//
f 481// 480// 80//
f 485// 80// 480//
f 486// 421// 420//
f 421// 486// 422//
f 422// 486// 487//
f 422// 487// 423//
f 423// 487// 488//
f 423// 488// 424//
f 424// 488// 489//
f 424// 489// 425//
f 425// 489// 426//
f 426// 489// 490//
f 426// 490// 427//
f 427// 490// 428//
f 428// 490// 430//
f 428// 430// 95//
f 448// 484// 80//
f 491// 492// 479//
f 479// 492// 493//
f 479// 493// 480//
f 480// 493// 494//
f 480// 494// 485//
f 495// 483// 496//
f 496// 483// 482//
f 496// 482// 497//
f 497// 482// 484//
f 497// 484// 498//
f 448// 446// 484//
f 484// 446// 444//
f 484// 444// 498//
f 498// 444// 442//
f 498// 442// 440//
f 478// 495// 499//
f 499// 495// 496//
f 499// 496// 500//
f 500// 496// 497//
f 500// 497// 501//
f 501// 497// 498//
f 501// 498// 502//
f 502// 498// 440//
f 503// 504// 505//
f 505// 504// 476//
f 476// 478// 505//
f 505// 478// 499//
f 505// 499// 506//
f 506// 499// 500//
f 506// 500// 507//
f 507// 500// 501//
f 507// 501// 508//
f 508// 501// 502//
f 508// 502// 509//
f 477// 491// 478//
f 478// 491// 479//
f 478// 479// 495//
f 495// 479// 481//
f 495// 481// 483//
f 483// 481// 80//
f 503// 486// 510//
f 510// 486// 420//
f 510// 420// 87//
f 440// 438// 502//
f 502// 438// 436//
f 502// 436// 509//
f 509// 436// 434//
f 509// 434// 432//
f 503// 505// 486//
f 486// 505// 506//
f 486// 506// 487//
f 487// 506// 507//
f 487// 507// 488//
f 488// 507// 508//
f 488// 508// 489//
f 489// 508// 509//
f 489// 509// 490//
f 490// 509// 432//
f 490// 432// 430//
f 435// 437// 511//
f 512// 513// 514//
f 78// 515// 516//
f 517// 515// 78//
f 514// 513// 78//
f 447// 78// 513//
f 518// 450// 449//
f 450// 518// 451//
f 451// 518// 519//
f 451// 519// 452//
f 452// 519// 520//
f 452// 520// 453//
f 453// 520// 521//
f 453// 521// 454//
f 454// 521// 455//
f 455// 521// 522//
f 455// 522// 456//
f 456// 522// 457//
f 457// 522// 523//
f 457// 523// 90//
f 524// 517// 78//
f 439// 441// 512//
f 512// 441// 443//
f 512// 443// 513//
f 513// 443// 445//
f 513// 445// 447//
f 525// 516// 526//
f 526// 516// 515//
f 526// 515// 527//
f 527// 515// 517//
f 527// 517// 528//
f 524// 529// 517//
f 517// 529// 530//
f 517// 530// 528//
f 528// 530// 531//
f 528// 531// 532//
f 511// 525// 533//
f 533// 525// 526//
f 533// 526// 534//
f 534// 526// 527//
f 534// 527// 535//
f 535// 527// 528//
f 535// 528// 536//
f 536// 528// 532//
f 431// 433// 537//
f 537// 433// 435//
f 435// 511// 537//
f 537// 511// 533//
f 537// 533// 538//
f 538// 533// 534//
f 538// 534// 539//
f 539// 534// 535//
f 539// 535// 540//
f 540// 535// 536//
f 540// 536// 541//
f 437// 439// 511//
f 511// 439// 512//
f 511// 512// 525//
f 525// 512// 514//
f 525// 514// 516//
f 516// 514// 78//
f 431// 518// 429//
f 429// 518// 449//
f 429// 449// 94//
f 532// 542// 536//
f 536// 542// 543//
f 536// 543// 541//
f 541// 543// 544//
f 541// 544// 545//
f 431// 537// 518//
f 518// 537// 538//
f 518// 538// 519//
f 519// 538// 539//
f 519// 539// 520//
f 520// 539// 540//
f 520// 540// 521//
f 521// 540// 541//
f 521// 541// 522//
f 522// 541// 545//
f 522// 545// 523//
f 41// 43// 101//
f 101// 43// 92//
f 101// 92// 466//
f 466// 92// 546//
f 466// 546// 465//
f 465// 546// 547//
f 465// 547// 464//
f 464// 547// 548//
f 464// 548// 463//
f 463// 548// 549//
f 463// 549// 462//
f 462// 549// 550//
f 462// 550// 461//
f 461// 550// 551//
f 461// 551// 460//
f 460// 551// 552//
f 460// 552// 459//
f 459// 552// 553//
f 459// 553// 458//
f 458// 553// 554//
f 458// 554// 112//
f 112// 554// 84//
f 112// 84// 13//
f 13// 84// 14//
f 470// 469// 555//
f 555// 469// 468//
f 555// 468// 82//
f 82// 468// 467//
f 82// 467// 81//
f 555// 556// 470//
f 470// 556// 557//
f 470// 557// 471//
f 471// 557// 558//
f 558// 559// 471//
f 471// 559// 560//
f 471// 560// 472//
f 472// 560// 561//
f 472// 561// 473//
f 473// 561// 562//
f 473// 562// 474//
f 474// 562// 563//
f 474// 563// 475//
f 475// 563// 86//
f 475// 86// 85//
f 87// 86// 510//
f 510// 86// 564//
f 510// 564// 503//
f 503// 564// 565//
f 503// 565// 504//
f 504// 565// 566//
f 504// 566// 476//
f 476// 566// 567//
f 476// 567// 477//
f 477// 567// 568//
f 477// 568// 491//
f 491// 568// 569//
f 491// 569// 492//
f 492// 569// 570//
f 492// 570// 493//
f 493// 570// 571//
f 493// 571// 494//
f 494// 571// 572//
f 494// 572// 485//
f 572// 573// 485//
f 485// 573// 79//
f 485// 79// 80//
f 91// 90// 574//
f 574// 90// 523//
f 574// 523// 575//
f 575// 523// 545//
f 575// 545// 576//
f 576// 545// 544//
f 576// 544// 577//
f 577// 544// 543//
f 577// 543// 578//
f 578// 543// 542//
f 578// 542// 579//
f 579// 542// 532//
f 579// 532// 580//
f 580// 532// 531//
f 580// 531// 581//
f 581// 531// 530//
f 581// 530// 582//
f 582// 530// 529//
f 582// 529// 583//
f 529// 524// 583//
f 583// 524// 78//
f 583// 78// 77//
f 549// 548// 584//
f 584// 548// 547//
f 584// 547// 91//
f 91// 547// 546//
f 91// 546// 92//
f 584// 585// 549//
f 549// 585// 586//
f 549// 586// 550//
f 550// 586// 587//
f 587// 588// 550//
f 550// 588// 589//
f 550// 589// 551//
f 551// 589// 590//
f 551// 590// 552//
f 552// 590// 591//
f 552// 591// 553//
f 553// 591// 592//
f 553// 592// 554//
f 554// 592// 83//
f 554// 83// 84//
f 593// 594// 595//
f 596// 597// 598//
f 79// 599// 600//
f 601// 599// 79//
f 598// 597// 79//
f 602// 79// 597//
f 603// 556// 555//
f 556// 603// 557//
f 557// 603// 604//
f 557// 604// 558//
f 558// 604// 605//
f 558// 605// 559//
f 559// 605// 606//
f 559// 606// 560//
f 560// 606// 561//
f 561// 606// 607//
f 561// 607// 562//
f 562// 607// 563//
f 563// 607// 564//
f 563// 564// 86//
f 573// 601// 79//
f 608// 609// 596//
f 596// 609// 610//
f 596// 610// 597//
f 597// 610// 611//
f 597// 611// 602//
f 612// 600// 613//
f 613// 600// 599//
f 613// 599// 614//
f 614// 599// 601//
f 614// 601// 615//
f 573// 572// 601//
f 601// 572// 571//
f 601// 571// 615//
f 615// 571// 570//
f 615// 570// 569//
f 595// 612// 616//
f 616// 612// 613//
f 616// 613// 617//
f 617// 613// 614//
f 617// 614// 618//
f 618// 614// 615//
f 618// 615// 619//
f 619// 615// 569//
f 620// 621// 622//
f 622// 621// 593//
f 593// 595// 622//
f 622// 595// 616//
f 622// 616// 623//
f 623// 616// 617//
f 623// 617// 624//
f 624// 617// 618//
f 624// 618// 625//
f 625// 618// 619//
f 625// 619// 626//
f 594// 608// 595//
f 595// 608// 596//
f 595// 596// 612//
f 612// 596// 598//
f 612// 598// 600//
f 600// 598// 79//
f 620// 603// 627//
f 627// 603// 555//
f 627// 555// 82//
f 569// 568// 619//
f 619// 568// 567//
f 619// 567// 626//
f 626// 567// 566//
f 626// 566// 565//
f 620// 622// 603//
f 603// 622// 623//
f 603// 623// 604//
f 604// 623// 624//
f 604// 624// 605//
f 605// 624// 625//
f 605// 625// 606//
f 606// 625// 626//
f 606// 626// 607//
f 607// 626// 565//
f 607// 565// 564//
f 577// 578// 628//
f 629// 630// 631//
f 77// 632// 633//
f 634// 632// 77//
f 631// 630// 77//
f 583// 77// 630//
f 635// 585// 584//
f 585// 635// 586//
f 586// 635// 636//
f 586// 636// 587//
f 587// 636// 637//
f 587// 637// 588//
f 588// 637// 638//
f 588// 638// 589//
f 589// 638// 590//
f 590// 638// 639//
f 590// 639// 591//
f 591// 639// 592//
f 592// 639// 640//
f 592// 640// 83//
f 641// 634// 77//
f 579// 580// 629//
f 629// 580// 581//
f 629// 581// 630//
f 630// 581// 582//
f 630// 582// 583//
f 642// 633// 643//
f 643// 633// 632//
f 643// 632// 644//
f 644// 632// 634//
f 644// 634// 645//
f 641// 646// 634//
f 634// 646// 647//
f 634// 647// 645//
f 645// 647// 648//
f 645// 648// 649//
f 628// 642// 650//
f 650// 642// 643//
f 650// 643// 651//
f 651// 643// 644//
f 651// 644// 652//
f 652// 644// 645//
f 652// 645// 653//
f 653// 645// 649//
f 575// 576// 654//
f 654// 576// 577//
f 577// 628// 654//
f 654// 628// 650//
f 654// 650// 655//
f 655// 650// 651//
f 655// 651// 656//
f 656// 651// 652//
f 656// 652// 657//
f 657// 652// 653//
f 657// 653// 658//
f 578// 579// 628//
f 628// 579// 629//
f 628// 629// 642//
f 642// 629// 631//
f 642// 631// 633//
f 633// 631// 77//
f 575// 635// 574//
f 574// 635// 584//
f 574// 584// 91//
f 649// 659// 653//
f 653// 659// 660//
f 653// 660// 658//
f 658// 660// 661//
f 658// 661// 662//
f 575// 654// 635//
f 635// 654// 655//
f 635// 655// 636//
f 636// 655// 656//
f 636// 656// 637//
f 637// 656// 657//
f 637// 657// 638//
f 638// 657// 658//
f 638// 658// 639//
f 639// 658// 662//
f 639// 662// 640//
f 82// 83// 627//
f 627// 83// 640//
f 627// 640// 620//
f 620// 640// 662//
f 620// 662// 621//
f 621// 662// 661//
f 621// 661// 593//
f 593// 661// 660//
f 593// 660// 594//
f 594// 660// 659//
f 594// 659// 608//
f 608// 659// 649//
f 608// 649// 609//
f 609// 649// 648//
f 609// 648// 610//
f 610// 648// 647//
f 610// 647// 611//
f 611// 647// 646//
f 611// 646// 602//
f 646// 641// 602//
f 602// 641// 77//
f 602// 77// 79//
usemtl 2
f 663// 67// 664//
f 664// 67// 66//
f 664// 66// 665//
f 665// 66// 64//
f 665// 64// 666//
f 666// 64// 63//
f 666// 63// 667//
f 667// 63// 76//
f 667// 76// 668//
f 668// 76// 75//
f 668// 75// 669//
f 669// 75// 74//
f 669// 74// 670//
f 670// 74// 62//
f 670// 62// 671//
f 671// 62// 61//
f 671// 61// 672//
f 672// 61// 60//
f 672// 60// 673//
f 673// 60// 59//
f 673// 59// 674//
f 674// 59// 57//
f 674// 57// 675//
f 675// 57// 56//
f 675// 56// 676//
f 676// 56// 54//
f 676// 54// 677//
f 677// 54// 53//
f 677// 53// 678//
f 678// 53// 73//
f 678// 73// 679//
f 679// 73// 72//
f 679// 72// 680//
f 680// 72// 71//
f 680// 71// 681//
f 681// 71// 70//
f 681// 70// 682//
f 682// 70// 69//
f 682// 69// 683//
f 683// 69// 68//
f 683// 68// 684//
f 684// 68// 50//
f 684// 50// 685//
f 685// 50// 49//
f 685// 49// 686//
f 686// 49// 55//
f 686// 55// 663//
f 663// 55// 67//
f 685// 686// 687//
f 687// 686// 663//
f 687// 663// 664//
f 682// 683// 687//
f 687// 683// 684//
f 687// 684// 685//
f 679// 680// 687//
f 687// 680// 681//
f 687// 681// 682//
f 676// 677// 687//
f 687// 677// 678//
f 687// 678// 679//
f 673// 674// 687//
f 687// 674// 675//
f 687// 675// 676//
f 670// 671// 687//
f 687// 671// 672//
f 687// 672// 673//
f 667// 668// 687//
f 687// 668// 669//
f 687// 669// 670//
f 664// 665// 687//
f 687// 665// 666//
f 687// 666// 667//
usemtl 3
f 688// 689// 690//
f 690// 689// 691//
f 690// 691// 692//
f 692// 691// 693//
f 692// 693// 694//
f 694// 693// 695//
f 694// 695// 696//
f 696// 695// 697//
f 696// 697// 698//
f 698// 697// 699//
f 698// 699// 700//
f 700// 699// 701//
f 700// 701// 702//
f 702// 701// 703//
f 702// 703// 704//
f 704// 703// 705//
f 704// 705// 706//
f 706// 705// 707//
f 706// 707// 708//
f 708// 707// 709//
f 708// 709// 710//
f 710// 709// 711//
f 710// 711// 712//
f 712// 711// 713//
f 712// 713// 39//
f 39// 713// 37//
f 32// 30// 714//
f 714// 30// 715//
f 714// 715// 716//
f 716// 715// 717//
f 716// 717// 718//
f 718// 717// 719//
f 718// 719// 720//
f 720// 719// 721//
f 720// 721// 722//
f 722// 721// 723//
f 722// 723// 724//
f 724// 723// 725//
f 724// 725// 726//
f 726// 725// 727//
f 726// 727// 728//
f 728// 727// 729//
f 728// 729// 730//
f 730// 729// 731//
f 730// 731// 732//
f 732// 731// 733//
f 732// 733// 734//
f 734// 733// 735//
f 734// 735// 736//
f 736// 735// 737//
f 736// 737// 738//
f 738// 737// 739//
f 688// 690// 738//
f 738// 690// 736//
f 689// 688// 739//
f 739// 688// 738//
f 691// 689// 737//
f 737// 689// 739//
f 691// 737// 693//
f 693// 737// 735//
f 693// 735// 695//
f 695// 735// 733//
f 695// 733// 697//
f 697// 733// 731//
f 697// 731// 699//
f 699// 731// 729//
f 699// 729// 701//
f 701// 729// 727//
f 703// 701// 725//
f 725// 701// 727//
f 703// 725// 723//
f 703// 723// 705//
f 705// 723// 721//
f 705// 721// 707//
f 707// 721// 719//
f 707// 719// 709//
f 709// 719// 717//
f 709// 717// 711//
f 711// 717// 715//
f 711// 715// 713//
f 37// 713// 30//
f 30// 713// 715//
f 714// 712// 32//
f 32// 712// 39//
f 712// 714// 710//
f 710// 714// 716//
f 710// 716// 708//
f 708// 716// 718//
f 708// 718// 706//
f 706// 718// 720//
f 706// 720// 704//
f 704// 720// 722//
f 704// 722// 702//
f 702// 722// 724//
f 700// 702// 726//
f 726// 702// 724//
f 700// 726// 728//
f 700// 728// 698//
f 698// 728// 730//
f 698// 730// 696//
f 696// 730// 732//
f 696// 732// 694//
f 694// 732// 734//
f 694// 734// 692//
f 692// 734// 736//
f 692// 736// 690//
f 45// 47// 740//
f 740// 47// 741//
f 740// 741// 742//
f 742// 741// 743//
f 742// 743// 744//
f 744// 743// 745//
f 744// 745// 746//
f 746// 745// 747//
f 746// 747// 748//
f 748// 747// 749//
f 748// 749// 750//
f 750// 749// 751//
f 750// 751// 752//
f 752// 751// 753//
f 752// 753// 754//
f 754// 753// 755//
f 754// 755// 756//
f 756// 755// 757//
f 756// 757// 758//
f 758// 757// 759//
f 758// 759// 760//
f 760// 759// 761//
f 760// 761// 762//
f 762// 761// 763//
f 762// 763// 764//
f 764// 763// 765//
f 766// 767// 768//
f 768// 767// 769//
f 768// 769// 770//
f 770// 769// 771//
f 770// 771// 772//
f 772// 771// 773//
f 772// 773// 774//
f 774// 773// 775//
f 774// 775// 776//
f 776// 775// 777//
f 776// 777// 778//
f 778// 777// 779//
f 778// 779// 780//
f 780// 779// 781//
f 780// 781// 782//
f 782// 781// 783//
f 782// 783// 784//
f 784// 783// 785//
f 784// 785// 786//
f 786// 785// 787//
f 786// 787// 788//
f 788// 787// 789//
f 788// 789// 790//
f 790// 789// 791//
f 790// 791// 26//
f 26// 791// 28//
f 762// 764// 768//
f 768// 764// 766//
f 762// 768// 770//
f 762// 770// 760//
f 760// 770// 772//
f 760// 772// 758//
f 758// 772// 774//
f 758// 774// 756//
f 756// 774// 776//
f 756// 776// 754//
f 754// 776// 778//
f 754// 778// 752//
f 750// 752// 780//
f 780// 752// 778//
f 750// 780// 748//
f 748// 780// 782//
f 748// 782// 746//
f 746// 782// 784//
f 746// 784// 744//
f 744// 784// 786//
f 744// 786// 742//
f 742// 786// 788//
f 742// 788// 740//
f 740// 788// 790//
f 45// 740// 26//
f 26// 740// 790//
f 791// 741// 28//
f 28// 741// 47//
f 741// 791// 789//
f 741// 789// 743//
f 743// 789// 787//
f 743// 787// 745//
f 745// 787// 785//
f 745// 785// 747//
f 747// 785// 783//
f 747// 783// 749//
f 749// 783// 781//
f 749// 781// 751//
f 753// 751// 779//
f 779// 751// 781//
f 753// 779// 755//
f 755// 779// 777//
f 755// 777// 757//
f 757// 777// 775//
f 757// 775// 759//
f 759// 775// 773//
f 759// 773// 761//
f 761// 773// 771//
f 761// 771// 763//
f 763// 771// 769//
f 765// 763// 767//
f 767// 763// 769//
f 764// 765// 766//
f 766// 765// 767//
f 25// 27// 792//
f 792// 27// 793//
f 792// 793// 794//
f 794// 793// 795//
f 794// 795// 796//
f 796// 795// 797//
f 796// 797// 798//
f 798// 797// 799//
f 798// 799// 800//
f 800// 799// 801//
f 800// 801// 802//
f 802// 801// 803//
f 802// 803// 804//
f 804// 803// 805//
f 804// 805// 806//
f 806// 805// 807//
f 806// 807// 808//
f 808// 807// 809//
f 808// 809// 810//
f 810// 809// 811//
f 810// 811// 812//
f 812// 811// 813//
f 812// 813// 814//
f 814// 813// 815//
f 814// 815// 816//
f 816// 815// 817//
f 818// 819// 820//
f 820// 819// 821//
f 820// 821// 822//
f 822// 821// 823//
f 822// 823// 824//
f 824// 823// 825//
f 824// 825// 826//
f 826// 825// 827//
f 826// 827// 828//
f 828// 827// 829//
f 828// 829// 830//
f 830// 829// 831//
f 830// 831// 832//
f 832// 831// 833//
f 832// 833// 834//
f 834// 833// 835//
f 834// 835// 836//
f 836// 835// 837//
f 836// 837// 838//
f 838// 837// 839//
f 838// 839// 840//
f 840// 839// 841//
f 840// 841// 842//
f 842// 841// 843//
f 842// 843// 22//
f 22// 843// 24//
f 814// 816// 820//
f 820// 816// 818//
f 814// 820// 822//
f 814// 822// 812//
f 812// 822// 824//
f 812// 824// 810//
f 810// 824// 826//
f 810// 826// 808//
f 808// 826// 828//
f 808// 828// 806//
f 806// 828// 830//
f 806// 830// 804//
f 802// 804// 832//
f 832// 804// 830//
f 802// 832// 800//
f 800// 832// 834//
f 800// 834// 798//
f 798// 834// 836//
f 798// 836// 796//
f 796// 836// 838//
f 796// 838// 794//
f 794// 838// 840//
f 794// 840// 792//
f 792// 840// 842//
f 25// 792// 22//
f 22// 792// 842//
f 843// 793// 24//
f 24// 793// 27//
f 793// 843// 841//
f 793// 841// 795//
f 795// 841// 839//
f 795// 839// 797//
f 797// 839// 837//
f 797// 837// 799//
f 799// 837// 835//
f 799// 835// 801//
f 801// 835// 833//
f 801// 833// 803//
f 805// 803// 831//
f 831// 803// 833//
f 805// 831// 807//
f 807// 831// 829//
f 807// 829// 809//
f 809// 829// 827//
f 809// 827// 811//
f 811// 827// 825//
f 811// 825// 813//
f 813// 825// 823//
f 813// 823// 815//
f 815// 823// 821//
f 817// 815// 819//
f 819// 815// 821//
f 816// 817// 818//
f 818// 817// 819//
f 21// 23// 844//
f 844// 23// 845//
f 844// 845// 846//
f 846// 845// 847//
f 846// 847// 848//
f 848// 847// 849//
f 848// 849// 850//
f 850// 849// 851//
f 850// 851// 852//
f 852// 851// 853//
f 852// 853// 854//
f 854// 853// 855//
f 854// 855// 856//
f 856// 855// 857//
f 856// 857// 858//
f 858// 857// 859//
f 858// 859// 860//
f 860// 859// 861//
f 860// 861// 862//
f 862// 861// 863//
f 862// 863// 864//
f 864// 863// 865//
f 864// 865// 866//
f 866// 865// 867//
f 866// 867// 868//
f 868// 867// 869//
f 870// 871// 872//
f 872// 871// 873//
f 872// 873// 874//
f 874// 873// 875//
f 874// 875// 876//
f 876// 875// 877//
f 876// 877// 878//
f 878// 877// 879//
f 878// 879// 880//
f 880// 879// 881//
f 880// 881// 882//
f 882// 881// 883//
f 882// 883// 884//
f 884// 883// 885//
f 884// 885// 886//
f 886// 885// 887//
f 886// 887// 888//
f 888// 887// 889//
f 888// 889// 890//
f 890// 889// 891//
f 890// 891// 892//
f 892// 891// 893//
f 892// 893// 894//
f 894// 893// 895//
f 894// 895// 18//
f 18// 895// 20//
f 866// 868// 872//
f 872// 868// 870//
f 866// 872// 874//
f 866// 874// 864//
f 864// 874// 876//
f 864// 876// 862//
f 862// 876// 878//
f 862// 878// 860//
f 860// 878// 880//
f 860// 880// 858//
f 858// 880// 882//
f 858// 882// 856//
f 854// 856// 884//
f 884// 856// 882//
f 854// 884// 852//
f 852// 884// 886//
f 852// 886// 850//
f 850// 886// 888//
f 850// 888// 848//
f 848// 888// 890//
f 848// 890// 846//
f 846// 890// 892//
f 846// 892// 844//
f 844// 892// 894//
f 21// 844// 18//
f 18// 844// 894//
f 895// 845// 20//
f 20// 845// 23//
f 845// 895// 893//
f 845// 893// 847//
f 847// 893// 891//
f 847// 891// 849//
f 849// 891// 889//
f 849// 889// 851//
f 851// 889// 887//
f 851// 887// 853//
f 853// 887// 885//
f 853// 885// 855//
f 857// 855// 883//
f 883// 855// 885//
f 857// 883// 859//
f 859// 883// 881//
f 859// 881// 861//
f 861// 881// 879//
f 861// 879// 863//
f 863// 879// 877//
f 863// 877// 865//
f 865// 877// 875//
f 865// 875// 867//
f 867// 875// 873//
f 869// 867// 871//
f 871// 867// 873//
f 868// 869// 870//
f 870// 869// 871//
f 17// 19// 896//
f 896// 19// 897//
f 896// 897// 898//
f 898// 897// 899//
f 898// 899// 900//
f 900// 899// 901//
f 900// 901// 902//
f 902// 901// 903//
f 902// 903// 904//
f 904// 903// 905//
f 904// 905// 906//
f 906// 905// 907//
f 906// 907// 908//
f 908// 907// 909//
f 908// 909// 910//
f 910// 909// 911//
f 910// 911// 912//
f 912// 911// 913//
f 912// 913// 914//
f 914// 913// 915//
f 914// 915// 916//
f 916// 915// 917//
f 916// 917// 918//
f 918// 917// 919//
f 918// 919// 920//
f 920// 919// 921//
f 922// 923// 924//
f 924// 923// 925//
f 924// 925// 926//
f 926// 925// 927//
f 926// 927// 928//
f 928// 927// 929//
f 928// 929// 930//
f 930// 929// 931//
f 930// 931// 932//
f 932// 931// 933//
f 932// 933// 934//
f 934// 933// 935//
f 934// 935// 936//
f 936// 935// 937//
f 936// 937// 938//
f 938// 937// 939//
f 938// 939// 940//
f 940// 939// 941//
f 940// 941// 942//
f 942// 941// 943//
f 942// 943// 944//
f 944// 943// 945//
f 944// 945// 946//
f 946// 945// 947//
f 946// 947// 16//
f 16// 947// 15//
f 918// 920// 924//
f 924// 920// 922//
f 918// 924// 926//
f 918// 926// 916//
f 916// 926// 928//
f 916// 928// 914//
f 914// 928// 930//
f 914// 930// 912//
f 912// 930// 932//
f 912// 932// 910//
f 910// 932// 934//
f 910// 934// 908//
f 906// 908// 936//
f 936// 908// 934//
f 906// 936// 904//
f 904// 936// 938//
f 904// 938// 902//
f 902// 938// 940//
f 902// 940// 900//
f 900// 940// 942//
f 900// 942// 898//
f 898// 942// 944//
f 898// 944// 896//
f 896// 944// 946//
f 17// 896// 16//
f 16// 896// 946//
f 947// 897// 15//
f 15// 897// 19//
f 897// 947// 945//
f 897// 945// 899//
f 899// 945// 943//
f 899// 943// 901//
f 901// 943// 941//
f 901// 941// 903//
f 903// 941// 939//
f 903// 939// 905//
f 905// 939// 937//
f 905// 937// 907//
f 909// 907// 935//
f 935// 907// 937//
f 909// 935// 911//
f 911// 935// 933//
f 911// 933// 913//
f 913// 933// 931//
f 913// 931// 915//
f 915// 931// 929//
f 915// 929// 917//
f 917// 929// 927//
f 917// 927// 919//
f 919// 927// 925//
f 921// 919// 923//
f 923// 919// 925//
f 920// 921// 922//
f 922// 921// 923//
f 948// 949// 950//
f 950// 949// 951//
f 950// 951// 952//
f 952// 951// 953//
f 952// 953// 954//
f 954// 953// 955//
f 954// 955// 956//
f 956// 955// 957//
f 956// 957// 958//
f 958// 957// 959//
f 958// 959// 960//
f 960// 959// 961//
f 960// 961// 962//
f 962// 961// 963//
f 962// 963// 964//
f 964// 963// 965//
f 964// 965// 966//
f 966// 965// 967//
f 966// 967// 968//
f 968// 967// 969//
f 968// 969// 970//
f 970// 969// 971//
f 970// 971// 972//
f 972// 971// 973//
f 972// 973// 31//
f 31// 973// 29//
f 12// 10// 974//
f 974// 10// 975//
f 974// 975// 976//
f 976// 975// 977//
f 976// 977// 978//
f 978// 977// 979//
f 978// 979// 980//
f 980// 979// 981//
f 980// 981// 982//
f 982// 981// 983//
f 982// 983// 984//
f 984// 983// 985//
f 984// 985// 986//
f 986// 985// 987//
f 986// 987// 988//
f 988// 987// 989//
f 988// 989// 990//
f 990// 989// 991//
f 990// 991// 992//
f 992// 991// 993//
f 992// 993// 994//
f 994// 993// 995//
f 994// 995// 996//
f 996// 995// 997//
f 996// 997// 998//
f 998// 997// 999//
f 948// 950// 998//
f 998// 950// 996//
f 949// 948// 999//
f 999// 948// 998//
f 951// 949// 997//
f 997// 949// 999//
f 951// 997// 953//
f 953// 997// 995//
f 953// 995// 955//
f 955// 995// 993//
f 955// 993// 957//
f 957// 993// 991//
f 957// 991// 959//
f 959// 991// 989//
f 959// 989// 961//
f 961// 989// 987//
f 963// 961// 985//
f 985// 961// 987//
f 963// 985// 983//
f 963// 983// 965//
f 965// 983// 981//
f 965// 981// 967//
f 967// 981// 979//
f 967// 979// 969//
f 969// 979// 977//
f 969// 977// 971//
f 971// 977// 975//
f 971// 975// 973//
f 29// 973// 10//
f 10// 973// 975//
f 974// 972// 12//
f 12// 972// 31//
f 972// 974// 970//
f 970// 974// 976//
f 970// 976// 968//
f 968// 976// 978//
f 968// 978// 966//
f 966// 978// 980//
f 966// 980// 964//
f 964// 980// 982//
f 964// 982// 962//
f 962// 982// 984//
f 960// 962// 986//
f 986// 962// 984//
f 960// 986// 988//
f 960// 988// 958//
f 958// 988// 990//
f 958// 990// 956//
f 956// 990// 992//
f 956// 992// 954//
f 954// 992// 994//
f 954// 994// 952//
f 952// 994// 996//
f 952// 996// 950//
f 1000// 1001// 1002//
f 1002// 1001// 1003//
f 1002// 1003// 1004//
f 1004// 1003// 1005//
f 1004// 1005// 1006//
f 1006// 1005// 1007//
f 1006// 1007// 1008//
f 1008// 1007// 1009//
f 1008// 1009// 1010//
f 1010// 1009// 1011//
f 1010// 1011// 1012//
f 1012// 1011// 1013//
f 1012// 1013// 1014//
f 1014// 1013// 1015//
f 1014// 1015// 1016//
f 1016// 1015// 1017//
f 1016// 1017// 1018//
f 1018// 1017// 1019//
f 1018// 1019// 1020//
f 1020// 1019// 1021//
f 1020// 1021// 1022//
f 1022// 1021// 1023//
f 1022// 1023// 1024//
f 1024// 1023// 1025//
f 1024// 1025// 11//
f 11// 1025// 9//
f 8// 6// 1026//
f 1026// 6// 1027//
f 1026// 1027// 1028//
f 1028// 1027// 1029//
f 1028// 1029// 1030//
f 1030// 1029// 1031//
f 1030// 1031// 1032//
f 1032// 1031// 1033//
f 1032// 1033// 1034//
f 1034// 1033// 1035//
f 1034// 1035// 1036//
f 1036// 1035// 1037//
f 1036// 1037// 1038//
f 1038// 1037// 1039//
f 1038// 1039// 1040//
f 1040// 1039// 1041//
f 1040// 1041// 1042//
f 1042// 1041// 1043//
f 1042// 1043// 1044//
f 1044// 1043// 1045//
f 1044// 1045// 1046//
f 1046// 1045// 1047//
f 1046// 1047// 1048//
f 1048// 1047// 1049//
f 1048// 1049// 1050//
f 1050// 1049// 1051//
f 1000// 1002// 1050//
f 1050// 1002// 1048//
f 1001// 1000// 1051//
f 1051// 1000// 1050//
f 1003// 1001// 1049//
f 1049// 1001// 1051//
f 1003// 1049// 1005//
f 1005// 1049// 1047//
f 1005// 1047// 1007//
f 1007// 1047// 1045//
f 1007// 1045// 1009//
f 1009// 1045// 1043//
f 1009// 1043// 1011//
f 1011// 1043// 1041//
f 1011// 1041// 1013//
f 1013// 1041// 1039//
f 1015// 1013// 1037//
f 1037// 1013// 1039//
f 1015// 1037// 1035//
f 1015// 1035// 1017//
f 1017// 1035// 1033//
f 1017// 1033// 1019//
f 1019// 1033// 1031//
f 1019// 1031// 1021//
f 1021// 1031// 1029//
f 1021// 1029// 1023//
f 1023// 1029// 1027//
f 1023// 1027// 1025//
f 9// 1025// 6//
f 6// 1025// 1027//
f 1026// 1024// 8//
f 8// 1024// 11//
f 1024// 1026// 1022//
f 1022// 1026// 1028//
f 1022// 1028// 1020//
f 1020// 1028// 1030//
f 1020// 1030// 1018//
f 1018// 1030// 1032//
f 1018// 1032// 1016//
f 1016// 1032// 1034//
f 1016// 1034// 1014//
f 1014// 1034// 1036//
f 1012// 1014// 1038//
f 1038// 1014// 1036//
f 1012// 1038// 1040//
f 1012// 1040// 1010//
f 1010// 1040// 1042//
f 1010// 1042// 1008//
f 1008// 1042// 1044//
f 1008// 1044// 1006//
f 1006// 1044// 1046//
f 1006// 1046// 1004//
f 1004// 1046// 1048//
f 1004// 1048// 1002//
f 1052// 1053// 1054//
f 1054// 1053// 1055//
f 1054// 1055// 1056//
f 1056// 1055// 1057//
f 1056// 1057// 1058//
f 1058// 1057// 1059//
f 1058// 1059// 1060//
f 1060// 1059// 1061//
f 1060// 1061// 1062//
f 1062// 1061// 1063//
f 1062// 1063// 1064//
f 1064// 1063// 1065//
f 1064// 1065// 1066//
f 1066// 1065// 1067//
f 1066// 1067// 1068//
f 1068// 1067// 1069//
f 1068// 1069// 1070//
f 1070// 1069// 1071//
f 1070// 1071// 1072//
f 1072// 1071// 1073//
f 1072// 1073// 1074//
f 1074// 1073// 1075//
f 1074// 1075// 1076//
f 1076// 1075// 1077//
f 1076// 1077// 7//
f 7// 1077// 5//
f 3// 4// 1078//
f 1078// 4// 1079//
f 1078// 1079// 1080//
f 1080// 1079// 1081//
f 1080// 1081// 1082//
f 1082// 1081// 1083//
f 1082// 1083// 1084//
f 1084// 1083// 1085//
f 1084// 1085// 1086//
f 1086// 1085// 1087//
f 1086// 1087// 1088//
f 1088// 1087// 1089//
f 1088// 1089// 1090//
f 1090// 1089// 1091//
f 1090// 1091// 1092//
f 1092// 1091// 1093//
f 1092// 1093// 1094//
f 1094// 1093// 1095//
f 1094// 1095// 1096//
f 1096// 1095// 1097//
f 1096// 1097// 1098//
f 1098// 1097// 1099//
f 1098// 1099// 1100//
f 1100// 1099// 1101//
f 1100// 1101// 1102//
f 1102// 1101// 1103//
f 1052// 1054// 1102//
f 1102// 1054// 1100//
f 1053// 1052// 1103//
f 1103// 1052// 1102//
f 1055// 1053// 1101//
f 1101// 1053// 1103//
f 1055// 1101// 1057//
f 1057// 1101// 1099//
f 1057// 1099// 1059//
f 1059// 1099// 1097//
f 1059// 1097// 1061//
f 1061// 1097// 1095//
f 1061// 1095// 1063//
f 1063// 1095// 1093//
f 1063// 1093// 1065//
f 1065// 1093// 1091//
f 1067// 1065// 1089//
f 1089// 1065// 1091//
f 1067// 1089// 1087//
f 1067// 1087// 1069//
f 1069// 1087// 1085//
f 1069// 1085// 1071//
f 1071// 1085// 1083//
f 1071// 1083// 1073//
f 1073// 1083// 1081//
f 1073// 1081// 1075//
f 1075// 1081// 1079//
f 1075// 1079// 1077//
f 5// 1077// 4//
f 4// 1077// 1079//
f 1078// 1076// 3//
f 3// 1076// 7//
f 1076// 1078// 1074//
f 1074// 1078// 1080//
f 1074// 1080// 1072//
f 1072// 1080// 1082//
f 1072// 1082// 1070//
f 1070// 1082// 1084//
f 1070// 1084// 1068//
f 1068// 1084// 1086//
f 1068// 1086// 1066//
f 1066// 1086// 1088//
f 1064// 1066// 1090//
f 1090// 1066// 1088//
f 1064// 1090// 1092//
f 1064// 1092// 1062//
f 1062// 1092// 1094//
f 1062// 1094// 1060//
f 1060// 1094// 1096//
f 1060// 1096// 1058//
f 1058// 1096// 1098//
f 1058// 1098// 1056//
f 1056// 1098// 1100//
f 1056// 1100// 1054//
