%TF.GenerationSoftware,KiCad,Pcbnew,10.0.0*%
%TF.CreationDate,2026-09-30T19:52:57-03:00*%
%TF.ProjectId,chufe-v-0-rev-a,63687566-652d-4762-9d30-2d7265762d61,rev?*%
%TF.SameCoordinates,Original*%
%TF.FileFunction,Soldermask,Top*%
%TF.FilePolarity,Negative*%
%FSLAX46Y46*%
G04 Gerber Fmt 4.6, Leading zero omitted, Abs format (unit mm)*
G04 Created by KiCad (PCBNEW 10.0.0) date 2026-09-30 19:52:57*
%MOMM*%
%LPD*%
G01*
G04 APERTURE LIST*
G04 Aperture macros list*
%AMRoundRect*
0 Rectangle with rounded corners*
0 $1 Rounding radius*
0 $2 $3 $4 $5 $6 $7 $8 $9 X,Y pos of 4 corners*
0 Add a 4 corners polygon primitive as box body*
4,1,4,$2,$3,$4,$5,$6,$7,$8,$9,$2,$3,0*
0 Add four circle primitives for the rounded corners*
1,1,$1+$1,$2,$3*
1,1,$1+$1,$4,$5*
1,1,$1+$1,$6,$7*
1,1,$1+$1,$8,$9*
0 Add four rect primitives between the rounded corners*
20,1,$1+$1,$2,$3,$4,$5,0*
20,1,$1+$1,$4,$5,$6,$7,0*
20,1,$1+$1,$6,$7,$8,$9,0*
20,1,$1+$1,$8,$9,$2,$3,0*%
G04 Aperture macros list end*
%ADD10RoundRect,0.250000X0.350000X-0.850000X0.350000X0.850000X-0.350000X0.850000X-0.350000X-0.850000X0*%
%ADD11RoundRect,0.249997X2.650003X-2.950003X2.650003X2.950003X-2.650003X2.950003X-2.650003X-2.950003X0*%
%ADD12R,1.800000X1.800000*%
%ADD13C,1.800000*%
%ADD14RoundRect,0.250000X-0.450000X0.262500X-0.450000X-0.262500X0.450000X-0.262500X0.450000X0.262500X0*%
%ADD15RoundRect,0.250000X-0.600000X0.600000X-0.600000X-0.600000X0.600000X-0.600000X0.600000X0.600000X0*%
%ADD16C,1.700000*%
%ADD17RoundRect,0.150000X0.150000X-0.587500X0.150000X0.587500X-0.150000X0.587500X-0.150000X-0.587500X0*%
%ADD18RoundRect,0.250000X-0.475000X0.250000X-0.475000X-0.250000X0.475000X-0.250000X0.475000X0.250000X0*%
%ADD19R,3.500000X3.500000*%
%ADD20RoundRect,0.750000X0.750000X1.000000X-0.750000X1.000000X-0.750000X-1.000000X0.750000X-1.000000X0*%
%ADD21RoundRect,0.875000X0.875000X0.875000X-0.875000X0.875000X-0.875000X-0.875000X0.875000X-0.875000X0*%
%ADD22RoundRect,0.250000X-0.262500X-0.450000X0.262500X-0.450000X0.262500X0.450000X-0.262500X0.450000X0*%
%ADD23RoundRect,0.250000X-0.550000X1.050000X-0.550000X-1.050000X0.550000X-1.050000X0.550000X1.050000X0*%
%ADD24C,2.400000*%
G04 APERTURE END LIST*
D10*
%TO.C,U2*%
X59245000Y-76975000D03*
D11*
X61525000Y-70675000D03*
D10*
X63805000Y-76975000D03*
%TD*%
D12*
%TO.C,D2*%
X39000000Y-68540000D03*
D13*
X39000000Y-66000000D03*
%TD*%
D14*
%TO.C,R3*%
X216500000Y-67587500D03*
X216500000Y-69412500D03*
%TD*%
D15*
%TO.C,J1*%
X60160000Y-50000000D03*
D16*
X60160000Y-52540000D03*
X57620000Y-50000000D03*
X57620000Y-52540000D03*
X55080000Y-50000000D03*
X55080000Y-52540000D03*
X52540000Y-50000000D03*
X52540000Y-52540000D03*
X50000000Y-50000000D03*
X50000000Y-52540000D03*
X47460000Y-50000000D03*
X47460000Y-52540000D03*
X44920000Y-50000000D03*
X44920000Y-52540000D03*
X42380000Y-50000000D03*
X42380000Y-52540000D03*
%TD*%
D12*
%TO.C,D3*%
X30000000Y-68540000D03*
D13*
X30000000Y-66000000D03*
%TD*%
D17*
%TO.C,Q1*%
X202612500Y-58937500D03*
X204512500Y-58937500D03*
X203562500Y-57062500D03*
%TD*%
D18*
%TO.C,C1*%
X59000000Y-81000000D03*
X59000000Y-82900000D03*
%TD*%
D12*
%TO.C,D4*%
X34000000Y-81270000D03*
D13*
X34000000Y-78730000D03*
%TD*%
D15*
%TO.C,J5*%
X190200000Y-50000000D03*
D16*
X190200000Y-52540000D03*
X187660000Y-50000000D03*
X187660000Y-52540000D03*
X185120000Y-50000000D03*
X185120000Y-52540000D03*
X182580000Y-50000000D03*
X182580000Y-52540000D03*
X180040000Y-50000000D03*
X180040000Y-52540000D03*
X177500000Y-50000000D03*
X177500000Y-52540000D03*
X174960000Y-50000000D03*
X174960000Y-52540000D03*
X172420000Y-50000000D03*
X172420000Y-52540000D03*
%TD*%
D12*
%TO.C,D1*%
X216460000Y-62500000D03*
D13*
X216460000Y-59960000D03*
%TD*%
D14*
%TO.C,R4*%
X39000000Y-74087500D03*
X39000000Y-75912500D03*
%TD*%
%TO.C,R5*%
X30000000Y-74087500D03*
X30000000Y-75912500D03*
%TD*%
D19*
%TO.C,J6*%
X214000000Y-50957500D03*
D20*
X220000000Y-50957500D03*
D21*
X217000000Y-46257500D03*
%TD*%
D18*
%TO.C,C2*%
X64000000Y-81000000D03*
X64000000Y-82900000D03*
%TD*%
D14*
%TO.C,R1*%
X198500000Y-62587500D03*
X198500000Y-64412500D03*
%TD*%
%TO.C,R6*%
X34000000Y-84730000D03*
X34000000Y-86555000D03*
%TD*%
D22*
%TO.C,R2*%
X204087500Y-63500000D03*
X205912500Y-63500000D03*
%TD*%
D23*
%TO.C,C3*%
X81000000Y-79200000D03*
X81000000Y-82800000D03*
%TD*%
D15*
%TO.C,J4*%
X157580000Y-50000000D03*
D16*
X157580000Y-52540000D03*
X155040000Y-50000000D03*
X155040000Y-52540000D03*
X152500000Y-50000000D03*
X152500000Y-52540000D03*
X149960000Y-50000000D03*
X149960000Y-52540000D03*
X147420000Y-50000000D03*
X147420000Y-52540000D03*
X144880000Y-50000000D03*
X144880000Y-52540000D03*
X142340000Y-50000000D03*
X142340000Y-52540000D03*
X139800000Y-50000000D03*
X139800000Y-52540000D03*
%TD*%
D15*
%TO.C,J2*%
X92780000Y-50000000D03*
D16*
X92780000Y-52540000D03*
X90240000Y-50000000D03*
X90240000Y-52540000D03*
X87700000Y-50000000D03*
X87700000Y-52540000D03*
X85160000Y-50000000D03*
X85160000Y-52540000D03*
X82620000Y-50000000D03*
X82620000Y-52540000D03*
X80080000Y-50000000D03*
X80080000Y-52540000D03*
X77540000Y-50000000D03*
X77540000Y-52540000D03*
X75000000Y-50000000D03*
X75000000Y-52540000D03*
%TD*%
D24*
%TO.C,U1*%
X169840000Y-73460000D03*
X169840000Y-78540000D03*
X190160000Y-86160000D03*
X190160000Y-76000000D03*
X190160000Y-65840000D03*
X169840000Y-65840000D03*
%TD*%
D15*
%TO.C,J3*%
X125280000Y-50000000D03*
D16*
X125280000Y-52540000D03*
X122740000Y-50000000D03*
X122740000Y-52540000D03*
X120200000Y-50000000D03*
X120200000Y-52540000D03*
X117660000Y-50000000D03*
X117660000Y-52540000D03*
X115120000Y-50000000D03*
X115120000Y-52540000D03*
X112580000Y-50000000D03*
X112580000Y-52540000D03*
X110040000Y-50000000D03*
X110040000Y-52540000D03*
X107500000Y-50000000D03*
X107500000Y-52540000D03*
%TD*%
M02*
