%TF.GenerationSoftware,KiCad,Pcbnew,10.0.0*%
%TF.CreationDate,2026-10-03T01:13:26-03:00*%
%TF.ProjectId,chufe-v-0-rev-a,63687566-652d-4762-9d30-2d7265762d61,rev-a*%
%TF.SameCoordinates,Original*%
%TF.FileFunction,Soldermask,Bot*%
%TF.FilePolarity,Negative*%
%FSLAX46Y46*%
G04 Gerber Fmt 4.6, Leading zero omitted, Abs format (unit mm)*
G04 Created by KiCad (PCBNEW 10.0.0) date 2026-10-03 01:13:26*
%MOMM*%
%LPD*%
G01*
G04 APERTURE LIST*
G04 Aperture macros list*
%AMRoundRect*
0 Rectangle with rounded corners*
0 $1 Rounding radius*
0 $2 $3 $4 $5 $6 $7 $8 $9 X,Y pos of 4 corners*
0 Add a 4 corners polygon primitive as box body*
4,1,4,$2,$3,$4,$5,$6,$7,$8,$9,$2,$3,0*
0 Add four circle primitives for the rounded corners*
1,1,$1+$1,$2,$3*
1,1,$1+$1,$4,$5*
1,1,$1+$1,$6,$7*
1,1,$1+$1,$8,$9*
0 Add four rect primitives between the rounded corners*
20,1,$1+$1,$2,$3,$4,$5,0*
20,1,$1+$1,$4,$5,$6,$7,0*
20,1,$1+$1,$6,$7,$8,$9,0*
20,1,$1+$1,$8,$9,$2,$3,0*%
G04 Aperture macros list end*
%ADD10C,3.200000*%
%ADD11R,1.800000X1.800000*%
%ADD12C,1.800000*%
%ADD13RoundRect,0.250000X0.600000X0.600000X-0.600000X0.600000X-0.600000X-0.600000X0.600000X-0.600000X0*%
%ADD14C,1.700000*%
%ADD15C,2.400000*%
%ADD16RoundRect,0.250000X-1.330000X-1.850000X1.330000X-1.850000X1.330000X1.850000X-1.330000X1.850000X0*%
%ADD17O,3.160000X4.200000*%
%ADD18R,3.500000X3.500000*%
%ADD19RoundRect,0.750000X-0.750000X-1.000000X0.750000X-1.000000X0.750000X1.000000X-0.750000X1.000000X0*%
%ADD20RoundRect,0.875000X-0.875000X-0.875000X0.875000X-0.875000X0.875000X0.875000X-0.875000X0.875000X0*%
G04 APERTURE END LIST*
D10*
%TO.C,H1*%
X65000000Y-24350000D03*
%TD*%
D11*
%TO.C,D2*%
X36000000Y-34940000D03*
D12*
X36000000Y-32400000D03*
%TD*%
D13*
%TO.C,J1*%
X64540000Y-63000000D03*
D14*
X62000000Y-63000000D03*
X64540000Y-60460000D03*
X62000000Y-60460000D03*
X64540000Y-57920000D03*
X62000000Y-57920000D03*
X64540000Y-55380000D03*
X62000000Y-55380000D03*
X64540000Y-52840000D03*
X62000000Y-52840000D03*
X64540000Y-50300000D03*
X62000000Y-50300000D03*
X64540000Y-47760000D03*
X62000000Y-47760000D03*
X64540000Y-45220000D03*
X62000000Y-45220000D03*
%TD*%
D15*
%TO.C,U1*%
X24680000Y-52460000D03*
X24680000Y-57540000D03*
X45000000Y-65160000D03*
X45000000Y-55000000D03*
X45000000Y-44840000D03*
X24680000Y-44840000D03*
%TD*%
D10*
%TO.C,H3*%
X25000000Y-25000000D03*
%TD*%
%TO.C,H2*%
X65000000Y-80000000D03*
%TD*%
D11*
%TO.C,D5*%
X58250000Y-28240000D03*
D12*
X58250000Y-25700000D03*
%TD*%
D11*
%TO.C,D4*%
X51250000Y-28240000D03*
D12*
X51250000Y-25700000D03*
%TD*%
D11*
%TO.C,D3*%
X44250000Y-28240000D03*
D12*
X44250000Y-25700000D03*
%TD*%
D10*
%TO.C,H4*%
X25000000Y-80000000D03*
%TD*%
D16*
%TO.C,J2*%
X45080000Y-78225000D03*
D17*
X49040000Y-78225000D03*
X53000000Y-78225000D03*
X56960000Y-78225000D03*
%TD*%
D18*
%TO.C,J3*%
X29200000Y-34642500D03*
D19*
X23200000Y-34642500D03*
D20*
X26200000Y-39342500D03*
%TD*%
M02*
