%TF.GenerationSoftware,KiCad,Pcbnew,10.0.0*%
%TF.CreationDate,2026-10-03T01:13:26-03:00*%
%TF.ProjectId,chufe-v-0-rev-a,63687566-652d-4762-9d30-2d7265762d61,rev-a*%
%TF.SameCoordinates,Original*%
%TF.FileFunction,Copper,L1,Top*%
%TF.FilePolarity,Positive*%
%FSLAX46Y46*%
G04 Gerber Fmt 4.6, Leading zero omitted, Abs format (unit mm)*
G04 Created by KiCad (PCBNEW 10.0.0) date 2026-10-03 01:13:26*
%MOMM*%
%LPD*%
G01*
G04 APERTURE LIST*
G04 Aperture macros list*
%AMRoundRect*
0 Rectangle with rounded corners*
0 $1 Rounding radius*
0 $2 $3 $4 $5 $6 $7 $8 $9 X,Y pos of 4 corners*
0 Add a 4 corners polygon primitive as box body*
4,1,4,$2,$3,$4,$5,$6,$7,$8,$9,$2,$3,0*
0 Add four circle primitives for the rounded corners*
1,1,$1+$1,$2,$3*
1,1,$1+$1,$4,$5*
1,1,$1+$1,$6,$7*
1,1,$1+$1,$8,$9*
0 Add four rect primitives between the rounded corners*
20,1,$1+$1,$2,$3,$4,$5,0*
20,1,$1+$1,$4,$5,$6,$7,0*
20,1,$1+$1,$6,$7,$8,$9,0*
20,1,$1+$1,$8,$9,$2,$3,0*%
G04 Aperture macros list end*
%TA.AperFunction,SMDPad,CuDef*%
%ADD10RoundRect,0.250000X-0.450000X0.262500X-0.450000X-0.262500X0.450000X-0.262500X0.450000X0.262500X0*%
%TD*%
%TA.AperFunction,SMDPad,CuDef*%
%ADD11RoundRect,0.150000X0.587500X0.150000X-0.587500X0.150000X-0.587500X-0.150000X0.587500X-0.150000X0*%
%TD*%
%TA.AperFunction,SMDPad,CuDef*%
%ADD12RoundRect,0.250000X-0.262500X-0.450000X0.262500X-0.450000X0.262500X0.450000X-0.262500X0.450000X0*%
%TD*%
%TA.AperFunction,ComponentPad*%
%ADD13R,1.800000X1.800000*%
%TD*%
%TA.AperFunction,ComponentPad*%
%ADD14C,1.800000*%
%TD*%
%TA.AperFunction,SMDPad,CuDef*%
%ADD15RoundRect,0.250000X-0.550000X1.050000X-0.550000X-1.050000X0.550000X-1.050000X0.550000X1.050000X0*%
%TD*%
%TA.AperFunction,ComponentPad*%
%ADD16RoundRect,0.250000X0.600000X0.600000X-0.600000X0.600000X-0.600000X-0.600000X0.600000X-0.600000X0*%
%TD*%
%TA.AperFunction,ComponentPad*%
%ADD17C,1.700000*%
%TD*%
%TA.AperFunction,ComponentPad*%
%ADD18C,2.400000*%
%TD*%
%TA.AperFunction,SMDPad,CuDef*%
%ADD19RoundRect,0.250000X0.250000X0.475000X-0.250000X0.475000X-0.250000X-0.475000X0.250000X-0.475000X0*%
%TD*%
%TA.AperFunction,SMDPad,CuDef*%
%ADD20RoundRect,0.250000X0.350000X-0.850000X0.350000X0.850000X-0.350000X0.850000X-0.350000X-0.850000X0*%
%TD*%
%TA.AperFunction,SMDPad,CuDef*%
%ADD21RoundRect,0.249997X2.650003X-2.950003X2.650003X2.950003X-2.650003X2.950003X-2.650003X-2.950003X0*%
%TD*%
%TA.AperFunction,SMDPad,CuDef*%
%ADD22RoundRect,0.225000X-0.375000X0.225000X-0.375000X-0.225000X0.375000X-0.225000X0.375000X0.225000X0*%
%TD*%
%TA.AperFunction,SMDPad,CuDef*%
%ADD23RoundRect,0.250000X-0.475000X0.250000X-0.475000X-0.250000X0.475000X-0.250000X0.475000X0.250000X0*%
%TD*%
%TA.AperFunction,ComponentPad*%
%ADD24RoundRect,0.250000X-1.330000X-1.850000X1.330000X-1.850000X1.330000X1.850000X-1.330000X1.850000X0*%
%TD*%
%TA.AperFunction,ComponentPad*%
%ADD25O,3.160000X4.200000*%
%TD*%
%TA.AperFunction,ComponentPad*%
%ADD26R,3.500000X3.500000*%
%TD*%
%TA.AperFunction,ComponentPad*%
%ADD27RoundRect,0.750000X-0.750000X-1.000000X0.750000X-1.000000X0.750000X1.000000X-0.750000X1.000000X0*%
%TD*%
%TA.AperFunction,ComponentPad*%
%ADD28RoundRect,0.875000X-0.875000X-0.875000X0.875000X-0.875000X0.875000X0.875000X-0.875000X0.875000X0*%
%TD*%
%TA.AperFunction,ViaPad*%
%ADD29C,0.600000*%
%TD*%
%TA.AperFunction,Conductor*%
%ADD30C,0.400000*%
%TD*%
%TA.AperFunction,Conductor*%
%ADD31C,0.800000*%
%TD*%
G04 APERTURE END LIST*
D10*
%TO.P,R4,1*%
%TO.N,Net-(D4-K)*%
X47250000Y-30700000D03*
%TO.P,R4,2*%
%TO.N,GND*%
X47250000Y-32525000D03*
%TD*%
D11*
%TO.P,Q1,1,G_1*%
%TO.N,Net-(D1-A)*%
X32900000Y-26000000D03*
%TO.P,Q1,2,S_2*%
%TO.N,Net-(D1-K)*%
X32900000Y-24100000D03*
%TO.P,Q1,3,D_3*%
%TO.N,Net-(Q1-D)*%
X31025000Y-25050000D03*
%TD*%
D12*
%TO.P,R2,1*%
%TO.N,Net-(D2-K)*%
X35487500Y-38450000D03*
%TO.P,R2,2*%
%TO.N,GND*%
X37312500Y-38450000D03*
%TD*%
D13*
%TO.P,D2,1,K_1*%
%TO.N,Net-(D2-K)*%
X36000000Y-34940000D03*
D14*
%TO.P,D2,2,A_2*%
%TO.N,Net-(D1-K)*%
X36000000Y-32400000D03*
%TD*%
D15*
%TO.P,C3,1*%
%TO.N,+5V*%
X49000000Y-35400000D03*
%TO.P,C3,2*%
%TO.N,GND*%
X49000000Y-39000000D03*
%TD*%
D10*
%TO.P,R5,1*%
%TO.N,Net-(D5-K)*%
X53250000Y-30787500D03*
%TO.P,R5,2*%
%TO.N,GND*%
X53250000Y-32612500D03*
%TD*%
%TO.P,R1,1*%
%TO.N,Net-(D1-A)*%
X37100000Y-28200000D03*
%TO.P,R1,2*%
%TO.N,GND*%
X37100000Y-30025000D03*
%TD*%
D16*
%TO.P,J1,1,Pin_1_1*%
%TO.N,-12V*%
X64540000Y-63000000D03*
D17*
%TO.P,J1,2,Pin_2_2*%
X62000000Y-63000000D03*
%TO.P,J1,3,Pin_3_3*%
%TO.N,GND*%
X64540000Y-60460000D03*
%TO.P,J1,4,Pin_4_4*%
X62000000Y-60460000D03*
%TO.P,J1,5,Pin_5_5*%
X64540000Y-57920000D03*
%TO.P,J1,6,Pin_6_6*%
X62000000Y-57920000D03*
%TO.P,J1,7,Pin_7_7*%
X64540000Y-55380000D03*
%TO.P,J1,8,Pin_8_8*%
X62000000Y-55380000D03*
%TO.P,J1,9,Pin_9_9*%
%TO.N,+12V*%
X64540000Y-52840000D03*
%TO.P,J1,10,Pin_10_10*%
X62000000Y-52840000D03*
%TO.P,J1,11,Pin_11_11*%
%TO.N,+5V*%
X64540000Y-50300000D03*
%TO.P,J1,12,Pin_12_12*%
X62000000Y-50300000D03*
%TO.P,J1,13,Pin_13_13*%
%TO.N,/CV*%
X64540000Y-47760000D03*
%TO.P,J1,14,Pin_14_14*%
X62000000Y-47760000D03*
%TO.P,J1,15,Pin_15_15*%
%TO.N,/GATE*%
X64540000Y-45220000D03*
%TO.P,J1,16,Pin_16_16*%
X62000000Y-45220000D03*
%TD*%
D18*
%TO.P,U1,1,-VIN_1*%
%TO.N,GND*%
X24680000Y-52460000D03*
%TO.P,U1,2,+VIN_2*%
%TO.N,Net-(D1-K)*%
X24680000Y-57540000D03*
%TO.P,U1,3,+VO1_3*%
%TO.N,+12V*%
X45000000Y-65160000D03*
%TO.P,U1,4,COM_4*%
%TO.N,GND*%
X45000000Y-55000000D03*
%TO.P,U1,5,-VO2_5*%
%TO.N,-12V*%
X45000000Y-44840000D03*
%TO.P,U1,6,CTRL_6*%
%TO.N,unconnected-(U1-CTRL-Pad6)*%
X24680000Y-44840000D03*
%TD*%
D13*
%TO.P,D5,1,K_1*%
%TO.N,Net-(D5-K)*%
X58250000Y-28240000D03*
D14*
%TO.P,D5,2,A_2*%
%TO.N,+5V*%
X58250000Y-25700000D03*
%TD*%
D19*
%TO.P,C1,1*%
%TO.N,+12V*%
X52000000Y-56550000D03*
%TO.P,C1,2*%
%TO.N,GND*%
X50100000Y-56550000D03*
%TD*%
D20*
%TO.P,U2,1,IN_1*%
%TO.N,+12V*%
X49795000Y-52525000D03*
D21*
%TO.P,U2,2,GND_2*%
%TO.N,GND*%
X52075000Y-46225000D03*
D20*
%TO.P,U2,3,OUT_3*%
%TO.N,+5V*%
X54355000Y-52525000D03*
%TD*%
D13*
%TO.P,D4,1,K_1*%
%TO.N,Net-(D4-K)*%
X51250000Y-28240000D03*
D14*
%TO.P,D4,2,A_2*%
%TO.N,+12V*%
X51250000Y-25700000D03*
%TD*%
D22*
%TO.P,D1,1,K_1*%
%TO.N,Net-(D1-K)*%
X36900000Y-23100000D03*
%TO.P,D1,2,A_2*%
%TO.N,Net-(D1-A)*%
X36900000Y-26400000D03*
%TD*%
D13*
%TO.P,D3,1,K_1*%
%TO.N,-12V*%
X44250000Y-28240000D03*
D14*
%TO.P,D3,2,A_2*%
%TO.N,Net-(D3-A)*%
X44250000Y-25700000D03*
%TD*%
D23*
%TO.P,C2,1*%
%TO.N,+5V*%
X55000000Y-36400000D03*
%TO.P,C2,2*%
%TO.N,GND*%
X55000000Y-38300000D03*
%TD*%
D10*
%TO.P,R3,1*%
%TO.N,Net-(D3-A)*%
X41250000Y-30787500D03*
%TO.P,R3,2*%
%TO.N,GND*%
X41250000Y-32612500D03*
%TD*%
D24*
%TO.P,J2,1,Pin_1_1*%
%TO.N,-12V*%
X45080000Y-78225000D03*
D25*
%TO.P,J2,2,Pin_2_2*%
%TO.N,GND*%
X49040000Y-78225000D03*
%TO.P,J2,3,Pin_3_3*%
%TO.N,+5V*%
X53000000Y-78225000D03*
%TO.P,J2,4,Pin_4_4*%
%TO.N,+12V*%
X56960000Y-78225000D03*
%TD*%
D26*
%TO.P,J3,1*%
%TO.N,Net-(Q1-D)*%
X29200000Y-34642500D03*
D27*
%TO.P,J3,2*%
%TO.N,GND*%
X23200000Y-34642500D03*
D28*
%TO.P,J3,3*%
X26200000Y-39342500D03*
%TD*%
D29*
%TO.N,Net-(D1-A)*%
X39200000Y-27000000D03*
X33800000Y-29150000D03*
%TO.N,+12V*%
X46000000Y-51000000D03*
X54350000Y-66150000D03*
%TD*%
%TO.N,Net-(D4-K)*%
D30*
X48790000Y-30700000D02*
X51250000Y-28240000D01*
X47250000Y-30700000D02*
X48790000Y-30700000D01*
%TO.N,Net-(D1-A)*%
D31*
X37100000Y-28200000D02*
X37100000Y-26600000D01*
X37500000Y-27000000D02*
X36900000Y-26400000D01*
X39200000Y-27000000D02*
X37500000Y-27000000D01*
X32900000Y-28250000D02*
X33800000Y-29150000D01*
X37100000Y-26600000D02*
X36900000Y-26400000D01*
X32900000Y-26000000D02*
X32900000Y-28250000D01*
%TO.N,Net-(D1-K)*%
X36000000Y-32400000D02*
X35000000Y-31400000D01*
X36900000Y-23100000D02*
X35000000Y-23100000D01*
X35000000Y-23100000D02*
X33900000Y-23100000D01*
X35000000Y-31400000D02*
X35000000Y-23100000D01*
X33900000Y-23100000D02*
X32900000Y-24100000D01*
%TO.N,Net-(Q1-D)*%
X29200000Y-34642500D02*
X29200000Y-26875000D01*
X29200000Y-26875000D02*
X31025000Y-25050000D01*
%TO.N,Net-(D2-K)*%
D30*
X35487500Y-38450000D02*
X35487500Y-35452500D01*
X35487500Y-35452500D02*
X36000000Y-34940000D01*
%TO.N,+5V*%
D31*
X58450000Y-48950000D02*
X58450000Y-38550000D01*
D30*
X49000000Y-35400000D02*
X50000000Y-35400000D01*
X60400000Y-32350000D02*
X60400000Y-26750000D01*
X56350000Y-36400000D02*
X60400000Y-32350000D01*
D31*
X59800000Y-50300000D02*
X58450000Y-48950000D01*
X62000000Y-50300000D02*
X59800000Y-50300000D01*
D30*
X54355000Y-52525000D02*
X56580000Y-50300000D01*
D31*
X58450000Y-38550000D02*
X56300000Y-36400000D01*
D30*
X60400000Y-26750000D02*
X59350000Y-25700000D01*
X51000000Y-36400000D02*
X55000000Y-36400000D01*
X59350000Y-25700000D02*
X58250000Y-25700000D01*
X50000000Y-35400000D02*
X51000000Y-36400000D01*
D31*
X62000000Y-50300000D02*
X64540000Y-50300000D01*
D30*
X55000000Y-36400000D02*
X56350000Y-36400000D01*
X56580000Y-50300000D02*
X62000000Y-50300000D01*
D31*
X56300000Y-36400000D02*
X55000000Y-36400000D01*
%TO.N,Net-(D5-K)*%
D30*
X53250000Y-30787500D02*
X55702500Y-30787500D01*
X55702500Y-30787500D02*
X58250000Y-28240000D01*
%TO.N,-12V*%
D31*
X62000000Y-63000000D02*
X53950000Y-71050000D01*
X45080000Y-74570000D02*
X45080000Y-78225000D01*
D30*
X45150000Y-30937500D02*
X45000000Y-31087500D01*
D31*
X48600000Y-71050000D02*
X45080000Y-74570000D01*
X62000000Y-63000000D02*
X64540000Y-63000000D01*
X53950000Y-71050000D02*
X48600000Y-71050000D01*
D30*
X45000000Y-31087500D02*
X45000000Y-44840000D01*
X45150000Y-30937500D02*
X45150000Y-28850000D01*
%TO.N,+12V*%
X46000000Y-51000000D02*
X48270000Y-51000000D01*
X54200000Y-56550000D02*
X54200000Y-66000000D01*
D31*
X53360000Y-65160000D02*
X45000000Y-65160000D01*
D30*
X52000000Y-56550000D02*
X54200000Y-56550000D01*
X49795000Y-52525000D02*
X52000000Y-54730000D01*
X54200000Y-56550000D02*
X57910000Y-52840000D01*
X52000000Y-54730000D02*
X52000000Y-56550000D01*
X57910000Y-52840000D02*
X62000000Y-52840000D01*
X48270000Y-51000000D02*
X49795000Y-52525000D01*
D31*
X56960000Y-77120000D02*
X56960000Y-78225000D01*
X62000000Y-52840000D02*
X64540000Y-52840000D01*
X54350000Y-66150000D02*
X53360000Y-65160000D01*
D30*
X54200000Y-66000000D02*
X54350000Y-66150000D01*
%TO.N,/CV*%
D31*
X62000000Y-47760000D02*
X64540000Y-47760000D01*
%TO.N,/GATE*%
X62000000Y-45220000D02*
X64540000Y-45220000D01*
%TO.N,Net-(D3-A)*%
D30*
X41250000Y-30787500D02*
X41250000Y-28700000D01*
X41250000Y-28700000D02*
X44250000Y-25700000D01*
%TD*%
%TA.AperFunction,Conductor*%
%TO.N,GND*%
G36*
X64074075Y-60652993D02*
G01*
X64139901Y-60767007D01*
X64232993Y-60860099D01*
X64347007Y-60925925D01*
X64410590Y-60942962D01*
X63774110Y-61579441D01*
X63763020Y-61632235D01*
X63713969Y-61681992D01*
X63692773Y-61691291D01*
X63620669Y-61715185D01*
X63620666Y-61715186D01*
X63620663Y-61715187D01*
X63471342Y-61807289D01*
X63347289Y-61931342D01*
X63279901Y-62040597D01*
X63227953Y-62087321D01*
X63174362Y-62099500D01*
X63060758Y-62099500D01*
X62993719Y-62079815D01*
X62973077Y-62063181D01*
X62879786Y-61969890D01*
X62707817Y-61844949D01*
X62698504Y-61840204D01*
X62647707Y-61792230D01*
X62630912Y-61724409D01*
X62653449Y-61658274D01*
X62698507Y-61619232D01*
X62707555Y-61614622D01*
X62761716Y-61575270D01*
X62761717Y-61575270D01*
X62129408Y-60942962D01*
X62192993Y-60925925D01*
X62307007Y-60860099D01*
X62400099Y-60767007D01*
X62465925Y-60652993D01*
X62482962Y-60589408D01*
X63115270Y-61221717D01*
X63115270Y-61221716D01*
X63154622Y-61167554D01*
X63159514Y-61157954D01*
X63207488Y-61107157D01*
X63275308Y-61090361D01*
X63341444Y-61112897D01*
X63380486Y-61157954D01*
X63385375Y-61167550D01*
X63424728Y-61221716D01*
X64057037Y-60589408D01*
X64074075Y-60652993D01*
G37*
%TD.AperFunction*%
%TA.AperFunction,Conductor*%
G36*
X64074075Y-58112993D02*
G01*
X64139901Y-58227007D01*
X64232993Y-58320099D01*
X64347007Y-58385925D01*
X64410590Y-58402962D01*
X63778282Y-59035269D01*
X63778282Y-59035270D01*
X63832452Y-59074626D01*
X63842048Y-59079516D01*
X63892844Y-59127491D01*
X63909638Y-59195312D01*
X63887100Y-59261447D01*
X63842051Y-59300483D01*
X63832440Y-59305380D01*
X63778282Y-59344727D01*
X63778282Y-59344728D01*
X64410591Y-59977037D01*
X64347007Y-59994075D01*
X64232993Y-60059901D01*
X64139901Y-60152993D01*
X64074075Y-60267007D01*
X64057037Y-60330591D01*
X63424728Y-59698282D01*
X63424727Y-59698282D01*
X63385380Y-59752440D01*
X63380483Y-59762051D01*
X63332506Y-59812845D01*
X63264684Y-59829638D01*
X63198550Y-59807098D01*
X63159516Y-59762048D01*
X63154626Y-59752452D01*
X63115270Y-59698282D01*
X63115269Y-59698282D01*
X62482962Y-60330590D01*
X62465925Y-60267007D01*
X62400099Y-60152993D01*
X62307007Y-60059901D01*
X62192993Y-59994075D01*
X62129409Y-59977037D01*
X62761716Y-59344728D01*
X62707550Y-59305375D01*
X62697954Y-59300486D01*
X62647157Y-59252512D01*
X62630361Y-59184692D01*
X62651288Y-59120895D01*
X62730027Y-59003581D01*
X62129408Y-58402962D01*
X62192993Y-58385925D01*
X62307007Y-58320099D01*
X62400099Y-58227007D01*
X62465925Y-58112993D01*
X62482962Y-58049408D01*
X63115270Y-58681717D01*
X63115270Y-58681716D01*
X63154622Y-58627554D01*
X63159514Y-58617954D01*
X63207488Y-58567157D01*
X63275308Y-58550361D01*
X63341444Y-58572897D01*
X63380486Y-58617954D01*
X63385375Y-58627550D01*
X63424728Y-58681716D01*
X64057037Y-58049408D01*
X64074075Y-58112993D01*
G37*
%TD.AperFunction*%
%TA.AperFunction,Conductor*%
G36*
X64074075Y-55572993D02*
G01*
X64139901Y-55687007D01*
X64232993Y-55780099D01*
X64347007Y-55845925D01*
X64410590Y-55862962D01*
X63778282Y-56495269D01*
X63778282Y-56495270D01*
X63832452Y-56534626D01*
X63842048Y-56539516D01*
X63892844Y-56587491D01*
X63909638Y-56655312D01*
X63887100Y-56721447D01*
X63842051Y-56760483D01*
X63832440Y-56765380D01*
X63778282Y-56804727D01*
X63778282Y-56804728D01*
X64410591Y-57437037D01*
X64347007Y-57454075D01*
X64232993Y-57519901D01*
X64139901Y-57612993D01*
X64074075Y-57727007D01*
X64057037Y-57790591D01*
X63424728Y-57158282D01*
X63424727Y-57158282D01*
X63385380Y-57212440D01*
X63380483Y-57222051D01*
X63332506Y-57272845D01*
X63264684Y-57289638D01*
X63198550Y-57267098D01*
X63159516Y-57222048D01*
X63154626Y-57212452D01*
X63115270Y-57158282D01*
X63115269Y-57158282D01*
X62482962Y-57790590D01*
X62465925Y-57727007D01*
X62400099Y-57612993D01*
X62307007Y-57519901D01*
X62192993Y-57454075D01*
X62129409Y-57437037D01*
X62761716Y-56804728D01*
X62707550Y-56765375D01*
X62697954Y-56760486D01*
X62647157Y-56712512D01*
X62630361Y-56644692D01*
X62651288Y-56580895D01*
X62730027Y-56463581D01*
X62129408Y-55862962D01*
X62192993Y-55845925D01*
X62307007Y-55780099D01*
X62400099Y-55687007D01*
X62465925Y-55572993D01*
X62482962Y-55509408D01*
X63115270Y-56141717D01*
X63115270Y-56141716D01*
X63154622Y-56087554D01*
X63159514Y-56077954D01*
X63207488Y-56027157D01*
X63275308Y-56010361D01*
X63341444Y-56032897D01*
X63380486Y-56077954D01*
X63385375Y-56087550D01*
X63424728Y-56141716D01*
X64057037Y-55509408D01*
X64074075Y-55572993D01*
G37*
%TD.AperFunction*%
%TA.AperFunction,Conductor*%
G36*
X63546281Y-53760185D02*
G01*
X63566923Y-53776819D01*
X63660213Y-53870109D01*
X63832179Y-53995048D01*
X63832181Y-53995049D01*
X63832184Y-53995051D01*
X63841493Y-53999794D01*
X63892290Y-54047766D01*
X63909087Y-54115587D01*
X63886552Y-54181722D01*
X63841505Y-54220760D01*
X63832446Y-54225376D01*
X63832440Y-54225380D01*
X63778282Y-54264727D01*
X63778282Y-54264728D01*
X64410591Y-54897037D01*
X64347007Y-54914075D01*
X64232993Y-54979901D01*
X64139901Y-55072993D01*
X64074075Y-55187007D01*
X64057037Y-55250591D01*
X63424728Y-54618282D01*
X63424727Y-54618282D01*
X63385380Y-54672440D01*
X63380483Y-54682051D01*
X63332506Y-54732845D01*
X63264684Y-54749638D01*
X63198550Y-54727098D01*
X63159516Y-54682048D01*
X63154626Y-54672452D01*
X63115270Y-54618282D01*
X63115269Y-54618282D01*
X62482962Y-55250590D01*
X62465925Y-55187007D01*
X62400099Y-55072993D01*
X62307007Y-54979901D01*
X62192993Y-54914075D01*
X62129409Y-54897037D01*
X62761716Y-54264728D01*
X62707547Y-54225373D01*
X62707547Y-54225372D01*
X62698500Y-54220763D01*
X62647706Y-54172788D01*
X62630912Y-54104966D01*
X62653451Y-54038832D01*
X62698508Y-53999793D01*
X62707816Y-53995051D01*
X62787007Y-53937515D01*
X62879786Y-53870109D01*
X62879788Y-53870106D01*
X62879792Y-53870104D01*
X62973077Y-53776819D01*
X63034400Y-53743334D01*
X63060758Y-53740500D01*
X63479242Y-53740500D01*
X63546281Y-53760185D01*
G37*
%TD.AperFunction*%
%TA.AperFunction,Conductor*%
G36*
X65143332Y-20500570D02*
G01*
X65295325Y-20505687D01*
X65330616Y-20517352D01*
X65696366Y-20550519D01*
X65710028Y-20552530D01*
X66095077Y-20631369D01*
X66105838Y-20634081D01*
X66482273Y-20747120D01*
X66492741Y-20750783D01*
X66857524Y-20897107D01*
X66867628Y-20901696D01*
X67119374Y-21029967D01*
X67217818Y-21080128D01*
X67227495Y-21085619D01*
X67560266Y-21294712D01*
X67569400Y-21301039D01*
X67882106Y-21539134D01*
X67890631Y-21546252D01*
X68180723Y-21811407D01*
X68188587Y-21819271D01*
X68229830Y-21864393D01*
X68453746Y-22109368D01*
X68460876Y-22117909D01*
X68698948Y-22430584D01*
X68705285Y-22439730D01*
X68914379Y-22772502D01*
X68919870Y-22782179D01*
X69098297Y-23132361D01*
X69102898Y-23142492D01*
X69249209Y-23507242D01*
X69252884Y-23517743D01*
X69365913Y-23894145D01*
X69368632Y-23904935D01*
X69439776Y-24252401D01*
X69447466Y-24289956D01*
X69449206Y-24300946D01*
X69493600Y-24694959D01*
X69494310Y-24704668D01*
X69499429Y-24856658D01*
X69499499Y-24860832D01*
X69499499Y-80139160D01*
X69499429Y-80143333D01*
X69494311Y-80295326D01*
X69493601Y-80305037D01*
X69449206Y-80699052D01*
X69447466Y-80710041D01*
X69368632Y-81095063D01*
X69365913Y-81105853D01*
X69252884Y-81482255D01*
X69249209Y-81492756D01*
X69102898Y-81857506D01*
X69098297Y-81867637D01*
X68919870Y-82217819D01*
X68914379Y-82227496D01*
X68705285Y-82560268D01*
X68698948Y-82569414D01*
X68460876Y-82882089D01*
X68453746Y-82890630D01*
X68188591Y-83180723D01*
X68180723Y-83188591D01*
X67890631Y-83453746D01*
X67882090Y-83460877D01*
X67569412Y-83698950D01*
X67560266Y-83705286D01*
X67227495Y-83914379D01*
X67217818Y-83919870D01*
X66867641Y-84098296D01*
X66857510Y-84102897D01*
X66492758Y-84249209D01*
X66482256Y-84252884D01*
X66105852Y-84365913D01*
X66095063Y-84368632D01*
X65710042Y-84447466D01*
X65699052Y-84449206D01*
X65305039Y-84493600D01*
X65295330Y-84494310D01*
X65151641Y-84499149D01*
X65143339Y-84499429D01*
X65139168Y-84499499D01*
X24860839Y-84499499D01*
X24856667Y-84499429D01*
X24850963Y-84499236D01*
X24704672Y-84494311D01*
X24694961Y-84493601D01*
X24300946Y-84449206D01*
X24289957Y-84447466D01*
X23904935Y-84368632D01*
X23894149Y-84365914D01*
X23780452Y-84331772D01*
X23517743Y-84252884D01*
X23507242Y-84249209D01*
X23142492Y-84102898D01*
X23132361Y-84098297D01*
X22782179Y-83919870D01*
X22772502Y-83914379D01*
X22439730Y-83705285D01*
X22430584Y-83698948D01*
X22117909Y-83460876D01*
X22109368Y-83453746D01*
X21819275Y-83188591D01*
X21811407Y-83180723D01*
X21803769Y-83172367D01*
X21546251Y-82890630D01*
X21539134Y-82882106D01*
X21301039Y-82569400D01*
X21294712Y-82560266D01*
X21085619Y-82227495D01*
X21080128Y-82217818D01*
X21029967Y-82119374D01*
X20901696Y-81867628D01*
X20897107Y-81857524D01*
X20750783Y-81492741D01*
X20747120Y-81482273D01*
X20634081Y-81105838D01*
X20631369Y-81095077D01*
X20552528Y-80710022D01*
X20550794Y-80699069D01*
X20506398Y-80305037D01*
X20505688Y-80295329D01*
X20500570Y-80143340D01*
X20500500Y-80139167D01*
X20500500Y-79878711D01*
X23149500Y-79878711D01*
X23149500Y-80121288D01*
X23174680Y-80312559D01*
X23181162Y-80361789D01*
X23189883Y-80394336D01*
X23243947Y-80596104D01*
X23311758Y-80759814D01*
X23336776Y-80820212D01*
X23458064Y-81030289D01*
X23458066Y-81030292D01*
X23458067Y-81030293D01*
X23605733Y-81222736D01*
X23605739Y-81222743D01*
X23777256Y-81394260D01*
X23777262Y-81394265D01*
X23969711Y-81541936D01*
X24179788Y-81663224D01*
X24403900Y-81756054D01*
X24638211Y-81818838D01*
X24818586Y-81842584D01*
X24878711Y-81850500D01*
X24878712Y-81850500D01*
X25121289Y-81850500D01*
X25169388Y-81844167D01*
X25361789Y-81818838D01*
X25596100Y-81756054D01*
X25820212Y-81663224D01*
X26030289Y-81541936D01*
X26222738Y-81394265D01*
X26394265Y-81222738D01*
X26541936Y-81030289D01*
X26663224Y-80820212D01*
X26756054Y-80596100D01*
X26818838Y-80361789D01*
X26850500Y-80121288D01*
X26850500Y-79878712D01*
X26818838Y-79638211D01*
X26756054Y-79403900D01*
X26663224Y-79179788D01*
X26541936Y-78969711D01*
X26394265Y-78777262D01*
X26394260Y-78777256D01*
X26222743Y-78605739D01*
X26222736Y-78605733D01*
X26030293Y-78458067D01*
X26030292Y-78458066D01*
X26030289Y-78458064D01*
X25820212Y-78336776D01*
X25820205Y-78336773D01*
X25596104Y-78243947D01*
X25361785Y-78181161D01*
X25121289Y-78149500D01*
X25121288Y-78149500D01*
X24878712Y-78149500D01*
X24878711Y-78149500D01*
X24638214Y-78181161D01*
X24403895Y-78243947D01*
X24179794Y-78336773D01*
X24179785Y-78336777D01*
X23969706Y-78458067D01*
X23777263Y-78605733D01*
X23777256Y-78605739D01*
X23605739Y-78777256D01*
X23605733Y-78777263D01*
X23458067Y-78969706D01*
X23336777Y-79179785D01*
X23336773Y-79179794D01*
X23243947Y-79403895D01*
X23181161Y-79638214D01*
X23149500Y-79878711D01*
X20500500Y-79878711D01*
X20500500Y-76324983D01*
X42999500Y-76324983D01*
X42999500Y-80125001D01*
X42999501Y-80125018D01*
X43010000Y-80227796D01*
X43010001Y-80227799D01*
X43054400Y-80361785D01*
X43065186Y-80394334D01*
X43157288Y-80543656D01*
X43281344Y-80667712D01*
X43430666Y-80759814D01*
X43597203Y-80814999D01*
X43699991Y-80825500D01*
X46460008Y-80825499D01*
X46562797Y-80814999D01*
X46729334Y-80759814D01*
X46878656Y-80667712D01*
X47002712Y-80543656D01*
X47094814Y-80394334D01*
X47149999Y-80227797D01*
X47160500Y-80125009D01*
X47160499Y-80077651D01*
X47180182Y-80010616D01*
X47232985Y-79964860D01*
X47302144Y-79954915D01*
X47365700Y-79983938D01*
X47382874Y-80002166D01*
X47472818Y-80119382D01*
X47472826Y-80119391D01*
X47665609Y-80312174D01*
X47665617Y-80312181D01*
X47881933Y-80478168D01*
X48118062Y-80614496D01*
X48118072Y-80614500D01*
X48369970Y-80718840D01*
X48633344Y-80789411D01*
X48790000Y-80810034D01*
X48790000Y-79092904D01*
X48951358Y-79125000D01*
X49128642Y-79125000D01*
X49290000Y-79092904D01*
X49290000Y-80810033D01*
X49446655Y-80789411D01*
X49710029Y-80718840D01*
X49961927Y-80614500D01*
X49961937Y-80614496D01*
X50198066Y-80478168D01*
X50414382Y-80312181D01*
X50414391Y-80312174D01*
X50607174Y-80119391D01*
X50607181Y-80119382D01*
X50773168Y-79903066D01*
X50911528Y-79663418D01*
X50912883Y-79664200D01*
X50955771Y-79617546D01*
X51023360Y-79599837D01*
X51089792Y-79621481D01*
X51126907Y-79664283D01*
X51128023Y-79663640D01*
X51266415Y-79903343D01*
X51432439Y-80119710D01*
X51432445Y-80119717D01*
X51625282Y-80312554D01*
X51625289Y-80312560D01*
X51841656Y-80478584D01*
X52077840Y-80614945D01*
X52077855Y-80614952D01*
X52205225Y-80667710D01*
X52329810Y-80719315D01*
X52593244Y-80789902D01*
X52863637Y-80825500D01*
X52863644Y-80825500D01*
X53136356Y-80825500D01*
X53136363Y-80825500D01*
X53406756Y-80789902D01*
X53670190Y-80719315D01*
X53922156Y-80614947D01*
X54158344Y-80478584D01*
X54374712Y-80312559D01*
X54567559Y-80119712D01*
X54733584Y-79903344D01*
X54869947Y-79667156D01*
X54869946Y-79667156D01*
X54871977Y-79663640D01*
X54873420Y-79664473D01*
X54916083Y-79618093D01*
X54983676Y-79600405D01*
X55050103Y-79622068D01*
X55086758Y-79664370D01*
X55088023Y-79663640D01*
X55226415Y-79903343D01*
X55392439Y-80119710D01*
X55392445Y-80119717D01*
X55585282Y-80312554D01*
X55585289Y-80312560D01*
X55801656Y-80478584D01*
X56037840Y-80614945D01*
X56037855Y-80614952D01*
X56165225Y-80667710D01*
X56289810Y-80719315D01*
X56553244Y-80789902D01*
X56823637Y-80825500D01*
X56823644Y-80825500D01*
X57096356Y-80825500D01*
X57096363Y-80825500D01*
X57366756Y-80789902D01*
X57630190Y-80719315D01*
X57882156Y-80614947D01*
X58118344Y-80478584D01*
X58334712Y-80312559D01*
X58527559Y-80119712D01*
X58693584Y-79903344D01*
X58707805Y-79878711D01*
X63149500Y-79878711D01*
X63149500Y-80121288D01*
X63174680Y-80312559D01*
X63181162Y-80361789D01*
X63189883Y-80394336D01*
X63243947Y-80596104D01*
X63311758Y-80759814D01*
X63336776Y-80820212D01*
X63458064Y-81030289D01*
X63458066Y-81030292D01*
X63458067Y-81030293D01*
X63605733Y-81222736D01*
X63605739Y-81222743D01*
X63777256Y-81394260D01*
X63777262Y-81394265D01*
X63969711Y-81541936D01*
X64179788Y-81663224D01*
X64403900Y-81756054D01*
X64638211Y-81818838D01*
X64818586Y-81842584D01*
X64878711Y-81850500D01*
X64878712Y-81850500D01*
X65121289Y-81850500D01*
X65169388Y-81844167D01*
X65361789Y-81818838D01*
X65596100Y-81756054D01*
X65820212Y-81663224D01*
X66030289Y-81541936D01*
X66222738Y-81394265D01*
X66394265Y-81222738D01*
X66541936Y-81030289D01*
X66663224Y-80820212D01*
X66756054Y-80596100D01*
X66818838Y-80361789D01*
X66850500Y-80121288D01*
X66850500Y-79878712D01*
X66818838Y-79638211D01*
X66756054Y-79403900D01*
X66663224Y-79179788D01*
X66541936Y-78969711D01*
X66394265Y-78777262D01*
X66394260Y-78777256D01*
X66222743Y-78605739D01*
X66222736Y-78605733D01*
X66030293Y-78458067D01*
X66030292Y-78458066D01*
X66030289Y-78458064D01*
X65820212Y-78336776D01*
X65820205Y-78336773D01*
X65596104Y-78243947D01*
X65361785Y-78181161D01*
X65121289Y-78149500D01*
X65121288Y-78149500D01*
X64878712Y-78149500D01*
X64878711Y-78149500D01*
X64638214Y-78181161D01*
X64403895Y-78243947D01*
X64179794Y-78336773D01*
X64179785Y-78336777D01*
X63969706Y-78458067D01*
X63777263Y-78605733D01*
X63777256Y-78605739D01*
X63605739Y-78777256D01*
X63605733Y-78777263D01*
X63458067Y-78969706D01*
X63336777Y-79179785D01*
X63336773Y-79179794D01*
X63243947Y-79403895D01*
X63181161Y-79638214D01*
X63149500Y-79878711D01*
X58707805Y-79878711D01*
X58719139Y-79859080D01*
X58745945Y-79812653D01*
X58829945Y-79667159D01*
X58829947Y-79667156D01*
X58934315Y-79415190D01*
X59004902Y-79151756D01*
X59040500Y-78881363D01*
X59040500Y-77568637D01*
X59004902Y-77298244D01*
X58934315Y-77034810D01*
X58883923Y-76913154D01*
X58829952Y-76782855D01*
X58829945Y-76782840D01*
X58693584Y-76546656D01*
X58527560Y-76330289D01*
X58527554Y-76330282D01*
X58334717Y-76137445D01*
X58334710Y-76137439D01*
X58118343Y-75971415D01*
X57882159Y-75835054D01*
X57882144Y-75835047D01*
X57630188Y-75730684D01*
X57366754Y-75660097D01*
X57096372Y-75624501D01*
X57096369Y-75624500D01*
X57096363Y-75624500D01*
X56823637Y-75624500D01*
X56823631Y-75624500D01*
X56823627Y-75624501D01*
X56553245Y-75660097D01*
X56289811Y-75730684D01*
X56037855Y-75835047D01*
X56037840Y-75835054D01*
X55801656Y-75971415D01*
X55585289Y-76137439D01*
X55585282Y-76137445D01*
X55392445Y-76330282D01*
X55392439Y-76330289D01*
X55226415Y-76546656D01*
X55088023Y-76786360D01*
X55086585Y-76785530D01*
X55043885Y-76831926D01*
X54976286Y-76849593D01*
X54909866Y-76827909D01*
X54873234Y-76785634D01*
X54871977Y-76786360D01*
X54733584Y-76546656D01*
X54567560Y-76330289D01*
X54567554Y-76330282D01*
X54374717Y-76137445D01*
X54374710Y-76137439D01*
X54158343Y-75971415D01*
X53922159Y-75835054D01*
X53922144Y-75835047D01*
X53670188Y-75730684D01*
X53406754Y-75660097D01*
X53136372Y-75624501D01*
X53136369Y-75624500D01*
X53136363Y-75624500D01*
X52863637Y-75624500D01*
X52863631Y-75624500D01*
X52863627Y-75624501D01*
X52593245Y-75660097D01*
X52329811Y-75730684D01*
X52077855Y-75835047D01*
X52077840Y-75835054D01*
X51841656Y-75971415D01*
X51625289Y-76137439D01*
X51625282Y-76137445D01*
X51432445Y-76330282D01*
X51432439Y-76330289D01*
X51266415Y-76546656D01*
X51128023Y-76786360D01*
X51126750Y-76785625D01*
X51083571Y-76832512D01*
X51015966Y-76850158D01*
X50949553Y-76828453D01*
X50912707Y-76785901D01*
X50911528Y-76786582D01*
X50773168Y-76546933D01*
X50607181Y-76330617D01*
X50607174Y-76330609D01*
X50414391Y-76137826D01*
X50414382Y-76137818D01*
X50198066Y-75971831D01*
X49961937Y-75835503D01*
X49961927Y-75835499D01*
X49710029Y-75731159D01*
X49446655Y-75660588D01*
X49290000Y-75639963D01*
X49290000Y-77357095D01*
X49128642Y-77325000D01*
X48951358Y-77325000D01*
X48790000Y-77357095D01*
X48790000Y-75639963D01*
X48789999Y-75639963D01*
X48633344Y-75660588D01*
X48369970Y-75731159D01*
X48118072Y-75835499D01*
X48118062Y-75835503D01*
X47881933Y-75971831D01*
X47665617Y-76137818D01*
X47472818Y-76330617D01*
X47382874Y-76447834D01*
X47326446Y-76489036D01*
X47256700Y-76493191D01*
X47195780Y-76458978D01*
X47163028Y-76397261D01*
X47160499Y-76372347D01*
X47160499Y-76324998D01*
X47160498Y-76324981D01*
X47149999Y-76222203D01*
X47149998Y-76222200D01*
X47122039Y-76137826D01*
X47094814Y-76055666D01*
X47002712Y-75906344D01*
X46878656Y-75782288D01*
X46729334Y-75690186D01*
X46562797Y-75635001D01*
X46562795Y-75635000D01*
X46460016Y-75624500D01*
X46460009Y-75624500D01*
X46104500Y-75624500D01*
X46037461Y-75604815D01*
X45991706Y-75552011D01*
X45980500Y-75500500D01*
X45980500Y-74994361D01*
X46000185Y-74927322D01*
X46016819Y-74906680D01*
X48936680Y-71986819D01*
X48998003Y-71953334D01*
X49024361Y-71950500D01*
X54038693Y-71950500D01*
X54038694Y-71950499D01*
X54212666Y-71915895D01*
X54294606Y-71881953D01*
X54376547Y-71848013D01*
X54464959Y-71788936D01*
X54524036Y-71749464D01*
X61886681Y-64386819D01*
X61948004Y-64353334D01*
X61974362Y-64350500D01*
X62106286Y-64350500D01*
X62106287Y-64350500D01*
X62316243Y-64317246D01*
X62518412Y-64251557D01*
X62707816Y-64155051D01*
X62734726Y-64135500D01*
X62879786Y-64030109D01*
X62879788Y-64030106D01*
X62879792Y-64030104D01*
X62973077Y-63936819D01*
X63034400Y-63903334D01*
X63060758Y-63900500D01*
X63174362Y-63900500D01*
X63241401Y-63920185D01*
X63279899Y-63959401D01*
X63347288Y-64068656D01*
X63471344Y-64192712D01*
X63620666Y-64284814D01*
X63787203Y-64339999D01*
X63889991Y-64350500D01*
X65190008Y-64350499D01*
X65292797Y-64339999D01*
X65459334Y-64284814D01*
X65608656Y-64192712D01*
X65732712Y-64068656D01*
X65824814Y-63919334D01*
X65879999Y-63752797D01*
X65890500Y-63650009D01*
X65890499Y-62349992D01*
X65879999Y-62247203D01*
X65824814Y-62080666D01*
X65732712Y-61931344D01*
X65608656Y-61807288D01*
X65459334Y-61715186D01*
X65387228Y-61691292D01*
X65329784Y-61651520D01*
X65302961Y-61587004D01*
X65302801Y-61576354D01*
X64669408Y-60942962D01*
X64732993Y-60925925D01*
X64847007Y-60860099D01*
X64940099Y-60767007D01*
X65005925Y-60652993D01*
X65022962Y-60589408D01*
X65655270Y-61221717D01*
X65655270Y-61221716D01*
X65694622Y-61167554D01*
X65791095Y-60978217D01*
X65856757Y-60776130D01*
X65856757Y-60776127D01*
X65890000Y-60566246D01*
X65890000Y-60353753D01*
X65856757Y-60143872D01*
X65856757Y-60143869D01*
X65791095Y-59941782D01*
X65694624Y-59752449D01*
X65655270Y-59698282D01*
X65655269Y-59698282D01*
X65022962Y-60330590D01*
X65005925Y-60267007D01*
X64940099Y-60152993D01*
X64847007Y-60059901D01*
X64732993Y-59994075D01*
X64669409Y-59977037D01*
X65301716Y-59344728D01*
X65247550Y-59305375D01*
X65237954Y-59300486D01*
X65187157Y-59252512D01*
X65170361Y-59184692D01*
X65192897Y-59118556D01*
X65237954Y-59079514D01*
X65247554Y-59074622D01*
X65301716Y-59035270D01*
X65301717Y-59035270D01*
X64669408Y-58402962D01*
X64732993Y-58385925D01*
X64847007Y-58320099D01*
X64940099Y-58227007D01*
X65005925Y-58112993D01*
X65022962Y-58049408D01*
X65655270Y-58681717D01*
X65655270Y-58681716D01*
X65694622Y-58627554D01*
X65791095Y-58438217D01*
X65856757Y-58236130D01*
X65856757Y-58236127D01*
X65890000Y-58026246D01*
X65890000Y-57813753D01*
X65856757Y-57603872D01*
X65856757Y-57603869D01*
X65791095Y-57401782D01*
X65694624Y-57212449D01*
X65655270Y-57158282D01*
X65655269Y-57158282D01*
X65022962Y-57790590D01*
X65005925Y-57727007D01*
X64940099Y-57612993D01*
X64847007Y-57519901D01*
X64732993Y-57454075D01*
X64669409Y-57437037D01*
X65301716Y-56804728D01*
X65247550Y-56765375D01*
X65237954Y-56760486D01*
X65187157Y-56712512D01*
X65170361Y-56644692D01*
X65192897Y-56578556D01*
X65237954Y-56539514D01*
X65247554Y-56534622D01*
X65301716Y-56495270D01*
X65301717Y-56495270D01*
X64669408Y-55862962D01*
X64732993Y-55845925D01*
X64847007Y-55780099D01*
X64940099Y-55687007D01*
X65005925Y-55572993D01*
X65022962Y-55509408D01*
X65655270Y-56141717D01*
X65655270Y-56141716D01*
X65694622Y-56087554D01*
X65791095Y-55898217D01*
X65856757Y-55696130D01*
X65856757Y-55696127D01*
X65890000Y-55486246D01*
X65890000Y-55273753D01*
X65856757Y-55063872D01*
X65856757Y-55063869D01*
X65791095Y-54861782D01*
X65694624Y-54672449D01*
X65655270Y-54618282D01*
X65655269Y-54618282D01*
X65022962Y-55250590D01*
X65005925Y-55187007D01*
X64940099Y-55072993D01*
X64847007Y-54979901D01*
X64732993Y-54914075D01*
X64669409Y-54897037D01*
X65301716Y-54264728D01*
X65247547Y-54225373D01*
X65247547Y-54225372D01*
X65238500Y-54220763D01*
X65187706Y-54172788D01*
X65170912Y-54104966D01*
X65193451Y-54038832D01*
X65238508Y-53999793D01*
X65247816Y-53995051D01*
X65327007Y-53937515D01*
X65419786Y-53870109D01*
X65419788Y-53870106D01*
X65419792Y-53870104D01*
X65570104Y-53719792D01*
X65570106Y-53719788D01*
X65570109Y-53719786D01*
X65695048Y-53547820D01*
X65695047Y-53547820D01*
X65695051Y-53547816D01*
X65791557Y-53358412D01*
X65857246Y-53156243D01*
X65890500Y-52946287D01*
X65890500Y-52733713D01*
X65857246Y-52523757D01*
X65791557Y-52321588D01*
X65695051Y-52132184D01*
X65695049Y-52132181D01*
X65695048Y-52132179D01*
X65570109Y-51960213D01*
X65419786Y-51809890D01*
X65247820Y-51684951D01*
X65247115Y-51684591D01*
X65239054Y-51680485D01*
X65188259Y-51632512D01*
X65171463Y-51564692D01*
X65193999Y-51498556D01*
X65239054Y-51459515D01*
X65247816Y-51455051D01*
X65269789Y-51439086D01*
X65419786Y-51330109D01*
X65419788Y-51330106D01*
X65419792Y-51330104D01*
X65570104Y-51179792D01*
X65570106Y-51179788D01*
X65570109Y-51179786D01*
X65695048Y-51007820D01*
X65695047Y-51007820D01*
X65695051Y-51007816D01*
X65791557Y-50818412D01*
X65857246Y-50616243D01*
X65890500Y-50406287D01*
X65890500Y-50193713D01*
X65857246Y-49983757D01*
X65791557Y-49781588D01*
X65695051Y-49592184D01*
X65695049Y-49592181D01*
X65695048Y-49592179D01*
X65570109Y-49420213D01*
X65419786Y-49269890D01*
X65247820Y-49144951D01*
X65247115Y-49144591D01*
X65239054Y-49140485D01*
X65188259Y-49092512D01*
X65171463Y-49024692D01*
X65193999Y-48958556D01*
X65239054Y-48919515D01*
X65247816Y-48915051D01*
X65269789Y-48899086D01*
X65419786Y-48790109D01*
X65419788Y-48790106D01*
X65419792Y-48790104D01*
X65570104Y-48639792D01*
X65570106Y-48639788D01*
X65570109Y-48639786D01*
X65695048Y-48467820D01*
X65695047Y-48467820D01*
X65695051Y-48467816D01*
X65791557Y-48278412D01*
X65857246Y-48076243D01*
X65890500Y-47866287D01*
X65890500Y-47653713D01*
X65857246Y-47443757D01*
X65791557Y-47241588D01*
X65695051Y-47052184D01*
X65695049Y-47052181D01*
X65695048Y-47052179D01*
X65570109Y-46880213D01*
X65419786Y-46729890D01*
X65247820Y-46604951D01*
X65247115Y-46604591D01*
X65239054Y-46600485D01*
X65188259Y-46552512D01*
X65171463Y-46484692D01*
X65193999Y-46418556D01*
X65239054Y-46379515D01*
X65247816Y-46375051D01*
X65328748Y-46316251D01*
X65419786Y-46250109D01*
X65419788Y-46250106D01*
X65419792Y-46250104D01*
X65570104Y-46099792D01*
X65570106Y-46099788D01*
X65570109Y-46099786D01*
X65695048Y-45927820D01*
X65695047Y-45927820D01*
X65695051Y-45927816D01*
X65791557Y-45738412D01*
X65857246Y-45536243D01*
X65890500Y-45326287D01*
X65890500Y-45113713D01*
X65857246Y-44903757D01*
X65791557Y-44701588D01*
X65695051Y-44512184D01*
X65695049Y-44512181D01*
X65695048Y-44512179D01*
X65570109Y-44340213D01*
X65419786Y-44189890D01*
X65247820Y-44064951D01*
X65058414Y-43968444D01*
X65058413Y-43968443D01*
X65058412Y-43968443D01*
X64856243Y-43902754D01*
X64856241Y-43902753D01*
X64856240Y-43902753D01*
X64694957Y-43877208D01*
X64646287Y-43869500D01*
X64433713Y-43869500D01*
X64385042Y-43877208D01*
X64223760Y-43902753D01*
X64021585Y-43968444D01*
X63832179Y-44064951D01*
X63660213Y-44189890D01*
X63660209Y-44189894D01*
X63566923Y-44283181D01*
X63505600Y-44316666D01*
X63479242Y-44319500D01*
X63060758Y-44319500D01*
X62993719Y-44299815D01*
X62973077Y-44283181D01*
X62879786Y-44189890D01*
X62707820Y-44064951D01*
X62518414Y-43968444D01*
X62518413Y-43968443D01*
X62518412Y-43968443D01*
X62316243Y-43902754D01*
X62316241Y-43902753D01*
X62316240Y-43902753D01*
X62154957Y-43877208D01*
X62106287Y-43869500D01*
X61893713Y-43869500D01*
X61845042Y-43877208D01*
X61683760Y-43902753D01*
X61481585Y-43968444D01*
X61292179Y-44064951D01*
X61120213Y-44189890D01*
X60969890Y-44340213D01*
X60844951Y-44512179D01*
X60748444Y-44701585D01*
X60682753Y-44903760D01*
X60649500Y-45113713D01*
X60649500Y-45326287D01*
X60682754Y-45536243D01*
X60701431Y-45593726D01*
X60748444Y-45738414D01*
X60844951Y-45927820D01*
X60969890Y-46099786D01*
X61120213Y-46250109D01*
X61292182Y-46375050D01*
X61300946Y-46379516D01*
X61351742Y-46427491D01*
X61368536Y-46495312D01*
X61345998Y-46561447D01*
X61300946Y-46600484D01*
X61292182Y-46604949D01*
X61120213Y-46729890D01*
X60969890Y-46880213D01*
X60844951Y-47052179D01*
X60748444Y-47241585D01*
X60682753Y-47443760D01*
X60649500Y-47653713D01*
X60649500Y-47866286D01*
X60682753Y-48076239D01*
X60748444Y-48278414D01*
X60844951Y-48467820D01*
X60969890Y-48639786D01*
X61120213Y-48790109D01*
X61292182Y-48915050D01*
X61300946Y-48919516D01*
X61351742Y-48967491D01*
X61368536Y-49035312D01*
X61345998Y-49101447D01*
X61300946Y-49140484D01*
X61292182Y-49144949D01*
X61120213Y-49269890D01*
X61120209Y-49269894D01*
X61026923Y-49363181D01*
X60965600Y-49396666D01*
X60939242Y-49399500D01*
X60224361Y-49399500D01*
X60157322Y-49379815D01*
X60136680Y-49363181D01*
X59386819Y-48613319D01*
X59353334Y-48551996D01*
X59350500Y-48525638D01*
X59350500Y-38461307D01*
X59350499Y-38461303D01*
X59322653Y-38321309D01*
X59315895Y-38287334D01*
X59299577Y-38247940D01*
X59284477Y-38211485D01*
X59284474Y-38211480D01*
X59281953Y-38205393D01*
X59248013Y-38123453D01*
X59188936Y-38035040D01*
X59165543Y-38000028D01*
X59149466Y-37975966D01*
X57544759Y-36371259D01*
X57511274Y-36309936D01*
X57516258Y-36240244D01*
X57544759Y-36195897D01*
X60944111Y-32796546D01*
X60944112Y-32796545D01*
X60944112Y-32796544D01*
X60944114Y-32796543D01*
X61020775Y-32681811D01*
X61033882Y-32650169D01*
X61073578Y-32554332D01*
X61073580Y-32554328D01*
X61100500Y-32418994D01*
X61100500Y-32281006D01*
X61100500Y-26681007D01*
X61100500Y-26681004D01*
X61079106Y-26573453D01*
X61073580Y-26545672D01*
X61072192Y-26542322D01*
X61060526Y-26514159D01*
X61020778Y-26418196D01*
X61020777Y-26418195D01*
X61020775Y-26418189D01*
X60944114Y-26303457D01*
X60944112Y-26303454D01*
X59796545Y-25155887D01*
X59681807Y-25079222D01*
X59554332Y-25026421D01*
X59554322Y-25026418D01*
X59528405Y-25021263D01*
X59466494Y-24988878D01*
X59451055Y-24969645D01*
X59450679Y-24969919D01*
X59318247Y-24787641D01*
X59318243Y-24787636D01*
X59162363Y-24631756D01*
X59162358Y-24631752D01*
X58984025Y-24502187D01*
X58984024Y-24502186D01*
X58984022Y-24502185D01*
X58921096Y-24470122D01*
X58787606Y-24402104D01*
X58787603Y-24402103D01*
X58604417Y-24342584D01*
X58577952Y-24333985D01*
X58469086Y-24316742D01*
X58360222Y-24299500D01*
X58139778Y-24299500D01*
X58067201Y-24310995D01*
X57922047Y-24333985D01*
X57712396Y-24402103D01*
X57712393Y-24402104D01*
X57515974Y-24502187D01*
X57337641Y-24631752D01*
X57337636Y-24631756D01*
X57181756Y-24787636D01*
X57181752Y-24787641D01*
X57052187Y-24965974D01*
X56952104Y-25162393D01*
X56952103Y-25162396D01*
X56883985Y-25372047D01*
X56883985Y-25372049D01*
X56849500Y-25589778D01*
X56849500Y-25810222D01*
X56858128Y-25864695D01*
X56883985Y-26027952D01*
X56952103Y-26237603D01*
X56952104Y-26237606D01*
X56985658Y-26303457D01*
X57044121Y-26418196D01*
X57052187Y-26434025D01*
X57181752Y-26612358D01*
X57181756Y-26612363D01*
X57231928Y-26662535D01*
X57265413Y-26723858D01*
X57260429Y-26793550D01*
X57218557Y-26849483D01*
X57187581Y-26866398D01*
X57107669Y-26896203D01*
X57107664Y-26896206D01*
X56992455Y-26982452D01*
X56992452Y-26982455D01*
X56906206Y-27097664D01*
X56906202Y-27097671D01*
X56855908Y-27232517D01*
X56852667Y-27262667D01*
X56849501Y-27292123D01*
X56849500Y-27292135D01*
X56849500Y-28598480D01*
X56829815Y-28665519D01*
X56813181Y-28686161D01*
X55448662Y-30050681D01*
X55387339Y-30084166D01*
X55360981Y-30087000D01*
X54374730Y-30087000D01*
X54307691Y-30067315D01*
X54287049Y-30050681D01*
X54168657Y-29932289D01*
X54168656Y-29932288D01*
X54019334Y-29840186D01*
X53852797Y-29785001D01*
X53852795Y-29785000D01*
X53750010Y-29774500D01*
X52749998Y-29774500D01*
X52749980Y-29774501D01*
X52647203Y-29785000D01*
X52647200Y-29785001D01*
X52480668Y-29840185D01*
X52480663Y-29840187D01*
X52331342Y-29932289D01*
X52207289Y-30056342D01*
X52115187Y-30205663D01*
X52115185Y-30205668D01*
X52102165Y-30244961D01*
X52060001Y-30372203D01*
X52060001Y-30372204D01*
X52060000Y-30372204D01*
X52049500Y-30474983D01*
X52049500Y-31100001D01*
X52049501Y-31100019D01*
X52060000Y-31202796D01*
X52060001Y-31202799D01*
X52115185Y-31369331D01*
X52115187Y-31369336D01*
X52118363Y-31374485D01*
X52190127Y-31490834D01*
X52207289Y-31518657D01*
X52301304Y-31612672D01*
X52334789Y-31673995D01*
X52329805Y-31743687D01*
X52301305Y-31788034D01*
X52207682Y-31881657D01*
X52115643Y-32030875D01*
X52115641Y-32030880D01*
X52060494Y-32197302D01*
X52060493Y-32197309D01*
X52050000Y-32300013D01*
X52050000Y-32362500D01*
X54449999Y-32362500D01*
X54449999Y-32300028D01*
X54449998Y-32300013D01*
X54439505Y-32197302D01*
X54384358Y-32030880D01*
X54384356Y-32030875D01*
X54292315Y-31881654D01*
X54198695Y-31788034D01*
X54165210Y-31726711D01*
X54170194Y-31657019D01*
X54198691Y-31612676D01*
X54287051Y-31524316D01*
X54348373Y-31490834D01*
X54374730Y-31488000D01*
X55771496Y-31488000D01*
X55862540Y-31469889D01*
X55906828Y-31461080D01*
X56025077Y-31412100D01*
X56034307Y-31408277D01*
X56034308Y-31408276D01*
X56034311Y-31408275D01*
X56149043Y-31331614D01*
X57803838Y-29676817D01*
X57865161Y-29643333D01*
X57891519Y-29640499D01*
X59197871Y-29640499D01*
X59197872Y-29640499D01*
X59257483Y-29634091D01*
X59392331Y-29583796D01*
X59501189Y-29502305D01*
X59566653Y-29477887D01*
X59634926Y-29492738D01*
X59684332Y-29542143D01*
X59699500Y-29601571D01*
X59699500Y-32008481D01*
X59679815Y-32075520D01*
X59663181Y-32096162D01*
X56296162Y-35463181D01*
X56234839Y-35496666D01*
X56208481Y-35499500D01*
X55885132Y-35499500D01*
X55820036Y-35481039D01*
X55794334Y-35465186D01*
X55627797Y-35410001D01*
X55627795Y-35410000D01*
X55525010Y-35399500D01*
X54474998Y-35399500D01*
X54474980Y-35399501D01*
X54372203Y-35410000D01*
X54372200Y-35410001D01*
X54205668Y-35465185D01*
X54205663Y-35465187D01*
X54056345Y-35557287D01*
X53950450Y-35663182D01*
X53889127Y-35696666D01*
X53862769Y-35699500D01*
X51341519Y-35699500D01*
X51274480Y-35679815D01*
X51253838Y-35663181D01*
X50446546Y-34855888D01*
X50446543Y-34855885D01*
X50355608Y-34795125D01*
X50310803Y-34741513D01*
X50300499Y-34692023D01*
X50300499Y-34299998D01*
X50300498Y-34299981D01*
X50289999Y-34197203D01*
X50289998Y-34197200D01*
X50234814Y-34030666D01*
X50142712Y-33881344D01*
X50018656Y-33757288D01*
X49869334Y-33665186D01*
X49702797Y-33610001D01*
X49702795Y-33610000D01*
X49600010Y-33599500D01*
X48399998Y-33599500D01*
X48399981Y-33599501D01*
X48297203Y-33610000D01*
X48297200Y-33610001D01*
X48226816Y-33633324D01*
X48226809Y-33633327D01*
X48130666Y-33665186D01*
X48028875Y-33727970D01*
X48028864Y-33727976D01*
X47981344Y-33757287D01*
X47857289Y-33881342D01*
X47765187Y-34030663D01*
X47765186Y-34030666D01*
X47710001Y-34197203D01*
X47710001Y-34197204D01*
X47710000Y-34197204D01*
X47699500Y-34299983D01*
X47699500Y-36500001D01*
X47699501Y-36500018D01*
X47710000Y-36602796D01*
X47710001Y-36602799D01*
X47758795Y-36750047D01*
X47765186Y-36769334D01*
X47857287Y-36918655D01*
X47857289Y-36918657D01*
X47981344Y-37042712D01*
X48065718Y-37094754D01*
X48112443Y-37146702D01*
X48123666Y-37215664D01*
X48095822Y-37279747D01*
X48065720Y-37305831D01*
X47981656Y-37357682D01*
X47857684Y-37481654D01*
X47765643Y-37630875D01*
X47765641Y-37630880D01*
X47710494Y-37797302D01*
X47710493Y-37797309D01*
X47700000Y-37900013D01*
X47700000Y-38750000D01*
X50299999Y-38750000D01*
X50299999Y-38599986D01*
X53775001Y-38599986D01*
X53785494Y-38702697D01*
X53840641Y-38869119D01*
X53840643Y-38869124D01*
X53932684Y-39018345D01*
X54056654Y-39142315D01*
X54205875Y-39234356D01*
X54205880Y-39234358D01*
X54372302Y-39289505D01*
X54372309Y-39289506D01*
X54475019Y-39299999D01*
X54749999Y-39299999D01*
X55250000Y-39299999D01*
X55524972Y-39299999D01*
X55524986Y-39299998D01*
X55627697Y-39289505D01*
X55794119Y-39234358D01*
X55794124Y-39234356D01*
X55943345Y-39142315D01*
X56067315Y-39018345D01*
X56159356Y-38869124D01*
X56159358Y-38869119D01*
X56214505Y-38702697D01*
X56214506Y-38702690D01*
X56224999Y-38599986D01*
X56225000Y-38599973D01*
X56225000Y-38550000D01*
X55250000Y-38550000D01*
X55250000Y-39299999D01*
X54749999Y-39299999D01*
X54750000Y-39299998D01*
X54750000Y-38550000D01*
X53775001Y-38550000D01*
X53775001Y-38599986D01*
X50299999Y-38599986D01*
X50299999Y-37900028D01*
X50299998Y-37900013D01*
X50289505Y-37797302D01*
X50234358Y-37630880D01*
X50234356Y-37630875D01*
X50142315Y-37481654D01*
X50018344Y-37357683D01*
X50018340Y-37357680D01*
X49934280Y-37305831D01*
X49887555Y-37253883D01*
X49876334Y-37184921D01*
X49904177Y-37120839D01*
X49934278Y-37094756D01*
X50018656Y-37042712D01*
X50142712Y-36918656D01*
X50207369Y-36813828D01*
X50259315Y-36767105D01*
X50328278Y-36755882D01*
X50392360Y-36783725D01*
X50400577Y-36791234D01*
X50553457Y-36944114D01*
X50601714Y-36976358D01*
X50668192Y-37020777D01*
X50795667Y-37073578D01*
X50795672Y-37073580D01*
X50795676Y-37073580D01*
X50795677Y-37073581D01*
X50931003Y-37100500D01*
X50931006Y-37100500D01*
X50931007Y-37100500D01*
X53862769Y-37100500D01*
X53929808Y-37120185D01*
X53948386Y-37134802D01*
X53949440Y-37135808D01*
X54056344Y-37242712D01*
X54070749Y-37251597D01*
X54080176Y-37260595D01*
X54091379Y-37280024D01*
X54106379Y-37296699D01*
X54108495Y-37309706D01*
X54115079Y-37321122D01*
X54114000Y-37343524D01*
X54117603Y-37365661D01*
X54112351Y-37377747D01*
X54111718Y-37390911D01*
X54098697Y-37409176D01*
X54089761Y-37429744D01*
X54074778Y-37442728D01*
X54071160Y-37447804D01*
X54067005Y-37449464D01*
X54059665Y-37455826D01*
X54056660Y-37457679D01*
X54056655Y-37457683D01*
X53932684Y-37581654D01*
X53840643Y-37730875D01*
X53840641Y-37730880D01*
X53785494Y-37897302D01*
X53785493Y-37897309D01*
X53775000Y-38000013D01*
X53775000Y-38050000D01*
X56224999Y-38050000D01*
X56224999Y-38000028D01*
X56224998Y-38000013D01*
X56214736Y-37899558D01*
X56227506Y-37830865D01*
X56275386Y-37779981D01*
X56343176Y-37763060D01*
X56409352Y-37785476D01*
X56425775Y-37799275D01*
X57513181Y-38886681D01*
X57546666Y-38948004D01*
X57549500Y-38974362D01*
X57549500Y-49038696D01*
X57584103Y-49212658D01*
X57584105Y-49212666D01*
X57606533Y-49266812D01*
X57606536Y-49266820D01*
X57607811Y-49269896D01*
X57651987Y-49376547D01*
X57676988Y-49413964D01*
X57680813Y-49421951D01*
X57685050Y-49448053D01*
X57692952Y-49473287D01*
X57690561Y-49481998D01*
X57692010Y-49490918D01*
X57681461Y-49515170D01*
X57674467Y-49540667D01*
X57667746Y-49546703D01*
X57664143Y-49554989D01*
X57642159Y-49569687D01*
X57622488Y-49587357D01*
X57612260Y-49589677D01*
X57606059Y-49593824D01*
X57592938Y-49594061D01*
X57568972Y-49599500D01*
X56511003Y-49599500D01*
X56402590Y-49621065D01*
X56402589Y-49621065D01*
X56375671Y-49626420D01*
X56248190Y-49679224D01*
X56133454Y-49755887D01*
X54984394Y-50904947D01*
X54923071Y-50938432D01*
X54864641Y-50935341D01*
X54864411Y-50936418D01*
X54857801Y-50935002D01*
X54857797Y-50935001D01*
X54857792Y-50935000D01*
X54857790Y-50935000D01*
X54755010Y-50924500D01*
X53954998Y-50924500D01*
X53954980Y-50924501D01*
X53852203Y-50935000D01*
X53852200Y-50935001D01*
X53685668Y-50990185D01*
X53685663Y-50990187D01*
X53536342Y-51082289D01*
X53412289Y-51206342D01*
X53320187Y-51355663D01*
X53320185Y-51355668D01*
X53292349Y-51439670D01*
X53265001Y-51522203D01*
X53265001Y-51522204D01*
X53265000Y-51522204D01*
X53254500Y-51624983D01*
X53254500Y-53425001D01*
X53254501Y-53425018D01*
X53265000Y-53527796D01*
X53265001Y-53527799D01*
X53320185Y-53694331D01*
X53320187Y-53694336D01*
X53348661Y-53740500D01*
X53412288Y-53843656D01*
X53536344Y-53967712D01*
X53685666Y-54059814D01*
X53852203Y-54114999D01*
X53954991Y-54125500D01*
X54755008Y-54125499D01*
X54755016Y-54125498D01*
X54755019Y-54125498D01*
X54811302Y-54119748D01*
X54857797Y-54114999D01*
X55024334Y-54059814D01*
X55173656Y-53967712D01*
X55297712Y-53843656D01*
X55389814Y-53694334D01*
X55444999Y-53527797D01*
X55455500Y-53425009D01*
X55455499Y-52466517D01*
X55475183Y-52399479D01*
X55491813Y-52378842D01*
X56833838Y-51036819D01*
X56895161Y-51003334D01*
X56921519Y-51000500D01*
X59189900Y-51000500D01*
X59256939Y-51020185D01*
X59258788Y-51021396D01*
X59373453Y-51098013D01*
X59537334Y-51165894D01*
X59579935Y-51174368D01*
X59711305Y-51200500D01*
X59711308Y-51200500D01*
X59711309Y-51200500D01*
X60939242Y-51200500D01*
X61006281Y-51220185D01*
X61026923Y-51236819D01*
X61120213Y-51330109D01*
X61292182Y-51455050D01*
X61300946Y-51459516D01*
X61351742Y-51507491D01*
X61368536Y-51575312D01*
X61345998Y-51641447D01*
X61300946Y-51680484D01*
X61292182Y-51684949D01*
X61120213Y-51809890D01*
X60969892Y-51960211D01*
X60901573Y-52054247D01*
X60876770Y-52088385D01*
X60821442Y-52131051D01*
X60776453Y-52139500D01*
X57841003Y-52139500D01*
X57732590Y-52161065D01*
X57732589Y-52161065D01*
X57719131Y-52163742D01*
X57705673Y-52166419D01*
X57668330Y-52181887D01*
X57578190Y-52219224D01*
X57578186Y-52219226D01*
X57463462Y-52295882D01*
X57463459Y-52295884D01*
X57463457Y-52295887D01*
X53946162Y-55813181D01*
X53884839Y-55846666D01*
X53858481Y-55849500D01*
X53055449Y-55849500D01*
X52988410Y-55829815D01*
X52942655Y-55777011D01*
X52937744Y-55764507D01*
X52934814Y-55755667D01*
X52934814Y-55755666D01*
X52842712Y-55606344D01*
X52736818Y-55500450D01*
X52703334Y-55439127D01*
X52700500Y-55412769D01*
X52700500Y-54661004D01*
X52673581Y-54525677D01*
X52673580Y-54525676D01*
X52673580Y-54525672D01*
X52643222Y-54452381D01*
X52620777Y-54398192D01*
X52544112Y-54283454D01*
X50931818Y-52671160D01*
X50898333Y-52609837D01*
X50895499Y-52583479D01*
X50895499Y-51624998D01*
X50895498Y-51624981D01*
X50884999Y-51522203D01*
X50884998Y-51522200D01*
X50877163Y-51498556D01*
X50829814Y-51355666D01*
X50737712Y-51206344D01*
X50613656Y-51082288D01*
X50512970Y-51020185D01*
X50464336Y-50990187D01*
X50464331Y-50990185D01*
X50462862Y-50989698D01*
X50297797Y-50935001D01*
X50297795Y-50935000D01*
X50195010Y-50924500D01*
X49394998Y-50924500D01*
X49394980Y-50924501D01*
X49292203Y-50935000D01*
X49285578Y-50936419D01*
X49285319Y-50935212D01*
X49222457Y-50937373D01*
X49165604Y-50904947D01*
X48716546Y-50455888D01*
X48716545Y-50455887D01*
X48601807Y-50379222D01*
X48474332Y-50326421D01*
X48474322Y-50326418D01*
X48338996Y-50299500D01*
X48338994Y-50299500D01*
X48338993Y-50299500D01*
X46425316Y-50299500D01*
X46377864Y-50290061D01*
X46233501Y-50230264D01*
X46233489Y-50230261D01*
X46078845Y-50199500D01*
X46078842Y-50199500D01*
X45921158Y-50199500D01*
X45921155Y-50199500D01*
X45766510Y-50230261D01*
X45766498Y-50230264D01*
X45620827Y-50290602D01*
X45620814Y-50290609D01*
X45489711Y-50378210D01*
X45489707Y-50378213D01*
X45378213Y-50489707D01*
X45378210Y-50489711D01*
X45290609Y-50620814D01*
X45290602Y-50620827D01*
X45230264Y-50766498D01*
X45230261Y-50766510D01*
X45199500Y-50921153D01*
X45199500Y-51078846D01*
X45230261Y-51233489D01*
X45230264Y-51233501D01*
X45290602Y-51379172D01*
X45290609Y-51379185D01*
X45378210Y-51510288D01*
X45378213Y-51510292D01*
X45489707Y-51621786D01*
X45489711Y-51621789D01*
X45620814Y-51709390D01*
X45620827Y-51709397D01*
X45766498Y-51769735D01*
X45766503Y-51769737D01*
X45921153Y-51800499D01*
X45921156Y-51800500D01*
X45921158Y-51800500D01*
X46078844Y-51800500D01*
X46078845Y-51800499D01*
X46233497Y-51769737D01*
X46312969Y-51736819D01*
X46377864Y-51709939D01*
X46425316Y-51700500D01*
X47928481Y-51700500D01*
X47995520Y-51720185D01*
X48016162Y-51736819D01*
X48658181Y-52378838D01*
X48691666Y-52440161D01*
X48694500Y-52466519D01*
X48694500Y-53425001D01*
X48694501Y-53425019D01*
X48705000Y-53527796D01*
X48705001Y-53527799D01*
X48760185Y-53694331D01*
X48760187Y-53694336D01*
X48788661Y-53740500D01*
X48852288Y-53843656D01*
X48976344Y-53967712D01*
X49125666Y-54059814D01*
X49292203Y-54114999D01*
X49394991Y-54125500D01*
X50195008Y-54125499D01*
X50195016Y-54125498D01*
X50195019Y-54125498D01*
X50218896Y-54123058D01*
X50297797Y-54114999D01*
X50297804Y-54114996D01*
X50304414Y-54113582D01*
X50304672Y-54114789D01*
X50367531Y-54112623D01*
X50424395Y-54145052D01*
X51263181Y-54983838D01*
X51296666Y-55045161D01*
X51299500Y-55071519D01*
X51299500Y-55412769D01*
X51279815Y-55479808D01*
X51265198Y-55498386D01*
X51264190Y-55499441D01*
X51157288Y-55606344D01*
X51148404Y-55620746D01*
X51139404Y-55630176D01*
X51119969Y-55641382D01*
X51103291Y-55656383D01*
X51090289Y-55658498D01*
X51078877Y-55665079D01*
X51056470Y-55663999D01*
X51034328Y-55667602D01*
X51022246Y-55662351D01*
X51009088Y-55661718D01*
X50990821Y-55648695D01*
X50970247Y-55639755D01*
X50957268Y-55624775D01*
X50952195Y-55621159D01*
X50950533Y-55617002D01*
X50944168Y-55609656D01*
X50942319Y-55606659D01*
X50942316Y-55606655D01*
X50818345Y-55482684D01*
X50669124Y-55390643D01*
X50669119Y-55390641D01*
X50502697Y-55335494D01*
X50502690Y-55335493D01*
X50399986Y-55325000D01*
X50350000Y-55325000D01*
X50350000Y-57774999D01*
X50399972Y-57774999D01*
X50399986Y-57774998D01*
X50502697Y-57764505D01*
X50669119Y-57709358D01*
X50669124Y-57709356D01*
X50818345Y-57617315D01*
X50942318Y-57493342D01*
X50944165Y-57490348D01*
X50945969Y-57488724D01*
X50946798Y-57487677D01*
X50946976Y-57487818D01*
X50996110Y-57443621D01*
X51065073Y-57432396D01*
X51129156Y-57460236D01*
X51155243Y-57490341D01*
X51157288Y-57493656D01*
X51281344Y-57617712D01*
X51430666Y-57709814D01*
X51597203Y-57764999D01*
X51699991Y-57775500D01*
X52300008Y-57775499D01*
X52300016Y-57775498D01*
X52300019Y-57775498D01*
X52356302Y-57769748D01*
X52402797Y-57764999D01*
X52569334Y-57709814D01*
X52718656Y-57617712D01*
X52842712Y-57493656D01*
X52934814Y-57344334D01*
X52937744Y-57335493D01*
X52977518Y-57278049D01*
X53042035Y-57251228D01*
X53055449Y-57250500D01*
X53375500Y-57250500D01*
X53442539Y-57270185D01*
X53488294Y-57322989D01*
X53499500Y-57374500D01*
X53499500Y-64135500D01*
X53479815Y-64202539D01*
X53427011Y-64248294D01*
X53375500Y-64259500D01*
X46513605Y-64259500D01*
X46446566Y-64239815D01*
X46415229Y-64210986D01*
X46408747Y-64202539D01*
X46281247Y-64036376D01*
X46281242Y-64036370D01*
X46123629Y-63878757D01*
X46123622Y-63878751D01*
X45946782Y-63743058D01*
X45946780Y-63743057D01*
X45946774Y-63743052D01*
X45753726Y-63631595D01*
X45753722Y-63631593D01*
X45547790Y-63546293D01*
X45547783Y-63546291D01*
X45547781Y-63546290D01*
X45332463Y-63488596D01*
X45332457Y-63488595D01*
X45332452Y-63488594D01*
X45111466Y-63459501D01*
X45111463Y-63459500D01*
X45111457Y-63459500D01*
X44888543Y-63459500D01*
X44888537Y-63459500D01*
X44888533Y-63459501D01*
X44667547Y-63488594D01*
X44667540Y-63488595D01*
X44667537Y-63488596D01*
X44452219Y-63546290D01*
X44452209Y-63546293D01*
X44246277Y-63631593D01*
X44246273Y-63631595D01*
X44053226Y-63743052D01*
X44053217Y-63743058D01*
X43876377Y-63878751D01*
X43876370Y-63878757D01*
X43718757Y-64036370D01*
X43718751Y-64036377D01*
X43583058Y-64213217D01*
X43583052Y-64213226D01*
X43471595Y-64406273D01*
X43471593Y-64406277D01*
X43386293Y-64612209D01*
X43386290Y-64612219D01*
X43328597Y-64827534D01*
X43328594Y-64827547D01*
X43299501Y-65048533D01*
X43299500Y-65048549D01*
X43299500Y-65271450D01*
X43299501Y-65271466D01*
X43328594Y-65492452D01*
X43328595Y-65492457D01*
X43328596Y-65492463D01*
X43328597Y-65492465D01*
X43386290Y-65707780D01*
X43386293Y-65707790D01*
X43460663Y-65887334D01*
X43471595Y-65913726D01*
X43583052Y-66106774D01*
X43583057Y-66106780D01*
X43583058Y-66106782D01*
X43718751Y-66283622D01*
X43718757Y-66283629D01*
X43876370Y-66441242D01*
X43876376Y-66441247D01*
X44053226Y-66576948D01*
X44246274Y-66688405D01*
X44452219Y-66773710D01*
X44667537Y-66831404D01*
X44888543Y-66860500D01*
X44888550Y-66860500D01*
X45111450Y-66860500D01*
X45111457Y-66860500D01*
X45332463Y-66831404D01*
X45547781Y-66773710D01*
X45753726Y-66688405D01*
X45946774Y-66576948D01*
X46123624Y-66441247D01*
X46281247Y-66283624D01*
X46415229Y-66109013D01*
X46471656Y-66067811D01*
X46513605Y-66060500D01*
X52935638Y-66060500D01*
X53002677Y-66080185D01*
X53023319Y-66096819D01*
X53775960Y-66849460D01*
X53775964Y-66849463D01*
X53923446Y-66948008D01*
X53923452Y-66948011D01*
X53923453Y-66948012D01*
X54087334Y-67015894D01*
X54261303Y-67050498D01*
X54261307Y-67050499D01*
X54261308Y-67050499D01*
X54438692Y-67050499D01*
X54438693Y-67050498D01*
X54612666Y-67015894D01*
X54776546Y-66948012D01*
X54924035Y-66849463D01*
X55049463Y-66724035D01*
X55148012Y-66576546D01*
X55215894Y-66412666D01*
X55250499Y-66238691D01*
X55250499Y-66061308D01*
X55215894Y-65887334D01*
X55148012Y-65723453D01*
X55148011Y-65723452D01*
X55148008Y-65723446D01*
X55049463Y-65575964D01*
X54936818Y-65463318D01*
X54903334Y-65401995D01*
X54900500Y-65375637D01*
X54900500Y-56891518D01*
X54920185Y-56824479D01*
X54936819Y-56803837D01*
X58163837Y-53576819D01*
X58225160Y-53543334D01*
X58251518Y-53540500D01*
X60776453Y-53540500D01*
X60843492Y-53560185D01*
X60876769Y-53591614D01*
X60907594Y-53634040D01*
X60969892Y-53719788D01*
X61120213Y-53870109D01*
X61292179Y-53995048D01*
X61292181Y-53995049D01*
X61292184Y-53995051D01*
X61301493Y-53999794D01*
X61352290Y-54047766D01*
X61369087Y-54115587D01*
X61346552Y-54181722D01*
X61301505Y-54220760D01*
X61292446Y-54225376D01*
X61292440Y-54225380D01*
X61238282Y-54264727D01*
X61238282Y-54264728D01*
X61870591Y-54897037D01*
X61807007Y-54914075D01*
X61692993Y-54979901D01*
X61599901Y-55072993D01*
X61534075Y-55187007D01*
X61517037Y-55250591D01*
X60884728Y-54618282D01*
X60884727Y-54618282D01*
X60845380Y-54672439D01*
X60748904Y-54861782D01*
X60683242Y-55063869D01*
X60683242Y-55063872D01*
X60650000Y-55273753D01*
X60650000Y-55486246D01*
X60683242Y-55696127D01*
X60683242Y-55696130D01*
X60748904Y-55898217D01*
X60845375Y-56087550D01*
X60884728Y-56141716D01*
X61517037Y-55509408D01*
X61534075Y-55572993D01*
X61599901Y-55687007D01*
X61692993Y-55780099D01*
X61807007Y-55845925D01*
X61870591Y-55862962D01*
X61269971Y-56463581D01*
X61348711Y-56580895D01*
X61349920Y-56584729D01*
X61352844Y-56587491D01*
X61360343Y-56617778D01*
X61369727Y-56647529D01*
X61368671Y-56651408D01*
X61369638Y-56655312D01*
X61359573Y-56684844D01*
X61351383Y-56714947D01*
X61348397Y-56717640D01*
X61347100Y-56721447D01*
X61302051Y-56760483D01*
X61292440Y-56765380D01*
X61238282Y-56804727D01*
X61238282Y-56804728D01*
X61870591Y-57437037D01*
X61807007Y-57454075D01*
X61692993Y-57519901D01*
X61599901Y-57612993D01*
X61534075Y-57727007D01*
X61517037Y-57790591D01*
X60884728Y-57158282D01*
X60884727Y-57158282D01*
X60845380Y-57212439D01*
X60748904Y-57401782D01*
X60683242Y-57603869D01*
X60683242Y-57603872D01*
X60650000Y-57813753D01*
X60650000Y-58026246D01*
X60683242Y-58236127D01*
X60683242Y-58236130D01*
X60748904Y-58438217D01*
X60845375Y-58627550D01*
X60884728Y-58681716D01*
X61517037Y-58049408D01*
X61534075Y-58112993D01*
X61599901Y-58227007D01*
X61692993Y-58320099D01*
X61807007Y-58385925D01*
X61870591Y-58402962D01*
X61269971Y-59003581D01*
X61348711Y-59120895D01*
X61349920Y-59124729D01*
X61352844Y-59127491D01*
X61360343Y-59157778D01*
X61369727Y-59187529D01*
X61368671Y-59191408D01*
X61369638Y-59195312D01*
X61359573Y-59224844D01*
X61351383Y-59254947D01*
X61348397Y-59257640D01*
X61347100Y-59261447D01*
X61302051Y-59300483D01*
X61292440Y-59305380D01*
X61238282Y-59344727D01*
X61238282Y-59344728D01*
X61870591Y-59977037D01*
X61807007Y-59994075D01*
X61692993Y-60059901D01*
X61599901Y-60152993D01*
X61534075Y-60267007D01*
X61517037Y-60330591D01*
X60884728Y-59698282D01*
X60884727Y-59698282D01*
X60845380Y-59752439D01*
X60748904Y-59941782D01*
X60683242Y-60143869D01*
X60683242Y-60143872D01*
X60650000Y-60353753D01*
X60650000Y-60566246D01*
X60683242Y-60776127D01*
X60683242Y-60776130D01*
X60748904Y-60978217D01*
X60845375Y-61167550D01*
X60884728Y-61221716D01*
X61517037Y-60589408D01*
X61534075Y-60652993D01*
X61599901Y-60767007D01*
X61692993Y-60860099D01*
X61807007Y-60925925D01*
X61870590Y-60942962D01*
X61238282Y-61575269D01*
X61238282Y-61575270D01*
X61292452Y-61614626D01*
X61292451Y-61614626D01*
X61301495Y-61619234D01*
X61352292Y-61667208D01*
X61369087Y-61735029D01*
X61346550Y-61801164D01*
X61301499Y-61840202D01*
X61292182Y-61844949D01*
X61120213Y-61969890D01*
X60969890Y-62120213D01*
X60844951Y-62292179D01*
X60748444Y-62481585D01*
X60682753Y-62683760D01*
X60649500Y-62893713D01*
X60649500Y-63025638D01*
X60629815Y-63092677D01*
X60613181Y-63113319D01*
X53613319Y-70113181D01*
X53551996Y-70146666D01*
X53525638Y-70149500D01*
X48511303Y-70149500D01*
X48337339Y-70184103D01*
X48337323Y-70184108D01*
X48221453Y-70232102D01*
X48221454Y-70232103D01*
X48173454Y-70251986D01*
X48025965Y-70350535D01*
X48025961Y-70350538D01*
X44380538Y-73995960D01*
X44380537Y-73995961D01*
X44341064Y-74055039D01*
X44341063Y-74055040D01*
X44281985Y-74143455D01*
X44248046Y-74225393D01*
X44214106Y-74307329D01*
X44214103Y-74307341D01*
X44179500Y-74481303D01*
X44179500Y-75500500D01*
X44159815Y-75567539D01*
X44107011Y-75613294D01*
X44055500Y-75624500D01*
X43699998Y-75624500D01*
X43699980Y-75624501D01*
X43597203Y-75635000D01*
X43597200Y-75635001D01*
X43430668Y-75690185D01*
X43430663Y-75690187D01*
X43281342Y-75782289D01*
X43157289Y-75906342D01*
X43065187Y-76055663D01*
X43065186Y-76055666D01*
X43010001Y-76222203D01*
X43010001Y-76222204D01*
X43010000Y-76222204D01*
X42999500Y-76324983D01*
X20500500Y-76324983D01*
X20500500Y-57428549D01*
X22979500Y-57428549D01*
X22979500Y-57651450D01*
X22979501Y-57651466D01*
X23008594Y-57872452D01*
X23008595Y-57872457D01*
X23008596Y-57872463D01*
X23049802Y-58026246D01*
X23066290Y-58087780D01*
X23066293Y-58087790D01*
X23151593Y-58293722D01*
X23151595Y-58293726D01*
X23263052Y-58486774D01*
X23263057Y-58486780D01*
X23263058Y-58486782D01*
X23398751Y-58663622D01*
X23398757Y-58663629D01*
X23556370Y-58821242D01*
X23556376Y-58821247D01*
X23733226Y-58956948D01*
X23926274Y-59068405D01*
X24047350Y-59118556D01*
X24062252Y-59124729D01*
X24132219Y-59153710D01*
X24347537Y-59211404D01*
X24568543Y-59240500D01*
X24568550Y-59240500D01*
X24791450Y-59240500D01*
X24791457Y-59240500D01*
X25012463Y-59211404D01*
X25227781Y-59153710D01*
X25433726Y-59068405D01*
X25626774Y-58956948D01*
X25803624Y-58821247D01*
X25961247Y-58663624D01*
X26096948Y-58486774D01*
X26208405Y-58293726D01*
X26293710Y-58087781D01*
X26351404Y-57872463D01*
X26380500Y-57651457D01*
X26380500Y-57428543D01*
X26351404Y-57207537D01*
X26315887Y-57074986D01*
X49100001Y-57074986D01*
X49110494Y-57177697D01*
X49165641Y-57344119D01*
X49165643Y-57344124D01*
X49257684Y-57493345D01*
X49381654Y-57617315D01*
X49530875Y-57709356D01*
X49530880Y-57709358D01*
X49697302Y-57764505D01*
X49697309Y-57764506D01*
X49800019Y-57774999D01*
X49849999Y-57774998D01*
X49850000Y-57774998D01*
X49850000Y-56800000D01*
X49100001Y-56800000D01*
X49100001Y-57074986D01*
X26315887Y-57074986D01*
X26293710Y-56992219D01*
X26208405Y-56786274D01*
X26096948Y-56593226D01*
X26046863Y-56527954D01*
X25961248Y-56416377D01*
X25961242Y-56416370D01*
X25803629Y-56258757D01*
X25803622Y-56258751D01*
X25626782Y-56123058D01*
X25626780Y-56123057D01*
X25626774Y-56123052D01*
X25433726Y-56011595D01*
X25433722Y-56011593D01*
X25227790Y-55926293D01*
X25227783Y-55926291D01*
X25227781Y-55926290D01*
X25012463Y-55868596D01*
X25012457Y-55868595D01*
X25012452Y-55868594D01*
X24791466Y-55839501D01*
X24791463Y-55839500D01*
X24791457Y-55839500D01*
X24568543Y-55839500D01*
X24568537Y-55839500D01*
X24568533Y-55839501D01*
X24347547Y-55868594D01*
X24347540Y-55868595D01*
X24347537Y-55868596D01*
X24147076Y-55922309D01*
X24132219Y-55926290D01*
X24132209Y-55926293D01*
X23926277Y-56011593D01*
X23926273Y-56011595D01*
X23733226Y-56123052D01*
X23733217Y-56123058D01*
X23556377Y-56258751D01*
X23556370Y-56258757D01*
X23398757Y-56416370D01*
X23398751Y-56416377D01*
X23263058Y-56593217D01*
X23263052Y-56593226D01*
X23151595Y-56786273D01*
X23151593Y-56786277D01*
X23066293Y-56992209D01*
X23066290Y-56992219D01*
X23008597Y-57207534D01*
X23008594Y-57207547D01*
X22979501Y-57428533D01*
X22979500Y-57428549D01*
X20500500Y-57428549D01*
X20500500Y-54888575D01*
X43300000Y-54888575D01*
X43300000Y-55111424D01*
X43329085Y-55332354D01*
X43329088Y-55332367D01*
X43386763Y-55547618D01*
X43472045Y-55753502D01*
X43472054Y-55753520D01*
X43583464Y-55946491D01*
X43583473Y-55946504D01*
X43634040Y-56012403D01*
X43634043Y-56012403D01*
X44284154Y-55362291D01*
X44291051Y-55378941D01*
X44378601Y-55509969D01*
X44490031Y-55621399D01*
X44621059Y-55708949D01*
X44637707Y-55715844D01*
X43987595Y-56365955D01*
X43987595Y-56365956D01*
X44053507Y-56416533D01*
X44246485Y-56527949D01*
X44246497Y-56527954D01*
X44452381Y-56613236D01*
X44667632Y-56670911D01*
X44667645Y-56670914D01*
X44888575Y-56700000D01*
X45111425Y-56700000D01*
X45332354Y-56670914D01*
X45332367Y-56670911D01*
X45489298Y-56628863D01*
X45547618Y-56613236D01*
X45753502Y-56527954D01*
X45753514Y-56527949D01*
X45946498Y-56416530D01*
X46012403Y-56365957D01*
X46012404Y-56365956D01*
X45671460Y-56025013D01*
X49100000Y-56025013D01*
X49100000Y-56300000D01*
X49850000Y-56300000D01*
X49850000Y-55325000D01*
X49849999Y-55324999D01*
X49800029Y-55325000D01*
X49800011Y-55325001D01*
X49697302Y-55335494D01*
X49530880Y-55390641D01*
X49530875Y-55390643D01*
X49381654Y-55482684D01*
X49257684Y-55606654D01*
X49165643Y-55755875D01*
X49165641Y-55755880D01*
X49110494Y-55922302D01*
X49110493Y-55922309D01*
X49100000Y-56025013D01*
X45671460Y-56025013D01*
X45362292Y-55715845D01*
X45378941Y-55708949D01*
X45509969Y-55621399D01*
X45621399Y-55509969D01*
X45708949Y-55378941D01*
X45715845Y-55362292D01*
X46365956Y-56012404D01*
X46416535Y-55946490D01*
X46527949Y-55753514D01*
X46527954Y-55753502D01*
X46613236Y-55547618D01*
X46670911Y-55332367D01*
X46670914Y-55332354D01*
X46700000Y-55111424D01*
X46700000Y-54888575D01*
X46670914Y-54667645D01*
X46670911Y-54667632D01*
X46613236Y-54452381D01*
X46527954Y-54246497D01*
X46527949Y-54246485D01*
X46416533Y-54053507D01*
X46365956Y-53987595D01*
X46365955Y-53987595D01*
X45715844Y-54637706D01*
X45708949Y-54621059D01*
X45621399Y-54490031D01*
X45509969Y-54378601D01*
X45378941Y-54291051D01*
X45362291Y-54284154D01*
X46012403Y-53634043D01*
X46012403Y-53634040D01*
X45946504Y-53583473D01*
X45946491Y-53583464D01*
X45753520Y-53472054D01*
X45753502Y-53472045D01*
X45547618Y-53386763D01*
X45332367Y-53329088D01*
X45332354Y-53329085D01*
X45111425Y-53300000D01*
X44888575Y-53300000D01*
X44667645Y-53329085D01*
X44667632Y-53329088D01*
X44452381Y-53386763D01*
X44246497Y-53472045D01*
X44246479Y-53472054D01*
X44053511Y-53583462D01*
X43987595Y-53634042D01*
X44637708Y-54284154D01*
X44621059Y-54291051D01*
X44490031Y-54378601D01*
X44378601Y-54490031D01*
X44291051Y-54621059D01*
X44284154Y-54637707D01*
X43634042Y-53987595D01*
X43583462Y-54053511D01*
X43472054Y-54246479D01*
X43472045Y-54246497D01*
X43386763Y-54452381D01*
X43329088Y-54667632D01*
X43329085Y-54667645D01*
X43300000Y-54888575D01*
X20500500Y-54888575D01*
X20500500Y-52348575D01*
X22980000Y-52348575D01*
X22980000Y-52571424D01*
X23009085Y-52792354D01*
X23009088Y-52792367D01*
X23066763Y-53007618D01*
X23152045Y-53213502D01*
X23152054Y-53213520D01*
X23263464Y-53406491D01*
X23263473Y-53406504D01*
X23314040Y-53472403D01*
X23314043Y-53472403D01*
X23964154Y-52822291D01*
X23971051Y-52838941D01*
X24058601Y-52969969D01*
X24170031Y-53081399D01*
X24301059Y-53168949D01*
X24317707Y-53175844D01*
X23667595Y-53825955D01*
X23667595Y-53825956D01*
X23733507Y-53876533D01*
X23926485Y-53987949D01*
X23926497Y-53987954D01*
X24132381Y-54073236D01*
X24347632Y-54130911D01*
X24347645Y-54130914D01*
X24568575Y-54160000D01*
X24791425Y-54160000D01*
X25012354Y-54130914D01*
X25012367Y-54130911D01*
X25227618Y-54073236D01*
X25433502Y-53987954D01*
X25433514Y-53987949D01*
X25626498Y-53876530D01*
X25692403Y-53825957D01*
X25692404Y-53825956D01*
X25636124Y-53769676D01*
X25042292Y-53175845D01*
X25058941Y-53168949D01*
X25189969Y-53081399D01*
X25301399Y-52969969D01*
X25388949Y-52838941D01*
X25395845Y-52822292D01*
X26045956Y-53472404D01*
X26045957Y-53472403D01*
X26096530Y-53406498D01*
X26207949Y-53213514D01*
X26207954Y-53213502D01*
X26293236Y-53007618D01*
X26350911Y-52792367D01*
X26350914Y-52792354D01*
X26380000Y-52571424D01*
X26380000Y-52348575D01*
X26350914Y-52127645D01*
X26350911Y-52127632D01*
X26293236Y-51912381D01*
X26207954Y-51706497D01*
X26207949Y-51706485D01*
X26096533Y-51513507D01*
X26045956Y-51447595D01*
X26045955Y-51447595D01*
X25395844Y-52097706D01*
X25388949Y-52081059D01*
X25301399Y-51950031D01*
X25189969Y-51838601D01*
X25058941Y-51751051D01*
X25042291Y-51744154D01*
X25692403Y-51094043D01*
X25692403Y-51094040D01*
X25626504Y-51043473D01*
X25626491Y-51043464D01*
X25433520Y-50932054D01*
X25433502Y-50932045D01*
X25227618Y-50846763D01*
X25012367Y-50789088D01*
X25012354Y-50789085D01*
X24791425Y-50760000D01*
X24568575Y-50760000D01*
X24347645Y-50789085D01*
X24347632Y-50789088D01*
X24132381Y-50846763D01*
X23926497Y-50932045D01*
X23926479Y-50932054D01*
X23733511Y-51043462D01*
X23667595Y-51094042D01*
X24317708Y-51744154D01*
X24301059Y-51751051D01*
X24170031Y-51838601D01*
X24058601Y-51950031D01*
X23971051Y-52081059D01*
X23964154Y-52097707D01*
X23314042Y-51447595D01*
X23263462Y-51513511D01*
X23152054Y-51706479D01*
X23152045Y-51706497D01*
X23066763Y-51912381D01*
X23009088Y-52127632D01*
X23009085Y-52127645D01*
X22980000Y-52348575D01*
X20500500Y-52348575D01*
X20500500Y-49224988D01*
X48675001Y-49224988D01*
X48685494Y-49327699D01*
X48740640Y-49494120D01*
X48740642Y-49494125D01*
X48832683Y-49643346D01*
X48956653Y-49767316D01*
X49105874Y-49859357D01*
X49105879Y-49859359D01*
X49272301Y-49914505D01*
X49375017Y-49924999D01*
X51824999Y-49924999D01*
X52325000Y-49924999D01*
X54774974Y-49924999D01*
X54774988Y-49924998D01*
X54877699Y-49914505D01*
X55044120Y-49859359D01*
X55044125Y-49859357D01*
X55193346Y-49767316D01*
X55317316Y-49643346D01*
X55409357Y-49494125D01*
X55409359Y-49494120D01*
X55464505Y-49327698D01*
X55474999Y-49224988D01*
X55475000Y-49224975D01*
X55475000Y-46475000D01*
X52325000Y-46475000D01*
X52325000Y-49924999D01*
X51824999Y-49924999D01*
X51825000Y-49924998D01*
X51825000Y-46475000D01*
X48675001Y-46475000D01*
X48675001Y-49224988D01*
X20500500Y-49224988D01*
X20500500Y-44728549D01*
X22979500Y-44728549D01*
X22979500Y-44951450D01*
X22979501Y-44951466D01*
X23008594Y-45172452D01*
X23008595Y-45172457D01*
X23008596Y-45172463D01*
X23008597Y-45172465D01*
X23066290Y-45387780D01*
X23066293Y-45387790D01*
X23151593Y-45593722D01*
X23151595Y-45593726D01*
X23263052Y-45786774D01*
X23263057Y-45786780D01*
X23263058Y-45786782D01*
X23398751Y-45963622D01*
X23398757Y-45963629D01*
X23556370Y-46121242D01*
X23556377Y-46121248D01*
X23682294Y-46217867D01*
X23733226Y-46256948D01*
X23926274Y-46368405D01*
X24132219Y-46453710D01*
X24347537Y-46511404D01*
X24568543Y-46540500D01*
X24568550Y-46540500D01*
X24791450Y-46540500D01*
X24791457Y-46540500D01*
X25012463Y-46511404D01*
X25227781Y-46453710D01*
X25433726Y-46368405D01*
X25626774Y-46256948D01*
X25803624Y-46121247D01*
X25961247Y-45963624D01*
X26096948Y-45786774D01*
X26208405Y-45593726D01*
X26293710Y-45387781D01*
X26351404Y-45172463D01*
X26380500Y-44951457D01*
X26380500Y-44728543D01*
X26351404Y-44507537D01*
X26293710Y-44292219D01*
X26208405Y-44086274D01*
X26096948Y-43893226D01*
X25961247Y-43716376D01*
X25961242Y-43716370D01*
X25803629Y-43558757D01*
X25803622Y-43558751D01*
X25626782Y-43423058D01*
X25626780Y-43423057D01*
X25626774Y-43423052D01*
X25433726Y-43311595D01*
X25433722Y-43311593D01*
X25227790Y-43226293D01*
X25227783Y-43226291D01*
X25227781Y-43226290D01*
X25012463Y-43168596D01*
X25012457Y-43168595D01*
X25012452Y-43168594D01*
X24791466Y-43139501D01*
X24791463Y-43139500D01*
X24791457Y-43139500D01*
X24568543Y-43139500D01*
X24568537Y-43139500D01*
X24568533Y-43139501D01*
X24347547Y-43168594D01*
X24347540Y-43168595D01*
X24347537Y-43168596D01*
X24195728Y-43209273D01*
X24132219Y-43226290D01*
X24132209Y-43226293D01*
X23926277Y-43311593D01*
X23926273Y-43311595D01*
X23733226Y-43423052D01*
X23733217Y-43423058D01*
X23556377Y-43558751D01*
X23556370Y-43558757D01*
X23398757Y-43716370D01*
X23398751Y-43716377D01*
X23263058Y-43893217D01*
X23263052Y-43893226D01*
X23151595Y-44086273D01*
X23151593Y-44086277D01*
X23066293Y-44292209D01*
X23066290Y-44292219D01*
X23059740Y-44316666D01*
X23008597Y-44507534D01*
X23008594Y-44507547D01*
X22979501Y-44728533D01*
X22979500Y-44728549D01*
X20500500Y-44728549D01*
X20500500Y-38373921D01*
X23950000Y-38373921D01*
X23950000Y-39092500D01*
X24766988Y-39092500D01*
X24734075Y-39149507D01*
X24700000Y-39276674D01*
X24700000Y-39408326D01*
X24734075Y-39535493D01*
X24766988Y-39592500D01*
X23950001Y-39592500D01*
X23950001Y-40311088D01*
X23952794Y-40363691D01*
X23997237Y-40593487D01*
X24079879Y-40812475D01*
X24198339Y-41014341D01*
X24198344Y-41014348D01*
X24349211Y-41193286D01*
X24349213Y-41193288D01*
X24528151Y-41344155D01*
X24528158Y-41344160D01*
X24730024Y-41462620D01*
X24949012Y-41545262D01*
X25178809Y-41589705D01*
X25231382Y-41592498D01*
X25231421Y-41592499D01*
X25949999Y-41592499D01*
X25950000Y-41592498D01*
X25950000Y-39842500D01*
X26450000Y-39842500D01*
X26450000Y-41592499D01*
X27168576Y-41592499D01*
X27168588Y-41592498D01*
X27221191Y-41589705D01*
X27450987Y-41545262D01*
X27669975Y-41462620D01*
X27871841Y-41344160D01*
X27871848Y-41344155D01*
X28050786Y-41193288D01*
X28050788Y-41193286D01*
X28201655Y-41014348D01*
X28201660Y-41014341D01*
X28320120Y-40812475D01*
X28402762Y-40593487D01*
X28447205Y-40363691D01*
X28447205Y-40363690D01*
X28449998Y-40311117D01*
X28450000Y-40311078D01*
X28450000Y-39592500D01*
X27633012Y-39592500D01*
X27665925Y-39535493D01*
X27700000Y-39408326D01*
X27700000Y-39276674D01*
X27665925Y-39149507D01*
X27633012Y-39092500D01*
X28449999Y-39092500D01*
X28449999Y-38373923D01*
X28449998Y-38373911D01*
X28447205Y-38321308D01*
X28402762Y-38091512D01*
X28320120Y-37872524D01*
X28201660Y-37670658D01*
X28201655Y-37670651D01*
X28050788Y-37491713D01*
X28050786Y-37491711D01*
X27871848Y-37340844D01*
X27871841Y-37340839D01*
X27669975Y-37222379D01*
X27450984Y-37139736D01*
X27445840Y-37138741D01*
X27383760Y-37106680D01*
X27348869Y-37046146D01*
X27352244Y-36976358D01*
X27392814Y-36919473D01*
X27457697Y-36893552D01*
X27469374Y-36892999D01*
X30997872Y-36892999D01*
X31057483Y-36886591D01*
X31192331Y-36836296D01*
X31307546Y-36750046D01*
X31393796Y-36634831D01*
X31444091Y-36499983D01*
X31450500Y-36440373D01*
X31450499Y-32844628D01*
X31444091Y-32785017D01*
X31439541Y-32772819D01*
X31393797Y-32650171D01*
X31393793Y-32650164D01*
X31307547Y-32534955D01*
X31307544Y-32534952D01*
X31192335Y-32448706D01*
X31192328Y-32448702D01*
X31057482Y-32398408D01*
X31057483Y-32398408D01*
X30997883Y-32392001D01*
X30997881Y-32392000D01*
X30997873Y-32392000D01*
X30997865Y-32392000D01*
X30224500Y-32392000D01*
X30157461Y-32372315D01*
X30111706Y-32319511D01*
X30100500Y-32268000D01*
X30100500Y-27299361D01*
X30120185Y-27232322D01*
X30136819Y-27211680D01*
X31450319Y-25898180D01*
X31511642Y-25864695D01*
X31581334Y-25869679D01*
X31637267Y-25911551D01*
X31661684Y-25977015D01*
X31662000Y-25985861D01*
X31662000Y-26215701D01*
X31664901Y-26252567D01*
X31664902Y-26252573D01*
X31710754Y-26410393D01*
X31710755Y-26410396D01*
X31794417Y-26551862D01*
X31794423Y-26551870D01*
X31910629Y-26668076D01*
X31910632Y-26668078D01*
X31910635Y-26668081D01*
X31938622Y-26684632D01*
X31986303Y-26735698D01*
X31999500Y-26791363D01*
X31999500Y-28338696D01*
X32034103Y-28512658D01*
X32034105Y-28512666D01*
X32065526Y-28588524D01*
X32065529Y-28588529D01*
X32068046Y-28594606D01*
X32101987Y-28676547D01*
X32161063Y-28764959D01*
X32164169Y-28769607D01*
X32164172Y-28769613D01*
X32200534Y-28824034D01*
X32200535Y-28824035D01*
X33225958Y-29849459D01*
X33225965Y-29849465D01*
X33373451Y-29948011D01*
X33373452Y-29948011D01*
X33373453Y-29948012D01*
X33537334Y-30015895D01*
X33711303Y-30050499D01*
X33711307Y-30050500D01*
X33711308Y-30050500D01*
X33888693Y-30050500D01*
X33888693Y-30050499D01*
X33951308Y-30038045D01*
X34020900Y-30044272D01*
X34076077Y-30087135D01*
X34099322Y-30153025D01*
X34099500Y-30159662D01*
X34099500Y-31488696D01*
X34134103Y-31662658D01*
X34134105Y-31662666D01*
X34150604Y-31702499D01*
X34161675Y-31729225D01*
X34201987Y-31826547D01*
X34253377Y-31903457D01*
X34256958Y-31908817D01*
X34256959Y-31908818D01*
X34300534Y-31974034D01*
X34300535Y-31974035D01*
X34300536Y-31974036D01*
X34563182Y-32236681D01*
X34596666Y-32298002D01*
X34599500Y-32324361D01*
X34599500Y-32510221D01*
X34633985Y-32727952D01*
X34702103Y-32937603D01*
X34702104Y-32937606D01*
X34748009Y-33027697D01*
X34788222Y-33106619D01*
X34802187Y-33134025D01*
X34931752Y-33312358D01*
X34931756Y-33312363D01*
X34981928Y-33362535D01*
X35015413Y-33423858D01*
X35010429Y-33493550D01*
X34968557Y-33549483D01*
X34937581Y-33566398D01*
X34857669Y-33596203D01*
X34857664Y-33596206D01*
X34742455Y-33682452D01*
X34742452Y-33682455D01*
X34656206Y-33797664D01*
X34656202Y-33797671D01*
X34605908Y-33932517D01*
X34599501Y-33992116D01*
X34599501Y-33992123D01*
X34599500Y-33992135D01*
X34599500Y-35887870D01*
X34599501Y-35887876D01*
X34605908Y-35947483D01*
X34656202Y-36082328D01*
X34656206Y-36082335D01*
X34742452Y-36197544D01*
X34748725Y-36203817D01*
X34746529Y-36206012D01*
X34779178Y-36249619D01*
X34787000Y-36292962D01*
X34787000Y-37325270D01*
X34767315Y-37392309D01*
X34750681Y-37412951D01*
X34632289Y-37531342D01*
X34540187Y-37680663D01*
X34540185Y-37680668D01*
X34540115Y-37680880D01*
X34485001Y-37847203D01*
X34485001Y-37847204D01*
X34485000Y-37847204D01*
X34474500Y-37949983D01*
X34474500Y-38950001D01*
X34474501Y-38950019D01*
X34485000Y-39052796D01*
X34485001Y-39052799D01*
X34540185Y-39219331D01*
X34540187Y-39219336D01*
X34549453Y-39234358D01*
X34632288Y-39368656D01*
X34756344Y-39492712D01*
X34905666Y-39584814D01*
X35072203Y-39639999D01*
X35174991Y-39650500D01*
X35800008Y-39650499D01*
X35800016Y-39650498D01*
X35800019Y-39650498D01*
X35856302Y-39644748D01*
X35902797Y-39639999D01*
X36069334Y-39584814D01*
X36218656Y-39492712D01*
X36312675Y-39398692D01*
X36373994Y-39365210D01*
X36443686Y-39370194D01*
X36488034Y-39398695D01*
X36581654Y-39492315D01*
X36730875Y-39584356D01*
X36730880Y-39584358D01*
X36897302Y-39639505D01*
X36897309Y-39639506D01*
X37000019Y-39649999D01*
X37562500Y-39649999D01*
X37624972Y-39649999D01*
X37624986Y-39649998D01*
X37727697Y-39639505D01*
X37894119Y-39584358D01*
X37894124Y-39584356D01*
X38043345Y-39492315D01*
X38167315Y-39368345D01*
X38259356Y-39219124D01*
X38259358Y-39219119D01*
X38314505Y-39052697D01*
X38314506Y-39052690D01*
X38324999Y-38949986D01*
X38325000Y-38949973D01*
X38325000Y-38700000D01*
X37562500Y-38700000D01*
X37562500Y-39649999D01*
X37000019Y-39649999D01*
X37062499Y-39649998D01*
X37062500Y-39649998D01*
X37062500Y-38200000D01*
X37562500Y-38200000D01*
X38324999Y-38200000D01*
X38324999Y-37950028D01*
X38324998Y-37950013D01*
X38314505Y-37847302D01*
X38259358Y-37680880D01*
X38259356Y-37680875D01*
X38167315Y-37531654D01*
X38043345Y-37407684D01*
X37894124Y-37315643D01*
X37894119Y-37315641D01*
X37727697Y-37260494D01*
X37727690Y-37260493D01*
X37624986Y-37250000D01*
X37562500Y-37250000D01*
X37562500Y-38200000D01*
X37062500Y-38200000D01*
X37062500Y-37250000D01*
X37062499Y-37249999D01*
X37000028Y-37250000D01*
X37000011Y-37250001D01*
X36897302Y-37260494D01*
X36730880Y-37315641D01*
X36730875Y-37315643D01*
X36581657Y-37407682D01*
X36488034Y-37501305D01*
X36426710Y-37534789D01*
X36357019Y-37529805D01*
X36312672Y-37501304D01*
X36224319Y-37412951D01*
X36190834Y-37351628D01*
X36188000Y-37325270D01*
X36188000Y-36464499D01*
X36207685Y-36397460D01*
X36260489Y-36351705D01*
X36312000Y-36340499D01*
X36947871Y-36340499D01*
X36947872Y-36340499D01*
X37007483Y-36334091D01*
X37142331Y-36283796D01*
X37257546Y-36197546D01*
X37343796Y-36082331D01*
X37394091Y-35947483D01*
X37400500Y-35887873D01*
X37400499Y-33992128D01*
X37394091Y-33932517D01*
X37343796Y-33797669D01*
X37343795Y-33797668D01*
X37343793Y-33797664D01*
X37257547Y-33682455D01*
X37257544Y-33682452D01*
X37142335Y-33596206D01*
X37142328Y-33596202D01*
X37062419Y-33566398D01*
X37006485Y-33524527D01*
X36982068Y-33459062D01*
X36996920Y-33390789D01*
X37018069Y-33362537D01*
X37068242Y-33312365D01*
X37197815Y-33134022D01*
X37297895Y-32937606D01*
X37301995Y-32924986D01*
X40050001Y-32924986D01*
X40060494Y-33027697D01*
X40115641Y-33194119D01*
X40115643Y-33194124D01*
X40207684Y-33343345D01*
X40331654Y-33467315D01*
X40480875Y-33559356D01*
X40480880Y-33559358D01*
X40647302Y-33614505D01*
X40647309Y-33614506D01*
X40750019Y-33624999D01*
X40999999Y-33624999D01*
X41500000Y-33624999D01*
X41749972Y-33624999D01*
X41749986Y-33624998D01*
X41852697Y-33614505D01*
X42019119Y-33559358D01*
X42019124Y-33559356D01*
X42168345Y-33467315D01*
X42292315Y-33343345D01*
X42384356Y-33194124D01*
X42384358Y-33194119D01*
X42439505Y-33027697D01*
X42439506Y-33027690D01*
X42449999Y-32924986D01*
X42450000Y-32924973D01*
X42450000Y-32862500D01*
X41500000Y-32862500D01*
X41500000Y-33624999D01*
X40999999Y-33624999D01*
X41000000Y-33624998D01*
X41000000Y-32862500D01*
X40050001Y-32862500D01*
X40050001Y-32924986D01*
X37301995Y-32924986D01*
X37328105Y-32844628D01*
X37351437Y-32772820D01*
X37351437Y-32772819D01*
X37366014Y-32727954D01*
X37366013Y-32727954D01*
X37366015Y-32727951D01*
X37400500Y-32510222D01*
X37400500Y-32289778D01*
X37366015Y-32072049D01*
X37297895Y-31862394D01*
X37297895Y-31862393D01*
X37263125Y-31794154D01*
X37197815Y-31665978D01*
X37159086Y-31612672D01*
X37068247Y-31487641D01*
X37068243Y-31487636D01*
X36912359Y-31331752D01*
X36816100Y-31261817D01*
X36773434Y-31206488D01*
X36767455Y-31136874D01*
X36800060Y-31075079D01*
X36828455Y-31059043D01*
X36849999Y-31037499D01*
X37350000Y-31037499D01*
X37599972Y-31037499D01*
X37599986Y-31037498D01*
X37702697Y-31027005D01*
X37869119Y-30971858D01*
X37869124Y-30971856D01*
X38018345Y-30879815D01*
X38142315Y-30755845D01*
X38234356Y-30606624D01*
X38234358Y-30606619D01*
X38277978Y-30474983D01*
X40049500Y-30474983D01*
X40049500Y-31100001D01*
X40049501Y-31100019D01*
X40060000Y-31202796D01*
X40060001Y-31202799D01*
X40115185Y-31369331D01*
X40115187Y-31369336D01*
X40118363Y-31374485D01*
X40190127Y-31490834D01*
X40207289Y-31518657D01*
X40301304Y-31612672D01*
X40334789Y-31673995D01*
X40329805Y-31743687D01*
X40301305Y-31788034D01*
X40207682Y-31881657D01*
X40115643Y-32030875D01*
X40115641Y-32030880D01*
X40060494Y-32197302D01*
X40060493Y-32197309D01*
X40050000Y-32300013D01*
X40050000Y-32362500D01*
X42449999Y-32362500D01*
X42449999Y-32300028D01*
X42449998Y-32300013D01*
X42439505Y-32197302D01*
X42384358Y-32030880D01*
X42384356Y-32030875D01*
X42292315Y-31881654D01*
X42198695Y-31788034D01*
X42165210Y-31726711D01*
X42170194Y-31657019D01*
X42198691Y-31612676D01*
X42292712Y-31518656D01*
X42384814Y-31369334D01*
X42439999Y-31202797D01*
X42450500Y-31100009D01*
X42450499Y-30474992D01*
X42439999Y-30372203D01*
X42384814Y-30205666D01*
X42292712Y-30056344D01*
X42168656Y-29932288D01*
X42019334Y-29840186D01*
X42019332Y-29840185D01*
X42013187Y-29836395D01*
X42014290Y-29834605D01*
X41969649Y-29795290D01*
X41950500Y-29729091D01*
X41950500Y-29041518D01*
X41970185Y-28974479D01*
X41986815Y-28953841D01*
X42637821Y-28302834D01*
X42699142Y-28269351D01*
X42768833Y-28274335D01*
X42824767Y-28316206D01*
X42849184Y-28381671D01*
X42849500Y-28390517D01*
X42849500Y-29187870D01*
X42849501Y-29187876D01*
X42855908Y-29247483D01*
X42906202Y-29382328D01*
X42906206Y-29382335D01*
X42992452Y-29497544D01*
X42992455Y-29497547D01*
X43107664Y-29583793D01*
X43107671Y-29583797D01*
X43242517Y-29634091D01*
X43242516Y-29634091D01*
X43249444Y-29634835D01*
X43302127Y-29640500D01*
X44325500Y-29640499D01*
X44392539Y-29660183D01*
X44438294Y-29712987D01*
X44449500Y-29764499D01*
X44449500Y-30612899D01*
X44429815Y-30679938D01*
X44428603Y-30681789D01*
X44379223Y-30755692D01*
X44326421Y-30883167D01*
X44326420Y-30883171D01*
X44326420Y-30883172D01*
X44301890Y-31006494D01*
X44299500Y-31018506D01*
X44299500Y-43209273D01*
X44279815Y-43276312D01*
X44237501Y-43316660D01*
X44053226Y-43423052D01*
X44053217Y-43423058D01*
X43876377Y-43558751D01*
X43876370Y-43558757D01*
X43718757Y-43716370D01*
X43718751Y-43716377D01*
X43583058Y-43893217D01*
X43583052Y-43893226D01*
X43471595Y-44086273D01*
X43471593Y-44086277D01*
X43386293Y-44292209D01*
X43386290Y-44292219D01*
X43379740Y-44316666D01*
X43328597Y-44507534D01*
X43328594Y-44507547D01*
X43299501Y-44728533D01*
X43299500Y-44728549D01*
X43299500Y-44951450D01*
X43299501Y-44951466D01*
X43328594Y-45172452D01*
X43328595Y-45172457D01*
X43328596Y-45172463D01*
X43328597Y-45172465D01*
X43386290Y-45387780D01*
X43386293Y-45387790D01*
X43471593Y-45593722D01*
X43471595Y-45593726D01*
X43583052Y-45786774D01*
X43583057Y-45786780D01*
X43583058Y-45786782D01*
X43718751Y-45963622D01*
X43718757Y-45963629D01*
X43876370Y-46121242D01*
X43876377Y-46121248D01*
X44002294Y-46217867D01*
X44053226Y-46256948D01*
X44246274Y-46368405D01*
X44452219Y-46453710D01*
X44667537Y-46511404D01*
X44888543Y-46540500D01*
X44888550Y-46540500D01*
X45111450Y-46540500D01*
X45111457Y-46540500D01*
X45332463Y-46511404D01*
X45547781Y-46453710D01*
X45753726Y-46368405D01*
X45946774Y-46256948D01*
X46123624Y-46121247D01*
X46281247Y-45963624D01*
X46416948Y-45786774D01*
X46528405Y-45593726D01*
X46613710Y-45387781D01*
X46671404Y-45172463D01*
X46700500Y-44951457D01*
X46700500Y-44728543D01*
X46671404Y-44507537D01*
X46613710Y-44292219D01*
X46528405Y-44086274D01*
X46416948Y-43893226D01*
X46281247Y-43716376D01*
X46281242Y-43716370D01*
X46123629Y-43558757D01*
X46123622Y-43558751D01*
X45946782Y-43423058D01*
X45946780Y-43423057D01*
X45946774Y-43423052D01*
X45842828Y-43363038D01*
X45784304Y-43329249D01*
X45784304Y-43329248D01*
X45762500Y-43316660D01*
X45714285Y-43266094D01*
X45704318Y-43225011D01*
X48675000Y-43225011D01*
X48675000Y-45975000D01*
X51825000Y-45975000D01*
X52325000Y-45975000D01*
X55474999Y-45975000D01*
X55474999Y-43225026D01*
X55474998Y-43225011D01*
X55464505Y-43122300D01*
X55409359Y-42955879D01*
X55409357Y-42955874D01*
X55317316Y-42806653D01*
X55193346Y-42682683D01*
X55044125Y-42590642D01*
X55044120Y-42590640D01*
X54877698Y-42535494D01*
X54774988Y-42525000D01*
X52325000Y-42525000D01*
X52325000Y-45975000D01*
X51825000Y-45975000D01*
X51825000Y-42525000D01*
X49375026Y-42525000D01*
X49375010Y-42525001D01*
X49272300Y-42535494D01*
X49105879Y-42590640D01*
X49105874Y-42590642D01*
X48956653Y-42682683D01*
X48832683Y-42806653D01*
X48740642Y-42955874D01*
X48740640Y-42955879D01*
X48685494Y-43122301D01*
X48675000Y-43225011D01*
X45704318Y-43225011D01*
X45700500Y-43209273D01*
X45700500Y-40099986D01*
X47700001Y-40099986D01*
X47710494Y-40202697D01*
X47765641Y-40369119D01*
X47765643Y-40369124D01*
X47857684Y-40518345D01*
X47981654Y-40642315D01*
X48130875Y-40734356D01*
X48130880Y-40734358D01*
X48297302Y-40789505D01*
X48297309Y-40789506D01*
X48400019Y-40799999D01*
X48749999Y-40799999D01*
X49250000Y-40799999D01*
X49599972Y-40799999D01*
X49599986Y-40799998D01*
X49702697Y-40789505D01*
X49869119Y-40734358D01*
X49869124Y-40734356D01*
X50018345Y-40642315D01*
X50142315Y-40518345D01*
X50234356Y-40369124D01*
X50234358Y-40369119D01*
X50289505Y-40202697D01*
X50289506Y-40202690D01*
X50299999Y-40099986D01*
X50300000Y-40099973D01*
X50300000Y-39250000D01*
X49250000Y-39250000D01*
X49250000Y-40799999D01*
X48749999Y-40799999D01*
X48750000Y-40799998D01*
X48750000Y-39250000D01*
X47700001Y-39250000D01*
X47700001Y-40099986D01*
X45700500Y-40099986D01*
X45700500Y-32837486D01*
X46050001Y-32837486D01*
X46060494Y-32940197D01*
X46115641Y-33106619D01*
X46115643Y-33106624D01*
X46207684Y-33255845D01*
X46331654Y-33379815D01*
X46480875Y-33471856D01*
X46480880Y-33471858D01*
X46647302Y-33527005D01*
X46647309Y-33527006D01*
X46750019Y-33537499D01*
X46999999Y-33537499D01*
X47500000Y-33537499D01*
X47749972Y-33537499D01*
X47749986Y-33537498D01*
X47852698Y-33527005D01*
X47921520Y-33504199D01*
X48170654Y-33377506D01*
X48292315Y-33255845D01*
X48384356Y-33106624D01*
X48384358Y-33106619D01*
X48439505Y-32940197D01*
X48439506Y-32940190D01*
X48441059Y-32924986D01*
X52050001Y-32924986D01*
X52060494Y-33027697D01*
X52115641Y-33194119D01*
X52115643Y-33194124D01*
X52207684Y-33343345D01*
X52331654Y-33467315D01*
X52480875Y-33559356D01*
X52480880Y-33559358D01*
X52647302Y-33614505D01*
X52647309Y-33614506D01*
X52750019Y-33624999D01*
X52999999Y-33624999D01*
X53500000Y-33624999D01*
X53749972Y-33624999D01*
X53749986Y-33624998D01*
X53852697Y-33614505D01*
X54019119Y-33559358D01*
X54019124Y-33559356D01*
X54168345Y-33467315D01*
X54292315Y-33343345D01*
X54384356Y-33194124D01*
X54384358Y-33194119D01*
X54439505Y-33027697D01*
X54439506Y-33027690D01*
X54449999Y-32924986D01*
X54450000Y-32924973D01*
X54450000Y-32862500D01*
X53500000Y-32862500D01*
X53500000Y-33624999D01*
X52999999Y-33624999D01*
X53000000Y-33624998D01*
X53000000Y-32862500D01*
X52050001Y-32862500D01*
X52050001Y-32924986D01*
X48441059Y-32924986D01*
X48449999Y-32837486D01*
X48450000Y-32837473D01*
X48450000Y-32775000D01*
X47500000Y-32775000D01*
X47500000Y-33537499D01*
X46999999Y-33537499D01*
X47000000Y-33537498D01*
X47000000Y-32775000D01*
X46050001Y-32775000D01*
X46050001Y-32837486D01*
X45700500Y-32837486D01*
X45700500Y-31412100D01*
X45720185Y-31345061D01*
X45721398Y-31343209D01*
X45729147Y-31331611D01*
X45770775Y-31269311D01*
X45823580Y-31141828D01*
X45823947Y-31139983D01*
X45824405Y-31139106D01*
X45825349Y-31135996D01*
X45825938Y-31136174D01*
X45856330Y-31078071D01*
X45917044Y-31043495D01*
X45986814Y-31047232D01*
X46043487Y-31088096D01*
X46063271Y-31125166D01*
X46115185Y-31281831D01*
X46115187Y-31281836D01*
X46145889Y-31331612D01*
X46195534Y-31412100D01*
X46207289Y-31431157D01*
X46301304Y-31525172D01*
X46334789Y-31586495D01*
X46329805Y-31656187D01*
X46301305Y-31700534D01*
X46207682Y-31794157D01*
X46115643Y-31943375D01*
X46115641Y-31943380D01*
X46060494Y-32109802D01*
X46060493Y-32109809D01*
X46050000Y-32212513D01*
X46050000Y-32275000D01*
X48449999Y-32275000D01*
X48449999Y-32212528D01*
X48449998Y-32212513D01*
X48439505Y-32109802D01*
X48384358Y-31943380D01*
X48384356Y-31943375D01*
X48292315Y-31794154D01*
X48198695Y-31700534D01*
X48165210Y-31639211D01*
X48170194Y-31569519D01*
X48198691Y-31525176D01*
X48287051Y-31436816D01*
X48348373Y-31403334D01*
X48374730Y-31400500D01*
X48858996Y-31400500D01*
X48950040Y-31382389D01*
X48994328Y-31373580D01*
X49095296Y-31331758D01*
X49121807Y-31320777D01*
X49121808Y-31320776D01*
X49121811Y-31320775D01*
X49236543Y-31244114D01*
X50803837Y-29676817D01*
X50865160Y-29643333D01*
X50891518Y-29640499D01*
X52197871Y-29640499D01*
X52197872Y-29640499D01*
X52257483Y-29634091D01*
X52392331Y-29583796D01*
X52507546Y-29497546D01*
X52593796Y-29382331D01*
X52644091Y-29247483D01*
X52650500Y-29187873D01*
X52650499Y-27292128D01*
X52644091Y-27232517D01*
X52644018Y-27232322D01*
X52593797Y-27097671D01*
X52593793Y-27097664D01*
X52507547Y-26982455D01*
X52507544Y-26982452D01*
X52392335Y-26896206D01*
X52392328Y-26896202D01*
X52312419Y-26866398D01*
X52256485Y-26824527D01*
X52232068Y-26759062D01*
X52246920Y-26690789D01*
X52268069Y-26662537D01*
X52318242Y-26612365D01*
X52447815Y-26434022D01*
X52547895Y-26237606D01*
X52616015Y-26027951D01*
X52650500Y-25810222D01*
X52650500Y-25589778D01*
X52616015Y-25372049D01*
X52560894Y-25202401D01*
X52547896Y-25162396D01*
X52547895Y-25162393D01*
X52505516Y-25079222D01*
X52447815Y-24965978D01*
X52400242Y-24900499D01*
X52318247Y-24787641D01*
X52318243Y-24787636D01*
X52162363Y-24631756D01*
X52162358Y-24631752D01*
X51984025Y-24502187D01*
X51984024Y-24502186D01*
X51984022Y-24502185D01*
X51921096Y-24470122D01*
X51787606Y-24402104D01*
X51787603Y-24402103D01*
X51577952Y-24333985D01*
X51469086Y-24316742D01*
X51360222Y-24299500D01*
X51139778Y-24299500D01*
X51067201Y-24310995D01*
X50922047Y-24333985D01*
X50712396Y-24402103D01*
X50712393Y-24402104D01*
X50515974Y-24502187D01*
X50337641Y-24631752D01*
X50337636Y-24631756D01*
X50181756Y-24787636D01*
X50181752Y-24787641D01*
X50052187Y-24965974D01*
X49952104Y-25162393D01*
X49952103Y-25162396D01*
X49883985Y-25372047D01*
X49883985Y-25372049D01*
X49849500Y-25589778D01*
X49849500Y-25810222D01*
X49858128Y-25864695D01*
X49883985Y-26027952D01*
X49952103Y-26237603D01*
X49952104Y-26237606D01*
X49985658Y-26303457D01*
X50044121Y-26418196D01*
X50052187Y-26434025D01*
X50181752Y-26612358D01*
X50181756Y-26612363D01*
X50231928Y-26662535D01*
X50265413Y-26723858D01*
X50260429Y-26793550D01*
X50218557Y-26849483D01*
X50187581Y-26866398D01*
X50107669Y-26896203D01*
X50107664Y-26896206D01*
X49992455Y-26982452D01*
X49992452Y-26982455D01*
X49906206Y-27097664D01*
X49906202Y-27097671D01*
X49855908Y-27232517D01*
X49852667Y-27262667D01*
X49849501Y-27292123D01*
X49849500Y-27292135D01*
X49849500Y-28598480D01*
X49829815Y-28665519D01*
X49813181Y-28686161D01*
X48536162Y-29963181D01*
X48474839Y-29996666D01*
X48448481Y-29999500D01*
X48374730Y-29999500D01*
X48307691Y-29979815D01*
X48287049Y-29963181D01*
X48168657Y-29844789D01*
X48168656Y-29844788D01*
X48019334Y-29752686D01*
X47852797Y-29697501D01*
X47852795Y-29697500D01*
X47750010Y-29687000D01*
X46749998Y-29687000D01*
X46749980Y-29687001D01*
X46647203Y-29697500D01*
X46647200Y-29697501D01*
X46480668Y-29752685D01*
X46480663Y-29752687D01*
X46331342Y-29844789D01*
X46207289Y-29968842D01*
X46115187Y-30118163D01*
X46115185Y-30118168D01*
X46092206Y-30187516D01*
X46052433Y-30244961D01*
X45987917Y-30271784D01*
X45919142Y-30259469D01*
X45867942Y-30211926D01*
X45850500Y-30148512D01*
X45850500Y-28781004D01*
X45823581Y-28645677D01*
X45823580Y-28645676D01*
X45823580Y-28645672D01*
X45810998Y-28615297D01*
X45770778Y-28518195D01*
X45770771Y-28518182D01*
X45694114Y-28403458D01*
X45694111Y-28403454D01*
X45686818Y-28396161D01*
X45653333Y-28334838D01*
X45650499Y-28308480D01*
X45650499Y-27292129D01*
X45650498Y-27292123D01*
X45650497Y-27292116D01*
X45644091Y-27232517D01*
X45644018Y-27232322D01*
X45593797Y-27097671D01*
X45593793Y-27097664D01*
X45507547Y-26982455D01*
X45507544Y-26982452D01*
X45392335Y-26896206D01*
X45392328Y-26896202D01*
X45312419Y-26866398D01*
X45256485Y-26824527D01*
X45232068Y-26759062D01*
X45246920Y-26690789D01*
X45268069Y-26662537D01*
X45318242Y-26612365D01*
X45447815Y-26434022D01*
X45547895Y-26237606D01*
X45616015Y-26027951D01*
X45650500Y-25810222D01*
X45650500Y-25589778D01*
X45616015Y-25372049D01*
X45560894Y-25202401D01*
X45547896Y-25162396D01*
X45547895Y-25162393D01*
X45505516Y-25079222D01*
X45447815Y-24965978D01*
X45400242Y-24900499D01*
X45318247Y-24787641D01*
X45318243Y-24787636D01*
X45162363Y-24631756D01*
X45162358Y-24631752D01*
X44984025Y-24502187D01*
X44984024Y-24502186D01*
X44984022Y-24502185D01*
X44921096Y-24470122D01*
X44787606Y-24402104D01*
X44787603Y-24402103D01*
X44577952Y-24333985D01*
X44469086Y-24316742D01*
X44360222Y-24299500D01*
X44139778Y-24299500D01*
X44067201Y-24310995D01*
X43922047Y-24333985D01*
X43712396Y-24402103D01*
X43712393Y-24402104D01*
X43515974Y-24502187D01*
X43337641Y-24631752D01*
X43337636Y-24631756D01*
X43181756Y-24787636D01*
X43181752Y-24787641D01*
X43052187Y-24965974D01*
X42952104Y-25162393D01*
X42952103Y-25162396D01*
X42883985Y-25372047D01*
X42883985Y-25372049D01*
X42849500Y-25589778D01*
X42849500Y-25810222D01*
X42858383Y-25866305D01*
X42880583Y-26006471D01*
X42871628Y-26075765D01*
X42845791Y-26113550D01*
X40705887Y-28253454D01*
X40629223Y-28368192D01*
X40576421Y-28495668D01*
X40576418Y-28495680D01*
X40569947Y-28528212D01*
X40569947Y-28528213D01*
X40549500Y-28631004D01*
X40549500Y-29729091D01*
X40529815Y-29796130D01*
X40485731Y-29834641D01*
X40486813Y-29836395D01*
X40480667Y-29840185D01*
X40480666Y-29840186D01*
X40385313Y-29899000D01*
X40331342Y-29932289D01*
X40207289Y-30056342D01*
X40115187Y-30205663D01*
X40115185Y-30205668D01*
X40102165Y-30244961D01*
X40060001Y-30372203D01*
X40060001Y-30372204D01*
X40060000Y-30372204D01*
X40049500Y-30474983D01*
X38277978Y-30474983D01*
X38289506Y-30440194D01*
X38289506Y-30440193D01*
X38299999Y-30337486D01*
X38300000Y-30337473D01*
X38300000Y-30275000D01*
X37350000Y-30275000D01*
X37350000Y-31037499D01*
X36849999Y-31037499D01*
X36850000Y-31037498D01*
X36850000Y-30149000D01*
X36869685Y-30081961D01*
X36922489Y-30036206D01*
X36974000Y-30025000D01*
X37100000Y-30025000D01*
X37100000Y-29899000D01*
X37119685Y-29831961D01*
X37172489Y-29786206D01*
X37224000Y-29775000D01*
X38299999Y-29775000D01*
X38299999Y-29712528D01*
X38299998Y-29712513D01*
X38289505Y-29609802D01*
X38234358Y-29443380D01*
X38234356Y-29443375D01*
X38142315Y-29294154D01*
X38048695Y-29200534D01*
X38015210Y-29139211D01*
X38020194Y-29069519D01*
X38048691Y-29025176D01*
X38142712Y-28931156D01*
X38234814Y-28781834D01*
X38289999Y-28615297D01*
X38300500Y-28512509D01*
X38300499Y-28024499D01*
X38320183Y-27957461D01*
X38372987Y-27911706D01*
X38424499Y-27900500D01*
X39288693Y-27900500D01*
X39288694Y-27900499D01*
X39346682Y-27888964D01*
X39462658Y-27865896D01*
X39462661Y-27865894D01*
X39462666Y-27865894D01*
X39626547Y-27798013D01*
X39774035Y-27699464D01*
X39899464Y-27574035D01*
X39998013Y-27426547D01*
X40065894Y-27262666D01*
X40068812Y-27247999D01*
X40100499Y-27088695D01*
X40100500Y-27088693D01*
X40100500Y-26911306D01*
X40100499Y-26911304D01*
X40065896Y-26737341D01*
X40065893Y-26737332D01*
X39998016Y-26573459D01*
X39998009Y-26573446D01*
X39899464Y-26425965D01*
X39899461Y-26425961D01*
X39774038Y-26300538D01*
X39774034Y-26300535D01*
X39626553Y-26201990D01*
X39626540Y-26201983D01*
X39462667Y-26134106D01*
X39462658Y-26134103D01*
X39288694Y-26099500D01*
X39288691Y-26099500D01*
X38103818Y-26099500D01*
X38036779Y-26079815D01*
X37991024Y-26027011D01*
X37986112Y-26014504D01*
X37965332Y-25951797D01*
X37937003Y-25866303D01*
X37936999Y-25866297D01*
X37936998Y-25866294D01*
X37847970Y-25721959D01*
X37847967Y-25721955D01*
X37728044Y-25602032D01*
X37728040Y-25602029D01*
X37583705Y-25513001D01*
X37583699Y-25512998D01*
X37583697Y-25512997D01*
X37501054Y-25485612D01*
X37422709Y-25459651D01*
X37323346Y-25449500D01*
X36476662Y-25449500D01*
X36476644Y-25449501D01*
X36377292Y-25459650D01*
X36377289Y-25459651D01*
X36216305Y-25512996D01*
X36216294Y-25513001D01*
X36089597Y-25591150D01*
X36022205Y-25609591D01*
X35955541Y-25588669D01*
X35910771Y-25535027D01*
X35900500Y-25485612D01*
X35900500Y-24228711D01*
X63149500Y-24228711D01*
X63149500Y-24471288D01*
X63181161Y-24711785D01*
X63243947Y-24946104D01*
X63336773Y-25170205D01*
X63336777Y-25170214D01*
X63342320Y-25179815D01*
X63458064Y-25380289D01*
X63458066Y-25380292D01*
X63458067Y-25380293D01*
X63605733Y-25572736D01*
X63605739Y-25572743D01*
X63777256Y-25744260D01*
X63777262Y-25744265D01*
X63969711Y-25891936D01*
X64179788Y-26013224D01*
X64403900Y-26106054D01*
X64638211Y-26168838D01*
X64818586Y-26192584D01*
X64878711Y-26200500D01*
X64878712Y-26200500D01*
X65121289Y-26200500D01*
X65169388Y-26194167D01*
X65361789Y-26168838D01*
X65596100Y-26106054D01*
X65820212Y-26013224D01*
X66030289Y-25891936D01*
X66222738Y-25744265D01*
X66394265Y-25572738D01*
X66541936Y-25380289D01*
X66663224Y-25170212D01*
X66756054Y-24946100D01*
X66818838Y-24711789D01*
X66850500Y-24471288D01*
X66850500Y-24228712D01*
X66847232Y-24203892D01*
X66840072Y-24149500D01*
X66818838Y-23988211D01*
X66756054Y-23753900D01*
X66663224Y-23529788D01*
X66541936Y-23319711D01*
X66411329Y-23149500D01*
X66394266Y-23127263D01*
X66394260Y-23127256D01*
X66222743Y-22955739D01*
X66222736Y-22955733D01*
X66030293Y-22808067D01*
X66030292Y-22808066D01*
X66030289Y-22808064D01*
X65820212Y-22686776D01*
X65766298Y-22664444D01*
X65596104Y-22593947D01*
X65361785Y-22531161D01*
X65121289Y-22499500D01*
X65121288Y-22499500D01*
X64878712Y-22499500D01*
X64878711Y-22499500D01*
X64638214Y-22531161D01*
X64403895Y-22593947D01*
X64179794Y-22686773D01*
X64179785Y-22686777D01*
X63969706Y-22808067D01*
X63777263Y-22955733D01*
X63777256Y-22955739D01*
X63605739Y-23127256D01*
X63605733Y-23127263D01*
X63458067Y-23319706D01*
X63336777Y-23529785D01*
X63336773Y-23529794D01*
X63243947Y-23753895D01*
X63181161Y-23988214D01*
X63149500Y-24228711D01*
X35900500Y-24228711D01*
X35900500Y-24124500D01*
X35920185Y-24057461D01*
X35972989Y-24011706D01*
X36024500Y-24000500D01*
X36237025Y-24000500D01*
X36276029Y-24006794D01*
X36377292Y-24040349D01*
X36476655Y-24050500D01*
X37323344Y-24050499D01*
X37323352Y-24050498D01*
X37323355Y-24050498D01*
X37377760Y-24044940D01*
X37422708Y-24040349D01*
X37583697Y-23987003D01*
X37728044Y-23897968D01*
X37847968Y-23778044D01*
X37937003Y-23633697D01*
X37990349Y-23472708D01*
X38000500Y-23373345D01*
X38000499Y-22826656D01*
X37990349Y-22727292D01*
X37937003Y-22566303D01*
X37936999Y-22566297D01*
X37936998Y-22566294D01*
X37847970Y-22421959D01*
X37847967Y-22421955D01*
X37728044Y-22302032D01*
X37728040Y-22302029D01*
X37583705Y-22213001D01*
X37583699Y-22212998D01*
X37583697Y-22212997D01*
X37583694Y-22212996D01*
X37422709Y-22159651D01*
X37323346Y-22149500D01*
X36476662Y-22149500D01*
X36476644Y-22149501D01*
X36377292Y-22159650D01*
X36377289Y-22159651D01*
X36276029Y-22193206D01*
X36237025Y-22199500D01*
X33811304Y-22199500D01*
X33637341Y-22234103D01*
X33637333Y-22234105D01*
X33557963Y-22266982D01*
X33557962Y-22266982D01*
X33473459Y-22301983D01*
X33473446Y-22301990D01*
X33325965Y-22400535D01*
X33325961Y-22400538D01*
X32463319Y-23263181D01*
X32401996Y-23296666D01*
X32375638Y-23299500D01*
X32246798Y-23299500D01*
X32209932Y-23302401D01*
X32209926Y-23302402D01*
X32052106Y-23348254D01*
X32052103Y-23348255D01*
X31910637Y-23431917D01*
X31910629Y-23431923D01*
X31794423Y-23548129D01*
X31794417Y-23548137D01*
X31710755Y-23689603D01*
X31710754Y-23689606D01*
X31664902Y-23847426D01*
X31664901Y-23847432D01*
X31662000Y-23884298D01*
X31662000Y-24125500D01*
X31642315Y-24192539D01*
X31589511Y-24238294D01*
X31538000Y-24249500D01*
X31470208Y-24249500D01*
X31422755Y-24240061D01*
X31287666Y-24184105D01*
X31287658Y-24184103D01*
X31113696Y-24149500D01*
X31113692Y-24149500D01*
X30936308Y-24149500D01*
X30936303Y-24149500D01*
X30762341Y-24184103D01*
X30762333Y-24184105D01*
X30714564Y-24203892D01*
X30631512Y-24238294D01*
X30627246Y-24240061D01*
X30579793Y-24249500D01*
X30371798Y-24249500D01*
X30334932Y-24252401D01*
X30334926Y-24252402D01*
X30177106Y-24298254D01*
X30177103Y-24298255D01*
X30035637Y-24381917D01*
X30035629Y-24381923D01*
X29919423Y-24498129D01*
X29919417Y-24498137D01*
X29835755Y-24639603D01*
X29835754Y-24639606D01*
X29789902Y-24797426D01*
X29789901Y-24797432D01*
X29787000Y-24834298D01*
X29787000Y-24963137D01*
X29767315Y-25030176D01*
X29750681Y-25050818D01*
X28500540Y-26300958D01*
X28500537Y-26300961D01*
X28487299Y-26320775D01*
X28401985Y-26448455D01*
X28368046Y-26530393D01*
X28334106Y-26612329D01*
X28334103Y-26612341D01*
X28302204Y-26772704D01*
X28302205Y-26772705D01*
X28299500Y-26786303D01*
X28299500Y-32268000D01*
X28279815Y-32335039D01*
X28227011Y-32380794D01*
X28175500Y-32392000D01*
X27402129Y-32392000D01*
X27402123Y-32392001D01*
X27342516Y-32398408D01*
X27207671Y-32448702D01*
X27207664Y-32448706D01*
X27092455Y-32534952D01*
X27092452Y-32534955D01*
X27006206Y-32650164D01*
X27006202Y-32650171D01*
X26955908Y-32785017D01*
X26949501Y-32844616D01*
X26949501Y-32844623D01*
X26949500Y-32844635D01*
X26949500Y-36440370D01*
X26949501Y-36440376D01*
X26955908Y-36499983D01*
X27006202Y-36634828D01*
X27006206Y-36634835D01*
X27092452Y-36750044D01*
X27092455Y-36750047D01*
X27207664Y-36836293D01*
X27207673Y-36836298D01*
X27256506Y-36854511D01*
X27312440Y-36896381D01*
X27336858Y-36961845D01*
X27322007Y-37030118D01*
X27272603Y-37079524D01*
X27206598Y-37094518D01*
X27168625Y-37092501D01*
X27168579Y-37092500D01*
X26450000Y-37092500D01*
X26450000Y-38842500D01*
X25950000Y-38842500D01*
X25950000Y-37092500D01*
X25231423Y-37092500D01*
X25231411Y-37092501D01*
X25178808Y-37095294D01*
X24949012Y-37139737D01*
X24730024Y-37222379D01*
X24528158Y-37340839D01*
X24528151Y-37340844D01*
X24349213Y-37491711D01*
X24349211Y-37491713D01*
X24198344Y-37670651D01*
X24198339Y-37670658D01*
X24079879Y-37872524D01*
X23997237Y-38091512D01*
X23952794Y-38321308D01*
X23952794Y-38321309D01*
X23950001Y-38373882D01*
X23950000Y-38373921D01*
X20500500Y-38373921D01*
X20500500Y-33578303D01*
X21200000Y-33578303D01*
X21200000Y-34392500D01*
X22700000Y-34392500D01*
X22700000Y-34892500D01*
X21200001Y-34892500D01*
X21200001Y-35706697D01*
X21210400Y-35838832D01*
X21265377Y-36057019D01*
X21358428Y-36261874D01*
X21358431Y-36261880D01*
X21486559Y-36446823D01*
X21486569Y-36446835D01*
X21645664Y-36605930D01*
X21645676Y-36605940D01*
X21830619Y-36734068D01*
X21830625Y-36734071D01*
X22035480Y-36827122D01*
X22253667Y-36882099D01*
X22385810Y-36892499D01*
X22949999Y-36892499D01*
X22950000Y-36892498D01*
X22950000Y-36075512D01*
X23007007Y-36108425D01*
X23134174Y-36142500D01*
X23265826Y-36142500D01*
X23392993Y-36108425D01*
X23450000Y-36075512D01*
X23450000Y-36892499D01*
X24014182Y-36892499D01*
X24014197Y-36892498D01*
X24146332Y-36882099D01*
X24364519Y-36827122D01*
X24569374Y-36734071D01*
X24569380Y-36734068D01*
X24754323Y-36605940D01*
X24754335Y-36605930D01*
X24913430Y-36446835D01*
X24913440Y-36446823D01*
X25041568Y-36261880D01*
X25041571Y-36261874D01*
X25134622Y-36057019D01*
X25189599Y-35838832D01*
X25199999Y-35706696D01*
X25200000Y-35706684D01*
X25200000Y-34892500D01*
X23700000Y-34892500D01*
X23700000Y-34392500D01*
X25199999Y-34392500D01*
X25199999Y-33578317D01*
X25199998Y-33578302D01*
X25189599Y-33446167D01*
X25134622Y-33227980D01*
X25041571Y-33023125D01*
X25041568Y-33023119D01*
X24913440Y-32838176D01*
X24913430Y-32838164D01*
X24754335Y-32679069D01*
X24754323Y-32679059D01*
X24569380Y-32550931D01*
X24569374Y-32550928D01*
X24364519Y-32457877D01*
X24146332Y-32402900D01*
X24014196Y-32392500D01*
X23450000Y-32392500D01*
X23450000Y-33209488D01*
X23392993Y-33176575D01*
X23265826Y-33142500D01*
X23134174Y-33142500D01*
X23007007Y-33176575D01*
X22950000Y-33209488D01*
X22950000Y-32392500D01*
X22385817Y-32392500D01*
X22385802Y-32392501D01*
X22253667Y-32402900D01*
X22035480Y-32457877D01*
X21830625Y-32550928D01*
X21830619Y-32550931D01*
X21645676Y-32679059D01*
X21645664Y-32679069D01*
X21486569Y-32838164D01*
X21486559Y-32838176D01*
X21358431Y-33023119D01*
X21358428Y-33023125D01*
X21265377Y-33227980D01*
X21210400Y-33446167D01*
X21200000Y-33578303D01*
X20500500Y-33578303D01*
X20500500Y-24878711D01*
X23149500Y-24878711D01*
X23149500Y-25121288D01*
X23181161Y-25361785D01*
X23243947Y-25596104D01*
X23332638Y-25810222D01*
X23336776Y-25820212D01*
X23458064Y-26030289D01*
X23458066Y-26030292D01*
X23458067Y-26030293D01*
X23605733Y-26222736D01*
X23605739Y-26222743D01*
X23777256Y-26394260D01*
X23777263Y-26394266D01*
X23818569Y-26425961D01*
X23969711Y-26541936D01*
X24179788Y-26663224D01*
X24403900Y-26756054D01*
X24638211Y-26818838D01*
X24795165Y-26839501D01*
X24878711Y-26850500D01*
X24878712Y-26850500D01*
X25121289Y-26850500D01*
X25169388Y-26844167D01*
X25361789Y-26818838D01*
X25596100Y-26756054D01*
X25820212Y-26663224D01*
X26030289Y-26541936D01*
X26222738Y-26394265D01*
X26394265Y-26222738D01*
X26541936Y-26030289D01*
X26663224Y-25820212D01*
X26756054Y-25596100D01*
X26818838Y-25361789D01*
X26850500Y-25121288D01*
X26850500Y-24878712D01*
X26847871Y-24858746D01*
X26837000Y-24776171D01*
X26818838Y-24638211D01*
X26756054Y-24403900D01*
X26755310Y-24402105D01*
X26712295Y-24298256D01*
X26663224Y-24179788D01*
X26541936Y-23969711D01*
X26448108Y-23847432D01*
X26394266Y-23777263D01*
X26394260Y-23777256D01*
X26222743Y-23605739D01*
X26222736Y-23605733D01*
X26030293Y-23458067D01*
X26030292Y-23458066D01*
X26030289Y-23458064D01*
X25840094Y-23348255D01*
X25820214Y-23336777D01*
X25820205Y-23336773D01*
X25596104Y-23243947D01*
X25361785Y-23181161D01*
X25121289Y-23149500D01*
X25121288Y-23149500D01*
X24878712Y-23149500D01*
X24878711Y-23149500D01*
X24638214Y-23181161D01*
X24403895Y-23243947D01*
X24179794Y-23336773D01*
X24179785Y-23336777D01*
X23969706Y-23458067D01*
X23777263Y-23605733D01*
X23777256Y-23605739D01*
X23605739Y-23777256D01*
X23605733Y-23777263D01*
X23458067Y-23969706D01*
X23458064Y-23969710D01*
X23458064Y-23969711D01*
X23447383Y-23988211D01*
X23336777Y-24179785D01*
X23336773Y-24179794D01*
X23243947Y-24403895D01*
X23181161Y-24638214D01*
X23149500Y-24878711D01*
X20500500Y-24878711D01*
X20500500Y-24860838D01*
X20500570Y-24856666D01*
X20504628Y-24736143D01*
X20505687Y-24704666D01*
X20506397Y-24694961D01*
X20506681Y-24692440D01*
X20550795Y-24300926D01*
X20552528Y-24289976D01*
X20631370Y-23904916D01*
X20634080Y-23894165D01*
X20747122Y-23517718D01*
X20750780Y-23507263D01*
X20897110Y-23142465D01*
X20901691Y-23132379D01*
X21080130Y-22782176D01*
X21085619Y-22772503D01*
X21085620Y-22772502D01*
X21294717Y-22439723D01*
X21301032Y-22430608D01*
X21539143Y-22117881D01*
X21546241Y-22109379D01*
X21811422Y-21819259D01*
X21819259Y-21811422D01*
X22109379Y-21546242D01*
X22117896Y-21539132D01*
X22430592Y-21301044D01*
X22439722Y-21294718D01*
X22772506Y-21085616D01*
X22782179Y-21080128D01*
X22817063Y-21062354D01*
X23132364Y-20901699D01*
X23142492Y-20897100D01*
X23340694Y-20817596D01*
X23507246Y-20750787D01*
X23517733Y-20747117D01*
X23894170Y-20634078D01*
X23904916Y-20631370D01*
X24289979Y-20552528D01*
X24300926Y-20550795D01*
X24694962Y-20506397D01*
X24704662Y-20505688D01*
X24856659Y-20500569D01*
X24860832Y-20500500D01*
X65139160Y-20500500D01*
X65143332Y-20500570D01*
G37*
%TD.AperFunction*%
%TD*%
M02*
