%TF.GenerationSoftware,KiCad,Pcbnew,10.0.0*%
%TF.CreationDate,2026-10-03T01:13:26-03:00*%
%TF.ProjectId,chufe-v-0-rev-a,63687566-652d-4762-9d30-2d7265762d61,rev-a*%
%TF.SameCoordinates,Original*%
%TF.FileFunction,Copper,L2,Bot*%
%TF.FilePolarity,Positive*%
%FSLAX46Y46*%
G04 Gerber Fmt 4.6, Leading zero omitted, Abs format (unit mm)*
G04 Created by KiCad (PCBNEW 10.0.0) date 2026-10-03 01:13:26*
%MOMM*%
%LPD*%
G01*
G04 APERTURE LIST*
G04 Aperture macros list*
%AMRoundRect*
0 Rectangle with rounded corners*
0 $1 Rounding radius*
0 $2 $3 $4 $5 $6 $7 $8 $9 X,Y pos of 4 corners*
0 Add a 4 corners polygon primitive as box body*
4,1,4,$2,$3,$4,$5,$6,$7,$8,$9,$2,$3,0*
0 Add four circle primitives for the rounded corners*
1,1,$1+$1,$2,$3*
1,1,$1+$1,$4,$5*
1,1,$1+$1,$6,$7*
1,1,$1+$1,$8,$9*
0 Add four rect primitives between the rounded corners*
20,1,$1+$1,$2,$3,$4,$5,0*
20,1,$1+$1,$4,$5,$6,$7,0*
20,1,$1+$1,$6,$7,$8,$9,0*
20,1,$1+$1,$8,$9,$2,$3,0*%
G04 Aperture macros list end*
%TA.AperFunction,ComponentPad*%
%ADD10R,1.800000X1.800000*%
%TD*%
%TA.AperFunction,ComponentPad*%
%ADD11C,1.800000*%
%TD*%
%TA.AperFunction,ComponentPad*%
%ADD12RoundRect,0.250000X0.600000X0.600000X-0.600000X0.600000X-0.600000X-0.600000X0.600000X-0.600000X0*%
%TD*%
%TA.AperFunction,ComponentPad*%
%ADD13C,1.700000*%
%TD*%
%TA.AperFunction,ComponentPad*%
%ADD14C,2.400000*%
%TD*%
%TA.AperFunction,ComponentPad*%
%ADD15RoundRect,0.250000X-1.330000X-1.850000X1.330000X-1.850000X1.330000X1.850000X-1.330000X1.850000X0*%
%TD*%
%TA.AperFunction,ComponentPad*%
%ADD16O,3.160000X4.200000*%
%TD*%
%TA.AperFunction,ComponentPad*%
%ADD17R,3.500000X3.500000*%
%TD*%
%TA.AperFunction,ComponentPad*%
%ADD18RoundRect,0.750000X-0.750000X-1.000000X0.750000X-1.000000X0.750000X1.000000X-0.750000X1.000000X0*%
%TD*%
%TA.AperFunction,ComponentPad*%
%ADD19RoundRect,0.875000X-0.875000X-0.875000X0.875000X-0.875000X0.875000X0.875000X-0.875000X0.875000X0*%
%TD*%
%TA.AperFunction,ViaPad*%
%ADD20C,0.600000*%
%TD*%
%TA.AperFunction,Conductor*%
%ADD21C,0.800000*%
%TD*%
%TA.AperFunction,Conductor*%
%ADD22C,0.400000*%
%TD*%
G04 APERTURE END LIST*
D10*
%TO.P,D2,1,K_1*%
%TO.N,Net-(D2-K)*%
X36000000Y-34940000D03*
D11*
%TO.P,D2,2,A_2*%
%TO.N,Net-(D1-K)*%
X36000000Y-32400000D03*
%TD*%
D12*
%TO.P,J1,1,Pin_1_1*%
%TO.N,-12V*%
X64540000Y-63000000D03*
D13*
%TO.P,J1,2,Pin_2_2*%
X62000000Y-63000000D03*
%TO.P,J1,3,Pin_3_3*%
%TO.N,GND*%
X64540000Y-60460000D03*
%TO.P,J1,4,Pin_4_4*%
X62000000Y-60460000D03*
%TO.P,J1,5,Pin_5_5*%
X64540000Y-57920000D03*
%TO.P,J1,6,Pin_6_6*%
X62000000Y-57920000D03*
%TO.P,J1,7,Pin_7_7*%
X64540000Y-55380000D03*
%TO.P,J1,8,Pin_8_8*%
X62000000Y-55380000D03*
%TO.P,J1,9,Pin_9_9*%
%TO.N,+12V*%
X64540000Y-52840000D03*
%TO.P,J1,10,Pin_10_10*%
X62000000Y-52840000D03*
%TO.P,J1,11,Pin_11_11*%
%TO.N,+5V*%
X64540000Y-50300000D03*
%TO.P,J1,12,Pin_12_12*%
X62000000Y-50300000D03*
%TO.P,J1,13,Pin_13_13*%
%TO.N,/CV*%
X64540000Y-47760000D03*
%TO.P,J1,14,Pin_14_14*%
X62000000Y-47760000D03*
%TO.P,J1,15,Pin_15_15*%
%TO.N,/GATE*%
X64540000Y-45220000D03*
%TO.P,J1,16,Pin_16_16*%
X62000000Y-45220000D03*
%TD*%
D14*
%TO.P,U1,1,-VIN_1*%
%TO.N,GND*%
X24680000Y-52460000D03*
%TO.P,U1,2,+VIN_2*%
%TO.N,Net-(D1-K)*%
X24680000Y-57540000D03*
%TO.P,U1,3,+VO1_3*%
%TO.N,+12V*%
X45000000Y-65160000D03*
%TO.P,U1,4,COM_4*%
%TO.N,GND*%
X45000000Y-55000000D03*
%TO.P,U1,5,-VO2_5*%
%TO.N,-12V*%
X45000000Y-44840000D03*
%TO.P,U1,6,CTRL_6*%
%TO.N,unconnected-(U1-CTRL-Pad6)*%
X24680000Y-44840000D03*
%TD*%
D10*
%TO.P,D5,1,K_1*%
%TO.N,Net-(D5-K)*%
X58250000Y-28240000D03*
D11*
%TO.P,D5,2,A_2*%
%TO.N,+5V*%
X58250000Y-25700000D03*
%TD*%
D10*
%TO.P,D4,1,K_1*%
%TO.N,Net-(D4-K)*%
X51250000Y-28240000D03*
D11*
%TO.P,D4,2,A_2*%
%TO.N,+12V*%
X51250000Y-25700000D03*
%TD*%
D10*
%TO.P,D3,1,K_1*%
%TO.N,-12V*%
X44250000Y-28240000D03*
D11*
%TO.P,D3,2,A_2*%
%TO.N,Net-(D3-A)*%
X44250000Y-25700000D03*
%TD*%
D15*
%TO.P,J2,1,Pin_1_1*%
%TO.N,-12V*%
X45080000Y-78225000D03*
D16*
%TO.P,J2,2,Pin_2_2*%
%TO.N,GND*%
X49040000Y-78225000D03*
%TO.P,J2,3,Pin_3_3*%
%TO.N,+5V*%
X53000000Y-78225000D03*
%TO.P,J2,4,Pin_4_4*%
%TO.N,+12V*%
X56960000Y-78225000D03*
%TD*%
D17*
%TO.P,J3,1*%
%TO.N,Net-(Q1-D)*%
X29200000Y-34642500D03*
D18*
%TO.P,J3,2*%
%TO.N,GND*%
X23200000Y-34642500D03*
D19*
%TO.P,J3,3*%
X26200000Y-39342500D03*
%TD*%
D20*
%TO.N,Net-(D1-A)*%
X39200000Y-27000000D03*
X33800000Y-29150000D03*
%TO.N,+12V*%
X46000000Y-51000000D03*
X54350000Y-66150000D03*
%TD*%
%TO.N,Net-(D1-A)*%
D21*
X38900000Y-27000000D02*
X39200000Y-27000000D01*
X33800000Y-29150000D02*
X37200000Y-25750000D01*
X37200000Y-25750000D02*
X37650000Y-25750000D01*
X37650000Y-25750000D02*
X38900000Y-27000000D01*
%TO.N,Net-(D1-K)*%
D22*
X26710000Y-57540000D02*
X33050000Y-51200000D01*
X24680000Y-57540000D02*
X26710000Y-57540000D01*
X34300000Y-32400000D02*
X36000000Y-32400000D01*
X33050000Y-33650000D02*
X34300000Y-32400000D01*
X33050000Y-51200000D02*
X33050000Y-33650000D01*
%TO.N,+5V*%
X53000000Y-56850000D02*
X59550000Y-50300000D01*
X59550000Y-50300000D02*
X62000000Y-50300000D01*
X53000000Y-78225000D02*
X53000000Y-56850000D01*
%TO.N,-12V*%
D21*
X45080000Y-72630000D02*
X41700000Y-69250000D01*
X41700000Y-50100000D02*
X45000000Y-46800000D01*
X45080000Y-78225000D02*
X45080000Y-72630000D01*
X45000000Y-46800000D02*
X45000000Y-44840000D01*
X41700000Y-69250000D02*
X41700000Y-50100000D01*
%TO.N,+12V*%
D22*
X51250000Y-25700000D02*
X47000000Y-29950000D01*
X47000000Y-50000000D02*
X46000000Y-51000000D01*
X47000000Y-29950000D02*
X47000000Y-50000000D01*
D21*
X56960000Y-78225000D02*
X56960000Y-68760000D01*
X56960000Y-68760000D02*
X54350000Y-66150000D01*
%TD*%
%TA.AperFunction,Conductor*%
%TO.N,GND*%
G36*
X64074075Y-60652993D02*
G01*
X64139901Y-60767007D01*
X64232993Y-60860099D01*
X64347007Y-60925925D01*
X64410590Y-60942962D01*
X63774110Y-61579441D01*
X63763020Y-61632235D01*
X63713969Y-61681992D01*
X63692773Y-61691291D01*
X63620669Y-61715185D01*
X63620666Y-61715186D01*
X63620663Y-61715187D01*
X63471342Y-61807289D01*
X63347289Y-61931342D01*
X63255187Y-62080663D01*
X63255183Y-62080673D01*
X63251685Y-62091229D01*
X63211910Y-62148672D01*
X63147393Y-62175493D01*
X63078618Y-62163174D01*
X63033663Y-62125106D01*
X63030105Y-62120209D01*
X62879786Y-61969890D01*
X62707817Y-61844949D01*
X62698504Y-61840204D01*
X62647707Y-61792230D01*
X62630912Y-61724409D01*
X62653449Y-61658274D01*
X62698507Y-61619232D01*
X62707555Y-61614622D01*
X62761716Y-61575270D01*
X62761717Y-61575270D01*
X62129408Y-60942962D01*
X62192993Y-60925925D01*
X62307007Y-60860099D01*
X62400099Y-60767007D01*
X62465925Y-60652993D01*
X62482962Y-60589408D01*
X63115270Y-61221717D01*
X63115270Y-61221716D01*
X63154622Y-61167554D01*
X63159514Y-61157954D01*
X63207488Y-61107157D01*
X63275308Y-61090361D01*
X63341444Y-61112897D01*
X63380486Y-61157954D01*
X63385375Y-61167550D01*
X63424728Y-61221716D01*
X64057037Y-60589408D01*
X64074075Y-60652993D01*
G37*
%TD.AperFunction*%
%TA.AperFunction,Conductor*%
G36*
X64074075Y-58112993D02*
G01*
X64139901Y-58227007D01*
X64232993Y-58320099D01*
X64347007Y-58385925D01*
X64410590Y-58402962D01*
X63778282Y-59035269D01*
X63778282Y-59035270D01*
X63832452Y-59074626D01*
X63842048Y-59079516D01*
X63892844Y-59127491D01*
X63909638Y-59195312D01*
X63887100Y-59261447D01*
X63842051Y-59300483D01*
X63832440Y-59305380D01*
X63778282Y-59344727D01*
X63778282Y-59344728D01*
X64410591Y-59977037D01*
X64347007Y-59994075D01*
X64232993Y-60059901D01*
X64139901Y-60152993D01*
X64074075Y-60267007D01*
X64057037Y-60330591D01*
X63424728Y-59698282D01*
X63424727Y-59698282D01*
X63385380Y-59752440D01*
X63380483Y-59762051D01*
X63332506Y-59812845D01*
X63264684Y-59829638D01*
X63198550Y-59807098D01*
X63159516Y-59762048D01*
X63154626Y-59752452D01*
X63115270Y-59698282D01*
X63115269Y-59698282D01*
X62482962Y-60330590D01*
X62465925Y-60267007D01*
X62400099Y-60152993D01*
X62307007Y-60059901D01*
X62192993Y-59994075D01*
X62129409Y-59977037D01*
X62761716Y-59344728D01*
X62707550Y-59305375D01*
X62697954Y-59300486D01*
X62647157Y-59252512D01*
X62630361Y-59184692D01*
X62651288Y-59120895D01*
X62730027Y-59003581D01*
X62129408Y-58402962D01*
X62192993Y-58385925D01*
X62307007Y-58320099D01*
X62400099Y-58227007D01*
X62465925Y-58112993D01*
X62482962Y-58049408D01*
X63115270Y-58681717D01*
X63115270Y-58681716D01*
X63154622Y-58627554D01*
X63159514Y-58617954D01*
X63207488Y-58567157D01*
X63275308Y-58550361D01*
X63341444Y-58572897D01*
X63380486Y-58617954D01*
X63385375Y-58627550D01*
X63424728Y-58681716D01*
X64057037Y-58049408D01*
X64074075Y-58112993D01*
G37*
%TD.AperFunction*%
%TA.AperFunction,Conductor*%
G36*
X64074075Y-55572993D02*
G01*
X64139901Y-55687007D01*
X64232993Y-55780099D01*
X64347007Y-55845925D01*
X64410590Y-55862962D01*
X63778282Y-56495269D01*
X63778282Y-56495270D01*
X63832452Y-56534626D01*
X63842048Y-56539516D01*
X63892844Y-56587491D01*
X63909638Y-56655312D01*
X63887100Y-56721447D01*
X63842051Y-56760483D01*
X63832440Y-56765380D01*
X63778282Y-56804727D01*
X63778282Y-56804728D01*
X64410591Y-57437037D01*
X64347007Y-57454075D01*
X64232993Y-57519901D01*
X64139901Y-57612993D01*
X64074075Y-57727007D01*
X64057037Y-57790591D01*
X63424728Y-57158282D01*
X63424727Y-57158282D01*
X63385380Y-57212440D01*
X63380483Y-57222051D01*
X63332506Y-57272845D01*
X63264684Y-57289638D01*
X63198550Y-57267098D01*
X63159516Y-57222048D01*
X63154626Y-57212452D01*
X63115270Y-57158282D01*
X63115269Y-57158282D01*
X62482962Y-57790590D01*
X62465925Y-57727007D01*
X62400099Y-57612993D01*
X62307007Y-57519901D01*
X62192993Y-57454075D01*
X62129409Y-57437037D01*
X62761716Y-56804728D01*
X62707550Y-56765375D01*
X62697954Y-56760486D01*
X62647157Y-56712512D01*
X62630361Y-56644692D01*
X62651288Y-56580895D01*
X62730027Y-56463581D01*
X62129408Y-55862962D01*
X62192993Y-55845925D01*
X62307007Y-55780099D01*
X62400099Y-55687007D01*
X62465925Y-55572993D01*
X62482962Y-55509408D01*
X63115270Y-56141717D01*
X63115270Y-56141716D01*
X63154622Y-56087554D01*
X63159514Y-56077954D01*
X63207488Y-56027157D01*
X63275308Y-56010361D01*
X63341444Y-56032897D01*
X63380486Y-56077954D01*
X63385375Y-56087550D01*
X63424728Y-56141716D01*
X64057037Y-55509408D01*
X64074075Y-55572993D01*
G37*
%TD.AperFunction*%
%TA.AperFunction,Conductor*%
G36*
X63341444Y-53493999D02*
G01*
X63380486Y-53539056D01*
X63384951Y-53547820D01*
X63509890Y-53719786D01*
X63660213Y-53870109D01*
X63832179Y-53995048D01*
X63832181Y-53995049D01*
X63832184Y-53995051D01*
X63841493Y-53999794D01*
X63892290Y-54047766D01*
X63909087Y-54115587D01*
X63886552Y-54181722D01*
X63841505Y-54220760D01*
X63832446Y-54225376D01*
X63832440Y-54225380D01*
X63778282Y-54264727D01*
X63778282Y-54264728D01*
X64410591Y-54897037D01*
X64347007Y-54914075D01*
X64232993Y-54979901D01*
X64139901Y-55072993D01*
X64074075Y-55187007D01*
X64057037Y-55250591D01*
X63424728Y-54618282D01*
X63424727Y-54618282D01*
X63385380Y-54672440D01*
X63380483Y-54682051D01*
X63332506Y-54732845D01*
X63264684Y-54749638D01*
X63198550Y-54727098D01*
X63159516Y-54682048D01*
X63154626Y-54672452D01*
X63115270Y-54618282D01*
X63115269Y-54618282D01*
X62482962Y-55250590D01*
X62465925Y-55187007D01*
X62400099Y-55072993D01*
X62307007Y-54979901D01*
X62192993Y-54914075D01*
X62129409Y-54897037D01*
X62761716Y-54264728D01*
X62707547Y-54225373D01*
X62707547Y-54225372D01*
X62698500Y-54220763D01*
X62647706Y-54172788D01*
X62630912Y-54104966D01*
X62653451Y-54038832D01*
X62698508Y-53999793D01*
X62707816Y-53995051D01*
X62787007Y-53937515D01*
X62879786Y-53870109D01*
X62879788Y-53870106D01*
X62879792Y-53870104D01*
X63030104Y-53719792D01*
X63030106Y-53719788D01*
X63030109Y-53719786D01*
X63155048Y-53547820D01*
X63155047Y-53547820D01*
X63155051Y-53547816D01*
X63159514Y-53539054D01*
X63207488Y-53488259D01*
X63275308Y-53471463D01*
X63341444Y-53493999D01*
G37*
%TD.AperFunction*%
%TA.AperFunction,Conductor*%
G36*
X65143332Y-20500570D02*
G01*
X65295330Y-20505687D01*
X65305033Y-20506396D01*
X65699069Y-20550794D01*
X65710026Y-20552529D01*
X66095077Y-20631369D01*
X66105838Y-20634081D01*
X66482273Y-20747120D01*
X66492741Y-20750783D01*
X66857524Y-20897107D01*
X66867628Y-20901696D01*
X67119374Y-21029967D01*
X67217818Y-21080128D01*
X67227495Y-21085619D01*
X67560266Y-21294712D01*
X67569400Y-21301039D01*
X67882106Y-21539134D01*
X67890631Y-21546252D01*
X68180723Y-21811407D01*
X68188587Y-21819271D01*
X68229830Y-21864393D01*
X68453746Y-22109368D01*
X68460876Y-22117909D01*
X68698948Y-22430584D01*
X68705285Y-22439730D01*
X68914379Y-22772502D01*
X68919870Y-22782179D01*
X69098297Y-23132361D01*
X69102898Y-23142492D01*
X69249209Y-23507242D01*
X69252884Y-23517743D01*
X69365913Y-23894145D01*
X69368632Y-23904935D01*
X69447466Y-24289956D01*
X69449206Y-24300946D01*
X69493600Y-24694959D01*
X69494310Y-24704668D01*
X69499429Y-24856658D01*
X69499499Y-24860832D01*
X69499499Y-80139160D01*
X69499429Y-80143333D01*
X69494311Y-80295326D01*
X69493601Y-80305037D01*
X69449206Y-80699052D01*
X69447466Y-80710041D01*
X69368632Y-81095063D01*
X69365913Y-81105853D01*
X69252884Y-81482255D01*
X69249209Y-81492756D01*
X69102898Y-81857506D01*
X69098297Y-81867637D01*
X68919870Y-82217819D01*
X68914379Y-82227496D01*
X68705285Y-82560268D01*
X68698948Y-82569414D01*
X68460876Y-82882089D01*
X68453746Y-82890630D01*
X68188591Y-83180723D01*
X68180723Y-83188591D01*
X67890631Y-83453746D01*
X67882090Y-83460877D01*
X67569412Y-83698950D01*
X67560266Y-83705286D01*
X67227495Y-83914379D01*
X67217818Y-83919870D01*
X66867641Y-84098296D01*
X66857510Y-84102897D01*
X66492758Y-84249209D01*
X66482256Y-84252884D01*
X66105852Y-84365913D01*
X66095063Y-84368632D01*
X65710042Y-84447466D01*
X65699052Y-84449206D01*
X65305039Y-84493600D01*
X65295330Y-84494310D01*
X65151641Y-84499149D01*
X65143339Y-84499429D01*
X65139168Y-84499499D01*
X24860839Y-84499499D01*
X24856667Y-84499429D01*
X24850963Y-84499236D01*
X24704672Y-84494311D01*
X24694961Y-84493601D01*
X24300946Y-84449206D01*
X24289957Y-84447466D01*
X23904935Y-84368632D01*
X23894149Y-84365914D01*
X23780452Y-84331772D01*
X23517743Y-84252884D01*
X23507242Y-84249209D01*
X23142492Y-84102898D01*
X23132361Y-84098297D01*
X22782179Y-83919870D01*
X22772502Y-83914379D01*
X22439730Y-83705285D01*
X22430584Y-83698948D01*
X22117909Y-83460876D01*
X22109368Y-83453746D01*
X21819275Y-83188591D01*
X21811407Y-83180723D01*
X21803769Y-83172367D01*
X21546251Y-82890630D01*
X21539134Y-82882106D01*
X21301039Y-82569400D01*
X21294712Y-82560266D01*
X21085619Y-82227495D01*
X21080128Y-82217818D01*
X21029967Y-82119374D01*
X20901696Y-81867628D01*
X20897107Y-81857524D01*
X20750783Y-81492741D01*
X20747120Y-81482273D01*
X20634081Y-81105838D01*
X20631369Y-81095077D01*
X20552528Y-80710022D01*
X20550794Y-80699069D01*
X20506398Y-80305037D01*
X20505688Y-80295329D01*
X20500570Y-80143340D01*
X20500500Y-80139167D01*
X20500500Y-79878711D01*
X23149500Y-79878711D01*
X23149500Y-80121288D01*
X23174680Y-80312559D01*
X23181162Y-80361789D01*
X23189883Y-80394336D01*
X23243947Y-80596104D01*
X23311758Y-80759814D01*
X23336776Y-80820212D01*
X23458064Y-81030289D01*
X23458066Y-81030292D01*
X23458067Y-81030293D01*
X23605733Y-81222736D01*
X23605739Y-81222743D01*
X23777256Y-81394260D01*
X23777262Y-81394265D01*
X23969711Y-81541936D01*
X24179788Y-81663224D01*
X24403900Y-81756054D01*
X24638211Y-81818838D01*
X24818586Y-81842584D01*
X24878711Y-81850500D01*
X24878712Y-81850500D01*
X25121289Y-81850500D01*
X25169388Y-81844167D01*
X25361789Y-81818838D01*
X25596100Y-81756054D01*
X25820212Y-81663224D01*
X26030289Y-81541936D01*
X26222738Y-81394265D01*
X26394265Y-81222738D01*
X26541936Y-81030289D01*
X26663224Y-80820212D01*
X26756054Y-80596100D01*
X26818838Y-80361789D01*
X26850500Y-80121288D01*
X26850500Y-79878712D01*
X26818838Y-79638211D01*
X26756054Y-79403900D01*
X26663224Y-79179788D01*
X26541936Y-78969711D01*
X26394265Y-78777262D01*
X26394260Y-78777256D01*
X26222743Y-78605739D01*
X26222736Y-78605733D01*
X26030293Y-78458067D01*
X26030292Y-78458066D01*
X26030289Y-78458064D01*
X25820212Y-78336776D01*
X25820205Y-78336773D01*
X25596104Y-78243947D01*
X25361785Y-78181161D01*
X25121289Y-78149500D01*
X25121288Y-78149500D01*
X24878712Y-78149500D01*
X24878711Y-78149500D01*
X24638214Y-78181161D01*
X24403895Y-78243947D01*
X24179794Y-78336773D01*
X24179785Y-78336777D01*
X23969706Y-78458067D01*
X23777263Y-78605733D01*
X23777256Y-78605739D01*
X23605739Y-78777256D01*
X23605733Y-78777263D01*
X23458067Y-78969706D01*
X23336777Y-79179785D01*
X23336773Y-79179794D01*
X23243947Y-79403895D01*
X23181161Y-79638214D01*
X23149500Y-79878711D01*
X20500500Y-79878711D01*
X20500500Y-57428549D01*
X22979500Y-57428549D01*
X22979500Y-57651450D01*
X22979501Y-57651466D01*
X23008594Y-57872452D01*
X23008595Y-57872457D01*
X23008596Y-57872463D01*
X23066290Y-58087780D01*
X23066293Y-58087790D01*
X23151593Y-58293722D01*
X23151595Y-58293726D01*
X23263052Y-58486774D01*
X23263057Y-58486780D01*
X23263058Y-58486782D01*
X23398751Y-58663622D01*
X23398757Y-58663629D01*
X23556370Y-58821242D01*
X23556376Y-58821247D01*
X23733226Y-58956948D01*
X23926274Y-59068405D01*
X24047350Y-59118556D01*
X24062252Y-59124729D01*
X24132219Y-59153710D01*
X24347537Y-59211404D01*
X24568543Y-59240500D01*
X24568550Y-59240500D01*
X24791450Y-59240500D01*
X24791457Y-59240500D01*
X25012463Y-59211404D01*
X25227781Y-59153710D01*
X25433726Y-59068405D01*
X25626774Y-58956948D01*
X25803624Y-58821247D01*
X25961247Y-58663624D01*
X26096948Y-58486774D01*
X26203340Y-58302499D01*
X26253908Y-58254284D01*
X26310727Y-58240500D01*
X26778996Y-58240500D01*
X26870040Y-58222389D01*
X26914328Y-58213580D01*
X26978069Y-58187177D01*
X27041807Y-58160777D01*
X27041808Y-58160776D01*
X27041811Y-58160775D01*
X27156543Y-58084114D01*
X33594114Y-51646543D01*
X33670775Y-51531811D01*
X33679689Y-51510292D01*
X33723578Y-51404332D01*
X33723580Y-51404328D01*
X33750500Y-51268994D01*
X33750500Y-51131006D01*
X33750500Y-50011310D01*
X40799500Y-50011310D01*
X40799500Y-69338696D01*
X40834103Y-69512658D01*
X40834105Y-69512666D01*
X40865526Y-69588524D01*
X40865529Y-69588529D01*
X40868046Y-69594606D01*
X40901987Y-69676547D01*
X40961063Y-69764959D01*
X40964169Y-69769607D01*
X40964172Y-69769613D01*
X41000534Y-69824034D01*
X44143181Y-72966681D01*
X44176666Y-73028004D01*
X44179500Y-73054362D01*
X44179500Y-75500500D01*
X44159815Y-75567539D01*
X44107011Y-75613294D01*
X44055500Y-75624500D01*
X43699998Y-75624500D01*
X43699980Y-75624501D01*
X43597203Y-75635000D01*
X43597200Y-75635001D01*
X43430668Y-75690185D01*
X43430663Y-75690187D01*
X43281342Y-75782289D01*
X43157289Y-75906342D01*
X43065187Y-76055663D01*
X43065186Y-76055666D01*
X43010001Y-76222203D01*
X43010001Y-76222204D01*
X43010000Y-76222204D01*
X42999500Y-76324983D01*
X42999500Y-80125001D01*
X42999501Y-80125018D01*
X43010000Y-80227796D01*
X43010001Y-80227799D01*
X43054400Y-80361785D01*
X43065186Y-80394334D01*
X43157288Y-80543656D01*
X43281344Y-80667712D01*
X43430666Y-80759814D01*
X43597203Y-80814999D01*
X43699991Y-80825500D01*
X46460008Y-80825499D01*
X46562797Y-80814999D01*
X46729334Y-80759814D01*
X46878656Y-80667712D01*
X47002712Y-80543656D01*
X47094814Y-80394334D01*
X47149999Y-80227797D01*
X47160500Y-80125009D01*
X47160499Y-80077651D01*
X47180182Y-80010616D01*
X47232985Y-79964860D01*
X47302144Y-79954915D01*
X47365700Y-79983938D01*
X47382874Y-80002166D01*
X47472818Y-80119382D01*
X47472826Y-80119391D01*
X47665609Y-80312174D01*
X47665617Y-80312181D01*
X47881933Y-80478168D01*
X48118062Y-80614496D01*
X48118072Y-80614500D01*
X48369970Y-80718840D01*
X48633344Y-80789411D01*
X48790000Y-80810034D01*
X48790000Y-79092904D01*
X48951358Y-79125000D01*
X49128642Y-79125000D01*
X49290000Y-79092904D01*
X49290000Y-80810033D01*
X49446655Y-80789411D01*
X49710029Y-80718840D01*
X49961927Y-80614500D01*
X49961937Y-80614496D01*
X50198066Y-80478168D01*
X50414382Y-80312181D01*
X50414391Y-80312174D01*
X50607174Y-80119391D01*
X50607181Y-80119382D01*
X50773168Y-79903066D01*
X50911528Y-79663418D01*
X50912883Y-79664200D01*
X50955771Y-79617546D01*
X51023360Y-79599837D01*
X51089792Y-79621481D01*
X51126907Y-79664283D01*
X51128023Y-79663640D01*
X51266415Y-79903343D01*
X51432439Y-80119710D01*
X51432445Y-80119717D01*
X51625282Y-80312554D01*
X51625289Y-80312560D01*
X51841656Y-80478584D01*
X52077840Y-80614945D01*
X52077855Y-80614952D01*
X52205225Y-80667710D01*
X52329810Y-80719315D01*
X52593244Y-80789902D01*
X52863637Y-80825500D01*
X52863644Y-80825500D01*
X53136356Y-80825500D01*
X53136363Y-80825500D01*
X53406756Y-80789902D01*
X53670190Y-80719315D01*
X53922156Y-80614947D01*
X54158344Y-80478584D01*
X54374712Y-80312559D01*
X54567559Y-80119712D01*
X54733584Y-79903344D01*
X54869947Y-79667156D01*
X54869946Y-79667156D01*
X54871977Y-79663640D01*
X54873420Y-79664473D01*
X54916083Y-79618093D01*
X54983676Y-79600405D01*
X55050103Y-79622068D01*
X55086758Y-79664370D01*
X55088023Y-79663640D01*
X55226415Y-79903343D01*
X55392439Y-80119710D01*
X55392445Y-80119717D01*
X55585282Y-80312554D01*
X55585289Y-80312560D01*
X55801656Y-80478584D01*
X56037840Y-80614945D01*
X56037855Y-80614952D01*
X56165225Y-80667710D01*
X56289810Y-80719315D01*
X56553244Y-80789902D01*
X56823637Y-80825500D01*
X56823644Y-80825500D01*
X57096356Y-80825500D01*
X57096363Y-80825500D01*
X57366756Y-80789902D01*
X57630190Y-80719315D01*
X57882156Y-80614947D01*
X58118344Y-80478584D01*
X58334712Y-80312559D01*
X58527559Y-80119712D01*
X58693584Y-79903344D01*
X58707805Y-79878711D01*
X63149500Y-79878711D01*
X63149500Y-80121288D01*
X63174680Y-80312559D01*
X63181162Y-80361789D01*
X63189883Y-80394336D01*
X63243947Y-80596104D01*
X63311758Y-80759814D01*
X63336776Y-80820212D01*
X63458064Y-81030289D01*
X63458066Y-81030292D01*
X63458067Y-81030293D01*
X63605733Y-81222736D01*
X63605739Y-81222743D01*
X63777256Y-81394260D01*
X63777262Y-81394265D01*
X63969711Y-81541936D01*
X64179788Y-81663224D01*
X64403900Y-81756054D01*
X64638211Y-81818838D01*
X64818586Y-81842584D01*
X64878711Y-81850500D01*
X64878712Y-81850500D01*
X65121289Y-81850500D01*
X65169388Y-81844167D01*
X65361789Y-81818838D01*
X65596100Y-81756054D01*
X65820212Y-81663224D01*
X66030289Y-81541936D01*
X66222738Y-81394265D01*
X66394265Y-81222738D01*
X66541936Y-81030289D01*
X66663224Y-80820212D01*
X66756054Y-80596100D01*
X66818838Y-80361789D01*
X66850500Y-80121288D01*
X66850500Y-79878712D01*
X66818838Y-79638211D01*
X66756054Y-79403900D01*
X66663224Y-79179788D01*
X66541936Y-78969711D01*
X66394265Y-78777262D01*
X66394260Y-78777256D01*
X66222743Y-78605739D01*
X66222736Y-78605733D01*
X66030293Y-78458067D01*
X66030292Y-78458066D01*
X66030289Y-78458064D01*
X65820212Y-78336776D01*
X65820205Y-78336773D01*
X65596104Y-78243947D01*
X65361785Y-78181161D01*
X65121289Y-78149500D01*
X65121288Y-78149500D01*
X64878712Y-78149500D01*
X64878711Y-78149500D01*
X64638214Y-78181161D01*
X64403895Y-78243947D01*
X64179794Y-78336773D01*
X64179785Y-78336777D01*
X63969706Y-78458067D01*
X63777263Y-78605733D01*
X63777256Y-78605739D01*
X63605739Y-78777256D01*
X63605733Y-78777263D01*
X63458067Y-78969706D01*
X63336777Y-79179785D01*
X63336773Y-79179794D01*
X63243947Y-79403895D01*
X63181161Y-79638214D01*
X63149500Y-79878711D01*
X58707805Y-79878711D01*
X58719139Y-79859080D01*
X58745945Y-79812653D01*
X58829945Y-79667159D01*
X58829947Y-79667156D01*
X58934315Y-79415190D01*
X59004902Y-79151756D01*
X59040500Y-78881363D01*
X59040500Y-77568637D01*
X59004902Y-77298244D01*
X58934315Y-77034810D01*
X58883923Y-76913154D01*
X58829952Y-76782855D01*
X58829945Y-76782840D01*
X58693584Y-76546656D01*
X58527560Y-76330289D01*
X58527554Y-76330282D01*
X58334717Y-76137445D01*
X58334710Y-76137439D01*
X58118343Y-75971415D01*
X57922500Y-75858345D01*
X57874284Y-75807778D01*
X57860500Y-75750958D01*
X57860500Y-68671306D01*
X57860499Y-68671304D01*
X57825896Y-68497341D01*
X57825893Y-68497332D01*
X57758016Y-68333459D01*
X57758009Y-68333446D01*
X57659465Y-68185966D01*
X57659464Y-68185965D01*
X57534035Y-68060536D01*
X54924041Y-65450540D01*
X54924034Y-65450534D01*
X54776548Y-65351988D01*
X54612666Y-65284105D01*
X54612658Y-65284103D01*
X54438696Y-65249500D01*
X54438692Y-65249500D01*
X54261308Y-65249500D01*
X54261303Y-65249500D01*
X54087341Y-65284103D01*
X54087333Y-65284105D01*
X53923452Y-65351988D01*
X53893389Y-65372075D01*
X53826711Y-65392952D01*
X53759332Y-65374466D01*
X53712642Y-65322487D01*
X53700500Y-65268972D01*
X53700500Y-57191519D01*
X53720185Y-57124480D01*
X53736819Y-57103838D01*
X59803838Y-51036819D01*
X59865161Y-51003334D01*
X59891519Y-51000500D01*
X60776453Y-51000500D01*
X60843492Y-51020185D01*
X60876769Y-51051614D01*
X60896552Y-51078842D01*
X60969892Y-51179788D01*
X61120213Y-51330109D01*
X61292182Y-51455050D01*
X61300946Y-51459516D01*
X61351742Y-51507491D01*
X61368536Y-51575312D01*
X61345998Y-51641447D01*
X61300946Y-51680484D01*
X61292182Y-51684949D01*
X61120213Y-51809890D01*
X60969890Y-51960213D01*
X60844951Y-52132179D01*
X60748444Y-52321585D01*
X60682753Y-52523760D01*
X60675204Y-52571424D01*
X60649500Y-52733713D01*
X60649500Y-52946287D01*
X60682754Y-53156243D01*
X60716466Y-53259998D01*
X60748444Y-53358414D01*
X60844951Y-53547820D01*
X60969890Y-53719786D01*
X61120213Y-53870109D01*
X61292179Y-53995048D01*
X61292181Y-53995049D01*
X61292184Y-53995051D01*
X61301493Y-53999794D01*
X61352290Y-54047766D01*
X61369087Y-54115587D01*
X61346552Y-54181722D01*
X61301505Y-54220760D01*
X61292446Y-54225376D01*
X61292440Y-54225380D01*
X61238282Y-54264727D01*
X61238282Y-54264728D01*
X61870591Y-54897037D01*
X61807007Y-54914075D01*
X61692993Y-54979901D01*
X61599901Y-55072993D01*
X61534075Y-55187007D01*
X61517037Y-55250591D01*
X60884728Y-54618282D01*
X60884727Y-54618282D01*
X60845380Y-54672439D01*
X60748904Y-54861782D01*
X60683242Y-55063869D01*
X60683242Y-55063872D01*
X60650000Y-55273753D01*
X60650000Y-55486246D01*
X60683242Y-55696127D01*
X60683242Y-55696130D01*
X60748904Y-55898217D01*
X60845375Y-56087550D01*
X60884728Y-56141716D01*
X61517037Y-55509408D01*
X61534075Y-55572993D01*
X61599901Y-55687007D01*
X61692993Y-55780099D01*
X61807007Y-55845925D01*
X61870591Y-55862962D01*
X61269971Y-56463581D01*
X61348711Y-56580895D01*
X61349920Y-56584729D01*
X61352844Y-56587491D01*
X61360343Y-56617778D01*
X61369727Y-56647529D01*
X61368671Y-56651408D01*
X61369638Y-56655312D01*
X61359573Y-56684844D01*
X61351383Y-56714947D01*
X61348397Y-56717640D01*
X61347100Y-56721447D01*
X61302051Y-56760483D01*
X61292440Y-56765380D01*
X61238282Y-56804727D01*
X61238282Y-56804728D01*
X61870591Y-57437037D01*
X61807007Y-57454075D01*
X61692993Y-57519901D01*
X61599901Y-57612993D01*
X61534075Y-57727007D01*
X61517037Y-57790591D01*
X60884728Y-57158282D01*
X60884727Y-57158282D01*
X60845380Y-57212439D01*
X60748904Y-57401782D01*
X60683242Y-57603869D01*
X60683242Y-57603872D01*
X60650000Y-57813753D01*
X60650000Y-58026246D01*
X60683242Y-58236127D01*
X60683242Y-58236130D01*
X60748904Y-58438217D01*
X60845375Y-58627550D01*
X60884728Y-58681716D01*
X61517037Y-58049408D01*
X61534075Y-58112993D01*
X61599901Y-58227007D01*
X61692993Y-58320099D01*
X61807007Y-58385925D01*
X61870591Y-58402962D01*
X61269971Y-59003581D01*
X61348711Y-59120895D01*
X61349920Y-59124729D01*
X61352844Y-59127491D01*
X61360343Y-59157778D01*
X61369727Y-59187529D01*
X61368671Y-59191408D01*
X61369638Y-59195312D01*
X61359573Y-59224844D01*
X61351383Y-59254947D01*
X61348397Y-59257640D01*
X61347100Y-59261447D01*
X61302051Y-59300483D01*
X61292440Y-59305380D01*
X61238282Y-59344727D01*
X61238282Y-59344728D01*
X61870591Y-59977037D01*
X61807007Y-59994075D01*
X61692993Y-60059901D01*
X61599901Y-60152993D01*
X61534075Y-60267007D01*
X61517037Y-60330591D01*
X60884728Y-59698282D01*
X60884727Y-59698282D01*
X60845380Y-59752439D01*
X60748904Y-59941782D01*
X60683242Y-60143869D01*
X60683242Y-60143872D01*
X60650000Y-60353753D01*
X60650000Y-60566246D01*
X60683242Y-60776127D01*
X60683242Y-60776130D01*
X60748904Y-60978217D01*
X60845375Y-61167550D01*
X60884728Y-61221716D01*
X61517037Y-60589408D01*
X61534075Y-60652993D01*
X61599901Y-60767007D01*
X61692993Y-60860099D01*
X61807007Y-60925925D01*
X61870590Y-60942962D01*
X61238282Y-61575269D01*
X61238282Y-61575270D01*
X61292452Y-61614626D01*
X61292451Y-61614626D01*
X61301495Y-61619234D01*
X61352292Y-61667208D01*
X61369087Y-61735029D01*
X61346550Y-61801164D01*
X61301499Y-61840202D01*
X61292182Y-61844949D01*
X61120213Y-61969890D01*
X60969890Y-62120213D01*
X60844951Y-62292179D01*
X60748444Y-62481585D01*
X60682753Y-62683760D01*
X60649500Y-62893713D01*
X60649500Y-63106287D01*
X60682754Y-63316243D01*
X60738755Y-63488597D01*
X60748444Y-63518414D01*
X60844951Y-63707820D01*
X60969890Y-63879786D01*
X61120213Y-64030109D01*
X61292179Y-64155048D01*
X61292181Y-64155049D01*
X61292184Y-64155051D01*
X61481588Y-64251557D01*
X61683757Y-64317246D01*
X61893713Y-64350500D01*
X61893714Y-64350500D01*
X62106286Y-64350500D01*
X62106287Y-64350500D01*
X62316243Y-64317246D01*
X62518412Y-64251557D01*
X62707816Y-64155051D01*
X62729789Y-64139086D01*
X62879786Y-64030109D01*
X62879788Y-64030106D01*
X62879792Y-64030104D01*
X63030104Y-63879792D01*
X63033660Y-63874896D01*
X63088987Y-63832230D01*
X63158600Y-63826248D01*
X63220397Y-63858851D01*
X63251686Y-63908772D01*
X63255186Y-63919334D01*
X63347288Y-64068656D01*
X63471344Y-64192712D01*
X63620666Y-64284814D01*
X63787203Y-64339999D01*
X63889991Y-64350500D01*
X65190008Y-64350499D01*
X65292797Y-64339999D01*
X65459334Y-64284814D01*
X65608656Y-64192712D01*
X65732712Y-64068656D01*
X65824814Y-63919334D01*
X65879999Y-63752797D01*
X65890500Y-63650009D01*
X65890499Y-62349992D01*
X65879999Y-62247203D01*
X65824814Y-62080666D01*
X65732712Y-61931344D01*
X65608656Y-61807288D01*
X65459334Y-61715186D01*
X65387228Y-61691292D01*
X65329784Y-61651520D01*
X65302961Y-61587004D01*
X65302801Y-61576354D01*
X64669408Y-60942962D01*
X64732993Y-60925925D01*
X64847007Y-60860099D01*
X64940099Y-60767007D01*
X65005925Y-60652993D01*
X65022962Y-60589408D01*
X65655270Y-61221717D01*
X65655270Y-61221716D01*
X65694622Y-61167554D01*
X65791095Y-60978217D01*
X65856757Y-60776130D01*
X65856757Y-60776127D01*
X65890000Y-60566246D01*
X65890000Y-60353753D01*
X65856757Y-60143872D01*
X65856757Y-60143869D01*
X65791095Y-59941782D01*
X65694624Y-59752449D01*
X65655270Y-59698282D01*
X65655269Y-59698282D01*
X65022962Y-60330590D01*
X65005925Y-60267007D01*
X64940099Y-60152993D01*
X64847007Y-60059901D01*
X64732993Y-59994075D01*
X64669409Y-59977037D01*
X65301716Y-59344728D01*
X65247550Y-59305375D01*
X65237954Y-59300486D01*
X65187157Y-59252512D01*
X65170361Y-59184692D01*
X65192897Y-59118556D01*
X65237954Y-59079514D01*
X65247554Y-59074622D01*
X65301716Y-59035270D01*
X65301717Y-59035270D01*
X64669408Y-58402962D01*
X64732993Y-58385925D01*
X64847007Y-58320099D01*
X64940099Y-58227007D01*
X65005925Y-58112993D01*
X65022962Y-58049408D01*
X65655270Y-58681717D01*
X65655270Y-58681716D01*
X65694622Y-58627554D01*
X65791095Y-58438217D01*
X65856757Y-58236130D01*
X65856757Y-58236127D01*
X65890000Y-58026246D01*
X65890000Y-57813753D01*
X65856757Y-57603872D01*
X65856757Y-57603869D01*
X65791095Y-57401782D01*
X65694624Y-57212449D01*
X65655270Y-57158282D01*
X65655269Y-57158282D01*
X65022962Y-57790590D01*
X65005925Y-57727007D01*
X64940099Y-57612993D01*
X64847007Y-57519901D01*
X64732993Y-57454075D01*
X64669409Y-57437037D01*
X65301716Y-56804728D01*
X65247550Y-56765375D01*
X65237954Y-56760486D01*
X65187157Y-56712512D01*
X65170361Y-56644692D01*
X65192897Y-56578556D01*
X65237954Y-56539514D01*
X65247554Y-56534622D01*
X65301716Y-56495270D01*
X65301717Y-56495270D01*
X64669408Y-55862962D01*
X64732993Y-55845925D01*
X64847007Y-55780099D01*
X64940099Y-55687007D01*
X65005925Y-55572993D01*
X65022962Y-55509408D01*
X65655270Y-56141717D01*
X65655270Y-56141716D01*
X65694622Y-56087554D01*
X65791095Y-55898217D01*
X65856757Y-55696130D01*
X65856757Y-55696127D01*
X65890000Y-55486246D01*
X65890000Y-55273753D01*
X65856757Y-55063872D01*
X65856757Y-55063869D01*
X65791095Y-54861782D01*
X65694624Y-54672449D01*
X65655270Y-54618282D01*
X65655269Y-54618282D01*
X65022962Y-55250590D01*
X65005925Y-55187007D01*
X64940099Y-55072993D01*
X64847007Y-54979901D01*
X64732993Y-54914075D01*
X64669409Y-54897037D01*
X65301716Y-54264728D01*
X65247547Y-54225373D01*
X65247547Y-54225372D01*
X65238500Y-54220763D01*
X65187706Y-54172788D01*
X65170912Y-54104966D01*
X65193451Y-54038832D01*
X65238508Y-53999793D01*
X65247816Y-53995051D01*
X65327007Y-53937515D01*
X65419786Y-53870109D01*
X65419788Y-53870106D01*
X65419792Y-53870104D01*
X65570104Y-53719792D01*
X65570106Y-53719788D01*
X65570109Y-53719786D01*
X65695048Y-53547820D01*
X65695047Y-53547820D01*
X65695051Y-53547816D01*
X65791557Y-53358412D01*
X65857246Y-53156243D01*
X65890500Y-52946287D01*
X65890500Y-52733713D01*
X65857246Y-52523757D01*
X65791557Y-52321588D01*
X65695051Y-52132184D01*
X65695049Y-52132181D01*
X65695048Y-52132179D01*
X65570109Y-51960213D01*
X65419786Y-51809890D01*
X65247820Y-51684951D01*
X65247115Y-51684591D01*
X65239054Y-51680485D01*
X65188259Y-51632512D01*
X65171463Y-51564692D01*
X65193999Y-51498556D01*
X65239054Y-51459515D01*
X65247816Y-51455051D01*
X65317639Y-51404322D01*
X65419786Y-51330109D01*
X65419788Y-51330106D01*
X65419792Y-51330104D01*
X65570104Y-51179792D01*
X65570106Y-51179788D01*
X65570109Y-51179786D01*
X65686064Y-51020185D01*
X65695051Y-51007816D01*
X65791557Y-50818412D01*
X65857246Y-50616243D01*
X65890500Y-50406287D01*
X65890500Y-50193713D01*
X65857246Y-49983757D01*
X65791557Y-49781588D01*
X65695051Y-49592184D01*
X65695049Y-49592181D01*
X65695048Y-49592179D01*
X65570109Y-49420213D01*
X65419786Y-49269890D01*
X65247820Y-49144951D01*
X65247115Y-49144591D01*
X65239054Y-49140485D01*
X65188259Y-49092512D01*
X65171463Y-49024692D01*
X65193999Y-48958556D01*
X65239054Y-48919515D01*
X65247816Y-48915051D01*
X65269789Y-48899086D01*
X65419786Y-48790109D01*
X65419788Y-48790106D01*
X65419792Y-48790104D01*
X65570104Y-48639792D01*
X65570106Y-48639788D01*
X65570109Y-48639786D01*
X65695048Y-48467820D01*
X65695047Y-48467820D01*
X65695051Y-48467816D01*
X65791557Y-48278412D01*
X65857246Y-48076243D01*
X65890500Y-47866287D01*
X65890500Y-47653713D01*
X65857246Y-47443757D01*
X65791557Y-47241588D01*
X65695051Y-47052184D01*
X65695049Y-47052181D01*
X65695048Y-47052179D01*
X65570109Y-46880213D01*
X65419786Y-46729890D01*
X65247820Y-46604951D01*
X65247115Y-46604591D01*
X65239054Y-46600485D01*
X65188259Y-46552512D01*
X65171463Y-46484692D01*
X65193999Y-46418556D01*
X65239054Y-46379515D01*
X65247816Y-46375051D01*
X65277334Y-46353605D01*
X65419786Y-46250109D01*
X65419788Y-46250106D01*
X65419792Y-46250104D01*
X65570104Y-46099792D01*
X65570106Y-46099788D01*
X65570109Y-46099786D01*
X65695048Y-45927820D01*
X65695047Y-45927820D01*
X65695051Y-45927816D01*
X65791557Y-45738412D01*
X65857246Y-45536243D01*
X65890500Y-45326287D01*
X65890500Y-45113713D01*
X65857246Y-44903757D01*
X65791557Y-44701588D01*
X65695051Y-44512184D01*
X65695049Y-44512181D01*
X65695048Y-44512179D01*
X65570109Y-44340213D01*
X65419786Y-44189890D01*
X65247820Y-44064951D01*
X65058414Y-43968444D01*
X65058413Y-43968443D01*
X65058412Y-43968443D01*
X64856243Y-43902754D01*
X64856241Y-43902753D01*
X64856240Y-43902753D01*
X64694957Y-43877208D01*
X64646287Y-43869500D01*
X64433713Y-43869500D01*
X64385042Y-43877208D01*
X64223760Y-43902753D01*
X64021585Y-43968444D01*
X63832179Y-44064951D01*
X63660213Y-44189890D01*
X63509890Y-44340213D01*
X63384949Y-44512182D01*
X63380484Y-44520946D01*
X63332509Y-44571742D01*
X63264688Y-44588536D01*
X63198553Y-44565998D01*
X63159516Y-44520946D01*
X63155050Y-44512182D01*
X63030109Y-44340213D01*
X62879786Y-44189890D01*
X62707820Y-44064951D01*
X62518414Y-43968444D01*
X62518413Y-43968443D01*
X62518412Y-43968443D01*
X62316243Y-43902754D01*
X62316241Y-43902753D01*
X62316240Y-43902753D01*
X62154957Y-43877208D01*
X62106287Y-43869500D01*
X61893713Y-43869500D01*
X61845042Y-43877208D01*
X61683760Y-43902753D01*
X61481585Y-43968444D01*
X61292179Y-44064951D01*
X61120213Y-44189890D01*
X60969890Y-44340213D01*
X60844951Y-44512179D01*
X60748444Y-44701585D01*
X60682753Y-44903760D01*
X60649500Y-45113713D01*
X60649500Y-45326287D01*
X60682754Y-45536243D01*
X60701431Y-45593726D01*
X60748444Y-45738414D01*
X60844951Y-45927820D01*
X60969890Y-46099786D01*
X61120213Y-46250109D01*
X61292182Y-46375050D01*
X61300946Y-46379516D01*
X61351742Y-46427491D01*
X61368536Y-46495312D01*
X61345998Y-46561447D01*
X61300946Y-46600484D01*
X61292182Y-46604949D01*
X61120213Y-46729890D01*
X60969890Y-46880213D01*
X60844951Y-47052179D01*
X60748444Y-47241585D01*
X60682753Y-47443760D01*
X60649500Y-47653713D01*
X60649500Y-47866286D01*
X60682753Y-48076239D01*
X60748444Y-48278414D01*
X60844951Y-48467820D01*
X60969890Y-48639786D01*
X61120213Y-48790109D01*
X61292182Y-48915050D01*
X61300946Y-48919516D01*
X61351742Y-48967491D01*
X61368536Y-49035312D01*
X61345998Y-49101447D01*
X61300946Y-49140484D01*
X61292182Y-49144949D01*
X61120213Y-49269890D01*
X60969892Y-49420211D01*
X60901573Y-49514247D01*
X60876770Y-49548385D01*
X60821442Y-49591051D01*
X60776453Y-49599500D01*
X59481004Y-49599500D01*
X59345677Y-49626418D01*
X59345667Y-49626421D01*
X59218192Y-49679222D01*
X59103454Y-49755887D01*
X52455887Y-56403454D01*
X52379222Y-56518192D01*
X52326421Y-56645667D01*
X52326418Y-56645677D01*
X52299500Y-56781004D01*
X52299500Y-75660385D01*
X52279815Y-75727424D01*
X52227011Y-75773179D01*
X52222965Y-75774941D01*
X52077844Y-75835053D01*
X52077841Y-75835054D01*
X52077833Y-75835058D01*
X51841656Y-75971415D01*
X51625289Y-76137439D01*
X51625282Y-76137445D01*
X51432445Y-76330282D01*
X51432439Y-76330289D01*
X51266415Y-76546656D01*
X51128023Y-76786360D01*
X51126750Y-76785625D01*
X51083571Y-76832512D01*
X51015966Y-76850158D01*
X50949553Y-76828453D01*
X50912707Y-76785901D01*
X50911528Y-76786582D01*
X50773168Y-76546933D01*
X50607181Y-76330617D01*
X50607174Y-76330609D01*
X50414391Y-76137826D01*
X50414382Y-76137818D01*
X50198066Y-75971831D01*
X49961937Y-75835503D01*
X49961927Y-75835499D01*
X49710029Y-75731159D01*
X49446655Y-75660588D01*
X49290000Y-75639963D01*
X49290000Y-77357095D01*
X49128642Y-77325000D01*
X48951358Y-77325000D01*
X48790000Y-77357095D01*
X48790000Y-75639963D01*
X48789999Y-75639963D01*
X48633344Y-75660588D01*
X48369970Y-75731159D01*
X48118072Y-75835499D01*
X48118062Y-75835503D01*
X47881933Y-75971831D01*
X47665617Y-76137818D01*
X47472818Y-76330617D01*
X47382874Y-76447834D01*
X47326446Y-76489036D01*
X47256700Y-76493191D01*
X47195780Y-76458978D01*
X47163028Y-76397261D01*
X47160499Y-76372347D01*
X47160499Y-76324998D01*
X47160498Y-76324981D01*
X47149999Y-76222203D01*
X47149998Y-76222200D01*
X47122039Y-76137826D01*
X47094814Y-76055666D01*
X47002712Y-75906344D01*
X46878656Y-75782288D01*
X46729334Y-75690186D01*
X46562797Y-75635001D01*
X46562795Y-75635000D01*
X46460016Y-75624500D01*
X46460009Y-75624500D01*
X46104500Y-75624500D01*
X46037461Y-75604815D01*
X45991706Y-75552011D01*
X45980500Y-75500500D01*
X45980500Y-72541307D01*
X45980499Y-72541303D01*
X45945896Y-72367341D01*
X45945895Y-72367334D01*
X45878013Y-72203454D01*
X45878013Y-72203453D01*
X45828738Y-72129709D01*
X45827718Y-72128183D01*
X45827709Y-72128168D01*
X45779462Y-72055961D01*
X42636819Y-68913318D01*
X42603334Y-68851995D01*
X42600500Y-68825637D01*
X42600500Y-65048549D01*
X43299500Y-65048549D01*
X43299500Y-65271450D01*
X43299501Y-65271466D01*
X43328594Y-65492452D01*
X43328595Y-65492457D01*
X43328596Y-65492463D01*
X43386290Y-65707780D01*
X43386293Y-65707790D01*
X43471593Y-65913722D01*
X43471595Y-65913726D01*
X43583052Y-66106774D01*
X43583057Y-66106780D01*
X43583058Y-66106782D01*
X43718751Y-66283622D01*
X43718757Y-66283629D01*
X43876370Y-66441242D01*
X43876376Y-66441247D01*
X44053226Y-66576948D01*
X44246274Y-66688405D01*
X44452219Y-66773710D01*
X44667537Y-66831404D01*
X44888543Y-66860500D01*
X44888550Y-66860500D01*
X45111450Y-66860500D01*
X45111457Y-66860500D01*
X45332463Y-66831404D01*
X45547781Y-66773710D01*
X45753726Y-66688405D01*
X45946774Y-66576948D01*
X46123624Y-66441247D01*
X46281247Y-66283624D01*
X46416948Y-66106774D01*
X46528405Y-65913726D01*
X46613710Y-65707781D01*
X46671404Y-65492463D01*
X46700500Y-65271457D01*
X46700500Y-65048543D01*
X46671404Y-64827537D01*
X46613710Y-64612219D01*
X46528405Y-64406274D01*
X46416948Y-64213226D01*
X46281247Y-64036376D01*
X46281242Y-64036370D01*
X46123629Y-63878757D01*
X46123622Y-63878751D01*
X45946782Y-63743058D01*
X45946780Y-63743057D01*
X45946774Y-63743052D01*
X45753726Y-63631595D01*
X45753722Y-63631593D01*
X45547790Y-63546293D01*
X45547783Y-63546291D01*
X45547781Y-63546290D01*
X45332463Y-63488596D01*
X45332457Y-63488595D01*
X45332452Y-63488594D01*
X45111466Y-63459501D01*
X45111463Y-63459500D01*
X45111457Y-63459500D01*
X44888543Y-63459500D01*
X44888537Y-63459500D01*
X44888533Y-63459501D01*
X44667547Y-63488594D01*
X44667540Y-63488595D01*
X44667537Y-63488596D01*
X44452219Y-63546290D01*
X44452209Y-63546293D01*
X44246277Y-63631593D01*
X44246273Y-63631595D01*
X44053226Y-63743052D01*
X44053217Y-63743058D01*
X43876377Y-63878751D01*
X43876370Y-63878757D01*
X43718757Y-64036370D01*
X43718751Y-64036377D01*
X43583058Y-64213217D01*
X43583052Y-64213226D01*
X43471595Y-64406273D01*
X43471593Y-64406277D01*
X43386293Y-64612209D01*
X43386290Y-64612219D01*
X43328597Y-64827534D01*
X43328594Y-64827547D01*
X43299501Y-65048533D01*
X43299500Y-65048549D01*
X42600500Y-65048549D01*
X42600500Y-54888575D01*
X43300000Y-54888575D01*
X43300000Y-55111424D01*
X43329085Y-55332354D01*
X43329088Y-55332367D01*
X43386763Y-55547618D01*
X43472045Y-55753502D01*
X43472054Y-55753520D01*
X43583464Y-55946491D01*
X43583473Y-55946504D01*
X43634040Y-56012403D01*
X43634043Y-56012403D01*
X44284154Y-55362291D01*
X44291051Y-55378941D01*
X44378601Y-55509969D01*
X44490031Y-55621399D01*
X44621059Y-55708949D01*
X44637707Y-55715844D01*
X43987595Y-56365955D01*
X43987595Y-56365956D01*
X44053507Y-56416533D01*
X44246485Y-56527949D01*
X44246497Y-56527954D01*
X44452381Y-56613236D01*
X44667632Y-56670911D01*
X44667645Y-56670914D01*
X44888575Y-56700000D01*
X45111425Y-56700000D01*
X45332354Y-56670914D01*
X45332367Y-56670911D01*
X45547618Y-56613236D01*
X45753502Y-56527954D01*
X45753514Y-56527949D01*
X45946498Y-56416530D01*
X46012403Y-56365957D01*
X46012404Y-56365956D01*
X45362292Y-55715845D01*
X45378941Y-55708949D01*
X45509969Y-55621399D01*
X45621399Y-55509969D01*
X45708949Y-55378941D01*
X45715845Y-55362292D01*
X46365956Y-56012404D01*
X46365957Y-56012403D01*
X46416530Y-55946498D01*
X46527949Y-55753514D01*
X46527954Y-55753502D01*
X46613236Y-55547618D01*
X46670911Y-55332367D01*
X46670914Y-55332354D01*
X46700000Y-55111424D01*
X46700000Y-54888575D01*
X46670914Y-54667645D01*
X46670911Y-54667632D01*
X46613236Y-54452381D01*
X46527954Y-54246497D01*
X46527949Y-54246485D01*
X46416533Y-54053507D01*
X46365956Y-53987595D01*
X46365955Y-53987595D01*
X45715844Y-54637706D01*
X45708949Y-54621059D01*
X45621399Y-54490031D01*
X45509969Y-54378601D01*
X45378941Y-54291051D01*
X45362291Y-54284154D01*
X46012403Y-53634043D01*
X46012403Y-53634040D01*
X45946504Y-53583473D01*
X45946491Y-53583464D01*
X45753520Y-53472054D01*
X45753502Y-53472045D01*
X45547618Y-53386763D01*
X45332367Y-53329088D01*
X45332354Y-53329085D01*
X45111425Y-53300000D01*
X44888575Y-53300000D01*
X44667645Y-53329085D01*
X44667632Y-53329088D01*
X44452381Y-53386763D01*
X44246497Y-53472045D01*
X44246479Y-53472054D01*
X44053511Y-53583462D01*
X43987595Y-53634042D01*
X44637708Y-54284154D01*
X44621059Y-54291051D01*
X44490031Y-54378601D01*
X44378601Y-54490031D01*
X44291051Y-54621059D01*
X44284154Y-54637707D01*
X43634042Y-53987595D01*
X43583462Y-54053511D01*
X43472054Y-54246479D01*
X43472045Y-54246497D01*
X43386763Y-54452381D01*
X43329088Y-54667632D01*
X43329085Y-54667645D01*
X43300000Y-54888575D01*
X42600500Y-54888575D01*
X42600500Y-50524361D01*
X42620185Y-50457322D01*
X42636819Y-50436680D01*
X45699461Y-47374038D01*
X45699464Y-47374035D01*
X45758230Y-47286086D01*
X45798013Y-47226547D01*
X45817895Y-47178547D01*
X45865895Y-47062666D01*
X45900500Y-46888692D01*
X45900500Y-46711308D01*
X45900500Y-46353605D01*
X45920185Y-46286566D01*
X45949014Y-46255229D01*
X45955693Y-46250104D01*
X46100015Y-46139362D01*
X46165183Y-46114169D01*
X46233628Y-46128207D01*
X46283617Y-46177021D01*
X46299500Y-46237739D01*
X46299500Y-49658480D01*
X46279815Y-49725519D01*
X46263181Y-49746161D01*
X45805412Y-50203929D01*
X45765184Y-50230809D01*
X45620823Y-50290604D01*
X45620814Y-50290609D01*
X45489711Y-50378210D01*
X45489707Y-50378213D01*
X45378213Y-50489707D01*
X45378210Y-50489711D01*
X45290609Y-50620814D01*
X45290602Y-50620827D01*
X45230264Y-50766498D01*
X45230261Y-50766510D01*
X45199500Y-50921153D01*
X45199500Y-51078846D01*
X45230261Y-51233489D01*
X45230264Y-51233501D01*
X45290602Y-51379172D01*
X45290609Y-51379185D01*
X45378210Y-51510288D01*
X45378213Y-51510292D01*
X45489707Y-51621786D01*
X45489711Y-51621789D01*
X45620814Y-51709390D01*
X45620827Y-51709397D01*
X45766498Y-51769735D01*
X45766503Y-51769737D01*
X45921153Y-51800499D01*
X45921156Y-51800500D01*
X45921158Y-51800500D01*
X46078844Y-51800500D01*
X46078845Y-51800499D01*
X46233497Y-51769737D01*
X46379179Y-51709394D01*
X46510289Y-51621789D01*
X46621789Y-51510289D01*
X46709394Y-51379179D01*
X46709395Y-51379176D01*
X46709397Y-51379173D01*
X46769192Y-51234812D01*
X46796069Y-51194586D01*
X47544114Y-50446543D01*
X47620775Y-50331811D01*
X47637844Y-50290604D01*
X47673578Y-50204332D01*
X47673580Y-50204328D01*
X47700500Y-50068994D01*
X47700500Y-49931006D01*
X47700500Y-30291518D01*
X47720185Y-30224479D01*
X47736814Y-30203842D01*
X49637821Y-28302834D01*
X49699142Y-28269351D01*
X49768834Y-28274335D01*
X49824767Y-28316207D01*
X49849184Y-28381671D01*
X49849500Y-28390517D01*
X49849500Y-29187870D01*
X49849501Y-29187876D01*
X49855908Y-29247483D01*
X49906202Y-29382328D01*
X49906206Y-29382335D01*
X49992452Y-29497544D01*
X49992455Y-29497547D01*
X50107664Y-29583793D01*
X50107671Y-29583797D01*
X50242517Y-29634091D01*
X50242516Y-29634091D01*
X50249444Y-29634835D01*
X50302127Y-29640500D01*
X52197872Y-29640499D01*
X52257483Y-29634091D01*
X52392331Y-29583796D01*
X52507546Y-29497546D01*
X52593796Y-29382331D01*
X52644091Y-29247483D01*
X52650500Y-29187873D01*
X52650499Y-27292128D01*
X52644091Y-27232517D01*
X52593796Y-27097669D01*
X52593795Y-27097668D01*
X52593793Y-27097664D01*
X52507547Y-26982455D01*
X52507544Y-26982452D01*
X52392335Y-26896206D01*
X52392328Y-26896202D01*
X52312419Y-26866398D01*
X52256485Y-26824527D01*
X52232068Y-26759062D01*
X52246920Y-26690789D01*
X52268069Y-26662537D01*
X52318242Y-26612365D01*
X52447815Y-26434022D01*
X52547895Y-26237606D01*
X52616015Y-26027951D01*
X52650500Y-25810222D01*
X52650500Y-25589778D01*
X56849500Y-25589778D01*
X56849500Y-25810221D01*
X56883985Y-26027952D01*
X56952103Y-26237603D01*
X56952104Y-26237606D01*
X57052187Y-26434025D01*
X57181752Y-26612358D01*
X57181756Y-26612363D01*
X57231928Y-26662535D01*
X57265413Y-26723858D01*
X57260429Y-26793550D01*
X57218557Y-26849483D01*
X57187581Y-26866398D01*
X57107669Y-26896203D01*
X57107664Y-26896206D01*
X56992455Y-26982452D01*
X56992452Y-26982455D01*
X56906206Y-27097664D01*
X56906202Y-27097671D01*
X56855908Y-27232517D01*
X56852667Y-27262667D01*
X56849501Y-27292123D01*
X56849500Y-27292135D01*
X56849500Y-29187870D01*
X56849501Y-29187876D01*
X56855908Y-29247483D01*
X56906202Y-29382328D01*
X56906206Y-29382335D01*
X56992452Y-29497544D01*
X56992455Y-29497547D01*
X57107664Y-29583793D01*
X57107671Y-29583797D01*
X57242517Y-29634091D01*
X57242516Y-29634091D01*
X57249444Y-29634835D01*
X57302127Y-29640500D01*
X59197872Y-29640499D01*
X59257483Y-29634091D01*
X59392331Y-29583796D01*
X59507546Y-29497546D01*
X59593796Y-29382331D01*
X59644091Y-29247483D01*
X59650500Y-29187873D01*
X59650499Y-27292128D01*
X59644091Y-27232517D01*
X59593796Y-27097669D01*
X59593795Y-27097668D01*
X59593793Y-27097664D01*
X59507547Y-26982455D01*
X59507544Y-26982452D01*
X59392335Y-26896206D01*
X59392328Y-26896202D01*
X59312419Y-26866398D01*
X59256485Y-26824527D01*
X59232068Y-26759062D01*
X59246920Y-26690789D01*
X59268069Y-26662537D01*
X59318242Y-26612365D01*
X59447815Y-26434022D01*
X59547895Y-26237606D01*
X59616015Y-26027951D01*
X59650500Y-25810222D01*
X59650500Y-25589778D01*
X59616015Y-25372049D01*
X59550436Y-25170214D01*
X59547896Y-25162396D01*
X59547895Y-25162393D01*
X59472374Y-25014178D01*
X59447815Y-24965978D01*
X59405447Y-24907663D01*
X59318247Y-24787641D01*
X59318243Y-24787636D01*
X59162363Y-24631756D01*
X59162358Y-24631752D01*
X58984025Y-24502187D01*
X58984024Y-24502186D01*
X58984022Y-24502185D01*
X58921096Y-24470122D01*
X58787606Y-24402104D01*
X58787603Y-24402103D01*
X58604417Y-24342584D01*
X58577952Y-24333985D01*
X58469086Y-24316742D01*
X58360222Y-24299500D01*
X58139778Y-24299500D01*
X58067201Y-24310995D01*
X57922047Y-24333985D01*
X57712396Y-24402103D01*
X57712393Y-24402104D01*
X57515974Y-24502187D01*
X57337641Y-24631752D01*
X57337636Y-24631756D01*
X57181756Y-24787636D01*
X57181752Y-24787641D01*
X57052187Y-24965974D01*
X56952104Y-25162393D01*
X56952103Y-25162396D01*
X56883985Y-25372047D01*
X56849500Y-25589778D01*
X52650500Y-25589778D01*
X52616015Y-25372049D01*
X52550436Y-25170214D01*
X52547896Y-25162396D01*
X52547895Y-25162393D01*
X52472374Y-25014178D01*
X52447815Y-24965978D01*
X52405447Y-24907663D01*
X52318247Y-24787641D01*
X52318243Y-24787636D01*
X52162363Y-24631756D01*
X52162358Y-24631752D01*
X51984025Y-24502187D01*
X51984024Y-24502186D01*
X51984022Y-24502185D01*
X51921096Y-24470122D01*
X51787606Y-24402104D01*
X51787603Y-24402103D01*
X51577952Y-24333985D01*
X51469086Y-24316742D01*
X51360222Y-24299500D01*
X51139778Y-24299500D01*
X51067201Y-24310995D01*
X50922047Y-24333985D01*
X50712396Y-24402103D01*
X50712393Y-24402104D01*
X50515974Y-24502187D01*
X50337641Y-24631752D01*
X50337636Y-24631756D01*
X50181756Y-24787636D01*
X50181752Y-24787641D01*
X50052187Y-24965974D01*
X49952104Y-25162393D01*
X49952103Y-25162396D01*
X49883985Y-25372047D01*
X49849500Y-25589778D01*
X49849500Y-25810221D01*
X49880583Y-26006471D01*
X49871628Y-26075765D01*
X49845791Y-26113550D01*
X46455890Y-29503451D01*
X46455884Y-29503458D01*
X46414986Y-29564668D01*
X46414986Y-29564669D01*
X46407049Y-29576548D01*
X46379225Y-29618188D01*
X46379221Y-29618195D01*
X46326421Y-29745667D01*
X46326418Y-29745677D01*
X46299500Y-29881004D01*
X46299500Y-43442260D01*
X46279815Y-43509299D01*
X46227011Y-43555054D01*
X46157853Y-43564998D01*
X46100014Y-43540636D01*
X45946782Y-43423058D01*
X45946780Y-43423057D01*
X45946774Y-43423052D01*
X45753726Y-43311595D01*
X45753722Y-43311593D01*
X45547790Y-43226293D01*
X45547783Y-43226291D01*
X45547781Y-43226290D01*
X45332463Y-43168596D01*
X45332457Y-43168595D01*
X45332452Y-43168594D01*
X45111466Y-43139501D01*
X45111463Y-43139500D01*
X45111457Y-43139500D01*
X44888543Y-43139500D01*
X44888537Y-43139500D01*
X44888533Y-43139501D01*
X44667547Y-43168594D01*
X44667540Y-43168595D01*
X44667537Y-43168596D01*
X44452219Y-43226290D01*
X44452209Y-43226293D01*
X44246277Y-43311593D01*
X44246273Y-43311595D01*
X44053226Y-43423052D01*
X44053217Y-43423058D01*
X43876377Y-43558751D01*
X43876370Y-43558757D01*
X43718757Y-43716370D01*
X43718751Y-43716377D01*
X43583058Y-43893217D01*
X43583052Y-43893226D01*
X43471595Y-44086273D01*
X43471593Y-44086277D01*
X43386293Y-44292209D01*
X43386290Y-44292219D01*
X43328597Y-44507534D01*
X43328594Y-44507547D01*
X43299501Y-44728533D01*
X43299500Y-44728549D01*
X43299500Y-44951450D01*
X43299501Y-44951466D01*
X43328594Y-45172452D01*
X43328595Y-45172457D01*
X43328596Y-45172463D01*
X43328597Y-45172465D01*
X43386290Y-45387780D01*
X43386293Y-45387790D01*
X43471593Y-45593722D01*
X43471595Y-45593726D01*
X43583052Y-45786774D01*
X43583057Y-45786780D01*
X43583058Y-45786782D01*
X43718751Y-45963622D01*
X43718757Y-45963629D01*
X43876370Y-46121242D01*
X43876377Y-46121248D01*
X44050986Y-46255229D01*
X44092189Y-46311656D01*
X44099500Y-46353605D01*
X44099500Y-46375637D01*
X44079815Y-46442676D01*
X44063181Y-46463318D01*
X41000540Y-49525958D01*
X41000537Y-49525961D01*
X40982166Y-49553457D01*
X40901985Y-49673455D01*
X40868046Y-49755393D01*
X40834107Y-49837327D01*
X40834103Y-49837341D01*
X40815472Y-49931004D01*
X40815473Y-49931005D01*
X40799500Y-50011310D01*
X33750500Y-50011310D01*
X33750500Y-33991519D01*
X33770185Y-33924480D01*
X33786819Y-33903838D01*
X34553838Y-33136819D01*
X34615161Y-33103334D01*
X34641519Y-33100500D01*
X34714649Y-33100500D01*
X34781688Y-33120185D01*
X34814964Y-33151611D01*
X34931753Y-33312358D01*
X34931758Y-33312365D01*
X34981928Y-33362535D01*
X35015413Y-33423858D01*
X35010429Y-33493550D01*
X34968557Y-33549483D01*
X34937581Y-33566398D01*
X34857669Y-33596203D01*
X34857664Y-33596206D01*
X34742455Y-33682452D01*
X34742452Y-33682455D01*
X34656206Y-33797664D01*
X34656202Y-33797671D01*
X34605908Y-33932517D01*
X34599565Y-33991519D01*
X34599501Y-33992123D01*
X34599500Y-33992135D01*
X34599500Y-35887870D01*
X34599501Y-35887876D01*
X34605908Y-35947483D01*
X34656202Y-36082328D01*
X34656206Y-36082335D01*
X34742452Y-36197544D01*
X34742455Y-36197547D01*
X34857664Y-36283793D01*
X34857671Y-36283797D01*
X34992517Y-36334091D01*
X34992516Y-36334091D01*
X34999444Y-36334835D01*
X35052127Y-36340500D01*
X36947872Y-36340499D01*
X37007483Y-36334091D01*
X37142331Y-36283796D01*
X37257546Y-36197546D01*
X37343796Y-36082331D01*
X37394091Y-35947483D01*
X37400500Y-35887873D01*
X37400499Y-33992128D01*
X37394091Y-33932517D01*
X37391093Y-33924480D01*
X37343797Y-33797671D01*
X37343793Y-33797664D01*
X37257547Y-33682455D01*
X37257544Y-33682452D01*
X37142335Y-33596206D01*
X37142328Y-33596202D01*
X37062419Y-33566398D01*
X37006485Y-33524527D01*
X36982068Y-33459062D01*
X36996920Y-33390789D01*
X37018069Y-33362537D01*
X37068242Y-33312365D01*
X37197815Y-33134022D01*
X37297895Y-32937606D01*
X37366015Y-32727951D01*
X37400500Y-32510222D01*
X37400500Y-32289778D01*
X37366015Y-32072049D01*
X37297895Y-31862394D01*
X37297895Y-31862393D01*
X37255516Y-31779222D01*
X37197815Y-31665978D01*
X37181260Y-31643192D01*
X37068247Y-31487641D01*
X37068243Y-31487636D01*
X36912363Y-31331756D01*
X36912358Y-31331752D01*
X36734025Y-31202187D01*
X36734024Y-31202186D01*
X36734022Y-31202185D01*
X36671096Y-31170122D01*
X36537606Y-31102104D01*
X36537603Y-31102103D01*
X36327952Y-31033985D01*
X36219086Y-31016742D01*
X36110222Y-30999500D01*
X35889778Y-30999500D01*
X35817201Y-31010995D01*
X35672047Y-31033985D01*
X35462396Y-31102103D01*
X35462393Y-31102104D01*
X35265974Y-31202187D01*
X35087641Y-31331752D01*
X35087636Y-31331756D01*
X34931758Y-31487634D01*
X34882997Y-31554747D01*
X34814965Y-31648386D01*
X34759638Y-31691051D01*
X34714649Y-31699500D01*
X34231004Y-31699500D01*
X34095677Y-31726418D01*
X34095667Y-31726421D01*
X33968192Y-31779222D01*
X33853454Y-31855887D01*
X32505887Y-33203454D01*
X32429224Y-33318190D01*
X32376421Y-33445666D01*
X32375657Y-33449507D01*
X32371931Y-33468242D01*
X32349500Y-33581004D01*
X32349500Y-50858481D01*
X32329815Y-50925520D01*
X32313181Y-50946162D01*
X26456162Y-56803181D01*
X26394839Y-56836666D01*
X26368481Y-56839500D01*
X26310727Y-56839500D01*
X26243688Y-56819815D01*
X26203340Y-56777501D01*
X26141801Y-56670914D01*
X26096948Y-56593226D01*
X26046863Y-56527954D01*
X25961248Y-56416377D01*
X25961242Y-56416370D01*
X25803629Y-56258757D01*
X25803622Y-56258751D01*
X25626782Y-56123058D01*
X25626780Y-56123057D01*
X25626774Y-56123052D01*
X25433726Y-56011595D01*
X25433722Y-56011593D01*
X25227790Y-55926293D01*
X25227783Y-55926291D01*
X25227781Y-55926290D01*
X25012463Y-55868596D01*
X25012457Y-55868595D01*
X25012452Y-55868594D01*
X24791466Y-55839501D01*
X24791463Y-55839500D01*
X24791457Y-55839500D01*
X24568543Y-55839500D01*
X24568537Y-55839500D01*
X24568533Y-55839501D01*
X24347547Y-55868594D01*
X24347540Y-55868595D01*
X24347537Y-55868596D01*
X24132219Y-55926290D01*
X24132209Y-55926293D01*
X23926277Y-56011593D01*
X23926273Y-56011595D01*
X23733226Y-56123052D01*
X23733217Y-56123058D01*
X23556377Y-56258751D01*
X23556370Y-56258757D01*
X23398757Y-56416370D01*
X23398751Y-56416377D01*
X23263058Y-56593217D01*
X23263052Y-56593226D01*
X23151595Y-56786273D01*
X23151593Y-56786277D01*
X23066293Y-56992209D01*
X23066290Y-56992219D01*
X23008597Y-57207534D01*
X23008594Y-57207547D01*
X22979501Y-57428533D01*
X22979500Y-57428549D01*
X20500500Y-57428549D01*
X20500500Y-52348575D01*
X22980000Y-52348575D01*
X22980000Y-52571424D01*
X23009085Y-52792354D01*
X23009088Y-52792367D01*
X23066763Y-53007618D01*
X23152045Y-53213502D01*
X23152054Y-53213520D01*
X23263464Y-53406491D01*
X23263473Y-53406504D01*
X23314040Y-53472403D01*
X23314043Y-53472403D01*
X23964154Y-52822291D01*
X23971051Y-52838941D01*
X24058601Y-52969969D01*
X24170031Y-53081399D01*
X24301059Y-53168949D01*
X24317707Y-53175844D01*
X23667595Y-53825955D01*
X23667595Y-53825956D01*
X23733507Y-53876533D01*
X23926485Y-53987949D01*
X23926497Y-53987954D01*
X24132381Y-54073236D01*
X24347632Y-54130911D01*
X24347645Y-54130914D01*
X24568575Y-54160000D01*
X24791425Y-54160000D01*
X25012354Y-54130914D01*
X25012367Y-54130911D01*
X25227618Y-54073236D01*
X25433502Y-53987954D01*
X25433514Y-53987949D01*
X25626498Y-53876530D01*
X25692403Y-53825957D01*
X25692404Y-53825956D01*
X25042292Y-53175845D01*
X25058941Y-53168949D01*
X25189969Y-53081399D01*
X25301399Y-52969969D01*
X25388949Y-52838941D01*
X25395845Y-52822292D01*
X26045956Y-53472404D01*
X26045957Y-53472403D01*
X26096530Y-53406498D01*
X26207949Y-53213514D01*
X26207954Y-53213502D01*
X26293236Y-53007618D01*
X26350911Y-52792367D01*
X26350914Y-52792354D01*
X26380000Y-52571424D01*
X26380000Y-52348575D01*
X26350914Y-52127645D01*
X26350911Y-52127632D01*
X26293236Y-51912381D01*
X26207954Y-51706497D01*
X26207949Y-51706485D01*
X26096533Y-51513507D01*
X26045956Y-51447595D01*
X26045955Y-51447595D01*
X25395844Y-52097706D01*
X25388949Y-52081059D01*
X25301399Y-51950031D01*
X25189969Y-51838601D01*
X25058941Y-51751051D01*
X25042291Y-51744154D01*
X25692403Y-51094043D01*
X25692403Y-51094040D01*
X25626504Y-51043473D01*
X25626491Y-51043464D01*
X25433520Y-50932054D01*
X25433502Y-50932045D01*
X25227618Y-50846763D01*
X25012367Y-50789088D01*
X25012354Y-50789085D01*
X24791425Y-50760000D01*
X24568575Y-50760000D01*
X24347645Y-50789085D01*
X24347632Y-50789088D01*
X24132381Y-50846763D01*
X23926497Y-50932045D01*
X23926479Y-50932054D01*
X23733511Y-51043462D01*
X23667595Y-51094042D01*
X24317708Y-51744154D01*
X24301059Y-51751051D01*
X24170031Y-51838601D01*
X24058601Y-51950031D01*
X23971051Y-52081059D01*
X23964154Y-52097707D01*
X23314042Y-51447595D01*
X23263462Y-51513511D01*
X23152054Y-51706479D01*
X23152045Y-51706497D01*
X23066763Y-51912381D01*
X23009088Y-52127632D01*
X23009085Y-52127645D01*
X22980000Y-52348575D01*
X20500500Y-52348575D01*
X20500500Y-44728549D01*
X22979500Y-44728549D01*
X22979500Y-44951450D01*
X22979501Y-44951466D01*
X23008594Y-45172452D01*
X23008595Y-45172457D01*
X23008596Y-45172463D01*
X23008597Y-45172465D01*
X23066290Y-45387780D01*
X23066293Y-45387790D01*
X23151593Y-45593722D01*
X23151595Y-45593726D01*
X23263052Y-45786774D01*
X23263057Y-45786780D01*
X23263058Y-45786782D01*
X23398751Y-45963622D01*
X23398757Y-45963629D01*
X23556370Y-46121242D01*
X23556377Y-46121248D01*
X23682294Y-46217867D01*
X23733226Y-46256948D01*
X23926274Y-46368405D01*
X24047350Y-46418556D01*
X24105580Y-46442676D01*
X24132219Y-46453710D01*
X24347537Y-46511404D01*
X24568543Y-46540500D01*
X24568550Y-46540500D01*
X24791450Y-46540500D01*
X24791457Y-46540500D01*
X25012463Y-46511404D01*
X25227781Y-46453710D01*
X25433726Y-46368405D01*
X25626774Y-46256948D01*
X25803624Y-46121247D01*
X25961247Y-45963624D01*
X26096948Y-45786774D01*
X26208405Y-45593726D01*
X26293710Y-45387781D01*
X26351404Y-45172463D01*
X26380500Y-44951457D01*
X26380500Y-44728543D01*
X26351404Y-44507537D01*
X26293710Y-44292219D01*
X26208405Y-44086274D01*
X26096948Y-43893226D01*
X25961247Y-43716376D01*
X25961242Y-43716370D01*
X25803629Y-43558757D01*
X25803622Y-43558751D01*
X25626782Y-43423058D01*
X25626780Y-43423057D01*
X25626774Y-43423052D01*
X25433726Y-43311595D01*
X25433722Y-43311593D01*
X25227790Y-43226293D01*
X25227783Y-43226291D01*
X25227781Y-43226290D01*
X25012463Y-43168596D01*
X25012457Y-43168595D01*
X25012452Y-43168594D01*
X24791466Y-43139501D01*
X24791463Y-43139500D01*
X24791457Y-43139500D01*
X24568543Y-43139500D01*
X24568537Y-43139500D01*
X24568533Y-43139501D01*
X24347547Y-43168594D01*
X24347540Y-43168595D01*
X24347537Y-43168596D01*
X24132219Y-43226290D01*
X24132209Y-43226293D01*
X23926277Y-43311593D01*
X23926273Y-43311595D01*
X23733226Y-43423052D01*
X23733217Y-43423058D01*
X23556377Y-43558751D01*
X23556370Y-43558757D01*
X23398757Y-43716370D01*
X23398751Y-43716377D01*
X23263058Y-43893217D01*
X23263052Y-43893226D01*
X23151595Y-44086273D01*
X23151593Y-44086277D01*
X23066293Y-44292209D01*
X23066290Y-44292219D01*
X23008597Y-44507534D01*
X23008594Y-44507547D01*
X22979501Y-44728533D01*
X22979500Y-44728549D01*
X20500500Y-44728549D01*
X20500500Y-38373921D01*
X23950000Y-38373921D01*
X23950000Y-39092500D01*
X24766988Y-39092500D01*
X24734075Y-39149507D01*
X24700000Y-39276674D01*
X24700000Y-39408326D01*
X24734075Y-39535493D01*
X24766988Y-39592500D01*
X23950001Y-39592500D01*
X23950001Y-40311088D01*
X23952794Y-40363691D01*
X23997237Y-40593487D01*
X24079879Y-40812475D01*
X24198339Y-41014341D01*
X24198344Y-41014348D01*
X24349211Y-41193286D01*
X24349213Y-41193288D01*
X24528151Y-41344155D01*
X24528158Y-41344160D01*
X24730024Y-41462620D01*
X24949012Y-41545262D01*
X25178809Y-41589705D01*
X25231382Y-41592498D01*
X25231421Y-41592499D01*
X25949999Y-41592499D01*
X25950000Y-41592498D01*
X25950000Y-39842500D01*
X26450000Y-39842500D01*
X26450000Y-41592499D01*
X27168576Y-41592499D01*
X27168588Y-41592498D01*
X27221191Y-41589705D01*
X27450987Y-41545262D01*
X27669975Y-41462620D01*
X27871841Y-41344160D01*
X27871848Y-41344155D01*
X28050786Y-41193288D01*
X28050788Y-41193286D01*
X28201655Y-41014348D01*
X28201660Y-41014341D01*
X28320120Y-40812475D01*
X28402762Y-40593487D01*
X28447205Y-40363691D01*
X28447205Y-40363690D01*
X28449998Y-40311117D01*
X28450000Y-40311078D01*
X28450000Y-39592500D01*
X27633012Y-39592500D01*
X27665925Y-39535493D01*
X27700000Y-39408326D01*
X27700000Y-39276674D01*
X27665925Y-39149507D01*
X27633012Y-39092500D01*
X28449999Y-39092500D01*
X28449999Y-38373923D01*
X28449998Y-38373911D01*
X28447205Y-38321308D01*
X28402762Y-38091512D01*
X28320120Y-37872524D01*
X28201660Y-37670658D01*
X28201655Y-37670651D01*
X28050788Y-37491713D01*
X28050786Y-37491711D01*
X27871848Y-37340844D01*
X27871841Y-37340839D01*
X27669975Y-37222379D01*
X27450984Y-37139736D01*
X27445840Y-37138741D01*
X27383760Y-37106680D01*
X27348869Y-37046146D01*
X27352244Y-36976358D01*
X27392814Y-36919473D01*
X27457697Y-36893552D01*
X27469374Y-36892999D01*
X30997872Y-36892999D01*
X31057483Y-36886591D01*
X31192331Y-36836296D01*
X31307546Y-36750046D01*
X31393796Y-36634831D01*
X31444091Y-36499983D01*
X31450500Y-36440373D01*
X31450499Y-32844628D01*
X31444091Y-32785017D01*
X31404571Y-32679059D01*
X31393797Y-32650171D01*
X31393793Y-32650164D01*
X31307547Y-32534955D01*
X31307544Y-32534952D01*
X31192335Y-32448706D01*
X31192328Y-32448702D01*
X31057482Y-32398408D01*
X31057483Y-32398408D01*
X30997883Y-32392001D01*
X30997881Y-32392000D01*
X30997873Y-32392000D01*
X30997864Y-32392000D01*
X27402129Y-32392000D01*
X27402123Y-32392001D01*
X27342516Y-32398408D01*
X27207671Y-32448702D01*
X27207664Y-32448706D01*
X27092455Y-32534952D01*
X27092452Y-32534955D01*
X27006206Y-32650164D01*
X27006202Y-32650171D01*
X26955908Y-32785017D01*
X26949501Y-32844616D01*
X26949501Y-32844623D01*
X26949500Y-32844635D01*
X26949500Y-36440370D01*
X26949501Y-36440376D01*
X26955908Y-36499983D01*
X27006202Y-36634828D01*
X27006206Y-36634835D01*
X27092452Y-36750044D01*
X27092455Y-36750047D01*
X27207664Y-36836293D01*
X27207673Y-36836298D01*
X27256506Y-36854511D01*
X27312440Y-36896381D01*
X27336858Y-36961845D01*
X27322007Y-37030118D01*
X27272603Y-37079524D01*
X27206598Y-37094518D01*
X27168625Y-37092501D01*
X27168579Y-37092500D01*
X26450000Y-37092500D01*
X26450000Y-38842500D01*
X25950000Y-38842500D01*
X25950000Y-37092500D01*
X25231423Y-37092500D01*
X25231411Y-37092501D01*
X25178808Y-37095294D01*
X24949012Y-37139737D01*
X24730024Y-37222379D01*
X24528158Y-37340839D01*
X24528151Y-37340844D01*
X24349213Y-37491711D01*
X24349211Y-37491713D01*
X24198344Y-37670651D01*
X24198339Y-37670658D01*
X24079879Y-37872524D01*
X23997237Y-38091512D01*
X23952794Y-38321308D01*
X23952794Y-38321309D01*
X23950001Y-38373882D01*
X23950000Y-38373921D01*
X20500500Y-38373921D01*
X20500500Y-33578303D01*
X21200000Y-33578303D01*
X21200000Y-34392500D01*
X22700000Y-34392500D01*
X22700000Y-34892500D01*
X21200001Y-34892500D01*
X21200001Y-35706697D01*
X21210400Y-35838832D01*
X21265377Y-36057019D01*
X21358428Y-36261874D01*
X21358431Y-36261880D01*
X21486559Y-36446823D01*
X21486569Y-36446835D01*
X21645664Y-36605930D01*
X21645676Y-36605940D01*
X21830619Y-36734068D01*
X21830625Y-36734071D01*
X22035480Y-36827122D01*
X22253667Y-36882099D01*
X22385810Y-36892499D01*
X22949999Y-36892499D01*
X22950000Y-36892498D01*
X22950000Y-36075512D01*
X23007007Y-36108425D01*
X23134174Y-36142500D01*
X23265826Y-36142500D01*
X23392993Y-36108425D01*
X23450000Y-36075512D01*
X23450000Y-36892499D01*
X24014182Y-36892499D01*
X24014197Y-36892498D01*
X24146332Y-36882099D01*
X24364519Y-36827122D01*
X24569374Y-36734071D01*
X24569380Y-36734068D01*
X24754323Y-36605940D01*
X24754335Y-36605930D01*
X24913430Y-36446835D01*
X24913440Y-36446823D01*
X25041568Y-36261880D01*
X25041571Y-36261874D01*
X25134622Y-36057019D01*
X25189599Y-35838832D01*
X25199999Y-35706696D01*
X25200000Y-35706684D01*
X25200000Y-34892500D01*
X23700000Y-34892500D01*
X23700000Y-34392500D01*
X25199999Y-34392500D01*
X25199999Y-33578317D01*
X25199998Y-33578302D01*
X25189599Y-33446167D01*
X25134622Y-33227980D01*
X25041571Y-33023125D01*
X25041568Y-33023119D01*
X24913440Y-32838176D01*
X24913430Y-32838164D01*
X24754335Y-32679069D01*
X24754323Y-32679059D01*
X24569380Y-32550931D01*
X24569374Y-32550928D01*
X24364519Y-32457877D01*
X24146332Y-32402900D01*
X24014196Y-32392500D01*
X23450000Y-32392500D01*
X23450000Y-33209488D01*
X23392993Y-33176575D01*
X23265826Y-33142500D01*
X23134174Y-33142500D01*
X23007007Y-33176575D01*
X22950000Y-33209488D01*
X22950000Y-32392500D01*
X22385817Y-32392500D01*
X22385802Y-32392501D01*
X22253667Y-32402900D01*
X22035480Y-32457877D01*
X21830625Y-32550928D01*
X21830619Y-32550931D01*
X21645676Y-32679059D01*
X21645664Y-32679069D01*
X21486569Y-32838164D01*
X21486559Y-32838176D01*
X21358431Y-33023119D01*
X21358428Y-33023125D01*
X21265377Y-33227980D01*
X21210400Y-33446167D01*
X21200000Y-33578303D01*
X20500500Y-33578303D01*
X20500500Y-29061303D01*
X32899500Y-29061303D01*
X32899500Y-29238696D01*
X32934103Y-29412658D01*
X32934105Y-29412666D01*
X33001988Y-29576548D01*
X33100534Y-29724034D01*
X33100540Y-29724041D01*
X33225958Y-29849459D01*
X33225965Y-29849465D01*
X33373451Y-29948011D01*
X33373452Y-29948011D01*
X33373453Y-29948012D01*
X33537334Y-30015895D01*
X33711303Y-30050499D01*
X33711307Y-30050500D01*
X33711308Y-30050500D01*
X33888693Y-30050500D01*
X33888694Y-30050499D01*
X34062666Y-30015895D01*
X34226547Y-29948012D01*
X34374036Y-29849464D01*
X37337319Y-26886181D01*
X37398642Y-26852696D01*
X37468334Y-26857680D01*
X37512681Y-26886181D01*
X38325966Y-27699466D01*
X38360326Y-27722423D01*
X38385040Y-27738936D01*
X38473453Y-27798013D01*
X38555393Y-27831953D01*
X38561480Y-27834474D01*
X38561485Y-27834477D01*
X38597940Y-27849577D01*
X38637334Y-27865895D01*
X38811303Y-27900499D01*
X38811307Y-27900500D01*
X38811308Y-27900500D01*
X39288693Y-27900500D01*
X39288694Y-27900499D01*
X39346682Y-27888964D01*
X39462658Y-27865896D01*
X39462661Y-27865894D01*
X39462666Y-27865894D01*
X39626547Y-27798013D01*
X39774035Y-27699464D01*
X39899464Y-27574035D01*
X39998013Y-27426547D01*
X40065894Y-27262666D01*
X40071892Y-27232516D01*
X40100499Y-27088695D01*
X40100500Y-27088693D01*
X40100500Y-26911306D01*
X40100499Y-26911304D01*
X40065896Y-26737341D01*
X40065893Y-26737332D01*
X39998016Y-26573459D01*
X39998009Y-26573446D01*
X39899464Y-26425965D01*
X39899461Y-26425961D01*
X39774038Y-26300538D01*
X39774034Y-26300535D01*
X39626553Y-26201990D01*
X39626540Y-26201983D01*
X39462667Y-26134106D01*
X39462659Y-26134104D01*
X39305994Y-26102941D01*
X39244083Y-26070556D01*
X39242505Y-26069005D01*
X38763278Y-25589778D01*
X42849500Y-25589778D01*
X42849500Y-25810221D01*
X42883985Y-26027952D01*
X42952103Y-26237603D01*
X42952104Y-26237606D01*
X43052187Y-26434025D01*
X43181752Y-26612358D01*
X43181756Y-26612363D01*
X43231928Y-26662535D01*
X43265413Y-26723858D01*
X43260429Y-26793550D01*
X43218557Y-26849483D01*
X43187581Y-26866398D01*
X43107669Y-26896203D01*
X43107664Y-26896206D01*
X42992455Y-26982452D01*
X42992452Y-26982455D01*
X42906206Y-27097664D01*
X42906202Y-27097671D01*
X42855908Y-27232517D01*
X42852667Y-27262667D01*
X42849501Y-27292123D01*
X42849500Y-27292135D01*
X42849500Y-29187870D01*
X42849501Y-29187876D01*
X42855908Y-29247483D01*
X42906202Y-29382328D01*
X42906206Y-29382335D01*
X42992452Y-29497544D01*
X42992455Y-29497547D01*
X43107664Y-29583793D01*
X43107671Y-29583797D01*
X43242517Y-29634091D01*
X43242516Y-29634091D01*
X43249444Y-29634835D01*
X43302127Y-29640500D01*
X45197872Y-29640499D01*
X45257483Y-29634091D01*
X45392331Y-29583796D01*
X45507546Y-29497546D01*
X45593796Y-29382331D01*
X45644091Y-29247483D01*
X45650500Y-29187873D01*
X45650499Y-27292128D01*
X45644091Y-27232517D01*
X45593796Y-27097669D01*
X45593795Y-27097668D01*
X45593793Y-27097664D01*
X45507547Y-26982455D01*
X45507544Y-26982452D01*
X45392335Y-26896206D01*
X45392328Y-26896202D01*
X45312419Y-26866398D01*
X45256485Y-26824527D01*
X45232068Y-26759062D01*
X45246920Y-26690789D01*
X45268069Y-26662537D01*
X45318242Y-26612365D01*
X45447815Y-26434022D01*
X45547895Y-26237606D01*
X45616015Y-26027951D01*
X45650500Y-25810222D01*
X45650500Y-25589778D01*
X45616015Y-25372049D01*
X45550436Y-25170214D01*
X45547896Y-25162396D01*
X45547895Y-25162393D01*
X45472374Y-25014178D01*
X45447815Y-24965978D01*
X45405447Y-24907663D01*
X45318247Y-24787641D01*
X45318243Y-24787636D01*
X45162363Y-24631756D01*
X45162358Y-24631752D01*
X44984025Y-24502187D01*
X44984024Y-24502186D01*
X44984022Y-24502185D01*
X44921096Y-24470122D01*
X44787606Y-24402104D01*
X44787603Y-24402103D01*
X44577952Y-24333985D01*
X44469086Y-24316742D01*
X44360222Y-24299500D01*
X44139778Y-24299500D01*
X44067201Y-24310995D01*
X43922047Y-24333985D01*
X43712396Y-24402103D01*
X43712393Y-24402104D01*
X43515974Y-24502187D01*
X43337641Y-24631752D01*
X43337636Y-24631756D01*
X43181756Y-24787636D01*
X43181752Y-24787641D01*
X43052187Y-24965974D01*
X42952104Y-25162393D01*
X42952103Y-25162396D01*
X42883985Y-25372047D01*
X42849500Y-25589778D01*
X38763278Y-25589778D01*
X38224035Y-25050535D01*
X38224030Y-25050531D01*
X38169622Y-25014178D01*
X38169616Y-25014175D01*
X38164959Y-25011063D01*
X38076547Y-24951987D01*
X37994606Y-24918046D01*
X37969539Y-24907663D01*
X37912666Y-24884105D01*
X37912658Y-24884103D01*
X37738696Y-24849500D01*
X37738692Y-24849500D01*
X37738691Y-24849500D01*
X37288692Y-24849500D01*
X37111308Y-24849500D01*
X37111303Y-24849500D01*
X36937341Y-24884103D01*
X36937329Y-24884106D01*
X36855392Y-24918045D01*
X36855393Y-24918046D01*
X36773455Y-24951985D01*
X36685040Y-25011063D01*
X36685039Y-25011064D01*
X36625961Y-25050537D01*
X33100540Y-28575958D01*
X33100534Y-28575965D01*
X33001988Y-28723451D01*
X32934105Y-28887333D01*
X32934103Y-28887341D01*
X32899500Y-29061303D01*
X20500500Y-29061303D01*
X20500500Y-24878711D01*
X23149500Y-24878711D01*
X23149500Y-25121288D01*
X23181161Y-25361785D01*
X23243947Y-25596104D01*
X23332638Y-25810222D01*
X23336776Y-25820212D01*
X23458064Y-26030289D01*
X23458066Y-26030292D01*
X23458067Y-26030293D01*
X23605733Y-26222736D01*
X23605739Y-26222743D01*
X23777256Y-26394260D01*
X23777262Y-26394265D01*
X23969711Y-26541936D01*
X24179788Y-26663224D01*
X24403900Y-26756054D01*
X24638211Y-26818838D01*
X24795165Y-26839501D01*
X24878711Y-26850500D01*
X24878712Y-26850500D01*
X25121289Y-26850500D01*
X25169388Y-26844167D01*
X25361789Y-26818838D01*
X25596100Y-26756054D01*
X25820212Y-26663224D01*
X26030289Y-26541936D01*
X26222738Y-26394265D01*
X26394265Y-26222738D01*
X26541936Y-26030289D01*
X26663224Y-25820212D01*
X26756054Y-25596100D01*
X26818838Y-25361789D01*
X26850500Y-25121288D01*
X26850500Y-24878712D01*
X26847871Y-24858746D01*
X26837000Y-24776171D01*
X26818838Y-24638211D01*
X26756054Y-24403900D01*
X26755310Y-24402105D01*
X26683489Y-24228712D01*
X26683489Y-24228711D01*
X63149500Y-24228711D01*
X63149500Y-24471288D01*
X63181161Y-24711785D01*
X63243947Y-24946104D01*
X63336773Y-25170205D01*
X63336776Y-25170212D01*
X63458064Y-25380289D01*
X63458066Y-25380292D01*
X63458067Y-25380293D01*
X63605733Y-25572736D01*
X63605739Y-25572743D01*
X63777256Y-25744260D01*
X63777262Y-25744265D01*
X63969711Y-25891936D01*
X64179788Y-26013224D01*
X64314456Y-26069005D01*
X64396384Y-26102941D01*
X64403900Y-26106054D01*
X64638211Y-26168838D01*
X64818586Y-26192584D01*
X64878711Y-26200500D01*
X64878712Y-26200500D01*
X65121289Y-26200500D01*
X65169388Y-26194167D01*
X65361789Y-26168838D01*
X65596100Y-26106054D01*
X65820212Y-26013224D01*
X66030289Y-25891936D01*
X66222738Y-25744265D01*
X66394265Y-25572738D01*
X66541936Y-25380289D01*
X66663224Y-25170212D01*
X66756054Y-24946100D01*
X66818838Y-24711789D01*
X66850500Y-24471288D01*
X66850500Y-24228712D01*
X66847232Y-24203892D01*
X66842584Y-24168586D01*
X66818838Y-23988211D01*
X66756054Y-23753900D01*
X66663224Y-23529788D01*
X66541936Y-23319711D01*
X66411329Y-23149500D01*
X66394266Y-23127263D01*
X66394260Y-23127256D01*
X66222743Y-22955739D01*
X66222736Y-22955733D01*
X66030293Y-22808067D01*
X66030292Y-22808066D01*
X66030289Y-22808064D01*
X65820212Y-22686776D01*
X65766298Y-22664444D01*
X65596104Y-22593947D01*
X65361785Y-22531161D01*
X65121289Y-22499500D01*
X65121288Y-22499500D01*
X64878712Y-22499500D01*
X64878711Y-22499500D01*
X64638214Y-22531161D01*
X64403895Y-22593947D01*
X64179794Y-22686773D01*
X64179785Y-22686777D01*
X63969706Y-22808067D01*
X63777263Y-22955733D01*
X63777256Y-22955739D01*
X63605739Y-23127256D01*
X63605733Y-23127263D01*
X63458067Y-23319706D01*
X63336777Y-23529785D01*
X63336773Y-23529794D01*
X63243947Y-23753895D01*
X63181161Y-23988214D01*
X63149500Y-24228711D01*
X26683489Y-24228711D01*
X26663224Y-24179788D01*
X26541936Y-23969711D01*
X26394265Y-23777262D01*
X26394260Y-23777256D01*
X26222743Y-23605739D01*
X26222736Y-23605733D01*
X26030293Y-23458067D01*
X26030292Y-23458066D01*
X26030289Y-23458064D01*
X25820212Y-23336776D01*
X25820205Y-23336773D01*
X25596104Y-23243947D01*
X25361785Y-23181161D01*
X25121289Y-23149500D01*
X25121288Y-23149500D01*
X24878712Y-23149500D01*
X24878711Y-23149500D01*
X24638214Y-23181161D01*
X24403895Y-23243947D01*
X24179794Y-23336773D01*
X24179785Y-23336777D01*
X23969706Y-23458067D01*
X23777263Y-23605733D01*
X23777256Y-23605739D01*
X23605739Y-23777256D01*
X23605733Y-23777263D01*
X23458067Y-23969706D01*
X23336777Y-24179785D01*
X23336773Y-24179794D01*
X23243947Y-24403895D01*
X23181161Y-24638214D01*
X23149500Y-24878711D01*
X20500500Y-24878711D01*
X20500500Y-24860838D01*
X20500570Y-24856666D01*
X20503280Y-24776171D01*
X20505687Y-24704666D01*
X20506397Y-24694961D01*
X20506681Y-24692440D01*
X20550795Y-24300926D01*
X20552528Y-24289976D01*
X20631370Y-23904916D01*
X20634080Y-23894165D01*
X20747122Y-23517718D01*
X20750780Y-23507263D01*
X20897110Y-23142465D01*
X20901691Y-23132379D01*
X21080130Y-22782176D01*
X21085619Y-22772503D01*
X21085620Y-22772502D01*
X21294717Y-22439723D01*
X21301032Y-22430608D01*
X21539143Y-22117881D01*
X21546241Y-22109379D01*
X21811422Y-21819259D01*
X21819259Y-21811422D01*
X22109379Y-21546242D01*
X22117896Y-21539132D01*
X22430592Y-21301044D01*
X22439722Y-21294718D01*
X22772506Y-21085616D01*
X22782179Y-21080128D01*
X22817063Y-21062354D01*
X23132364Y-20901699D01*
X23142492Y-20897100D01*
X23340694Y-20817596D01*
X23507246Y-20750787D01*
X23517733Y-20747117D01*
X23894170Y-20634078D01*
X23904916Y-20631370D01*
X24289979Y-20552528D01*
X24300926Y-20550795D01*
X24694962Y-20506397D01*
X24704662Y-20505688D01*
X24856659Y-20500569D01*
X24860832Y-20500500D01*
X65139160Y-20500500D01*
X65143332Y-20500570D01*
G37*
%TD.AperFunction*%
%TD*%
M02*
