%TF.GenerationSoftware,KiCad,Pcbnew,10.0.0*%
%TF.CreationDate,2026-10-03T01:13:26-03:00*%
%TF.ProjectId,chufe-v-0-rev-a,63687566-652d-4762-9d30-2d7265762d61,rev-a*%
%TF.SameCoordinates,Original*%
%TF.FileFunction,Legend,Top*%
%TF.FilePolarity,Positive*%
%FSLAX46Y46*%
G04 Gerber Fmt 4.6, Leading zero omitted, Abs format (unit mm)*
G04 Created by KiCad (PCBNEW 10.0.0) date 2026-10-03 01:13:26*
%MOMM*%
%LPD*%
G01*
G04 APERTURE LIST*
%ADD10C,0.300000*%
%ADD11C,0.000000*%
%ADD12C,0.150000*%
%ADD13C,0.120000*%
%ADD14C,0.250000*%
%ADD15C,0.060000*%
G04 APERTURE END LIST*
D10*
G36*
X29143614Y-83745000D02*
G01*
X29649655Y-83745000D01*
X29673327Y-83742044D01*
X29690646Y-83733080D01*
X29705684Y-83704967D01*
X29707174Y-83687480D01*
X29707174Y-83427087D01*
X29704219Y-83403452D01*
X29695255Y-83386132D01*
X29667116Y-83371059D01*
X29649655Y-83369568D01*
X29226321Y-83369568D01*
X29229258Y-83331977D01*
X29238091Y-83297804D01*
X29251679Y-83268989D01*
X29270457Y-83243117D01*
X29300693Y-83215328D01*
X29567406Y-83011538D01*
X29603709Y-82980094D01*
X29633518Y-82945838D01*
X29655367Y-82911508D01*
X29672305Y-82873805D01*
X29692583Y-82785059D01*
X29694626Y-82763693D01*
X29695590Y-82603398D01*
X29692520Y-82505131D01*
X29686906Y-82452150D01*
X29675688Y-82405712D01*
X29660925Y-82369802D01*
X29641614Y-82338950D01*
X29619366Y-82314596D01*
X29593047Y-82294574D01*
X29527737Y-82267249D01*
X29439225Y-82256677D01*
X29433408Y-82256645D01*
X29324140Y-82256645D01*
X29273073Y-82259590D01*
X29228265Y-82268481D01*
X29193802Y-82281365D01*
X29164130Y-82299023D01*
X29140674Y-82319908D01*
X29121325Y-82345067D01*
X29094616Y-82409098D01*
X29084033Y-82498264D01*
X29083989Y-82505223D01*
X29092506Y-82806374D01*
X29224123Y-82806374D01*
X29228959Y-82752816D01*
X29239524Y-82709802D01*
X29252407Y-82682396D01*
X29269319Y-82661229D01*
X29310529Y-82637885D01*
X29355648Y-82632076D01*
X29437622Y-82632076D01*
X29474948Y-82635076D01*
X29505525Y-82644352D01*
X29525500Y-82656816D01*
X29541139Y-82673931D01*
X29559285Y-82720962D01*
X29562735Y-82763510D01*
X29559782Y-82792323D01*
X29550836Y-82819525D01*
X29515461Y-82869307D01*
X29479937Y-82899706D01*
X29209010Y-83107709D01*
X29173929Y-83138431D01*
X29144776Y-83172300D01*
X29123004Y-83206823D01*
X29106282Y-83244608D01*
X29087924Y-83330559D01*
X29086095Y-83372499D01*
X29086095Y-83687480D01*
X29089050Y-83711153D01*
X29098014Y-83728472D01*
X29126128Y-83743510D01*
X29143614Y-83745000D01*
G37*
G36*
X30255677Y-82852776D02*
G01*
X30272208Y-82859518D01*
X30284533Y-82870667D01*
X30293032Y-82887496D01*
X30295922Y-82908407D01*
X30295922Y-83105785D01*
X30294010Y-83123162D01*
X30287246Y-83139692D01*
X30276078Y-83152020D01*
X30259271Y-83160509D01*
X30238402Y-83163396D01*
X30114480Y-83163396D01*
X30096381Y-83161099D01*
X30080219Y-83153842D01*
X30067926Y-83142130D01*
X30059797Y-83125795D01*
X30056960Y-83105785D01*
X30056960Y-82908407D01*
X30058849Y-82891132D01*
X30065591Y-82874601D01*
X30076740Y-82862276D01*
X30093569Y-82853777D01*
X30114480Y-82850887D01*
X30238402Y-82850887D01*
X30255677Y-82852776D01*
G37*
G36*
X30240047Y-82256665D02*
G01*
X30319919Y-82268329D01*
X30385137Y-82299644D01*
X30412361Y-82322304D01*
X30435620Y-82349361D01*
X30455090Y-82381416D01*
X30469939Y-82417685D01*
X30480175Y-82459374D01*
X30484965Y-82505131D01*
X30493300Y-83007142D01*
X30484965Y-83509153D01*
X30484730Y-83514065D01*
X30469440Y-83598081D01*
X30435745Y-83664710D01*
X30412595Y-83691715D01*
X30385504Y-83714356D01*
X30354099Y-83732733D01*
X30319066Y-83746201D01*
X30279363Y-83754744D01*
X30236296Y-83757639D01*
X30116586Y-83757639D01*
X30112781Y-83757618D01*
X30032935Y-83745937D01*
X29967730Y-83714599D01*
X29940514Y-83691927D01*
X29917266Y-83664862D01*
X29897811Y-83632805D01*
X29882982Y-83596540D01*
X29872771Y-83554874D01*
X29868008Y-83509153D01*
X29859582Y-83007142D01*
X29985153Y-83007142D01*
X29987260Y-83225403D01*
X29988520Y-83245138D01*
X30003685Y-83309528D01*
X30034287Y-83353499D01*
X30057669Y-83370416D01*
X30086197Y-83382820D01*
X30126870Y-83391798D01*
X30175388Y-83394755D01*
X30177494Y-83394755D01*
X30200745Y-83394117D01*
X30271193Y-83380970D01*
X30318886Y-83352567D01*
X30337114Y-83331115D01*
X30350758Y-83305072D01*
X30361123Y-83268537D01*
X30365622Y-83225403D01*
X30369836Y-83007142D01*
X30365622Y-82788789D01*
X30364396Y-82769473D01*
X30349094Y-82705139D01*
X30318079Y-82660879D01*
X30294485Y-82643847D01*
X30265829Y-82631372D01*
X30225403Y-82622394D01*
X30177494Y-82619437D01*
X30175388Y-82619437D01*
X30152276Y-82620068D01*
X30081819Y-82633195D01*
X30034100Y-82661592D01*
X30015854Y-82683045D01*
X30002188Y-82709094D01*
X29991793Y-82745640D01*
X29987260Y-82788789D01*
X29985153Y-83007142D01*
X29859582Y-83007142D01*
X29868008Y-82505131D01*
X29868242Y-82500183D01*
X29883485Y-82416174D01*
X29917135Y-82349563D01*
X29940269Y-82322564D01*
X29967345Y-82299929D01*
X29998747Y-82281552D01*
X30033779Y-82268085D01*
X30073499Y-82259540D01*
X30116586Y-82256645D01*
X30236296Y-82256645D01*
X30240047Y-82256665D01*
G37*
G36*
X30705792Y-83745000D02*
G01*
X31211832Y-83745000D01*
X31235505Y-83742044D01*
X31252824Y-83733080D01*
X31267862Y-83704967D01*
X31269351Y-83687480D01*
X31269351Y-83427087D01*
X31266396Y-83403452D01*
X31257432Y-83386132D01*
X31229294Y-83371059D01*
X31211832Y-83369568D01*
X30788498Y-83369568D01*
X30791435Y-83331977D01*
X30800268Y-83297804D01*
X30813856Y-83268989D01*
X30832634Y-83243117D01*
X30862870Y-83215328D01*
X31129583Y-83011538D01*
X31165886Y-82980094D01*
X31195695Y-82945838D01*
X31217545Y-82911508D01*
X31234482Y-82873805D01*
X31254760Y-82785059D01*
X31256803Y-82763693D01*
X31257767Y-82603398D01*
X31254697Y-82505131D01*
X31249084Y-82452150D01*
X31237865Y-82405712D01*
X31223102Y-82369802D01*
X31203791Y-82338950D01*
X31181543Y-82314596D01*
X31155224Y-82294574D01*
X31089914Y-82267249D01*
X31001403Y-82256677D01*
X30995586Y-82256645D01*
X30886318Y-82256645D01*
X30835251Y-82259590D01*
X30790442Y-82268481D01*
X30755980Y-82281365D01*
X30726307Y-82299023D01*
X30702851Y-82319908D01*
X30683502Y-82345067D01*
X30656793Y-82409098D01*
X30646210Y-82498264D01*
X30646166Y-82505223D01*
X30654684Y-82806374D01*
X30786300Y-82806374D01*
X30791136Y-82752816D01*
X30801701Y-82709802D01*
X30814584Y-82682396D01*
X30831497Y-82661229D01*
X30872706Y-82637885D01*
X30917825Y-82632076D01*
X30999799Y-82632076D01*
X31037125Y-82635076D01*
X31067702Y-82644352D01*
X31087677Y-82656816D01*
X31103316Y-82673931D01*
X31121462Y-82720962D01*
X31124912Y-82763510D01*
X31121959Y-82792323D01*
X31113013Y-82819525D01*
X31077638Y-82869307D01*
X31042114Y-82899706D01*
X30771188Y-83107709D01*
X30736106Y-83138431D01*
X30706953Y-83172300D01*
X30685181Y-83206823D01*
X30668459Y-83244608D01*
X30650101Y-83330559D01*
X30648272Y-83372499D01*
X30648272Y-83687480D01*
X30651228Y-83711153D01*
X30660192Y-83728472D01*
X30688305Y-83743510D01*
X30705792Y-83745000D01*
G37*
G36*
X31887194Y-82266479D02*
G01*
X31951097Y-82293156D01*
X31976823Y-82312942D01*
X31998485Y-82337100D01*
X32017293Y-82367997D01*
X32031522Y-82404066D01*
X32042181Y-82451201D01*
X32047143Y-82505131D01*
X32047120Y-82629523D01*
X32040640Y-82781187D01*
X31911130Y-82781187D01*
X31906034Y-82727312D01*
X31887732Y-82670785D01*
X31873919Y-82652125D01*
X31856859Y-82638817D01*
X31830388Y-82628855D01*
X31798473Y-82625757D01*
X31676657Y-82625757D01*
X31645917Y-82627916D01*
X31599460Y-82644632D01*
X31582198Y-82659789D01*
X31569311Y-82679484D01*
X31559561Y-82708819D01*
X31555665Y-82744733D01*
X31549437Y-83023079D01*
X31575082Y-83023079D01*
X31580425Y-82989240D01*
X31589336Y-82973205D01*
X31602599Y-82961283D01*
X31623921Y-82952546D01*
X31651469Y-82949623D01*
X31781712Y-82949623D01*
X31868410Y-82959138D01*
X31933112Y-82985772D01*
X31959298Y-83005580D01*
X31981463Y-83029782D01*
X32000750Y-83060566D01*
X32015517Y-83096471D01*
X32026749Y-83142902D01*
X32032397Y-83195911D01*
X32032722Y-83203049D01*
X32036610Y-83326337D01*
X32028183Y-83513457D01*
X32012748Y-83598157D01*
X31981867Y-83666465D01*
X31936756Y-83714694D01*
X31907176Y-83732723D01*
X31873445Y-83745847D01*
X31831223Y-83754700D01*
X31783818Y-83757639D01*
X31657789Y-83757639D01*
X31582680Y-83749604D01*
X31520679Y-83724165D01*
X31495583Y-83704763D01*
X31474473Y-83680882D01*
X31456169Y-83650116D01*
X31442433Y-83614078D01*
X31432391Y-83567080D01*
X31428079Y-83513274D01*
X31424630Y-83238226D01*
X31551543Y-83238226D01*
X31552588Y-83265136D01*
X31553650Y-83292631D01*
X31564418Y-83332557D01*
X31578024Y-83348013D01*
X31597360Y-83359466D01*
X31631690Y-83368683D01*
X31676657Y-83371674D01*
X31777499Y-83371674D01*
X31798508Y-83371108D01*
X31855566Y-83359911D01*
X31886419Y-83336432D01*
X31895436Y-83316906D01*
X31898399Y-83292723D01*
X31898399Y-83248576D01*
X31889528Y-83210323D01*
X31876888Y-83195124D01*
X31858468Y-83183814D01*
X31825421Y-83174707D01*
X31781712Y-83171731D01*
X31668322Y-83171731D01*
X31601463Y-83180355D01*
X31566653Y-83201480D01*
X31556283Y-83218012D01*
X31551543Y-83238226D01*
X31424630Y-83238226D01*
X31421759Y-83009248D01*
X31428079Y-82505131D01*
X31428263Y-82499065D01*
X31440965Y-82409664D01*
X31469373Y-82345364D01*
X31489509Y-82320085D01*
X31513722Y-82299108D01*
X31544149Y-82281399D01*
X31579345Y-82268483D01*
X31624882Y-82259590D01*
X31676657Y-82256645D01*
X31798473Y-82256645D01*
X31887194Y-82266479D01*
G37*
G36*
X32257069Y-83133995D02*
G01*
X32761004Y-83133995D01*
X32780977Y-83131160D01*
X32797291Y-83123038D01*
X32809018Y-83110740D01*
X32816294Y-83094576D01*
X32818614Y-83076385D01*
X32818614Y-82937807D01*
X32815779Y-82917844D01*
X32807657Y-82901554D01*
X32795362Y-82889857D01*
X32779204Y-82882603D01*
X32761004Y-82880288D01*
X32257069Y-82880288D01*
X32237070Y-82883124D01*
X32220759Y-82891254D01*
X32209076Y-82903543D01*
X32201842Y-82919701D01*
X32199550Y-82937807D01*
X32199550Y-83076385D01*
X32202439Y-83097307D01*
X32210939Y-83114162D01*
X32223266Y-83125339D01*
X32239801Y-83132101D01*
X32257069Y-83133995D01*
G37*
G36*
X33038158Y-83745000D02*
G01*
X33586239Y-83745000D01*
X33609912Y-83742044D01*
X33627230Y-83733080D01*
X33642268Y-83704967D01*
X33643758Y-83687480D01*
X33643758Y-83427087D01*
X33640803Y-83403452D01*
X33631839Y-83386132D01*
X33603701Y-83371059D01*
X33586239Y-83369568D01*
X33389685Y-83369568D01*
X33389685Y-82269193D01*
X33259625Y-82269193D01*
X33013154Y-82479852D01*
X32996990Y-82497082D01*
X32986710Y-82518344D01*
X32980639Y-82568237D01*
X32980639Y-82799230D01*
X32983560Y-82832772D01*
X32992286Y-82852944D01*
X33001275Y-82858838D01*
X33012788Y-82858642D01*
X33045001Y-82838190D01*
X33052813Y-82830737D01*
X33240941Y-82644624D01*
X33259900Y-82644624D01*
X33259900Y-83369568D01*
X33038158Y-83369568D01*
X33014536Y-83372520D01*
X32997237Y-83381459D01*
X32982146Y-83409542D01*
X32980639Y-83427087D01*
X32980639Y-83687480D01*
X32983594Y-83711153D01*
X32992558Y-83728472D01*
X33020671Y-83743510D01*
X33038158Y-83745000D01*
G37*
G36*
X34150862Y-82852776D02*
G01*
X34167393Y-82859518D01*
X34179718Y-82870667D01*
X34188217Y-82887496D01*
X34191106Y-82908407D01*
X34191106Y-83105785D01*
X34189195Y-83123162D01*
X34182431Y-83139692D01*
X34171262Y-83152020D01*
X34154456Y-83160509D01*
X34133587Y-83163396D01*
X34009665Y-83163396D01*
X33991566Y-83161099D01*
X33975404Y-83153842D01*
X33963111Y-83142130D01*
X33954981Y-83125795D01*
X33952145Y-83105785D01*
X33952145Y-82908407D01*
X33954034Y-82891132D01*
X33960776Y-82874601D01*
X33971925Y-82862276D01*
X33988754Y-82853777D01*
X34009665Y-82850887D01*
X34133587Y-82850887D01*
X34150862Y-82852776D01*
G37*
G36*
X34135232Y-82256665D02*
G01*
X34215104Y-82268329D01*
X34280322Y-82299644D01*
X34307546Y-82322304D01*
X34330805Y-82349361D01*
X34350275Y-82381416D01*
X34365124Y-82417685D01*
X34375360Y-82459374D01*
X34380150Y-82505131D01*
X34388485Y-83007142D01*
X34380150Y-83509153D01*
X34379915Y-83514065D01*
X34364625Y-83598081D01*
X34330930Y-83664710D01*
X34307780Y-83691715D01*
X34280689Y-83714356D01*
X34249284Y-83732733D01*
X34214251Y-83746201D01*
X34174548Y-83754744D01*
X34131481Y-83757639D01*
X34011771Y-83757639D01*
X34007966Y-83757618D01*
X33928120Y-83745937D01*
X33862915Y-83714599D01*
X33835699Y-83691927D01*
X33812451Y-83664862D01*
X33792996Y-83632805D01*
X33778167Y-83596540D01*
X33767956Y-83554874D01*
X33763193Y-83509153D01*
X33754767Y-83007142D01*
X33880338Y-83007142D01*
X33882445Y-83225403D01*
X33883705Y-83245138D01*
X33898870Y-83309528D01*
X33929472Y-83353499D01*
X33952854Y-83370416D01*
X33981382Y-83382820D01*
X34022055Y-83391798D01*
X34070573Y-83394755D01*
X34072679Y-83394755D01*
X34095930Y-83394117D01*
X34166378Y-83380970D01*
X34214071Y-83352567D01*
X34232299Y-83331115D01*
X34245943Y-83305072D01*
X34256308Y-83268537D01*
X34260807Y-83225403D01*
X34265020Y-83007142D01*
X34260807Y-82788789D01*
X34259581Y-82769473D01*
X34244279Y-82705139D01*
X34213264Y-82660879D01*
X34189669Y-82643847D01*
X34161014Y-82631372D01*
X34120588Y-82622394D01*
X34072679Y-82619437D01*
X34070573Y-82619437D01*
X34047461Y-82620068D01*
X33977004Y-82633195D01*
X33929285Y-82661592D01*
X33911039Y-82683045D01*
X33897373Y-82709094D01*
X33886978Y-82745640D01*
X33882445Y-82788789D01*
X33880338Y-83007142D01*
X33754767Y-83007142D01*
X33763193Y-82505131D01*
X33763427Y-82500183D01*
X33778670Y-82416174D01*
X33812320Y-82349563D01*
X33835454Y-82322564D01*
X33862530Y-82299929D01*
X33893932Y-82281552D01*
X33928964Y-82268085D01*
X33968684Y-82259540D01*
X34011771Y-82256645D01*
X34131481Y-82256645D01*
X34135232Y-82256665D01*
G37*
G36*
X32456133Y-80269197D02*
G01*
X32536411Y-80280388D01*
X32602063Y-80311419D01*
X32629680Y-80334148D01*
X32653310Y-80361321D01*
X32673337Y-80393816D01*
X32688732Y-80430589D01*
X32699620Y-80473131D01*
X32705068Y-80519786D01*
X32711387Y-80763510D01*
X32705068Y-81007325D01*
X32690741Y-81098067D01*
X32657886Y-81175019D01*
X32608977Y-81234004D01*
X32578619Y-81256963D01*
X32544599Y-81275239D01*
X32506137Y-81288915D01*
X32464183Y-81297302D01*
X32471877Y-81338335D01*
X32487896Y-81369939D01*
X32504794Y-81379208D01*
X32527839Y-81382207D01*
X32643335Y-81382207D01*
X32661535Y-81384522D01*
X32677694Y-81391776D01*
X32689989Y-81403473D01*
X32698111Y-81419764D01*
X32700946Y-81439726D01*
X32700946Y-81687480D01*
X32698648Y-81705578D01*
X32691392Y-81721741D01*
X32679680Y-81734034D01*
X32663345Y-81742163D01*
X32643335Y-81745000D01*
X32592960Y-81745000D01*
X32545330Y-81741649D01*
X32477681Y-81721058D01*
X32449377Y-81703712D01*
X32424659Y-81681616D01*
X32402224Y-81652801D01*
X32383796Y-81618521D01*
X32367912Y-81573747D01*
X32356930Y-81522067D01*
X32329727Y-81364713D01*
X32313740Y-81333109D01*
X32296850Y-81323840D01*
X32273765Y-81320841D01*
X32215788Y-81320841D01*
X32215788Y-81745000D01*
X32083989Y-81745000D01*
X32083989Y-80962171D01*
X32215788Y-80962171D01*
X32393475Y-80962171D01*
X32452276Y-80962171D01*
X32482952Y-80959656D01*
X32526839Y-80941972D01*
X32543230Y-80926212D01*
X32555413Y-80905776D01*
X32564041Y-80876689D01*
X32566948Y-80841270D01*
X32566948Y-80757190D01*
X32565165Y-80730352D01*
X32548777Y-80684028D01*
X32533749Y-80666957D01*
X32514384Y-80654459D01*
X32486184Y-80645476D01*
X32452276Y-80642518D01*
X32215788Y-80642518D01*
X32215788Y-80962171D01*
X32083989Y-80962171D01*
X32083989Y-80326712D01*
X32085877Y-80309437D01*
X32092619Y-80292906D01*
X32103768Y-80280581D01*
X32120597Y-80272082D01*
X32141508Y-80269193D01*
X32454383Y-80269193D01*
X32456133Y-80269197D01*
G37*
G36*
X32899149Y-81745000D02*
G01*
X33354815Y-81745000D01*
X33375725Y-81742110D01*
X33392555Y-81733611D01*
X33403703Y-81721286D01*
X33410445Y-81704755D01*
X33412334Y-81687480D01*
X33412334Y-81429193D01*
X33409498Y-81409194D01*
X33401368Y-81392883D01*
X33389079Y-81381200D01*
X33372921Y-81373966D01*
X33354815Y-81371674D01*
X32969216Y-81371674D01*
X32969216Y-81257827D01*
X33258186Y-81257827D01*
X33278186Y-81254990D01*
X33294497Y-81246861D01*
X33306179Y-81234572D01*
X33313414Y-81218414D01*
X33315705Y-81200307D01*
X33315705Y-80944127D01*
X33312869Y-80924128D01*
X33304740Y-80907817D01*
X33292450Y-80896134D01*
X33276293Y-80888900D01*
X33258186Y-80886608D01*
X32969216Y-80886608D01*
X32969216Y-80642518D01*
X33346388Y-80642518D01*
X33367299Y-80639629D01*
X33384128Y-80631129D01*
X33395277Y-80618804D01*
X33402019Y-80602273D01*
X33403907Y-80584999D01*
X33403907Y-80326712D01*
X33401018Y-80305801D01*
X33392519Y-80288972D01*
X33380194Y-80277823D01*
X33363663Y-80271081D01*
X33346388Y-80269193D01*
X32899149Y-80269193D01*
X32878238Y-80272082D01*
X32861409Y-80280581D01*
X32850260Y-80292906D01*
X32843519Y-80309437D01*
X32841630Y-80326712D01*
X32841630Y-81687480D01*
X32844466Y-81707480D01*
X32852595Y-81723791D01*
X32864885Y-81735474D01*
X32881042Y-81742708D01*
X32899149Y-81745000D01*
G37*
G36*
X33689946Y-81745000D02*
G01*
X33973421Y-81745000D01*
X33994386Y-81742132D01*
X34011373Y-81733782D01*
X34023125Y-81721438D01*
X34030551Y-81704991D01*
X34033046Y-81689770D01*
X34165579Y-80269193D01*
X34033779Y-80269193D01*
X33938982Y-81185378D01*
X33930639Y-81232122D01*
X33917215Y-81268559D01*
X33902806Y-81290194D01*
X33884811Y-81305740D01*
X33842129Y-81318868D01*
X33832737Y-81319193D01*
X33805041Y-81316238D01*
X33781743Y-81307276D01*
X33750394Y-81276011D01*
X33729918Y-81220316D01*
X33724385Y-81185378D01*
X33631694Y-80269193D01*
X33499803Y-80269193D01*
X33630321Y-81689770D01*
X33634459Y-81710059D01*
X33643723Y-81726051D01*
X33673539Y-81743306D01*
X33689946Y-81745000D01*
G37*
G36*
X34987085Y-80257075D02*
G01*
X35069221Y-80270432D01*
X35130263Y-80300541D01*
X35154951Y-80322306D01*
X35175516Y-80348494D01*
X35193122Y-80381772D01*
X35205988Y-80420274D01*
X35214838Y-80469884D01*
X35217777Y-80526197D01*
X35217777Y-81745000D01*
X35087992Y-81745000D01*
X35087992Y-81320841D01*
X34726299Y-81320841D01*
X34726299Y-81745000D01*
X34598713Y-81745000D01*
X34598713Y-80799230D01*
X34726299Y-80799230D01*
X34726299Y-80949623D01*
X35087992Y-80949623D01*
X35087992Y-80799230D01*
X35086870Y-80770285D01*
X35072139Y-80704367D01*
X35041712Y-80659103D01*
X35018834Y-80641857D01*
X34991217Y-80629246D01*
X34953023Y-80620285D01*
X34908199Y-80617330D01*
X34878432Y-80618522D01*
X34812987Y-80633388D01*
X34767986Y-80663986D01*
X34750793Y-80687061D01*
X34738215Y-80714953D01*
X34729254Y-80753682D01*
X34726299Y-80799230D01*
X34598713Y-80799230D01*
X34598713Y-80526197D01*
X34599272Y-80500476D01*
X34612818Y-80410651D01*
X34641964Y-80345768D01*
X34662364Y-80320292D01*
X34686794Y-80299131D01*
X34717147Y-80281380D01*
X34752134Y-80268422D01*
X34796752Y-80259582D01*
X34847291Y-80256645D01*
X34967001Y-80256645D01*
X34987085Y-80257075D01*
G37*
G36*
X29231816Y-81745000D02*
G01*
X29515291Y-81745000D01*
X29536256Y-81742132D01*
X29553243Y-81733782D01*
X29564995Y-81721438D01*
X29572421Y-81704991D01*
X29574917Y-81689770D01*
X29707449Y-80269193D01*
X29575649Y-80269193D01*
X29480853Y-81185378D01*
X29472509Y-81232122D01*
X29459086Y-81268559D01*
X29444676Y-81290194D01*
X29426681Y-81305740D01*
X29384000Y-81318868D01*
X29374607Y-81319193D01*
X29346911Y-81316238D01*
X29323614Y-81307276D01*
X29292264Y-81276011D01*
X29271789Y-81220316D01*
X29266255Y-81185378D01*
X29173565Y-80269193D01*
X29041673Y-80269193D01*
X29172191Y-81689770D01*
X29176329Y-81710059D01*
X29185593Y-81726051D01*
X29215409Y-81743306D01*
X29231816Y-81745000D01*
G37*
G36*
X30214644Y-80852776D02*
G01*
X30231175Y-80859518D01*
X30243500Y-80870667D01*
X30252000Y-80887496D01*
X30254889Y-80908407D01*
X30254889Y-81105785D01*
X30252977Y-81123162D01*
X30246213Y-81139692D01*
X30235045Y-81152020D01*
X30218238Y-81160509D01*
X30197370Y-81163396D01*
X30073447Y-81163396D01*
X30055349Y-81161099D01*
X30039186Y-81153842D01*
X30026893Y-81142130D01*
X30018764Y-81125795D01*
X30015928Y-81105785D01*
X30015928Y-80908407D01*
X30017816Y-80891132D01*
X30024558Y-80874601D01*
X30035707Y-80862276D01*
X30052536Y-80853777D01*
X30073447Y-80850887D01*
X30197370Y-80850887D01*
X30214644Y-80852776D01*
G37*
G36*
X30199014Y-80256665D02*
G01*
X30278886Y-80268329D01*
X30344104Y-80299644D01*
X30371328Y-80322304D01*
X30394587Y-80349361D01*
X30414057Y-80381416D01*
X30428906Y-80417685D01*
X30439143Y-80459374D01*
X30443933Y-80505131D01*
X30452267Y-81007142D01*
X30443933Y-81509153D01*
X30443697Y-81514065D01*
X30428407Y-81598081D01*
X30394713Y-81664710D01*
X30371562Y-81691715D01*
X30344471Y-81714356D01*
X30313066Y-81732733D01*
X30278033Y-81746201D01*
X30238330Y-81754744D01*
X30195263Y-81757639D01*
X30075553Y-81757639D01*
X30071748Y-81757618D01*
X29991903Y-81745937D01*
X29926697Y-81714599D01*
X29899481Y-81691927D01*
X29876233Y-81664862D01*
X29856779Y-81632805D01*
X29841949Y-81596540D01*
X29831738Y-81554874D01*
X29826975Y-81509153D01*
X29818549Y-81007142D01*
X29944120Y-81007142D01*
X29946227Y-81225403D01*
X29947488Y-81245138D01*
X29962652Y-81309528D01*
X29993254Y-81353499D01*
X30016636Y-81370416D01*
X30045164Y-81382820D01*
X30085837Y-81391798D01*
X30134355Y-81394755D01*
X30136461Y-81394755D01*
X30159712Y-81394117D01*
X30230160Y-81380970D01*
X30277853Y-81352567D01*
X30296081Y-81331115D01*
X30309725Y-81305072D01*
X30320091Y-81268537D01*
X30324590Y-81225403D01*
X30328803Y-81007142D01*
X30324590Y-80788789D01*
X30323363Y-80769473D01*
X30308062Y-80705139D01*
X30277046Y-80660879D01*
X30253452Y-80643847D01*
X30224796Y-80631372D01*
X30184370Y-80622394D01*
X30136461Y-80619437D01*
X30134355Y-80619437D01*
X30111243Y-80620068D01*
X30040786Y-80633195D01*
X29993067Y-80661592D01*
X29974821Y-80683045D01*
X29961155Y-80709094D01*
X29950760Y-80745640D01*
X29946227Y-80788789D01*
X29944120Y-81007142D01*
X29818549Y-81007142D01*
X29826975Y-80505131D01*
X29827209Y-80500183D01*
X29842452Y-80416174D01*
X29876102Y-80349563D01*
X29899236Y-80322564D01*
X29926312Y-80299929D01*
X29957714Y-80281552D01*
X29992747Y-80268085D01*
X30032466Y-80259540D01*
X30075553Y-80256645D01*
X30195263Y-80256645D01*
X30199014Y-80256665D01*
G37*
G36*
X29328353Y-79757639D02*
G01*
X29448063Y-79757639D01*
X29497437Y-79754694D01*
X29541290Y-79745801D01*
X29575881Y-79732731D01*
X29606105Y-79714768D01*
X29630685Y-79693234D01*
X29651407Y-79667222D01*
X29681678Y-79600511D01*
X29696733Y-79509244D01*
X29705068Y-79210016D01*
X29564842Y-79210016D01*
X29561885Y-79255580D01*
X29552915Y-79293706D01*
X29540497Y-79320415D01*
X29523562Y-79342198D01*
X29479072Y-79370511D01*
X29412882Y-79383607D01*
X29389262Y-79384314D01*
X29344653Y-79381363D01*
X29306922Y-79372434D01*
X29279758Y-79359883D01*
X29257293Y-79342748D01*
X29226912Y-79297280D01*
X29211119Y-79229686D01*
X29209468Y-79204429D01*
X29207453Y-79000822D01*
X29209468Y-78799322D01*
X29214080Y-78752804D01*
X29224635Y-78713509D01*
X29238247Y-78686151D01*
X29256434Y-78663697D01*
X29303017Y-78634792D01*
X29370606Y-78622012D01*
X29389262Y-78621543D01*
X29432597Y-78624540D01*
X29469562Y-78633789D01*
X29495734Y-78646616D01*
X29517694Y-78664323D01*
X29548191Y-78712183D01*
X29565324Y-78785530D01*
X29567131Y-78806374D01*
X29705068Y-78806374D01*
X29696733Y-78505040D01*
X29690399Y-78451073D01*
X29678588Y-78403912D01*
X29663382Y-78367482D01*
X29643752Y-78336341D01*
X29621382Y-78311960D01*
X29595100Y-78292089D01*
X29530728Y-78265669D01*
X29448063Y-78256645D01*
X29328353Y-78256645D01*
X29277205Y-78259590D01*
X29232156Y-78268483D01*
X29197244Y-78281421D01*
X29167030Y-78299167D01*
X29142934Y-78320222D01*
X29122887Y-78345604D01*
X29094588Y-78410246D01*
X29081882Y-78505131D01*
X29075562Y-79007142D01*
X29081882Y-79509153D01*
X29086161Y-79562780D01*
X29096204Y-79609693D01*
X29109961Y-79645693D01*
X29128340Y-79676563D01*
X29149651Y-79700751D01*
X29175051Y-79720594D01*
X29238377Y-79747478D01*
X29328353Y-79757639D01*
G37*
G36*
X30333199Y-79745000D02*
G01*
X30465090Y-79745000D01*
X30465090Y-78269193D01*
X30333199Y-78269193D01*
X30333199Y-78928557D01*
X29977826Y-78928557D01*
X29977826Y-78269193D01*
X29846026Y-78269193D01*
X29846026Y-79745000D01*
X29977826Y-79745000D01*
X29977826Y-79299867D01*
X30333199Y-79299867D01*
X30333199Y-79745000D01*
G37*
G36*
X30875693Y-79757639D02*
G01*
X30995403Y-79757639D01*
X31048500Y-79754694D01*
X31095174Y-79745799D01*
X31131119Y-79732916D01*
X31162119Y-79715258D01*
X31186537Y-79694502D01*
X31206736Y-79669517D01*
X31234587Y-79606662D01*
X31246057Y-79520250D01*
X31246179Y-79509061D01*
X31246179Y-78269193D01*
X31114288Y-78269193D01*
X31114288Y-79202414D01*
X31111342Y-79247238D01*
X31102447Y-79285432D01*
X31089870Y-79313241D01*
X31072707Y-79336239D01*
X31027800Y-79366727D01*
X30962934Y-79381220D01*
X30936601Y-79382207D01*
X30892500Y-79379257D01*
X30854842Y-79370329D01*
X30827405Y-79357701D01*
X30804663Y-79340442D01*
X30774378Y-79295086D01*
X30759902Y-79229215D01*
X30758914Y-79202414D01*
X30758914Y-78269193D01*
X30627115Y-78269193D01*
X30627115Y-79509061D01*
X30630060Y-79562054D01*
X30638951Y-79608506D01*
X30651804Y-79644130D01*
X30669410Y-79674786D01*
X30690121Y-79698905D01*
X30715047Y-79718817D01*
X30777995Y-79746277D01*
X30865067Y-79757532D01*
X30875693Y-79757639D01*
G37*
G36*
X31408203Y-78326712D02*
G01*
X31408203Y-79745000D01*
X31535790Y-79745000D01*
X31535790Y-79322948D01*
X31797465Y-79322948D01*
X31818376Y-79320059D01*
X31835206Y-79311559D01*
X31846354Y-79299234D01*
X31853096Y-79282703D01*
X31854985Y-79265429D01*
X31854985Y-79007142D01*
X31852096Y-78986231D01*
X31843596Y-78969402D01*
X31831271Y-78958253D01*
X31814740Y-78951511D01*
X31797465Y-78949623D01*
X31535790Y-78949623D01*
X31535790Y-78642518D01*
X31906734Y-78642518D01*
X31927608Y-78639629D01*
X31944436Y-78631129D01*
X31955606Y-78618793D01*
X31962364Y-78602244D01*
X31964253Y-78584999D01*
X31964253Y-78326712D01*
X31961366Y-78305843D01*
X31952885Y-78289037D01*
X31940562Y-78277863D01*
X31924047Y-78271098D01*
X31906734Y-78269193D01*
X31465723Y-78269193D01*
X31444812Y-78272082D01*
X31427983Y-78280581D01*
X31416834Y-78292906D01*
X31410092Y-78309437D01*
X31408203Y-78326712D01*
G37*
G36*
X32141298Y-79745000D02*
G01*
X32596964Y-79745000D01*
X32617875Y-79742110D01*
X32634704Y-79733611D01*
X32645853Y-79721286D01*
X32652594Y-79704755D01*
X32654483Y-79687480D01*
X32654483Y-79429193D01*
X32651647Y-79409194D01*
X32643518Y-79392883D01*
X32631228Y-79381200D01*
X32615070Y-79373966D01*
X32596964Y-79371674D01*
X32211366Y-79371674D01*
X32211366Y-79257827D01*
X32500335Y-79257827D01*
X32520335Y-79254990D01*
X32536646Y-79246861D01*
X32548329Y-79234572D01*
X32555563Y-79218414D01*
X32557855Y-79200307D01*
X32557855Y-78944127D01*
X32555018Y-78924128D01*
X32546889Y-78907817D01*
X32534599Y-78896134D01*
X32518442Y-78888900D01*
X32500335Y-78886608D01*
X32211366Y-78886608D01*
X32211366Y-78642518D01*
X32588538Y-78642518D01*
X32609448Y-78639629D01*
X32626278Y-78631129D01*
X32637426Y-78618804D01*
X32644168Y-78602273D01*
X32646057Y-78584999D01*
X32646057Y-78326712D01*
X32643168Y-78305801D01*
X32634668Y-78288972D01*
X32622343Y-78277823D01*
X32605812Y-78271081D01*
X32588538Y-78269193D01*
X32141298Y-78269193D01*
X32120388Y-78272082D01*
X32103558Y-78280581D01*
X32092410Y-78292906D01*
X32085668Y-78309437D01*
X32083779Y-78326712D01*
X32083779Y-79687480D01*
X32086615Y-79707480D01*
X32094745Y-79723791D01*
X32107034Y-79735474D01*
X32123192Y-79742708D01*
X32141298Y-79745000D01*
G37*
D11*
G36*
X35250666Y-71968307D02*
G01*
X35284933Y-71971593D01*
X35306395Y-71974987D01*
X35327558Y-71979452D01*
X35348397Y-71984965D01*
X35368887Y-71991493D01*
X35389007Y-71999007D01*
X35408721Y-72007473D01*
X35428015Y-72016864D01*
X35446859Y-72027149D01*
X35465228Y-72038306D01*
X35483097Y-72050292D01*
X35500440Y-72063084D01*
X35517236Y-72076658D01*
X35533456Y-72090970D01*
X35549077Y-72106000D01*
X35564074Y-72121716D01*
X35578421Y-72138088D01*
X35592088Y-72155087D01*
X35605060Y-72172682D01*
X35617302Y-72190846D01*
X35628798Y-72209544D01*
X35639520Y-72228754D01*
X35649436Y-72248433D01*
X35658531Y-72268563D01*
X35666773Y-72289112D01*
X35674139Y-72310043D01*
X35680603Y-72331337D01*
X35686146Y-72352956D01*
X35690736Y-72374873D01*
X35694344Y-72397056D01*
X35696957Y-72419479D01*
X35698543Y-72442109D01*
X35699078Y-72464920D01*
X35699078Y-72561147D01*
X35331947Y-72568733D01*
X34964818Y-72576327D01*
X34970684Y-72657979D01*
X34971781Y-72668014D01*
X34973611Y-72678130D01*
X34976154Y-72688298D01*
X34979377Y-72698502D01*
X34983242Y-72708701D01*
X34987736Y-72718880D01*
X34992815Y-72729011D01*
X34998461Y-72739064D01*
X35004637Y-72749012D01*
X35011321Y-72758832D01*
X35018478Y-72768498D01*
X35026085Y-72777986D01*
X35042518Y-72796308D01*
X35060385Y-72813591D01*
X35079460Y-72829629D01*
X35099503Y-72844206D01*
X35120288Y-72857115D01*
X35130886Y-72862883D01*
X35141583Y-72868149D01*
X35152347Y-72872897D01*
X35163149Y-72877095D01*
X35173965Y-72880719D01*
X35184759Y-72883746D01*
X35195509Y-72886145D01*
X35206178Y-72887891D01*
X35216744Y-72888957D01*
X35227176Y-72889319D01*
X35247669Y-72888724D01*
X35268011Y-72886983D01*
X35288067Y-72884161D01*
X35307714Y-72880311D01*
X35326823Y-72875496D01*
X35345264Y-72869774D01*
X35362917Y-72863216D01*
X35379644Y-72855879D01*
X35395318Y-72847817D01*
X35409815Y-72839096D01*
X35423009Y-72829776D01*
X35434765Y-72819919D01*
X35444961Y-72809583D01*
X35453466Y-72798830D01*
X35457044Y-72793315D01*
X35460151Y-72787725D01*
X35462774Y-72782056D01*
X35464892Y-72776323D01*
X35466092Y-72772856D01*
X35467413Y-72769537D01*
X35468855Y-72766357D01*
X35470427Y-72763323D01*
X35472137Y-72760426D01*
X35473984Y-72757661D01*
X35475984Y-72755034D01*
X35478134Y-72752538D01*
X35480441Y-72750170D01*
X35482917Y-72747932D01*
X35485557Y-72745811D01*
X35488377Y-72743814D01*
X35491378Y-72741942D01*
X35494569Y-72740188D01*
X35497951Y-72738543D01*
X35501535Y-72737017D01*
X35505321Y-72735595D01*
X35509318Y-72734283D01*
X35513534Y-72733081D01*
X35517970Y-72731983D01*
X35522637Y-72730985D01*
X35527536Y-72730084D01*
X35532674Y-72729280D01*
X35538058Y-72728571D01*
X35543692Y-72727954D01*
X35549589Y-72727425D01*
X35555745Y-72726985D01*
X35562171Y-72726632D01*
X35575848Y-72726172D01*
X35590672Y-72726021D01*
X35700199Y-72726021D01*
X35642595Y-72836931D01*
X35633284Y-72853609D01*
X35622993Y-72869692D01*
X35611772Y-72885176D01*
X35599652Y-72900045D01*
X35586665Y-72914287D01*
X35572856Y-72927892D01*
X35558263Y-72940847D01*
X35542922Y-72953139D01*
X35526868Y-72964763D01*
X35510141Y-72975699D01*
X35492782Y-72985943D01*
X35474820Y-72995477D01*
X35456301Y-73004294D01*
X35437257Y-73012378D01*
X35417728Y-73019726D01*
X35397750Y-73026314D01*
X35377366Y-73032139D01*
X35356607Y-73037191D01*
X35335512Y-73041449D01*
X35314122Y-73044912D01*
X35292472Y-73047561D01*
X35270601Y-73049388D01*
X35248545Y-73050377D01*
X35226339Y-73050523D01*
X35204028Y-73049815D01*
X35181643Y-73048234D01*
X35159225Y-73045775D01*
X35136808Y-73042418D01*
X35114436Y-73038163D01*
X35092142Y-73032992D01*
X35069964Y-73026893D01*
X35047941Y-73019855D01*
X35047944Y-73019855D01*
X35023502Y-73010625D01*
X35000000Y-73000000D01*
X34977434Y-72987975D01*
X34955813Y-72974547D01*
X34935125Y-72959725D01*
X34915375Y-72943503D01*
X34896567Y-72925886D01*
X34878698Y-72906870D01*
X34861764Y-72886454D01*
X34845769Y-72864634D01*
X34830713Y-72841419D01*
X34816595Y-72816804D01*
X34803413Y-72790790D01*
X34791171Y-72763375D01*
X34779865Y-72734560D01*
X34769499Y-72704346D01*
X34758845Y-72667493D01*
X34750475Y-72630752D01*
X34744327Y-72594192D01*
X34740356Y-72557908D01*
X34738495Y-72521972D01*
X34738694Y-72486459D01*
X34740898Y-72451461D01*
X34745050Y-72417041D01*
X34751095Y-72383285D01*
X34752615Y-72376910D01*
X34961741Y-72376910D01*
X34961790Y-72382152D01*
X34962116Y-72387013D01*
X34962723Y-72391448D01*
X34963609Y-72395403D01*
X34964786Y-72398840D01*
X34966256Y-72401710D01*
X34967385Y-72402986D01*
X34969140Y-72404248D01*
X34971507Y-72405493D01*
X34974465Y-72406717D01*
X34982095Y-72409101D01*
X34991897Y-72411390D01*
X35003734Y-72413570D01*
X35017472Y-72415624D01*
X35032976Y-72417544D01*
X35050109Y-72419319D01*
X35068738Y-72420929D01*
X35088726Y-72422370D01*
X35109944Y-72423624D01*
X35132249Y-72424674D01*
X35179594Y-72426133D01*
X35204362Y-72426509D01*
X35229679Y-72426643D01*
X35310457Y-72426471D01*
X35371442Y-72425470D01*
X35395377Y-72424422D01*
X35415411Y-72422889D01*
X35431885Y-72420771D01*
X35445151Y-72417980D01*
X35455552Y-72414415D01*
X35463437Y-72409990D01*
X35466547Y-72407426D01*
X35469157Y-72404613D01*
X35473055Y-72398185D01*
X35475486Y-72390616D01*
X35476790Y-72381809D01*
X35477412Y-72360121D01*
X35477071Y-72352952D01*
X35476061Y-72345211D01*
X35474419Y-72336970D01*
X35472181Y-72328312D01*
X35469380Y-72319301D01*
X35466045Y-72310007D01*
X35462219Y-72300511D01*
X35457928Y-72290887D01*
X35453215Y-72281199D01*
X35448104Y-72271528D01*
X35442634Y-72261940D01*
X35436840Y-72252511D01*
X35430753Y-72243314D01*
X35424408Y-72234424D01*
X35417842Y-72225911D01*
X35411085Y-72217849D01*
X35399281Y-72205328D01*
X35386828Y-72193922D01*
X35373774Y-72183625D01*
X35360173Y-72174420D01*
X35346078Y-72166294D01*
X35331546Y-72159246D01*
X35316630Y-72153252D01*
X35301386Y-72148305D01*
X35285858Y-72144396D01*
X35270108Y-72141510D01*
X35254186Y-72139633D01*
X35238152Y-72138757D01*
X35222049Y-72138870D01*
X35205938Y-72139963D01*
X35189868Y-72142020D01*
X35173900Y-72145029D01*
X35158077Y-72148978D01*
X35142464Y-72153859D01*
X35127106Y-72159661D01*
X35112060Y-72166362D01*
X35097379Y-72173964D01*
X35083115Y-72182447D01*
X35069327Y-72191799D01*
X35056060Y-72202012D01*
X35043371Y-72213074D01*
X35031321Y-72224974D01*
X35019956Y-72237693D01*
X35009328Y-72251229D01*
X34999496Y-72265564D01*
X34990512Y-72280690D01*
X34982428Y-72296587D01*
X34975296Y-72313256D01*
X34972856Y-72319855D01*
X34970650Y-72326522D01*
X34968674Y-72333217D01*
X34966931Y-72339887D01*
X34965437Y-72346490D01*
X34964183Y-72352979D01*
X34963185Y-72359313D01*
X34962441Y-72365440D01*
X34961957Y-72371321D01*
X34961741Y-72376910D01*
X34752615Y-72376910D01*
X34758974Y-72350275D01*
X34768642Y-72318084D01*
X34780032Y-72286794D01*
X34793094Y-72256483D01*
X34807769Y-72227232D01*
X34824007Y-72199117D01*
X34841747Y-72172218D01*
X34860941Y-72146611D01*
X34881523Y-72122383D01*
X34903443Y-72099607D01*
X34926648Y-72078358D01*
X34951081Y-72058724D01*
X34976681Y-72040780D01*
X35003402Y-72024602D01*
X35031177Y-72010272D01*
X35059965Y-71997864D01*
X35089698Y-71987468D01*
X35120325Y-71979155D01*
X35151790Y-71973001D01*
X35184041Y-71969087D01*
X35217020Y-71967497D01*
X35250666Y-71968307D01*
G37*
G36*
X33323134Y-73275427D02*
G01*
X33413185Y-73283955D01*
X33427041Y-73674279D01*
X33431669Y-73797296D01*
X33436252Y-73892268D01*
X33441559Y-73963543D01*
X33444732Y-73991651D01*
X33448378Y-74015467D01*
X33452596Y-74035532D01*
X33457483Y-74052385D01*
X33463135Y-74066573D01*
X33469654Y-74078640D01*
X33477131Y-74089125D01*
X33485667Y-74098577D01*
X33506306Y-74116543D01*
X33514333Y-74122585D01*
X33522705Y-74128240D01*
X33531382Y-74133503D01*
X33540355Y-74138377D01*
X33559078Y-74146953D01*
X33578704Y-74153968D01*
X33599041Y-74159425D01*
X33619920Y-74163323D01*
X33641153Y-74165659D01*
X33662565Y-74166439D01*
X33683976Y-74165656D01*
X33705210Y-74163316D01*
X33726085Y-74159415D01*
X33746420Y-74153955D01*
X33766040Y-74146933D01*
X33784766Y-74138355D01*
X33793734Y-74133479D01*
X33802410Y-74128215D01*
X33810777Y-74122561D01*
X33818804Y-74116517D01*
X33829748Y-74107504D01*
X33834745Y-74103050D01*
X33839441Y-74098540D01*
X33843847Y-74093909D01*
X33847977Y-74089087D01*
X33851841Y-74084004D01*
X33855456Y-74078595D01*
X33858828Y-74072792D01*
X33861973Y-74066525D01*
X33864901Y-74059731D01*
X33867625Y-74052336D01*
X33870158Y-74044274D01*
X33872513Y-74035478D01*
X33874699Y-74025883D01*
X33876731Y-74015416D01*
X33878620Y-74004010D01*
X33880377Y-73991601D01*
X33882015Y-73978117D01*
X33883547Y-73963493D01*
X33884990Y-73947658D01*
X33886345Y-73930548D01*
X33887631Y-73912088D01*
X33888859Y-73892219D01*
X33891190Y-73847971D01*
X33893441Y-73797255D01*
X33895700Y-73739529D01*
X33898072Y-73674251D01*
X33911925Y-73283955D01*
X33995049Y-73283955D01*
X34078173Y-73283955D01*
X34085715Y-73794262D01*
X34093250Y-74304569D01*
X34009510Y-74304569D01*
X33999353Y-74304410D01*
X33989851Y-74303934D01*
X33981003Y-74303139D01*
X33972820Y-74302027D01*
X33965297Y-74300596D01*
X33958428Y-74298841D01*
X33952214Y-74296775D01*
X33946663Y-74294385D01*
X33941763Y-74291677D01*
X33937517Y-74288650D01*
X33935641Y-74287014D01*
X33933928Y-74285301D01*
X33932379Y-74283508D01*
X33930993Y-74281632D01*
X33929769Y-74279676D01*
X33928710Y-74277641D01*
X33927815Y-74275525D01*
X33927081Y-74273330D01*
X33926511Y-74271053D01*
X33926102Y-74268697D01*
X33925860Y-74266259D01*
X33925779Y-74263742D01*
X33925705Y-74258940D01*
X33925482Y-74254455D01*
X33925106Y-74250289D01*
X33924578Y-74246439D01*
X33923895Y-74242909D01*
X33923048Y-74239697D01*
X33922045Y-74236801D01*
X33920876Y-74234229D01*
X33919540Y-74231972D01*
X33918034Y-74230035D01*
X33916361Y-74228417D01*
X33914514Y-74227117D01*
X33912491Y-74226138D01*
X33910290Y-74225478D01*
X33907908Y-74225138D01*
X33905345Y-74225117D01*
X33902596Y-74225413D01*
X33899658Y-74226031D01*
X33896529Y-74226972D01*
X33893211Y-74228229D01*
X33889693Y-74229810D01*
X33885982Y-74231706D01*
X33882070Y-74233924D01*
X33877955Y-74236467D01*
X33873638Y-74239327D01*
X33869112Y-74242509D01*
X33864380Y-74246011D01*
X33859432Y-74249835D01*
X33854269Y-74253982D01*
X33848894Y-74258447D01*
X33837477Y-74268342D01*
X33830548Y-74273911D01*
X33822624Y-74279191D01*
X33813772Y-74284182D01*
X33804049Y-74288883D01*
X33782198Y-74297404D01*
X33757531Y-74304722D01*
X33730507Y-74310819D01*
X33701570Y-74315667D01*
X33671179Y-74319250D01*
X33639790Y-74321537D01*
X33607851Y-74322513D01*
X33575821Y-74322142D01*
X33544152Y-74320411D01*
X33513297Y-74317298D01*
X33483712Y-74312770D01*
X33455847Y-74306813D01*
X33430160Y-74299396D01*
X33407106Y-74290500D01*
X33407106Y-74290499D01*
X33393346Y-74284130D01*
X33380310Y-74277613D01*
X33367983Y-74270875D01*
X33356349Y-74263849D01*
X33345384Y-74256470D01*
X33335069Y-74248671D01*
X33325390Y-74240383D01*
X33316321Y-74231541D01*
X33307848Y-74222074D01*
X33299948Y-74211918D01*
X33292607Y-74201005D01*
X33285801Y-74189271D01*
X33279516Y-74176645D01*
X33273726Y-74163060D01*
X33268416Y-74148451D01*
X33263568Y-74132748D01*
X33259163Y-74115885D01*
X33255176Y-74097798D01*
X33251593Y-74078418D01*
X33248399Y-74057677D01*
X33245569Y-74035506D01*
X33243083Y-74011842D01*
X33240925Y-73986616D01*
X33239073Y-73959762D01*
X33237516Y-73931209D01*
X33236226Y-73900893D01*
X33234378Y-73834706D01*
X33233381Y-73760659D01*
X33233083Y-73678218D01*
X33233083Y-73266895D01*
X33323134Y-73275427D01*
G37*
G36*
X29148562Y-73549719D02*
G01*
X29169475Y-73551041D01*
X29190277Y-73553451D01*
X29210912Y-73556944D01*
X29231337Y-73561510D01*
X29251501Y-73567127D01*
X29271362Y-73573790D01*
X29290870Y-73581487D01*
X29309977Y-73590206D01*
X29328634Y-73599935D01*
X29346793Y-73610657D01*
X29364412Y-73622368D01*
X29381436Y-73635050D01*
X29397826Y-73648696D01*
X29413533Y-73663290D01*
X29428504Y-73678822D01*
X29442689Y-73695279D01*
X29456054Y-73712651D01*
X29468538Y-73730925D01*
X29480102Y-73750088D01*
X29490695Y-73770130D01*
X29504931Y-73801417D01*
X29517280Y-73833570D01*
X29527795Y-73866470D01*
X29536510Y-73899995D01*
X29543464Y-73934030D01*
X29548698Y-73968449D01*
X29554159Y-74037974D01*
X29553220Y-74107620D01*
X29546195Y-74176425D01*
X29533401Y-74243437D01*
X29515157Y-74307699D01*
X29491783Y-74368259D01*
X29463601Y-74424155D01*
X29447803Y-74450059D01*
X29430923Y-74474440D01*
X29413000Y-74497176D01*
X29394071Y-74518154D01*
X29374184Y-74537244D01*
X29353364Y-74554337D01*
X29331666Y-74569310D01*
X29309121Y-74582042D01*
X29285772Y-74592414D01*
X29261659Y-74600306D01*
X29236816Y-74605602D01*
X29211292Y-74608181D01*
X29182639Y-74609287D01*
X29155893Y-74609869D01*
X29130885Y-74609903D01*
X29107465Y-74609355D01*
X29085470Y-74608196D01*
X29064734Y-74606392D01*
X29045099Y-74603910D01*
X29026393Y-74600722D01*
X29008465Y-74596795D01*
X28991154Y-74592097D01*
X28974290Y-74586596D01*
X28957719Y-74580263D01*
X28941269Y-74573066D01*
X28924787Y-74564970D01*
X28908112Y-74555950D01*
X28891077Y-74545971D01*
X28802220Y-74492091D01*
X28794099Y-74704516D01*
X28785979Y-74916937D01*
X28696877Y-74925395D01*
X28683712Y-74926509D01*
X28671764Y-74927196D01*
X28660974Y-74927425D01*
X28651256Y-74927152D01*
X28642554Y-74926341D01*
X28638553Y-74925718D01*
X28634774Y-74924953D01*
X28631217Y-74924030D01*
X28627859Y-74922950D01*
X28624701Y-74921705D01*
X28621729Y-74920294D01*
X28618934Y-74918710D01*
X28616304Y-74916949D01*
X28613841Y-74915002D01*
X28611524Y-74912873D01*
X28609350Y-74910550D01*
X28607302Y-74908030D01*
X28605383Y-74905310D01*
X28603573Y-74902382D01*
X28600258Y-74895890D01*
X28597289Y-74888513D01*
X28594584Y-74880216D01*
X28592079Y-74870961D01*
X28592080Y-74870959D01*
X28590521Y-74861374D01*
X28589088Y-74845827D01*
X28586603Y-74798219D01*
X28584658Y-74730908D01*
X28583293Y-74646659D01*
X28582528Y-74548242D01*
X28582405Y-74438433D01*
X28584203Y-74195703D01*
X28585886Y-74063930D01*
X28813542Y-74063930D01*
X28814040Y-74098109D01*
X28816089Y-74132034D01*
X28819664Y-74165243D01*
X28824752Y-74197278D01*
X28831333Y-74227666D01*
X28839386Y-74255956D01*
X28848899Y-74281682D01*
X28859857Y-74304382D01*
X28865870Y-74314451D01*
X28872235Y-74323589D01*
X28883261Y-74337624D01*
X28894499Y-74350864D01*
X28905942Y-74363311D01*
X28917573Y-74374957D01*
X28929385Y-74385807D01*
X28941357Y-74395857D01*
X28953470Y-74405100D01*
X28965718Y-74413542D01*
X28978090Y-74421179D01*
X28990555Y-74428005D01*
X29003112Y-74434024D01*
X29015746Y-74439234D01*
X29028440Y-74443626D01*
X29041187Y-74447208D01*
X29053957Y-74449970D01*
X29066746Y-74451915D01*
X29079543Y-74453043D01*
X29092326Y-74453348D01*
X29105083Y-74452829D01*
X29117804Y-74451489D01*
X29130473Y-74449319D01*
X29143069Y-74446324D01*
X29155585Y-74442493D01*
X29168004Y-74437835D01*
X29180314Y-74432342D01*
X29192493Y-74426015D01*
X29204537Y-74418851D01*
X29216422Y-74410848D01*
X29228150Y-74402004D01*
X29239691Y-74392318D01*
X29251032Y-74381790D01*
X29262165Y-74370417D01*
X29272496Y-74358487D01*
X29282187Y-74345541D01*
X29291235Y-74331653D01*
X29299638Y-74316875D01*
X29307396Y-74301283D01*
X29314508Y-74284936D01*
X29326790Y-74250232D01*
X29336477Y-74213290D01*
X29343560Y-74174612D01*
X29348038Y-74134718D01*
X29349900Y-74094123D01*
X29349140Y-74053343D01*
X29345750Y-74012891D01*
X29339721Y-73973285D01*
X29331054Y-73935036D01*
X29319733Y-73898659D01*
X29313076Y-73881332D01*
X29305753Y-73864669D01*
X29297769Y-73848730D01*
X29289114Y-73833583D01*
X29279793Y-73819290D01*
X29269801Y-73805915D01*
X29259202Y-73793542D01*
X29248011Y-73782125D01*
X29236284Y-73771651D01*
X29224049Y-73762121D01*
X29211358Y-73753530D01*
X29198258Y-73745872D01*
X29184784Y-73739140D01*
X29170981Y-73733325D01*
X29156897Y-73728429D01*
X29142573Y-73724442D01*
X29128058Y-73721362D01*
X29113380Y-73719183D01*
X29098596Y-73717898D01*
X29083749Y-73717503D01*
X29068876Y-73717991D01*
X29054023Y-73719357D01*
X29039237Y-73721598D01*
X29024557Y-73724708D01*
X29010031Y-73728681D01*
X28995697Y-73733513D01*
X28981603Y-73739194D01*
X28967796Y-73745723D01*
X28954304Y-73753093D01*
X28941184Y-73761303D01*
X28928476Y-73770342D01*
X28916227Y-73780205D01*
X28904479Y-73790891D01*
X28893267Y-73802395D01*
X28882648Y-73814704D01*
X28872655Y-73827822D01*
X28863331Y-73841738D01*
X28854732Y-73856447D01*
X28843937Y-73879449D01*
X28834801Y-73905431D01*
X28827319Y-73933942D01*
X28821473Y-73964504D01*
X28817235Y-73996666D01*
X28814599Y-74029964D01*
X28813542Y-74063930D01*
X28585886Y-74063930D01*
X28592027Y-73583336D01*
X28684171Y-73574653D01*
X28697426Y-73573543D01*
X28709504Y-73572846D01*
X28720485Y-73572587D01*
X28730413Y-73572801D01*
X28739360Y-73573511D01*
X28747389Y-73574749D01*
X28754570Y-73576538D01*
X28757854Y-73577649D01*
X28760953Y-73578909D01*
X28763873Y-73580323D01*
X28766620Y-73581892D01*
X28769195Y-73583627D01*
X28771616Y-73585516D01*
X28773889Y-73587579D01*
X28776023Y-73589809D01*
X28778017Y-73592213D01*
X28779890Y-73594797D01*
X28783288Y-73600512D01*
X28786282Y-73606974D01*
X28788933Y-73614223D01*
X28791306Y-73622278D01*
X28794601Y-73634454D01*
X28797672Y-73645008D01*
X28800674Y-73653941D01*
X28802206Y-73657799D01*
X28803772Y-73661255D01*
X28805408Y-73664306D01*
X28807126Y-73666953D01*
X28808944Y-73669198D01*
X28810881Y-73671037D01*
X28812969Y-73672473D01*
X28815214Y-73673506D01*
X28817638Y-73674138D01*
X28820262Y-73674369D01*
X28823112Y-73674194D01*
X28826204Y-73673615D01*
X28829551Y-73672636D01*
X28833180Y-73671256D01*
X28837107Y-73669475D01*
X28841358Y-73667292D01*
X28845947Y-73664704D01*
X28850894Y-73661717D01*
X28861948Y-73654543D01*
X28874674Y-73645764D01*
X28905777Y-73623408D01*
X28924385Y-73610691D01*
X28943450Y-73599210D01*
X28962914Y-73588951D01*
X28982743Y-73579907D01*
X29002880Y-73572059D01*
X29023283Y-73565399D01*
X29043899Y-73559915D01*
X29064684Y-73555594D01*
X29085589Y-73552429D01*
X29106566Y-73550402D01*
X29127574Y-73549500D01*
X29148562Y-73549719D01*
G37*
G36*
X32355275Y-73954797D02*
G01*
X32364784Y-73955521D01*
X32377042Y-73957045D01*
X32387973Y-73958767D01*
X32397665Y-73960782D01*
X32402064Y-73961927D01*
X32406179Y-73963184D01*
X32410022Y-73964560D01*
X32413597Y-73966062D01*
X32416915Y-73967710D01*
X32419988Y-73969513D01*
X32422819Y-73971484D01*
X32425418Y-73973630D01*
X32427804Y-73975966D01*
X32429972Y-73978504D01*
X32431944Y-73981257D01*
X32433718Y-73984230D01*
X32435310Y-73987440D01*
X32436727Y-73990900D01*
X32437979Y-73994616D01*
X32439073Y-73998605D01*
X32440021Y-74002879D01*
X32440830Y-74007444D01*
X32441506Y-74012315D01*
X32442066Y-74017506D01*
X32442862Y-74028883D01*
X32443287Y-74041672D01*
X32443409Y-74055965D01*
X32443314Y-74071165D01*
X32442948Y-74084618D01*
X32442183Y-74096442D01*
X32441616Y-74101782D01*
X32440904Y-74106761D01*
X32440028Y-74111390D01*
X32438982Y-74115690D01*
X32437740Y-74119668D01*
X32436293Y-74123348D01*
X32434627Y-74126739D01*
X32432719Y-74129859D01*
X32430564Y-74132724D01*
X32428134Y-74135347D01*
X32425421Y-74137738D01*
X32422414Y-74139920D01*
X32419094Y-74141907D01*
X32415440Y-74143712D01*
X32411442Y-74145349D01*
X32407085Y-74146833D01*
X32402351Y-74148184D01*
X32397224Y-74149411D01*
X32385739Y-74151561D01*
X32372500Y-74153406D01*
X32357395Y-74155061D01*
X32340290Y-74156653D01*
X32315379Y-74159274D01*
X32291870Y-74162624D01*
X32269737Y-74166725D01*
X32248949Y-74171584D01*
X32229493Y-74177216D01*
X32211335Y-74183639D01*
X32194453Y-74190863D01*
X32178821Y-74198908D01*
X32164413Y-74207783D01*
X32151203Y-74217504D01*
X32139171Y-74228083D01*
X32128285Y-74239540D01*
X32118524Y-74251883D01*
X32109863Y-74265127D01*
X32102273Y-74279289D01*
X32095734Y-74294384D01*
X32093050Y-74303012D01*
X32090435Y-74314703D01*
X32087913Y-74329260D01*
X32085493Y-74346480D01*
X32081012Y-74388092D01*
X32077105Y-74437936D01*
X32073877Y-74494397D01*
X32071436Y-74555865D01*
X32069895Y-74620721D01*
X32069354Y-74687365D01*
X32069354Y-75012189D01*
X31976997Y-75012189D01*
X31958063Y-75011817D01*
X31939676Y-75010758D01*
X31922285Y-75009078D01*
X31906341Y-75006859D01*
X31899057Y-75005569D01*
X31892303Y-75004172D01*
X31886138Y-75002674D01*
X31880621Y-75001088D01*
X31875812Y-74999424D01*
X31871757Y-74997688D01*
X31868526Y-74995893D01*
X31866163Y-74994045D01*
X31866164Y-74994045D01*
X31865216Y-74992483D01*
X31864282Y-74989694D01*
X31862453Y-74980552D01*
X31860684Y-74966882D01*
X31858990Y-74948933D01*
X31855855Y-74901235D01*
X31853119Y-74839512D01*
X31850855Y-74765820D01*
X31849149Y-74682211D01*
X31848069Y-74590739D01*
X31847691Y-74493455D01*
X31848030Y-74353499D01*
X31849241Y-74242488D01*
X31851622Y-74157030D01*
X31855474Y-74093740D01*
X31858046Y-74069348D01*
X31861092Y-74049230D01*
X31864658Y-74032959D01*
X31868769Y-74020112D01*
X31873484Y-74010263D01*
X31878817Y-74002992D01*
X31884817Y-73997875D01*
X31891518Y-73994486D01*
X31907191Y-73989066D01*
X31922482Y-73984732D01*
X31937323Y-73981477D01*
X31951656Y-73979284D01*
X31965412Y-73978141D01*
X31978535Y-73978029D01*
X31990959Y-73978944D01*
X32002618Y-73980869D01*
X32013459Y-73983786D01*
X32018547Y-73985613D01*
X32023407Y-73987687D01*
X32028025Y-73990000D01*
X32032404Y-73992553D01*
X32036526Y-73995346D01*
X32040389Y-73998375D01*
X32043981Y-74001640D01*
X32047294Y-74005140D01*
X32050331Y-74008867D01*
X32053064Y-74012830D01*
X32055502Y-74017019D01*
X32057634Y-74021436D01*
X32059450Y-74026075D01*
X32060936Y-74030940D01*
X32063396Y-74039853D01*
X32065815Y-74047540D01*
X32067044Y-74050916D01*
X32068329Y-74053981D01*
X32069679Y-74056727D01*
X32071111Y-74059157D01*
X32072646Y-74061263D01*
X32074305Y-74063048D01*
X32076101Y-74064507D01*
X32078065Y-74065633D01*
X32080205Y-74066431D01*
X32082549Y-74066895D01*
X32085106Y-74067021D01*
X32087904Y-74066809D01*
X32090956Y-74066256D01*
X32094283Y-74065359D01*
X32097909Y-74064115D01*
X32101851Y-74062523D01*
X32106121Y-74060582D01*
X32110746Y-74058285D01*
X32115741Y-74055628D01*
X32121125Y-74052617D01*
X32133152Y-74045506D01*
X32146971Y-74036926D01*
X32162736Y-74026865D01*
X32180598Y-74015294D01*
X32193095Y-74007428D01*
X32205598Y-74000072D01*
X32218072Y-73993229D01*
X32230493Y-73986911D01*
X32242834Y-73981129D01*
X32255061Y-73975889D01*
X32267146Y-73971206D01*
X32279064Y-73967084D01*
X32290780Y-73963537D01*
X32302268Y-73960570D01*
X32313500Y-73958195D01*
X32324447Y-73956419D01*
X32335075Y-73955257D01*
X32345362Y-73954710D01*
X32355275Y-73954797D01*
G37*
G36*
X30601733Y-74823663D02*
G01*
X30608849Y-74824123D01*
X30615608Y-74824951D01*
X30622020Y-74826153D01*
X30628087Y-74827731D01*
X30633810Y-74829687D01*
X30639198Y-74832027D01*
X30644256Y-74834751D01*
X30648985Y-74837864D01*
X30653393Y-74841369D01*
X30657484Y-74845270D01*
X30661259Y-74849572D01*
X30664729Y-74854273D01*
X30667894Y-74859380D01*
X30670761Y-74864898D01*
X30673329Y-74870829D01*
X30675611Y-74877174D01*
X30677607Y-74883938D01*
X30679319Y-74891125D01*
X30680759Y-74898735D01*
X30681928Y-74906779D01*
X30683461Y-74924158D01*
X30683966Y-74943293D01*
X30683889Y-74959335D01*
X30683576Y-74973488D01*
X30682918Y-74985874D01*
X30681801Y-74996610D01*
X30681036Y-75001394D01*
X30680113Y-75005811D01*
X30679023Y-75009875D01*
X30677744Y-75013598D01*
X30676266Y-75016998D01*
X30674577Y-75020083D01*
X30672659Y-75022880D01*
X30670497Y-75025395D01*
X30668083Y-75027638D01*
X30665402Y-75029635D01*
X30662430Y-75031393D01*
X30659167Y-75032932D01*
X30655588Y-75034262D01*
X30651684Y-75035397D01*
X30647436Y-75036359D01*
X30642842Y-75037152D01*
X30632521Y-75038312D01*
X30620622Y-75039000D01*
X30607018Y-75039323D01*
X30591604Y-75039402D01*
X30572675Y-75039033D01*
X30554286Y-75037972D01*
X30536891Y-75036296D01*
X30520948Y-75034074D01*
X30513665Y-75032786D01*
X30506915Y-75031386D01*
X30500749Y-75029888D01*
X30495233Y-75028304D01*
X30490425Y-75026640D01*
X30486368Y-75024907D01*
X30483137Y-75023107D01*
X30480772Y-75021258D01*
X30480774Y-75021258D01*
X30479827Y-75020231D01*
X30478892Y-75019018D01*
X30477064Y-75016052D01*
X30475295Y-75012421D01*
X30473605Y-75008169D01*
X30471988Y-75003351D01*
X30470466Y-74998007D01*
X30469042Y-74992189D01*
X30467731Y-74985946D01*
X30466534Y-74979328D01*
X30465470Y-74972381D01*
X30464537Y-74965152D01*
X30463759Y-74957695D01*
X30463137Y-74950053D01*
X30462678Y-74942280D01*
X30462401Y-74934418D01*
X30462303Y-74926521D01*
X30462495Y-74915895D01*
X30463091Y-74906104D01*
X30464124Y-74897102D01*
X30465622Y-74888852D01*
X30466555Y-74884995D01*
X30467618Y-74881310D01*
X30468815Y-74877790D01*
X30470147Y-74874432D01*
X30471622Y-74871230D01*
X30473238Y-74868179D01*
X30475004Y-74865271D01*
X30476921Y-74862503D01*
X30478993Y-74859868D01*
X30481231Y-74857362D01*
X30483625Y-74854985D01*
X30486194Y-74852722D01*
X30488930Y-74850570D01*
X30491840Y-74848529D01*
X30494934Y-74846590D01*
X30498214Y-74844749D01*
X30505334Y-74841332D01*
X30513233Y-74838243D01*
X30521946Y-74835436D01*
X30531509Y-74832867D01*
X30551347Y-74828464D01*
X30569640Y-74825446D01*
X30578219Y-74824462D01*
X30586422Y-74823833D01*
X30594261Y-74823568D01*
X30601733Y-74823663D01*
G37*
G36*
X39898597Y-74149139D02*
G01*
X39929325Y-74152780D01*
X39959335Y-74158381D01*
X39988482Y-74165909D01*
X40016619Y-74175348D01*
X40043591Y-74186673D01*
X40069245Y-74199859D01*
X40093443Y-74214886D01*
X40116017Y-74231729D01*
X40136829Y-74250366D01*
X40146106Y-74259801D01*
X40154819Y-74269311D01*
X40162968Y-74278875D01*
X40170553Y-74288462D01*
X40177571Y-74298055D01*
X40184024Y-74307622D01*
X40189900Y-74317146D01*
X40195213Y-74326597D01*
X40199949Y-74335951D01*
X40204114Y-74345183D01*
X40207707Y-74354272D01*
X40210719Y-74363191D01*
X40213157Y-74371914D01*
X40215019Y-74380415D01*
X40216297Y-74388675D01*
X40216996Y-74396666D01*
X40217111Y-74404363D01*
X40216648Y-74411742D01*
X40215599Y-74418778D01*
X40213962Y-74425447D01*
X40211737Y-74431725D01*
X40208927Y-74437588D01*
X40205528Y-74443005D01*
X40201529Y-74447959D01*
X40196949Y-74452421D01*
X40191768Y-74456369D01*
X40185996Y-74459778D01*
X40179626Y-74462622D01*
X40172655Y-74464876D01*
X40165091Y-74466515D01*
X40156924Y-74467520D01*
X40148158Y-74467860D01*
X40136793Y-74467657D01*
X40126215Y-74466983D01*
X40121168Y-74466430D01*
X40116260Y-74465718D01*
X40111469Y-74464831D01*
X40106775Y-74463762D01*
X40102164Y-74462492D01*
X40097610Y-74461002D01*
X40093088Y-74459288D01*
X40088594Y-74457329D01*
X40084088Y-74455117D01*
X40079567Y-74452635D01*
X40075003Y-74449868D01*
X40070379Y-74446805D01*
X40065669Y-74443436D01*
X40060864Y-74439739D01*
X40055938Y-74435705D01*
X40050871Y-74431318D01*
X40040237Y-74421441D01*
X40028802Y-74409996D01*
X40016413Y-74396871D01*
X40002910Y-74381956D01*
X39988122Y-74365149D01*
X39971910Y-74346330D01*
X39966754Y-74340880D01*
X39960973Y-74335822D01*
X39954612Y-74331159D01*
X39947694Y-74326885D01*
X39940272Y-74323000D01*
X39932376Y-74319504D01*
X39924062Y-74316393D01*
X39915349Y-74313668D01*
X39906280Y-74311324D01*
X39896897Y-74309362D01*
X39877342Y-74306570D01*
X39856987Y-74305280D01*
X39836149Y-74305481D01*
X39815139Y-74307154D01*
X39794253Y-74310290D01*
X39773806Y-74314869D01*
X39754113Y-74320883D01*
X39744638Y-74324426D01*
X39735472Y-74328316D01*
X39726646Y-74332564D01*
X39718204Y-74337157D01*
X39710180Y-74342098D01*
X39702607Y-74347388D01*
X39695534Y-74353019D01*
X39688999Y-74358995D01*
X39679494Y-74368690D01*
X39670976Y-74378157D01*
X39663441Y-74387406D01*
X39656898Y-74396449D01*
X39651359Y-74405289D01*
X39646832Y-74413939D01*
X39643324Y-74422407D01*
X39640843Y-74430702D01*
X39639398Y-74438836D01*
X39638999Y-74446809D01*
X39639644Y-74454635D01*
X39641358Y-74462327D01*
X39644132Y-74469889D01*
X39647987Y-74477332D01*
X39652926Y-74484661D01*
X39658956Y-74491892D01*
X39666090Y-74499026D01*
X39674330Y-74506077D01*
X39683683Y-74513053D01*
X39694169Y-74519961D01*
X39705782Y-74526810D01*
X39718542Y-74533612D01*
X39732442Y-74540375D01*
X39747511Y-74547107D01*
X39763733Y-74553818D01*
X39781137Y-74560512D01*
X39799724Y-74567199D01*
X39819502Y-74573896D01*
X39862646Y-74587336D01*
X39910660Y-74600899D01*
X39961120Y-74615354D01*
X40006553Y-74630066D01*
X40027419Y-74637544D01*
X40047082Y-74645108D01*
X40065554Y-74652767D01*
X40082846Y-74660534D01*
X40098984Y-74668410D01*
X40113974Y-74676405D01*
X40127838Y-74684527D01*
X40140587Y-74692784D01*
X40152249Y-74701180D01*
X40162823Y-74709728D01*
X40172342Y-74718432D01*
X40180813Y-74727299D01*
X40187179Y-74734805D01*
X40193203Y-74742584D01*
X40198878Y-74750628D01*
X40204208Y-74758921D01*
X40209187Y-74767447D01*
X40213814Y-74776199D01*
X40222021Y-74794313D01*
X40228816Y-74813165D01*
X40234188Y-74832649D01*
X40238127Y-74852663D01*
X40240629Y-74873099D01*
X40241679Y-74893857D01*
X40241274Y-74914833D01*
X40239401Y-74935918D01*
X40236053Y-74957012D01*
X40231219Y-74978013D01*
X40224894Y-74998813D01*
X40217067Y-75019310D01*
X40207730Y-75039399D01*
X40200277Y-75052640D01*
X40191686Y-75065375D01*
X40181994Y-75077602D01*
X40171254Y-75089308D01*
X40159504Y-75100482D01*
X40146799Y-75111118D01*
X40133184Y-75121202D01*
X40118703Y-75130724D01*
X40103406Y-75139674D01*
X40087338Y-75148044D01*
X40070542Y-75155820D01*
X40053073Y-75162996D01*
X40034973Y-75169560D01*
X40016290Y-75175500D01*
X39997072Y-75180809D01*
X39977353Y-75185475D01*
X39957204Y-75189487D01*
X39936653Y-75192836D01*
X39915755Y-75195511D01*
X39894555Y-75197504D01*
X39873100Y-75198805D01*
X39851434Y-75199399D01*
X39829607Y-75199280D01*
X39807666Y-75198437D01*
X39785650Y-75196859D01*
X39763621Y-75194535D01*
X39741608Y-75191459D01*
X39719674Y-75187616D01*
X39697854Y-75183001D01*
X39676201Y-75177596D01*
X39654766Y-75171396D01*
X39633583Y-75164390D01*
X39624634Y-75160952D01*
X39615524Y-75156894D01*
X39596933Y-75147063D01*
X39578043Y-75135155D01*
X39559095Y-75121447D01*
X39540311Y-75106200D01*
X39521933Y-75089678D01*
X39504190Y-75072147D01*
X39487326Y-75053880D01*
X39471564Y-75035131D01*
X39457148Y-75016175D01*
X39444304Y-74997274D01*
X39433273Y-74978694D01*
X39424282Y-74960703D01*
X39420631Y-74952007D01*
X39417572Y-74943564D01*
X39415145Y-74935397D01*
X39413372Y-74927540D01*
X39412292Y-74920034D01*
X39411920Y-74912903D01*
X39412390Y-74906265D01*
X39413764Y-74900234D01*
X39416003Y-74894812D01*
X39419058Y-74889990D01*
X39422889Y-74885751D01*
X39427453Y-74882099D01*
X39432694Y-74879010D01*
X39438580Y-74876485D01*
X39445059Y-74874510D01*
X39452093Y-74873083D01*
X39459632Y-74872191D01*
X39467632Y-74871825D01*
X39476058Y-74871975D01*
X39484858Y-74872634D01*
X39493978Y-74873797D01*
X39503394Y-74875444D01*
X39513045Y-74877577D01*
X39522897Y-74880184D01*
X39532897Y-74883255D01*
X39543008Y-74886786D01*
X39553183Y-74890756D01*
X39563373Y-74895172D01*
X39573543Y-74900013D01*
X39583644Y-74905278D01*
X39593626Y-74910950D01*
X39603448Y-74917027D01*
X39613073Y-74923500D01*
X39622449Y-74930356D01*
X39631538Y-74937590D01*
X39640284Y-74945194D01*
X39648650Y-74953151D01*
X39656592Y-74961464D01*
X39668359Y-74974117D01*
X39679539Y-74985512D01*
X39690280Y-74995698D01*
X39700721Y-75004746D01*
X39711008Y-75012712D01*
X39716141Y-75016311D01*
X39721287Y-75019662D01*
X39726462Y-75022778D01*
X39731698Y-75025657D01*
X39736995Y-75028317D01*
X39742386Y-75030760D01*
X39747880Y-75032995D01*
X39753493Y-75035032D01*
X39759255Y-75036871D01*
X39765176Y-75038531D01*
X39771268Y-75040011D01*
X39777556Y-75041322D01*
X39790796Y-75043467D01*
X39805035Y-75045029D01*
X39820410Y-75046068D01*
X39837069Y-75046647D01*
X39855159Y-75046825D01*
X39871894Y-75046649D01*
X39887487Y-75046104D01*
X39902016Y-75045164D01*
X39915543Y-75043798D01*
X39928148Y-75041986D01*
X39939909Y-75039695D01*
X39950901Y-75036904D01*
X39961192Y-75033587D01*
X39970857Y-75029710D01*
X39979970Y-75025252D01*
X39988609Y-75020183D01*
X39996842Y-75014479D01*
X40004747Y-75008113D01*
X40012399Y-75001055D01*
X40019866Y-74993284D01*
X40027226Y-74984772D01*
X40034237Y-74975837D01*
X40040402Y-74967057D01*
X40045716Y-74958427D01*
X40050180Y-74949943D01*
X40053779Y-74941604D01*
X40056518Y-74933399D01*
X40058392Y-74925328D01*
X40059392Y-74917381D01*
X40059521Y-74909561D01*
X40058764Y-74901858D01*
X40057125Y-74894270D01*
X40054593Y-74886788D01*
X40051176Y-74879410D01*
X40046855Y-74872133D01*
X40041635Y-74864953D01*
X40035506Y-74857860D01*
X40028467Y-74850855D01*
X40020518Y-74843931D01*
X40011643Y-74837083D01*
X40001852Y-74830304D01*
X39991126Y-74823597D01*
X39979470Y-74816950D01*
X39966878Y-74810361D01*
X39953344Y-74803824D01*
X39938864Y-74797339D01*
X39923439Y-74790896D01*
X39907056Y-74784489D01*
X39889716Y-74778121D01*
X39871410Y-74771781D01*
X39852140Y-74765466D01*
X39810684Y-74752895D01*
X39771113Y-74741148D01*
X39731848Y-74728896D01*
X39693925Y-74716502D01*
X39658362Y-74704324D01*
X39626195Y-74692730D01*
X39598444Y-74682071D01*
X39576138Y-74672714D01*
X39560305Y-74665017D01*
X39552826Y-74660594D01*
X39545579Y-74655693D01*
X39538568Y-74650336D01*
X39531812Y-74644538D01*
X39525298Y-74638321D01*
X39519043Y-74631709D01*
X39513049Y-74624715D01*
X39507325Y-74617365D01*
X39501885Y-74609675D01*
X39496720Y-74601662D01*
X39491849Y-74593351D01*
X39487272Y-74584759D01*
X39482998Y-74575906D01*
X39479031Y-74566810D01*
X39475384Y-74557492D01*
X39472054Y-74547976D01*
X39469050Y-74538277D01*
X39466388Y-74528413D01*
X39464066Y-74518407D01*
X39462089Y-74508282D01*
X39460467Y-74498051D01*
X39459212Y-74487737D01*
X39458317Y-74477360D01*
X39457798Y-74466937D01*
X39457657Y-74456489D01*
X39457910Y-74446037D01*
X39458549Y-74435602D01*
X39459589Y-74425199D01*
X39461039Y-74414853D01*
X39462899Y-74404580D01*
X39465179Y-74394403D01*
X39467884Y-74384335D01*
X39474375Y-74363141D01*
X39481015Y-74343781D01*
X39487960Y-74326100D01*
X39495362Y-74309951D01*
X39499284Y-74302403D01*
X39503381Y-74295179D01*
X39507665Y-74288261D01*
X39512163Y-74281632D01*
X39516884Y-74275267D01*
X39521864Y-74269160D01*
X39527111Y-74263277D01*
X39532643Y-74257606D01*
X39538483Y-74252131D01*
X39544651Y-74246827D01*
X39551168Y-74241682D01*
X39558049Y-74236671D01*
X39572980Y-74226982D01*
X39589610Y-74217607D01*
X39608092Y-74208400D01*
X39628575Y-74199208D01*
X39651213Y-74189878D01*
X39676164Y-74180257D01*
X39707677Y-74169585D01*
X39739527Y-74161024D01*
X39771569Y-74154553D01*
X39803646Y-74150154D01*
X39835614Y-74147800D01*
X39867306Y-74147468D01*
X39898597Y-74149139D01*
G37*
G36*
X36736751Y-74835458D02*
G01*
X36741791Y-74835709D01*
X36746546Y-74836096D01*
X36751022Y-74836639D01*
X36755230Y-74837362D01*
X36759180Y-74838279D01*
X36762886Y-74839412D01*
X36766360Y-74840785D01*
X36769613Y-74842418D01*
X36772652Y-74844328D01*
X36775495Y-74846535D01*
X36778144Y-74849066D01*
X36780618Y-74851935D01*
X36782922Y-74855163D01*
X36785074Y-74858777D01*
X36787080Y-74862789D01*
X36788951Y-74867216D01*
X36790700Y-74872093D01*
X36792340Y-74877431D01*
X36793877Y-74883250D01*
X36795323Y-74889574D01*
X36796702Y-74896418D01*
X36798007Y-74903811D01*
X36800463Y-74920307D01*
X36802785Y-74939222D01*
X36805065Y-74960723D01*
X36807391Y-74984970D01*
X36821244Y-75134660D01*
X36926695Y-75143199D01*
X36943788Y-75144945D01*
X36959631Y-75147292D01*
X36974233Y-75150191D01*
X36987601Y-75153603D01*
X36999747Y-75157487D01*
X37010676Y-75161793D01*
X37020401Y-75166486D01*
X37028925Y-75171518D01*
X37036265Y-75176855D01*
X37042421Y-75182442D01*
X37047409Y-75188243D01*
X37051236Y-75194219D01*
X37053908Y-75200322D01*
X37055440Y-75206509D01*
X37055832Y-75212739D01*
X37055103Y-75218971D01*
X37053253Y-75225160D01*
X37050289Y-75231266D01*
X37046235Y-75237242D01*
X37041087Y-75243050D01*
X37034857Y-75248642D01*
X37027552Y-75253981D01*
X37019184Y-75259022D01*
X37009760Y-75263722D01*
X36999290Y-75268039D01*
X36987786Y-75271927D01*
X36975247Y-75275350D01*
X36961688Y-75278258D01*
X36947118Y-75280614D01*
X36931552Y-75282374D01*
X36914987Y-75283496D01*
X36897443Y-75283933D01*
X36807391Y-75284323D01*
X36807391Y-75635225D01*
X36807743Y-75761584D01*
X36808550Y-75812749D01*
X36810106Y-75856644D01*
X36812648Y-75893830D01*
X36816431Y-75924862D01*
X36821689Y-75950298D01*
X36824952Y-75961087D01*
X36828672Y-75970687D01*
X36832887Y-75979168D01*
X36837626Y-75986598D01*
X36842916Y-75993044D01*
X36848786Y-75998577D01*
X36855273Y-76003268D01*
X36862408Y-76007184D01*
X36870214Y-76010402D01*
X36878728Y-76012985D01*
X36897997Y-76016522D01*
X36920448Y-76018361D01*
X36975905Y-76019163D01*
X36987811Y-76019303D01*
X36998544Y-76019756D01*
X37008153Y-76020562D01*
X37016699Y-76021772D01*
X37020589Y-76022543D01*
X37024236Y-76023431D01*
X37027643Y-76024438D01*
X37030821Y-76025576D01*
X37033778Y-76026849D01*
X37036511Y-76028263D01*
X37039038Y-76029823D01*
X37041361Y-76031534D01*
X37043492Y-76033403D01*
X37045434Y-76035429D01*
X37047192Y-76037630D01*
X37048774Y-76039999D01*
X37050194Y-76042554D01*
X37051453Y-76045292D01*
X37052555Y-76048222D01*
X37053514Y-76051345D01*
X37054334Y-76054677D01*
X37055019Y-76058213D01*
X37056024Y-76065931D01*
X37056583Y-76074550D01*
X37056762Y-76084114D01*
X37056517Y-76091001D01*
X37055783Y-76097580D01*
X37054552Y-76103852D01*
X37052836Y-76109814D01*
X37050620Y-76115467D01*
X37047910Y-76120816D01*
X37044704Y-76125859D01*
X37040997Y-76130593D01*
X37036791Y-76135023D01*
X37032083Y-76139148D01*
X37026875Y-76142961D01*
X37021160Y-76146478D01*
X37014944Y-76149686D01*
X37008223Y-76152590D01*
X37000990Y-76155194D01*
X36993252Y-76157487D01*
X36984996Y-76159483D01*
X36976236Y-76161178D01*
X36966957Y-76162565D01*
X36957166Y-76163649D01*
X36946858Y-76164439D01*
X36936035Y-76164924D01*
X36924690Y-76165106D01*
X36912830Y-76164988D01*
X36900446Y-76164571D01*
X36887542Y-76163855D01*
X36874110Y-76162839D01*
X36860155Y-76161522D01*
X36845673Y-76159907D01*
X36830662Y-76157996D01*
X36815124Y-76155786D01*
X36799056Y-76153277D01*
X36799053Y-76153306D01*
X36788156Y-76151389D01*
X36777220Y-76149199D01*
X36766325Y-76146755D01*
X36755541Y-76144087D01*
X36734582Y-76138168D01*
X36724553Y-76134972D01*
X36714915Y-76131650D01*
X36705746Y-76128227D01*
X36697107Y-76124735D01*
X36689075Y-76121188D01*
X36681725Y-76117627D01*
X36675120Y-76114063D01*
X36669339Y-76110529D01*
X36664444Y-76107046D01*
X36660514Y-76103646D01*
X36658532Y-76101315D01*
X36656580Y-76098225D01*
X36652752Y-76089805D01*
X36649037Y-76078433D01*
X36645435Y-76064159D01*
X36641958Y-76047029D01*
X36638613Y-76027102D01*
X36635400Y-76004418D01*
X36632327Y-75979031D01*
X36629398Y-75950987D01*
X36626622Y-75920341D01*
X36624000Y-75887140D01*
X36621543Y-75851434D01*
X36617130Y-75772699D01*
X36613433Y-75684535D01*
X36599579Y-75297957D01*
X36523386Y-75289346D01*
X36512772Y-75287973D01*
X36503115Y-75286341D01*
X36494372Y-75284410D01*
X36486504Y-75282153D01*
X36482891Y-75280887D01*
X36479478Y-75279522D01*
X36476272Y-75278063D01*
X36473262Y-75276495D01*
X36470439Y-75274816D01*
X36467809Y-75273029D01*
X36465360Y-75271122D01*
X36463087Y-75269089D01*
X36460988Y-75266931D01*
X36459057Y-75264642D01*
X36457293Y-75262218D01*
X36455688Y-75259650D01*
X36454236Y-75256941D01*
X36452935Y-75254082D01*
X36451778Y-75251066D01*
X36450768Y-75247897D01*
X36449893Y-75244563D01*
X36449148Y-75241061D01*
X36448033Y-75233545D01*
X36447392Y-75225303D01*
X36447188Y-75216309D01*
X36447392Y-75207316D01*
X36448033Y-75199075D01*
X36448528Y-75195227D01*
X36449148Y-75191559D01*
X36449893Y-75188056D01*
X36450768Y-75184724D01*
X36451778Y-75181554D01*
X36452935Y-75178540D01*
X36454236Y-75175679D01*
X36455687Y-75172970D01*
X36457293Y-75170405D01*
X36459055Y-75167981D01*
X36460986Y-75165688D01*
X36463086Y-75163528D01*
X36465360Y-75161499D01*
X36467809Y-75159591D01*
X36470439Y-75157801D01*
X36473260Y-75156126D01*
X36476272Y-75154558D01*
X36479478Y-75153097D01*
X36482889Y-75151735D01*
X36486504Y-75150469D01*
X36490331Y-75149292D01*
X36494370Y-75148208D01*
X36503115Y-75146281D01*
X36512772Y-75144647D01*
X36523386Y-75143273D01*
X36535577Y-75141697D01*
X36541200Y-75140786D01*
X36546517Y-75139770D01*
X36551552Y-75138624D01*
X36556317Y-75137325D01*
X36560820Y-75135861D01*
X36565078Y-75134210D01*
X36569106Y-75132344D01*
X36572918Y-75130250D01*
X36576520Y-75127905D01*
X36579932Y-75125290D01*
X36583168Y-75122386D01*
X36586239Y-75119168D01*
X36589158Y-75115621D01*
X36591942Y-75111721D01*
X36594594Y-75107450D01*
X36597145Y-75102787D01*
X36599596Y-75097711D01*
X36601962Y-75092199D01*
X36604260Y-75086242D01*
X36606502Y-75079804D01*
X36608700Y-75072877D01*
X36610867Y-75065435D01*
X36615173Y-75048928D01*
X36619518Y-75030126D01*
X36624018Y-75008859D01*
X36628777Y-74984970D01*
X36637918Y-74940402D01*
X36642196Y-74921830D01*
X36646406Y-74905544D01*
X36650640Y-74891392D01*
X36654993Y-74879237D01*
X36659555Y-74868924D01*
X36664428Y-74860316D01*
X36667009Y-74856602D01*
X36669706Y-74853261D01*
X36672524Y-74850273D01*
X36675473Y-74847621D01*
X36678573Y-74845284D01*
X36681832Y-74843244D01*
X36685262Y-74841485D01*
X36688873Y-74839990D01*
X36696692Y-74837713D01*
X36705384Y-74836264D01*
X36715040Y-74835503D01*
X36725756Y-74835281D01*
X36736751Y-74835458D01*
G37*
G36*
X30677649Y-75753831D02*
G01*
X30685187Y-76264135D01*
X30586987Y-76264135D01*
X30488789Y-76264135D01*
X30496327Y-75753831D01*
X30503864Y-75243525D01*
X30586987Y-75243525D01*
X30670107Y-75243525D01*
X30677649Y-75753831D01*
G37*
G36*
X38315692Y-75915539D02*
G01*
X38338690Y-75917171D01*
X38361726Y-75919710D01*
X38384762Y-75923156D01*
X38407730Y-75927529D01*
X38430593Y-75932839D01*
X38453304Y-75939100D01*
X38475812Y-75946324D01*
X38498069Y-75954525D01*
X38528810Y-75967341D01*
X38542896Y-75973899D01*
X38556156Y-75980656D01*
X38568618Y-75987688D01*
X38580301Y-75995077D01*
X38591233Y-76002893D01*
X38601437Y-76011215D01*
X38610937Y-76020124D01*
X38619760Y-76029687D01*
X38627927Y-76039991D01*
X38635466Y-76051107D01*
X38642397Y-76063113D01*
X38648750Y-76076087D01*
X38654546Y-76090099D01*
X38659809Y-76105234D01*
X38664559Y-76121562D01*
X38668834Y-76139167D01*
X38672644Y-76158122D01*
X38676022Y-76178503D01*
X38678989Y-76200384D01*
X38681572Y-76223842D01*
X38683789Y-76248961D01*
X38685669Y-76275810D01*
X38688525Y-76335009D01*
X38690314Y-76402062D01*
X38691246Y-76477576D01*
X38691517Y-76562165D01*
X38691517Y-76971760D01*
X38608394Y-76971760D01*
X38596806Y-76971614D01*
X38586260Y-76971154D01*
X38576716Y-76970364D01*
X38568134Y-76969210D01*
X38560468Y-76967662D01*
X38553682Y-76965698D01*
X38550608Y-76964556D01*
X38547737Y-76963296D01*
X38545067Y-76961920D01*
X38542591Y-76960424D01*
X38540304Y-76958795D01*
X38538200Y-76957048D01*
X38536275Y-76955172D01*
X38534526Y-76953156D01*
X38532946Y-76951006D01*
X38531529Y-76948714D01*
X38530270Y-76946276D01*
X38529168Y-76943696D01*
X38528214Y-76940959D01*
X38527404Y-76938074D01*
X38526191Y-76931821D01*
X38525495Y-76924913D01*
X38525274Y-76917327D01*
X38525197Y-76905221D01*
X38524850Y-76894763D01*
X38524529Y-76890158D01*
X38524071Y-76885969D01*
X38523466Y-76882196D01*
X38522690Y-76878848D01*
X38521716Y-76875924D01*
X38520537Y-76873428D01*
X38519121Y-76871356D01*
X38517446Y-76869721D01*
X38515494Y-76868512D01*
X38513244Y-76867745D01*
X38510678Y-76867416D01*
X38507774Y-76867523D01*
X38504505Y-76868073D01*
X38500857Y-76869069D01*
X38496808Y-76870512D01*
X38492334Y-76872403D01*
X38487413Y-76874746D01*
X38482030Y-76877537D01*
X38476158Y-76880793D01*
X38469779Y-76884505D01*
X38455410Y-76893304D01*
X38438763Y-76903965D01*
X38397951Y-76930934D01*
X38375619Y-76944700D01*
X38352346Y-76956895D01*
X38328218Y-76967513D01*
X38303335Y-76976548D01*
X38277791Y-76983991D01*
X38251676Y-76989839D01*
X38225085Y-76994086D01*
X38198113Y-76996725D01*
X38170850Y-76997745D01*
X38143394Y-76997146D01*
X38115841Y-76994916D01*
X38088276Y-76991057D01*
X38060804Y-76985554D01*
X38033510Y-76978404D01*
X38006489Y-76969602D01*
X37979834Y-76959140D01*
X37979834Y-76959142D01*
X37971169Y-76955186D01*
X37962580Y-76950763D01*
X37954077Y-76945895D01*
X37945673Y-76940599D01*
X37937387Y-76934893D01*
X37929227Y-76928804D01*
X37921213Y-76922346D01*
X37913348Y-76915534D01*
X37898133Y-76900948D01*
X37883697Y-76885204D01*
X37870131Y-76868452D01*
X37857553Y-76850854D01*
X37846062Y-76832562D01*
X37835761Y-76813734D01*
X37826761Y-76794525D01*
X37822781Y-76784830D01*
X37819160Y-76775096D01*
X37815917Y-76765343D01*
X37813064Y-76755598D01*
X37810616Y-76745873D01*
X37808579Y-76736186D01*
X37806979Y-76726564D01*
X37805818Y-76717021D01*
X37805109Y-76707577D01*
X37804868Y-76698257D01*
X37805777Y-76679758D01*
X37807462Y-76667553D01*
X38026960Y-76667553D01*
X38027428Y-76685476D01*
X38028654Y-76702081D01*
X38030694Y-76717430D01*
X38033587Y-76731587D01*
X38035373Y-76738242D01*
X38037392Y-76744621D01*
X38039647Y-76750738D01*
X38042151Y-76756596D01*
X38044903Y-76762208D01*
X38047921Y-76767577D01*
X38051202Y-76772715D01*
X38054748Y-76777630D01*
X38058581Y-76782328D01*
X38062694Y-76786820D01*
X38067096Y-76791113D01*
X38071791Y-76795212D01*
X38076792Y-76799131D01*
X38082101Y-76802875D01*
X38087727Y-76806449D01*
X38093675Y-76809869D01*
X38106558Y-76816265D01*
X38120803Y-76822123D01*
X38136459Y-76827517D01*
X38153580Y-76832500D01*
X38173188Y-76836963D01*
X38192970Y-76839883D01*
X38212843Y-76841282D01*
X38232728Y-76841189D01*
X38252536Y-76839637D01*
X38272200Y-76836647D01*
X38291622Y-76832253D01*
X38310725Y-76826483D01*
X38329434Y-76819357D01*
X38347660Y-76810911D01*
X38365322Y-76801172D01*
X38382337Y-76790167D01*
X38398631Y-76777918D01*
X38414112Y-76764460D01*
X38428698Y-76749825D01*
X38442315Y-76734029D01*
X38442315Y-76734032D01*
X38447948Y-76726527D01*
X38453416Y-76718301D01*
X38458697Y-76709440D01*
X38463767Y-76700016D01*
X38468597Y-76690122D01*
X38473154Y-76679830D01*
X38477408Y-76669230D01*
X38481336Y-76658407D01*
X38484910Y-76647430D01*
X38488097Y-76636394D01*
X38490875Y-76625377D01*
X38493209Y-76614458D01*
X38495069Y-76603725D01*
X38496440Y-76593261D01*
X38497280Y-76583142D01*
X38497566Y-76573455D01*
X38497566Y-76481865D01*
X38335054Y-76481865D01*
X38299528Y-76482667D01*
X38265937Y-76485056D01*
X38234327Y-76488992D01*
X38204752Y-76494448D01*
X38177257Y-76501402D01*
X38151903Y-76509809D01*
X38128735Y-76519654D01*
X38107804Y-76530896D01*
X38089156Y-76543508D01*
X38080706Y-76550319D01*
X38072851Y-76557457D01*
X38065589Y-76564924D01*
X38058929Y-76572714D01*
X38052887Y-76580826D01*
X38047453Y-76589250D01*
X38042646Y-76597987D01*
X38038467Y-76607030D01*
X38034922Y-76616381D01*
X38032021Y-76626030D01*
X38029768Y-76635973D01*
X38028166Y-76646212D01*
X38027230Y-76656743D01*
X38026960Y-76667553D01*
X37807462Y-76667553D01*
X37808426Y-76660575D01*
X37812718Y-76640893D01*
X37818544Y-76620882D01*
X37825813Y-76600718D01*
X37834405Y-76580571D01*
X37844229Y-76560614D01*
X37855187Y-76541022D01*
X37867160Y-76521968D01*
X37880061Y-76503627D01*
X37893780Y-76486167D01*
X37908217Y-76469766D01*
X37923262Y-76454595D01*
X37938817Y-76440827D01*
X37954786Y-76428632D01*
X37971054Y-76418193D01*
X37980763Y-76413083D01*
X37992245Y-76407967D01*
X38005382Y-76402867D01*
X38020029Y-76397821D01*
X38036077Y-76392848D01*
X38053392Y-76387979D01*
X38071843Y-76383250D01*
X38091314Y-76378676D01*
X38111673Y-76374295D01*
X38132795Y-76370134D01*
X38154552Y-76366219D01*
X38176821Y-76362579D01*
X38199473Y-76359246D01*
X38222381Y-76356241D01*
X38245421Y-76353599D01*
X38268464Y-76351346D01*
X38331916Y-76345311D01*
X38381921Y-76339414D01*
X38402403Y-76336352D01*
X38420137Y-76333116D01*
X38435337Y-76329642D01*
X38448203Y-76325860D01*
X38458940Y-76321696D01*
X38467763Y-76317086D01*
X38474871Y-76311961D01*
X38480465Y-76306248D01*
X38484758Y-76299877D01*
X38487952Y-76292786D01*
X38490257Y-76284902D01*
X38491871Y-76276150D01*
X38492395Y-76270060D01*
X38492312Y-76263404D01*
X38491641Y-76256229D01*
X38490405Y-76248617D01*
X38488643Y-76240626D01*
X38486372Y-76232325D01*
X38483614Y-76223784D01*
X38480404Y-76215066D01*
X38476756Y-76206235D01*
X38472709Y-76197358D01*
X38468281Y-76188502D01*
X38463501Y-76179736D01*
X38458393Y-76171124D01*
X38452983Y-76162730D01*
X38447304Y-76154624D01*
X38441370Y-76146871D01*
X38433351Y-76137378D01*
X38425013Y-76128518D01*
X38416373Y-76120294D01*
X38407447Y-76112700D01*
X38398254Y-76105740D01*
X38388804Y-76099408D01*
X38379113Y-76093709D01*
X38369201Y-76088643D01*
X38359086Y-76084202D01*
X38348775Y-76080395D01*
X38338286Y-76077220D01*
X38327642Y-76074674D01*
X38316849Y-76072753D01*
X38305931Y-76071461D01*
X38294899Y-76070800D01*
X38283772Y-76070766D01*
X38272561Y-76071358D01*
X38261284Y-76072580D01*
X38249958Y-76074423D01*
X38238603Y-76076898D01*
X38227224Y-76079996D01*
X38215847Y-76083720D01*
X38204480Y-76088069D01*
X38193139Y-76093044D01*
X38181849Y-76098640D01*
X38170617Y-76104861D01*
X38159467Y-76111708D01*
X38148406Y-76119176D01*
X38137446Y-76127268D01*
X38126616Y-76135979D01*
X38115930Y-76145313D01*
X38105393Y-76155274D01*
X38095161Y-76165004D01*
X38084889Y-76174133D01*
X38074580Y-76182665D01*
X38064239Y-76190595D01*
X38053890Y-76197906D01*
X38043527Y-76204607D01*
X38033164Y-76210692D01*
X38022811Y-76216149D01*
X38012474Y-76220987D01*
X38002161Y-76225189D01*
X37991884Y-76228758D01*
X37981644Y-76231686D01*
X37971454Y-76233968D01*
X37961324Y-76235606D01*
X37951260Y-76236592D01*
X37941276Y-76236921D01*
X37910395Y-76236712D01*
X37898110Y-76236173D01*
X37892737Y-76235713D01*
X37887856Y-76235093D01*
X37883470Y-76234293D01*
X37879564Y-76233289D01*
X37876140Y-76232060D01*
X37873182Y-76230580D01*
X37870683Y-76228827D01*
X37868639Y-76226776D01*
X37867040Y-76224406D01*
X37865886Y-76221692D01*
X37865155Y-76218612D01*
X37864852Y-76215143D01*
X37864963Y-76211263D01*
X37865482Y-76206943D01*
X37866399Y-76202168D01*
X37867710Y-76196908D01*
X37869409Y-76191146D01*
X37871487Y-76184852D01*
X37876747Y-76170585D01*
X37883424Y-76153932D01*
X37900803Y-76112701D01*
X37908393Y-76096599D01*
X37917180Y-76081087D01*
X37927116Y-76066180D01*
X37938151Y-76051894D01*
X37950237Y-76038234D01*
X37963332Y-76025223D01*
X37977381Y-76012863D01*
X37992336Y-76001174D01*
X38008154Y-75990163D01*
X38024783Y-75979848D01*
X38042172Y-75970245D01*
X38060276Y-75961357D01*
X38079050Y-75953206D01*
X38098437Y-75945792D01*
X38118393Y-75939146D01*
X38138876Y-75933267D01*
X38159828Y-75928171D01*
X38181208Y-75923875D01*
X38202960Y-75920386D01*
X38225044Y-75917720D01*
X38247407Y-75915889D01*
X38269997Y-75914907D01*
X38292776Y-75914786D01*
X38315692Y-75915539D01*
G37*
D10*
X41804510Y-23079400D02*
X42947368Y-23079400D01*
X44447368Y-23650828D02*
X43590225Y-23650828D01*
X44018796Y-23650828D02*
X44018796Y-22150828D01*
X44018796Y-22150828D02*
X43875939Y-22365114D01*
X43875939Y-22365114D02*
X43733082Y-22507971D01*
X43733082Y-22507971D02*
X43590225Y-22579400D01*
X45018796Y-22293685D02*
X45090224Y-22222257D01*
X45090224Y-22222257D02*
X45233082Y-22150828D01*
X45233082Y-22150828D02*
X45590224Y-22150828D01*
X45590224Y-22150828D02*
X45733082Y-22222257D01*
X45733082Y-22222257D02*
X45804510Y-22293685D01*
X45804510Y-22293685D02*
X45875939Y-22436542D01*
X45875939Y-22436542D02*
X45875939Y-22579400D01*
X45875939Y-22579400D02*
X45804510Y-22793685D01*
X45804510Y-22793685D02*
X44947367Y-23650828D01*
X44947367Y-23650828D02*
X45875939Y-23650828D01*
X50940225Y-23700828D02*
X50083082Y-23700828D01*
X50511653Y-23700828D02*
X50511653Y-22200828D01*
X50511653Y-22200828D02*
X50368796Y-22415114D01*
X50368796Y-22415114D02*
X50225939Y-22557971D01*
X50225939Y-22557971D02*
X50083082Y-22629400D01*
X51511653Y-22343685D02*
X51583081Y-22272257D01*
X51583081Y-22272257D02*
X51725939Y-22200828D01*
X51725939Y-22200828D02*
X52083081Y-22200828D01*
X52083081Y-22200828D02*
X52225939Y-22272257D01*
X52225939Y-22272257D02*
X52297367Y-22343685D01*
X52297367Y-22343685D02*
X52368796Y-22486542D01*
X52368796Y-22486542D02*
X52368796Y-22629400D01*
X52368796Y-22629400D02*
X52297367Y-22843685D01*
X52297367Y-22843685D02*
X51440224Y-23700828D01*
X51440224Y-23700828D02*
X52368796Y-23700828D01*
X58418796Y-22250828D02*
X57704510Y-22250828D01*
X57704510Y-22250828D02*
X57633082Y-22965114D01*
X57633082Y-22965114D02*
X57704510Y-22893685D01*
X57704510Y-22893685D02*
X57847368Y-22822257D01*
X57847368Y-22822257D02*
X58204510Y-22822257D01*
X58204510Y-22822257D02*
X58347368Y-22893685D01*
X58347368Y-22893685D02*
X58418796Y-22965114D01*
X58418796Y-22965114D02*
X58490225Y-23107971D01*
X58490225Y-23107971D02*
X58490225Y-23465114D01*
X58490225Y-23465114D02*
X58418796Y-23607971D01*
X58418796Y-23607971D02*
X58347368Y-23679400D01*
X58347368Y-23679400D02*
X58204510Y-23750828D01*
X58204510Y-23750828D02*
X57847368Y-23750828D01*
X57847368Y-23750828D02*
X57704510Y-23679400D01*
X57704510Y-23679400D02*
X57633082Y-23607971D01*
D12*
X49354819Y-31779166D02*
X48878628Y-32112499D01*
X49354819Y-32350594D02*
X48354819Y-32350594D01*
X48354819Y-32350594D02*
X48354819Y-31969642D01*
X48354819Y-31969642D02*
X48402438Y-31874404D01*
X48402438Y-31874404D02*
X48450057Y-31826785D01*
X48450057Y-31826785D02*
X48545295Y-31779166D01*
X48545295Y-31779166D02*
X48688152Y-31779166D01*
X48688152Y-31779166D02*
X48783390Y-31826785D01*
X48783390Y-31826785D02*
X48831009Y-31874404D01*
X48831009Y-31874404D02*
X48878628Y-31969642D01*
X48878628Y-31969642D02*
X48878628Y-32350594D01*
X48688152Y-30922023D02*
X49354819Y-30922023D01*
X48307200Y-31160118D02*
X49021485Y-31398213D01*
X49021485Y-31398213D02*
X49021485Y-30779166D01*
X31867261Y-28000057D02*
X31772023Y-27952438D01*
X31772023Y-27952438D02*
X31676785Y-27857200D01*
X31676785Y-27857200D02*
X31533928Y-27714342D01*
X31533928Y-27714342D02*
X31438690Y-27666723D01*
X31438690Y-27666723D02*
X31343452Y-27666723D01*
X31391071Y-27904819D02*
X31295833Y-27857200D01*
X31295833Y-27857200D02*
X31200595Y-27761961D01*
X31200595Y-27761961D02*
X31152976Y-27571485D01*
X31152976Y-27571485D02*
X31152976Y-27238152D01*
X31152976Y-27238152D02*
X31200595Y-27047676D01*
X31200595Y-27047676D02*
X31295833Y-26952438D01*
X31295833Y-26952438D02*
X31391071Y-26904819D01*
X31391071Y-26904819D02*
X31581547Y-26904819D01*
X31581547Y-26904819D02*
X31676785Y-26952438D01*
X31676785Y-26952438D02*
X31772023Y-27047676D01*
X31772023Y-27047676D02*
X31819642Y-27238152D01*
X31819642Y-27238152D02*
X31819642Y-27571485D01*
X31819642Y-27571485D02*
X31772023Y-27761961D01*
X31772023Y-27761961D02*
X31676785Y-27857200D01*
X31676785Y-27857200D02*
X31581547Y-27904819D01*
X31581547Y-27904819D02*
X31391071Y-27904819D01*
X32772023Y-27904819D02*
X32200595Y-27904819D01*
X32486309Y-27904819D02*
X32486309Y-26904819D01*
X32486309Y-26904819D02*
X32391071Y-27047676D01*
X32391071Y-27047676D02*
X32295833Y-27142914D01*
X32295833Y-27142914D02*
X32200595Y-27190533D01*
X36233333Y-37254819D02*
X35900000Y-36778628D01*
X35661905Y-37254819D02*
X35661905Y-36254819D01*
X35661905Y-36254819D02*
X36042857Y-36254819D01*
X36042857Y-36254819D02*
X36138095Y-36302438D01*
X36138095Y-36302438D02*
X36185714Y-36350057D01*
X36185714Y-36350057D02*
X36233333Y-36445295D01*
X36233333Y-36445295D02*
X36233333Y-36588152D01*
X36233333Y-36588152D02*
X36185714Y-36683390D01*
X36185714Y-36683390D02*
X36138095Y-36731009D01*
X36138095Y-36731009D02*
X36042857Y-36778628D01*
X36042857Y-36778628D02*
X35661905Y-36778628D01*
X36614286Y-36350057D02*
X36661905Y-36302438D01*
X36661905Y-36302438D02*
X36757143Y-36254819D01*
X36757143Y-36254819D02*
X36995238Y-36254819D01*
X36995238Y-36254819D02*
X37090476Y-36302438D01*
X37090476Y-36302438D02*
X37138095Y-36350057D01*
X37138095Y-36350057D02*
X37185714Y-36445295D01*
X37185714Y-36445295D02*
X37185714Y-36540533D01*
X37185714Y-36540533D02*
X37138095Y-36683390D01*
X37138095Y-36683390D02*
X36566667Y-37254819D01*
X36566667Y-37254819D02*
X37185714Y-37254819D01*
X33454819Y-33738094D02*
X32454819Y-33738094D01*
X32454819Y-33738094D02*
X32454819Y-33499999D01*
X32454819Y-33499999D02*
X32502438Y-33357142D01*
X32502438Y-33357142D02*
X32597676Y-33261904D01*
X32597676Y-33261904D02*
X32692914Y-33214285D01*
X32692914Y-33214285D02*
X32883390Y-33166666D01*
X32883390Y-33166666D02*
X33026247Y-33166666D01*
X33026247Y-33166666D02*
X33216723Y-33214285D01*
X33216723Y-33214285D02*
X33311961Y-33261904D01*
X33311961Y-33261904D02*
X33407200Y-33357142D01*
X33407200Y-33357142D02*
X33454819Y-33499999D01*
X33454819Y-33499999D02*
X33454819Y-33738094D01*
X32550057Y-32785713D02*
X32502438Y-32738094D01*
X32502438Y-32738094D02*
X32454819Y-32642856D01*
X32454819Y-32642856D02*
X32454819Y-32404761D01*
X32454819Y-32404761D02*
X32502438Y-32309523D01*
X32502438Y-32309523D02*
X32550057Y-32261904D01*
X32550057Y-32261904D02*
X32645295Y-32214285D01*
X32645295Y-32214285D02*
X32740533Y-32214285D01*
X32740533Y-32214285D02*
X32883390Y-32261904D01*
X32883390Y-32261904D02*
X33454819Y-32833332D01*
X33454819Y-32833332D02*
X33454819Y-32214285D01*
X52559580Y-37366666D02*
X52607200Y-37414285D01*
X52607200Y-37414285D02*
X52654819Y-37557142D01*
X52654819Y-37557142D02*
X52654819Y-37652380D01*
X52654819Y-37652380D02*
X52607200Y-37795237D01*
X52607200Y-37795237D02*
X52511961Y-37890475D01*
X52511961Y-37890475D02*
X52416723Y-37938094D01*
X52416723Y-37938094D02*
X52226247Y-37985713D01*
X52226247Y-37985713D02*
X52083390Y-37985713D01*
X52083390Y-37985713D02*
X51892914Y-37938094D01*
X51892914Y-37938094D02*
X51797676Y-37890475D01*
X51797676Y-37890475D02*
X51702438Y-37795237D01*
X51702438Y-37795237D02*
X51654819Y-37652380D01*
X51654819Y-37652380D02*
X51654819Y-37557142D01*
X51654819Y-37557142D02*
X51702438Y-37414285D01*
X51702438Y-37414285D02*
X51750057Y-37366666D01*
X51654819Y-37033332D02*
X51654819Y-36414285D01*
X51654819Y-36414285D02*
X52035771Y-36747618D01*
X52035771Y-36747618D02*
X52035771Y-36604761D01*
X52035771Y-36604761D02*
X52083390Y-36509523D01*
X52083390Y-36509523D02*
X52131009Y-36461904D01*
X52131009Y-36461904D02*
X52226247Y-36414285D01*
X52226247Y-36414285D02*
X52464342Y-36414285D01*
X52464342Y-36414285D02*
X52559580Y-36461904D01*
X52559580Y-36461904D02*
X52607200Y-36509523D01*
X52607200Y-36509523D02*
X52654819Y-36604761D01*
X52654819Y-36604761D02*
X52654819Y-36890475D01*
X52654819Y-36890475D02*
X52607200Y-36985713D01*
X52607200Y-36985713D02*
X52559580Y-37033332D01*
X55354819Y-31866666D02*
X54878628Y-32199999D01*
X55354819Y-32438094D02*
X54354819Y-32438094D01*
X54354819Y-32438094D02*
X54354819Y-32057142D01*
X54354819Y-32057142D02*
X54402438Y-31961904D01*
X54402438Y-31961904D02*
X54450057Y-31914285D01*
X54450057Y-31914285D02*
X54545295Y-31866666D01*
X54545295Y-31866666D02*
X54688152Y-31866666D01*
X54688152Y-31866666D02*
X54783390Y-31914285D01*
X54783390Y-31914285D02*
X54831009Y-31961904D01*
X54831009Y-31961904D02*
X54878628Y-32057142D01*
X54878628Y-32057142D02*
X54878628Y-32438094D01*
X54354819Y-30961904D02*
X54354819Y-31438094D01*
X54354819Y-31438094D02*
X54831009Y-31485713D01*
X54831009Y-31485713D02*
X54783390Y-31438094D01*
X54783390Y-31438094D02*
X54735771Y-31342856D01*
X54735771Y-31342856D02*
X54735771Y-31104761D01*
X54735771Y-31104761D02*
X54783390Y-31009523D01*
X54783390Y-31009523D02*
X54831009Y-30961904D01*
X54831009Y-30961904D02*
X54926247Y-30914285D01*
X54926247Y-30914285D02*
X55164342Y-30914285D01*
X55164342Y-30914285D02*
X55259580Y-30961904D01*
X55259580Y-30961904D02*
X55307200Y-31009523D01*
X55307200Y-31009523D02*
X55354819Y-31104761D01*
X55354819Y-31104761D02*
X55354819Y-31342856D01*
X55354819Y-31342856D02*
X55307200Y-31438094D01*
X55307200Y-31438094D02*
X55259580Y-31485713D01*
X39204819Y-29279166D02*
X38728628Y-29612499D01*
X39204819Y-29850594D02*
X38204819Y-29850594D01*
X38204819Y-29850594D02*
X38204819Y-29469642D01*
X38204819Y-29469642D02*
X38252438Y-29374404D01*
X38252438Y-29374404D02*
X38300057Y-29326785D01*
X38300057Y-29326785D02*
X38395295Y-29279166D01*
X38395295Y-29279166D02*
X38538152Y-29279166D01*
X38538152Y-29279166D02*
X38633390Y-29326785D01*
X38633390Y-29326785D02*
X38681009Y-29374404D01*
X38681009Y-29374404D02*
X38728628Y-29469642D01*
X38728628Y-29469642D02*
X38728628Y-29850594D01*
X39204819Y-28326785D02*
X39204819Y-28898213D01*
X39204819Y-28612499D02*
X38204819Y-28612499D01*
X38204819Y-28612499D02*
X38347676Y-28707737D01*
X38347676Y-28707737D02*
X38442914Y-28802975D01*
X38442914Y-28802975D02*
X38490533Y-28898213D01*
X34078095Y-40294819D02*
X34078095Y-41104342D01*
X34078095Y-41104342D02*
X34125714Y-41199580D01*
X34125714Y-41199580D02*
X34173333Y-41247200D01*
X34173333Y-41247200D02*
X34268571Y-41294819D01*
X34268571Y-41294819D02*
X34459047Y-41294819D01*
X34459047Y-41294819D02*
X34554285Y-41247200D01*
X34554285Y-41247200D02*
X34601904Y-41199580D01*
X34601904Y-41199580D02*
X34649523Y-41104342D01*
X34649523Y-41104342D02*
X34649523Y-40294819D01*
X35649523Y-41294819D02*
X35078095Y-41294819D01*
X35363809Y-41294819D02*
X35363809Y-40294819D01*
X35363809Y-40294819D02*
X35268571Y-40437676D01*
X35268571Y-40437676D02*
X35173333Y-40532914D01*
X35173333Y-40532914D02*
X35078095Y-40580533D01*
X55744819Y-27708094D02*
X54744819Y-27708094D01*
X54744819Y-27708094D02*
X54744819Y-27469999D01*
X54744819Y-27469999D02*
X54792438Y-27327142D01*
X54792438Y-27327142D02*
X54887676Y-27231904D01*
X54887676Y-27231904D02*
X54982914Y-27184285D01*
X54982914Y-27184285D02*
X55173390Y-27136666D01*
X55173390Y-27136666D02*
X55316247Y-27136666D01*
X55316247Y-27136666D02*
X55506723Y-27184285D01*
X55506723Y-27184285D02*
X55601961Y-27231904D01*
X55601961Y-27231904D02*
X55697200Y-27327142D01*
X55697200Y-27327142D02*
X55744819Y-27469999D01*
X55744819Y-27469999D02*
X55744819Y-27708094D01*
X54744819Y-26231904D02*
X54744819Y-26708094D01*
X54744819Y-26708094D02*
X55221009Y-26755713D01*
X55221009Y-26755713D02*
X55173390Y-26708094D01*
X55173390Y-26708094D02*
X55125771Y-26612856D01*
X55125771Y-26612856D02*
X55125771Y-26374761D01*
X55125771Y-26374761D02*
X55173390Y-26279523D01*
X55173390Y-26279523D02*
X55221009Y-26231904D01*
X55221009Y-26231904D02*
X55316247Y-26184285D01*
X55316247Y-26184285D02*
X55554342Y-26184285D01*
X55554342Y-26184285D02*
X55649580Y-26231904D01*
X55649580Y-26231904D02*
X55697200Y-26279523D01*
X55697200Y-26279523D02*
X55744819Y-26374761D01*
X55744819Y-26374761D02*
X55744819Y-26612856D01*
X55744819Y-26612856D02*
X55697200Y-26708094D01*
X55697200Y-26708094D02*
X55649580Y-26755713D01*
X50883333Y-58589580D02*
X50835714Y-58637200D01*
X50835714Y-58637200D02*
X50692857Y-58684819D01*
X50692857Y-58684819D02*
X50597619Y-58684819D01*
X50597619Y-58684819D02*
X50454762Y-58637200D01*
X50454762Y-58637200D02*
X50359524Y-58541961D01*
X50359524Y-58541961D02*
X50311905Y-58446723D01*
X50311905Y-58446723D02*
X50264286Y-58256247D01*
X50264286Y-58256247D02*
X50264286Y-58113390D01*
X50264286Y-58113390D02*
X50311905Y-57922914D01*
X50311905Y-57922914D02*
X50359524Y-57827676D01*
X50359524Y-57827676D02*
X50454762Y-57732438D01*
X50454762Y-57732438D02*
X50597619Y-57684819D01*
X50597619Y-57684819D02*
X50692857Y-57684819D01*
X50692857Y-57684819D02*
X50835714Y-57732438D01*
X50835714Y-57732438D02*
X50883333Y-57780057D01*
X51835714Y-58684819D02*
X51264286Y-58684819D01*
X51550000Y-58684819D02*
X51550000Y-57684819D01*
X51550000Y-57684819D02*
X51454762Y-57827676D01*
X51454762Y-57827676D02*
X51359524Y-57922914D01*
X51359524Y-57922914D02*
X51264286Y-57970533D01*
X51289555Y-51915437D02*
X51289555Y-52724960D01*
X51289555Y-52724960D02*
X51337174Y-52820198D01*
X51337174Y-52820198D02*
X51384793Y-52867818D01*
X51384793Y-52867818D02*
X51480031Y-52915437D01*
X51480031Y-52915437D02*
X51670507Y-52915437D01*
X51670507Y-52915437D02*
X51765745Y-52867818D01*
X51765745Y-52867818D02*
X51813364Y-52820198D01*
X51813364Y-52820198D02*
X51860983Y-52724960D01*
X51860983Y-52724960D02*
X51860983Y-51915437D01*
X52289555Y-52010675D02*
X52337174Y-51963056D01*
X52337174Y-51963056D02*
X52432412Y-51915437D01*
X52432412Y-51915437D02*
X52670507Y-51915437D01*
X52670507Y-51915437D02*
X52765745Y-51963056D01*
X52765745Y-51963056D02*
X52813364Y-52010675D01*
X52813364Y-52010675D02*
X52860983Y-52105913D01*
X52860983Y-52105913D02*
X52860983Y-52201151D01*
X52860983Y-52201151D02*
X52813364Y-52344008D01*
X52813364Y-52344008D02*
X52241936Y-52915437D01*
X52241936Y-52915437D02*
X52860983Y-52915437D01*
X48744819Y-27708094D02*
X47744819Y-27708094D01*
X47744819Y-27708094D02*
X47744819Y-27469999D01*
X47744819Y-27469999D02*
X47792438Y-27327142D01*
X47792438Y-27327142D02*
X47887676Y-27231904D01*
X47887676Y-27231904D02*
X47982914Y-27184285D01*
X47982914Y-27184285D02*
X48173390Y-27136666D01*
X48173390Y-27136666D02*
X48316247Y-27136666D01*
X48316247Y-27136666D02*
X48506723Y-27184285D01*
X48506723Y-27184285D02*
X48601961Y-27231904D01*
X48601961Y-27231904D02*
X48697200Y-27327142D01*
X48697200Y-27327142D02*
X48744819Y-27469999D01*
X48744819Y-27469999D02*
X48744819Y-27708094D01*
X48078152Y-26279523D02*
X48744819Y-26279523D01*
X47697200Y-26517618D02*
X48411485Y-26755713D01*
X48411485Y-26755713D02*
X48411485Y-26136666D01*
X39354819Y-25488094D02*
X38354819Y-25488094D01*
X38354819Y-25488094D02*
X38354819Y-25249999D01*
X38354819Y-25249999D02*
X38402438Y-25107142D01*
X38402438Y-25107142D02*
X38497676Y-25011904D01*
X38497676Y-25011904D02*
X38592914Y-24964285D01*
X38592914Y-24964285D02*
X38783390Y-24916666D01*
X38783390Y-24916666D02*
X38926247Y-24916666D01*
X38926247Y-24916666D02*
X39116723Y-24964285D01*
X39116723Y-24964285D02*
X39211961Y-25011904D01*
X39211961Y-25011904D02*
X39307200Y-25107142D01*
X39307200Y-25107142D02*
X39354819Y-25249999D01*
X39354819Y-25249999D02*
X39354819Y-25488094D01*
X39354819Y-23964285D02*
X39354819Y-24535713D01*
X39354819Y-24249999D02*
X38354819Y-24249999D01*
X38354819Y-24249999D02*
X38497676Y-24345237D01*
X38497676Y-24345237D02*
X38592914Y-24440475D01*
X38592914Y-24440475D02*
X38640533Y-24535713D01*
X41744819Y-27708094D02*
X40744819Y-27708094D01*
X40744819Y-27708094D02*
X40744819Y-27469999D01*
X40744819Y-27469999D02*
X40792438Y-27327142D01*
X40792438Y-27327142D02*
X40887676Y-27231904D01*
X40887676Y-27231904D02*
X40982914Y-27184285D01*
X40982914Y-27184285D02*
X41173390Y-27136666D01*
X41173390Y-27136666D02*
X41316247Y-27136666D01*
X41316247Y-27136666D02*
X41506723Y-27184285D01*
X41506723Y-27184285D02*
X41601961Y-27231904D01*
X41601961Y-27231904D02*
X41697200Y-27327142D01*
X41697200Y-27327142D02*
X41744819Y-27469999D01*
X41744819Y-27469999D02*
X41744819Y-27708094D01*
X40744819Y-26803332D02*
X40744819Y-26184285D01*
X40744819Y-26184285D02*
X41125771Y-26517618D01*
X41125771Y-26517618D02*
X41125771Y-26374761D01*
X41125771Y-26374761D02*
X41173390Y-26279523D01*
X41173390Y-26279523D02*
X41221009Y-26231904D01*
X41221009Y-26231904D02*
X41316247Y-26184285D01*
X41316247Y-26184285D02*
X41554342Y-26184285D01*
X41554342Y-26184285D02*
X41649580Y-26231904D01*
X41649580Y-26231904D02*
X41697200Y-26279523D01*
X41697200Y-26279523D02*
X41744819Y-26374761D01*
X41744819Y-26374761D02*
X41744819Y-26660475D01*
X41744819Y-26660475D02*
X41697200Y-26755713D01*
X41697200Y-26755713D02*
X41649580Y-26803332D01*
X57039580Y-37516666D02*
X57087200Y-37564285D01*
X57087200Y-37564285D02*
X57134819Y-37707142D01*
X57134819Y-37707142D02*
X57134819Y-37802380D01*
X57134819Y-37802380D02*
X57087200Y-37945237D01*
X57087200Y-37945237D02*
X56991961Y-38040475D01*
X56991961Y-38040475D02*
X56896723Y-38088094D01*
X56896723Y-38088094D02*
X56706247Y-38135713D01*
X56706247Y-38135713D02*
X56563390Y-38135713D01*
X56563390Y-38135713D02*
X56372914Y-38088094D01*
X56372914Y-38088094D02*
X56277676Y-38040475D01*
X56277676Y-38040475D02*
X56182438Y-37945237D01*
X56182438Y-37945237D02*
X56134819Y-37802380D01*
X56134819Y-37802380D02*
X56134819Y-37707142D01*
X56134819Y-37707142D02*
X56182438Y-37564285D01*
X56182438Y-37564285D02*
X56230057Y-37516666D01*
X56230057Y-37135713D02*
X56182438Y-37088094D01*
X56182438Y-37088094D02*
X56134819Y-36992856D01*
X56134819Y-36992856D02*
X56134819Y-36754761D01*
X56134819Y-36754761D02*
X56182438Y-36659523D01*
X56182438Y-36659523D02*
X56230057Y-36611904D01*
X56230057Y-36611904D02*
X56325295Y-36564285D01*
X56325295Y-36564285D02*
X56420533Y-36564285D01*
X56420533Y-36564285D02*
X56563390Y-36611904D01*
X56563390Y-36611904D02*
X57134819Y-37183332D01*
X57134819Y-37183332D02*
X57134819Y-36564285D01*
X43354819Y-31866666D02*
X42878628Y-32199999D01*
X43354819Y-32438094D02*
X42354819Y-32438094D01*
X42354819Y-32438094D02*
X42354819Y-32057142D01*
X42354819Y-32057142D02*
X42402438Y-31961904D01*
X42402438Y-31961904D02*
X42450057Y-31914285D01*
X42450057Y-31914285D02*
X42545295Y-31866666D01*
X42545295Y-31866666D02*
X42688152Y-31866666D01*
X42688152Y-31866666D02*
X42783390Y-31914285D01*
X42783390Y-31914285D02*
X42831009Y-31961904D01*
X42831009Y-31961904D02*
X42878628Y-32057142D01*
X42878628Y-32057142D02*
X42878628Y-32438094D01*
X42354819Y-31533332D02*
X42354819Y-30914285D01*
X42354819Y-30914285D02*
X42735771Y-31247618D01*
X42735771Y-31247618D02*
X42735771Y-31104761D01*
X42735771Y-31104761D02*
X42783390Y-31009523D01*
X42783390Y-31009523D02*
X42831009Y-30961904D01*
X42831009Y-30961904D02*
X42926247Y-30914285D01*
X42926247Y-30914285D02*
X43164342Y-30914285D01*
X43164342Y-30914285D02*
X43259580Y-30961904D01*
X43259580Y-30961904D02*
X43307200Y-31009523D01*
X43307200Y-31009523D02*
X43354819Y-31104761D01*
X43354819Y-31104761D02*
X43354819Y-31390475D01*
X43354819Y-31390475D02*
X43307200Y-31485713D01*
X43307200Y-31485713D02*
X43259580Y-31533332D01*
X20416666Y-39847319D02*
X20416666Y-40561604D01*
X20416666Y-40561604D02*
X20369047Y-40704461D01*
X20369047Y-40704461D02*
X20273809Y-40799700D01*
X20273809Y-40799700D02*
X20130952Y-40847319D01*
X20130952Y-40847319D02*
X20035714Y-40847319D01*
X20797619Y-39847319D02*
X21416666Y-39847319D01*
X21416666Y-39847319D02*
X21083333Y-40228271D01*
X21083333Y-40228271D02*
X21226190Y-40228271D01*
X21226190Y-40228271D02*
X21321428Y-40275890D01*
X21321428Y-40275890D02*
X21369047Y-40323509D01*
X21369047Y-40323509D02*
X21416666Y-40418747D01*
X21416666Y-40418747D02*
X21416666Y-40656842D01*
X21416666Y-40656842D02*
X21369047Y-40752080D01*
X21369047Y-40752080D02*
X21321428Y-40799700D01*
X21321428Y-40799700D02*
X21226190Y-40847319D01*
X21226190Y-40847319D02*
X20940476Y-40847319D01*
X20940476Y-40847319D02*
X20845238Y-40799700D01*
X20845238Y-40799700D02*
X20797619Y-40752080D01*
%TO.C,R4*%
D13*
X46515000Y-31385436D02*
X46515000Y-31839564D01*
X47985000Y-31385436D02*
X47985000Y-31839564D01*
%TO.C,Q1*%
X31202500Y-23490000D02*
X32722500Y-23490000D01*
X31202500Y-24490000D02*
X31202500Y-23490000D01*
X31202500Y-26610000D02*
X31202500Y-25610000D01*
X32722500Y-23490000D02*
X32722500Y-23540000D01*
X32722500Y-24660000D02*
X32722500Y-25440000D01*
X32722500Y-26560000D02*
X32722500Y-26610000D01*
X32722500Y-26610000D02*
X31202500Y-26610000D01*
X33262500Y-25430000D02*
X33022500Y-25100000D01*
X33502500Y-25100000D01*
X33262500Y-25430000D01*
G36*
X33262500Y-25430000D02*
G01*
X33022500Y-25100000D01*
X33502500Y-25100000D01*
X33262500Y-25430000D01*
G37*
%TO.C,R2*%
X36172936Y-37715000D02*
X36627064Y-37715000D01*
X36172936Y-39185000D02*
X36627064Y-39185000D01*
%TO.C,D2*%
X34764000Y-35230000D02*
X34920000Y-35230000D01*
X37080000Y-35230000D02*
X37236000Y-35230000D01*
X34764484Y-35230000D02*
G75*
G02*
X34920000Y-31998563I1235516J1560000D01*
G01*
X34920000Y-34710961D02*
G75*
G02*
X34920000Y-32629039I1080000J1040961D01*
G01*
X37080000Y-31998563D02*
G75*
G02*
X37235516Y-35230000I-1080000J-1671437D01*
G01*
X37080000Y-32629039D02*
G75*
G02*
X37080000Y-34710961I-1080000J-1040961D01*
G01*
%TO.C,C3*%
X46740000Y-36004437D02*
X46740000Y-39460000D01*
X46740000Y-39460000D02*
X47940000Y-39460000D01*
X47804437Y-34940000D02*
X46740000Y-36004437D01*
X47804437Y-34940000D02*
X47940000Y-34940000D01*
X50195563Y-34940000D02*
X50060000Y-34940000D01*
X50195563Y-34940000D02*
X51260000Y-36004437D01*
X50560000Y-34200000D02*
X50560000Y-34700000D01*
X50810000Y-34450000D02*
X50310000Y-34450000D01*
X51260000Y-36004437D02*
X51260000Y-39460000D01*
X51260000Y-39460000D02*
X50060000Y-39460000D01*
%TO.C,R5*%
X52515000Y-31472936D02*
X52515000Y-31927064D01*
X53985000Y-31472936D02*
X53985000Y-31927064D01*
%TO.C,R1*%
X36365000Y-28885436D02*
X36365000Y-29339564D01*
X37835000Y-28885436D02*
X37835000Y-29339564D01*
%TO.C,J1*%
X58710000Y-40010000D02*
X67830000Y-40010000D01*
X58710000Y-68210000D02*
X58710000Y-40010000D01*
X60020000Y-41310000D02*
X66520000Y-41310000D01*
X60020000Y-66910000D02*
X60020000Y-41310000D01*
X66520000Y-41310000D02*
X66520000Y-52060000D01*
X66520000Y-52060000D02*
X67830000Y-52060000D01*
X66520000Y-56160000D02*
X66520000Y-66910000D01*
X66520000Y-66910000D02*
X60020000Y-66910000D01*
X67830000Y-40010000D02*
X67830000Y-68210000D01*
X67830000Y-56160000D02*
X66520000Y-56160000D01*
X67830000Y-68210000D02*
X58710000Y-68210000D01*
X68220000Y-63000000D02*
X69220000Y-63500000D01*
X69220000Y-62500000D02*
X68220000Y-63000000D01*
X69220000Y-63500000D02*
X69220000Y-62500000D01*
%TO.C,U1*%
D14*
X22140000Y-42300000D02*
X22140000Y-67700000D01*
X22140000Y-67700000D02*
X47540000Y-67700000D01*
X47540000Y-42300000D02*
X22140000Y-42300000D01*
X47540000Y-67700000D02*
X47540000Y-42300000D01*
X21320000Y-52330000D02*
G75*
G02*
X20420000Y-52330000I-450000J0D01*
G01*
X20420000Y-52330000D02*
G75*
G02*
X21320000Y-52330000I450000J0D01*
G01*
D15*
X22170000Y-42300000D02*
G75*
G02*
X22110000Y-42300000I-30000J0D01*
G01*
X22110000Y-42300000D02*
G75*
G02*
X22170000Y-42300000I30000J0D01*
G01*
%TO.C,D5*%
D13*
X57014000Y-28530000D02*
X57170000Y-28530000D01*
X59330000Y-28530000D02*
X59486000Y-28530000D01*
X57014484Y-28530000D02*
G75*
G02*
X57170000Y-25298563I1235516J1560000D01*
G01*
X57170000Y-28010961D02*
G75*
G02*
X57170000Y-25929039I1080000J1040961D01*
G01*
X59330000Y-25298563D02*
G75*
G02*
X59485516Y-28530000I-1080000J-1671437D01*
G01*
X59330000Y-25929039D02*
G75*
G02*
X59330000Y-28010961I-1080000J-1040961D01*
G01*
%TO.C,C1*%
X51311252Y-55815000D02*
X50788748Y-55815000D01*
X51311252Y-57285000D02*
X50788748Y-57285000D01*
%TO.C,U2*%
X48625000Y-44375000D02*
X48625000Y-50795000D01*
X48625000Y-50795000D02*
X48895000Y-50795000D01*
X55525000Y-44375000D02*
X55525000Y-50795000D01*
X55525000Y-50795000D02*
X55255000Y-50795000D01*
X48935000Y-52525000D02*
X48465000Y-52865000D01*
X48465000Y-52185000D01*
X48935000Y-52525000D01*
G36*
X48935000Y-52525000D02*
G01*
X48465000Y-52865000D01*
X48465000Y-52185000D01*
X48935000Y-52525000D01*
G37*
%TO.C,D4*%
X50014000Y-28530000D02*
X50170000Y-28530000D01*
X52330000Y-28530000D02*
X52486000Y-28530000D01*
X50014484Y-28530000D02*
G75*
G02*
X50170000Y-25298563I1235516J1560000D01*
G01*
X50170000Y-28010961D02*
G75*
G02*
X50170000Y-25929039I1080000J1040961D01*
G01*
X52330000Y-25298563D02*
G75*
G02*
X52485516Y-28530000I-1080000J-1671437D01*
G01*
X52330000Y-25929039D02*
G75*
G02*
X52330000Y-28010961I-1080000J-1040961D01*
G01*
%TO.C,D1*%
X35900000Y-22390000D02*
X35900000Y-26400000D01*
X37900000Y-22390000D02*
X35900000Y-22390000D01*
X37900000Y-22390000D02*
X37900000Y-26400000D01*
%TO.C,D3*%
X43014000Y-28530000D02*
X43170000Y-28530000D01*
X45330000Y-28530000D02*
X45486000Y-28530000D01*
X43014484Y-28530000D02*
G75*
G02*
X43170000Y-25298563I1235516J1560000D01*
G01*
X43170000Y-28010961D02*
G75*
G02*
X43170000Y-25929039I1080000J1040961D01*
G01*
X45330000Y-25298563D02*
G75*
G02*
X45485516Y-28530000I-1080000J-1671437D01*
G01*
X45330000Y-25929039D02*
G75*
G02*
X45330000Y-28010961I-1080000J-1040961D01*
G01*
%TO.C,C2*%
X54265000Y-37088748D02*
X54265000Y-37611252D01*
X55735000Y-37088748D02*
X55735000Y-37611252D01*
%TO.C,R3*%
X40515000Y-31472936D02*
X40515000Y-31927064D01*
X41985000Y-31472936D02*
X41985000Y-31927064D01*
%TO.C,J2*%
X43080000Y-76225000D02*
X43080000Y-80225000D01*
X43370000Y-72515000D02*
X45650000Y-72515000D01*
X43370000Y-82485000D02*
X43370000Y-72515000D01*
X43370000Y-82485000D02*
X58670000Y-82485000D01*
X43370000Y-83485000D02*
X43370000Y-82485000D01*
X45650000Y-72515000D02*
X45650000Y-72915000D01*
X45650000Y-72915000D02*
X48350000Y-72915000D01*
X48350000Y-72515000D02*
X58670000Y-72515000D01*
X48350000Y-72915000D02*
X48350000Y-72515000D01*
X58670000Y-72515000D02*
X58670000Y-83485000D01*
X58670000Y-83485000D02*
X43370000Y-83485000D01*
%TO.C,J3*%
X15400000Y-30042500D02*
X30100000Y-30042500D01*
X15400000Y-39242500D02*
X15400000Y-30042500D01*
X24200000Y-39242500D02*
X15400000Y-39242500D01*
X29250000Y-29842500D02*
X30300000Y-29842500D01*
X30100000Y-30042500D02*
X30100000Y-32642500D01*
X30100000Y-36542500D02*
X30100000Y-39242500D01*
X30100000Y-39242500D02*
X28200000Y-39242500D01*
X30300000Y-30892500D02*
X30300000Y-29842500D01*
%TD*%
M02*
