M48
; DRILL file KiCad 10.0.0 date 2026-09-30T19:53:00
; FORMAT={-:-/ absolute / metric / decimal}
; #@! TF.CreationDate,2026-09-30T19:53:00-03:00
; #@! TF.GenerationSoftware,Kicad,Pcbnew,10.0.0
; #@! TF.FileFunction,Plated,1,2,PTH
FMAT,2
METRIC
; #@! TA.AperFunction,Plated,PTH,ComponentDrill
T1C0.900
; #@! TA.AperFunction,Plated,PTH,ComponentDrill
T2C1.000
; #@! TA.AperFunction,Plated,PTH,ComponentDrill
T3C1.600
%
G90
G05
T1
X30.0Y-66.0
X30.0Y-68.54
X34.0Y-78.73
X34.0Y-81.27
X39.0Y-66.0
X39.0Y-68.54
X216.46Y-59.96
X216.46Y-62.5
T2
X42.38Y-50.0
X42.38Y-52.54
X44.92Y-50.0
X44.92Y-52.54
X47.46Y-50.0
X47.46Y-52.54
X50.0Y-50.0
X50.0Y-52.54
X52.54Y-50.0
X52.54Y-52.54
X55.08Y-50.0
X55.08Y-52.54
X57.62Y-50.0
X57.62Y-52.54
X60.16Y-50.0
X60.16Y-52.54
X75.0Y-50.0
X75.0Y-52.54
X77.54Y-50.0
X77.54Y-52.54
X80.08Y-50.0
X80.08Y-52.54
X82.62Y-50.0
X82.62Y-52.54
X85.16Y-50.0
X85.16Y-52.54
X87.7Y-50.0
X87.7Y-52.54
X90.24Y-50.0
X90.24Y-52.54
X92.78Y-50.0
X92.78Y-52.54
X107.5Y-50.0
X107.5Y-52.54
X110.04Y-50.0
X110.04Y-52.54
X112.58Y-50.0
X112.58Y-52.54
X115.12Y-50.0
X115.12Y-52.54
X117.66Y-50.0
X117.66Y-52.54
X120.2Y-50.0
X120.2Y-52.54
X122.74Y-50.0
X122.74Y-52.54
X125.28Y-50.0
X125.28Y-52.54
X139.8Y-50.0
X139.8Y-52.54
X142.34Y-50.0
X142.34Y-52.54
X144.88Y-50.0
X144.88Y-52.54
X147.42Y-50.0
X147.42Y-52.54
X149.96Y-50.0
X149.96Y-52.54
X152.5Y-50.0
X152.5Y-52.54
X155.04Y-50.0
X155.04Y-52.54
X157.58Y-50.0
X157.58Y-52.54
X172.42Y-50.0
X172.42Y-52.54
X174.96Y-50.0
X174.96Y-52.54
X177.5Y-50.0
X177.5Y-52.54
X180.04Y-50.0
X180.04Y-52.54
X182.58Y-50.0
X182.58Y-52.54
X185.12Y-50.0
X185.12Y-52.54
X187.66Y-50.0
X187.66Y-52.54
X190.2Y-50.0
X190.2Y-52.54
T3
X169.84Y-65.84
X169.84Y-73.46
X169.84Y-78.54
X190.16Y-65.84
X190.16Y-76.0
X190.16Y-86.16
T2
G00X214.0Y-51.957
M15
G01X214.0Y-49.957
M16
G05
G00X218.0Y-46.258
M15
G01X216.0Y-46.258
M16
G05
G00X220.0Y-51.957
M15
G01X220.0Y-49.957
M16
G05
M30
