M48
; DRILL file KiCad 10.0.0 date 2026-10-03T01:13:28
; FORMAT={-:-/ absolute / metric / decimal}
; #@! TF.CreationDate,2026-10-03T01:13:28-03:00
; #@! TF.GenerationSoftware,Kicad,Pcbnew,10.0.0
; #@! TF.FileFunction,Plated,1,2,PTH
FMAT,2
METRIC
; #@! TA.AperFunction,Plated,PTH,ViaDrill
T1C0.300
; #@! TA.AperFunction,Plated,PTH,ComponentDrill
T2C0.900
; #@! TA.AperFunction,Plated,PTH,ComponentDrill
T3C1.000
; #@! TA.AperFunction,Plated,PTH,ComponentDrill
T4C1.600
; #@! TA.AperFunction,Plated,PTH,ComponentDrill
T5C1.800
%
G90
G05
T1
X33.8Y-29.15
X39.2Y-27.0
X46.0Y-51.0
X54.35Y-66.15
T2
X36.0Y-32.4
X36.0Y-34.94
X44.25Y-25.7
X44.25Y-28.24
X51.25Y-25.7
X51.25Y-28.24
X58.25Y-25.7
X58.25Y-28.24
T3
X62.0Y-45.22
X62.0Y-47.76
X62.0Y-50.3
X62.0Y-52.84
X62.0Y-55.38
X62.0Y-57.92
X62.0Y-60.46
X62.0Y-63.0
X64.54Y-45.22
X64.54Y-47.76
X64.54Y-50.3
X64.54Y-52.84
X64.54Y-55.38
X64.54Y-57.92
X64.54Y-60.46
X64.54Y-63.0
T4
X24.68Y-44.84
X24.68Y-52.46
X24.68Y-57.54
X45.0Y-44.84
X45.0Y-55.0
X45.0Y-65.16
T5
X45.08Y-78.225
X49.04Y-78.225
X53.0Y-78.225
X56.96Y-78.225
T3
G00X23.2Y-33.642
M15
G01X23.2Y-35.642
M16
G05
G00X25.2Y-39.343
M15
G01X27.2Y-39.343
M16
G05
G00X29.2Y-33.642
M15
G01X29.2Y-35.642
M16
G05
M30
