%TF.GenerationSoftware,KiCad,Pcbnew,10.0.0*%
%TF.CreationDate,2026-09-30T19:52:57-03:00*%
%TF.ProjectId,chufe-v-0-rev-a,63687566-652d-4762-9d30-2d7265762d61,rev?*%
%TF.SameCoordinates,Original*%
%TF.FileFunction,Legend,Top*%
%TF.FilePolarity,Positive*%
%FSLAX46Y46*%
G04 Gerber Fmt 4.6, Leading zero omitted, Abs format (unit mm)*
G04 Created by KiCad (PCBNEW 10.0.0) date 2026-09-30 19:52:57*
%MOMM*%
%LPD*%
G01*
G04 APERTURE LIST*
%ADD10C,0.000000*%
%ADD11C,0.300000*%
%ADD12C,0.150000*%
%ADD13C,0.120000*%
%ADD14C,0.250000*%
%ADD15C,0.060000*%
G04 APERTURE END LIST*
D10*
G36*
X134256186Y-80452538D02*
G01*
X134273313Y-81612058D01*
X134050184Y-81612058D01*
X133827053Y-81612058D01*
X133844183Y-80452538D01*
X133861311Y-79293021D01*
X134050184Y-79293021D01*
X134239057Y-79293021D01*
X134256186Y-80452538D01*
G37*
G36*
X134083695Y-78339006D02*
G01*
X134099860Y-78340053D01*
X134115221Y-78341937D01*
X134129787Y-78344669D01*
X134143569Y-78348252D01*
X134156575Y-78352697D01*
X134168818Y-78358011D01*
X134180310Y-78364201D01*
X134191056Y-78371275D01*
X134201074Y-78379240D01*
X134210366Y-78388107D01*
X134218948Y-78397875D01*
X134226832Y-78408561D01*
X134234022Y-78420172D01*
X134240535Y-78432703D01*
X134246376Y-78446178D01*
X134251557Y-78460595D01*
X134256090Y-78475962D01*
X134259987Y-78492293D01*
X134263253Y-78509587D01*
X134265902Y-78527856D01*
X134269391Y-78567350D01*
X134270536Y-78610833D01*
X134270358Y-78647278D01*
X134269649Y-78679439D01*
X134268158Y-78707583D01*
X134265620Y-78731977D01*
X134263882Y-78742851D01*
X134261787Y-78752886D01*
X134259306Y-78762118D01*
X134256402Y-78770576D01*
X134253045Y-78778301D01*
X134249203Y-78785319D01*
X134244848Y-78791667D01*
X134239938Y-78797377D01*
X134234455Y-78802482D01*
X134228353Y-78807019D01*
X134221607Y-78811014D01*
X134214187Y-78814506D01*
X134206058Y-78817529D01*
X134197183Y-78820112D01*
X134187541Y-78822291D01*
X134177092Y-78824103D01*
X134153651Y-78826739D01*
X134126607Y-78828294D01*
X134095698Y-78829033D01*
X134060678Y-78829217D01*
X134017664Y-78828374D01*
X133975880Y-78825963D01*
X133936360Y-78822152D01*
X133900134Y-78817108D01*
X133883580Y-78814171D01*
X133868238Y-78810996D01*
X133854235Y-78807599D01*
X133841702Y-78803998D01*
X133830767Y-78800213D01*
X133821560Y-78796271D01*
X133814212Y-78792187D01*
X133808847Y-78787990D01*
X133808848Y-78787990D01*
X133806694Y-78785648D01*
X133804572Y-78782885D01*
X133800414Y-78776155D01*
X133796400Y-78767907D01*
X133792550Y-78758249D01*
X133788882Y-78747294D01*
X133785421Y-78735152D01*
X133782190Y-78721934D01*
X133779204Y-78707749D01*
X133776491Y-78692708D01*
X133774067Y-78676921D01*
X133771961Y-78660500D01*
X133770186Y-78643553D01*
X133768770Y-78626190D01*
X133767731Y-78608525D01*
X133767093Y-78590666D01*
X133766874Y-78572723D01*
X133767312Y-78548575D01*
X133768666Y-78526325D01*
X133771007Y-78505877D01*
X133774416Y-78487128D01*
X133776538Y-78478366D01*
X133778955Y-78469991D01*
X133781675Y-78461997D01*
X133784698Y-78454366D01*
X133788046Y-78447089D01*
X133791721Y-78440151D01*
X133795733Y-78433546D01*
X133800089Y-78427256D01*
X133804802Y-78421274D01*
X133809876Y-78415583D01*
X133815324Y-78410174D01*
X133821156Y-78405033D01*
X133827375Y-78400148D01*
X133833996Y-78395512D01*
X133841024Y-78391104D01*
X133848469Y-78386918D01*
X133864648Y-78379159D01*
X133882598Y-78372139D01*
X133902406Y-78365756D01*
X133924130Y-78359919D01*
X133969204Y-78349915D01*
X134010768Y-78343057D01*
X134030263Y-78340823D01*
X134048907Y-78339400D01*
X134066716Y-78338792D01*
X134083695Y-78339006D01*
G37*
G36*
X140267268Y-74821098D02*
G01*
X140471879Y-74840477D01*
X140503360Y-75727372D01*
X140513883Y-76006888D01*
X140524293Y-76222684D01*
X140536358Y-76384641D01*
X140543565Y-76448510D01*
X140551849Y-76502619D01*
X140561433Y-76548210D01*
X140572536Y-76586504D01*
X140585384Y-76618743D01*
X140600191Y-76646160D01*
X140617182Y-76669989D01*
X140636578Y-76691467D01*
X140683469Y-76732287D01*
X140701718Y-76746016D01*
X140720730Y-76758862D01*
X140740452Y-76770824D01*
X140760839Y-76781895D01*
X140803388Y-76801383D01*
X140847973Y-76817323D01*
X140894188Y-76829724D01*
X140941623Y-76838582D01*
X140989871Y-76843890D01*
X141038525Y-76845660D01*
X141087178Y-76843883D01*
X141135424Y-76838563D01*
X141182855Y-76829699D01*
X141229065Y-76817292D01*
X141273644Y-76801339D01*
X141316186Y-76781847D01*
X141336567Y-76770769D01*
X141356286Y-76758806D01*
X141375294Y-76745960D01*
X141393536Y-76732228D01*
X141418404Y-76711750D01*
X141429757Y-76701628D01*
X141440426Y-76691383D01*
X141450439Y-76680857D01*
X141459821Y-76669899D01*
X141468605Y-76658354D01*
X141476812Y-76646062D01*
X141484474Y-76632876D01*
X141491618Y-76618641D01*
X141498272Y-76603197D01*
X141504463Y-76586393D01*
X141510220Y-76568078D01*
X141515568Y-76548093D01*
X141520537Y-76526288D01*
X141525152Y-76502503D01*
X141529443Y-76476590D01*
X141533437Y-76448393D01*
X141537162Y-76417752D01*
X141540647Y-76384523D01*
X141543914Y-76348544D01*
X141546995Y-76309665D01*
X141549920Y-76267726D01*
X141552712Y-76222578D01*
X141558014Y-76122034D01*
X141563122Y-76006796D01*
X141568257Y-75875635D01*
X141573643Y-75727309D01*
X141605124Y-74840479D01*
X141793996Y-74840479D01*
X141982870Y-74840479D01*
X142000000Y-76000000D01*
X142017127Y-77159518D01*
X141826865Y-77159518D01*
X141803776Y-77159157D01*
X141782182Y-77158073D01*
X141762088Y-77156268D01*
X141743494Y-77153740D01*
X141726392Y-77150487D01*
X141710786Y-77146510D01*
X141696674Y-77141812D01*
X141684051Y-77136381D01*
X141672917Y-77130227D01*
X141663276Y-77123346D01*
X141659011Y-77119634D01*
X141655121Y-77115738D01*
X141651599Y-77111663D01*
X141648448Y-77107399D01*
X141645672Y-77102959D01*
X141643262Y-77098334D01*
X141641228Y-77093527D01*
X141639560Y-77088539D01*
X141638264Y-77083368D01*
X141637342Y-77078012D01*
X141636785Y-77072474D01*
X141636602Y-77066753D01*
X141636435Y-77055840D01*
X141635926Y-77045652D01*
X141635075Y-77036183D01*
X141633874Y-77027439D01*
X141632316Y-77019415D01*
X141630399Y-77012120D01*
X141628115Y-77005545D01*
X141625458Y-76999694D01*
X141622426Y-76994567D01*
X141619010Y-76990167D01*
X141615203Y-76986487D01*
X141611006Y-76983537D01*
X141606410Y-76981309D01*
X141601411Y-76979810D01*
X141595998Y-76979034D01*
X141590172Y-76978984D01*
X141583920Y-76979664D01*
X141577247Y-76981068D01*
X141570140Y-76983200D01*
X141562599Y-76986060D01*
X141554610Y-76989648D01*
X141546174Y-76993961D01*
X141537287Y-76999004D01*
X141527938Y-77004773D01*
X141518128Y-77011276D01*
X141507842Y-77018506D01*
X141497083Y-77026465D01*
X141485844Y-77035153D01*
X141474118Y-77044571D01*
X141461902Y-77054720D01*
X141435970Y-77077210D01*
X141420214Y-77089857D01*
X141402216Y-77101856D01*
X141382102Y-77113198D01*
X141360003Y-77123881D01*
X141310359Y-77143238D01*
X141254314Y-77159867D01*
X141192901Y-77173720D01*
X141127154Y-77184738D01*
X141058100Y-77192877D01*
X140986777Y-77198076D01*
X140914207Y-77200286D01*
X140841426Y-77199451D01*
X140769467Y-77195518D01*
X140699360Y-77188435D01*
X140632135Y-77178156D01*
X140568826Y-77164613D01*
X140510460Y-77147766D01*
X140458071Y-77127555D01*
X140458071Y-77127546D01*
X140426803Y-77113082D01*
X140397186Y-77098272D01*
X140369182Y-77082962D01*
X140342745Y-77066999D01*
X140317828Y-77050230D01*
X140294394Y-77032509D01*
X140272396Y-77013677D01*
X140251793Y-76993583D01*
X140232538Y-76972074D01*
X140214590Y-76949000D01*
X140197907Y-76924204D01*
X140182443Y-76897539D01*
X140168155Y-76868846D01*
X140155002Y-76837980D01*
X140142939Y-76804783D01*
X140131922Y-76769104D01*
X140121908Y-76730794D01*
X140112856Y-76689697D01*
X140104721Y-76645656D01*
X140097457Y-76598529D01*
X140091025Y-76548154D01*
X140085377Y-76494382D01*
X140080477Y-76437063D01*
X140076274Y-76376044D01*
X140072727Y-76311169D01*
X140069796Y-76242287D01*
X140065595Y-76091895D01*
X140063333Y-75923646D01*
X140062654Y-75736322D01*
X140062654Y-74801717D01*
X140267268Y-74821098D01*
G37*
G36*
X138068094Y-76364764D02*
G01*
X138089703Y-76366407D01*
X138117547Y-76369869D01*
X138142394Y-76373783D01*
X138164412Y-76378363D01*
X138174414Y-76380969D01*
X138183765Y-76383819D01*
X138192492Y-76386942D01*
X138200616Y-76390365D01*
X138208154Y-76394109D01*
X138215134Y-76398204D01*
X138221566Y-76402679D01*
X138227480Y-76407556D01*
X138232896Y-76412868D01*
X138237827Y-76418634D01*
X138242297Y-76424882D01*
X138246334Y-76431644D01*
X138249947Y-76438940D01*
X138253172Y-76446799D01*
X138256014Y-76455247D01*
X138258501Y-76464312D01*
X138260653Y-76474018D01*
X138262491Y-76484392D01*
X138264034Y-76495462D01*
X138265304Y-76507255D01*
X138267110Y-76533108D01*
X138268070Y-76562164D01*
X138268355Y-76594638D01*
X138268139Y-76629181D01*
X138267305Y-76659749D01*
X138265573Y-76686617D01*
X138264281Y-76698749D01*
X138262664Y-76710055D01*
X138260680Y-76720576D01*
X138258295Y-76730342D01*
X138255476Y-76739387D01*
X138252189Y-76747746D01*
X138248398Y-76755456D01*
X138244068Y-76762545D01*
X138239164Y-76769050D01*
X138233647Y-76775004D01*
X138227492Y-76780446D01*
X138220654Y-76785405D01*
X138213102Y-76789919D01*
X138204802Y-76794019D01*
X138195719Y-76797740D01*
X138185814Y-76801115D01*
X138175060Y-76804180D01*
X138163409Y-76806968D01*
X138137311Y-76811853D01*
X138107240Y-76816043D01*
X138072912Y-76819808D01*
X138034049Y-76823425D01*
X137977444Y-76829379D01*
X137924026Y-76836995D01*
X137873732Y-76846306D01*
X137826507Y-76857346D01*
X137782295Y-76870149D01*
X137741034Y-76884743D01*
X137702677Y-76901159D01*
X137667157Y-76919435D01*
X137634419Y-76939601D01*
X137604408Y-76961689D01*
X137577062Y-76985730D01*
X137552331Y-77011758D01*
X137530154Y-77039805D01*
X137510474Y-77069900D01*
X137493230Y-77102080D01*
X137478370Y-77136377D01*
X137472262Y-77155981D01*
X137466331Y-77182549D01*
X137460594Y-77215624D01*
X137455095Y-77254746D01*
X137444916Y-77349305D01*
X137436032Y-77462558D01*
X137428699Y-77590848D01*
X137423156Y-77730514D01*
X137419648Y-77877888D01*
X137418422Y-78029310D01*
X137418422Y-78767377D01*
X137208567Y-78767377D01*
X137165553Y-78766536D01*
X137123768Y-78764124D01*
X137084246Y-78760311D01*
X137048025Y-78755266D01*
X137031469Y-78752338D01*
X137016124Y-78749158D01*
X137002123Y-78745761D01*
X136989590Y-78742159D01*
X136978655Y-78738376D01*
X136969450Y-78734431D01*
X136962099Y-78730352D01*
X136956735Y-78726150D01*
X136956736Y-78726150D01*
X136954584Y-78722602D01*
X136952460Y-78716263D01*
X136948304Y-78695494D01*
X136944288Y-78664428D01*
X136940441Y-78623644D01*
X136933310Y-78515263D01*
X136927095Y-78375019D01*
X136921958Y-78207576D01*
X136918075Y-78017600D01*
X136915620Y-77809754D01*
X136914764Y-77588705D01*
X136915532Y-77270697D01*
X136918287Y-77018454D01*
X136923696Y-76824280D01*
X136932447Y-76680476D01*
X136938287Y-76625054D01*
X136945213Y-76579337D01*
X136953312Y-76542365D01*
X136962667Y-76513172D01*
X136973361Y-76490797D01*
X136985488Y-76474277D01*
X136999122Y-76462650D01*
X137014348Y-76454955D01*
X137049964Y-76442634D01*
X137084702Y-76432788D01*
X137118425Y-76425390D01*
X137150988Y-76420405D01*
X137182249Y-76417804D01*
X137212066Y-76417557D01*
X137240291Y-76419635D01*
X137266788Y-76424003D01*
X137291412Y-76430635D01*
X137302977Y-76434789D01*
X137314018Y-76439494D01*
X137324522Y-76444750D01*
X137334463Y-76450555D01*
X137343832Y-76456899D01*
X137352609Y-76463782D01*
X137360771Y-76471203D01*
X137368306Y-76479152D01*
X137375194Y-76487629D01*
X137381417Y-76496627D01*
X137386955Y-76506147D01*
X137391794Y-76516181D01*
X137395916Y-76526726D01*
X137399298Y-76537780D01*
X137404887Y-76558030D01*
X137410369Y-76575492D01*
X137413182Y-76583170D01*
X137416096Y-76590131D01*
X137419161Y-76596376D01*
X137422415Y-76601894D01*
X137425903Y-76606682D01*
X137429673Y-76610734D01*
X137433764Y-76614048D01*
X137438220Y-76616609D01*
X137443085Y-76618422D01*
X137448405Y-76619475D01*
X137454217Y-76619763D01*
X137460571Y-76619283D01*
X137467509Y-76618026D01*
X137475075Y-76615988D01*
X137483309Y-76613161D01*
X137492258Y-76609546D01*
X137501964Y-76605128D01*
X137512472Y-76599908D01*
X137523827Y-76593879D01*
X137536064Y-76587033D01*
X137563386Y-76570874D01*
X137594783Y-76551383D01*
X137630603Y-76528514D01*
X137671199Y-76502229D01*
X137699591Y-76484354D01*
X137727996Y-76467637D01*
X137756344Y-76452088D01*
X137784570Y-76437734D01*
X137812607Y-76424596D01*
X137840387Y-76412694D01*
X137867850Y-76402050D01*
X137894926Y-76392686D01*
X137921551Y-76384622D01*
X137947656Y-76377882D01*
X137973176Y-76372486D01*
X137998045Y-76368454D01*
X138022202Y-76365807D01*
X138045569Y-76364572D01*
X138068094Y-76364764D01*
G37*
G36*
X130781786Y-75444341D02*
G01*
X130829307Y-75447342D01*
X130876572Y-75452827D01*
X130923458Y-75460765D01*
X130969868Y-75471132D01*
X131015690Y-75483900D01*
X131060818Y-75499044D01*
X131105139Y-75516530D01*
X131148553Y-75536341D01*
X131190946Y-75558443D01*
X131232212Y-75582811D01*
X131272242Y-75609421D01*
X131310933Y-75638236D01*
X131348173Y-75669240D01*
X131383853Y-75702402D01*
X131417870Y-75737692D01*
X131450113Y-75775089D01*
X131480469Y-75814560D01*
X131508841Y-75856081D01*
X131535116Y-75899623D01*
X131559186Y-75945164D01*
X131591526Y-76016257D01*
X131619598Y-76089315D01*
X131643488Y-76164068D01*
X131663286Y-76240245D01*
X131679087Y-76317576D01*
X131690978Y-76395786D01*
X131703389Y-76553763D01*
X131701251Y-76712009D01*
X131685286Y-76868350D01*
X131656213Y-77020616D01*
X131614766Y-77166633D01*
X131561657Y-77304235D01*
X131497618Y-77431247D01*
X131461726Y-77490103D01*
X131423369Y-77545502D01*
X131382643Y-77597165D01*
X131339639Y-77644824D01*
X131294440Y-77688207D01*
X131247143Y-77727046D01*
X131197834Y-77761062D01*
X131146608Y-77789994D01*
X131093556Y-77813560D01*
X131038764Y-77831496D01*
X130982327Y-77843528D01*
X130924328Y-77849385D01*
X130859216Y-77851894D01*
X130798438Y-77853222D01*
X130741626Y-77853303D01*
X130688414Y-77852059D01*
X130638432Y-77849421D01*
X130591313Y-77845322D01*
X130546693Y-77839683D01*
X130504197Y-77832440D01*
X130463463Y-77823515D01*
X130424123Y-77812842D01*
X130385807Y-77800344D01*
X130348148Y-77785957D01*
X130310776Y-77769600D01*
X130273329Y-77751207D01*
X130235437Y-77730710D01*
X130196730Y-77708032D01*
X129994827Y-77585609D01*
X129976375Y-78068277D01*
X129957928Y-78550943D01*
X129755475Y-78570163D01*
X129725545Y-78572692D01*
X129698405Y-78574256D01*
X129673887Y-78574772D01*
X129651815Y-78574150D01*
X129632032Y-78572309D01*
X129622945Y-78570898D01*
X129614366Y-78569156D01*
X129606273Y-78567061D01*
X129598647Y-78564608D01*
X129591471Y-78561784D01*
X129584716Y-78558574D01*
X129578365Y-78554975D01*
X129572398Y-78550972D01*
X129566791Y-78546554D01*
X129561527Y-78541712D01*
X129556583Y-78536432D01*
X129551935Y-78530707D01*
X129547572Y-78524523D01*
X129543462Y-78517874D01*
X129535932Y-78503121D01*
X129529179Y-78486361D01*
X129523043Y-78467511D01*
X129517347Y-78446480D01*
X129517348Y-78446472D01*
X129513807Y-78424696D01*
X129510546Y-78389367D01*
X129504898Y-78281192D01*
X129500486Y-78128248D01*
X129497372Y-77936818D01*
X129495642Y-77713198D01*
X129495363Y-77463687D01*
X129499450Y-76912147D01*
X129503273Y-76612744D01*
X130020548Y-76612744D01*
X130021695Y-76690403D01*
X130026348Y-76767487D01*
X130034473Y-76842945D01*
X130046030Y-76915729D01*
X130060982Y-76984784D01*
X130079285Y-77049063D01*
X130100902Y-77107515D01*
X130125792Y-77159091D01*
X130139452Y-77181970D01*
X130153917Y-77202737D01*
X130178964Y-77234627D01*
X130204505Y-77264712D01*
X130230506Y-77292992D01*
X130256940Y-77319454D01*
X130283774Y-77344107D01*
X130310969Y-77366939D01*
X130338498Y-77387948D01*
X130366329Y-77407129D01*
X130394429Y-77424477D01*
X130422761Y-77439993D01*
X130451297Y-77453668D01*
X130480005Y-77465501D01*
X130508853Y-77475485D01*
X130537802Y-77483622D01*
X130566826Y-77489904D01*
X130595893Y-77494327D01*
X130624962Y-77496884D01*
X130654009Y-77497579D01*
X130683000Y-77496400D01*
X130711903Y-77493352D01*
X130740682Y-77488420D01*
X130769307Y-77481610D01*
X130797745Y-77472913D01*
X130825963Y-77462328D01*
X130853929Y-77449848D01*
X130881610Y-77435470D01*
X130908980Y-77419190D01*
X130935994Y-77401008D01*
X130962631Y-77380912D01*
X130988849Y-77358908D01*
X131014621Y-77334984D01*
X131039916Y-77309139D01*
X131063393Y-77282028D01*
X131085412Y-77252619D01*
X131105971Y-77221056D01*
X131125062Y-77187484D01*
X131142690Y-77152052D01*
X131158849Y-77114909D01*
X131186756Y-77036058D01*
X131208769Y-76952112D01*
X131224866Y-76864226D01*
X131235038Y-76773584D01*
X131239271Y-76681346D01*
X131237541Y-76588682D01*
X131229839Y-76496768D01*
X131216146Y-76406772D01*
X131196447Y-76319862D01*
X131170723Y-76237205D01*
X131155600Y-76197838D01*
X131138962Y-76159975D01*
X131120813Y-76123762D01*
X131101151Y-76089343D01*
X131079967Y-76056864D01*
X131057267Y-76026476D01*
X131033185Y-75998362D01*
X131007765Y-75972417D01*
X130981108Y-75948622D01*
X130953313Y-75926970D01*
X130924481Y-75907448D01*
X130894707Y-75890043D01*
X130864092Y-75874741D01*
X130832732Y-75861537D01*
X130800730Y-75850413D01*
X130768180Y-75841355D01*
X130735190Y-75834357D01*
X130701845Y-75829402D01*
X130668254Y-75826483D01*
X130634512Y-75825584D01*
X130600721Y-75826693D01*
X130566979Y-75829799D01*
X130533379Y-75834893D01*
X130500027Y-75841955D01*
X130467015Y-75850984D01*
X130434450Y-75861958D01*
X130402422Y-75874872D01*
X130371038Y-75889704D01*
X130340393Y-75906457D01*
X130310587Y-75925104D01*
X130281715Y-75945644D01*
X130253879Y-75968059D01*
X130227177Y-75992342D01*
X130201711Y-76018474D01*
X130177574Y-76046450D01*
X130154869Y-76076251D01*
X130133690Y-76107871D01*
X130114144Y-76141293D01*
X130089612Y-76193560D01*
X130068865Y-76252602D01*
X130051866Y-76317374D01*
X130038574Y-76386828D01*
X130028952Y-76459907D01*
X130022954Y-76535561D01*
X130020548Y-76612744D01*
X129503273Y-76612744D01*
X129517224Y-75520725D01*
X129726594Y-75501001D01*
X129756714Y-75498478D01*
X129784170Y-75496893D01*
X129809106Y-75496311D01*
X129831667Y-75496793D01*
X129851997Y-75498406D01*
X129870246Y-75501215D01*
X129886552Y-75505279D01*
X129894025Y-75507808D01*
X129901065Y-75510675D01*
X129907696Y-75513884D01*
X129913931Y-75517454D01*
X129919793Y-75521384D01*
X129925294Y-75525687D01*
X129930456Y-75530367D01*
X129935297Y-75535438D01*
X129939834Y-75540902D01*
X129944090Y-75546772D01*
X129951810Y-75559751D01*
X129958614Y-75574442D01*
X129964635Y-75590912D01*
X129970028Y-75609221D01*
X129977513Y-75636882D01*
X129984487Y-75660860D01*
X129991315Y-75681158D01*
X129994789Y-75689926D01*
X129998359Y-75697777D01*
X130002070Y-75704711D01*
X130005973Y-75710727D01*
X130010106Y-75715826D01*
X130014515Y-75720006D01*
X130019251Y-75723272D01*
X130024347Y-75725620D01*
X130029862Y-75727053D01*
X130035831Y-75727572D01*
X130042306Y-75727177D01*
X130049322Y-75725867D01*
X130056932Y-75723642D01*
X130065178Y-75720504D01*
X130074105Y-75716454D01*
X130083759Y-75711489D01*
X130094185Y-75705616D01*
X130105429Y-75698832D01*
X130130538Y-75682527D01*
X130159453Y-75662583D01*
X130230128Y-75611781D01*
X130272414Y-75582885D01*
X130315726Y-75556797D01*
X130359963Y-75533489D01*
X130405014Y-75512933D01*
X130450769Y-75495103D01*
X130497128Y-75479972D01*
X130543970Y-75467513D01*
X130591198Y-75457696D01*
X130638701Y-75450498D01*
X130686372Y-75445893D01*
X130734101Y-75443847D01*
X130781786Y-75444341D01*
G37*
G36*
X148023707Y-78365807D02*
G01*
X148035161Y-78366380D01*
X148045962Y-78367259D01*
X148056128Y-78368495D01*
X148065690Y-78370132D01*
X148074672Y-78372218D01*
X148083092Y-78374795D01*
X148090984Y-78377917D01*
X148098376Y-78381622D01*
X148105281Y-78385964D01*
X148111731Y-78390983D01*
X148117754Y-78396731D01*
X148123373Y-78403249D01*
X148128613Y-78410585D01*
X148133500Y-78418789D01*
X148138059Y-78427901D01*
X148142313Y-78437974D01*
X148146288Y-78449052D01*
X148150014Y-78461177D01*
X148153510Y-78474402D01*
X148156804Y-78488772D01*
X148159923Y-78504327D01*
X148162890Y-78521119D01*
X148168471Y-78558602D01*
X148173748Y-78601582D01*
X148178928Y-78650436D01*
X148184206Y-78705530D01*
X148215691Y-79045657D01*
X148455298Y-79065058D01*
X148494135Y-79069029D01*
X148530135Y-79074358D01*
X148563311Y-79080944D01*
X148593687Y-79088697D01*
X148621285Y-79097517D01*
X148646116Y-79107306D01*
X148668212Y-79117972D01*
X148687586Y-79129409D01*
X148704258Y-79141524D01*
X148718252Y-79154227D01*
X148729588Y-79167412D01*
X148738281Y-79180986D01*
X148744355Y-79194851D01*
X148747828Y-79208910D01*
X148748725Y-79223070D01*
X148747061Y-79237230D01*
X148742858Y-79251290D01*
X148736138Y-79265160D01*
X148726915Y-79278743D01*
X148715216Y-79291937D01*
X148701061Y-79304648D01*
X148684464Y-79316777D01*
X148665450Y-79328228D01*
X148644038Y-79338907D01*
X148620246Y-79348715D01*
X148594099Y-79357553D01*
X148565613Y-79365329D01*
X148534810Y-79371941D01*
X148501707Y-79377296D01*
X148466331Y-79381294D01*
X148428698Y-79383840D01*
X148388823Y-79384837D01*
X148184211Y-79385722D01*
X148184211Y-80183039D01*
X148185014Y-80470155D01*
X148186848Y-80586412D01*
X148190382Y-80686155D01*
X148196164Y-80770646D01*
X148204754Y-80841156D01*
X148216705Y-80898947D01*
X148224115Y-80923468D01*
X148232573Y-80945282D01*
X148242149Y-80964551D01*
X148252914Y-80981430D01*
X148264930Y-80996077D01*
X148278276Y-81008654D01*
X148293020Y-81019312D01*
X148309222Y-81028217D01*
X148326963Y-81035521D01*
X148346308Y-81041388D01*
X148390083Y-81049426D01*
X148441105Y-81053607D01*
X148567109Y-81055430D01*
X148594168Y-81055750D01*
X148618551Y-81056774D01*
X148640385Y-81058608D01*
X148659801Y-81061357D01*
X148668643Y-81063105D01*
X148676929Y-81065121D01*
X148684671Y-81067416D01*
X148691894Y-81070003D01*
X148698607Y-81072894D01*
X148704821Y-81076105D01*
X148710566Y-81079648D01*
X148715847Y-81083534D01*
X148720684Y-81087774D01*
X148725095Y-81092389D01*
X148729089Y-81097387D01*
X148732694Y-81102777D01*
X148735914Y-81108576D01*
X148738768Y-81114798D01*
X148741277Y-81121451D01*
X148743454Y-81128555D01*
X148745314Y-81136117D01*
X148746875Y-81144151D01*
X148749159Y-81161691D01*
X148750437Y-81181276D01*
X148750834Y-81203013D01*
X148750276Y-81218660D01*
X148748607Y-81233608D01*
X148745820Y-81247857D01*
X148741912Y-81261405D01*
X148736880Y-81274252D01*
X148730721Y-81286406D01*
X148723436Y-81297862D01*
X148715015Y-81308620D01*
X148705459Y-81318682D01*
X148694768Y-81328054D01*
X148682930Y-81336730D01*
X148669950Y-81344712D01*
X148655821Y-81352002D01*
X148640543Y-81358605D01*
X148624110Y-81364513D01*
X148606521Y-81369734D01*
X148587771Y-81374265D01*
X148567858Y-81378111D01*
X148546780Y-81381268D01*
X148524533Y-81383739D01*
X148501115Y-81385523D01*
X148476518Y-81386622D01*
X148450744Y-81387042D01*
X148423792Y-81386777D01*
X148395652Y-81385829D01*
X148366329Y-81384200D01*
X148335814Y-81381890D01*
X148304102Y-81378902D01*
X148271197Y-81375233D01*
X148237094Y-81370884D01*
X148201784Y-81365863D01*
X148165273Y-81360163D01*
X148165269Y-81360224D01*
X148140500Y-81355873D01*
X148115658Y-81350895D01*
X148090905Y-81345340D01*
X148066398Y-81339277D01*
X148018777Y-81325831D01*
X147995985Y-81318566D01*
X147974090Y-81311017D01*
X147953247Y-81303247D01*
X147933625Y-81295306D01*
X147915381Y-81287258D01*
X147898673Y-81279154D01*
X147883669Y-81271057D01*
X147870528Y-81263027D01*
X147859408Y-81255114D01*
X147850476Y-81247386D01*
X147845981Y-81242088D01*
X147841537Y-81235071D01*
X147832839Y-81215939D01*
X147824395Y-81190098D01*
X147816221Y-81157665D01*
X147808321Y-81118747D01*
X147800715Y-81073463D01*
X147793414Y-81021923D01*
X147786432Y-80964236D01*
X147779779Y-80900521D01*
X147773466Y-80830885D01*
X147767511Y-80755443D01*
X147761921Y-80674309D01*
X147751902Y-80495409D01*
X147743506Y-80295087D01*
X147712026Y-79416703D01*
X147538893Y-79397135D01*
X147514783Y-79394017D01*
X147492835Y-79390305D01*
X147472968Y-79385921D01*
X147455096Y-79380783D01*
X147446881Y-79377909D01*
X147439136Y-79374814D01*
X147431846Y-79371493D01*
X147425003Y-79367932D01*
X147418596Y-79364123D01*
X147412615Y-79360057D01*
X147407047Y-79355719D01*
X147401884Y-79351106D01*
X147397120Y-79346202D01*
X147392734Y-79341000D01*
X147388722Y-79335489D01*
X147385073Y-79329657D01*
X147381778Y-79323500D01*
X147378825Y-79317003D01*
X147376196Y-79310159D01*
X147373895Y-79302950D01*
X147371902Y-79295376D01*
X147370206Y-79287424D01*
X147367680Y-79270340D01*
X147366223Y-79251618D01*
X147365758Y-79231178D01*
X147366223Y-79210743D01*
X147367680Y-79192021D01*
X147368802Y-79183277D01*
X147370206Y-79174937D01*
X147371902Y-79166984D01*
X147373895Y-79159411D01*
X147376196Y-79152204D01*
X147378823Y-79145358D01*
X147381776Y-79138861D01*
X147385073Y-79132704D01*
X147388721Y-79126873D01*
X147392734Y-79121363D01*
X147397119Y-79116159D01*
X147401882Y-79111257D01*
X147407047Y-79106644D01*
X147412614Y-79102305D01*
X147418596Y-79098238D01*
X147425002Y-79094432D01*
X147431846Y-79090867D01*
X147439135Y-79087549D01*
X147446880Y-79084451D01*
X147455096Y-79081576D01*
X147463785Y-79078909D01*
X147472965Y-79076439D01*
X147492835Y-79072055D01*
X147514783Y-79068346D01*
X147538893Y-79065223D01*
X147566596Y-79061646D01*
X147579369Y-79059579D01*
X147591460Y-79057266D01*
X147602899Y-79054661D01*
X147613720Y-79051717D01*
X147623958Y-79048390D01*
X147633632Y-79044630D01*
X147642785Y-79040395D01*
X147651439Y-79035637D01*
X147659626Y-79030310D01*
X147667379Y-79024368D01*
X147674733Y-79017767D01*
X147681706Y-79010457D01*
X147688339Y-79002397D01*
X147694661Y-78993536D01*
X147700700Y-78983828D01*
X147706490Y-78973232D01*
X147712060Y-78961700D01*
X147717436Y-78949183D01*
X147722657Y-78935637D01*
X147727750Y-78921014D01*
X147732745Y-78905274D01*
X147737675Y-78888363D01*
X147747451Y-78850856D01*
X147757330Y-78808129D01*
X147767555Y-78759808D01*
X147778370Y-78705530D01*
X147799139Y-78604262D01*
X147808857Y-78562064D01*
X147818419Y-78525058D01*
X147828041Y-78492906D01*
X147837932Y-78465279D01*
X147848305Y-78441852D01*
X147859376Y-78422286D01*
X147865241Y-78413855D01*
X147871362Y-78406261D01*
X147877764Y-78399471D01*
X147884469Y-78393443D01*
X147891513Y-78388134D01*
X147898918Y-78383502D01*
X147906710Y-78379505D01*
X147914918Y-78376110D01*
X147932684Y-78370931D01*
X147952432Y-78367641D01*
X147974374Y-78365910D01*
X147998724Y-78365407D01*
X148023707Y-78365807D01*
G37*
G36*
X144647017Y-71851050D02*
G01*
X144724874Y-71858521D01*
X144773643Y-71866230D01*
X144821730Y-71876383D01*
X144869082Y-71888907D01*
X144915638Y-71903743D01*
X144961350Y-71920806D01*
X145006149Y-71940047D01*
X145049988Y-71961388D01*
X145092804Y-71984762D01*
X145134543Y-72010102D01*
X145175147Y-72037341D01*
X145214557Y-72066409D01*
X145252718Y-72097242D01*
X145289577Y-72129768D01*
X145325067Y-72163923D01*
X145359142Y-72199634D01*
X145391739Y-72236837D01*
X145422798Y-72275462D01*
X145452269Y-72315442D01*
X145480094Y-72356710D01*
X145506212Y-72399199D01*
X145530567Y-72442839D01*
X145553105Y-72487561D01*
X145573766Y-72533300D01*
X145592497Y-72579985D01*
X145609236Y-72627553D01*
X145623926Y-72675932D01*
X145636513Y-72725054D01*
X145646939Y-72774852D01*
X145655149Y-72825262D01*
X145661083Y-72876210D01*
X145664685Y-72927630D01*
X145665899Y-72979458D01*
X145665899Y-73198099D01*
X144831707Y-73215352D01*
X143997516Y-73232610D01*
X144010841Y-73418129D01*
X144013332Y-73440932D01*
X144017496Y-73463917D01*
X144023268Y-73487028D01*
X144030585Y-73510202D01*
X144039377Y-73533384D01*
X144049579Y-73556510D01*
X144061127Y-73579526D01*
X144073954Y-73602364D01*
X144087992Y-73624973D01*
X144103174Y-73647289D01*
X144119441Y-73669252D01*
X144136718Y-73690806D01*
X144174054Y-73732441D01*
X144214660Y-73771713D01*
X144257999Y-73808149D01*
X144303548Y-73841276D01*
X144350778Y-73870612D01*
X144374857Y-73883709D01*
X144399158Y-73895681D01*
X144423615Y-73906469D01*
X144448164Y-73916011D01*
X144472734Y-73924248D01*
X144497264Y-73931120D01*
X144521686Y-73936572D01*
X144545935Y-73940535D01*
X144569938Y-73942961D01*
X144593641Y-73943778D01*
X144640207Y-73942430D01*
X144686426Y-73938477D01*
X144732001Y-73932059D01*
X144776640Y-73923308D01*
X144820061Y-73912371D01*
X144861966Y-73899380D01*
X144902068Y-73884478D01*
X144940076Y-73867794D01*
X144975694Y-73849479D01*
X145008637Y-73829664D01*
X145038610Y-73808489D01*
X145065325Y-73786086D01*
X145088492Y-73762605D01*
X145107817Y-73738174D01*
X145115946Y-73725650D01*
X145123011Y-73712937D01*
X145128968Y-73700057D01*
X145133783Y-73687029D01*
X145136511Y-73679157D01*
X145139507Y-73671610D01*
X145142788Y-73664391D01*
X145146361Y-73657494D01*
X145150242Y-73650907D01*
X145154444Y-73644632D01*
X145158984Y-73638658D01*
X145163868Y-73632984D01*
X145169112Y-73627604D01*
X145174731Y-73622512D01*
X145180740Y-73617703D01*
X145187146Y-73613172D01*
X145193967Y-73608913D01*
X145201212Y-73604921D01*
X145208899Y-73601191D01*
X145217037Y-73597715D01*
X145225644Y-73594493D01*
X145234727Y-73591517D01*
X145244306Y-73588777D01*
X145254386Y-73586282D01*
X145264989Y-73584012D01*
X145276118Y-73581963D01*
X145287796Y-73580140D01*
X145300031Y-73578529D01*
X145312837Y-73577126D01*
X145326229Y-73575931D01*
X145340216Y-73574931D01*
X145354816Y-73574128D01*
X145385900Y-73573074D01*
X145419579Y-73572735D01*
X145668449Y-73572735D01*
X145537559Y-73824745D01*
X145516399Y-73862640D01*
X145493023Y-73899192D01*
X145467521Y-73934369D01*
X145439977Y-73968156D01*
X145410476Y-74000513D01*
X145379099Y-74031427D01*
X145345941Y-74060863D01*
X145311080Y-74088796D01*
X145274605Y-74115205D01*
X145236600Y-74140058D01*
X145197148Y-74163330D01*
X145156342Y-74184993D01*
X145114257Y-74205026D01*
X145070986Y-74223399D01*
X145026616Y-74240086D01*
X144981225Y-74255061D01*
X144934901Y-74268298D01*
X144887735Y-74279770D01*
X144839806Y-74289451D01*
X144791201Y-74297316D01*
X144742007Y-74303336D01*
X144692307Y-74307490D01*
X144642190Y-74309742D01*
X144591740Y-74310078D01*
X144541043Y-74308462D01*
X144490179Y-74304871D01*
X144439243Y-74299283D01*
X144388312Y-74291664D01*
X144337473Y-74281990D01*
X144286815Y-74270237D01*
X144236423Y-74256380D01*
X144186380Y-74240386D01*
X144186390Y-74240386D01*
X144130853Y-74219416D01*
X144077451Y-74195268D01*
X144026180Y-74167944D01*
X143977044Y-74137442D01*
X143930043Y-74103767D01*
X143885169Y-74066906D01*
X143842431Y-74026872D01*
X143801823Y-73983658D01*
X143763351Y-73937266D01*
X143727008Y-73887693D01*
X143692796Y-73834945D01*
X143660717Y-73779012D01*
X143630767Y-73719903D01*
X143602948Y-73657613D01*
X143577261Y-73592140D01*
X143553702Y-73523491D01*
X143529498Y-73439743D01*
X143510478Y-73356255D01*
X143496517Y-73273198D01*
X143487485Y-73190750D01*
X143483260Y-73109095D01*
X143483710Y-73028408D01*
X143488719Y-72948877D01*
X143498151Y-72870670D01*
X143511887Y-72793972D01*
X143515345Y-72779481D01*
X143990517Y-72779481D01*
X143990634Y-72791402D01*
X143991374Y-72802448D01*
X143992751Y-72812518D01*
X143994765Y-72821508D01*
X143997444Y-72829314D01*
X144000782Y-72835835D01*
X144003344Y-72838738D01*
X144007331Y-72841603D01*
X144012709Y-72844428D01*
X144019429Y-72847212D01*
X144036769Y-72852631D01*
X144059038Y-72857828D01*
X144085936Y-72862778D01*
X144117150Y-72867452D01*
X144152376Y-72871815D01*
X144191307Y-72875844D01*
X144233639Y-72879505D01*
X144279061Y-72882776D01*
X144327267Y-72885619D01*
X144377951Y-72888014D01*
X144485527Y-72891328D01*
X144541805Y-72892190D01*
X144599329Y-72892483D01*
X144782872Y-72892100D01*
X144921441Y-72889825D01*
X144975832Y-72887444D01*
X145021348Y-72883955D01*
X145058781Y-72879143D01*
X145088922Y-72872798D01*
X145112556Y-72864703D01*
X145130474Y-72854651D01*
X145137542Y-72848827D01*
X145143475Y-72842430D01*
X145152334Y-72827825D01*
X145157850Y-72810625D01*
X145160812Y-72790617D01*
X145162232Y-72741331D01*
X145161454Y-72725040D01*
X145159158Y-72707453D01*
X145155430Y-72688739D01*
X145150343Y-72669061D01*
X145143978Y-72648584D01*
X145136407Y-72627475D01*
X145127709Y-72605897D01*
X145117964Y-72584021D01*
X145107245Y-72562012D01*
X145095636Y-72540029D01*
X145083211Y-72518244D01*
X145070039Y-72496822D01*
X145056214Y-72475929D01*
X145041798Y-72455724D01*
X145026876Y-72436386D01*
X145011521Y-72418069D01*
X144984703Y-72389616D01*
X144956401Y-72363701D01*
X144926738Y-72340299D01*
X144895836Y-72319385D01*
X144863814Y-72300929D01*
X144830795Y-72284904D01*
X144796904Y-72271288D01*
X144762254Y-72260050D01*
X144726981Y-72251165D01*
X144691192Y-72244603D01*
X144655018Y-72240344D01*
X144618577Y-72238357D01*
X144581991Y-72238616D01*
X144545385Y-72241097D01*
X144508874Y-72245766D01*
X144472587Y-72252603D01*
X144436639Y-72261582D01*
X144401159Y-72272669D01*
X144366262Y-72285844D01*
X144332076Y-72301080D01*
X144298714Y-72318350D01*
X144266308Y-72337624D01*
X144234971Y-72358880D01*
X144204833Y-72382087D01*
X144176007Y-72407218D01*
X144148620Y-72434251D01*
X144122794Y-72463158D01*
X144098648Y-72493909D01*
X144076308Y-72526482D01*
X144055891Y-72560846D01*
X144037521Y-72596978D01*
X144021317Y-72634849D01*
X144015780Y-72649844D01*
X144010760Y-72664998D01*
X144006269Y-72680202D01*
X144002316Y-72695359D01*
X143998914Y-72710363D01*
X143996073Y-72725111D01*
X143993802Y-72739499D01*
X143992112Y-72753423D01*
X143991013Y-72766786D01*
X143990517Y-72779481D01*
X143515345Y-72779481D01*
X143529799Y-72718964D01*
X143551757Y-72645821D01*
X143577639Y-72574722D01*
X143607318Y-72505852D01*
X143640666Y-72439383D01*
X143677559Y-72375502D01*
X143717874Y-72314380D01*
X143761474Y-72256205D01*
X143808247Y-72201147D01*
X143858057Y-72149392D01*
X143910783Y-72101118D01*
X143966294Y-72056502D01*
X144024469Y-72015724D01*
X144085179Y-71978967D01*
X144148301Y-71946405D01*
X144213704Y-71918219D01*
X144281264Y-71894589D01*
X144350854Y-71875697D01*
X144422354Y-71861717D01*
X144495633Y-71852826D01*
X144570562Y-71849212D01*
X144647017Y-71851050D01*
G37*
G36*
X151611381Y-80819965D02*
G01*
X151663643Y-80823684D01*
X151715991Y-80829449D01*
X151768315Y-80837282D01*
X151820512Y-80847219D01*
X151872462Y-80859285D01*
X151924066Y-80873511D01*
X151975208Y-80889922D01*
X152025776Y-80908554D01*
X152095631Y-80937679D01*
X152127638Y-80952578D01*
X152157768Y-80967930D01*
X152186077Y-80983913D01*
X152212625Y-81000695D01*
X152237464Y-81018459D01*
X152260648Y-81037369D01*
X152282240Y-81057609D01*
X152302283Y-81079345D01*
X152320846Y-81102755D01*
X152337970Y-81128014D01*
X152353722Y-81155292D01*
X152368156Y-81184766D01*
X152381325Y-81216611D01*
X152393280Y-81250999D01*
X152404083Y-81288108D01*
X152413789Y-81328105D01*
X152422453Y-81371168D01*
X152430127Y-81417475D01*
X152436868Y-81467194D01*
X152442731Y-81520501D01*
X152447774Y-81577573D01*
X152452052Y-81638579D01*
X152458528Y-81773098D01*
X152462607Y-81925452D01*
X152464726Y-82097034D01*
X152465335Y-82289239D01*
X152465335Y-83219923D01*
X152276465Y-83219923D01*
X152250135Y-83219590D01*
X152226169Y-83218554D01*
X152204482Y-83216751D01*
X152184978Y-83214125D01*
X152167566Y-83210613D01*
X152152148Y-83206154D01*
X152145160Y-83203552D01*
X152138635Y-83200688D01*
X152132566Y-83197558D01*
X152126940Y-83194155D01*
X152121742Y-83190470D01*
X152116965Y-83186495D01*
X152112595Y-83182226D01*
X152108616Y-83177650D01*
X152105028Y-83172763D01*
X152101808Y-83167552D01*
X152098953Y-83162018D01*
X152096445Y-83156150D01*
X152094273Y-83149935D01*
X152092433Y-83143374D01*
X152089681Y-83129175D01*
X152088099Y-83113482D01*
X152087593Y-83096238D01*
X152087414Y-83068741D01*
X152086632Y-83044973D01*
X152085896Y-83034505D01*
X152084862Y-83024985D01*
X152083485Y-83016413D01*
X152081721Y-83008806D01*
X152079518Y-83002160D01*
X152076830Y-82996486D01*
X152073605Y-82991786D01*
X152069804Y-82988065D01*
X152065373Y-82985326D01*
X152060266Y-82983581D01*
X152054435Y-82982826D01*
X152047831Y-82983074D01*
X152040406Y-82984327D01*
X152032117Y-82986588D01*
X152022910Y-82989864D01*
X152012742Y-82994163D01*
X152001567Y-82999485D01*
X151989330Y-83005839D01*
X151975986Y-83013230D01*
X151961495Y-83021655D01*
X151928853Y-83041653D01*
X151891030Y-83065878D01*
X151798290Y-83127160D01*
X151747549Y-83158437D01*
X151694664Y-83186148D01*
X151639846Y-83210275D01*
X151583307Y-83230804D01*
X151525262Y-83247719D01*
X151465921Y-83261006D01*
X151405502Y-83270656D01*
X151344215Y-83276645D01*
X151282274Y-83278968D01*
X151219889Y-83277601D01*
X151157278Y-83272544D01*
X151094650Y-83263766D01*
X151032220Y-83251268D01*
X150970201Y-83235021D01*
X150908809Y-83215019D01*
X150848249Y-83191247D01*
X150848249Y-83191251D01*
X150828558Y-83182260D01*
X150809036Y-83172215D01*
X150789715Y-83161152D01*
X150770628Y-83149117D01*
X150751797Y-83136159D01*
X150733260Y-83122320D01*
X150715040Y-83107641D01*
X150697174Y-83092169D01*
X150662607Y-83059031D01*
X150629796Y-83023251D01*
X150598981Y-82985190D01*
X150570397Y-82945200D01*
X150544284Y-82903635D01*
X150520883Y-82860857D01*
X150500427Y-82817210D01*
X150491382Y-82795179D01*
X150483158Y-82773061D01*
X150475789Y-82750904D01*
X150469307Y-82728755D01*
X150463742Y-82706657D01*
X150459123Y-82684653D01*
X150455478Y-82662788D01*
X150452838Y-82641108D01*
X150451231Y-82619650D01*
X150450690Y-82598474D01*
X150452747Y-82556427D01*
X150456577Y-82528697D01*
X150955316Y-82528697D01*
X150956387Y-82569428D01*
X150959180Y-82607160D01*
X150963808Y-82642034D01*
X150970385Y-82674206D01*
X150974439Y-82689324D01*
X150979025Y-82703820D01*
X150984151Y-82717716D01*
X150989843Y-82731027D01*
X150996104Y-82743776D01*
X151002956Y-82755976D01*
X151010405Y-82767652D01*
X151018473Y-82778820D01*
X151027171Y-82789491D01*
X151036513Y-82799698D01*
X151046517Y-82809451D01*
X151057194Y-82818766D01*
X151068554Y-82827669D01*
X151080619Y-82836176D01*
X151093399Y-82844306D01*
X151106913Y-82852073D01*
X151136186Y-82866603D01*
X151168552Y-82879917D01*
X151204130Y-82892169D01*
X151243025Y-82903501D01*
X151287580Y-82913643D01*
X151332525Y-82920273D01*
X151377684Y-82923450D01*
X151422862Y-82923241D01*
X151467884Y-82919710D01*
X151512552Y-82912923D01*
X151556687Y-82902936D01*
X151600100Y-82889820D01*
X151642605Y-82873633D01*
X151684020Y-82854443D01*
X151724151Y-82832311D01*
X151762819Y-82807299D01*
X151799832Y-82779479D01*
X151835008Y-82748900D01*
X151868158Y-82715637D01*
X151899096Y-82679750D01*
X151899096Y-82679757D01*
X151911884Y-82662705D01*
X151924314Y-82644016D01*
X151936321Y-82623876D01*
X151947838Y-82602468D01*
X151958808Y-82579980D01*
X151969160Y-82556599D01*
X151978831Y-82532514D01*
X151987758Y-82507911D01*
X151995877Y-82482978D01*
X152003119Y-82457899D01*
X152009427Y-82432866D01*
X152014726Y-82408060D01*
X152018963Y-82383675D01*
X152022073Y-82359893D01*
X152023984Y-82336903D01*
X152024636Y-82314890D01*
X152024636Y-82106784D01*
X151655375Y-82106784D01*
X151574657Y-82108605D01*
X151498326Y-82114021D01*
X151426502Y-82122970D01*
X151359300Y-82135376D01*
X151296835Y-82151170D01*
X151239222Y-82170282D01*
X151186575Y-82192648D01*
X151139012Y-82218193D01*
X151096646Y-82246849D01*
X151077448Y-82262317D01*
X151059593Y-82278543D01*
X151043098Y-82295511D01*
X151027970Y-82313210D01*
X151014230Y-82331638D01*
X151001890Y-82350782D01*
X150990964Y-82370632D01*
X150981469Y-82391183D01*
X150973419Y-82412426D01*
X150966823Y-82434351D01*
X150961703Y-82456950D01*
X150958067Y-82480211D01*
X150955932Y-82504130D01*
X150955316Y-82528697D01*
X150456577Y-82528697D01*
X150458770Y-82512845D01*
X150468519Y-82468123D01*
X150481765Y-82422658D01*
X150498267Y-82376841D01*
X150517799Y-82331060D01*
X150540125Y-82285720D01*
X150565016Y-82241201D01*
X150592231Y-82197908D01*
X150621538Y-82156230D01*
X150652711Y-82116557D01*
X150685505Y-82079287D01*
X150719697Y-82044814D01*
X150755048Y-82013530D01*
X150791325Y-81985826D01*
X150828293Y-81962100D01*
X150850359Y-81950493D01*
X150876454Y-81938866D01*
X150906286Y-81927286D01*
X150939579Y-81915810D01*
X150976038Y-81904514D01*
X151015377Y-81893456D01*
X151057311Y-81882703D01*
X151101551Y-81872316D01*
X151147811Y-81862362D01*
X151195805Y-81852906D01*
X151245243Y-81844005D01*
X151295841Y-81835740D01*
X151347308Y-81828162D01*
X151399366Y-81821338D01*
X151451714Y-81815336D01*
X151504077Y-81810217D01*
X151648244Y-81796496D01*
X151761875Y-81783105D01*
X151808405Y-81776145D01*
X151848707Y-81768796D01*
X151883239Y-81760899D01*
X151912474Y-81752302D01*
X151936881Y-81742844D01*
X151956921Y-81732369D01*
X151973064Y-81720721D01*
X151985780Y-81707740D01*
X151995535Y-81693271D01*
X152002792Y-81677155D01*
X152008022Y-81659238D01*
X152011691Y-81639357D01*
X152012889Y-81625524D01*
X152012696Y-81610386D01*
X152011168Y-81594092D01*
X152008369Y-81576791D01*
X152004358Y-81558638D01*
X151999193Y-81539781D01*
X151992932Y-81520371D01*
X151985631Y-81500555D01*
X151977353Y-81480489D01*
X151968154Y-81460321D01*
X151958095Y-81440203D01*
X151947237Y-81420280D01*
X151935630Y-81400712D01*
X151923342Y-81381644D01*
X151910428Y-81363227D01*
X151896948Y-81345611D01*
X151878727Y-81324043D01*
X151859783Y-81303911D01*
X151840153Y-81285219D01*
X151819874Y-81267961D01*
X151798979Y-81252144D01*
X151777504Y-81237762D01*
X151755493Y-81224813D01*
X151732972Y-81213297D01*
X151709977Y-81203215D01*
X151686547Y-81194565D01*
X151662719Y-81187345D01*
X151638533Y-81181555D01*
X151614014Y-81177195D01*
X151589199Y-81174263D01*
X151564134Y-81172755D01*
X151538847Y-81172678D01*
X151513378Y-81174026D01*
X151487758Y-81176800D01*
X151462026Y-81180993D01*
X151436213Y-81186612D01*
X151410366Y-81193653D01*
X151384509Y-81202114D01*
X151358685Y-81211995D01*
X151332925Y-81223298D01*
X151307269Y-81236018D01*
X151281750Y-81250153D01*
X151256403Y-81265709D01*
X151231267Y-81282679D01*
X151206379Y-81301064D01*
X151181771Y-81320863D01*
X151157476Y-81342076D01*
X151133537Y-81364696D01*
X151110290Y-81386808D01*
X151086943Y-81407557D01*
X151063516Y-81426939D01*
X151040034Y-81444948D01*
X151016511Y-81461572D01*
X150992966Y-81476796D01*
X150969421Y-81490619D01*
X150945896Y-81503025D01*
X150922409Y-81514011D01*
X150898974Y-81523559D01*
X150875616Y-81531665D01*
X150852355Y-81538321D01*
X150829205Y-81543511D01*
X150806190Y-81547232D01*
X150783324Y-81549470D01*
X150760634Y-81550217D01*
X150690465Y-81549743D01*
X150662556Y-81548513D01*
X150650337Y-81547467D01*
X150639253Y-81546062D01*
X150629285Y-81544246D01*
X150620416Y-81541969D01*
X150612629Y-81539175D01*
X150605908Y-81535811D01*
X150600232Y-81531828D01*
X150595588Y-81527166D01*
X150591958Y-81521781D01*
X150589323Y-81515614D01*
X150587670Y-81508618D01*
X150586976Y-81500733D01*
X150587227Y-81491916D01*
X150588407Y-81482104D01*
X150590499Y-81471252D01*
X150593481Y-81459302D01*
X150597340Y-81446204D01*
X150602057Y-81431906D01*
X150614004Y-81399499D01*
X150629178Y-81361652D01*
X150668670Y-81267967D01*
X150685917Y-81231377D01*
X150705878Y-81196133D01*
X150728454Y-81162262D01*
X150753530Y-81129797D01*
X150780997Y-81098764D01*
X150810748Y-81069192D01*
X150842670Y-81041111D01*
X150876656Y-81014549D01*
X150912590Y-80989536D01*
X150950372Y-80966100D01*
X150989888Y-80944274D01*
X151031024Y-80924081D01*
X151073676Y-80905554D01*
X151117731Y-80888721D01*
X151163081Y-80873612D01*
X151209617Y-80860256D01*
X151257224Y-80848679D01*
X151305799Y-80838913D01*
X151355233Y-80830988D01*
X151405409Y-80824929D01*
X151456222Y-80820769D01*
X151507561Y-80818535D01*
X151559318Y-80818260D01*
X151611381Y-80819965D01*
G37*
G36*
X155208067Y-76806344D02*
G01*
X155277886Y-76814627D01*
X155346079Y-76827346D01*
X155412311Y-76844459D01*
X155476239Y-76865904D01*
X155537523Y-76891634D01*
X155595821Y-76921596D01*
X155650787Y-76955742D01*
X155702087Y-76994013D01*
X155749377Y-77036360D01*
X155770455Y-77057798D01*
X155790255Y-77079408D01*
X155808773Y-77101135D01*
X155826003Y-77122927D01*
X155841948Y-77144717D01*
X155856605Y-77166461D01*
X155869966Y-77188098D01*
X155882033Y-77209571D01*
X155892799Y-77230826D01*
X155902262Y-77251805D01*
X155910422Y-77272456D01*
X155917272Y-77292716D01*
X155922813Y-77312535D01*
X155927038Y-77331859D01*
X155929947Y-77350627D01*
X155931536Y-77368782D01*
X155931802Y-77386272D01*
X155930746Y-77403038D01*
X155928360Y-77419025D01*
X155924639Y-77434182D01*
X155919589Y-77448442D01*
X155913198Y-77461762D01*
X155905471Y-77474076D01*
X155896396Y-77485331D01*
X155885980Y-77495471D01*
X155874210Y-77504442D01*
X155861092Y-77512184D01*
X155846617Y-77518647D01*
X155830786Y-77523770D01*
X155813594Y-77527501D01*
X155795039Y-77529775D01*
X155775118Y-77530549D01*
X155749291Y-77530091D01*
X155725255Y-77528553D01*
X155713791Y-77527301D01*
X155702643Y-77525686D01*
X155691758Y-77523677D01*
X155681099Y-77521241D01*
X155670613Y-77518348D01*
X155660261Y-77514967D01*
X155649994Y-77511071D01*
X155639770Y-77506622D01*
X155629540Y-77501595D01*
X155619264Y-77495955D01*
X155608896Y-77489671D01*
X155598388Y-77482712D01*
X155587695Y-77475053D01*
X155576772Y-77466654D01*
X155565580Y-77457489D01*
X155554068Y-77447526D01*
X155529903Y-77425081D01*
X155503923Y-77399070D01*
X155475769Y-77369248D01*
X155445079Y-77335362D01*
X155411494Y-77297167D01*
X155374651Y-77254409D01*
X155362933Y-77242023D01*
X155349798Y-77230533D01*
X155335329Y-77219934D01*
X155319622Y-77210225D01*
X155302758Y-77201399D01*
X155284828Y-77193456D01*
X155265920Y-77186389D01*
X155246120Y-77180194D01*
X155225519Y-77174867D01*
X155204200Y-77170407D01*
X155159767Y-77164064D01*
X155113530Y-77161135D01*
X155066183Y-77161590D01*
X155018429Y-77165392D01*
X154970973Y-77172514D01*
X154924518Y-77182925D01*
X154879766Y-77196591D01*
X154858243Y-77204633D01*
X154837417Y-77213481D01*
X154817363Y-77223126D01*
X154798171Y-77233566D01*
X154779936Y-77244795D01*
X154762741Y-77256810D01*
X154746671Y-77269610D01*
X154731815Y-77283185D01*
X154710227Y-77305213D01*
X154690861Y-77326725D01*
X154673737Y-77347744D01*
X154658875Y-77368288D01*
X154646292Y-77388376D01*
X154636002Y-77408031D01*
X154628032Y-77427273D01*
X154622398Y-77446120D01*
X154619110Y-77464592D01*
X154618197Y-77482715D01*
X154619677Y-77500504D01*
X154623561Y-77517981D01*
X154629870Y-77535160D01*
X154638630Y-77552070D01*
X154649849Y-77568726D01*
X154663551Y-77585152D01*
X154679758Y-77601365D01*
X154698482Y-77617387D01*
X154719743Y-77633233D01*
X154743558Y-77648934D01*
X154769949Y-77664503D01*
X154798934Y-77679954D01*
X154830531Y-77695318D01*
X154864758Y-77710616D01*
X154901633Y-77725857D01*
X154941176Y-77741071D01*
X154983403Y-77756274D01*
X155028334Y-77771486D01*
X155126385Y-77802024D01*
X155235477Y-77832844D01*
X155350129Y-77865680D01*
X155453357Y-77899120D01*
X155500782Y-77916106D01*
X155545457Y-77933293D01*
X155587424Y-77950701D01*
X155626723Y-77968344D01*
X155663378Y-77986240D01*
X155697443Y-78004407D01*
X155728943Y-78022862D01*
X155757919Y-78041619D01*
X155784408Y-78060704D01*
X155808446Y-78080123D01*
X155830067Y-78099900D01*
X155849313Y-78120050D01*
X155863780Y-78137105D01*
X155877469Y-78154784D01*
X155890365Y-78173058D01*
X155902472Y-78191895D01*
X155913787Y-78211273D01*
X155924310Y-78231153D01*
X155942956Y-78272317D01*
X155958392Y-78315154D01*
X155970595Y-78359429D01*
X155979550Y-78404902D01*
X155985230Y-78451340D01*
X155987619Y-78498504D01*
X155986698Y-78546160D01*
X155982442Y-78594074D01*
X155974836Y-78642006D01*
X155963854Y-78689720D01*
X155949479Y-78736983D01*
X155931692Y-78783560D01*
X155910470Y-78829208D01*
X155893546Y-78859285D01*
X155874023Y-78888228D01*
X155852005Y-78916008D01*
X155827592Y-78942605D01*
X155800902Y-78967997D01*
X155772034Y-78992162D01*
X155741093Y-79015074D01*
X155708189Y-79036712D01*
X155673431Y-79057048D01*
X155636920Y-79076066D01*
X155598760Y-79093741D01*
X155559066Y-79110042D01*
X155517939Y-79124954D01*
X155475485Y-79138451D01*
X155431810Y-79150515D01*
X155387028Y-79161116D01*
X155341234Y-79170232D01*
X155294544Y-79177843D01*
X155247055Y-79183926D01*
X155198883Y-79188451D01*
X155150125Y-79191403D01*
X155100899Y-79192756D01*
X155051301Y-79192484D01*
X155001440Y-79190570D01*
X154951426Y-79186984D01*
X154901361Y-79181706D01*
X154851354Y-79174715D01*
X154801509Y-79165982D01*
X154751937Y-79155494D01*
X154702738Y-79143215D01*
X154654026Y-79129130D01*
X154605898Y-79113213D01*
X154605904Y-79113213D01*
X154585573Y-79105396D01*
X154564870Y-79096179D01*
X154522631Y-79073833D01*
X154479709Y-79046782D01*
X154436647Y-79015635D01*
X154393968Y-78980989D01*
X154352207Y-78943447D01*
X154311899Y-78903618D01*
X154273575Y-78862104D01*
X154237763Y-78819508D01*
X154205001Y-78776435D01*
X154175820Y-78733489D01*
X154150748Y-78691271D01*
X154130325Y-78650389D01*
X154122019Y-78630636D01*
X154115078Y-78611442D01*
X154109560Y-78592885D01*
X154105539Y-78575037D01*
X154103076Y-78557980D01*
X154102238Y-78541779D01*
X154103301Y-78526689D01*
X154106426Y-78512994D01*
X154111511Y-78500676D01*
X154118456Y-78489716D01*
X154127157Y-78480088D01*
X154137519Y-78471780D01*
X154149436Y-78464763D01*
X154162807Y-78459028D01*
X154177533Y-78454546D01*
X154193515Y-78451301D01*
X154210647Y-78449272D01*
X154228831Y-78448440D01*
X154247969Y-78448781D01*
X154267957Y-78450279D01*
X154288694Y-78452915D01*
X154310080Y-78456666D01*
X154332014Y-78461511D01*
X154354396Y-78467435D01*
X154377122Y-78474414D01*
X154400096Y-78482430D01*
X154423211Y-78491460D01*
X154446371Y-78501485D01*
X154469476Y-78512487D01*
X154492421Y-78524445D01*
X154515108Y-78537341D01*
X154537434Y-78551151D01*
X154559303Y-78565855D01*
X154580605Y-78581437D01*
X154601246Y-78597872D01*
X154621126Y-78615147D01*
X154640138Y-78633235D01*
X154658192Y-78652118D01*
X154684921Y-78680875D01*
X154710327Y-78706756D01*
X154734726Y-78729905D01*
X154758452Y-78750462D01*
X154781827Y-78768566D01*
X154793483Y-78776744D01*
X154805177Y-78784360D01*
X154816947Y-78791434D01*
X154828834Y-78797984D01*
X154840878Y-78804024D01*
X154853122Y-78809575D01*
X154865608Y-78814656D01*
X154878367Y-78819278D01*
X154891453Y-78823465D01*
X154904898Y-78827230D01*
X154918750Y-78830595D01*
X154933042Y-78833574D01*
X154963123Y-78838449D01*
X154995466Y-78841996D01*
X155030404Y-78844357D01*
X155068263Y-78845669D01*
X155109363Y-78846075D01*
X155147392Y-78845676D01*
X155182823Y-78844438D01*
X155215822Y-78842300D01*
X155246566Y-78839202D01*
X155275216Y-78835083D01*
X155301942Y-78829884D01*
X155326913Y-78823541D01*
X155350292Y-78815997D01*
X155372255Y-78807189D01*
X155392964Y-78797057D01*
X155412591Y-78785541D01*
X155431299Y-78772581D01*
X155449264Y-78758115D01*
X155466647Y-78742083D01*
X155483615Y-78724424D01*
X155500342Y-78705077D01*
X155516270Y-78684773D01*
X155530277Y-78664825D01*
X155542353Y-78645220D01*
X155552492Y-78625944D01*
X155560675Y-78606990D01*
X155566902Y-78588349D01*
X155571154Y-78570007D01*
X155573428Y-78551956D01*
X155573714Y-78534182D01*
X155571996Y-78516681D01*
X155568273Y-78499434D01*
X155562528Y-78482435D01*
X155554753Y-78465675D01*
X155544938Y-78449141D01*
X155533074Y-78432823D01*
X155519152Y-78416708D01*
X155503160Y-78400793D01*
X155485090Y-78385059D01*
X155464932Y-78369498D01*
X155442676Y-78354101D01*
X155418309Y-78338856D01*
X155391824Y-78323753D01*
X155363215Y-78308783D01*
X155332460Y-78293931D01*
X155299565Y-78279190D01*
X155264509Y-78264551D01*
X155227284Y-78249997D01*
X155187882Y-78235526D01*
X155146293Y-78221123D01*
X155102506Y-78206773D01*
X155008306Y-78178210D01*
X154918392Y-78151512D01*
X154829184Y-78123670D01*
X154743010Y-78095510D01*
X154662209Y-78067845D01*
X154589117Y-78041499D01*
X154526057Y-78017279D01*
X154475373Y-77996020D01*
X154439389Y-77978528D01*
X154422404Y-77968482D01*
X154405940Y-77957343D01*
X154390018Y-77945173D01*
X154374650Y-77932001D01*
X154359853Y-77917880D01*
X154345637Y-77902853D01*
X154332026Y-77886963D01*
X154319023Y-77870257D01*
X154306650Y-77852780D01*
X154294920Y-77834576D01*
X154283848Y-77815688D01*
X154273448Y-77796166D01*
X154263738Y-77776048D01*
X154254726Y-77755384D01*
X154246434Y-77734216D01*
X154238872Y-77712592D01*
X154232055Y-77690553D01*
X154226001Y-77668142D01*
X154220723Y-77645411D01*
X154216235Y-77622396D01*
X154212551Y-77599154D01*
X154209689Y-77575716D01*
X154207660Y-77552131D01*
X154206482Y-77528451D01*
X154206167Y-77504714D01*
X154206731Y-77480966D01*
X154208189Y-77457251D01*
X154210557Y-77433617D01*
X154213842Y-77410106D01*
X154218072Y-77386761D01*
X154223253Y-77363634D01*
X154229400Y-77340763D01*
X154244153Y-77292609D01*
X154259244Y-77248619D01*
X154275020Y-77208448D01*
X154291840Y-77171749D01*
X154300748Y-77154594D01*
X154310049Y-77138182D01*
X154319787Y-77122463D01*
X154330002Y-77107398D01*
X154340741Y-77092945D01*
X154352051Y-77079055D01*
X154363966Y-77065694D01*
X154376541Y-77052814D01*
X154389814Y-77040371D01*
X154403830Y-77028322D01*
X154418633Y-77016627D01*
X154434265Y-77005243D01*
X154468199Y-76983222D01*
X154505988Y-76961926D01*
X154547974Y-76941004D01*
X154594509Y-76920118D01*
X154645957Y-76898918D01*
X154702655Y-76877062D01*
X154774257Y-76852807D01*
X154846631Y-76833357D01*
X154919429Y-76818658D01*
X154992313Y-76808660D01*
X155064943Y-76803310D01*
X155136976Y-76802558D01*
X155208067Y-76806344D01*
G37*
D11*
G36*
X27121536Y-63864249D02*
G01*
X27435694Y-63864249D01*
X27435694Y-63389624D01*
X27770001Y-63389624D01*
X27810001Y-63383952D01*
X27842623Y-63367693D01*
X27865988Y-63343114D01*
X27880457Y-63310799D01*
X27885040Y-63274586D01*
X27885040Y-62753799D01*
X27879262Y-62711978D01*
X27862262Y-62678319D01*
X27837613Y-62656022D01*
X27804550Y-62642538D01*
X27770001Y-62638761D01*
X27435694Y-62638761D01*
X27435694Y-62159923D01*
X27121536Y-62159923D01*
X27121536Y-62638761D01*
X26783016Y-62638761D01*
X26743017Y-62644433D01*
X26710395Y-62660692D01*
X26687029Y-62685271D01*
X26672560Y-62717586D01*
X26667978Y-62753799D01*
X26667978Y-63274586D01*
X26673756Y-63316408D01*
X26690755Y-63350066D01*
X26715404Y-63372363D01*
X26748467Y-63385847D01*
X26783016Y-63389624D01*
X27121536Y-63389624D01*
X27121536Y-63864249D01*
G37*
G36*
X28321746Y-64490000D02*
G01*
X29417908Y-64490000D01*
X29465253Y-64484089D01*
X29499891Y-64466161D01*
X29529967Y-64409935D01*
X29532946Y-64374961D01*
X29532946Y-63854174D01*
X29527035Y-63806904D01*
X29509108Y-63772265D01*
X29452831Y-63742118D01*
X29417908Y-63739136D01*
X29024799Y-63739136D01*
X29024799Y-61538386D01*
X28764680Y-61538386D01*
X28271737Y-61959705D01*
X28239410Y-61994165D01*
X28218850Y-62036688D01*
X28206707Y-62136475D01*
X28206707Y-62598461D01*
X28212550Y-62665545D01*
X28230003Y-62705889D01*
X28247979Y-62717677D01*
X28271006Y-62717284D01*
X28335432Y-62676380D01*
X28351055Y-62661475D01*
X28727311Y-62289249D01*
X28765230Y-62289249D01*
X28765230Y-63739136D01*
X28321746Y-63739136D01*
X28274502Y-63745040D01*
X28239903Y-63762919D01*
X28209721Y-63819084D01*
X28206707Y-63854174D01*
X28206707Y-64374961D01*
X28212618Y-64422306D01*
X28230546Y-64456944D01*
X28286772Y-64487020D01*
X28321746Y-64490000D01*
G37*
G36*
X29891067Y-64490000D02*
G01*
X30903148Y-64490000D01*
X30950493Y-64484089D01*
X30985131Y-64466161D01*
X31015207Y-64409935D01*
X31018187Y-64374961D01*
X31018187Y-63854174D01*
X31012276Y-63806904D01*
X30994348Y-63772265D01*
X30938072Y-63742118D01*
X30903148Y-63739136D01*
X30056481Y-63739136D01*
X30062354Y-63663955D01*
X30080021Y-63595608D01*
X30107196Y-63537978D01*
X30144753Y-63486235D01*
X30205225Y-63430657D01*
X30738651Y-63023077D01*
X30811256Y-62960189D01*
X30870874Y-62891676D01*
X30914573Y-62823017D01*
X30948449Y-62747610D01*
X30989004Y-62570119D01*
X30993091Y-62527386D01*
X30995018Y-62206797D01*
X30988878Y-62010263D01*
X30977651Y-61904300D01*
X30955215Y-61811425D01*
X30925689Y-61739604D01*
X30887067Y-61677901D01*
X30842571Y-61629193D01*
X30789933Y-61589148D01*
X30659313Y-61534499D01*
X30482289Y-61513355D01*
X30470655Y-61513290D01*
X30252119Y-61513290D01*
X30149985Y-61519180D01*
X30060369Y-61536963D01*
X29991443Y-61562731D01*
X29932099Y-61598046D01*
X29885186Y-61639816D01*
X29846489Y-61690135D01*
X29793071Y-61818197D01*
X29771904Y-61996529D01*
X29771816Y-62010446D01*
X29788852Y-62612749D01*
X30052084Y-62612749D01*
X30061756Y-62505633D01*
X30082887Y-62419605D01*
X30108652Y-62364793D01*
X30142477Y-62322458D01*
X30224897Y-62275771D01*
X30315134Y-62264153D01*
X30479082Y-62264153D01*
X30553735Y-62270153D01*
X30614888Y-62288704D01*
X30654839Y-62313632D01*
X30686117Y-62347863D01*
X30722408Y-62441925D01*
X30729309Y-62527020D01*
X30723403Y-62584646D01*
X30705510Y-62639051D01*
X30634761Y-62738615D01*
X30563712Y-62799412D01*
X30021859Y-63215418D01*
X29951696Y-63276863D01*
X29893390Y-63344600D01*
X29849847Y-63413646D01*
X29816402Y-63489217D01*
X29779686Y-63661119D01*
X29776029Y-63744998D01*
X29776029Y-64374961D01*
X29781940Y-64422306D01*
X29799867Y-64456944D01*
X29856094Y-64487020D01*
X29891067Y-64490000D01*
G37*
G36*
X31635511Y-64490000D02*
G01*
X32202459Y-64490000D01*
X32244389Y-64484264D01*
X32278363Y-64467564D01*
X32301869Y-64442877D01*
X32316719Y-64409983D01*
X32321711Y-64379541D01*
X32586775Y-61538386D01*
X32323176Y-61538386D01*
X32133583Y-63370757D01*
X32116896Y-63464244D01*
X32090049Y-63537119D01*
X32061229Y-63580388D01*
X32025239Y-63611481D01*
X31939877Y-63637736D01*
X31921092Y-63638386D01*
X31865699Y-63632476D01*
X31819105Y-63614553D01*
X31756406Y-63552023D01*
X31715455Y-63440633D01*
X31704387Y-63370757D01*
X31519007Y-61538386D01*
X31255225Y-61538386D01*
X31516259Y-64379541D01*
X31524536Y-64420118D01*
X31543065Y-64452103D01*
X31602697Y-64486612D01*
X31635511Y-64490000D01*
G37*
G36*
X35783016Y-63267991D02*
G01*
X36790884Y-63267991D01*
X36830830Y-63262321D01*
X36863459Y-63246077D01*
X36886912Y-63221480D01*
X36901464Y-63189153D01*
X36906106Y-63152770D01*
X36906106Y-62875615D01*
X36900435Y-62835689D01*
X36884191Y-62803109D01*
X36859601Y-62779714D01*
X36827284Y-62765206D01*
X36790884Y-62760577D01*
X35783016Y-62760577D01*
X35743017Y-62766249D01*
X35710395Y-62782508D01*
X35687029Y-62807087D01*
X35672560Y-62839402D01*
X35667978Y-62875615D01*
X35667978Y-63152770D01*
X35673756Y-63194614D01*
X35690755Y-63228324D01*
X35715409Y-63250678D01*
X35748480Y-63264203D01*
X35783016Y-63267991D01*
G37*
G36*
X37345193Y-64490000D02*
G01*
X38441355Y-64490000D01*
X38488700Y-64484089D01*
X38523338Y-64466161D01*
X38553414Y-64409935D01*
X38556393Y-64374961D01*
X38556393Y-63854174D01*
X38550483Y-63806904D01*
X38532555Y-63772265D01*
X38476278Y-63742118D01*
X38441355Y-63739136D01*
X38048246Y-63739136D01*
X38048246Y-61538386D01*
X37788128Y-61538386D01*
X37295184Y-61959705D01*
X37262858Y-61994165D01*
X37242297Y-62036688D01*
X37230155Y-62136475D01*
X37230155Y-62598461D01*
X37235998Y-62665545D01*
X37253450Y-62705889D01*
X37271427Y-62717677D01*
X37294454Y-62717284D01*
X37358879Y-62676380D01*
X37374502Y-62661475D01*
X37750758Y-62289249D01*
X37788677Y-62289249D01*
X37788677Y-63739136D01*
X37345193Y-63739136D01*
X37297949Y-63745040D01*
X37263350Y-63762919D01*
X37233168Y-63819084D01*
X37230155Y-63854174D01*
X37230155Y-64374961D01*
X37236065Y-64422306D01*
X37253993Y-64456944D01*
X37310220Y-64487020D01*
X37345193Y-64490000D01*
G37*
G36*
X38914515Y-64490000D02*
G01*
X39926596Y-64490000D01*
X39973941Y-64484089D01*
X40008579Y-64466161D01*
X40038655Y-64409935D01*
X40041634Y-64374961D01*
X40041634Y-63854174D01*
X40035723Y-63806904D01*
X40017796Y-63772265D01*
X39961519Y-63742118D01*
X39926596Y-63739136D01*
X39079928Y-63739136D01*
X39085801Y-63663955D01*
X39103468Y-63595608D01*
X39130644Y-63537978D01*
X39168200Y-63486235D01*
X39228672Y-63430657D01*
X39762098Y-63023077D01*
X39834703Y-62960189D01*
X39894322Y-62891676D01*
X39938020Y-62823017D01*
X39971896Y-62747610D01*
X40012451Y-62570119D01*
X40016538Y-62527386D01*
X40018465Y-62206797D01*
X40012325Y-62010263D01*
X40001099Y-61904300D01*
X39978662Y-61811425D01*
X39949136Y-61739604D01*
X39910514Y-61677901D01*
X39866018Y-61629193D01*
X39813380Y-61589148D01*
X39682760Y-61534499D01*
X39505737Y-61513355D01*
X39494103Y-61513290D01*
X39275566Y-61513290D01*
X39173433Y-61519180D01*
X39083816Y-61536963D01*
X39014891Y-61562731D01*
X38955546Y-61598046D01*
X38908633Y-61639816D01*
X38869936Y-61690135D01*
X38816518Y-61818197D01*
X38795351Y-61996529D01*
X38795263Y-62010446D01*
X38812299Y-62612749D01*
X39075532Y-62612749D01*
X39085203Y-62505633D01*
X39106334Y-62419605D01*
X39132099Y-62364793D01*
X39165925Y-62322458D01*
X39248344Y-62275771D01*
X39338581Y-62264153D01*
X39502529Y-62264153D01*
X39577182Y-62270153D01*
X39638336Y-62288704D01*
X39678286Y-62313632D01*
X39709564Y-62347863D01*
X39745855Y-62441925D01*
X39752756Y-62527020D01*
X39746850Y-62584646D01*
X39728957Y-62639051D01*
X39658208Y-62738615D01*
X39587159Y-62799412D01*
X39045307Y-63215418D01*
X38975143Y-63276863D01*
X38916837Y-63344600D01*
X38873294Y-63413646D01*
X38839849Y-63489217D01*
X38803133Y-63661119D01*
X38799476Y-63744998D01*
X38799476Y-64374961D01*
X38805387Y-64422306D01*
X38823315Y-64456944D01*
X38879541Y-64487020D01*
X38914515Y-64490000D01*
G37*
G36*
X40658958Y-64490000D02*
G01*
X41225907Y-64490000D01*
X41267837Y-64484264D01*
X41301811Y-64467564D01*
X41325316Y-64442877D01*
X41340167Y-64409983D01*
X41345158Y-64379541D01*
X41610223Y-61538386D01*
X41346624Y-61538386D01*
X41157030Y-63370757D01*
X41140343Y-63464244D01*
X41113496Y-63537119D01*
X41084676Y-63580388D01*
X41048686Y-63611481D01*
X40963324Y-63637736D01*
X40944539Y-63638386D01*
X40889147Y-63632476D01*
X40842552Y-63614553D01*
X40779853Y-63552023D01*
X40738902Y-63440633D01*
X40727834Y-63370757D01*
X40542454Y-61538386D01*
X40278672Y-61538386D01*
X40539706Y-64379541D01*
X40547984Y-64420118D01*
X40566512Y-64452103D01*
X40626144Y-64486612D01*
X40658958Y-64490000D01*
G37*
G36*
X37621536Y-80864249D02*
G01*
X37935694Y-80864249D01*
X37935694Y-80389624D01*
X38270001Y-80389624D01*
X38310001Y-80383952D01*
X38342623Y-80367693D01*
X38365988Y-80343114D01*
X38380457Y-80310799D01*
X38385040Y-80274586D01*
X38385040Y-79753799D01*
X38379262Y-79711978D01*
X38362262Y-79678319D01*
X38337613Y-79656022D01*
X38304550Y-79642538D01*
X38270001Y-79638761D01*
X37935694Y-79638761D01*
X37935694Y-79159923D01*
X37621536Y-79159923D01*
X37621536Y-79638761D01*
X37283016Y-79638761D01*
X37243017Y-79644433D01*
X37210395Y-79660692D01*
X37187029Y-79685271D01*
X37172560Y-79717586D01*
X37167978Y-79753799D01*
X37167978Y-80274586D01*
X37173756Y-80316408D01*
X37190755Y-80350066D01*
X37215404Y-80372363D01*
X37248467Y-80385847D01*
X37283016Y-80389624D01*
X37621536Y-80389624D01*
X37621536Y-80864249D01*
G37*
G36*
X39170341Y-81515279D02*
G01*
X39443283Y-81515279D01*
X39536635Y-81509400D01*
X39619303Y-81491693D01*
X39684653Y-81465578D01*
X39741583Y-81429734D01*
X39827341Y-81333904D01*
X39884645Y-81197454D01*
X39911130Y-81026732D01*
X39922716Y-80691967D01*
X39915343Y-80391823D01*
X39902564Y-80284951D01*
X39878791Y-80191471D01*
X39848246Y-80119327D01*
X39808793Y-80057591D01*
X39763789Y-80009202D01*
X39710861Y-79969725D01*
X39580837Y-79917122D01*
X39426430Y-79899246D01*
X39195437Y-79899246D01*
X39137230Y-79905048D01*
X39090833Y-79922216D01*
X39028107Y-79981646D01*
X39002913Y-80025275D01*
X38961880Y-80025275D01*
X38961880Y-79293463D01*
X39796092Y-79293463D01*
X39843437Y-79287552D01*
X39878075Y-79269624D01*
X39908150Y-79213398D01*
X39911130Y-79178424D01*
X39911130Y-78653424D01*
X39905219Y-78606154D01*
X39887291Y-78571515D01*
X39831015Y-78541368D01*
X39796092Y-78538386D01*
X38821746Y-78538386D01*
X38774502Y-78544290D01*
X38739903Y-78562168D01*
X38709721Y-78618334D01*
X38706707Y-78653424D01*
X38706707Y-80473705D01*
X38974520Y-80473705D01*
X38980433Y-80432875D01*
X38998380Y-80400094D01*
X39062086Y-80360384D01*
X39199651Y-80343463D01*
X39409760Y-80343463D01*
X39502143Y-80349376D01*
X39572801Y-80367321D01*
X39613129Y-80389825D01*
X39640882Y-80419956D01*
X39659987Y-80493122D01*
X39659987Y-80627395D01*
X39654061Y-80670371D01*
X39636021Y-80705214D01*
X39572427Y-80748035D01*
X39449590Y-80768063D01*
X39418004Y-80768628D01*
X39208077Y-80768628D01*
X39126649Y-80762571D01*
X39063382Y-80743619D01*
X39026920Y-80719791D01*
X39000278Y-80687275D01*
X38975546Y-80599185D01*
X38974520Y-80571158D01*
X38706707Y-80571158D01*
X38706707Y-81026366D01*
X38712589Y-81132645D01*
X38730309Y-81225667D01*
X38755924Y-81296945D01*
X38790961Y-81358028D01*
X38831986Y-81405671D01*
X38881262Y-81444656D01*
X39004739Y-81496876D01*
X39170341Y-81515279D01*
G37*
G36*
X40526439Y-81490000D02*
G01*
X41093387Y-81490000D01*
X41135318Y-81484264D01*
X41169291Y-81467564D01*
X41192797Y-81442877D01*
X41207648Y-81409983D01*
X41212639Y-81379541D01*
X41477704Y-78538386D01*
X41214105Y-78538386D01*
X41024511Y-80370757D01*
X41007824Y-80464244D01*
X40980977Y-80537119D01*
X40952157Y-80580388D01*
X40916167Y-80611481D01*
X40830805Y-80637736D01*
X40812020Y-80638386D01*
X40756627Y-80632476D01*
X40710033Y-80614553D01*
X40647334Y-80552023D01*
X40606383Y-80440633D01*
X40595315Y-80370757D01*
X40409935Y-78538386D01*
X40146153Y-78538386D01*
X40407187Y-81379541D01*
X40415465Y-81420118D01*
X40433993Y-81452103D01*
X40493625Y-81486612D01*
X40526439Y-81490000D01*
G37*
G36*
X114618178Y-69320000D02*
G01*
X115374110Y-69320000D01*
X115430017Y-69312352D01*
X115475315Y-69290086D01*
X115506655Y-69257169D01*
X115526457Y-69213311D01*
X115533112Y-69172721D01*
X115886531Y-65384515D01*
X115535066Y-65384515D01*
X115282274Y-67827676D01*
X115260025Y-67952325D01*
X115224229Y-68049492D01*
X115185803Y-68107184D01*
X115137816Y-68148642D01*
X115024000Y-68183649D01*
X114998953Y-68184515D01*
X114925096Y-68176634D01*
X114862970Y-68152737D01*
X114779371Y-68069364D01*
X114724771Y-67920844D01*
X114710013Y-67827676D01*
X114462840Y-65384515D01*
X114111130Y-65384515D01*
X114459176Y-69172721D01*
X114470213Y-69226825D01*
X114494917Y-69269471D01*
X114574426Y-69315483D01*
X114618178Y-69320000D01*
G37*
G36*
X117239052Y-66940738D02*
G01*
X117283135Y-66958716D01*
X117316001Y-66988445D01*
X117338667Y-67033323D01*
X117346371Y-67089085D01*
X117346371Y-67615429D01*
X117341274Y-67661766D01*
X117323235Y-67705845D01*
X117293453Y-67738722D01*
X117248636Y-67761358D01*
X117192986Y-67769057D01*
X116862526Y-67769057D01*
X116814264Y-67762931D01*
X116771164Y-67743580D01*
X116738382Y-67712348D01*
X116716704Y-67668788D01*
X116709141Y-67615429D01*
X116709141Y-67089085D01*
X116714178Y-67043020D01*
X116732156Y-66998936D01*
X116761886Y-66966071D01*
X116806764Y-66943405D01*
X116862526Y-66935701D01*
X117192986Y-66935701D01*
X117239052Y-66940738D01*
G37*
G36*
X117197371Y-65351109D02*
G01*
X117410363Y-65382212D01*
X117584278Y-65465718D01*
X117656875Y-65526144D01*
X117718899Y-65598296D01*
X117770820Y-65683777D01*
X117810417Y-65780495D01*
X117837714Y-65891665D01*
X117850488Y-66013684D01*
X117872714Y-67352379D01*
X117850488Y-68691074D01*
X117849860Y-68704175D01*
X117809087Y-68928217D01*
X117719235Y-69105894D01*
X117657500Y-69177907D01*
X117585257Y-69238283D01*
X117501511Y-69287289D01*
X117408090Y-69323203D01*
X117302214Y-69345984D01*
X117187369Y-69353705D01*
X116868143Y-69353705D01*
X116857996Y-69353648D01*
X116645074Y-69322499D01*
X116471194Y-69238931D01*
X116398617Y-69178474D01*
X116336622Y-69106298D01*
X116284744Y-69020814D01*
X116245198Y-68924108D01*
X116217968Y-68812999D01*
X116205268Y-68691074D01*
X116182798Y-67352379D01*
X116517655Y-67352379D01*
X116523272Y-67934410D01*
X116526634Y-67987036D01*
X116567074Y-68158743D01*
X116648679Y-68275997D01*
X116711030Y-68321110D01*
X116787104Y-68354188D01*
X116895566Y-68378129D01*
X117024947Y-68386015D01*
X117030565Y-68386015D01*
X117092567Y-68384314D01*
X117280427Y-68349255D01*
X117407610Y-68273513D01*
X117456217Y-68216309D01*
X117492602Y-68146861D01*
X117520242Y-68049432D01*
X117532240Y-67934410D01*
X117543475Y-67352379D01*
X117532240Y-66770104D01*
X117528969Y-66718596D01*
X117488165Y-66547038D01*
X117405458Y-66429012D01*
X117342539Y-66383593D01*
X117266124Y-66350326D01*
X117158322Y-66326385D01*
X117030565Y-66318499D01*
X117024947Y-66318499D01*
X116963317Y-66320182D01*
X116775431Y-66355188D01*
X116648181Y-66430912D01*
X116599524Y-66488121D01*
X116563081Y-66557584D01*
X116535362Y-66655041D01*
X116523272Y-66770104D01*
X116517655Y-67352379D01*
X116182798Y-67352379D01*
X116205268Y-66013684D01*
X116205893Y-66000488D01*
X116246539Y-65776464D01*
X116336273Y-65598836D01*
X116397964Y-65526838D01*
X116470167Y-65466478D01*
X116553904Y-65417472D01*
X116647325Y-65381560D01*
X116753244Y-65358775D01*
X116868143Y-65351053D01*
X117187369Y-65351053D01*
X117197371Y-65351109D01*
G37*
G36*
X115216355Y-71384526D02*
G01*
X115430430Y-71414369D01*
X115605502Y-71497117D01*
X115679148Y-71557728D01*
X115742161Y-71630191D01*
X115795567Y-71716845D01*
X115836618Y-71814906D01*
X115865655Y-71928350D01*
X115880181Y-72052763D01*
X115897034Y-72702693D01*
X115880181Y-73352868D01*
X115841978Y-73594847D01*
X115754364Y-73800052D01*
X115623941Y-73957344D01*
X115542985Y-74018570D01*
X115452265Y-74067306D01*
X115349699Y-74103775D01*
X115237822Y-74126140D01*
X115258339Y-74235561D01*
X115301056Y-74319839D01*
X115346118Y-74344556D01*
X115407571Y-74352554D01*
X115715561Y-74352554D01*
X115764095Y-74358726D01*
X115807184Y-74378069D01*
X115839971Y-74409263D01*
X115861630Y-74452704D01*
X115869190Y-74505938D01*
X115869190Y-75166615D01*
X115863063Y-75214877D01*
X115843713Y-75257977D01*
X115812481Y-75290758D01*
X115768921Y-75312436D01*
X115715561Y-75320000D01*
X115581228Y-75320000D01*
X115454215Y-75311065D01*
X115273816Y-75256156D01*
X115198340Y-75209898D01*
X115132424Y-75150978D01*
X115072598Y-75074137D01*
X115023456Y-74982722D01*
X114981098Y-74863325D01*
X114951814Y-74725512D01*
X114879274Y-74305903D01*
X114836640Y-74221625D01*
X114791600Y-74196908D01*
X114730041Y-74188911D01*
X114575436Y-74188911D01*
X114575436Y-75320000D01*
X114223970Y-75320000D01*
X114223970Y-73232456D01*
X114575436Y-73232456D01*
X115049267Y-73232456D01*
X115206071Y-73232456D01*
X115287872Y-73225750D01*
X115404905Y-73178592D01*
X115448613Y-73136565D01*
X115481101Y-73082071D01*
X115504110Y-73004505D01*
X115511863Y-72910055D01*
X115511863Y-72685840D01*
X115507109Y-72614274D01*
X115463407Y-72490742D01*
X115423333Y-72445220D01*
X115371691Y-72411892D01*
X115296492Y-72387937D01*
X115206071Y-72380048D01*
X114575436Y-72380048D01*
X114575436Y-73232456D01*
X114223970Y-73232456D01*
X114223970Y-71537899D01*
X114229007Y-71491833D01*
X114246985Y-71447750D01*
X114276715Y-71414884D01*
X114321593Y-71392219D01*
X114377355Y-71384515D01*
X115211688Y-71384515D01*
X115216355Y-71384526D01*
G37*
G36*
X116397732Y-75320000D02*
G01*
X117612840Y-75320000D01*
X117668602Y-75312295D01*
X117713480Y-75289630D01*
X117743210Y-75256764D01*
X117761187Y-75212681D01*
X117766224Y-75166615D01*
X117766224Y-74477850D01*
X117758661Y-74424518D01*
X117736983Y-74381022D01*
X117704211Y-74349868D01*
X117661124Y-74330576D01*
X117612840Y-74324466D01*
X116584577Y-74324466D01*
X116584577Y-74020872D01*
X117355163Y-74020872D01*
X117408496Y-74013309D01*
X117451992Y-73991630D01*
X117483146Y-73958858D01*
X117502437Y-73915771D01*
X117508548Y-73867487D01*
X117508548Y-73184340D01*
X117500985Y-73131008D01*
X117479307Y-73087512D01*
X117446534Y-73056358D01*
X117403448Y-73037066D01*
X117355163Y-73030956D01*
X116584577Y-73030956D01*
X116584577Y-72380048D01*
X117590369Y-72380048D01*
X117646131Y-72372344D01*
X117691009Y-72349679D01*
X117720739Y-72316813D01*
X117738717Y-72272729D01*
X117743754Y-72226664D01*
X117743754Y-71537899D01*
X117736050Y-71482137D01*
X117713384Y-71437259D01*
X117680518Y-71407529D01*
X117636435Y-71389551D01*
X117590369Y-71384515D01*
X116397732Y-71384515D01*
X116341969Y-71392219D01*
X116297091Y-71414884D01*
X116267362Y-71447750D01*
X116249384Y-71491833D01*
X116244347Y-71537899D01*
X116244347Y-75166615D01*
X116251910Y-75219947D01*
X116273588Y-75263443D01*
X116306361Y-75294597D01*
X116349447Y-75313889D01*
X116397732Y-75320000D01*
G37*
G36*
X118506524Y-75320000D02*
G01*
X119262456Y-75320000D01*
X119318363Y-75312352D01*
X119363661Y-75290086D01*
X119395001Y-75257169D01*
X119414803Y-75213311D01*
X119421458Y-75172721D01*
X119774877Y-71384515D01*
X119423412Y-71384515D01*
X119170621Y-73827676D01*
X119148371Y-73952325D01*
X119112575Y-74049492D01*
X119074149Y-74107184D01*
X119026162Y-74148642D01*
X118912346Y-74183649D01*
X118887299Y-74184515D01*
X118813442Y-74176634D01*
X118751316Y-74152737D01*
X118667718Y-74069364D01*
X118613117Y-73920844D01*
X118598360Y-73827676D01*
X118351186Y-71384515D01*
X117999476Y-71384515D01*
X118347522Y-75172721D01*
X118358559Y-75226825D01*
X118383263Y-75269471D01*
X118462772Y-75315483D01*
X118506524Y-75320000D01*
G37*
G36*
X120246999Y-73690655D02*
G01*
X121590823Y-73690655D01*
X121644085Y-73683095D01*
X121687589Y-73661437D01*
X121718861Y-73628640D01*
X121738263Y-73585538D01*
X121744452Y-73537027D01*
X121744452Y-73167487D01*
X121736891Y-73114253D01*
X121715233Y-73070812D01*
X121682445Y-73039619D01*
X121639356Y-73020275D01*
X121590823Y-73014103D01*
X120246999Y-73014103D01*
X120193666Y-73021666D01*
X120150170Y-73043344D01*
X120119016Y-73076116D01*
X120099725Y-73119203D01*
X120093614Y-73167487D01*
X120093614Y-73537027D01*
X120101318Y-73592819D01*
X120123984Y-73637766D01*
X120156857Y-73667571D01*
X120200951Y-73685604D01*
X120246999Y-73690655D01*
G37*
G36*
X123212177Y-71352201D02*
G01*
X123431206Y-71387820D01*
X123593985Y-71468111D01*
X123659820Y-71526149D01*
X123714658Y-71595986D01*
X123761610Y-71684727D01*
X123795917Y-71787398D01*
X123819517Y-71919691D01*
X123827355Y-72069860D01*
X123827355Y-75320000D01*
X123481263Y-75320000D01*
X123481263Y-74188911D01*
X122516748Y-74188911D01*
X122516748Y-75320000D01*
X122176517Y-75320000D01*
X122176517Y-72797948D01*
X122516748Y-72797948D01*
X122516748Y-73198995D01*
X123481263Y-73198995D01*
X123481263Y-72797948D01*
X123478269Y-72720761D01*
X123438987Y-72544979D01*
X123357849Y-72424276D01*
X123296841Y-72378286D01*
X123223195Y-72344657D01*
X123121345Y-72320761D01*
X123001814Y-72312882D01*
X122922434Y-72316060D01*
X122747914Y-72355703D01*
X122627912Y-72437298D01*
X122582065Y-72498829D01*
X122548523Y-72573210D01*
X122524627Y-72676487D01*
X122516748Y-72797948D01*
X122176517Y-72797948D01*
X122176517Y-72069860D01*
X122178008Y-72001269D01*
X122214131Y-71761736D01*
X122291854Y-71588717D01*
X122346254Y-71520780D01*
X122411400Y-71464350D01*
X122492341Y-71417013D01*
X122585641Y-71382460D01*
X122704621Y-71358887D01*
X122839392Y-71351053D01*
X123158618Y-71351053D01*
X123212177Y-71352201D01*
G37*
G36*
X91189026Y-75384263D02*
G01*
X91987090Y-75384263D01*
X92316249Y-75364629D01*
X92608601Y-75305344D01*
X92839208Y-75218209D01*
X93040704Y-75098457D01*
X93204567Y-74954897D01*
X93342716Y-74781480D01*
X93544520Y-74336744D01*
X93644888Y-73728297D01*
X93700453Y-71733443D01*
X92765614Y-71733443D01*
X92745905Y-72037203D01*
X92686101Y-72291379D01*
X92603319Y-72469438D01*
X92490418Y-72614656D01*
X92193816Y-72803410D01*
X91752552Y-72890715D01*
X91595080Y-72895429D01*
X91297687Y-72875759D01*
X91046149Y-72816231D01*
X90865053Y-72732555D01*
X90715292Y-72618320D01*
X90512746Y-72315202D01*
X90407461Y-71864579D01*
X90396458Y-71696196D01*
X90383025Y-70338817D01*
X90396458Y-68995481D01*
X90427201Y-68685360D01*
X90497570Y-68423394D01*
X90588319Y-68241011D01*
X90709560Y-68091315D01*
X91020118Y-67898613D01*
X91470709Y-67813414D01*
X91595080Y-67810293D01*
X91883982Y-67830267D01*
X92130418Y-67891928D01*
X92304899Y-67977442D01*
X92451294Y-68095491D01*
X92654613Y-68414557D01*
X92768832Y-68903538D01*
X92780879Y-69042498D01*
X93700453Y-69042498D01*
X93644888Y-67033600D01*
X93602666Y-66673820D01*
X93523922Y-66359414D01*
X93422551Y-66116553D01*
X93291684Y-65908946D01*
X93142547Y-65746405D01*
X92967337Y-65613931D01*
X92538192Y-65437798D01*
X91987090Y-65377634D01*
X91189026Y-65377634D01*
X90848037Y-65397269D01*
X90547707Y-65456559D01*
X90314960Y-65542809D01*
X90113538Y-65661118D01*
X89952899Y-65801481D01*
X89819247Y-65970698D01*
X89630591Y-66401641D01*
X89545882Y-67034211D01*
X89503750Y-70380949D01*
X89545882Y-73727686D01*
X89574407Y-74085201D01*
X89641361Y-74397954D01*
X89733078Y-74637954D01*
X89855603Y-74843756D01*
X89997679Y-75005006D01*
X90167011Y-75137299D01*
X90589184Y-75316526D01*
X91189026Y-75384263D01*
G37*
G36*
X97887997Y-75300000D02*
G01*
X98767271Y-75300000D01*
X98767271Y-65461287D01*
X97887997Y-65461287D01*
X97887997Y-69857048D01*
X95518841Y-69857048D01*
X95518841Y-65461287D01*
X94640177Y-65461287D01*
X94640177Y-75300000D01*
X95518841Y-75300000D01*
X95518841Y-72332449D01*
X97887997Y-72332449D01*
X97887997Y-75300000D01*
G37*
G36*
X101504623Y-75384263D02*
G01*
X102302686Y-75384263D01*
X102656666Y-75364627D01*
X102967832Y-75305331D01*
X103207464Y-75219443D01*
X103414132Y-75101721D01*
X103576915Y-74963348D01*
X103711574Y-74796783D01*
X103897248Y-74377750D01*
X103973716Y-73801669D01*
X103974528Y-73727076D01*
X103974528Y-65461287D01*
X103095254Y-65461287D01*
X103095254Y-71682763D01*
X103075618Y-71981591D01*
X103016319Y-72236216D01*
X102932466Y-72421610D01*
X102818050Y-72574929D01*
X102518669Y-72778181D01*
X102086228Y-72874805D01*
X101910676Y-72881385D01*
X101616671Y-72861717D01*
X101365616Y-72802198D01*
X101182702Y-72718009D01*
X101031091Y-72602947D01*
X100829187Y-72300578D01*
X100732685Y-71861439D01*
X100726099Y-71682763D01*
X100726099Y-65461287D01*
X99847435Y-65461287D01*
X99847435Y-73727076D01*
X99867069Y-74080363D01*
X99926346Y-74390043D01*
X100012028Y-74627539D01*
X100129405Y-74831910D01*
X100267474Y-74992703D01*
X100433649Y-75125449D01*
X100853304Y-75308516D01*
X101433782Y-75383550D01*
X101504623Y-75384263D01*
G37*
G36*
X105054692Y-65844748D02*
G01*
X105054692Y-75300000D01*
X105905268Y-75300000D01*
X105905268Y-72486322D01*
X107649773Y-72486322D01*
X107789178Y-72467062D01*
X107901373Y-72410398D01*
X107975697Y-72328233D01*
X108020642Y-72218024D01*
X108033234Y-72102861D01*
X108033234Y-70380949D01*
X108013974Y-70241543D01*
X107957310Y-70129348D01*
X107875145Y-70055024D01*
X107764936Y-70010079D01*
X107649773Y-69997487D01*
X105905268Y-69997487D01*
X105905268Y-67950122D01*
X108378227Y-67950122D01*
X108517388Y-67930861D01*
X108629573Y-67874197D01*
X108704043Y-67791957D01*
X108749099Y-67681630D01*
X108761688Y-67566660D01*
X108761688Y-65844748D01*
X108742445Y-65705625D01*
X108685900Y-65593580D01*
X108603751Y-65519087D01*
X108493650Y-65473991D01*
X108378227Y-65461287D01*
X105438154Y-65461287D01*
X105298749Y-65480547D01*
X105186554Y-65537211D01*
X105112229Y-65619376D01*
X105067285Y-65729584D01*
X105054692Y-65844748D01*
G37*
G36*
X109941992Y-75300000D02*
G01*
X112979762Y-75300000D01*
X113119167Y-75280739D01*
X113231362Y-75224075D01*
X113305687Y-75141910D01*
X113350631Y-75031702D01*
X113363224Y-74916538D01*
X113363224Y-73194626D01*
X113344316Y-73061295D01*
X113290120Y-72952555D01*
X113208190Y-72874670D01*
X113100472Y-72826441D01*
X112979762Y-72811165D01*
X110409106Y-72811165D01*
X110409106Y-72052180D01*
X112335572Y-72052180D01*
X112468903Y-72033273D01*
X112577643Y-71979077D01*
X112655528Y-71897146D01*
X112703756Y-71789429D01*
X112719033Y-71668719D01*
X112719033Y-69960851D01*
X112700125Y-69827520D01*
X112645930Y-69718780D01*
X112563999Y-69640895D01*
X112456282Y-69592666D01*
X112335572Y-69577390D01*
X110409106Y-69577390D01*
X110409106Y-67950122D01*
X112923586Y-67950122D01*
X113062991Y-67930861D01*
X113175187Y-67874197D01*
X113249511Y-67792033D01*
X113294456Y-67681824D01*
X113307048Y-67566660D01*
X113307048Y-65844748D01*
X113287787Y-65705343D01*
X113231123Y-65593148D01*
X113148959Y-65518824D01*
X113038750Y-65473879D01*
X112923586Y-65461287D01*
X109941992Y-65461287D01*
X109802587Y-65480547D01*
X109690392Y-65537211D01*
X109616067Y-65619376D01*
X109571123Y-65729584D01*
X109558531Y-65844748D01*
X109558531Y-74916538D01*
X109577438Y-75049869D01*
X109631634Y-75158609D01*
X109713565Y-75236494D01*
X109821282Y-75284723D01*
X109941992Y-75300000D01*
G37*
D12*
X56479819Y-72696904D02*
X57289342Y-72696904D01*
X57289342Y-72696904D02*
X57384580Y-72649285D01*
X57384580Y-72649285D02*
X57432200Y-72601666D01*
X57432200Y-72601666D02*
X57479819Y-72506428D01*
X57479819Y-72506428D02*
X57479819Y-72315952D01*
X57479819Y-72315952D02*
X57432200Y-72220714D01*
X57432200Y-72220714D02*
X57384580Y-72173095D01*
X57384580Y-72173095D02*
X57289342Y-72125476D01*
X57289342Y-72125476D02*
X56479819Y-72125476D01*
X56575057Y-71696904D02*
X56527438Y-71649285D01*
X56527438Y-71649285D02*
X56479819Y-71554047D01*
X56479819Y-71554047D02*
X56479819Y-71315952D01*
X56479819Y-71315952D02*
X56527438Y-71220714D01*
X56527438Y-71220714D02*
X56575057Y-71173095D01*
X56575057Y-71173095D02*
X56670295Y-71125476D01*
X56670295Y-71125476D02*
X56765533Y-71125476D01*
X56765533Y-71125476D02*
X56908390Y-71173095D01*
X56908390Y-71173095D02*
X57479819Y-71744523D01*
X57479819Y-71744523D02*
X57479819Y-71125476D01*
X36494819Y-68008094D02*
X35494819Y-68008094D01*
X35494819Y-68008094D02*
X35494819Y-67769999D01*
X35494819Y-67769999D02*
X35542438Y-67627142D01*
X35542438Y-67627142D02*
X35637676Y-67531904D01*
X35637676Y-67531904D02*
X35732914Y-67484285D01*
X35732914Y-67484285D02*
X35923390Y-67436666D01*
X35923390Y-67436666D02*
X36066247Y-67436666D01*
X36066247Y-67436666D02*
X36256723Y-67484285D01*
X36256723Y-67484285D02*
X36351961Y-67531904D01*
X36351961Y-67531904D02*
X36447200Y-67627142D01*
X36447200Y-67627142D02*
X36494819Y-67769999D01*
X36494819Y-67769999D02*
X36494819Y-68008094D01*
X35590057Y-67055713D02*
X35542438Y-67008094D01*
X35542438Y-67008094D02*
X35494819Y-66912856D01*
X35494819Y-66912856D02*
X35494819Y-66674761D01*
X35494819Y-66674761D02*
X35542438Y-66579523D01*
X35542438Y-66579523D02*
X35590057Y-66531904D01*
X35590057Y-66531904D02*
X35685295Y-66484285D01*
X35685295Y-66484285D02*
X35780533Y-66484285D01*
X35780533Y-66484285D02*
X35923390Y-66531904D01*
X35923390Y-66531904D02*
X36494819Y-67103332D01*
X36494819Y-67103332D02*
X36494819Y-66484285D01*
X218604819Y-68666666D02*
X218128628Y-68999999D01*
X218604819Y-69238094D02*
X217604819Y-69238094D01*
X217604819Y-69238094D02*
X217604819Y-68857142D01*
X217604819Y-68857142D02*
X217652438Y-68761904D01*
X217652438Y-68761904D02*
X217700057Y-68714285D01*
X217700057Y-68714285D02*
X217795295Y-68666666D01*
X217795295Y-68666666D02*
X217938152Y-68666666D01*
X217938152Y-68666666D02*
X218033390Y-68714285D01*
X218033390Y-68714285D02*
X218081009Y-68761904D01*
X218081009Y-68761904D02*
X218128628Y-68857142D01*
X218128628Y-68857142D02*
X218128628Y-69238094D01*
X217604819Y-68333332D02*
X217604819Y-67714285D01*
X217604819Y-67714285D02*
X217985771Y-68047618D01*
X217985771Y-68047618D02*
X217985771Y-67904761D01*
X217985771Y-67904761D02*
X218033390Y-67809523D01*
X218033390Y-67809523D02*
X218081009Y-67761904D01*
X218081009Y-67761904D02*
X218176247Y-67714285D01*
X218176247Y-67714285D02*
X218414342Y-67714285D01*
X218414342Y-67714285D02*
X218509580Y-67761904D01*
X218509580Y-67761904D02*
X218557200Y-67809523D01*
X218557200Y-67809523D02*
X218604819Y-67904761D01*
X218604819Y-67904761D02*
X218604819Y-68190475D01*
X218604819Y-68190475D02*
X218557200Y-68285713D01*
X218557200Y-68285713D02*
X218509580Y-68333332D01*
X65714819Y-51603333D02*
X66429104Y-51603333D01*
X66429104Y-51603333D02*
X66571961Y-51650952D01*
X66571961Y-51650952D02*
X66667200Y-51746190D01*
X66667200Y-51746190D02*
X66714819Y-51889047D01*
X66714819Y-51889047D02*
X66714819Y-51984285D01*
X66714819Y-50603333D02*
X66714819Y-51174761D01*
X66714819Y-50889047D02*
X65714819Y-50889047D01*
X65714819Y-50889047D02*
X65857676Y-50984285D01*
X65857676Y-50984285D02*
X65952914Y-51079523D01*
X65952914Y-51079523D02*
X66000533Y-51174761D01*
X27494819Y-68008094D02*
X26494819Y-68008094D01*
X26494819Y-68008094D02*
X26494819Y-67769999D01*
X26494819Y-67769999D02*
X26542438Y-67627142D01*
X26542438Y-67627142D02*
X26637676Y-67531904D01*
X26637676Y-67531904D02*
X26732914Y-67484285D01*
X26732914Y-67484285D02*
X26923390Y-67436666D01*
X26923390Y-67436666D02*
X27066247Y-67436666D01*
X27066247Y-67436666D02*
X27256723Y-67484285D01*
X27256723Y-67484285D02*
X27351961Y-67531904D01*
X27351961Y-67531904D02*
X27447200Y-67627142D01*
X27447200Y-67627142D02*
X27494819Y-67769999D01*
X27494819Y-67769999D02*
X27494819Y-68008094D01*
X26494819Y-67103332D02*
X26494819Y-66484285D01*
X26494819Y-66484285D02*
X26875771Y-66817618D01*
X26875771Y-66817618D02*
X26875771Y-66674761D01*
X26875771Y-66674761D02*
X26923390Y-66579523D01*
X26923390Y-66579523D02*
X26971009Y-66531904D01*
X26971009Y-66531904D02*
X27066247Y-66484285D01*
X27066247Y-66484285D02*
X27304342Y-66484285D01*
X27304342Y-66484285D02*
X27399580Y-66531904D01*
X27399580Y-66531904D02*
X27447200Y-66579523D01*
X27447200Y-66579523D02*
X27494819Y-66674761D01*
X27494819Y-66674761D02*
X27494819Y-66960475D01*
X27494819Y-66960475D02*
X27447200Y-67055713D01*
X27447200Y-67055713D02*
X27399580Y-67103332D01*
X201712557Y-58095238D02*
X201664938Y-58190476D01*
X201664938Y-58190476D02*
X201569700Y-58285714D01*
X201569700Y-58285714D02*
X201426842Y-58428571D01*
X201426842Y-58428571D02*
X201379223Y-58523809D01*
X201379223Y-58523809D02*
X201379223Y-58619047D01*
X201617319Y-58571428D02*
X201569700Y-58666666D01*
X201569700Y-58666666D02*
X201474461Y-58761904D01*
X201474461Y-58761904D02*
X201283985Y-58809523D01*
X201283985Y-58809523D02*
X200950652Y-58809523D01*
X200950652Y-58809523D02*
X200760176Y-58761904D01*
X200760176Y-58761904D02*
X200664938Y-58666666D01*
X200664938Y-58666666D02*
X200617319Y-58571428D01*
X200617319Y-58571428D02*
X200617319Y-58380952D01*
X200617319Y-58380952D02*
X200664938Y-58285714D01*
X200664938Y-58285714D02*
X200760176Y-58190476D01*
X200760176Y-58190476D02*
X200950652Y-58142857D01*
X200950652Y-58142857D02*
X201283985Y-58142857D01*
X201283985Y-58142857D02*
X201474461Y-58190476D01*
X201474461Y-58190476D02*
X201569700Y-58285714D01*
X201569700Y-58285714D02*
X201617319Y-58380952D01*
X201617319Y-58380952D02*
X201617319Y-58571428D01*
X201617319Y-57190476D02*
X201617319Y-57761904D01*
X201617319Y-57476190D02*
X200617319Y-57476190D01*
X200617319Y-57476190D02*
X200760176Y-57571428D01*
X200760176Y-57571428D02*
X200855414Y-57666666D01*
X200855414Y-57666666D02*
X200903033Y-57761904D01*
X61039580Y-82116666D02*
X61087200Y-82164285D01*
X61087200Y-82164285D02*
X61134819Y-82307142D01*
X61134819Y-82307142D02*
X61134819Y-82402380D01*
X61134819Y-82402380D02*
X61087200Y-82545237D01*
X61087200Y-82545237D02*
X60991961Y-82640475D01*
X60991961Y-82640475D02*
X60896723Y-82688094D01*
X60896723Y-82688094D02*
X60706247Y-82735713D01*
X60706247Y-82735713D02*
X60563390Y-82735713D01*
X60563390Y-82735713D02*
X60372914Y-82688094D01*
X60372914Y-82688094D02*
X60277676Y-82640475D01*
X60277676Y-82640475D02*
X60182438Y-82545237D01*
X60182438Y-82545237D02*
X60134819Y-82402380D01*
X60134819Y-82402380D02*
X60134819Y-82307142D01*
X60134819Y-82307142D02*
X60182438Y-82164285D01*
X60182438Y-82164285D02*
X60230057Y-82116666D01*
X61134819Y-81164285D02*
X61134819Y-81735713D01*
X61134819Y-81449999D02*
X60134819Y-81449999D01*
X60134819Y-81449999D02*
X60277676Y-81545237D01*
X60277676Y-81545237D02*
X60372914Y-81640475D01*
X60372914Y-81640475D02*
X60420533Y-81735713D01*
X31494819Y-80738094D02*
X30494819Y-80738094D01*
X30494819Y-80738094D02*
X30494819Y-80499999D01*
X30494819Y-80499999D02*
X30542438Y-80357142D01*
X30542438Y-80357142D02*
X30637676Y-80261904D01*
X30637676Y-80261904D02*
X30732914Y-80214285D01*
X30732914Y-80214285D02*
X30923390Y-80166666D01*
X30923390Y-80166666D02*
X31066247Y-80166666D01*
X31066247Y-80166666D02*
X31256723Y-80214285D01*
X31256723Y-80214285D02*
X31351961Y-80261904D01*
X31351961Y-80261904D02*
X31447200Y-80357142D01*
X31447200Y-80357142D02*
X31494819Y-80499999D01*
X31494819Y-80499999D02*
X31494819Y-80738094D01*
X30828152Y-79309523D02*
X31494819Y-79309523D01*
X30447200Y-79547618D02*
X31161485Y-79785713D01*
X31161485Y-79785713D02*
X31161485Y-79166666D01*
X195754819Y-51603333D02*
X196469104Y-51603333D01*
X196469104Y-51603333D02*
X196611961Y-51650952D01*
X196611961Y-51650952D02*
X196707200Y-51746190D01*
X196707200Y-51746190D02*
X196754819Y-51889047D01*
X196754819Y-51889047D02*
X196754819Y-51984285D01*
X195754819Y-50650952D02*
X195754819Y-51127142D01*
X195754819Y-51127142D02*
X196231009Y-51174761D01*
X196231009Y-51174761D02*
X196183390Y-51127142D01*
X196183390Y-51127142D02*
X196135771Y-51031904D01*
X196135771Y-51031904D02*
X196135771Y-50793809D01*
X196135771Y-50793809D02*
X196183390Y-50698571D01*
X196183390Y-50698571D02*
X196231009Y-50650952D01*
X196231009Y-50650952D02*
X196326247Y-50603333D01*
X196326247Y-50603333D02*
X196564342Y-50603333D01*
X196564342Y-50603333D02*
X196659580Y-50650952D01*
X196659580Y-50650952D02*
X196707200Y-50698571D01*
X196707200Y-50698571D02*
X196754819Y-50793809D01*
X196754819Y-50793809D02*
X196754819Y-51031904D01*
X196754819Y-51031904D02*
X196707200Y-51127142D01*
X196707200Y-51127142D02*
X196659580Y-51174761D01*
X213954819Y-61968094D02*
X212954819Y-61968094D01*
X212954819Y-61968094D02*
X212954819Y-61729999D01*
X212954819Y-61729999D02*
X213002438Y-61587142D01*
X213002438Y-61587142D02*
X213097676Y-61491904D01*
X213097676Y-61491904D02*
X213192914Y-61444285D01*
X213192914Y-61444285D02*
X213383390Y-61396666D01*
X213383390Y-61396666D02*
X213526247Y-61396666D01*
X213526247Y-61396666D02*
X213716723Y-61444285D01*
X213716723Y-61444285D02*
X213811961Y-61491904D01*
X213811961Y-61491904D02*
X213907200Y-61587142D01*
X213907200Y-61587142D02*
X213954819Y-61729999D01*
X213954819Y-61729999D02*
X213954819Y-61968094D01*
X213954819Y-60444285D02*
X213954819Y-61015713D01*
X213954819Y-60729999D02*
X212954819Y-60729999D01*
X212954819Y-60729999D02*
X213097676Y-60825237D01*
X213097676Y-60825237D02*
X213192914Y-60920475D01*
X213192914Y-60920475D02*
X213240533Y-61015713D01*
X41104819Y-75166666D02*
X40628628Y-75499999D01*
X41104819Y-75738094D02*
X40104819Y-75738094D01*
X40104819Y-75738094D02*
X40104819Y-75357142D01*
X40104819Y-75357142D02*
X40152438Y-75261904D01*
X40152438Y-75261904D02*
X40200057Y-75214285D01*
X40200057Y-75214285D02*
X40295295Y-75166666D01*
X40295295Y-75166666D02*
X40438152Y-75166666D01*
X40438152Y-75166666D02*
X40533390Y-75214285D01*
X40533390Y-75214285D02*
X40581009Y-75261904D01*
X40581009Y-75261904D02*
X40628628Y-75357142D01*
X40628628Y-75357142D02*
X40628628Y-75738094D01*
X40438152Y-74309523D02*
X41104819Y-74309523D01*
X40057200Y-74547618D02*
X40771485Y-74785713D01*
X40771485Y-74785713D02*
X40771485Y-74166666D01*
X32104819Y-75166666D02*
X31628628Y-75499999D01*
X32104819Y-75738094D02*
X31104819Y-75738094D01*
X31104819Y-75738094D02*
X31104819Y-75357142D01*
X31104819Y-75357142D02*
X31152438Y-75261904D01*
X31152438Y-75261904D02*
X31200057Y-75214285D01*
X31200057Y-75214285D02*
X31295295Y-75166666D01*
X31295295Y-75166666D02*
X31438152Y-75166666D01*
X31438152Y-75166666D02*
X31533390Y-75214285D01*
X31533390Y-75214285D02*
X31581009Y-75261904D01*
X31581009Y-75261904D02*
X31628628Y-75357142D01*
X31628628Y-75357142D02*
X31628628Y-75738094D01*
X31104819Y-74261904D02*
X31104819Y-74738094D01*
X31104819Y-74738094D02*
X31581009Y-74785713D01*
X31581009Y-74785713D02*
X31533390Y-74738094D01*
X31533390Y-74738094D02*
X31485771Y-74642856D01*
X31485771Y-74642856D02*
X31485771Y-74404761D01*
X31485771Y-74404761D02*
X31533390Y-74309523D01*
X31533390Y-74309523D02*
X31581009Y-74261904D01*
X31581009Y-74261904D02*
X31676247Y-74214285D01*
X31676247Y-74214285D02*
X31914342Y-74214285D01*
X31914342Y-74214285D02*
X32009580Y-74261904D01*
X32009580Y-74261904D02*
X32057200Y-74309523D01*
X32057200Y-74309523D02*
X32104819Y-74404761D01*
X32104819Y-74404761D02*
X32104819Y-74642856D01*
X32104819Y-74642856D02*
X32057200Y-74738094D01*
X32057200Y-74738094D02*
X32009580Y-74785713D01*
X222116666Y-44662319D02*
X222116666Y-45376604D01*
X222116666Y-45376604D02*
X222069047Y-45519461D01*
X222069047Y-45519461D02*
X221973809Y-45614700D01*
X221973809Y-45614700D02*
X221830952Y-45662319D01*
X221830952Y-45662319D02*
X221735714Y-45662319D01*
X223021428Y-44662319D02*
X222830952Y-44662319D01*
X222830952Y-44662319D02*
X222735714Y-44709938D01*
X222735714Y-44709938D02*
X222688095Y-44757557D01*
X222688095Y-44757557D02*
X222592857Y-44900414D01*
X222592857Y-44900414D02*
X222545238Y-45090890D01*
X222545238Y-45090890D02*
X222545238Y-45471842D01*
X222545238Y-45471842D02*
X222592857Y-45567080D01*
X222592857Y-45567080D02*
X222640476Y-45614700D01*
X222640476Y-45614700D02*
X222735714Y-45662319D01*
X222735714Y-45662319D02*
X222926190Y-45662319D01*
X222926190Y-45662319D02*
X223021428Y-45614700D01*
X223021428Y-45614700D02*
X223069047Y-45567080D01*
X223069047Y-45567080D02*
X223116666Y-45471842D01*
X223116666Y-45471842D02*
X223116666Y-45233747D01*
X223116666Y-45233747D02*
X223069047Y-45138509D01*
X223069047Y-45138509D02*
X223021428Y-45090890D01*
X223021428Y-45090890D02*
X222926190Y-45043271D01*
X222926190Y-45043271D02*
X222735714Y-45043271D01*
X222735714Y-45043271D02*
X222640476Y-45090890D01*
X222640476Y-45090890D02*
X222592857Y-45138509D01*
X222592857Y-45138509D02*
X222545238Y-45233747D01*
X66039580Y-82116666D02*
X66087200Y-82164285D01*
X66087200Y-82164285D02*
X66134819Y-82307142D01*
X66134819Y-82307142D02*
X66134819Y-82402380D01*
X66134819Y-82402380D02*
X66087200Y-82545237D01*
X66087200Y-82545237D02*
X65991961Y-82640475D01*
X65991961Y-82640475D02*
X65896723Y-82688094D01*
X65896723Y-82688094D02*
X65706247Y-82735713D01*
X65706247Y-82735713D02*
X65563390Y-82735713D01*
X65563390Y-82735713D02*
X65372914Y-82688094D01*
X65372914Y-82688094D02*
X65277676Y-82640475D01*
X65277676Y-82640475D02*
X65182438Y-82545237D01*
X65182438Y-82545237D02*
X65134819Y-82402380D01*
X65134819Y-82402380D02*
X65134819Y-82307142D01*
X65134819Y-82307142D02*
X65182438Y-82164285D01*
X65182438Y-82164285D02*
X65230057Y-82116666D01*
X65230057Y-81735713D02*
X65182438Y-81688094D01*
X65182438Y-81688094D02*
X65134819Y-81592856D01*
X65134819Y-81592856D02*
X65134819Y-81354761D01*
X65134819Y-81354761D02*
X65182438Y-81259523D01*
X65182438Y-81259523D02*
X65230057Y-81211904D01*
X65230057Y-81211904D02*
X65325295Y-81164285D01*
X65325295Y-81164285D02*
X65420533Y-81164285D01*
X65420533Y-81164285D02*
X65563390Y-81211904D01*
X65563390Y-81211904D02*
X66134819Y-81783332D01*
X66134819Y-81783332D02*
X66134819Y-81164285D01*
X200604819Y-63666666D02*
X200128628Y-63999999D01*
X200604819Y-64238094D02*
X199604819Y-64238094D01*
X199604819Y-64238094D02*
X199604819Y-63857142D01*
X199604819Y-63857142D02*
X199652438Y-63761904D01*
X199652438Y-63761904D02*
X199700057Y-63714285D01*
X199700057Y-63714285D02*
X199795295Y-63666666D01*
X199795295Y-63666666D02*
X199938152Y-63666666D01*
X199938152Y-63666666D02*
X200033390Y-63714285D01*
X200033390Y-63714285D02*
X200081009Y-63761904D01*
X200081009Y-63761904D02*
X200128628Y-63857142D01*
X200128628Y-63857142D02*
X200128628Y-64238094D01*
X200604819Y-62714285D02*
X200604819Y-63285713D01*
X200604819Y-62999999D02*
X199604819Y-62999999D01*
X199604819Y-62999999D02*
X199747676Y-63095237D01*
X199747676Y-63095237D02*
X199842914Y-63190475D01*
X199842914Y-63190475D02*
X199890533Y-63285713D01*
X36104819Y-85809166D02*
X35628628Y-86142499D01*
X36104819Y-86380594D02*
X35104819Y-86380594D01*
X35104819Y-86380594D02*
X35104819Y-85999642D01*
X35104819Y-85999642D02*
X35152438Y-85904404D01*
X35152438Y-85904404D02*
X35200057Y-85856785D01*
X35200057Y-85856785D02*
X35295295Y-85809166D01*
X35295295Y-85809166D02*
X35438152Y-85809166D01*
X35438152Y-85809166D02*
X35533390Y-85856785D01*
X35533390Y-85856785D02*
X35581009Y-85904404D01*
X35581009Y-85904404D02*
X35628628Y-85999642D01*
X35628628Y-85999642D02*
X35628628Y-86380594D01*
X35104819Y-84952023D02*
X35104819Y-85142499D01*
X35104819Y-85142499D02*
X35152438Y-85237737D01*
X35152438Y-85237737D02*
X35200057Y-85285356D01*
X35200057Y-85285356D02*
X35342914Y-85380594D01*
X35342914Y-85380594D02*
X35533390Y-85428213D01*
X35533390Y-85428213D02*
X35914342Y-85428213D01*
X35914342Y-85428213D02*
X36009580Y-85380594D01*
X36009580Y-85380594D02*
X36057200Y-85332975D01*
X36057200Y-85332975D02*
X36104819Y-85237737D01*
X36104819Y-85237737D02*
X36104819Y-85047261D01*
X36104819Y-85047261D02*
X36057200Y-84952023D01*
X36057200Y-84952023D02*
X36009580Y-84904404D01*
X36009580Y-84904404D02*
X35914342Y-84856785D01*
X35914342Y-84856785D02*
X35676247Y-84856785D01*
X35676247Y-84856785D02*
X35581009Y-84904404D01*
X35581009Y-84904404D02*
X35533390Y-84952023D01*
X35533390Y-84952023D02*
X35485771Y-85047261D01*
X35485771Y-85047261D02*
X35485771Y-85237737D01*
X35485771Y-85237737D02*
X35533390Y-85332975D01*
X35533390Y-85332975D02*
X35581009Y-85380594D01*
X35581009Y-85380594D02*
X35676247Y-85428213D01*
X204833333Y-62304819D02*
X204500000Y-61828628D01*
X204261905Y-62304819D02*
X204261905Y-61304819D01*
X204261905Y-61304819D02*
X204642857Y-61304819D01*
X204642857Y-61304819D02*
X204738095Y-61352438D01*
X204738095Y-61352438D02*
X204785714Y-61400057D01*
X204785714Y-61400057D02*
X204833333Y-61495295D01*
X204833333Y-61495295D02*
X204833333Y-61638152D01*
X204833333Y-61638152D02*
X204785714Y-61733390D01*
X204785714Y-61733390D02*
X204738095Y-61781009D01*
X204738095Y-61781009D02*
X204642857Y-61828628D01*
X204642857Y-61828628D02*
X204261905Y-61828628D01*
X205214286Y-61400057D02*
X205261905Y-61352438D01*
X205261905Y-61352438D02*
X205357143Y-61304819D01*
X205357143Y-61304819D02*
X205595238Y-61304819D01*
X205595238Y-61304819D02*
X205690476Y-61352438D01*
X205690476Y-61352438D02*
X205738095Y-61400057D01*
X205738095Y-61400057D02*
X205785714Y-61495295D01*
X205785714Y-61495295D02*
X205785714Y-61590533D01*
X205785714Y-61590533D02*
X205738095Y-61733390D01*
X205738095Y-61733390D02*
X205166667Y-62304819D01*
X205166667Y-62304819D02*
X205785714Y-62304819D01*
X84559580Y-81166666D02*
X84607200Y-81214285D01*
X84607200Y-81214285D02*
X84654819Y-81357142D01*
X84654819Y-81357142D02*
X84654819Y-81452380D01*
X84654819Y-81452380D02*
X84607200Y-81595237D01*
X84607200Y-81595237D02*
X84511961Y-81690475D01*
X84511961Y-81690475D02*
X84416723Y-81738094D01*
X84416723Y-81738094D02*
X84226247Y-81785713D01*
X84226247Y-81785713D02*
X84083390Y-81785713D01*
X84083390Y-81785713D02*
X83892914Y-81738094D01*
X83892914Y-81738094D02*
X83797676Y-81690475D01*
X83797676Y-81690475D02*
X83702438Y-81595237D01*
X83702438Y-81595237D02*
X83654819Y-81452380D01*
X83654819Y-81452380D02*
X83654819Y-81357142D01*
X83654819Y-81357142D02*
X83702438Y-81214285D01*
X83702438Y-81214285D02*
X83750057Y-81166666D01*
X83654819Y-80833332D02*
X83654819Y-80214285D01*
X83654819Y-80214285D02*
X84035771Y-80547618D01*
X84035771Y-80547618D02*
X84035771Y-80404761D01*
X84035771Y-80404761D02*
X84083390Y-80309523D01*
X84083390Y-80309523D02*
X84131009Y-80261904D01*
X84131009Y-80261904D02*
X84226247Y-80214285D01*
X84226247Y-80214285D02*
X84464342Y-80214285D01*
X84464342Y-80214285D02*
X84559580Y-80261904D01*
X84559580Y-80261904D02*
X84607200Y-80309523D01*
X84607200Y-80309523D02*
X84654819Y-80404761D01*
X84654819Y-80404761D02*
X84654819Y-80690475D01*
X84654819Y-80690475D02*
X84607200Y-80785713D01*
X84607200Y-80785713D02*
X84559580Y-80833332D01*
X163134819Y-51603333D02*
X163849104Y-51603333D01*
X163849104Y-51603333D02*
X163991961Y-51650952D01*
X163991961Y-51650952D02*
X164087200Y-51746190D01*
X164087200Y-51746190D02*
X164134819Y-51889047D01*
X164134819Y-51889047D02*
X164134819Y-51984285D01*
X163468152Y-50698571D02*
X164134819Y-50698571D01*
X163087200Y-50936666D02*
X163801485Y-51174761D01*
X163801485Y-51174761D02*
X163801485Y-50555714D01*
X98334819Y-51603333D02*
X99049104Y-51603333D01*
X99049104Y-51603333D02*
X99191961Y-51650952D01*
X99191961Y-51650952D02*
X99287200Y-51746190D01*
X99287200Y-51746190D02*
X99334819Y-51889047D01*
X99334819Y-51889047D02*
X99334819Y-51984285D01*
X98430057Y-51174761D02*
X98382438Y-51127142D01*
X98382438Y-51127142D02*
X98334819Y-51031904D01*
X98334819Y-51031904D02*
X98334819Y-50793809D01*
X98334819Y-50793809D02*
X98382438Y-50698571D01*
X98382438Y-50698571D02*
X98430057Y-50650952D01*
X98430057Y-50650952D02*
X98525295Y-50603333D01*
X98525295Y-50603333D02*
X98620533Y-50603333D01*
X98620533Y-50603333D02*
X98763390Y-50650952D01*
X98763390Y-50650952D02*
X99334819Y-51222380D01*
X99334819Y-51222380D02*
X99334819Y-50603333D01*
X179238095Y-75454819D02*
X179238095Y-76264342D01*
X179238095Y-76264342D02*
X179285714Y-76359580D01*
X179285714Y-76359580D02*
X179333333Y-76407200D01*
X179333333Y-76407200D02*
X179428571Y-76454819D01*
X179428571Y-76454819D02*
X179619047Y-76454819D01*
X179619047Y-76454819D02*
X179714285Y-76407200D01*
X179714285Y-76407200D02*
X179761904Y-76359580D01*
X179761904Y-76359580D02*
X179809523Y-76264342D01*
X179809523Y-76264342D02*
X179809523Y-75454819D01*
X180809523Y-76454819D02*
X180238095Y-76454819D01*
X180523809Y-76454819D02*
X180523809Y-75454819D01*
X180523809Y-75454819D02*
X180428571Y-75597676D01*
X180428571Y-75597676D02*
X180333333Y-75692914D01*
X180333333Y-75692914D02*
X180238095Y-75740533D01*
X130834819Y-51603333D02*
X131549104Y-51603333D01*
X131549104Y-51603333D02*
X131691961Y-51650952D01*
X131691961Y-51650952D02*
X131787200Y-51746190D01*
X131787200Y-51746190D02*
X131834819Y-51889047D01*
X131834819Y-51889047D02*
X131834819Y-51984285D01*
X130834819Y-51222380D02*
X130834819Y-50603333D01*
X130834819Y-50603333D02*
X131215771Y-50936666D01*
X131215771Y-50936666D02*
X131215771Y-50793809D01*
X131215771Y-50793809D02*
X131263390Y-50698571D01*
X131263390Y-50698571D02*
X131311009Y-50650952D01*
X131311009Y-50650952D02*
X131406247Y-50603333D01*
X131406247Y-50603333D02*
X131644342Y-50603333D01*
X131644342Y-50603333D02*
X131739580Y-50650952D01*
X131739580Y-50650952D02*
X131787200Y-50698571D01*
X131787200Y-50698571D02*
X131834819Y-50793809D01*
X131834819Y-50793809D02*
X131834819Y-51079523D01*
X131834819Y-51079523D02*
X131787200Y-51174761D01*
X131787200Y-51174761D02*
X131739580Y-51222380D01*
%TO.C,U2*%
D13*
X58075000Y-68825000D02*
X58075000Y-75245000D01*
X58075000Y-75245000D02*
X58345000Y-75245000D01*
X64975000Y-68825000D02*
X64975000Y-75245000D01*
X64975000Y-75245000D02*
X64705000Y-75245000D01*
X58385000Y-76975000D02*
X57915000Y-77315000D01*
X57915000Y-76635000D01*
X58385000Y-76975000D01*
G36*
X58385000Y-76975000D02*
G01*
X57915000Y-77315000D01*
X57915000Y-76635000D01*
X58385000Y-76975000D01*
G37*
%TO.C,D2*%
X37764000Y-68830000D02*
X37920000Y-68830000D01*
X40080000Y-68830000D02*
X40236000Y-68830000D01*
X37764484Y-68830000D02*
G75*
G02*
X37920000Y-65598563I1235516J1560000D01*
G01*
X37920000Y-68310961D02*
G75*
G02*
X37920000Y-66229039I1080000J1040961D01*
G01*
X40080000Y-65598563D02*
G75*
G02*
X40235516Y-68830000I-1080000J-1671437D01*
G01*
X40080000Y-66229039D02*
G75*
G02*
X40080000Y-68310961I-1080000J-1040961D01*
G01*
%TO.C,R3*%
X215765000Y-68272936D02*
X215765000Y-68727064D01*
X217235000Y-68272936D02*
X217235000Y-68727064D01*
%TO.C,J1*%
X37170000Y-46710000D02*
X65370000Y-46710000D01*
X37170000Y-55830000D02*
X37170000Y-46710000D01*
X38470000Y-48020000D02*
X49220000Y-48020000D01*
X38470000Y-54520000D02*
X38470000Y-48020000D01*
X49220000Y-48020000D02*
X49220000Y-46710000D01*
X53320000Y-46710000D02*
X53320000Y-48020000D01*
X53320000Y-48020000D02*
X64070000Y-48020000D01*
X59660000Y-45320000D02*
X60160000Y-46320000D01*
X60160000Y-46320000D02*
X60660000Y-45320000D01*
X60660000Y-45320000D02*
X59660000Y-45320000D01*
X64070000Y-48020000D02*
X64070000Y-54520000D01*
X64070000Y-54520000D02*
X38470000Y-54520000D01*
X65370000Y-46710000D02*
X65370000Y-55830000D01*
X65370000Y-55830000D02*
X37170000Y-55830000D01*
%TO.C,D3*%
X28764000Y-68830000D02*
X28920000Y-68830000D01*
X31080000Y-68830000D02*
X31236000Y-68830000D01*
X28764484Y-68830000D02*
G75*
G02*
X28920000Y-65598563I1235516J1560000D01*
G01*
X28920000Y-68310961D02*
G75*
G02*
X28920000Y-66229039I1080000J1040961D01*
G01*
X31080000Y-65598563D02*
G75*
G02*
X31235516Y-68830000I-1080000J-1671437D01*
G01*
X31080000Y-66229039D02*
G75*
G02*
X31080000Y-68310961I-1080000J-1040961D01*
G01*
%TO.C,Q1*%
X202002500Y-57240000D02*
X203002500Y-57240000D01*
X202002500Y-58760000D02*
X202002500Y-57240000D01*
X202052500Y-58760000D02*
X202002500Y-58760000D01*
X203952500Y-58760000D02*
X203172500Y-58760000D01*
X204122500Y-57240000D02*
X205122500Y-57240000D01*
X205122500Y-57240000D02*
X205122500Y-58760000D01*
X205122500Y-58760000D02*
X205072500Y-58760000D01*
X203512500Y-59540000D02*
X203182500Y-59300000D01*
X203512500Y-59060000D01*
X203512500Y-59540000D01*
G36*
X203512500Y-59540000D02*
G01*
X203182500Y-59300000D01*
X203512500Y-59060000D01*
X203512500Y-59540000D01*
G37*
%TO.C,C1*%
X58265000Y-81688748D02*
X58265000Y-82211252D01*
X59735000Y-81688748D02*
X59735000Y-82211252D01*
%TO.C,D4*%
X32764000Y-81560000D02*
X32920000Y-81560000D01*
X35080000Y-81560000D02*
X35236000Y-81560000D01*
X32764484Y-81560000D02*
G75*
G02*
X32920000Y-78328563I1235516J1560000D01*
G01*
X32920000Y-81040961D02*
G75*
G02*
X32920000Y-78959039I1080000J1040961D01*
G01*
X35080000Y-78328563D02*
G75*
G02*
X35235516Y-81560000I-1080000J-1671437D01*
G01*
X35080000Y-78959039D02*
G75*
G02*
X35080000Y-81040961I-1080000J-1040961D01*
G01*
%TO.C,J5*%
X167210000Y-46710000D02*
X195410000Y-46710000D01*
X167210000Y-55830000D02*
X167210000Y-46710000D01*
X168510000Y-48020000D02*
X179260000Y-48020000D01*
X168510000Y-54520000D02*
X168510000Y-48020000D01*
X179260000Y-48020000D02*
X179260000Y-46710000D01*
X183360000Y-46710000D02*
X183360000Y-48020000D01*
X183360000Y-48020000D02*
X194110000Y-48020000D01*
X189700000Y-45320000D02*
X190200000Y-46320000D01*
X190200000Y-46320000D02*
X190700000Y-45320000D01*
X190700000Y-45320000D02*
X189700000Y-45320000D01*
X194110000Y-48020000D02*
X194110000Y-54520000D01*
X194110000Y-54520000D02*
X168510000Y-54520000D01*
X195410000Y-46710000D02*
X195410000Y-55830000D01*
X195410000Y-55830000D02*
X167210000Y-55830000D01*
%TO.C,D1*%
X215224000Y-62790000D02*
X215380000Y-62790000D01*
X217540000Y-62790000D02*
X217696000Y-62790000D01*
X215224484Y-62790000D02*
G75*
G02*
X215380000Y-59558563I1235516J1560000D01*
G01*
X215380000Y-62270961D02*
G75*
G02*
X215380000Y-60189039I1080000J1040961D01*
G01*
X217540000Y-59558563D02*
G75*
G02*
X217695516Y-62790000I-1080000J-1671437D01*
G01*
X217540000Y-60189039D02*
G75*
G02*
X217540000Y-62270961I-1080000J-1040961D01*
G01*
%TO.C,R4*%
X38265000Y-74772936D02*
X38265000Y-75227064D01*
X39735000Y-74772936D02*
X39735000Y-75227064D01*
%TO.C,R5*%
X29265000Y-74772936D02*
X29265000Y-75227064D01*
X30735000Y-74772936D02*
X30735000Y-75227064D01*
%TO.C,J6*%
X212900000Y-54707500D02*
X212900000Y-55757500D01*
X213100000Y-46357500D02*
X215000000Y-46357500D01*
X213100000Y-49057500D02*
X213100000Y-46357500D01*
X213100000Y-55557500D02*
X213100000Y-52957500D01*
X213950000Y-55757500D02*
X212900000Y-55757500D01*
X219000000Y-46357500D02*
X227800000Y-46357500D01*
X227800000Y-46357500D02*
X227800000Y-55557500D01*
X227800000Y-55557500D02*
X213100000Y-55557500D01*
%TO.C,C2*%
X63265000Y-81688748D02*
X63265000Y-82211252D01*
X64735000Y-81688748D02*
X64735000Y-82211252D01*
%TO.C,R1*%
X197765000Y-63272936D02*
X197765000Y-63727064D01*
X199235000Y-63272936D02*
X199235000Y-63727064D01*
%TO.C,R6*%
X33265000Y-85415436D02*
X33265000Y-85869564D01*
X34735000Y-85415436D02*
X34735000Y-85869564D01*
%TO.C,R2*%
X204772936Y-62765000D02*
X205227064Y-62765000D01*
X204772936Y-64235000D02*
X205227064Y-64235000D01*
%TO.C,C3*%
X78740000Y-79804437D02*
X78740000Y-83260000D01*
X78740000Y-83260000D02*
X79940000Y-83260000D01*
X79804437Y-78740000D02*
X78740000Y-79804437D01*
X79804437Y-78740000D02*
X79940000Y-78740000D01*
X82195563Y-78740000D02*
X82060000Y-78740000D01*
X82195563Y-78740000D02*
X83260000Y-79804437D01*
X82560000Y-78000000D02*
X82560000Y-78500000D01*
X82810000Y-78250000D02*
X82310000Y-78250000D01*
X83260000Y-79804437D02*
X83260000Y-83260000D01*
X83260000Y-83260000D02*
X82060000Y-83260000D01*
%TO.C,J4*%
X134590000Y-46710000D02*
X162790000Y-46710000D01*
X134590000Y-55830000D02*
X134590000Y-46710000D01*
X135890000Y-48020000D02*
X146640000Y-48020000D01*
X135890000Y-54520000D02*
X135890000Y-48020000D01*
X146640000Y-48020000D02*
X146640000Y-46710000D01*
X150740000Y-46710000D02*
X150740000Y-48020000D01*
X150740000Y-48020000D02*
X161490000Y-48020000D01*
X157080000Y-45320000D02*
X157580000Y-46320000D01*
X157580000Y-46320000D02*
X158080000Y-45320000D01*
X158080000Y-45320000D02*
X157080000Y-45320000D01*
X161490000Y-48020000D02*
X161490000Y-54520000D01*
X161490000Y-54520000D02*
X135890000Y-54520000D01*
X162790000Y-46710000D02*
X162790000Y-55830000D01*
X162790000Y-55830000D02*
X134590000Y-55830000D01*
%TO.C,J2*%
X69790000Y-46710000D02*
X97990000Y-46710000D01*
X69790000Y-55830000D02*
X69790000Y-46710000D01*
X71090000Y-48020000D02*
X81840000Y-48020000D01*
X71090000Y-54520000D02*
X71090000Y-48020000D01*
X81840000Y-48020000D02*
X81840000Y-46710000D01*
X85940000Y-46710000D02*
X85940000Y-48020000D01*
X85940000Y-48020000D02*
X96690000Y-48020000D01*
X92280000Y-45320000D02*
X92780000Y-46320000D01*
X92780000Y-46320000D02*
X93280000Y-45320000D01*
X93280000Y-45320000D02*
X92280000Y-45320000D01*
X96690000Y-48020000D02*
X96690000Y-54520000D01*
X96690000Y-54520000D02*
X71090000Y-54520000D01*
X97990000Y-46710000D02*
X97990000Y-55830000D01*
X97990000Y-55830000D02*
X69790000Y-55830000D01*
%TO.C,U1*%
D14*
X167300000Y-63300000D02*
X167300000Y-88700000D01*
X167300000Y-88700000D02*
X192700000Y-88700000D01*
X192700000Y-63300000D02*
X167300000Y-63300000D01*
X192700000Y-88700000D02*
X192700000Y-63300000D01*
X166480000Y-73330000D02*
G75*
G02*
X165580000Y-73330000I-450000J0D01*
G01*
X165580000Y-73330000D02*
G75*
G02*
X166480000Y-73330000I450000J0D01*
G01*
D15*
X167330000Y-63300000D02*
G75*
G02*
X167270000Y-63300000I-30000J0D01*
G01*
X167270000Y-63300000D02*
G75*
G02*
X167330000Y-63300000I30000J0D01*
G01*
%TO.C,J3*%
D13*
X102290000Y-46710000D02*
X130490000Y-46710000D01*
X102290000Y-55830000D02*
X102290000Y-46710000D01*
X103590000Y-48020000D02*
X114340000Y-48020000D01*
X103590000Y-54520000D02*
X103590000Y-48020000D01*
X114340000Y-48020000D02*
X114340000Y-46710000D01*
X118440000Y-46710000D02*
X118440000Y-48020000D01*
X118440000Y-48020000D02*
X129190000Y-48020000D01*
X124780000Y-45320000D02*
X125280000Y-46320000D01*
X125280000Y-46320000D02*
X125780000Y-45320000D01*
X125780000Y-45320000D02*
X124780000Y-45320000D01*
X129190000Y-48020000D02*
X129190000Y-54520000D01*
X129190000Y-54520000D02*
X103590000Y-54520000D01*
X130490000Y-46710000D02*
X130490000Y-55830000D01*
X130490000Y-55830000D02*
X102290000Y-55830000D01*
%TD*%
M02*
